<?xml version="1.0" encoding="UTF-8" standalone="no"?>
<svg
   xmlns:dc="http://purl.org/dc/elements/1.1/"
   xmlns:cc="http://creativecommons.org/ns#"
   xmlns:rdf="http://www.w3.org/1999/02/22-rdf-syntax-ns#"
   xmlns:svg="http://www.w3.org/2000/svg"
   xmlns="http://www.w3.org/2000/svg"
   xmlns:sodipodi="http://sodipodi.sourceforge.net/DTD/sodipodi-0.dtd"
   xmlns:inkscape="http://www.inkscape.org/namespaces/inkscape"
   width="25.022219"
   height="25.045374"
   viewBox="0 0 25.022219 25.045374"
   id="svg4136"
   version="1.1"
   inkscape:version="0.91 r13725"
   sodipodi:docname="BAIK.svg">
  <metadata
     id="metadata4144">
    <rdf:RDF>
      <cc:Work
         rdf:about="">
        <dc:format>image/svg+xml</dc:format>
        <dc:type
           rdf:resource="http://purl.org/dc/dcmitype/StillImage" />
        <dc:title />
      </cc:Work>
    </rdf:RDF>
  </metadata>
  <defs
     id="defs4142" />
  <sodipodi:namedview
     pagecolor="#ffffff"
     bordercolor="#666666"
     borderopacity="1"
     objecttolerance="10"
     gridtolerance="10"
     guidetolerance="10"
     inkscape:pageopacity="0"
     inkscape:pageshadow="2"
     inkscape:window-width="1858"
     inkscape:window-height="1058"
     id="namedview4140"
     showgrid="false"
     fit-margin-top="5.65"
     fit-margin-left="0"
     fit-margin-right="0"
     fit-margin-bottom="5.65"
     inkscape:zoom="28.134995"
     inkscape:cx="12.13429"
     inkscape:cy="12.178266"
     inkscape:window-x="54"
     inkscape:window-y="-8"
     inkscape:window-maximized="1"
     inkscape:current-layer="svg4136" />
  <path
     d="m 2.5750809,15.745507 0.01124,0.0029 0.00899,-0.0044 0.00943,-0.01187 0.00343,4.99e-4 0.00178,0.0061 0.00256,0.0044 0.0045,9.26e-4 0.00406,0.0092 0.00141,0.01924 -6.24e-5,0.01012 0.012801,0.02186 0.00188,0.0049 -0.013051,-0.003 -0.00806,0.0021 -0.00831,0.0052 -0.00915,0.0018 -0.0025,-0.0055 0.005,-0.0089 0,-0.0053 -0.00609,-0.0022 -0.00193,-0.0052 0.00275,-0.0086 -0.00406,-0.01086 -0.028007,-0.01867 -0.0089,-0.01536 0.00103,-0.0138 0.00478,-3.12e-4 0.00462,0.01249 0.00993,0.01209 z m -0.3850077,0.007 0.00787,0.0055 0.00946,-0.004 9.36e-5,0.02167 0.00219,0.02083 0.00699,0.01561 0.014238,0.0062 0.00668,0.0025 0.00537,0.0052 0.00618,0.0044 0.00905,3.12e-4 0.019983,-0.01561 0.0093,-0.0026 -0.011552,0.02701 -0.016641,0.01062 -0.019358,-0.0022 -0.019671,-0.01124 -0.00937,-0.0092 -0.00281,-0.0077 -9.377e-4,-0.0097 -0.00359,-0.01467 -0.00624,-0.01174 -0.023011,-0.0236 -0.011053,-0.02114 6.24e-5,-0.01836 0.034033,-0.07743 0.00624,-0.007 0.00952,-0.0051 0.028101,-0.0073 -8.451e-4,0.01505 -0.035844,0.02051 -0.00924,0.02079 -0.00203,0.01196 -0.00865,0.02167 -0.00193,0.01352 0.00203,0.01393 0.0054,0.01136 z m 0.1947363,-0.133227 0.00325,0.01024 -0.00568,0.01798 -0.00406,0.0081 -0.0049,0.0034 -0.00209,0.005 0.00419,0.03335 -0.00531,0.01842 -0.012271,0.01196 -0.01405,0.0034 -0.010459,-0.0072 -0.00478,-0.01917 0.00225,-0.02061 0.00459,-0.02076 0.0025,-0.01945 0.00325,-0.01312 0.00718,-0.0059 0.013425,-0.0019 0.011552,5.31e-4 0.00515,-0.0022 0.0035,-0.0031 0.00275,9.26e-4 z m 1.4395872,-0.278195 -0.015518,0.0072 -0.030068,-0.01155 -0.024041,-0.01967 -0.016704,-0.0207 -0.00568,-0.01904 0.00874,-0.01324 0.010085,-0.0075 0.00656,-0.0059 0.00269,-0.0069 -0.00181,-0.0058 0.00303,-0.0034 0.0217,0.0016 0.011958,0.0038 0.01099,0.0153 0.00874,0.02513 0.00718,0.02929 0.00219,0.01393 -9.37e-5,0.01764 z m -1.761806,-0.712691 -0.010303,0.0062 -0.013894,-0.01209 -0.00915,-0.02092 -0.028101,-0.07993 -6.251e-4,-0.01649 0.018359,-6.36e-4 0.02579,0.0163 0.011927,0.01111 0.00656,0.01109 0.00977,0.02488 0.00181,0.02039 -0.012083,0.04009 z m 11.8288313,-8.8681629 0.01321,0.023292 0.02451,-0.00837 0.05142,-0.051518 0.01486,-0.00396 0.08727,0.038404 0.120207,0.016548 0.07856,0.045117 0.01717,0.016642 0.0497,0.069689 0.01749,0.012177 0.04877,0.00531 0.02363,0.00887 0.08461,0.057294 0.01018,0.00156 0.01084,-0.010148 0.01998,-0.034189 0.01261,-0.01046 0.05386,-0.018609 0.006,-0.00609 0.0017,-0.00827 3.12e-4,-0.00906 0.0014,-0.00843 0.0073,-0.01686 0.0252,-0.040121 0.01155,-0.00437 0.04821,0.019514 0.01373,-3.747e-4 0.01411,-0.00384 0.01355,-0.00787 0.01155,-0.012864 0.02466,-0.017922 0.03394,-0.00425 0.03444,0.00656 0.02616,0.013832 -0.0097,0.013519 -0.0096,0.017235 -0.0042,0.018234 0.0067,0.016392 0.102098,0.1365996 0.01046,0.029505 0,0.034033 -0.0023,0.029505 -0.01,0.047927 0.01068,0.028288 -0.0049,0.012801 -0.0069,0.012426 -0.0047,0.018296 -9.26e-4,0.019296 0.0045,0.015299 0.02248,0.026446 0.0044,0.014612 -0.0019,0.029037 0.0072,0.035282 0.02507,0.026664 0.03072,0.016985 0.02426,0.00634 0.02654,-3.123e-4 0.01249,0.00353 0.01102,0.010397 0.02079,0.033627 0.0073,0.021856 1.25e-4,0.023823 -0.0077,0.014612 -0.01355,0.00824 -0.03122,0.00937 -0.01926,0.018203 -0.0039,0.029255 0.0043,0.075091 -0.0014,0.00662 -4.37e-4,0.00593 9.84e-4,0.00462 0.01227,0.014144 0.0025,0.012333 -0.0031,0.035719 0.0017,0.0064 0.0045,0.0035 0.01062,0.00375 0.0028,0.00468 -0.0013,0.040683 -0.0032,0.044711 -0.03435,0.00693 -0.01115,-1.874e-4 -0.01187,-0.00412 -0.02267,-0.012895 -0.01249,-0.00437 -0.02201,-0.00106 -0.01436,0.00843 -0.0056,0.021044 0.0039,0.036531 0.03769,0.00266 0.0081,0.00459 0.0031,0.01686 -5e-4,0.024791 -0.003,0.024166 -0.0047,0.014987 0.02351,0.012177 0.0092,0.00968 0.0096,0.015455 0.01873,0.038092 0.01077,0.012271 0.0129,4.371e-4 0.02186,-0.015362 0.01695,-0.020295 0.03091,-0.055639 0.01483,-0.012583 0.01786,0.00353 0.01948,0.00924 0.0192,0.00459 0.01873,-6.888e-4 0.0058,0.00394 0.0057,0.010304 0.0036,0.013676 0.0054,0.050893 0.01342,-0.00203 0.03075,-0.016049 0.0148,-0.00234 0.0065,0.00343 0.01249,0.012739 0.0063,0.00437 0.01062,0.0025 0.0091,-0.00156 0.02039,-0.010928 0.01717,-0.013676 0.0053,-0.014893 -0.0031,-0.04621 0.002,-0.020919 0.0061,-0.019202 0.0098,-0.013926 0.0129,-0.00549 0.119583,0.012177 0.01567,0.00462 0.01149,0.00624 0.0099,0.011115 0.03566,0.069627 0.01374,0.017172 0.01798,0.00612 0.01605,-0.00244 0.0138,-0.00793 0.0078,-0.016735 -0.0019,-0.028663 -0.01061,-0.018203 -0.01695,-0.00674 -0.01883,-0.00306 -0.01611,-0.00724 -0.01124,-0.00968 -8.68e-4,-0.00587 1.56e-4,-0.013582 0.0012,-0.010616 0.0028,-0.012177 0.0035,-0.011677 0.01265,-0.027882 0.0027,-0.011552 -0.005,-0.00968 -0.01436,-0.013051 -0.02007,-0.013425 -0.0069,-0.00977 -0.0014,-0.016423 0.01131,-0.00743 0.06641,0.010303 0.0202,0.011958 0.0227,0.024728 0.01889,0.031223 0.009,0.031379 0.0069,0.01124 0.02795,0.00968 0.0078,0.017797 -0.0025,0.013332 -0.02105,0.047459 0.05473,0.021669 0.05798,0.02298 9.26e-4,0.00331 -0.0047,0.00915 -0.0062,0.014363 -0.0077,0.00291 -0.0088,-0.00188 -0.01008,2.498e-4 -0.0024,0.0035 -0.0045,0.013114 -0.0025,0.00334 -0.0057,-1.249e-4 -0.01852,-0.00696 -0.006,0.0035 -9.27e-4,0.011646 0.0019,0.013676 0.0022,0.00952 0.01124,0.017235 0.01421,0.012801 0.0083,0.015299 -0.0066,0.024447 0,2.185e-4 -0.01511,0.03728 -0.0063,0.021013 9.3e-5,0.016798 0.01177,0.012333 0.01904,0.00493 0.01967,-0.00193 0.01299,-0.00834 0.02529,-0.030973 0.0158,-0.0286 0.0079,-0.00671 0.0094,7.814e-4 0.06213,0.026977 0.01614,-0.00749 -0.0033,-0.036281 -0.01177,-0.030286 -0.01187,-0.021731 -0.01492,-0.011864 -0.02117,-6.888e-4 -0.05371,0.01149 -0.0038,-0.00759 0.0034,-0.01864 0.0064,-0.020295 0.005,-0.012365 0.02791,-0.029849 0.03129,-0.00656 0.08143,0.00937 0.07837,0.00905 0.03456,-0.00468 0.009,0.00446 0.0071,0.013926 0.0031,0.018359 0.002,0.040465 0.02866,0.0143 0.0071,0.013926 0.0056,0.029443 0.01124,0.013738 0.07824,0.018171 0.10366,0.024041 0.0084,-0.00259 0.0033,-0.00806 0.003,-0.02248 0.0052,-0.00387 0.01914,0.00144 0.0057,0.00206 0.0077,0.00703 0.01405,0.017235 0.0077,0.002 0.01483,-0.00456 0.0074,-0.00656 0.0022,-0.013207 -0.001,-0.024572 0.0051,-0.019046 0.03584,-0.00905 0.01077,-0.015924 -0.0022,-0.012708 -0.0054,-0.01124 -0.0021,-0.0088 0.008,-0.00531 0.03229,-0.00756 0.0099,0.00269 7.53e-4,0.00375 0.002,0.021606 0.0061,0.00331 0.03403,-0.00993 -0.0266,0.1633575 -0.0087,0.027726 -0.01293,0.013738 -0.01673,0.00359 -0.09117,-0.018109 -0.01792,0.00125 -0.01474,0.00856 -0.0128,0.015736 -0.01205,0.022855 0.02851,0.020451 -0.05532,0.021606 -0.0099,0.012863 -0.01499,0.092513 -0.02623,0.00481 -0.01162,0.00637 -0.0092,0.012801 -0.0057,0.019983 0.0028,0.013613 0.0207,0.024291 -0.01724,0.034969 0.09823,0.053609 -0.02692,0.06257 0.03903,0.030099 0.008,-0.00259 0.06095,-0.061509 0.01396,-0.014862 0.0053,-0.00806 0.005,-0.011022 0.0077,-0.028506 0.004,-0.00562 0.01093,-0.00437 0.0046,-4.683e-4 0.01467,0.00256 0.0054,-0.0025 0.0021,-0.016361 0.0042,-0.016079 1.56e-4,-0.00824 9.84e-4,-0.00662 0.0042,-0.00244 0.0469,0.00188 0.01021,0.00281 0.02114,0.012302 0.0095,-0.00343 0.04246,-0.034751 0.01923,-0.00724 0.01992,-3.747e-4 0.06538,0.00987 0.0088,0.00556 0.003,0.016361 -9.26e-4,0.019795 8.11e-4,0.016766 0.0086,0.00718 0.01886,0.00116 0.0067,-0.00459 0.01133,-0.025103 0.0066,-0.00421 0.04034,0.00103 0.0057,0.0025 0.0073,0.013114 0.0038,0.014518 0.0054,0.011334 0.01218,0.00374 -0.0045,0.023636 0.004,0.015393 0.02226,0.023292 6.2e-5,2.185e-4 0.03232,0.026977 0.01801,0.00406 0.01268,-0.015799 0.02923,-0.094823 -9.27e-4,-0.00787 -0.0066,-0.00865 -0.01099,-0.010865 -0.0036,-0.00687 0.0054,-0.052142 0.0054,-0.020451 0.0092,-0.011958 0.09966,0.00443 0.0063,-0.00687 0.0108,-0.048832 0.0061,-0.014269 0.0052,-0.00681 0.0072,-0.00219 0.03091,-0.00219 0.0059,-0.00624 0.0052,-0.014737 0.0067,-0.030068 0.0048,-0.01455 0.006,-0.00862 0.02092,-0.00706 0.05033,0.00141 0.02167,0.00556 0.04702,0.025416 0.01655,-0.0015 0.152679,-0.1138381 0.09567,-0.0715 -0.0448,-0.076027 0.04193,-0.031848 0.02148,-0.010928 0.02173,-0.00188 0.06319,0.00818 0.02279,-0.00453 0.245505,-0.1178659 0.0868,-0.041683 -0.0073,-0.024198 -0.0013,-0.017485 0.0045,-0.016111 0.0103,-0.019764 0.0128,-0.017391 0.01187,-0.00546 0.121612,0.032347 0.02654,-0.00687 0.03887,-0.029349 0.01333,-0.00537 0.0094,-5.62e-4 0.01873,0.00234 0.0093,-0.00141 0.01093,-0.011115 0.0027,-0.018172 3.12e-4,-0.020919 0.0037,-0.019545 0.0128,-0.014893 0.01749,-0.00399 0.03419,0.00334 0.01524,-0.0025 0.043,-0.022887 0.01218,-0.00369 0.01442,8.451e-4 0.0089,0.00974 -0.0042,0.023105 -0.01093,0.010303 -0.04952,0.013332 -0.01099,0.00765 -0.01352,0.012926 -0.0072,0.014518 0.008,0.012739 0.03041,0.00943 0.01124,0.010428 0.0055,0.024478 -0.0034,0.026664 -0.0103,0.020201 -0.01271,0.017703 -0.01086,0.01914 -0.0074,0.030598 -0.0047,0.01099 -0.0069,0.00905 -0.0153,0.014363 -0.0061,0.00977 -0.03154,0.038404 -0.03715,-0.00131 -0.0779,-0.029974 -0.03903,-0.00172 -0.01168,0.00412 -0.0103,0.00781 -0.0014,0.00681 0.06245,0.1102163 0.0038,0.012426 0.0077,0.039341 0.01867,0.032253 0.580867,0.4683412 0.08393,0.067285 0.105096,0.1182717 0.05027,0.056388 0.06697,0.1060012 0.239696,0.4221939 0.06619,0.1157428 0.346354,0.6456864 6.3e-5,0 0.195766,0.3708013 0.06526,0.122924 0.246972,0.5296006 0.03256,0.0695 0.01733,0.05089 0.0069,0.0153 0.01442,0.02132 0.01904,0.02051 0.02061,0.01352 0.01899,7.17e-4 -0.03353,-0.0548 -0.0096,-0.02966 0.02073,-0.01249 0.0108,0.0055 0.02117,0.02429 0.01074,0.0064 0.01442,-0.0021 0.0072,-0.0098 0.0084,-0.03153 0.008,-0.01536 0.0086,-0.0065 0.02404,-0.01055 0.0055,-0.0053 0.0088,-0.01227 0.0056,-0.0042 0.0076,-0.0014 0.02498,0.0029 0.02435,-0.005 0.02607,-0.01405 0.02211,-0.02367 0.01249,-0.03353 0.0023,-0.01477 0.0011,-0.01742 -3.12e-4,-0.01742 -0.0021,-0.01486 -0.0058,-0.01417 -0.01686,-0.01811 -0.0083,-0.01239 -0.0021,-0.01205 3.13e-4,-0.01805 0.0035,-0.03191 0.0053,-0.01867 0.0076,-0.01274 0.0108,-0.00718 0.01474,-0.00162 0.05208,0.00737 0.0232,-0.00631 0.0081,-0.024728 9.26e-4,-0.015424 0.0045,-0.014518 0.0067,-0.013114 0.0077,-0.011053 0.01193,-0.010678 0.01115,-0.00188 0.0818,0.040121 0.01586,0.00343 0.0073,-0.00696 0.0058,-0.010928 0.01124,-0.00884 0.01424,0.00125 0.0052,0.013113 0.0013,0.03397 0.0049,0.018859 0.0072,0.010116 0.02441,0.014238 0.0282,0.01336 0.01393,0.0038 0.01548,0.0016 0.01724,-0.01848 0.0089,-0.0049 0.01218,0.0014 0.01177,0.0077 0.0041,0.01199 -0.0017,0.01642 -0.0054,0.02092 -0.04078,0.102286 -0.01624,0.05932 -0.0016,0.01374 0.0042,0.0084 0.01199,0.0062 0.01624,0.0038 0.03325,-0.0016 0.07253,-0.02373 0.07543,0.0034 2.5e-4,0.03509 0.0091,0.03232 0.0143,0.02904 0.0163,0.0251 -0.01312,0.01973 -0.01136,0.02435 -0.0045,0.02488 0.0075,0.02101 0.01786,0.01005 0.130824,-0.0055 0.01411,-0.0087 0.01749,-0.02857 0.01124,-0.01 0.01177,6.25e-4 0.02289,0.01592 0.01317,0.002 0.0444,-0.0082 0.03078,0.0048 0.02748,0.0092 0.01361,0.0092 0.03703,0.03331 0.01374,0.0073 0.03166,0.0062 0.01611,-0.0013 0.01536,-0.0056 0.01093,-0.0103 0.01199,-0.01449 0.01187,-0.0104 0.01068,0.0021 0.0094,0.0055 0.0078,-0.0034 0.0076,-0.0066 0.009,-0.0043 0.0078,0.0017 0.0062,0.0046 0.0068,0.0033 0.028,-0.0061 0.01342,0.007 0.02788,0.02623 0.07853,-0.0532 0.0419,-0.02004 0.01545,-0.02051 0.0012,-0.06775 0.01617,-0.01917 0.02329,-0.0058 0.04871,0.01452 0.08056,0.0095 0.02788,-0.0095 0.02223,-0.0246 0.01727,-0.03435 0.01312,-0.03897 0.01218,-0.0025 0.0062,5.31e-4 0.01574,0.006 0.01,0.0012 0.01,-0.0014 0.0099,-0.0038 0.06832,-0.0095 0.06738,0.0095 0.01717,0.02748 0.0092,0.01068 0.01305,0.0077 0.06813,0.01299 0.01399,0.007 0.03544,0.03197 0.01358,0.0093 0.01218,0.0025 0.02779,2.19e-4 0.01364,0.0037 0.01224,0.0074 0.01093,0.01136 0.01917,0.03372 0.008,0.0091 0.02395,0.01087 0.01749,0.01967 -5e-4,0.06042 0.01592,0.03044 0.069,0.04996 0.008,0.0058 0.01917,0.02679 0.0057,0.01858 0.0017,0.01489 0.0038,0.01299 0.02123,0.02367 0.0059,0.01592 0.0014,0.01758 -0.01296,0.05183 0.0092,0.03016 0.01624,0.02882 0.0128,0.03166 0.0016,0.02179 -0.0014,0.02161 1.25e-4,0.0202 0.0063,0.01748 0.0072,0.0061 0.0182,0.0053 0.0079,0.0046 0.0047,0.0066 0.0075,0.01602 0.0042,0.0059 0.02289,0.0016 0.02232,-0.0182 0.0217,-0.01318 0.02139,0.0168 0.01764,0.02148 0.01904,0.01302 0.02051,0.0052 0.02248,-0.0019 0.02198,0.0024 0.01511,0.01421 0.01386,0.01811 0.01892,0.01374 0.01093,0.0013 0.02142,-0.0028 0.01068,0.0053 0.0067,0.0086 0.01499,0.03528 0.0077,0.0056 0.01055,-0.0038 0.01093,-0.0072 0.0087,-0.0041 0.01361,0.0016 0.04009,0.01895 0.0067,0.0078 0.02042,0.03232 0.005,0.01196 -0.0017,0.01561 -0.0098,0.0059 -0.02888,0.0057 -0.0045,0.0013 -0.0025,0.05433 0.0024,0.02507 0.01296,0.01227 0.03475,0.0086 0.01449,0.01102 0.0088,0.02192 0.0031,0.03441 0.0036,0.01317 0.01,0.01686 0.03987,0.04568 0.01337,0.02735 0.0061,0.075 0.01749,0.02826 0.02414,0.01342 0.02423,-0.0081 0.01077,-0.0088 0.0133,-0.0082 0.01355,-0.0056 0.01211,-0.0015 0.0142,0.0057 0.02672,0.01998 0.01508,0.005 0.02295,-0.0022 0.01105,-0.0035 0.01099,-0.0058 0.01929,-0.01708 0.01,-0.0056 0.01084,0.0021 0.0083,0.01005 0.0084,0.02735 0.0085,0.01187 0.01046,0.0042 0.01024,-0.0023 0.02186,-0.0095 0.01327,0 0.01062,0.0058 0.0091,0.01018 0.0091,0.01342 0.0091,0.005 0.01124,-0.0042 0.02029,-0.01552 0.01218,-0.0054 0.01174,-7.53e-4 0.02491,0.0042 9.26e-4,0.0081 -0.0062,0.03866 -3.12e-4,0.01624 0.0091,0.01077 0.01021,0.0027 0.01043,-0.004 0.0291,-0.03082 0.02623,-0.01 0.0251,0.0057 0.01539,0.0256 0.02479,0.02795 0.0226,-0.03091 0.01967,-0.05077 0.01574,-0.03169 0.0351,-0.0251 0.03809,-0.01389 0.04065,-0.03841 0.01052,-0.0049 0.0038,-0.0058 7.53e-4,-0.0088 -0.002,-0.01037 -0.0042,-0.01046 0.02872,-0.01749 0.01086,-0.01193 0.005,-0.003 0.0077,0.0011 0.0042,-0.0012 0.01218,-0.01642 0.0063,-0.01973 0.0091,-0.01386 0.01973,0.0016 0.02598,0.01483 0.0094,4.68e-4 0.01874,-0.0046 0.01071,-4.05e-4 0.0064,0.0042 4.37e-4,0.0103 -0.0099,0.02179 -0.0035,0.0092 0.0017,0.01155 0.0067,0.01049 0.01492,0.01583 -0.01236,0.01274 -0.01171,0.0091 -0.01249,0.0049 -0.02957,0.0024 -0.01261,0.01 -0.02198,0.03153 -0.0093,0.01736 -0.0025,0.01383 0.0046,0.01293 0.01177,0.01467 0.01467,0.0099 0.01321,6.2e-5 0.02779,-0.0067 0.01405,0.0037 0.04278,0.02679 0.01337,0.01227 -9.26e-4,0.01552 -0.0053,0.01867 -1.56e-4,0.02154 0.0092,0.01574 0.01552,0.01131 0.03122,0.01561 0.01686,0.01368 -0.0014,0.009 -0.0093,0.01 -0.0065,0.01686 0.0049,0.01249 0.01239,0.01349 0.0409,0.033 0.0076,0.0078 0.0027,0.0075 1.25e-4,0.01321 0.0045,0.0091 0.0074,0.0058 0.0084,0.0036 0.01561,0.0018 0.05167,-0.0048 0.0183,0.0039 0.01686,0.0075 0.03294,0.02311 0.0098,0.01948 0.01249,0.06588 0.0096,0.02667 -0.07531,-0.02192 -0.02363,-0.01312 -0.02791,-0.0066 -0.08618,0.03497 -0.01764,-0.002 -0.03615,-0.01155 -0.01705,0.0014 -0.01302,0.01074 -0.01349,0.03303 -0.01055,0.01514 -0.02373,0.02067 -0.01015,0.01155 -0.0098,0.01617 -0.0083,0.01904 -0.0027,0.01461 0.0013,0.01599 0.0039,0.0228 0.01455,0.03147 0.01948,0.01879 0.0097,0.01801 -0.01521,0.02925 -0.0114,0.01374 -0.0042,0.0086 8.1e-4,0.01099 0.007,0.03947 0,0.01274 -0.0046,0.01099 -0.04621,0.06419 -0.02925,0.02872 -0.0095,0.01209 -0.0073,0.01474 -0.01124,0.03169 -0.0062,0.01155 -0.01143,0.0094 -0.07081,0.02888 -0.05917,-0.0042 -0.01617,0.0067 -0.0129,0.01234 -0.02423,0.02982 -0.03341,0.01764 -0.113775,-0.01043 -0.135976,0.02023 -0.02217,0.01611 -0.01758,0.02878 -0.08087,0.199826 -0.01508,0.101224 -0.009,0.03444 -0.01124,0.0241 -0.0067,0.01998 -0.0015,0.02229 0.04896,0.269515 2.18e-4,0.0301 -0.0097,0.06082 0.0028,0.02779 0,1.25e-4 0.0096,0.02685 0.0429,0.07131 0.0052,0.01855 -0.003,0.01761 -0.0042,0.01648 0.0019,0.0153 0.0053,0.01655 0,0.01427 -0.0065,0.02972 -0.0024,0.01852 -0.003,0.0133 -0.0076,0.0078 -0.02791,0.0031 -0.01477,0.0047 -0.01265,0.0094 -0.0059,0.01505 -0.0017,0.01686 -0.0034,0.0138 -0.0054,0.01224 -0.0079,0.01258 -0.0054,0.01599 -0.0014,0.01673 -0.0044,0.01084 -0.04065,-0.0012 -0.07852,0.0123 -0.03522,-0.0045 -0.01243,0.0025 -0.01268,0.007 -0.0083,0.0094 -0.01474,0.02717 -0.01312,0.01337 -0.04209,0.03116 -0.01767,0.02029 -0.0078,0.0051 -0.02754,0.0066 -0.0089,0.005 -0.01,0.0099 -0.01384,0.02672 -0.01274,0.0094 -0.0464,0.01021 -0.04465,0.01883 -0.01686,0.003 -0.01212,-0.0058 -0.0026,-0.01239 0.0054,-0.01349 0.0086,-0.01421 0.0067,-0.01458 0.0013,-0.03185 -0.01224,-0.0266 -0.01983,-0.02014 -0.02186,-0.01224 -0.02903,-0.0022 -0.05807,0.01477 -0.0277,-0.0049 -0.03297,-0.01602 -0.0097,-0.001 -0.01055,0.0011 -0.07509,-0.0064 -0.06551,0.0062 -3.75e-4,6.2e-5 -0.03925,0.02301 -0.01486,0.0027 -0.04309,-0.0089 -0.05739,3.75e-4 -0.232922,-0.08355 -0.104596,-0.06994 -0.02404,-0.01171 -0.05633,-0.01249 -0.01227,-0.0076 -0.03153,-0.0281 -0.01467,-0.0054 -0.01671,-0.0019 -0.0168,0.0011 -0.01511,0.0034 -0.01555,0.0079 -0.0049,0.01018 9.27e-4,0.03615 -0.0018,0.01055 -0.0067,0.01914 -0.0019,0.01 7.53e-4,0.0091 0.0042,0.01749 -4.99e-4,0.0097 -0.0094,0.03378 -0.0028,0.01761 0.0017,0.01749 0.0031,0.01561 -9.26e-4,0.01514 -0.0039,0.01449 -0.08961,0.187805 -0.05598,0.212814 -0.0242,0.05255 -0.004,0.0153 -0.0073,0.04818 -0.0092,0.02779 -0.04065,0.06722 -0.02423,0.05189 -0.01614,0.05739 -0.01586,0.121988 -0.01646,0.0804 -0.008,0.02504 -0.01733,0.04193 -0.04605,0.08002 -0.02211,0.08667 -0.01923,0.04571 -0.0046,0.02473 -0.0034,0.01864 0.02217,0.03481 0.02132,0.01055 0.09198,0.01349 0.06276,0.02645 0.01,0.01705 0.0027,0.03216 -0.0016,0.03444 -0.01177,0.07893 -0.01796,0.06226 -0.02779,0.04612 -0.03909,0.0069 -0.0296,-0.01867 -0.05236,-0.0587 -0.02888,-0.0202 -0.03013,-0.0031 -0.03279,0.0083 -0.11696,0.05957 -0.03079,0.0078 -0.02442,-0.01171 -0.01171,-0.01361 -0.0096,-0.0064 -0.04162,-0.0067 -0.0084,-0.006 -0.0031,-0.01171 -6.94e-4,-0.02014 -0.0036,-0.02982 -0.01,-0.03569 -0.0158,-0.02638 -0.0211,-0.0016 -0.0242,-0.0071 -0.02604,0.01187 -0.04927,0.03568 -0.243288,0.077 -0.04995,0.02816 -0.02482,0.0092 -0.02804,4.99e-4 -0.07469,0.02997 -0.01608,6.37e-4 -0.05008,-0.01605 -0.02966,5.31e-4 -0.09804,0.03684 -0.04234,-0.0045 -0.01358,0.0018 -0.01243,0.01046 -0.01143,0.03072 -0.01,0.0094 -0.0153,0.0023 -0.04558,-0.0026 -0.04371,0.01749 -0.04371,-0.0073 -0.02701,0.002 -0.02545,0.01143 -0.0232,0.02226 -0.06057,0.05324 -0.02847,0.01467 -0.01218,0.0095 -0.0094,0.0261 0.0157,0.02079 0.07525,0.04808 0.0292,0.0027 0.109405,-0.02379 0.01617,0.0018 0.01131,0.0057 0.03135,0.02504 0.09885,0.03865 0.0099,0.0064 0.0031,0.01124 -0.0033,0.01136 -0.0097,0.0069 -0.03975,0.0094 -0.02132,0.0099 -0.01249,0.0158 -8.68e-4,0.0095 0.0028,0.0079 0.01109,0.01483 0.004,0.01074 -0.0023,0.0099 -0.0094,0.01858 -0.0163,0.06494 -0.0046,0.0351 0.0015,0.03053 0.02454,0.125828 1.25e-4,0.0335 -0.01661,0.06151 -0.0044,0.03185 0.0038,0.01567 0.0091,0.01174 0.01986,0.02029 0.007,0.01405 0.0038,0.01452 0.0014,0.01561 1.87e-4,0.0173 0.0064,0.01789 0.01024,0.01967 0.02217,0.03291 0.07234,0.191208 0.07231,0.190522 -0.0016,0.02779 -0.0098,0.02623 -0.03141,0.05761 0.0096,0.01312 0.02295,0.0062 0.02414,0.01209 0.008,0.01155 0.0045,0.01467 0.002,0.0163 5.01e-4,0.01633 0.0032,0.0158 0.01405,0.0266 0.0032,0.01574 -0.0034,0.01792 -0.0088,0.01268 -0.01218,0.0074 -0.01342,0.0025 -0.01271,-0.0031 -0.03104,-0.02348 -0.02538,-0.0013 -0.02604,0.01249 -0.04777,0.03622 -0.05355,0.02301 -0.02569,0.01686 -0.008,0.02336 0.01143,0.02123 0.02073,0.01717 0.04184,0.02039 0.02801,0.0041 0.0128,0.0073 0.0071,0.0148 -0.0036,0.01711 -0.01337,0.0084 -0.03091,0.0038 -0.04627,0.01739 -0.01149,0.0097 -0.0292,0.01196 -0.01049,0.0013 -0.02142,-0.0059 -0.0103,-8.1e-4 -0.01015,0.0062 -0.01274,0.02101 -0.01352,0.0499 -0.01008,0.02454 -0.02233,0.03425 -0.0053,0.01299 -0.0023,0.01811 0.0032,0.01317 0.0049,0.01293 0.0054,0.03247 0.007,0.01286 0.01608,0.02367 0.0064,0.01455 9.26e-4,0.01 -0.01062,0.02694 8.68e-4,0.0097 0.0138,0.06594 0.0042,0.01318 0.0062,0.01196 0.0085,0.01209 0.01155,0.05948 -0.0049,0.0177 -0.0069,0.0096 -0.02373,0.01271 -0.02673,-0.01583 -0.01842,-0.02488 -0.01617,-0.02851 -0.02023,-0.02679 -0.03966,-0.03622 -0.02336,-0.03465 -0.0084,-0.01 -0.02582,-0.01736 -0.135507,-0.02935 -0.02685,-10e-4 -0.04927,0.0096 -0.05839,-0.0037 -0.03107,-0.01295 -0.01667,-0.02267 -0.02779,-0.06669 -0.01936,-0.02067 -0.0484,-0.02292 -0.02186,-0.02217 -0.0087,-0.0153 -0.0063,-0.01561 -0.0035,-0.01693 -6.37e-4,-0.01923 0.0035,-0.03207 -0.0046,-0.0084 -0.01536,-0.0045 -0.02414,0.0047 -0.04761,0.02435 -0.0232,-8.69e-4 -0.02363,-0.0094 -0.04047,-0.0024 -0.04908,-0.02029 -0.07387,-0.0075 -0.01049,-0.0055 -0.0211,-0.0178 -0.02517,-0.01477 -0.06004,-0.02117 -0.04065,-0.0042 -0.02695,0.002 -0.0128,0.0048 -0.02217,0.01436 -0.01046,0.004 -0.0129,-7.52e-4 -0.0251,-0.0091 -0.0118,-0.0022 -0.02826,0.0041 -0.02795,-0.0016 -0.06557,0.0061 -0.02723,-0.0046 -0.03475,-0.0207 -0.01364,-0.0052 -0.01418,-0.0016 -0.01386,0.002 -0.01567,0.0092 -0.01567,0.0071 -0.0072,-0.0052 -0.0104,-0.01511 -0.04121,-0.01 -0.0404,-0.0016 -0.0128,0.0024 -0.03207,0.01561 -0.01021,-2.19e-4 -0.01187,-0.0068 -0.01062,-0.0089 -0.01187,-0.0064 -0.02435,1.25e-4 -0.01702,-0.0059 -0.0094,-6.94e-4 -0.0094,0.0021 -0.02592,0.01271 -0.01998,0.0059 -0.06026,-0.01024 -0.0211,-2.18e-4 -0.01005,-0.0026 -0.0092,-0.0073 -0.01749,-0.02488 -0.0068,-0.0059 -0.02086,-0.0078 -0.06944,-0.01171 -0.01192,-0.0053 -0.01196,0.0021 -0.02423,0.0097 -0.02707,3.12e-4 -0.01218,0.002 -0.01187,0.0086 -0.01293,0.01539 -0.0047,0.0029 -0.0034,3.12e-4 -0.01111,-0.0023 -0.0046,0.001 -0.0014,0.0031 -7.53e-4,0.0038 -0.0025,0.0031 -0.02342,0.01271 -0.01171,0.0028 -0.02717,-6.95e-4 -0.02354,0.01055 -0.0128,0.0031 -0.01605,-0.0029 -0.03172,-0.01358 -0.01611,-0.0021 -0.01137,0.0049 -0.0183,0.01789 -0.01099,0.0034 -0.0059,-0.0031 -0.0069,-0.01337 -0.0062,-0.0041 -0.0074,4.37e-4 -0.01218,0.0056 -0.0065,9.85e-4 -0.05255,-0.01624 -0.05552,0 -0.04477,-0.01099 -0.01592,2.5e-4 -0.03996,0.01364 -0.0138,-8.68e-4 -0.04808,-0.01418 -0.02385,-0.0034 -0.03176,0.0025 -0.0061,5.31e-4 -0.0092,0.0024 -0.007,0.0065 -0.0198,0.05348 -0.0066,0.01074 -0.01452,0.01518 -0.01739,0.01261 -0.0178,0.0077 -0.01577,6.94e-4 -0.03944,-0.01661 -0.01218,-0.0014 -0.0241,0.0025 -0.137848,-0.0182 -0.04072,4.68e-4 -0.01592,-0.0038 -0.03697,-0.02239 -0.01461,-0.01149 -0.01717,-0.0103 -0.03716,-0.01149 -0.01749,-0.0084 -0.0173,-0.0153 -0.05239,-0.02591 -0.06978,-0.01187 -0.0213,-0.0082 -0.06276,-0.04877 -0.0087,-0.01018 -0.0153,-0.0267 -0.0084,-0.01074 -0.01155,-0.0066 -0.02513,-0.0069 -0.02167,-0.01474 -0.02579,-0.0027 -0.01227,-0.0064 -0.03166,-0.02645 -0.01749,-0.0089 -0.02029,-0.0047 -0.0173,-0.0072 -0.03116,-0.02851 -0.0177,-0.01 0.01673,0.02311 0.0064,0.01445 -0.0016,0.01199 -0.01012,0.0058 -0.09632,0.01168 -0.01124,-0.0038 -0.02204,-0.0213 -0.01227,-0.0044 -0.01848,0.01442 -0.02042,0.05763 -0.02285,0.01243 -0.02535,-9.84e-4 -0.01055,0.0022 -0.104909,0.04371 -0.02898,0.01692 -0.0096,0.0087 -0.0069,0.01218 -0.02323,0.06785 -0.01258,0.02242 -0.005,0.01199 -0.0021,0.0143 0.0015,0.01405 0.0075,0.02785 0.0017,0.01518 -0.0022,0.0128 -0.04871,0.10928 -0.0068,0.02947 -0.0017,0.03131 0.0046,0.02779 0.0094,0.02601 0.0444,0.08617 -2.5e-4,0.01486 -0.01724,0.0032 -0.03635,-0.01489 -0.05579,-0.0096 -0.0072,-0.01071 -6.37e-4,-0.01789 0.0019,-0.02529 -0.0093,-0.01108 -0.01405,-0.0053 -0.04377,-0.0031 -0.01086,-0.003 -0.01,-0.0058 -0.01227,-0.0094 -0.02298,-0.0096 -0.02716,-9.26e-4 -0.07846,0.01321 -0.0208,-7.52e-4 -0.0207,-0.0058 -0.02067,-0.0097 -0.01561,-0.01442 -0.02117,-0.0394 -0.01446,-0.01642 -0.01904,-0.01052 -0.0868,-0.02114 -0.04408,6.37e-4 -0.02142,-0.0042 -0.07237,-0.04896 -0.0404,-0.01639 -0.07843,-0.0034 -0.0094,0.0025 -0.01761,0.0085 -0.0092,0.0013 -0.01967,-0.0057 -0.07075,-0.03953 -0.03769,-0.0095 -0.01015,-0.0045 -0.0095,-0.0064 -0.0095,-0.0042 -0.01,0.0021 -0.02123,0.0078 -0.04296,0.0022 -0.02011,0.0066 -0.06725,0.0434 -0.01055,0.002 -0.0077,-0.0031 -0.02417,-0.02061 -0.0062,-0.0033 -0.0064,6.37e-4 -0.01008,0.0045 -0.0295,-0.01 -0.01483,5.62e-4 -0.0108,0.0099 -0.0065,0.0123 -0.0081,0.01187 -0.0094,0.0094 -0.01093,0.0048 -0.01299,-0.0025 -0.01452,-0.0069 -0.01361,-0.0044 -0.01043,0.0054 -0.01321,0.02429 -0.0076,0.01062 -0.0099,0.0066 -0.02304,0.0077 -0.0052,0.0083 -0.0016,0.01749 10e-4,0.03279 -0.0032,0.01239 -0.0097,0.0099 -0.05277,0.0084 -0.02295,0.01411 0.0058,0.03113 0.0062,0.008 0.02139,0.01911 1.25e-4,0 0.0052,0.0094 -0.0013,0.0098 -0.0058,0.0083 -0.0084,0.0046 -0.01,-9.26e-4 -0.02904,-0.01892 -0.0094,0.0088 -0.0087,0.01396 -0.007,0.01624 -0.0038,0.01605 0.0011,0.009 0.0034,0.0056 0.0015,0.0057 -0.0044,0.0096 -0.01976,0.02435 -0.02173,0.02092 -0.0074,0.0128 0.0034,0.01236 0.02426,0.02435 0.0128,0.0068 0.0178,0.0043 -0.02073,0.01702 -0.02073,0.01702 -0.01155,0.0059 -0.01146,0.0059 -0.01155,0.0017 -0.01155,0.0017 -0.01418,-0.004 -0.0142,-0.004 -0.0073,3.12e-4 -0.0073,3.13e-4 -0.0044,0.0059 -0.0045,0.0059 -0.0025,0.0077 -0.0024,0.0077 -0.0033,0.0055 -0.0032,0.0055 -0.0085,0.0103 -0.0086,0.0103 -0.0072,0.01343 -0.0071,0.01342 -0.0056,0.01505 -0.0057,0.01505 -0.0065,0.01209 -0.0065,0.01218 -0.0096,0.0046 -0.0095,0.0046 -0.0073,-0.001 -0.0072,-9.26e-4 -0.0064,-0.0026 -0.0065,-0.0026 -0.0047,-0.0048 -0.0047,-0.0048 -0.0066,-0.02083 -0.0023,-0.0054 -0.0049,-0.0054 -0.0049,-0.0056 -0.0056,-0.004 -0.0056,-0.0041 -0.0046,-8.68e-4 -0.0045,-9.26e-4 -0.02976,0.01299 -0.02988,0.01299 -0.01318,0.01137 -0.01302,0.0114 -0.0076,0.01686 -0.0076,0.01677 -0.0021,0.0072 -0.0023,0.0072 -0.0039,0.0044 -0.0039,0.0044 -0.01552,0.0073 -0.0056,0.002 -0.0053,0.003 -0.0053,0.0031 -0.0044,0.0046 -0.0045,0.0046 -0.02067,0.036 -0.02079,0.03606 -0.0078,0.0091 -0.0077,0.0091 -0.02548,0.01895 -0.02535,0.0188 -0.01711,0.0062 -0.01708,0.0064 -0.0048,0.0038 -0.0047,0.0038 -0.0042,0.0063 -0.0041,0.0063 -0.0094,0.01093 -0.0093,0.01106 -0.01261,0.0054 -0.0128,0.0054 -0.03403,0.0013 -0.03403,0.0013 -0.04128,0.01155 -0.04121,0.01149 -0.0053,0.0041 -0.0051,0.0041 -0.0087,0.01021 -0.0087,0.01024 -0.03107,0.02466 -0.03113,0.0246 -0.01739,0.0055 -0.01739,0.0056 -0.0081,0.0059 -0.0081,0.0059 -0.0039,0.01068 -0.004,0.01068 0.0011,0.0044 0.0011,0.0043 0.0051,0.0094 0.0051,0.0095 3.75e-4,0.0042 3.12e-4,0.0042 -0.0036,0.002 -0.0035,0.0022 -0.01827,-0.0034 -0.01811,-0.0034 -0.0047,0.0013 -0.0045,0.0013 -0.01187,0.0077 -0.01174,0.0076 -0.0045,6.95e-4 -0.0045,6.36e-4 -0.0091,-0.0032 -0.0091,-0.0034 -0.0049,0.001 -0.005,10e-4 -0.01667,0.01062 -0.01664,0.01062 -0.0075,0.0074 -0.0075,0.0074 -0.0031,0.0084 -0.0031,0.0085 -0.0056,-0.0023 -0.0057,-0.0022 -0.0057,0.0017 -0.0057,0.0019 -0.03078,0.01599 -0.0025,0.0022 -0.0014,0.0028 -0.0014,0.0029 8.11e-4,0.0034 7.52e-4,0.0034 0.0095,0.01084 8.68e-4,0.0014 0.002,0.01624 2.5e-4,0.0067 -0.0048,0.03872 -0.0047,0.03872 -0.0025,0.0047 -0.0024,0.0047 -0.0053,0.0051 -0.0052,0.0052 -0.01043,0.0072 -0.01055,0.0072 -0.01106,0.0054 -0.01093,0.0054 -0.01321,0.0017 -0.01312,0.0017 -0.0062,0.0021 -0.0063,0.0021 -0.004,0.0053 -0.0039,0.0053 -0.0076,0.01312 -0.0076,0.01321 -0.02092,0.0093 -0.02107,0.0093 -0.0085,0.0095 -0.0083,0.0095 -0.01124,0.03247 -0.01124,0.03241 -0.0061,0.0076 -0.0062,0.0076 -0.02435,0.01074 -0.01321,0.0058 -0.0085,0.0058 -0.0085,0.0059 -0.0034,0.0094 -0.0033,0.0095 -0.0099,-0.0048 -0.0013,-7.53e-4 9.26e-4,0.03091 -3.75e-4,0.0039 -0.0019,0.0046 -0.002,0.0046 -0.0056,0.005 -0.0017,0.002 -0.0012,0.0062 -0.001,0.0062 0.0031,0.03378 0.0031,0.03382 0.002,0.0076 0.002,0.0075 0.0025,0.0033 0.0025,0.0032 0.003,0.0017 0.003,0.0017 0.0078,0.0018 0.0076,0.0019 -2.18e-4,0.005 -3.12e-4,0.005 0.0011,0.0052 0.001,0.0052 0.0067,0.01436 0.0026,0.0045 -6.36e-4,0.0027 -6.37e-4,0.0027 -0.0074,0.0123 -0.0074,0.01218 0.0058,0.0031 0.0059,0.0031 -0.0018,0.0053 -0.0019,0.0053 -0.0066,0.0038 -0.0064,0.0039 -0.0082,-0.0012 -0.0082,-0.0013 -0.01218,-0.0061 -0.01224,-0.0061 -0.0035,-6.36e-4 -0.0035,-6.37e-4 -0.0029,0.0019 -0.0028,0.002 -0.0056,0.0098 -0.0024,0.0028 -0.0047,-2.5e-4 -0.0046,-2.5e-4 -0.0086,0.0097 -9.84e-4,0.0021 -0.119396,-0.06288 -0.02466,-0.01302 -0.02061,-0.0163 -0.02051,-0.01624 -0.02795,-0.02779 -0.02797,-0.02779 -0.0093,-0.0053 -0.0093,-0.0053 -0.01205,-0.0025 -0.01218,-0.0027 -0.002,-0.0014 -0.002,-0.0014 9.84e-4,-0.0032 9.26e-4,-0.0031 0.0028,-0.0025 0.0027,-0.0025 0.01074,-0.0049 0.01077,-0.0049 0.005,-0.0041 0.005,-0.0041 0.01249,-0.01548 0.0034,-0.0053 0.0047,-0.01052 0.0047,-0.01055 0.0045,-0.01324 0.0046,-0.01321 0.003,-0.01361 0.003,-0.01358 1.25e-4,-0.01155 6.3e-5,-0.01155 -0.0025,-0.0047 -0.0025,-0.0047 -0.0014,-0.002 -0.0015,-0.0019 -0.0025,-0.0013 -0.0025,-0.0014 0.01233,-0.0077 0.007,-0.0052 -0.0047,-0.0026 -0.0029,-9.26e-4 7.53e-4,-0.0038 7.52e-4,-0.0038 -0.0013,-0.01043 -0.0013,-0.0086 -0.0066,6.37e-4 -0.0066,6.37e-4 -0.0042,0.0092 -0.0042,0.0091 -0.0032,-0.0042 -0.0034,-0.0044 -0.0038,-6.36e-4 -0.0038,-5.31e-4 -0.01149,0.0067 -0.0036,0.003 -0.0041,-0.0067 -0.004,-0.0067 -0.0025,-0.01574 -0.0024,-0.0157 -0.0031,-0.0072 -0.0031,-0.0072 -0.01349,-0.0177 -0.01342,-0.0178 -0.005,-0.0096 -7.53e-4,-5.31e-4 -0.0036,-0.01155 -0.0038,-0.01155 -0.03322,0.02186 -0.0177,0.01174 -0.0059,8.68e-4 -0.0059,8.69e-4 -0.0067,-0.0024 -0.0067,-0.0024 -0.0128,-0.0067 -0.01293,-0.0068 -0.007,-0.0019 -0.007,-0.002 -0.499408,0.03004 -0.07103,0.0043 -0.0351,-0.0092 -0.01523,-0.004 -0.01358,-0.0167 -0.01374,-0.0167 -0.02614,-0.119833 -0.02623,-0.120145 -0.01955,-0.100943 -0.01948,-0.101162 -0.01062,-0.103597 -0.01062,-0.103878 -0.0015,-8.68e-4 -0.0016,-8.68e-4 -0.0064,-0.0011 -0.0023,-1.25e-4 -0.212314,-1.25e-4 -0.07362,-3.12e-4 -0.0027,-0.002 -0.0026,-0.0021 -6.95e-4,-0.0045 -6.36e-4,-0.0044 0.0041,-0.29671 3.12e-4,-0.02498 0.0019,-0.0057 0.0018,-0.0057 0.0072,-0.0028 0.0072,-0.0028 0.0031,-0.0072 0.0031,-0.0071 0.01624,-0.250095 0.01312,-0.207225 -0.08824,0.0479 -0.0883,0.04777 -0.0053,-6.37e-4 -0.0054,-5.62e-4 -0.118273,-0.244099 -0.05196,-0.107625 -0.01205,-0.01074 -0.01211,-0.01074 -0.06291,-0.03966 -0.06298,-0.03965 -0.03041,-0.03216 -0.0305,-0.03241 -0.06588,-0.08596 -0.06582,-0.08605 -0.01037,-0.0092 -0.01018,-0.0092 -0.0097,-0.0016 -0.0098,-0.0016 -0.01099,0.0042 -0.01102,0.0041 -0.179125,0.09985 -0.06151,0.03416 -0.01061,0.0031 -0.01062,0.003 -0.652181,-0.05939 -0.09317,-0.0085 -0.3907832,0.06382 -0.055794,0.0091 -0.2748227,0.0508 -0.00133,2.19e-4 -0.012335,-0.0053 -0.012393,-0.0054 -0.3238424,-0.373736 -0.04284,-0.04955 -0.067067,-0.07266 -0.070157,-0.07603 -0.035998,-0.05795 -0.00593,-0.01992 -0.00399,-0.04424 -0.00394,-0.0208 -0.011085,-0.02267 -0.015831,-0.0178 -1.4537935,-0.975959 -0.046926,-0.03178 -0.01667,-0.0074 -0.014361,-0.0014 -0.2675786,0.07824 -0.035344,0.01049 -0.2646752,0.08118 -0.076402,0.02342 -0.9185732,0.29649 0.00127,2.893724 1.244e-4,0.187243 -0.041776,-0.004 -0.020482,0.0017 -0.05464,0.02672 -0.056825,0.0082 -0.036,0.01405 -0.07712,0.0044 -0.019046,-0.0064 -0.017079,-0.0098 -0.012708,-0.0097 -0.010303,-0.01396 -0.017172,-0.04121 -0.0074,-0.01389 -0.00968,-0.01099 -0.038279,-0.02645 -0.021356,-0.01886 -0.018827,-0.02298 -0.03881,-0.06913 -0.039716,-0.07088 -0.027663,-0.03756 -0.063694,-0.08649 -0.00637,-0.01483 -0.00322,-0.01655 8.74e-4,-0.01764 0.00256,-0.01436 1.248e-4,-0.01383 -0.00606,-0.01611 -0.01455,-0.01886 -0.1031912,-0.09548 -0.3320539,-0.222711 -0.04443,-0.01617 -0.046147,-0.0065 -0.3478214,0.06344 -0.040433,0.0087 -0.1348823,0.0538 -0.034657,0.0208 -0.095635,0.03397 -0.1308858,0.109436 -0.1747849,0.175316 -0.025165,0.02579 -0.00112,-0.01611 0.00478,-0.01836 0.023417,-0.05995 0.00556,-0.03122 -0.00394,-0.03259 -0.0064,-0.01717 -0.00793,-0.01349 -0.011865,-0.01106 -0.00487,-0.0067 -0.002,-0.01093 0.00415,-0.02804 -3.122e-4,-0.0082 -0.00362,-0.0077 -0.01761,-0.02092 0.00674,-0.01168 0.00556,-0.01539 0.00375,-0.01661 0.00131,-0.01521 0.00356,-0.01321 0.00868,-0.0066 0.010865,-0.0044 0.00999,-0.0071 0.029911,-0.05798 0.033096,-0.0454 0.00394,-0.007 0.00312,-0.0078 0.00125,-0.0096 -6.888e-4,-0.01767 6.251e-4,-0.0091 0.00228,-0.0067 0.018109,-0.01821 0.00512,-0.008 0.00188,-0.0068 9.377e-4,-0.01421 0.00134,-0.0069 0.010147,-0.0331 0.00612,-0.03044 1.561e-4,-0.02991 -0.00812,-0.03172 -0.015518,-0.03559 -0.011864,-0.01904 -0.026227,-0.0168 -0.00699,-0.01855 -3.122e-4,-0.0178 0.00656,-0.0062 0.00437,0.0087 0.00459,0.01749 0.00687,0.01717 0.011334,0.0077 0.00562,0.0021 0.021544,0.01492 0.00306,0.0061 0.00209,0.0108 0.00318,1.88e-4 0.00856,0.03028 0.00615,0.01477 0.00581,0.0065 0.00674,-0.0067 0.00678,-0.01686 0.00531,-0.01998 0.00206,-0.01624 -0.00509,-0.03659 -0.014363,-0.02448 -0.022168,-0.01318 -0.029037,-0.0027 -0.0025,-0.02073 -0.031067,-0.01989 -0.063195,-0.02311 -0.060572,-0.0052 -0.00874,6.37e-4 -0.014862,0.0054 -0.00765,0.0053 -0.00343,0.0049 -0.00665,0.01442 -0.00281,0.0041 -0.016298,-0.0067 -0.040777,-0.0562 -0.02273,-0.01742 -0.014456,-0.0013 -0.053391,0.0084 -0.040715,0.01567 -0.022387,0.01592 -0.013675,0.0047 -0.012427,-0.0062 -0.035844,-0.0429 -0.00856,-0.01305 -0.013425,-0.02654 -0.00937,-0.01467 -0.00603,-0.01293 -0.00637,-0.0311 -0.00637,-0.01639 -0.029037,-0.0331 -0.00796,-0.01705 -0.016548,-0.0044 -0.00531,-0.0031 -0.00303,-0.01077 0.00188,-0.0071 0.00359,-0.0067 0.00209,-0.0099 -0.00228,-0.01583 -0.00718,-0.01677 -0.010179,-0.0098 -0.023729,0.01202 -0.029974,-0.0018 -0.014363,0.0035 -0.012864,0.01514 -0.00624,0.002 -0.00774,-0.0019 -0.01405,-0.0082 -0.00768,-0.0019 -0.056513,0.01199 -0.056357,0 -0.00796,-0.0085 0.00219,-0.01923 0.022106,-0.06838 0.00637,-0.03541 0.00412,-0.110529 -0.003,-0.01677 -0.019264,-0.03872 -0.00281,-0.0078 -0.002,-0.0271 -0.00147,-0.0074 -0.00937,-0.01155 -0.024229,-0.0178 -0.00481,-0.01417 -0.00206,-0.01211 -0.00512,-0.0014 -0.00681,0.0031 -0.00687,0.0016 -0.00781,-0.0017 -0.0045,-0.0018 -0.00865,-0.0075 -0.016392,-0.02295 -0.056201,-0.118585 -0.005,-0.01489 -0.00206,-0.0148 -0.00181,-0.0081 -0.00837,-0.01349 -0.0024,-0.0048 -3.747e-4,-0.0084 0.00147,-0.01842 -0.00109,-0.008 -0.00478,-0.0093 -0.018296,-0.0168 -0.00399,-0.0072 -0.00493,-0.0157 -0.00924,-0.01467 -0.00749,-0.01646 -0.00593,-0.0074 -0.00624,-0.0038 -0.013832,-0.0042 -0.00487,-0.0043 -0.00493,-0.01137 5.308e-4,-0.0075 0.00271,-0.0074 0.00166,-0.01124 -0.00225,-0.071 -0.00269,-0.01761 -0.00343,-0.01352 -0.015611,-0.02198 -0.024728,-0.01786 -0.051954,-0.02426 -0.2151247,-0.04006 -0.027788,-0.0129 -0.013113,-0.0087 -0.013738,-0.01239 -0.010803,-0.0157 -0.0045,-0.01848 0.00406,-0.03856 4.684e-4,-0.01864 -0.00456,-0.01624 0.00453,-0.0063 -0.00615,-0.01552 -0.00328,-0.028 0.0015,-0.0282 0.0079,-0.01614 0.010085,0.02485 0.00874,-0.01115 0.00618,-0.02392 0.00203,-0.01324 0.00671,-0.0045 0.00156,-0.01049 9.37e-5,-0.01187 0.00219,-0.0089 0.00749,-0.0059 0.00544,0.0021 0.00531,0.0057 0.00687,0.0046 0.096478,0.01904 0.0291,-0.0014 0.028632,-0.01055 0.01508,0 0.00643,0.01349 0.00937,0.0027 0.053641,2.19e-4 0.00924,0.0097 0.00687,0.0036 0.00703,-0.0046 0.00656,-0.01523 0.00312,-0.004 0.00718,-0.0013 0.031848,0.0013 0.015237,0.0034 0.013426,0.0071 0.0217,0.02029 0.018421,0.02332 0.00587,0.0038 0.014925,-0.0025 0.00624,0.002 0.00406,0.0069 -0.00162,0.0056 -0.00484,0.0038 -0.00593,0.0013 0.00999,0.01436 0.015924,0.01108 0.049644,0.02342 0.017547,0.0032 0.017891,-6.37e-4 0.018484,-0.0046 0.013738,-0.0076 0.032596,-0.03341 0.00428,-0.0084 0.00406,-0.0032 0.00421,-0.0012 0.014862,0.0011 0.00927,-0.0014 0.01686,-0.0053 0.00937,3.12e-4 -0.00475,0.02748 0.017579,0.0054 0.041839,-0.009 0.040964,0.01936 0.013738,-0.0018 0.00827,-0.01074 -0.00318,-0.01187 -0.00874,-0.01093 -0.0089,-0.008 -0.036843,-0.02005 -0.024822,-0.02311 -0.014363,-0.0018 -0.029131,0.0098 -0.029662,0.0038 -0.01686,-0.01552 -0.02067,-0.06401 -0.014425,-0.02592 -0.020451,-0.01879 -0.048957,-0.03216 -0.01046,-0.01187 -0.00475,-0.0042 -0.021856,-0.0029 -0.00656,-0.0028 -0.00269,-0.0053 -0.00671,-0.0071 -0.03881,-0.02529 -0.00512,-0.0142 -0.0015,-0.01967 0.00343,-0.01749 0.0093,-0.0075 0.00549,-0.0031 0.0025,-0.0071 9.36e-5,-0.0081 -0.00181,-0.0059 -0.00696,-0.0047 -0.00837,-6.36e-4 -0.00712,-0.0024 -0.00293,-0.01 0.00599,-0.01299 0.013988,-0.0092 0.016111,-0.0054 0.012083,-0.0019 0.015424,0.0022 0.00718,-0.0014 0.00865,-0.0067 0.01124,-0.0177 0.00578,-0.0059 0.026321,-0.01858 0.014893,-0.0075 0.013426,-0.0029 0.010397,0.007 0.011053,0.01461 0.011865,0.01265 0.013425,0.0013 0.00531,-0.01115 -0.00415,-0.01671 -0.00868,-0.01711 -0.00793,-0.01202 -0.00269,-0.0091 0.00262,-0.0103 0.00406,-0.01015 0.00219,-0.0086 -8.451e-4,-0.0059 -0.005,-0.01337 -0.00244,-0.0045 0.00415,-0.01187 0.00731,-0.01483 0.018609,-0.02857 0.00365,-0.01342 0.00593,-0.0142 0.053766,-0.06544 0.00544,-0.01389 0.00209,-0.01961 0.00375,-0.01646 0.00874,0.0079 0.016392,0.02916 0.02273,0.01108 0.030473,-1.57e-4 0.030099,-0.0086 0.021387,-0.01424 0.018859,-0.0211 0.00553,-0.0037 0.013738,8.11e-4 0.00599,-0.003 0.00912,-0.0153 0.00706,-0.01717 0.00799,-0.01524 0.011552,-0.0091 0.00734,0.0083 0.00678,0.01177 0.00484,0.01296 0.00193,0.01209 0.052548,0.0089 0.00968,0.0038 0.016455,0.0167 0.011552,0.0038 0.010835,-0.0038 0.019795,-0.0167 0.011459,-0.0038 0.013863,0.0019 0.024822,0.0082 0.013425,0.0018 0.1889913,-0.02429 0.026133,0.0077 0.044961,-0.0073 0.028943,0.0071 0.1030351,0.04602 0.061134,0.0097 0.030505,0.01599 0.01508,0.0049 0.056607,-0.0065 0.016048,0.0032 0.033564,0.0129 0.015205,0.0017 0.012863,-0.0046 0.025478,-0.0153 0.014363,-0.0034 0.00368,-0.0018 0.00734,-0.0084 0.00343,-0.0022 0.015174,0.0045 0.00163,0.0014 0.00412,-0.0027 0.00553,-0.0051 0.00375,-0.007 -8.741e-4,-0.0089 -0.01124,-0.0075 -0.063944,-0.01243 -0.00515,-0.0049 -0.00774,-0.01084 -0.00603,-0.0036 -0.018578,-0.0024 -0.028163,-0.0086 -0.077058,-0.0389 -0.014987,-0.0035 -0.00575,-0.0032 -0.01124,-0.01536 -0.00437,-0.0048 -0.00581,-0.0027 -0.022293,-0.0033 -0.029974,-0.01374 -0.010241,-0.0077 0.00303,-0.01111 -0.00331,-0.0075 -0.00375,-0.0063 0.00166,-0.0076 0.00493,-0.0093 1.874e-4,-0.0064 -0.00166,-0.0062 -0.00109,-0.0082 9.377e-4,-0.02061 0.00343,-0.01605 0.00703,-0.01043 0.01149,-0.0037 0.00999,-0.0067 0.00712,-0.01561 0.010054,-0.03203 0.023511,-0.04162 0.010241,-0.01224 0.00656,-0.0043 0.01508,-0.006 0.00549,-0.0049 0.021044,-0.02997 0.00802,-0.01536 0.011709,-0.03366 0.00955,-0.01749 0.017797,-0.01879 0.00531,-0.008 0.00291,-0.0076 0.00562,-0.01951 0.00396,-0.0095 0.013114,-0.02385 0.00293,-0.01352 -0.00296,-0.01611 0,0.0054 -0.00291,-0.01337 0.00331,-0.0114 0.013988,-0.02042 0.00522,-0.01227 0.00281,-0.01452 0.00562,-0.06088 0.017797,-0.07868 0,-0.06145 -0.01736,-0.0463 -0.027788,-0.03635 -0.030755,-0.03185 0.012645,0.0018 0.018328,0.01655 0.011552,0.0058 0,-0.0066 -0.010928,-0.0081 -0.00537,-0.01374 -2.497e-4,-0.01655 0.00406,-0.01614 -0.01124,0.0058 -0.013738,0.01393 -0.01405,0.01024 -0.011864,-0.0053 -0.00112,-0.01798 0.00796,-0.02388 0.018609,-0.03756 0.001,0.01655 0.00762,0.0087 0.01074,6.94e-4 0.00987,-0.0077 0.00478,-0.01327 0.00265,-0.03269 0.005,-0.0148 0.00575,0.01798 0.0049,-0.0046 0.00484,-0.01436 0.00537,-0.01118 0.00587,-0.0021 0.01405,0.0024 0.00556,-3.12e-4 0.00718,-0.0041 0.00287,-0.0031 0.0025,-0.01118 0.00193,-0.03491 -0.011989,-0.02051 -0.019108,-0.0097 -0.019046,-0.0024 -0.012177,-0.005 -0.00394,-0.01234 0.00156,-0.02857 -0.011303,-0.0627 -0.011459,-0.02342 -0.00269,-0.01155 -0.00515,-0.0054 -0.026227,0.0032 -0.010303,-5e-4 -0.011053,-0.01165 -0.023604,-0.03622 -0.00955,-0.0076 -0.027476,6.37e-4 -0.05642,0.01155 -0.033877,-0.0055 -0.068877,0 -0.014987,-0.004 -0.011459,-0.007 -0.021169,-0.02382 -0.010741,-0.0049 -0.038778,-0.0062 -0.011709,0.0018 -0.00581,0.008 -0.0024,0.01 -1.561e-4,0.0226 -0.00234,0.0088 -0.027664,0.03613 -0.010303,0.0089 -0.058074,0.02105 -0.01661,0.0011 -0.020295,-0.01483 -0.00799,0.0015 -0.005,0.0074 0.00137,0.01218 0.00406,0.0029 0.016111,0.0063 0.00522,0.003 0.0079,0.01424 0.00331,0.01 0.00134,0.01 -0.00365,0.0029 -0.077276,-0.0053 -0.01508,-0.0073 -0.00593,-0.0043 -0.00394,-0.0038 -0.00209,-0.0066 -6.251e-4,-0.01255 -0.00334,0.0013 -0.00749,-0.0062 -0.019764,-0.02132 -0.00624,-0.0039 -0.00431,-0.0049 -0.00134,-0.01102 0.0035,-0.006 0.00662,-0.0069 0.0049,-0.008 -0.00225,-0.0097 -0.012177,-0.0035 -0.010865,0.0158 -0.012489,0.0336 -0.011865,0.0053 -0.019358,-0.001 -0.02017,-0.0053 -0.013987,-0.0076 0.019296,-0.02598 0.00618,-0.0057 -0.013113,-0.0043 -0.014987,0.0066 -0.026633,0.01717 -0.012926,-6.3e-5 -0.012989,-0.0059 -0.012083,-0.0099 -0.00993,-0.01218 -0.023542,-0.01889 -0.00818,-0.0153 0.012395,-0.03825 -0.00125,-0.01842 -0.00843,-0.01374 -0.015237,-0.0026 -0.011958,0.01 -0.00546,0.01749 -0.00353,0.01967 -0.00615,0.01661 -0.011459,0.0014 -0.012395,-0.01577 -0.015861,-0.03153 -0.011552,-0.01165 -0.014987,-0.0075 -0.039653,-0.007 -0.034251,-0.01305 -0.078369,-0.01736 -0.025103,-0.01611 -0.015611,0.0036 -0.027632,0.01998 -0.023917,0.01274 -0.080711,0.01852 -0.011552,0.0069 -0.017734,0.02448 -0.010678,0.0054 -0.00893,-0.003 -0.013738,-0.01299 -0.00668,-0.003 -0.00668,0.003 -0.00362,0.0066 -6.252e-4,0.0064 0.00256,0.003 -0.00343,0.0081 -0.049114,0.08455 -0.010616,0.0084 -0.00612,-0.01543 0.00209,-0.0104 0.011802,-0.01798 0.00281,-0.01155 -0.00343,-0.006 -0.00774,0.0049 -0.021856,0.02373 -0.015611,0.009 -0.016423,0.0039 -0.012396,-0.005 -0.00918,-0.0016 -0.0035,0.0182 -0.00206,0.04221 -0.00509,0.01405 -0.00802,0.01358 -0.00999,0.0073 -0.01071,-0.005 0.011147,-0.01586 0.00671,-0.01364 -0.00162,-0.0096 -0.013894,-0.0036 -0.020856,0.0069 -0.00421,0.0026 -0.00712,0.0074 -0.00562,-0.0019 -0.00453,-0.0056 -0.020108,-0.01761 -0.011396,-0.0046 -0.00275,1.25e-4 -0.0088,0.0128 -0.019671,0.05776 -0.00993,0.01 0.00287,-0.01133 0.00134,-0.03138 -0.00821,0.0071 -0.00478,0.0104 -0.00343,0.01074 -0.0045,0.0084 -0.00428,0.0022 -0.011552,0.0016 -0.00506,0.0023 -0.00443,0.0042 -0.00271,0.0037 -0.026165,0.04955 -0.012551,0.01462 -0.010928,-0.0018 0,-0.0086 0.00415,-0.01108 0.002,-0.0097 -0.00612,-0.0042 -0.00781,0.0023 -0.019295,0.01249 -0.05464,0.05826 -0.017485,0.03041 -0.010303,0.01286 -0.012114,0.0054 -0.02298,-0.0027 -0.00852,0.0027 -0.00603,0.0049 -0.00955,0.01405 -0.00531,0.0059 -0.021544,0.0094 -0.00668,0.01321 -0.00843,2.49e-4 -0.017641,-0.0046 -0.00874,0.0083 -0.00131,0.01617 -0.00359,0.01143 -0.015611,-0.0061 -0.00749,-0.01292 -0.00506,-0.0047 -0.00637,0.0033 0,0.01926 -0.00209,0.0089 -0.00624,-0.0041 -0.012489,-0.01624 -0.00812,-0.0061 -0.00671,0.001 -0.00109,0.007 0.00219,0.02248 -0.00109,0.007 -0.039653,-0.05161 -0.0093,-0.0049 -0.00178,0.01695 0.00437,0.03959 -0.011459,-0.0069 -0.00637,0.0052 -0.00468,0.01062 -0.00674,0.0092 -0.00509,-0.02051 -0.00781,-0.01108 -0.036593,-0.01636 -0.010553,-0.007 -0.00674,-0.01149 -3.747e-4,-0.01852 9.37e-5,0.02819 0.00193,0.01427 0.00843,0.01062 0.0064,0.02279 0.00456,0.0091 -0.00687,-6.37e-4 -0.010553,-0.0048 -0.00606,-0.0012 -0.0054,-0.003 4.683e-4,-0.0069 0.0025,-0.0079 3.747e-4,-0.0059 -0.014518,-0.01552 -0.00587,-0.0041 -0.00322,0.0039 -0.00125,0.0062 -1.873e-4,0.0034 -0.019514,-0.0038 -0.021856,-0.0084 -0.018827,-0.01296 -0.010803,-0.01742 0.00468,0.0227 0.040121,0.04609 0.00959,0.02832 -0.012052,-0.0051 -0.022605,-0.001 -0.00262,6.37e-4 -0.00862,-0.01124 -0.00587,-0.01342 -0.00718,-0.01015 -0.012083,-0.0015 0,0.0055 0.010148,0.01 0.00181,0.01879 0.00362,0.01811 0.01583,0.0082 0.022887,0.02429 0.00244,0.008 0.00116,0.0093 -7.814e-4,0.0098 -0.00281,0.0092 -0.025165,-0.01892 -0.011864,-0.01202 -0.0089,-0.01196 -0.00852,-0.01455 -0.00706,-0.0091 -0.00977,-0.0048 -0.016455,-0.0013 0.00687,0.0054 0.00522,0.0054 0.00343,0.0083 0.00119,0.01383 0.00287,0.0084 0.022262,0.02461 -0.0024,0.0016 -0.00593,0.005 -0.00874,-0.0063 -0.04827,-0.0157 -0.00693,2.5e-4 -0.00328,0.0037 0.00134,0.0091 0.00487,0.0056 0.00649,0.0027 0.00624,6.94e-4 0.010179,0.0077 0.00387,0.01686 0.00103,0.01686 0.00197,0.01268 0,6.3e-5 -0.118584,-0.06825 -0.044805,-0.03578 -0.025602,-0.02582 -0.012802,-0.007 -0.01736,-1.56e-4 -0.015049,0.0034 -0.014987,-6.37e-4 -0.037374,-0.0301 -0.015611,-0.01857 -0.017079,-0.01458 -0.024354,-0.0059 -0.056201,-9.84e-4 -0.020732,-0.0086 0.014425,-0.0208 -0.00987,-0.0071 -0.00303,-0.01249 -0.00168,-0.01305 -0.00562,-0.0091 -0.022386,-0.01364 -0.011864,-0.0051 -0.011615,-0.0014 0.014675,-0.0202 0.016298,-0.04383 0.03116,-0.02601 0.037592,-0.0077 0.035719,0.01109 0.012645,0.01155 0.00946,0.01452 0.016423,0.03409 0.014987,0.0069 0.09345,-0.01758 0.019046,-0.01548 0.035594,-0.04387 -0.1889601,-0.29724 -0.092357,-0.241758 -0.00634,-0.0217 -0.00656,-0.01514 -0.00905,-0.0065 -0.02273,-0.0027 -0.021794,-0.0079 -0.016173,-0.01499 -0.03091,-0.04278 -0.1138693,-0.199327 -0.037842,-0.03247 -0.0415887,-0.01924 -0.2414143,0.0038 -0.13113549,-0.06263 -0.0141438,-0.0013 -0.0109279,0.0082 -0.00331,0.01355 3.7467e-4,0.05495 -0.003996,0.04199 -0.005308,0.01773 -0.008898,0.0023 -0.11327612,-0.07924 -0.0207007,-0.02014 -0.0102411,-0.01405 -0.002654,-0.01068 0.003434,-0.01124 0.008024,-0.01592 0.0112402,-0.0124 0.001249,-0.0076 -0.002061,-0.0054 -0.020607,-0.03466 -0.0430874,-0.05402 -0.004215,-0.01062 0.008649,-0.0076 0.0480831,-0.02997 0.0251655,-0.02242 0.008493,-0.0183 -0.011084,-0.0114 -0.0332835,-0.0038 -0.009773,-0.0118 3.1223e-4,-0.01655 0.00459,-0.01555 0.002997,-0.01617 -0.004683,-0.01842 -0.003747,-0.0058 -0.013738,-0.01436 -0.00306,-0.0084 0.003872,-0.0061 0.006369,-0.005 0.004059,-0.0049 0.008274,-0.01739 -1.8733e-4,-0.0087 -0.007931,-0.01321 -0.012614,-0.0091 -0.0603359,-0.01653 -0.30617026,-0.107 -1.8733e-4,-3.13e-4 0.08679923,-0.239259 0.0817099,-0.226927 0.0147683,-0.02042 0.0213876,-0.01648 0.0458974,-0.02498 0.0140502,-0.01143 0.0116461,-0.01043 0.0300987,-0.04034 0.0254466,-0.04627 0.0117086,-0.04995 -0.006963,-0.0479 -0.0302236,-0.04006 -0.0908582,-0.06938 -0.0339704,-0.01333 0.0763084,-0.459974 0.0138629,-0.03893 0.022012,-0.02154 0.13378948,-0.05995 0.0417135,-0.0429 0.0386225,-0.04996 0.0121769,-0.02679 -6.2457e-4,-0.03466 -0.0333459,-0.04683 -0.004871,-0.02666 0.006869,-0.01293 0.0222306,-0.02154 0.005932,-0.01436 -0.003279,-0.0148 -0.00843,-0.01012 -0.005152,-0.01143 0.00665,-0.01861 0.0105221,-0.0092 0.0424629,-0.01798 0.008555,-0.01052 0.0199825,-0.04693 0.0188584,-0.02741 0.0255087,-0.02414 0.0277881,-0.01508 0.025915,-9.3e-5 0.0154867,0.0114 0.0399651,0.05224 0.0274761,0.01561 0.008649,0.0094 0.0109278,0.02207 0.005839,0.0071 0.011865,0.0048 0.007494,0.0047 0.0283502,0.03335 0.0119582,0.01786 0.0240413,0.02154 0.0246034,0.03728 0.0242289,0.02207 0.00437,0.01155 0.002871,0.01305 0.00437,0.0133 0.00765,0.01037 0.0304421,0.02479 0.0133323,0.02545 0.00587,0.0266 0.00399,0.02726 0.00781,0.0276 0.00425,0.0088 0.00624,0.01892 0.00419,0.0084 0.00709,0.008 0.024198,0.02039 0.011864,0.02233 0.00446,0.02092 0.00749,0.01399 0.021232,0.0016 0.017579,-0.0035 0.00571,0.003 0.028912,0.0281 0.0355,0.02107 0.00749,0.0018 0.00793,-0.005 0.014113,-0.01976 0.00806,-0.007 0.1250159,-0.04965 0.061821,-0.036 0.047334,-0.05651 0.0099,-0.01633 0.00456,-0.0094 1.561e-4,-0.01005 -0.00718,-0.03747 -0.00524,-0.01561 -0.00843,-0.01062 -0.042151,-0.01352 -0.00112,-0.02489 0.005,-0.03381 -0.011115,-0.03634 -0.025728,-0.05199 -0.01686,-0.06619 -0.016423,-0.138099 0.00259,-0.06738 -0.00325,-0.02985 -0.015205,-0.02123 -0.031223,-0.0062 -0.014987,-0.0085 -0.00281,-0.01898 0.00955,-0.01261 0.015174,0.0017 0.079993,0.04855 0.028538,0.0067 0.027008,-0.0052 0.1114652,-0.0843 0.054827,-0.072 0.025478,-0.02295 0.085394,-0.02129 0.052454,-0.02229 0.023823,-0.02079 0.00937,-0.03278 -0.011178,-0.03047 -0.020763,-0.02513 -0.014768,-0.0241 0.00718,-0.02754 0.0148,-0.02598 0.00575,-0.01436 0.00509,-0.03203 0.00587,-0.01795 0.00762,-0.01602 0.00824,-0.01009 0.014425,-0.0038 0.048708,0.01499 0.146341,-0.0014 0.010303,-0.0072 0.028663,-0.04009 0.088048,-0.077214 0.025665,-0.012895 0.1092796,-0.022418 0.072125,-0.036718 0.010304,-0.00905 0.00406,-0.00968 -8.74e-4,-0.012364 -0.00431,-0.017266 -0.00175,-0.018733 0.00562,-0.00905 0.00924,-0.00603 0.00874,-0.00943 -0.00718,-0.00968 -0.00296,-0.00631 0.00478,-0.00553 0.00749,-0.00212 0.036406,-0.00181 0.011115,-0.00381 0.00834,-0.00905 0.00481,-0.017297 0.014518,-0.00234 0.00959,-0.00356 0.0054,-0.010179 0.0025,-0.022168 -0.00562,-0.057075 0.00197,-0.014581 0.010678,-0.011646 0.011646,-0.00322 0.00849,-0.00765 0.00119,-0.024603 0.0025,-0.021606 0.011084,5.62e-4 0.024104,0.018296 0.028413,5.308e-4 0.00518,0.00443 -0.01174,0.016486 -0.00999,0.017953 0.00749,0.00849 0.015611,0.00193 0.014363,-0.00188 0.027164,-0.011022 0.016111,-0.018359 0.00231,-0.028256 -0.028818,-0.081928 -0.00193,-0.032878 0.013956,-0.016798 0.032909,0.00671 0.01124,0.00696 0.011303,0.010085 0.00974,0.01327 0.00656,0.016142 0.00999,0.018172 0.015112,0.00734 0.1494321,0.00999 0.012489,-0.00453 0.013676,-0.00749 0.01302,-0.00374 0.01099,0.00687 0.014925,0.02654 0.00743,0.00862 0.012302,0.00578 0.026945,8.104e-4 0.011865,0.00656 0.00612,0.019514 -4.995e-4,0.022386 -0.00487,0.015205 -0.00865,0.00993 -0.012114,0.00634 -0.059636,0.011178 -0.00312,0.00768 0.022325,0.042556 0.019046,0.020607 0.046053,0.00443 0.050362,-0.00812 0.032471,-0.017078 0.010491,-0.015424 0.00774,-0.015456 0.00921,-0.010303 0.014987,-3.123e-4 0.015674,0.00706 0.0064,0.0089 0.00156,0.014206 8.451e-4,0.022793 0.01405,0.029255 0.028101,-0.00281 0.031223,-0.018984 0.023167,-0.019109 4.371e-4,-0.036312 -0.0093,-0.032596 -0.00188,-0.029818 0.033908,-0.039029 0.018796,-0.028319 0.011178,-0.01124 0.01686,-0.00656 0.017172,0.00144 0.016923,0.00718 0.015986,0.01046 0.015861,0.0054 0.018733,0.0024 0.018796,-0.001 0.015799,-0.00522 0.011771,-0.011396 0.013644,-0.031286 0.00896,-0.013863 0.015924,-0.00905 0.034345,0.00271 0.01711,-0.00172 0.013113,-0.01099 0.00771,-0.029911 0.00952,-0.0088 0.016548,0.010678 0.010553,0.033096 0.00762,0.039403 0.00796,0.029755 0.040902,0.078681 0.017048,0.064132 0.00396,0.00999 0.00696,0.012083 0.00952,0.013425 0.01174,0.011178 0.012801,0.00787 0.00478,0.0015 0.013114,-0.00899 0.05414,0.00362 0.003,0.00818 0.00687,-0.00381 0.012895,-0.017422 0.00524,-0.00524 0.00734,-0.003 0.014675,-0.00181 0.00431,-0.00343 0.00291,-0.00731 0.00453,-0.00718 0.00924,-0.00281 0.00609,0.00331 0.01302,0.013738 0.00593,0.00369 0.034033,-0.00303 0.012364,0.00475 -0.00843,0.017797 0.012614,0.00209 0.015799,0.00946 0.00921,0.00244 0.00949,-0.00291 0.015924,-0.016548 0.00796,-0.00734 0.023417,-0.00937 0.073373,0.00266 -0.00522,-0.017422 0.00281,-0.00781 0.00768,-0.00188 0.00937,3.122e-4 0.00578,0.00178 0.00884,0.014987 0.00562,0.00244 0.00727,-0.00468 0.00384,-0.00112 0.04596,0.00674 0.00915,-0.0015 0.014675,-0.00756 0.012583,0.00927 0.00156,-3.122e-4 0.023167,0.00955 0.00727,0.00915 0.012489,0.023324 0.00843,0.00905 0.062383,0.025915 0.025727,0.017953 0.00781,0.00859 0.00468,0.015924 -0.00524,0.0079 -0.021387,0.010616 0.011552,0.013863 -9.37e-5,0.016142 -0.00281,0.01686 0.00337,0.015611 0.020732,0.021138 0.0089,0.012114 0.00415,0.017672 0.014987,0.017048 0.112402,0.034438 0.031379,-0.0057 0.016423,0.0047 0.023729,0.01873 0.011865,0.01274 0.014363,0.03341 0.013644,0.0085 0.031847,0.005 0.012021,0.009 0.00524,0.01446 0.00603,0.03778 0.00512,0.01336 0.00446,0.0087 0.00209,0.0097 -0.00228,0.01655 0.019108,0.02404 0.010616,0.0094 0.024166,0.01467 0.00865,0.01171 0.00774,0.01321 0.00949,0.01271 0.014862,0.0093 0.049488,0.0091 0.00649,0.0047 0.01124,0.01146 0.00593,0.0041 0.027289,0.0062 0.00874,0.0044 0.00446,0.0081 0.00125,0.0092 -0.00162,0.0098 -0.00406,0.0094 -0.034657,0.04549 -0.00468,0.01954 -0.00116,0.04293 -0.00322,0.01861 -0.013332,0.04377 -0.00343,0.01926 0.00234,0.01883 0.00974,0.02045 0.022145,0.02997 0.012177,0.01155 0.01405,0.0092 0.012708,0.0026 0.031347,-0.0077 0.024916,-0.01062 0.034345,-0.02966 0.017547,-0.02826 -0.00166,-0.0306 -0.021107,-0.07016 -2.498e-4,-0.02029 0.00749,-0.03637 -4.371e-4,-0.01998 -0.00296,-0.0061 -0.00927,-0.01062 -0.00203,-0.0077 0.00188,-0.0084 0.00983,-0.01686 0.00353,-0.0083 -0.00827,-0.03828 -0.033346,-0.0193 -0.035282,-0.01043 -0.01405,-0.01149 0.00787,-0.0087 0.011552,-0.0061 0.00687,-0.0094 -0.012645,-0.03675 0.00515,-0.0118 0.011552,-0.0067 0.05233,-0.01705 0.014675,-1.87e-4 0.014425,0.0043 0.012895,0.0071 0.024041,0.02267 0.040059,0.01998 0.011927,0.01271 0.018421,0.02467 0.020139,0.02086 0.093856,0.02732 0.00952,0.02139 -0.00116,0.03822 0.013863,0.02498 0.1353818,0.127451 0.014675,0.0094 0.01124,0.0037 0.011178,-0.0011 0.030536,-0.0086 0.016111,-3.12e-4 0.015549,0.0046 0.014269,0.01074 0.00893,0.01505 0.005,0.01561 0.0064,0.01286 0.028194,0.01186 0.00968,0.0096 0.018733,0.02748 0.026383,0.01911 0.020982,-0.0084 0.043181,-0.04621 0.1024105,-0.05754 0.089609,-0.07556 0.012925,-0.02232 0.022795,-0.117023 0.00625,-0.02279 0.00662,-0.0128 0.010118,-0.0031 0.050891,0.02342 0.018638,0.0041 0.016422,-0.0034 0.012428,-0.01165 0.00498,-0.01508 0.00405,-0.0355 0.00884,-0.0096 0.031101,-0.0047 0.00993,-0.01311 -6.25e-5,-0.01321 -0.00706,-0.02804 4.996e-4,-0.01449 0.00581,-0.01155 0.00968,-0.01086 0.019449,-0.01602 0.01817,0.0066 0.054173,0.07999 0.012271,0.0055 0.043835,0.009 0.01171,-0.0013 0.00127,-0.01086 -0.00417,-0.01611 -0.012399,-0.03144 -0.00133,-0.01873 0.00874,-0.01336 0.013116,-0.0087 0.011959,-0.005 0.014986,-0.0026 0.0099,0.0042 0.022794,0.01842 0.015299,0.0055 0.016236,-4.06e-4 0.015924,-0.0047 0.015079,-0.0074 0.015426,-0.0041 0.051453,0.0056 0.028884,-0.0069 0.040061,-0.02548 0.010118,-0.004 0.00843,0.006 0.00793,0.01973 0.00533,0.03762 0.00463,0.01699 0.00987,0.007 0.014361,6.25e-4 0.011739,0.0033 0.010176,0.0083 0.00952,0.0157 0.00556,0.01583 0.00762,0.03456 0.00538,0.01561 0.00937,0.01536 0.011241,0.01102 0.040061,0.02289 0.015235,0.0045 0.014986,-7.18e-4 0.014581,-0.0081 0.01068,-0.01399 0.00678,-0.01486 0.0079,-0.01296 0.014048,-0.0086 0.024664,0.003 0.056888,0.01842 0.020294,-0.01165 0.00912,-0.02863 3.12e-4,-0.03169 -0.00593,-0.06432 0.00382,-0.03581 0.011305,-0.02295 0.00974,-0.02164 0.016769,-0.0035 0.027853,0.01702 0.00974,0.0023 0.03341,0 0.0078,0.0037 0.0055,0.0055 0.00981,0.01436 0.00618,0.0017 0.017267,-0.0097 0.00812,-0.0023 0.046208,-0.008 0.00417,0.0013 0.00284,0.0046 5.308e-4,0.01196 8.104e-4,0.0034 0.013892,0.01062 0.016456,0.0083 0.016549,0.0014 0.014048,-0.01005 0.00718,-0.01742 0.00561,-0.02092 0.0075,-0.01773 0.013116,-0.0074 0.013985,-0.0038 0.024664,-0.01505 0.00915,0.0079 0.018424,0.01945 0.00762,0.01271 0.00301,0.02632 0.0044,0.01093 0.012237,0.0068 0.074935,0.0017 0.026227,0.01233 0.019298,0.0252 0.00469,0.0409 -0.00388,0.01826 -0.00674,0.01424 -0.00887,0.01149 -0.00999,0.0103 -0.00486,0.01305 0.0022,0.01811 0.006,0.01748 0.00703,0.01133 0.011617,0.0024 0.03091,-0.0023 0.00625,0.0098 -0.00451,0.03734 0.00168,0.01293 0.010801,0.01102 0.015548,0.0015 0.018204,-0.0049 0.017267,-0.0016 0.012648,0.01202 0.010182,0.03185 0.00544,0.01168 0.010743,0.0118 0.045988,0.03528 0.023946,0.01043 0.1660429,0.01486 0.013423,0.0042 0.00999,0.01327 0.00687,0.01446 0.00737,0.0089 0.00874,0.0043 0.01068,5e-4 0.058511,-0.01436 0.031286,-7.47e-4 0.024792,0.01614 0.012179,0.01417 0.03238,0.01321 0.00759,0.0059 -0.00185,0.02507 -0.015299,0.007 -0.034967,-0.0056 -0.016236,0.01455 -5.308e-4,0.01436 0.00946,0.01436 0.034562,0.03147 0.019732,-0.0094 0.019981,-0.02092 0.021075,-0.01727 0.031101,-0.0052 0.032067,0.0018 0.030065,-0.0058 0.025104,-0.0281 0.026603,-0.05745 0.0078,-0.01299 0.019547,-0.02342 0.00681,-0.01305 0.00272,-0.01655 -0.00342,-0.03385 4.376e-4,-0.01923 0.00342,-0.01655 0.025602,-0.06432 0.00428,-0.0076 0.0055,-0.0062 0.026412,-0.0099 0.037937,-0.003 0.032345,0.01227 0.00974,0.03566 0.00162,0.03559 0.013423,0.02779 0.019981,0.02164 0.022042,0.01717 0.033625,0.0167 0.2557148,0.03091 0.061009,-0.0099 0.1693207,-0.05776 0.1693208,-0.05776 0.019547,-0.01945 0.013956,-0.0295 0.00912,-0.04059 0.00915,-0.08733 0.034498,-0.189272 0.012804,-0.045398 0.020294,-0.027164 0.02676,-0.014987 0.03216,-0.00896 -0.043088,-0.018983 -0.018419,-0.017329 -0.014893,-0.027039 -0.024664,-0.075746 -0.012428,-0.020233 -0.0026,-0.00456 -0.022106,-0.00631 -0.026852,-0.017266 -0.022951,-0.00962 -0.00865,0.00125 -0.014517,0.00484 -0.00824,5.62e-4 -0.00821,-0.00209 -0.020919,-0.011865 -0.014801,-0.00337 -0.042151,0.00334 -0.013799,-0.002 -0.024259,-0.0088 -0.012491,-0.00197 -0.020138,0.00125 -0.00637,-0.00125 -0.00533,-0.00244 -0.00376,-0.00281 -0.00771,-0.010553 -0.00405,-0.00437 -0.020172,-0.014675 -0.00734,-0.00905 -0.0088,-0.019202 -0.00446,-0.012302 -0.00185,-0.0088 -5.308e-4,-0.032066 0.00237,-0.012489 -0.00999,-3.122e-4 -0.2482206,-0.00637 -0.00573,-0.00188 -0.00365,-0.00718 -8.683e-4,-0.00993 -0.00191,-0.00896 -0.00649,-0.00468 -0.066567,-0.011365 -0.012705,-0.00874 6.367e-4,-0.020607 0.00946,-0.012676 0.028629,-0.013988 0.011646,-0.00893 0.00232,-0.00774 -6.367e-4,-0.017485 0.00342,-0.00606 0.012179,-0.00905 0.006,-0.00687 0.0026,-0.00799 -0.016954,-0.020982 -0.1085616,-0.02707 -0.062757,-0.047053 -0.020699,-0.00843 -0.00706,0.00968 -0.00533,0.015393 -0.015611,0.00868 -0.019292,-0.00387 -0.012648,-0.012395 -0.02779,-0.064537 -0.00538,-0.015861 9.261e-4,-0.016423 0.00974,-0.023511 0,-6.24e-5 0.016236,0 0.1057827,-1.249e-4 0.08861,-0.096322 0.047771,-0.039746 0.049334,-0.022012 0.034221,0.00134 0.03403,0.00734 0.033098,-0.00137 0.030973,-0.025165 0.024508,-0.040527 0.011148,-0.010397 0.058387,-0.02529 0.012237,-0.00874 0.031002,-0.035032 0.011241,-0.00983 0.0261,-0.015424 0.019171,-0.020045 -0.037844,-0.052704 -0.010176,-0.014363 -0.00336,-0.017922 -0.00284,-0.041401 -0.00411,-0.018047 -0.00498,-0.00955 -0.00765,-0.00518 -0.056639,-0.019483 -0.010083,-0.0088 -0.00301,-0.01661 0.00272,-0.047708 -5.621e-4,-0.019764 -0.00313,-0.015767 -0.00324,-0.00662 -0.00615,-0.00106 -0.031471,0.00343 -0.010488,-8.74e-4 -0.0078,-0.00606 -0.00342,-0.00843 -0.00127,-0.00662 -0.00266,-0.00562 -0.013956,-0.010928 -0.0026,-0.00865 5.621e-4,-0.021918 0.013863,-0.041464 0.025914,-0.016173 0.029879,-0.00706 0.025446,-0.013863 0.00853,-0.012489 0.01461,-0.028569 0.010992,-0.013176 0.1061572,-0.098196 -0.050799,-0.04902 -4.682e-4,-7.467e-4 0.047586,-6.251e-4 0.022106,-0.00631 0.020607,-0.014675 6.25e-5,0 0.020387,-0.017485 0.021139,-0.0035 0.021168,0.00687 0.02067,0.013957 0.017487,0.00756 0.019044,0.00271 0.018887,-0.0025 0.016676,-0.00781 0.029098,-0.025134 0.014674,-0.00412 0.018204,0.00921 0.022384,0.020108 0.036467,0.03728 0.019142,0.00765 0.018887,-0.011927 0.011866,-0.010928 0.011866,-0.00281 0.026007,0.00374 0.062446,-0.00843 0.022418,0.00821 0.040374,0.032471 0.022482,0.00331 0.046208,-0.018047 0.023165,-0.017172 0.013116,-0.023198 0.011924,-0.050269 0.00145,-0.023105 -0.00486,-0.024354 -0.015171,-0.025197 -0.019889,-0.011709 -0.1317596,-0.026852 -0.043401,-0.018733 -0.036154,-0.03472 -0.024977,-0.036125 -0.012925,-0.00453 -0.058605,0.032565 -0.020109,0.00287 -0.022169,-0.00656 -0.060072,-0.047771 -0.021417,-0.00843 -0.058293,4.059e-4 -0.028508,-0.00687 -0.024606,-0.023261 -0.012242,-0.024448 -0.00556,-0.025696 0.0022,-0.025602 0.011461,-0.024166 0.027477,-0.04059 0.00544,-0.013926 0.00272,-0.012365 0.00237,-0.03166 0.010431,-0.010678 0.015796,-0.00374 0.016236,0.00359 0.011866,0.010834 0.013053,0.02248 0.015362,0.021544 0.017174,0.01405 0.018795,3.747e-4 0.015299,-0.011053 0.031286,-0.033721 0.016051,-0.013519 0.02482,-0.013613 -0.016549,-0.067878 -0.00706,-0.014456 -0.00843,-0.00337 -0.068909,4.683e-4 -0.017799,0.00612 -0.027599,0.038498 -0.021608,0.00287 -0.0858,-0.020919 -0.011553,-0.00727 -0.00423,-0.00662 -0.00687,-0.016767 -0.00428,-0.00687 -0.030412,-0.00959 -0.085238,-0.00531 -0.016549,-0.019764 0.014986,-0.025072 0.062914,0.022012 0.021544,-0.019046 0.00127,-0.012895 0,-0.025478 0.00452,-0.012302 0.00961,-0.00581 0.023825,-0.00362 0.00538,-0.011552 0.00718,-0.024354 0.014893,-0.018733 0.016485,-0.016111 0.012491,-0.01686 0.00174,-0.023292 -0.015171,-0.013738 -0.021232,-0.00937 -0.016798,-0.010772 -0.01208,-0.018515 -0.00625,-0.00531 -0.01208,-0.00331 -0.040119,-9.377e-4 -0.013209,-0.00334 -0.00405,-0.010771 -0.00116,-0.011709 0.00145,-0.012021 0.00382,-0.01124 0.011056,-0.015299 0.013018,-0.00787 0.028415,-0.00656 0.01986,-10e-4 0.029879,0.00634 0.00405,0.0049 0.00681,0.01761 0.00812,0.012489 0.010147,0.00977 0.010928,-6.251e-4 0.010118,-0.018921 0.00197,-0.017797 -0.0033,-0.017859 -0.01461,-0.039653 -0.00475,-0.020701 0.03447,-0.00259 0.015299,-0.00812 0.011305,-0.018265 0.011114,-0.014363 0.015987,-0.00343 0.048929,0.00749 0.00949,0.00884 0.017544,0.037842 0.010147,0.00856 0.045398,0.010803 0.00203,0.032784 0.00475,0.00959 0.010928,0.00425 0.011461,-0.00269 0.00643,-0.00968 0.0033,-0.015174 0.00214,-0.019108 0.058386,0 0.00806,0.00759 0.00827,0.0039 0.0079,-0.00178 0.013423,-0.017329 0.00874,-9.377e-4 0.00924,0.00343 0.00868,0.00515 0.00457,0.020107 0.00122,0.013364 0.00376,0.00962 0.012428,0.00874 0.021544,0.00671 0.068503,0.00437 -6.367e-4,-0.088735 0.2507813,-0.00959 0.012676,0.00203 0.00774,0.010553 -0.00127,0.023105 -1.557e-4,0 -0.027008,0.018547 -0.00796,0.013738 0.00208,0.020482 0.011148,0.017485 0.029659,0.016111 0.012862,0.014581 0.00593,0.00952 0.00703,0.00843 0.0078,0.0054 0.00831,8.104e-4 0.00977,-0.005 0.00232,-0.00727 -0.00521,-0.032471 -0.00301,-0.00781 0,-0.00812 0.00724,-0.013176 0.026227,-0.027882 -0.010488,-0.018733 -0.00376,-0.00484 -0.00774,-0.035719 0.018575,-0.027882 0.029445,-0.018296 0.025168,-0.00687 0.053143,-0.00343 0.033566,-0.01455 0.0118,0.0024 0.02685,0.013738 0.01664,0.00116 0.0508,-0.015049 0.06063,0.00756 0.01686,-0.00843 0.0093,-0.017485 -0.0013,-0.014987 -0.0057,-0.015487 -0.0037,-0.019108 0.0084,-0.01686 0.02011,-0.00618 0.0364,0.00141 0.07056,0.016735 0.02242,-2.186e-4 0.01742,-0.00812 0.03234,-0.026633 0.01705,-0.00821 0.04121,-0.00259 0.1001,-0.046023 0.02161,0.00178 0.01805,0.00946 0.05046,0.039591 0.01686,0.00462 0.0085,0.00343 0.0065,-0.013957 0.01973,-0.00818 0.02217,-0.00375 0.01911,-0.010303 0.01074,-0.027788 -0.01936,-0.026321 -0.0091,-0.01686 8.68e-4,-0.00756 0.0048,-0.00437 0.0047,-0.00799 0.0053,-0.00443 0.01149,0.012739 0.0073,0.00375 0.0079,0.00141 0.007,-0.00109 0.0052,-0.00419 0.01,-0.013114 0.0057,-0.00419 0.0088,-6.251e-4 0.02685,0.00781 0.01505,-0.00334 0.02975,-0.014831 0.01867,-0.00421 0.01249,-0.00603 0.0038,-0.00384 0.0072,-0.00562 0.0089,0.00166 0.01545,0.00749 0.06032,-0.00718 0.0074,-0.00328 0.01052,-0.014831 0.0032,-0.00334 0.0202,0.00606 0.0069,0.00116 0.01539,-0.00365 0.0257,-0.017797 0.008,0.00737 0.03747,0.03294 0.0193,0.011552 0.02192,0.00237 0.0394,-0.020295 0.03831,-0.032222 0.03878,-0.019764 0.04103,0.016954 0.04855,0.065817 0.0087,0.00943 0.0086,0.00662 0.0091,0.00325 0.01052,-9.377e-4 0.0043,-0.00269 0.0073,-0.00781 0.0044,-0.00131 0.01842,0.00781 0.0064,-3.122e-4 0.01758,-0.034158 -0.01936,-0.1114653 0.0128,-0.024603 -0.0025,-0.020763 0,-0.025197 0.0099,-0.012333 0.07784,-0.035438 0.01761,-0.00103 0.03497,0.01021 0.01312,-0.00406 0.0044,-0.022387 -0.0069,-0.038341 0.003,-0.01405 0.01686,-0.00549 0.05945,0.00765 0.08461,0.02988 0.01899,-0.00387 0.01611,-0.017485 0.01717,-0.032471 0.01749,-0.025915 0.01982,-0.013863 0.04484,-0.017797 0.01168,0.00937 0.0054,0.069471 0.0103,0.017172 0.07353,-0.026852 0.213252,-0.078057 0.03881,-0.00609 0.07812,0.00322 0.03828,-0.00593 0.01355,-0.00843 0.02323,-0.025103 0.01311,-0.00774 0.119521,-0.00581 0.01889,-0.0045 0.0359,-0.020763 0.0193,-0.00477 0.04614,6.252e-4 0.02404,-0.00609 0.01605,-0.016767 0.01255,-0.025447 0.01458,-0.017391 0.01673,-0.00699 0.04072,0.011552 0.03981,-0.00849 0.109905,0.00334 0.04634,-0.014893 0.03631,-0.031847 0.02423,-0.041838 0.01209,-0.015924 0.01801,-0.012551 0.02167,-0.00687 0.01889,0.00134 0.05901,0.027851 0.09567,-0.013988 0.01074,-0.011709 0.0045,-0.027101 0.01358,-0.00624 0.0053,-0.00999 0.0026,-0.013956 0.0054,-0.018796 0.01155,-0.0079 0.01708,-0.00131 0.01383,-0.00584 0.0024,-0.021606 -0.04896,-0.030723 -0.02298,-0.025415 0.01005,-0.030786 -0.01358,-0.01405 -0.0047,-0.0035 0.03903,-0.022074 0.01312,-0.00312 0.009,0.00343 0.0079,0.00599 0.0097,0.00412 0.01224,-6.246e-4 0.03122,-0.01405 0.01492,4.059e-4 0.04658,0.012739 0.04081,-0.015081 0.01415,-7.183e-4 0.01617,0.00428 0.0072,-0.00219 0.0064,-0.010553 0.0014,-0.010678 -0.0033,-0.020669 5.3e-4,-0.00899 0.0099,-0.012645 0.02847,-0.01967 0.0045,-0.016548 -0.0017,-0.022793 9.26e-4,-0.01864 0.004,-0.01736 0.0072,-0.018515 0.01337,0.00831 0.0612,0.00993 0.01436,0.00731 0.01268,0.011927 0.02229,0.037467 0.01199,0.015487 0.01398,0.00643 0.01524,-0.00887 0.0063,-0.013738 0.0014,-0.018421 -0.0036,-0.040964 -0.01523,-0.0099 -0.01227,-0.00531 -0.0088,-0.010866 -0.0069,-0.036718 -0.0025,-0.00806 0,-0.00696 0.0053,-0.00849 0.0099,-0.00687 0.0097,-8.741e-4 0.109749,0.039528 0.01545,0.021169 0.01024,0.033096 z"
     id="path4138"
     style="fill:#ffffff;fill-opacity:1;stroke:#000000;stroke-width:0.2;stroke-opacity:1;stroke-miterlimit:4;stroke-dasharray:none"
     inkscape:connector-curvature="0" />
  <path
     inkscape:connector-curvature="0"
     style="fill:none;stroke:#ff0000;stroke-width:0.18809856;stroke-linecap:round;stroke-linejoin:bevel"
     d="m 11.534687,15.079843 c 0,0.66064 -0.509636,1.1962 -1.13835,1.1962 -0.6286275,0 -1.1384142,-0.535035 -1.1384142,-1.195471 0,-0.660433 0.5096361,-1.195469 1.1383502,-1.195469 0.628778,0 1.138414,0.53608 1.138414,1.196512 z"
     id="path4736" />
  <path
     inkscape:connector-curvature="0"
     style="fill:none;stroke:#ff0000;stroke-width:0.18809856;stroke-linecap:round;stroke-linejoin:bevel"
     d="m 11.052588,15.045352 c 0,0.381424 -0.295295,0.690536 -0.659585,0.690536 -0.364161,0 -0.659371,-0.309112 -0.659371,-0.690428 0,-0.38121 0.29521,-0.690322 0.659371,-0.690322 0.36429,0 0.659585,0.309316 0.659585,0.689698 z"
     id="path4738" />
</svg>
