<?xml version="1.0" encoding="UTF-8" standalone="no"?>
<!-- Created with Inkscape (http://www.inkscape.org/) -->

<svg
   xmlns:dc="http://purl.org/dc/elements/1.1/"
   xmlns:cc="http://creativecommons.org/ns#"
   xmlns:rdf="http://www.w3.org/1999/02/22-rdf-syntax-ns#"
   xmlns:svg="http://www.w3.org/2000/svg"
   xmlns="http://www.w3.org/2000/svg"
   xmlns:sodipodi="http://sodipodi.sourceforge.net/DTD/sodipodi-0.dtd"
   xmlns:inkscape="http://www.inkscape.org/namespaces/inkscape"
   id="svg3039"
   version="1.1"
   inkscape:version="0.48.4 r9939"
   width="24.776676"
   height="25.013268"
   sodipodi:docname="MCT.svg">
  <metadata
     id="metadata3045">
    <rdf:RDF>
      <cc:Work
         rdf:about="">
        <dc:format>image/svg+xml</dc:format>
        <dc:type
           rdf:resource="http://purl.org/dc/dcmitype/StillImage" />
        <dc:title></dc:title>
      </cc:Work>
    </rdf:RDF>
  </metadata>
  <defs
     id="defs3043" />
  <sodipodi:namedview
     pagecolor="#ffffff"
     bordercolor="#666666"
     borderopacity="1"
     objecttolerance="10"
     gridtolerance="10"
     guidetolerance="10"
     inkscape:pageopacity="0"
     inkscape:pageshadow="2"
     inkscape:window-width="1366"
     inkscape:window-height="750"
     id="namedview3041"
     showgrid="false"
     fit-margin-top="0"
     fit-margin-bottom="0"
     fit-margin-left="4.5"
     fit-margin-right="4.5"
     inkscape:zoom="24.626931"
     inkscape:cx="12.298698"
     inkscape:cy="12.364512"
     inkscape:window-x="0"
     inkscape:window-y="18"
     inkscape:window-maximized="1"
     inkscape:current-layer="svg3039" />
  <path
     style="fill:#000000;stroke:none;stroke-opacity:1;stroke-width:0.00100000000000000;stroke-miterlimit:4;stroke-dasharray:none;fill-opacity:1"
     d="m 10.502519,24.578282 c -0.8890451,-0.979086 -0.7262478,-2.504136 0.365365,-3.422674 1.256335,-1.057133 3.215392,-0.429197 3.754171,1.203314 0.432792,1.311372 -0.329955,2.677779 -1.48153,2.65404 -0.537341,-0.01103 -0.560556,-0.03318 -0.191597,-0.182231 0.621423,-0.251083 1.269913,-1.172636 1.269913,-1.804648 0,-0.681949 -0.820673,-1.698106 -1.471982,-1.822611 -1.068819,-0.204322 -2.305081,0.788733 -2.305081,1.851591 0,0.606977 0.659405,1.528995 1.26991,1.775668 0.368959,0.149084 0.345744,0.171165 -0.191597,0.182231 -0.392838,0.0081 -0.756623,-0.147304 -1.017572,-0.43468 z m 0.02695,-5.799878 c -0.331244,-0.243254 -0.383376,-0.517703 -0.368174,-1.938235 0.02701,-2.523779 0.229456,-2.92859 2.766215,-5.531306 2.496359,-2.561266 2.88167,-3.1593322 2.88167,-4.4728384 0,-2.2473278 -1.947962,-3.6808781 -4.183673,-3.078857 C 10.544885,4.0481442 9.8138886,4.7822968 9.3516418,6.0408485 9.1508551,6.5875308 8.8443484,7.1515097 8.6705141,7.2941203 8.2596035,7.6312513 5.5700901,7.4170573 4.901059,6.993929 4.4853356,6.7310012 4.4436905,6.5926187 4.5490188,5.8241662 4.7277296,4.5203299 5.7013212,2.7737322 6.8465069,1.7025497 8.2321601,0.40643114 9.2313045,-0.01824472 10.839363,0.00542424 l 1.292153,0.0190161 -0.938208,0.1580662 C 9.8325314,0.41176172 8.2192823,1.2107713 7.1765625,2.1719134 6.1121642,3.1530426 5.0122179,5.2240872 5.1085569,6.0656807 5.182309,6.709952 5.6181204,6.8712651 7.3947694,6.9118968 c 1.0205981,0.023365 1.0299931,0.018005 1.2632386,-0.721954 0.6481719,-2.0562161 1.92625,-3.0315899 3.972442,-3.0315899 1.331218,0 2.009885,0.2709996 2.818198,1.1253177 0.675761,0.7142161 0.958086,1.4598189 0.952546,2.5155963 -0.0073,1.3838759 -0.644273,2.4061021 -3.038594,4.8760501 -2.466927,2.544859 -2.72203,3.039096 -2.72203,5.273577 0,1.412056 0.294518,1.715302 1.665942,1.715302 1.42524,0 1.641529,-0.226918 1.800054,-1.88853 0.07302,-0.765357 0.276837,-1.615195 0.45293,-1.888531 0.176093,-0.273346 1.166111,-1.346825 2.20004,-2.385518 1.362311,-1.368592 2.042999,-2.231164 2.472387,-3.1330434 C 19.776085,8.2256256 19.818589,7.98226 19.752706,6.3866784 19.696862,5.0341892 19.573123,4.437175 19.194155,3.6917644 18.287489,1.9083989 16.35367,0.53631712 14.244558,0.17993735 l -0.920285,-0.15549701 1.249063,-0.0233655 c 1.559454,-0.0292322 2.772976,0.53645609 3.994942,1.86213046 1.357145,1.4723311 1.701907,2.4357996 1.708304,4.7740506 0.0073,2.6667844 -0.403166,3.4999731 -3.146906,6.3877891 -1.128887,1.188162 -2.156184,2.355689 -2.282885,2.594513 -0.126701,0.238814 -0.230365,0.912206 -0.230365,1.496405 0,1.678453 -0.296814,1.945842 -2.159999,1.945842 -1.021049,0 -1.671289,-0.09559 -1.926956,-0.28338 z"
     id="path3051"
     inkscape:connector-curvature="0" />
</svg>
