<?xml version="1.0" encoding="UTF-8" standalone="no"?>
<svg
   xmlns:dc="http://purl.org/dc/elements/1.1/"
   xmlns:cc="http://creativecommons.org/ns#"
   xmlns:rdf="http://www.w3.org/1999/02/22-rdf-syntax-ns#"
   xmlns:svg="http://www.w3.org/2000/svg"
   xmlns="http://www.w3.org/2000/svg"
   xmlns:sodipodi="http://sodipodi.sourceforge.net/DTD/sodipodi-0.dtd"
   xmlns:inkscape="http://www.inkscape.org/namespaces/inkscape"
   version="1.1"
   width="603.6452"
   height="519.08594"
   viewBox="0 0 603.6452 519.08594"
   id="svg6081"
   inkscape:version="0.48.4 r9939"
   sodipodi:docname="BOCA.svg">
  <metadata
     id="metadata9137">
    <rdf:RDF>
      <cc:Work
         rdf:about="">
        <dc:format>image/svg+xml</dc:format>
        <dc:type
           rdf:resource="http://purl.org/dc/dcmitype/StillImage" />
      </cc:Work>
    </rdf:RDF>
  </metadata>
  <defs
     id="defs9135" />
  <sodipodi:namedview
     pagecolor="#ffffff"
     bordercolor="#666666"
     borderopacity="1"
     objecttolerance="10"
     gridtolerance="10"
     guidetolerance="10"
     inkscape:pageopacity="0"
     inkscape:pageshadow="2"
     inkscape:window-width="1366"
     inkscape:window-height="750"
     id="namedview9133"
     showgrid="false"
     fit-margin-top="0"
     fit-margin-left="0"
     fit-margin-right="0"
     fit-margin-bottom="0"
     inkscape:zoom="0.79875358"
     inkscape:cx="99.871138"
     inkscape:cy="264.201"
     inkscape:window-x="0"
     inkscape:window-y="18"
     inkscape:window-maximized="1"
     inkscape:current-layer="svg6081" />
  <desc
     id="desc6083">world98</desc>
  <g
     id="United States:Texas State"
     transform="translate(-3687.0934,-2146.9257)"
     style="stroke:#000000;stroke-width:5;stroke-miterlimit:4;stroke-opacity:1;stroke-dasharray:none">
    <path
       d="m 4113.3071,2611.4385 0.2025,0.1393 2.216,5.3573 -0.038,1.4943 0.089,2.3682 0.4689,1.7604 2.4818,6.2941 0.5455,0.2026 0.2783,-0.051 1.0513,-0.4431 0.215,-0.1268 0.8746,-0.6966 0.2915,-0.4054 0.076,-0.2278 0.051,-0.2786 -0.038,-0.2913 0.076,-1.1905 0.051,-0.2913 0.1392,-0.2532 0.2157,-0.1139 0.2024,0.063 0.2658,0.3925 0.3674,1.1778 0.2025,1.0511 0.2282,1.5578 0.01,0.3032 0.01,0.4547 -0.9167,-0.036 -4.7625,1.1905 -2.28,0.9624 -1.4945,1.0006 0.1266,0.4558 0.1141,1.0258 -0.051,0.3167 -0.2532,0.4431 -0.5824,0.3927 -0.2282,0.038 -2.0518,-0.1267 -0.3041,-0.063 -0.304,-0.076 -3.9012,-2.1908 -0.2533,-0.3546 -0.1008,-0.2027 -1.8494,-2.0771 -2.5082,-2.4567 -1.5321,-1.1145 -1.2545,-0.3546 -0.304,-0.076 -5.5223,-0.8738 -1.8494,-0.2534 -6.0671,0.2026 -0.2532,0.051 -2.3176,0.4685 -0.9372,0.3799 -0.5699,0.051 -6.0928,-1.1018 -3.9262,-1.6084 -0.8739,-0.5193 -2.5583,-2.0263 -1.2162,-1.7351 -2.1409,-1.317 -0.4432,-0.2533 -6.0922,-1.3677 -1.2036,-0.025 -4.1037,-1.3931 -0.076,-0.228 -1.5328,-1.0131 -2.47,-1.5705 -6.4344,-1.9376 -2.2926,-0.6585 -5.8896,-1.3298 -1.2663,-4.1919 -3.1032,-8.5484 -1.786,-4.0652 -0.6206,-1.2411 -0.6714,-1.2159 -0.1392,-0.1772 -0.279,-0.089 -1.697,-0.2406 -0.304,-0.063 -0.2658,-0.1014 -6.0038,-7.966 0.6965,-9.6248 -1.3422,-9.8403 -0.038,-0.2532 -1.3303,-3.9386 -0.1009,-0.2026 -0.8739,-1.0766 -0.304,-0.3546 -0.6081,-0.4179 -2.1277,-1.279 -0.6081,-0.1393 -0.3548,-0.038 -0.2658,0.063 -3.5846,-0.7092 -0.7981,-0.5468 -0.3799,-0.5929 -0.304,-0.3546 -0.3416,-0.6079 -0.064,-0.228 -0.3291,-0.6078 -0.2025,-0.152 -0.2407,-0.114 -0.3417,-0.051 -0.6213,-0.063 -0.1899,-0.152 -0.2658,-0.3798 -0.076,-0.228 -0.4182,-0.8359 -0.1392,-0.1772 -0.3179,-0.1431 -1.0757,-0.072 -0.24,-0.089 -1.0138,-1.0385 -0.2282,-0.4052 -0.1134,-0.4812 -0.304,-1.735 -0.3674,-2.0897 -0.076,-0.228 -2.4324,-2.5202 -1.2413,-1.0512 -4.0403,-6.0028 -0.9372,-1.583 -0.3799,-0.304 -0.5065,-0.2153 -0.6714,-0.1012 -0.2658,-0.089 -3.4204,-1.4058 -2.4568,-2.0642 -1.7735,-1.583 -0.1516,-0.1774 -0.1141,-0.2026 -2.0901,-4.9898 -0.038,-0.4685 0.089,-0.6207 0.013,-0.5698 -0.9755,-2.8748 -0.3799,-1.0764 -1.8361,-2.4064 -2.0268,-2.5202 -1.4694,-1.9503 -0.3417,-0.6079 -0.3805,-0.861 -0.038,-0.2534 0.1,-0.4848 0.027,-0.098 -0.038,-0.2534 -0.2276,-0.6838 -1.3428,-3.5461 -0.1899,-0.4306 -1.5961,-1.6463 -1.1905,-1.4185 -1.4312,-1.7602 -0.5322,-1.0385 -0.076,-0.228 0.3166,-1.4437 0.013,-0.2786 -1.6086,-4.8252 -0.2275,-0.3925 -5.713,-6.5602 -0.1899,-0.1393 -5.953,-3.9386 -0.7848,-0.304 -3.6354,-3.8499 -0.4046,-0.6963 -0.1294,-0.1849 -0.1371,-0.1956 -0.2285,-0.2025 -0.4683,-0.2406 -0.279,-0.1011 -1.8869,-0.3801 -0.3552,-0.038 -1.1776,-0.3164 -0.2407,-0.1141 -3.5081,-2.2035 -4.2052,-3.4194 -2.0518,-2.0643 -0.5399,-0.9957 -0.081,-0.2581 0.05,-0.304 -0.1642,-0.4558 -1.5078,-3.1029 -2.3558,0.025 -3.7614,0.051 -3.9269,0.2153 -3.7112,-0.5318 -1.7478,-0.4939 -1.3553,-0.3547 -2.3301,-0.3673 -3.0273,-0.063 -4.4968,0.013 -2.3176,0.304 -0.5955,0.063 -1.0006,-0.038 -0.9497,-0.1899 -1.1146,-0.3546 -4.8258,-1.6717 -1.4312,-0.8738 -0.19,-0.1393 -1.3178,-0.7852 -0.2657,-0.089 -0.3549,-0.038 -0.24,0.1014 -2.0268,1.6715 -6.257,3.1408 -3.1032,0.6332 -4.9907,1.1399 -6.1318,12.2503 -2.1137,5.5558 -2.0393,4.4704 -2.6975,3.2422 -4.4209,4.0524 -4.661,5.1418 -0.5573,-0.1773 -0.6206,-0.1266 -5.0551,-0.386 -0.087,-0.01 -0.3166,-0.063 -3.4322,-1.1651 -1.1912,-0.5826 -2.7733,-1.6717 -1.0513,-0.7218 -2.1158,-1.697 -9.3219,-3.3308 -6.9918,-3.9512 -3.9137,-0.9119 -2.2167,-0.6965 -0.988,-0.4431 -0.8356,-0.5321 -0.7855,-0.5824 -4.0529,-3.0775 -1.2036,-1.1651 -0.3166,-0.3419 -0.1141,-0.2028 0.026,-0.8738 -1.0645,-0.6838 -1.1146,-0.6332 -1.3547,-0.7472 -0.2407,-0.1141 -0.5573,-0.1645 -0.6714,-0.1014 -0.2916,0.038 -0.4557,0.2153 -0.1899,0.1393 -0.2533,-0.051 -3.5721,-2.0009 -1.5578,-1.2032 -3.9519,-3.4319 -0.1649,-0.1647 -6.0289,-11.9298 -0.2024,-0.4179 -0.6715,-2.7102 -0.3798,-2.0009 -0.013,-0.2786 0.2025,-0.4939 0.7222,-1.3046 0.2025,-0.4812 0.063,-0.2787 0.1141,-2.5833 -0.3298,-0.8992 -1.0638,-2.0896 -3.2548,-3.8628 -2.0651,-3.1027 -1.9502,-3.6601 -0.6714,-2.6721 -0.5824,-1.583 -0.3673,-0.5953 -1.457,-1.5197 -0.2024,-0.1393 -2.4575,-1.0512 -3.2423,-2.824 -2.8749,-2.533 -2.0267,-1.3171 -1.7353,-1.0511 -0.5698,-0.1646 -0.3549,-0.038 -0.3291,0.013 -0.3298,0.342 -0.2275,0.1014 -0.6463,-0.051 -6.0038,-3.1281 -4.2686,-3.5206 -0.3673,-0.3039 -2.1277,-2.1277 -1.6211,-2.4949 -0.3423,-0.6205 -0.6074,-0.6965 -0.2032,-0.1393 -4.9142,-2.7862 -2.5458,-1.3171 -0.2025,-0.1393 -0.1649,-0.1647 -0.1266,-0.2026 -0.3423,-0.8992 -0.2533,-0.3925 -1.7227,-1.9124 -0.6582,-0.6712 -0.7347,-0.6078 -5.2308,-3.9767 -1.6344,-1.1271 -0.2783,-0.076 -1.7735,-0.1646 -0.8488,-0.2534 -3.2548,-1.2157 -2.8123,-1.697 -0.4175,-0.2787 -2.5082,-3.6345 -0.2533,-0.3927 -0.6456,-1.5451 -0.6464,-1.8235 -1.3421,-2.1784 -0.1399,-0.1899 -2.5075,-2.5202 -0.4565,-0.2533 -0.5698,-0.1647 -0.2908,-0.013 -0.8871,0.1141 -0.9498,0.063 -1.4569,-0.1393 -0.4049,-0.3419 -1.0051,-0.9084 -2.9086,-1.8778 -0.6074,-0.4433 -1.3046,-2.4822 -1.4444,-4.179 -0.1774,-0.722 2.1409,-0.2786 24.3309,0.013 72.1963,-0.026 26.5328,0.014 26.6273,0.012 12.2609,-0.026 -0.025,-9.8653 0.013,-35.7006 0.1013,-6.1803 0.1008,-4.4576 0.2662,-11.4487 0.3169,-11.1318 0.3162,-12.3861 -0.013,-9.8782 0.026,-41.0326 -0.013,-63.0812 6.0668,0.026 13.6923,-0.026 51.6771,0.026 42.5333,-0.026 22.0391,-0.013 2.6718,0.025 -0.012,10.6379 -0.025,7.5989 0.1137,69.3878 0.051,0.038 0.494,0.2153 0.2275,0.063 0.4182,0.025 0.494,-0.025 0.2657,-0.1012 0.773,-0.1141 0.7473,0.025 0.3548,0.063 0.7598,0.2153 0.9504,0.4056 0.4175,0.2786 2.6349,2.1527 1.7095,1.558 0.494,0.4685 0.4557,0.4053 2.7364,2.3047 0.5316,0.3673 0.7222,0.3799 0.2658,0.089 1.0256,0.2282 0.5705,0.063 8.1954,-0.1016 2.406,-1.8108 2.2543,-0.798 3.762,1.5451 0.1141,0.089 2.5966,2.8749 0.1141,0.2782 0.1141,0.3548 -0.2665,2.1657 0.038,1.1524 0.1141,0.4685 0.1774,0.3673 0.19,0.3169 0.2157,0.2532 0.3541,0.2783 0.3423,0.1016 6.5987,0.6713 7.3083,1.6463 0.5191,0.1645 0.798,0.1649 4.3193,0.7847 1.0896,0.076 0.7723,-0.152 0.5323,-0.1395 0.9622,-0.367 0.7222,-0.2153 1.1021,-0.2657 0.6457,-0.013 0.8356,0.1266 0.494,0.1899 0.1517,0.1266 0.4815,0.4178 0.3297,0.3169 0.4182,0.6205 0.6331,0.6331 0.4683,0.3802 0.7598,0.5318 1.267,0.7343 0.5448,0.1645 0.519,0.063 0.6846,-0.05 0.7598,-0.1774 0.5316,-0.1774 0.4564,-0.2404 0.1266,-0.1266 0.1134,-0.1266 5.4723,-2.0894 5.269,0.2024 3.3689,1.6717 -0.038,0.5572 -0.013,0.4303 0.026,0.3423 0.037,0.1899 0.2533,1.127 0.051,0.1266 0.215,0.3423 0.1523,0.1899 0.2658,0.2275 0.558,0.2786 0.3041,0.1016 0.4808,0.076 0.8738,0.038 1.5586,0.1524 0.7597,0.1137 0.5191,0.127 0.519,0.329 0.1907,0.152 0.026,0.152 0.05,1.4314 0.013,0.4052 -0.077,0.2532 -0.5072,0.7089 -0.1642,0.3677 -0.051,0.4685 0.025,0.4557 0.2533,0.3548 0.1524,0.1266 0.4181,0.1899 3.1922,0.7722 0.519,-0.05 0.3166,-0.089 2.8248,-1.0891 0.4558,-0.2407 0.2024,-0.152 1.2921,-1.3423 1.5954,-1.5959 0.7737,-0.5443 0.8864,-0.4432 0.6456,-0.2407 0.684,-0.076 0.494,0.038 1.9885,0.7218 3.7362,3.128 2.4825,2.4568 0.3166,0.6206 0.5963,0.5193 0.4808,0.1645 0.9879,-0.013 0.8739,-0.1016 0.9122,-0.2911 0.5065,-0.2028 5.1932,-2.6846 2.3684,2.3938 -0.4307,0.4811 -0.1649,0.4052 -0.025,0.7471 0.1009,0.494 0.2797,0.6967 0.4557,0.8863 0.1767,0.2786 0.7347,0.7092 0.3291,0.2786 0.7348,0.2661 0.5448,0.076 2.1527,-1.4063 1.6093,-4.2801 2.9639,-4.4325 0.19,-0.152 0.5065,-0.2028 0.9122,-0.1645 1.3296,-0.127 0.3548,0.051 0.5065,0.2028 0.19,0.1516 0.2908,0.3802 0.2157,0.4432 0.1016,0.8108 0.1398,0.5064 0.1009,0.215 0.1141,0.2282 0.2783,0.3798 0.5573,0.4814 0.4432,0.2532 0.2916,0.076 4.7242,1.0004 0.7222,0.051 0.6207,-0.1016 5.1041,-0.1391 5.5606,3.1914 6.3078,3.5837 0.519,0.1141 0.2658,-0.025 0.4565,-0.1395 5.2314,-2.6978 0.43,-0.2278 0.4815,-0.4557 0.2024,-0.3931 0.1392,-0.3419 0.051,-0.3419 0.3423,-0.6456 0.2783,-0.2915 0.3041,-0.2407 1.8117,-0.6327 0.4933,-0.1395 6.0163,-1.279 3.9402,0.671 4.7618,-0.5444 1.3428,-1.0765 6.1179,-2.3177 0.4933,-0.1137 0.279,0.012 0.5191,0.1141 0.558,0.1774 0.4432,0.1771 0.4682,0.4177 0.063,0.1266 0.1141,0.6588 -0.051,0.1899 -0.025,0.494 0.025,0.2786 0.063,0.1899 0.2157,0.1395 4.7493,0.5823 2.8505,-0.1646 1.7596,-0.3923 1.2294,-0.3931 2.0894,-0.7468 0.1267,-0.152 -0.026,-0.2786 -0.2783,-0.4181 -0.051,-0.2278 0.089,-0.3674 0.6964,-0.8737 0.2032,-0.1774 0.5441,-0.2532 0.2665,-0.025 0.2658,0.038 2.8749,0.8108 0.1774,0.063 7.03,4.1281 2.0769,1.6846 4.5343,3.0902 6.3204,2.5962 7.7772,1.9754 1.393,0.076 1.3164,0.015 1.4826,1.9225 2.7107,2.1531 0.6088,0.152 0.2533,0.051 2.431,-0.1649 0.2032,-0.076 0.1899,-0.304 0.1016,-0.2153 -0.012,-0.4435 0.1009,-0.329 0.2024,-0.1521 0.1524,-0.05 0.2783,-0.013 4.4842,0.063 0.3291,0.051 4.2936,0.6835 0.2915,0.051 1.9127,0.8995 0.076,0.9371 0.013,0.7597 -0.013,22.0361 0.013,0.7468 0.084,0.2491 -0.084,4.3104 -0.025,29.6471 0.025,12.2084 0,0.043 0.01,0.1848 0.063,0.1266 3.0656,2.9382 0.3924,0.2405 1.052,0.4053 0.4933,0.2407 0.3931,0.2659 0.7215,0.6332 0.7848,0.8611 0.2665,0.3927 2.0518,3.1406 0.1774,0.4433 1.0005,3.0902 0.077,0.3547 -0.2797,0.6711 -0.1134,0.4939 -0.5824,2.8114 -0.077,0.5826 0.051,0.2533 0.3165,0.5826 0.2658,0.3925 0.4439,0.5194 1.0256,1.0003 1.8368,2.4445 3.5596,4.901 0.4682,0.9243 1.6852,4.3313 0.7089,1.6971 2.0644,1.6463 0.9755,0.2786 0.2024,0.1393 0.063,0.1901 -1.1647,15.5897 -0.1398,0.7978 -2.5584,5.6231 -0.6721,0.7093 -1.0763,0.6584 -0.5441,0.4686 -0.4056,0.5699 -1.7095,2.7862 -0.1274,0.2153 -0.5698,1.3171 -0.051,0.2151 -1.0896,7.9281 0.051,1.4183 0.051,0.2153 0.1774,0.4179 0.5323,0.7852 1.1014,2.7227 0.7229,4.2807 0.063,0.532 -0.9379,3.2166 -0.1774,0.4306 -0.1517,0.1773 -1.7735,1.8997 -1.4688,1.1779 -2.2167,0.2786 -0.2658,0.076 -0.2156,0.1518 -4.5977,6.864 -0.1141,0.646 -0.012,0.2532 0.038,0.4433 0.1523,0.4431 0.215,0.266 0.2157,0.1393 0.3423,0.2026 1.0764,0.6586 0.9622,1.0006 0.2658,0.2913 1.2795,1.735 0.2665,0.3925 0.05,0.2534 -0.025,0.2532 -0.19,0.152 -0.4056,0.1267 -0.5824,0.1012 -0.3172,0.013 -0.4683,-0.063 -0.2533,-0.1012 -0.4432,-0.2534 -0.2783,-0.076 -0.3673,-0.025 -5.0416,0.1393 -1.4569,0.2279 -2.6335,0.7979 -0.7479,0.2786 -7.9798,3.0267 -6.447,2.5836 -7.3459,2.9888 -1.2162,0.5066 -0.6331,0.3419 -1.0513,0.646 -0.9504,0.7344 -0.3291,0.3292 -0.7473,0.9119 -0.519,0.4685 -0.4182,0.2661 -0.5072,0.1646 -0.5824,0.1013 -0.4557,-0.114 -0.215,-0.1394 -0.1266,-0.1393 -0.063,-0.1899 0.05,-0.2153 0.2407,-0.5572 0.3548,-0.3293 3.7746,-2.976 0.2157,-0.1267 3.5338,-1.165 3.5331,-1.0768 0.8613,0.1014 0.3549,0.013 0.2275,-0.051 1.2545,-1.6336 0.051,-0.2786 -0.063,-0.1266 -0.2156,-0.076 -3.7231,-0.4939 -0.3305,-0.025 -0.5823,0.1013 -4.2554,0.8864 -4.1168,-0.6965 1.5578,-1.9376 0.1141,-0.2152 0.2032,-0.456 0.24,-0.7725 0.1016,-0.5065 0.4307,-2.2668 0.051,-0.2787 0.025,-0.3167 -0.1141,-1.5704 -0.063,-0.2533 -0.1266,-0.1901 -1.4437,-1.0763 -0.4182,-0.1774 -0.5197,0.1647 -2.4951,0.9118 -0.4174,0.2026 -0.5323,0.4814 -5.1549,2.4822 -0.1774,-0.1014 -1.9886,-0.8484 -0.5447,-0.089 -1.7478,-0.1647 -0.1899,0.013 -0.1768,0.089 -0.1141,0.089 -0.077,0.1899 0.051,0.19 2.1276,6.5221 5.155,6.2435 0.1649,0.1901 0.1899,0.4179 0.3674,0.9244 -0.051,0.8864 -0.2407,1.583 -0.051,0.2787 -0.3799,0.9245 -8.0807,5.851 -0.6331,0.38 -2.1409,5.4835 -0.709,0.5699 -6.3836,4.9645 -0.6207,0.4179 -1.0012,0.6459 -1.2663,0.7599 -11.5768,6.3068 -0.43,0.2026 -2.8958,0.6435 -0.3041,0.099 -1.8239,0.1368 -0.3496,-0.053 -0.4405,-0.1899 -0.3419,-0.053 -1.7864,0.1647 -5.8389,1.8744 -0.2533,0.088 -0.4432,0.2407 -0.1774,0.152 -0.1141,0.152 -0.3548,2.2795 0.012,0.2152 0.2157,0.1393 0.279,0.013 0.5065,-0.051 0.7473,-0.2533 0.9114,-0.4306 0.9129,-0.4685 1.013,-0.5953 0.5566,-0.4432 0.6965,-0.3294 0.8592,-0.051 1.5655,-0.5244 0.1517,-0.046 0.2512,-0.03 0.091,0.038 -0.053,0.114 -2.9031,1.9553 -1.4054,0.5953 -1.7102,0.6333 -1.5453,0.5064 -1.0138,0.304 -0.9873,0.152 -0.5197,0.1646 -0.7222,0.2913 -1.6212,0.7598 -1.0631,0.5826 -0.2157,0.1519 -3.0523,1.6211 -1.1529,0.5191 -2.3559,1.0514 -0.2156,0.089 -0.076,-0.1267 0.076,-0.1266 0.3798,-0.5195 0.2665,-0.2405 0.4057,-0.304 1.9627,-1.0891 3.1539,-1.5197 0.4683,-0.2026 0.9754,-0.38 0.9372,-0.3419 1.2037,-0.4813 0.2157,-0.1266 0.5191,-0.4812 0.1391,-0.7219 -0.026,-0.2152 -0.1642,-0.4179 -0.088,-0.1647 -0.1774,-0.089 -0.1774,-0.038 -1.6469,0.3165 -1.3422,0.4812 -1.0137,0.5321 -1.1654,0.4812 -0.9622,0.3798 -0.5073,0.1647 -3.0272,0.9371 -0.5059,0.076 -0.279,-0.076 -0.088,-0.4812 0.2783,-0.494 0.3673,-0.2026 0.3166,0.038 0.3423,0.1393 0.469,-0.013 0.24,-0.076 1.1779,-0.5318 0.4307,-0.2407 0.3291,-0.2659 0.038,-0.089 -0.026,-0.1646 -2.1778,-2.7482 -0.1016,-0.1266 -0.2908,-0.1013 -0.3048,-0.013 -2.9131,0.5192 -0.2408,0.089 -5.3449,-2.1909 -0.6282,-0.3622 -1.8668,-1.0691 -0.088,0.304 0.2838,1.416 0.9825,3.8777 0.076,0.1647 0.1649,0.1014 0.7973,0.2786 0.2533,0.038 0.4947,-0.013 0.215,0.063 0.1016,0.1647 -0.1141,0.2405 -0.2276,0.1268 -1.1278,0.5572 -0.8488,0.1519 -0.3291,0.025 -0.3542,-0.013 -2.7232,-0.9118 -2.5083,-1.1145 -0.2149,-0.1266 -0.1016,-0.1645 -0.2408,-0.95 0.013,-0.2786 0.1398,-0.6963 -0.089,-0.2154 -0.1517,-0.1393 -0.7104,-0.6459 -0.1767,-0.1266 -0.2533,-0.1014 -0.279,-0.051 -2.0901,0.038 -0.2783,0.709 -0.1649,0.5321 -0.038,0.2532 0.063,0.2532 3.0523,5.2177 4.2817,2.6215 3.6981,2.2289 0.5065,0.5194 0.076,0.1647 0.012,0.2151 -0.1141,0.2153 -0.1767,0.152 -10.145,4.9516 -1.1911,0.3674 -0.279,0.063 -0.3542,-0.013 -1.1522,-0.5065 -0.1649,-0.1014 -0.3172,-0.3546 -0.1517,-0.4431 0.076,-1.1018 -0.063,-1.0385 -0.1016,-0.1901 -0.1642,-0.1645 -1.7102,-1.6971 -1.8111,-1.6463 -0.1266,-0.1012 -0.215,-0.076 -0.2539,0.1266 -0.1768,0.089 -0.4181,0.5191 -1.4569,2.001 -0.051,0.2534 0.063,0.4685 0.2665,0.3546 0.6199,0.5573 1.5835,1.0763 0.3041,0.3547 0.1016,0.2026 0.063,0.2405 -0.038,4.534 -4.6477,4.6098 -1.8626,0.5193 -0.6707,0.1645 -1.9133,0.228 -0.2784,-0.076 -1.3553,-0.6332 -0.5448,-2.3048 -6.1047,0.8105 -0.1774,0.088 -0.304,0.304 -0.215,0.3673 -1.7986,3.3813 -0.051,0.342 0.2275,0.2913 0.279,0.076 0.963,0.051 0.24,0.076 1.482,0.8231 0.1016,0.1267 0.063,0.4812 2.001,-1.8362 0.2025,-0.1268 2.2675,-0.9371 0.9247,0.5951 0.1774,2.077 -0.051,0.1266 -7.3716,9.2451 -0.2909,0.2406 -0.2282,0.1141 -0.4564,0.089 -0.4808,-0.013 -0.4689,-0.1139 -0.19,-0.089 -5.2057,-1.3677 -6.7128,-1.1651 -0.9887,0.3546 -0.2908,0.1772 0.038,0.1647 0.2658,0.3166 1.0902,1.1905 0.063,0.063 0.3541,0.228 4.0153,1.8235 3.5213,3.0904 1.6336,2.7101 -4.8891,11.8917 -0.988,2.8749 -0.1141,0.2153 -0.2276,0.1266 -3.0272,0.9244 -0.684,-0.1646 -1.267,-3.1535 -4.3774,1.8389 -0.3113,-0.7218 -0.4634,-0.8282 -1.7631,-0.6687 -2.1151,-2.1275 -1.8501,-1.4312 -0.2783,0.064 -0.1774,0.1518 -0.012,0.2534 0.063,0.2532 0.1016,0.2153 0.2657,0.3926 1.8877,1.7731 2.0974,3.2723 0.1214,0.2508 -0.01,0.1519 -0.2356,0.1825 0.8739,1.5626 0.9873,1.0006 0.4822,0.2026 3.9638,0.7473 0.304,-0.025 0.2533,-0.088 2.3941,-0.9753 1.2413,-0.4433 0.7347,-0.114 0.4432,0.114 -0.038,0.5318 -0.8363,5.5598 -0.1266,0.5319 -1.3303,4.1665 -3.4448,0.8992 -0.215,0.1139 -0.1774,0.152 -0.2532,0.38 -0.038,0.2786 0.1899,6.5095 0.089,0.5445 0.3667,0.608 0.3423,0.3165 0.2407,0.1013 0.5949,-0.076 0.3041,0.038 0.7215,0.304 0.2031,0.1266 0.1399,0.1899 0.1642,0.4812 0.6589,2.3178 2.4825,8.8396 0.4682,6.0915 0.494,1.9376 z"
       id="path7969"
       inkscape:connector-curvature="0"
       style="fill:#ffffff;stroke:#000000;stroke-width:5;stroke-miterlimit:4;stroke-opacity:1;stroke-dasharray:none" />
    <path
       d="m 4228.6563,2479.1594 -0.6965,0.5953 -0.5823,0.4054 -0.4182,0.2659 -10.3864,6.3953 -0.1899,0.089 -0.1141,0.025 -0.025,-0.038 0.051,-0.2786 0.5824,-0.7218 0.4056,-0.4179 6.168,-4.9391 6.1429,-4.5972 1.6719,1.3931 -2.6091,1.7602 z"
       id="path7971"
       inkscape:connector-curvature="0"
       style="fill:#ffffff;stroke:#000000;stroke-width:5;stroke-miterlimit:4;stroke-opacity:1;stroke-dasharray:none" />
    <path
       d="m 4158.93,2518.6343 0.038,-0.025 0.1141,-0.2786 0.1517,-0.1772 1.1014,-0.8486 0.2157,-0.1139 0.4808,-0.456 0.1141,-0.1518 0.4314,-0.3674 0.6964,-0.2026 0.8356,-0.5066 0.6081,-0.3165 1.3304,-0.456 0.1516,-0.025 0.1649,0.1267 -0.1141,0.2153 -0.4307,0.1393 -0.3673,0.1772 0.072,-0.013 0.1816,-0.063 -0.3931,0.2026 -0.3673,0.2407 -0.1517,0.1772 -0.7347,0.6081 -0.215,0.1139 -0.5824,0.4179 -0.2533,0.089 -1.052,0.5318 -0.4049,0.266 -0.3291,0.304 -0.4056,0.2659 -0.1774,0.089 -0.2401,0.025 -0.1398,0.063 z"
       id="path7973"
       inkscape:connector-curvature="0"
       style="fill:#ffffff;stroke:#000000;stroke-width:5;stroke-miterlimit:4;stroke-opacity:1;stroke-dasharray:none" />
    <path
       d="m 4140.5513,2528.2466 0.8105,-0.1393 1.8619,-0.38 0.4182,-0.1519 1.8619,-1.3551 0.1774,-0.152 0.304,-0.3672 0.2533,-0.4054 0.1517,-0.1774 0.2156,-0.152 6.1172,-3.2672 3.4712,-1.7983 0.038,-0.2153 0.1649,-0.4053 0.1391,-0.1901 0.3674,-0.1772 0.2157,-0.025 0.1009,0.038 0.1774,0.1645 0.1899,1.1399 0.038,0.7599 -0.2783,0.5824 -0.1141,0.152 -0.5065,0.4306 -1.3672,0.646 -0.9379,0.3419 -0.7472,0.2532 -1.9127,0.8232 -1.0764,0.5951 -6.4087,3.8248 -0.6463,0.418 -1.3804,0.8991 -0.7605,0.5826 -2.3684,1.8742 -0.3674,0.3421 -0.1774,-0.798 0.2282,-2.3174 0.1524,-0.4052 0.2407,-0.4055 0.43,-0.4937 0.5323,-0.1393 0.2797,0.02 z"
       id="path7975"
       inkscape:connector-curvature="0"
       style="fill:#ffffff;stroke:#000000;stroke-width:5;stroke-miterlimit:4;stroke-opacity:1;stroke-dasharray:none" />
    <path
       d="m 4137.1566,2533.1476 -1.786,2.4316 -6.2696,7.3452 -0.4807,-0.2659 0.4682,-1.4691 0.1517,-0.3798 4.5733,-7.9279 2.2292,-2.039 0.2407,-0.025 0.9999,0.633 0.279,0.2534 0.1774,0.2279 -0.051,0.152 -0.1016,0.038 z"
       id="path7977"
       inkscape:connector-curvature="0"
       style="fill:#ffffff;stroke:#000000;stroke-width:5;stroke-miterlimit:4;stroke-opacity:1;stroke-dasharray:none" />
    <path
       d="m 4118.0815,2559.3248 -1.2538,2.3936 -0.6457,1.4945 -0.9504,2.3681 -0.3799,1.0005 -0.3166,1.1018 -0.519,2.4061 -0.5448,1.5705 -0.215,0.4687 -0.1899,0.3039 -0.2408,0.152 -0.3805,-0.1647 -0.076,-0.3166 0.2533,-2.0517 0.038,-0.2786 0.5073,-2.8495 0.2024,-0.8864 1.5196,-4.0273 0.215,-0.4927 0.6839,-1.5588 0.3681,-0.5955 0.2275,-0.3672 1.0388,-1.5577 5.4082,-7.9532 0.4307,-0.5572 3.5338,-4.344 0.1774,-0.2153 0.2024,-0.1139 0.4057,-0.152 0.5956,-0.013 0.1008,0.063 0.076,0.063 -0.025,0.4179 -0.038,0.1266 -0.3667,0.4307 -1.1278,1.2536 -1.203,1.2285 -0.6965,0.8613 -2.2417,3.0015 -0.3424,0.5572 -3.2297,5.4835 -0.063,0.1647 z"
       id="path7979"
       inkscape:connector-curvature="0"
       style="fill:#ffffff;stroke:#000000;stroke-width:5;stroke-miterlimit:4;stroke-opacity:1;stroke-dasharray:none" />
    <path
       d="m 4113.5534,2591.6111 -0.8892,-1.6717 -0.6749,-8.3254 -0.025,-1.4437 0.051,-3.09 0.025,-0.6712 0.088,-0.6586 0.3799,-2.1656 0.1523,-0.3672 0.1009,-0.1014 0.254,-0.025 0.089,0.1645 -0.076,0.3167 -0.088,0.8484 -0.1649,1.9757 -0.1524,3.8245 0.038,1.8616 0.088,0.6588 1.1501,7.1501 0.1065,0.6081 0.053,0.2658 0.5622,2.0745 0.8005,3.579 1.6343,4.5337 1.2788,3.3813 0.5956,1.8745 0.9372,3.2168 0.9755,3.7611 0.3298,1.849 0.8864,5.5852 0.3416,2.1654 0.051,0.722 -0.1266,0.5064 -0.1775,0.2786 -0.4933,-0.5445 -0.3165,-1.0891 -0.1775,-0.8864 -0.3172,-4.1539 -0.8356,-5.1165 -2.4199,-7.3327 -1.2155,-3.2927 -1.9002,-4.9137 -0.5531,-1.0395 z"
       id="path7981"
       inkscape:connector-curvature="0"
       style="fill:#ffffff;stroke:#000000;stroke-width:5;stroke-miterlimit:4;stroke-opacity:1;stroke-dasharray:none" />
  </g>
  <path
     sodipodi:type="arc"
     style="fill:#000000;fill-opacity:0;stroke:#ff0000;stroke-width:7.00000003;stroke-linecap:round;stroke-linejoin:bevel;stroke-miterlimit:4;stroke-opacity:1;stroke-dasharray:none"
     id="path3051"
     sodipodi:cx="464.47366"
     sodipodi:cy="511.44427"
     sodipodi:rx="32.550716"
     sodipodi:ry="33.176689"
     d="m 497.02438,511.44427 a 32.550716,33.176689 0 1 1 -65.10143,0 32.550716,33.176689 0 1 1 65.10143,0 z"
     transform="translate(-33.179216,-28.035014)" />
  <path
     sodipodi:type="arc"
     style="fill:#000000;fill-opacity:0;stroke:#ff0000;stroke-width:12.1273503;stroke-linecap:round;stroke-linejoin:bevel;stroke-miterlimit:4;stroke-opacity:1;stroke-dasharray:none"
     id="path3051-5"
     sodipodi:cx="464.47366"
     sodipodi:cy="511.44427"
     sodipodi:rx="32.550716"
     sodipodi:ry="33.176689"
     d="m 497.02438,511.44427 a 32.550716,33.176689 0 1 1 -65.10143,0 32.550716,33.176689 0 1 1 65.10143,0 z"
     transform="matrix(0.5769231,0,0,0.57749245,163.32886,187.18214)" />
</svg>
