<svg xmlns="http://www.w3.org/2000/svg" width="24.719" height="18.719" viewBox="0 0 24.71886 18.719459"><desc>world98</desc><path fill="none" stroke="#000" stroke-width=".1" d="M20.16 6.054c.126.147.233.28.23.29 0 .004.007.016.017.026.01.01.022.03.028.048.006.017.034.06.063.1.062.08.14.212.144.236l.003.075c0 .03.007.09.015.13.01.04.012.08.008.08-.005 0-.012.03-.016.05-.008.05-.027.08-.112.18-.093.11-.094.11-.082.15l.017.06c.004.01.018.04.032.06.013.02.025.04.026.05.002.02-.077.09-.11.1-.02 0-.022.01-.016.03l.036.07c.032.05.03.08-.005.14-.014.03-.025.05-.024.06.003.03-.266.48-.472.79-.113.17-.256.4-.317.5-.073.12-.156.24-.24.36-.18.24-.263.37-.292.46-.02.06-.057.12-.218.37-.106.17-.2.31-.207.32-.008 0-.02.03-.03.06-.008.02-.027.06-.04.08-.015.01-.038.06-.052.1-.014.03-.037.08-.05.1-.015.01-.038.05-.052.07-.013.02-.044.06-.067.09l-.08.1-.106.13c-.03.05-.07.1-.08.12-.01.02-.03.05-.05.07-.02.02-.04.05-.05.08-.01.03-.03.06-.1.12s-.08.08-.13.1l-.05.02.02.03c.01.01.15.12.38.29l1.22.89 1.9 1.39.56.41 2.59 1.89c.25.18.25.18.24.19-.01.01-3.09 1.43-3.1 1.43-.01 0-.06-.04-1.22-.81l-1.26-.85-1.3-.87L16.11 15l-1.03-.69c0-.003-.01.003-.02.01-.007.01-.02.015-.025.01l-.06-.032c-.04-.027-.05-.028-.06-.01-.033.033-.083.136-.084.17 0 .03 0 .033-.06.082-.09.08-.18.137-.22.133-.02-.002-.03.003-.05.024-.01.016-.03.03-.04.03-.01 0-.07.034-.1.055-.03.03-.04.067-.02.09.02.03.03.044.02.08 0 .03-.01.044-.08.105-.06.06-.07.07-.1.08-.02.004-.06.027-.09.05-.07.047-.1.064-.14.065-.01 0-.03.005-.04.01-.08.044-.18.065-.2.043-.01-.008-.01-.01-.02-.01-.01.003-.09-.028-.11-.04 0-.005-.02-.013-.03-.02-.02-.006-.03-.005-.07.03l-.04.04-.23-.04c-.17-.027-.25-.046-.29-.066-.03-.02-.07-.03-.08-.03-.03 0-.12-.04-.32-.13-.28-.13-.61-.33-.88-.54-.13-.1-.12-.1-.09-.13s.03-.03.01-.04l-.11-.09c-.1-.1-.1-.1-.13-.09l-.02.01-.17-.16-.16-.17-.01-.04c-.01-.04-.01-.04-.09-.12l-.09-.08-.03.03-.03.03-.05-.06c-.08-.09-.18-.21-.26-.31-.15-.2-.38-.56-.52-.83-.08-.15-.22-.49-.25-.6-.02-.07-.02-.08 0-.12l.02-.05-.05-.17c-.05-.17-.06-.21-.04-.3.01-.01.06-.09.13-.18l.19-.25c.04-.05.1-.12.13-.14.03-.03.06-.07.08-.09.09-.14.22-.28.55-.62.12-.12.2-.21.2-.22 0-.01.06-.09.1-.14.04-.04.04-.07-.01-.07-.07-.01-.09-.01-.1 0 0 0-.02.01-.03 0-.01 0-.03.01-.07.05-.03.03-.08.08-.12.11-.03.02-.15.13-.26.24-.12.11-.22.21-.25.23-.05.03-.15.11-.27.21-.11.09-.11.09-.15.07L8 9.24l-.57-.41-.644-.48-.375-.272-.37-.28-.69-.52-.66-.5c-.14-.11-.3-.22-.34-.252l-.69-.51c-.34-.25-.7-.52-.8-.597l-1.29-.94-.61-.46C.07 3.41.1 3.44.1 3.43.1 3.41 2.402.108 2.41.108c.01 0 .03.018.393.305.15.12.39.31.536.423.14.115.44.352.66.528l1.6 1.262.5.395.63.5.43.34.96.76 1.09.86.36.29.22.18.8.63.43.35.42.34 1.03.81c0 .01.07-.06.16-.15l.16-.16.04-.32.04-.31.14-.14.14-.14.14-.08.9-.5c1.58-.88 2.83-1.58 2.85-1.59.01 0 .03 0 .04.01.02.02.05.02.12 0 .08-.02.12-.01.18.04.06.06.07.06.14-.02l.06-.06.03.01c.03.01.03.01.06-.02.04-.04.08-.05.13-.06.03 0 .05-.01.1-.04s.06-.04.09-.03c.02.01.05.01.06 0 .04-.01.07 0 .14.05.03.03.09.05.12.07.03.01.08.04.1.06.02.02.07.05.11.06.07.03.16.09.26.18.03.03.07.06.08.06.03.01.2.15.54.46.14.13.64.61.69.68zm-.73-.68c-.27-.24-.463-.4-.524-.43-.02-.01-.07-.046-.11-.083-.043-.03-.08-.06-.086-.06-.005 0-.022-.01-.038-.02-.018-.02-.05-.03-.09-.05-.034-.01-.09-.04-.123-.06-.04-.02-.09-.05-.12-.06-.03-.01-.07-.03-.1-.05-.06-.04-.09-.05-.13-.05-.02.01-.05.01-.07 0-.02 0-.04 0-.06.02-.07.05-.1.07-.14.07-.03 0-.05.01-.06.02-.01.03.13-.02.18-.06l.04-.03.12.04c.07.02.15.05.17.07l.15.09.27.18c.21.16.43.35.94.86.37.38.38.38.5.54.07.09.18.24.25.34l.12.18.02.13c.02.07.03.13.04.13.01 0 0-.02-.01-.1-.01-.03-.02-.08-.01-.11 0-.03-.01-.07-.01-.08-.02-.04-.07-.12-.14-.21-.04-.04-.06-.08-.07-.1 0-.02-.02-.04-.03-.05-.01-.01-.02-.02-.02-.03 0 0-.01-.02-.03-.03l-.08-.09-.1-.12c-.07-.08-.54-.54-.73-.72zm-.216-.083c-.276-.25-.29-.27-.45-.38-.1-.07-.227-.15-.33-.21-.15-.08-.178-.1-.29-.13l-.123-.03-.03.03c-.02.03-.04.04-.1.05-.06.02-.07.02-.12.07l-.04.05h-.1l-.04.05-.04.05-.14-.03c-.08-.02-.18-.04-.22-.04-.08-.01-.08-.01-.14.03L16 5.4l-.98.572-.05-.003-.05-.01-.18.1c-.36.2-1.29.73-1.42.8l-.06.03-.03.09c-.02.05-.06.13-.08.19-.04.09-.04.1-.02.19.02.13.06.26.14.46.04.1.08.19.08.2.02.04.266.47.315.56.066.11.057.1.357.49.245.31.29.37.48.58l.306.34c.053.06.15.16.244.25.244.22.506.46.603.54.107.09.49.38.57.43l.26.16.28.17c.05.03.16.08.36.16.26.1.3.12.45.15l.17.03.1-.03.1-.03.27-.36.26-.36.068-.15c.05-.13.067-.15.094-.17.02-.02.06-.07.143-.21.25-.39.247-.39.26-.45.014-.06.016-.07.23-.38.175-.26.244-.37.355-.56.075-.14.19-.33.26-.44.104-.17.13-.21.183-.26.05-.06.07-.08.18-.27.08-.15.122-.23.14-.28.03-.07.03-.07 0-.18l-.03-.11.054-.05.055-.04-.04-.1c-.045-.12-.05-.09.07-.23.06-.08.073-.1.1-.16l.02-.07-.03-.14-.03-.13-.104-.15c-.06-.08-.14-.19-.18-.24l-.133-.17c-.06-.08-.14-.16-.56-.59-.04-.04-.2-.19-.36-.34zm1.398 1.83c-.01.02-.017.06-.01.06.007 0 .024-.06.02-.06l-.01.01zm-.05.1c-.003.01.002.01.01 0 .01-.01.012-.01.006-.01s-.013.01-.016.02zM17.78 4.6c-.005.01-.01.013-.012.008 0-.005-.017.005-.035.023-.03.04-.034.04-.064.02l-.04-.01-.06.06c-.06.06-.06.06-.09.06-.02 0-.04-.01-.06-.03-.05-.04-.1-.05-.18-.03-.06.02-.08.02-.12.01-.05-.01-.05-.01-.11.03-.04.02-.07.04-.07.05h.01s.03-.02.05-.03c.06-.03.15-.02.36.03l.14.03.04-.05c.04-.05.04-.05.09-.05.04 0 .05 0 .09-.03.03-.03.04-.04.04-.05-.01-.02-.01-.02-.02 0zm-.058.066c-.007.007-.01.007-.007 0 .002-.007.008-.012.012-.012.005 0 .002.005-.005.012zm2.734 2.678c-.005.007 0 .005.01-.005.012-.01.016-.02.01-.02-.007 0-.015.01-.02.02zm-.04.05c-.01.007-.007.024.007.057.02.05.02.05.017.02-.002-.01-.008-.03-.014-.04-.006-.01-.007-.02-.002-.02s.008-.01.006-.01-.01.01-.015.01zm.06.183l.014.034-.05.05-.05.05c.01.01.064-.02.09-.04.032-.03.034-.04.01-.08-.028-.03-.03-.03-.015 0zm-.077.22l.01.072c.01.06.01.06.02.03 0-.02 0-.05-.01-.06-.02-.03-.03-.06-.03-.05zm-.02.232v.02l.01-.04s-.01 0-.01.02zM16.9 4.77c-.006.006-.003.007.008.003.01-.005.024-.013.03-.018.006-.007.003-.008-.008-.003-.01.004-.023.01-.028.016zm-.032.02c-.003.008 0 .008.008 0 .007-.005.01-.01.005-.01s-.01.005-.01.01zm-.057.033c0 .006 0 .006.01 0 .01-.008.01-.013.01-.013s-.01.005-.01.012zm0 .03c0 .007 0 .007.01 0 .01-.006.01-.01.01-.01s-.01.004-.01.01zm-.02-.012c0 .01 0 .01.01 0 .01 0 .01-.01.01-.01s-.01.01-.01.02zm-.03.02c0 .01 0 .01.01 0 .01 0 .01-.01.01-.01s-.01.01-.01.02zm-.03.05c0 .01 0 .01.01 0 .01 0 .01-.01.01-.01l-.01.01zm-1.06.57l-1.04.59-.14.09-.24.13-.27.16-.27.16c-.09.05-.16.09-.16.1 0 .01 0 .01.01 0h.01c.01.01.07-.03.15-.07l.4-.23.41-.23c.4-.23.4-.23.44-.23.02 0 .04.01.05.01.01 0 .18-.09.5-.28l.49-.29c.02-.02-.04.02-.35.19l-.38.22-.11.06c-.09.06-.14.08-.15.07 0 0 0-.01.01-.01.03-.01.49-.27.85-.47l.54-.3c.18-.1.27-.15.32-.19.04-.03.01-.02-1.02.56zM19.9 8.8c-.073.12-.14.23-.15.25-.02.048-.04.118-.03.1.002-.007.1-.153.21-.325l.205-.31-.05.04c-.05.04-.064.06-.186.25zm-3.76-3.55c-.002.006 0 .006.01 0s.01-.013.01-.013-.01.005-.013.012zm-.095.055c-.003.007 0 .007.008 0 .007-.006.01-.012.005-.012-.004 0-.01.006-.013.012zm-.06.032c-.01.01-.01.01.008.003.03-.01.046-.03.023-.02-.01.005-.024.01-.03.02zm3.543 4.056c-.04.073-.08.137-.086.143-.006.005-.008.013-.005.017 0 .003.01-.003.02-.013.01-.01.016-.02.012-.02-.01-.006 0-.014.01-.02.01-.01.02-.015 0-.01-.02 0-.02-.004 0-.018.01-.01.02-.02.01-.02s-.01-.006.01-.014c.01-.01.02-.015.01-.017-.01 0-.01 0 0-.01s.01-.01 0-.01-.01 0 .01-.01l.01-.01c-.01 0-.01 0 .01-.01l.01-.01c-.01 0-.01-.01 0-.03.01-.02.02-.03.01-.03 0 0-.04.06-.08.13zm-.136.223l-.03.046.032-.037c.03-.036.04-.055.032-.055-.002 0-.017.02-.034.047zm-.05.072c-.003 0 .002 0 .01-.01.01-.008.012-.013.005-.01-.01.002-.02.01-.02.015zm-.026.032c-.003.006 0 .006.008 0 .007-.007.01-.01.005-.01 0 0-.01.003-.01.01zm-.205.3c0 .008 0 .008.01 0s.01-.01.01-.01-.01.004-.01.01zm-.03.05c-.02.024-.05.113-.04.12.01.003.06-.142.06-.146l-.02.026zm-.49.817c-.02.033-.03.07-.04.083-.02.036 0 .03.02-.013.03-.046.06-.122.05-.125 0 0-.02.025-.03.057zm-.06.14c-.01.02 0 .017.01-.004v-.016c-.01 0-.01.01-.01.02zm-.03.07c-.01.023-.02.04-.01.032.01-.01.04-.08.03-.08l-.02.04zm-.19.265c-.08.118-.15.21-.14.204.01-.006.03-.03.05-.06l.09-.122c.03-.043.08-.113.11-.158.11-.15.05-.08-.11.134zm6.23 5.778v.012c.01.01-.01.023-.2.11-.1.05-.44.207-.76.352l-.96.44-.74.345c-.24.11-.36.16-.37.15l-.44-.3c-.23-.16-.62-.42-.87-.58l-1.81-1.21-.63-.42-.95-.64c-.29-.2-.57-.38-.62-.42l-.6-.41-.53-.36c-.02-.01-.02-.02-.01-.03.01-.02.01-.02-.03-.01l-.06.01c-.03 0-.03 0-.11.1-.1.12-.1.13-.09.15.02.02.02.05.01.07l.03-.03c.03-.03.04-.03.02-.02l-.02.01.02-.03.03-.03c.01-.01.01-.02.01-.03v-.01c.02-.02.04-.03.02-.03-.01 0 .01-.05.03-.07.01-.01.01-.01.01.01s0 .02 0 0c0-.01.02-.03.03-.05.03-.03.03-.03.06-.01l.06.03c.02.01.03.01.04 0 .01-.01.02-.01.03-.01.01 0 .1.06.2.13s.25.17.33.22l1.61 1.07 1.03.69c.48.32 1.05.7 1.25.83l.5.33.82.55c.4.26.69.45.7.45.01-.01.11-.05.24-.11s.65-.31 1.17-.54c.52-.24 1.09-.5 1.27-.59l.36-.17c.03-.01.03-.01.01-.03-.01-.01-.02-.01-.02-.01zm-.07-.064c0 .003.01.01.02.012.01.003.01 0 0-.008 0-.007-.01-.01-.01-.005zm.03.04l.01.01c.01.002.01 0 0-.008 0-.007-.01-.01-.01-.005zm-.07-.08c0 .006.01.01.01.014.01.003.01 0 0-.008 0-.007-.01-.01-.01-.005zm.03.04c.01.008.01.017.02.02.01.006.01 0 0-.01l-.01-.01zm-.1-.076c0 .004.01.01.02.012.01.003.01 0 0-.007 0-.005-.01-.01-.01-.003zm.03.04c0 .007.01.014.02.016.01.004.01 0 0-.01s-.01-.01-.01-.004zm-.07-.075c0 .01.01.015.02.02.01 0 .01-.004 0-.01-.01-.01-.01-.014-.01-.008zm-.46-.29L22.8 15.9l-.74-.54-1.09-.8-.638-.46c-.49-.36-1.26-.92-1.34-.98l-.28-.21-1.01-.74-.05-.04s-.24.03-.28.04c-.01 0-.03.02-.04.03-.02.02-.02.02-.03.01-.01-.01-.014-.01-.055.02-.06.05-.124.12-.14.15l-.043.05c-.03.02-.03.02-.014 0 .013-.02.01-.02-.016 0-.02.02-.03.03-.02.04.004 0 0 .01-.015.02-.02.007-.03.02-.03.02 0 .007.03-.012.06-.04l.07-.05-.11.1c-.14.13-.29.27-.32.283-.01.01-.02.01-.02-.01 0-.01-.01-.016-.01-.016-.02 0 .02-.044.18-.18l.2-.187.14-.13.1-.096-.07-.02c-.46-.13-.58-.18-.98-.4-.18-.093-.35-.19-.39-.22-.04-.024-.23-.17-.43-.32-.2-.15-.39-.29-.42-.31-.05-.032-.12-.1-.32-.294l-.26-.255-.1-.14c-.05-.08-.12-.17-.15-.2-.32-.36-.33-.37-.58-.75-.22-.323-.26-.39-.38-.615L13 8.3c-.04-.07-.07-.13-.11-.26l-.05-.16-.165.16c-.09.085-.16.16-.17.155 0 0-.02.016-.04.04-.04.052-.49.49-.51.5-.04.016.07-.1.38-.405.023-.023.04-.042.035-.05 0-.008.01-.038.04-.067.03-.044.04-.055.06-.06.02-.007.02-.006.01 0-.01.007-.01.015-.004.02.003.004.043-.033.134-.123.19-.19.205-.207.22-.2.01.003.03.06.05.13.02.07.045.13.05.13.01 0 .01.006.003.007-.015.006 0 .056.03.11.03.057.03.04 0-.02-.03-.05-.04-.09-.03-.08l.02.04c.02.048.033.06.04.04.04-.09.12-.15.264-.21.01 0 .01-.012-.01-.06l-.03-.06c0-.01-.02-.046-.04-.09-.04-.09-.07-.18-.093-.27l-.017-.07-.07.03c-.075.04-.103.06-.133.12-.012.03-.023.045-.03.04-.01 0-.01 0 0-.003s.01-.005 0-.007c-.01-.01-.01-.01 0-.01s.017-.02.025-.038c.02-.05.09-.11.16-.14.06-.03.08-.04.01-.02-.09.04-.13.07-.16.12l-.04.06c-.01.01-.01.04-.02.07l-.01.06-.17.17-.17.17-.02-.01-.12-.1c-.01-.01-.02-.02-.03-.02l-.03-.03c-.02-.03-.03-.03-.03-.02 0 .01-.01.01-.03-.03-.03-.03-.04-.04-.04-.03 0 .01-.01 0-.03-.03-.02-.03-.03-.04-.04-.04-.01.01-.02-.01-.04-.03-.02-.02-.03-.03-.03-.02 0 .01-.01.01-.03-.02-.02-.02-.03-.03-.03-.02-.01.01-.02 0-.04-.03l-.06-.06c-.02-.01-.06-.05-.1-.08-.04-.03-.07-.06-.08-.06-.01-.01-.03-.02-.03-.03-.01-.01-.02-.02-.03-.02-.01 0-.03-.01-.04-.03-.01-.02-.03-.03-.03-.03-.01 0-.02-.01-.02-.01 0-.01-.06-.06-.13-.11l-.3-.24-.43-.34-.79-.62-1.16-.92-.93-.73-.66-.52-.46-.37-.54-.42-.46-.37c-.13-.1-.32-.25-.43-.34l-.37-.29-.22-.17-.05-.03.05.04.11.09.18.14.17.14c.06.05.1.09.12.1v.02s0 .02.01.03c.03.03.05.04.07.03.01-.01.02-.01.02-.01l.06.05c.03.02.08.06.1.08l.13.11.14.12c.04.03.1.08.14.11.04.03.15.12.24.19l.58.46c.04.03.04.05.04.05-.01.01-.01.01.01.01.01 0 .04.02.09.06l.25.21.29.22.25.2c.3.24.34.273.34.282 0 .01.02.02.03.03.03.02.03.02.05.007.01-.01.016-.01.01 0-.01.01 0 .02.01.04.02.02.39.31.55.44l.59.46.256.2c.29.23.37.29.45.36l.5.4c.09.07.165.134.17.15.01.01.034.03.06.05.024.02.105.08.18.14.074.052.2.15.275.21l.19.153.21.17.33.26.33.26c.17.13.2.17.18.19-.007.008-.17.14-.367.298l-.58.46-.22.18-.038.06c-.03.05-.04.065-.08.09-.02.02-.058.04-.07.06-.018.01-.04.03-.05.034-.04.02-.04.03.01.08.02.02.04.04.04.05 0 0-.02-.01-.04-.03-.02-.02-.04-.04-.05-.04-.01-.004-.017-.01-.01-.01.01-.01-.03-.01-.04 0 0 .01 0 .01.003.02.01.01.01.02.01.02 0 .01.02.02.04.04.03.027.04.03.05.02s.01 0 .01.01l.01.02.01.01c-.03.04-.27.28-.53.52-.07.07-.08.075-.06.09.02.02-.01.05-.05.04-.03 0-.06.01-.06.03 0 .005.01.006.03 0 .02 0 .03 0 .02.01-.01.01-.06.075-.13.14-.06.07-.18.2-.25.3-.23.28-.41.51-.44.55-.04.05-.05.13-.04.17l.06.14.06.14c.01.03.01.04-.04.12l-.02.05c-.01.02.09.28.14.384 0 .02.01.03 0 .03s-.04-.09-.08-.19l-.04-.12c-.03-.08-.035-.12-.015-.14.02-.02.06-.1.055-.11-.01-.01-.07.07-.08.1-.01.05.096.34.23.61.086.18.17.32.204.365l.06.08c.01.03.04.07.06.1l.05.08.034.05.04.06c.04.054.08.11.09.13 0 .01.09.11.24.3l.03.037.05-.04.05-.04.05.05c.13.14.14.16.14.194 0 .03.01.04.05.09.03.03.06.06.08.07.03.01.03.01 0-.01-.01-.02 0-.02.05.03.03.03.07.06.08.07.02.01.02.015.02.02-.01 0-.02-.01-.04-.026l-.03-.02c0 .01.03.04.07.07.04.04.06.06.06.04-.01-.01 0-.02.02-.03.03-.01.07 0 .05.01 0 .01-.01.01-.01 0s-.04.02-.05.04c0 .01 0 .02.01.026s.05.032.08.07c.16.14.17.143.186.13.01-.01.01-.01-.025-.04-.02-.018-.05-.04-.07-.05-.02-.02-.05-.04-.07-.06-.02-.02-.047-.04-.06-.05-.02-.01-.027-.02-.026-.03 0-.01.006-.01.01-.01l.08.06.11.09.04.03-.03-.04c-.03-.037-.026-.03.03.02l.07.062-.04.04c-.02.03-.04.05-.04.05 0 .01.18.14.3.22.2.14.59.36.57.33l-.18-.11c-.163-.09-.632-.41-.65-.44-.01-.01.01-.02.02 0 .02.03.46.33.67.45.21.12.21.12.46.21.238.09.26.09.46.13l.218.04.06-.06c.04-.055.05-.06.06-.05l.116.06c.054.03.103.06.11.06.004 0 .093-.05.37-.23l.06-.03v-.15l.07-.077.104-.11.04-.043h.11c.06-.007.11-.01.11-.02.01-.01.02-.03.04-.05.01-.02.03-.05.04-.07.02-.036.14-.19.18-.236.02-.02.04-.03.07-.04.04-.01.06-.02.1-.05.03-.02.05-.04.06-.03.01 0-.01.015-.02.03-.023.02-.03.03-.02.035.01.01.017 0 .03-.01l.055-.04c.028-.02.027-.01-.01.02-.022.02-.05.05-.06.06-.013.02-.012.03.005.04l.91.61 1.84 1.23.35.23.4.265 1.37.92.67.44.63.42c.15.11.28.19.28.19l.73-.33 1.45-.67c.91-.41.82-.37.81-.38l-.644-.48zm-6.6-4.43s-.01.003-.01 0c0 0 0-.003.01-.006.02-.01.02-.01.01 0zm-.06.05c-.01.006-.01.01-.01.002 0-.005.01-.012.02-.015 0-.002 0 .003-.01.01zm-.05.05c-.02.02-.04.034-.05.036 0 .01.01-.01.03-.03.06-.04.07-.05.03 0zM12.42 8.05c-.006 0-.01 0-.01-.01v-.01h.01c.002 0 .002.01 0 .01zm4.02 4.91c-.048.04-.07.06-.08.04-.004-.01-.014-.02-.023-.02-.014 0-.01-.01.025-.04.047-.05.056-.05.086-.04.022.01.022.01-.012.04zm-.03-.02c-.005 0-.005.01 0 .01.004 0 .01 0 .015-.01s.005-.01 0-.02c-.002-.007-.01-.006-.015 0zm-.038.03c-.006 0-.01.01-.004.01h.013l.01-.01h-.02zm-4.46-4.29c-.02.016-.11.11-.2.203-.13.133-.17.17-.174.165-.007-.005-.01-.004-.013 0h-.01c-.003-.005-.01 0-.015 0-.004.006-.003.014.004.02.01.01 0 .024-.18.205-.1.106-.2.197-.2.202-.01.01-.03 0-.01-.01.01-.01.01-.02 0-.03l-.01-.02.02.01c.02.012.02.01.09-.055.08-.08.12-.127.1-.12-.01 0-.014 0-.014-.01s.03-.05.11-.12c.11-.105.11-.108.14-.105.02.003.03 0 .06-.036l.034-.04-.04.04c-.03.02-.044.03-.053.03-.02-.01-.01-.02.04-.07s.09-.06.04-.02c-.02.02-.02.02 0 .01.04-.02.14-.12.16-.16.02-.03.02-.04.01-.06 0-.02 0-.02.01-.02h.03c.03.01.05-.02.04-.04-.01-.03.01-.05.03-.03.01.01.02 0 .04-.01.04-.03.04-.01 0 .02zm-.112.06c-.002 0-.002.01 0 .01h.015c.003-.01.003-.01 0-.018-.004-.005-.01-.005-.013 0zm-.405.44l.017-.02c.02-.016.02-.025.01-.02-.01.007-.03.02-.03.03zm-.055.02c-.007.01 0 .005.017-.01.015-.015.02-.023.01-.017l-.028.03zm-.017.04c-.003.01.003.006.016-.007.01-.013.01-.02 0-.014s-.02.02-.03.03zm4.967 3.843c-.01.01-.04.04-.067.06-.04.032-.06.037-.07.03-.01-.007-.02-.01-.03-.01-.03.006 0-.02.05-.07.05-.046.06-.05.07-.033.01.01.01.016.02.01s.01 0 0 .015zm-.076.02c-.026.025-.027.027-.005.014.03-.02.05-.04.04-.04-.01-.01-.02 0-.04.02zm-4.53-4.13c-.124.124-.256.253-.295.287-.04.038.06-.064.22-.222.16-.16.29-.29.29-.28l-.22.22zm4.444 4.25c-.033.033-.034.033-.03.01.003-.016.01-.024.018-.025.01 0 .03-.007.03-.01.01-.008.01.004-.01.023zm-.008-.038c-.003.01-.02.026-.07.06-.032.02-.032.02.006-.02.04-.037.07-.056.07-.037zm-.118.15c-.007.01-.01.01-.007 0 .003-.005.01-.01.013-.01.005 0 .002.005-.005.01zm-.103.04c-.02.014-.03.02-.02.01s.02-.027.03-.03c0-.01 0 0-.02.02zm-.06.054l-.01.01c0-.01.01-.01.02-.02 0 0 0 .01-.01.02zm-.06.05c-.01.01-.02.01-.01 0l.01-.01s0 .01-.01.01zm-.07.12c-.01.01-.02.01-.01.01 0-.01.01-.02.01-.02l-.01.01zm-.12.11l-.09.07s.02-.03.05-.06c.04-.05.05-.06.05-.07-.01-.01-.02-.01-.06.03-.03.02-.07.06-.1.08-.03.02-.02.01.05-.05.07-.07.1-.09.12-.1.05-.01.05 0-.04.08zm-.18.15c-.02.02-.03.03-.02.01.01-.01.02-.03.03-.04l-.02.02zm-.08.02c-.02.02-.03.03-.02.01 0-.01.02-.03.03-.03l-.02.02zm-.03.09c-.04.04-.08.07-.08.07-.01-.01.02-.03.05-.06.09-.09.1-.09.02-.02zm-.02-.04c-.01.01-.02.01-.01.01 0-.01.01-.02.02-.02 0-.01 0 0-.01.01zm-.08.08l-.07.05c-.01 0 .08-.09.11-.1l-.04.04zm-.02.05c-.02.01-.02.02-.02.01s.02-.02.02-.02l-.01.01zM9.8 12.3c0 .013 0 .016-.01.01-.01-.005-.018-.018-.02-.028-.006-.01-.005-.02 0-.01.007 0 .015.01.02.02zm.03.06c.01.024.01.026 0 .01-.02-.023-.03-.053-.02-.043l.01.034zm.06.123l.02.05-.06-.11c.002 0 .01.005.033.06zm1.72 1.89c-.01.01-.02.01-.02.01l.01-.02c0-.006.01-.01.01-.01 0 .005 0 .013-.01.02zm-.17-.18c-.01 0-.02-.01-.02-.02l.01.01s.01.015.004.01zm-.08-.08c-.01 0-.01-.006-.01-.01 0-.005 0 0 .01.005.01.006.01.01 0 .006zm-.4-.34c0 .05-.005.06-.015.05-.003 0-.003-.03 0-.058.002-.025.006-.05.007-.05l.003.058zm-.22-.25h-.014c0-.008 0-.01.005-.01h.02v.01zm-.036.012c-.01.005-.015.005-.017 0 0 0 0-.002.006-.005.004-.008.01-.008.013 0 0 0 0 .004-.007.01zm-.05.04c-.004.006-.013.01-.02.01-.015.005-.015 0-.003-.01l.02-.01c.01.007.01.01 0 .014zm13.667 3.45c0 .008.01.015.02.018.01.008.01 0 0-.01s-.01-.01-.01 0zm-.08-.083c0 .005.01.01.01.013.01.003.01 0 0-.01 0-.006-.01-.01-.01-.004zm.03.044s.01.01.02.01c.01.002.01 0 0-.01s-.01-.01-.01-.005zm-.08-.08l.02.01s.01 0 0-.01c0-.006-.01-.01-.01-.004zm.04.042c.01.005.01.012.02.015.01 0 .01 0 0-.01 0-.01-.01-.01-.01-.004zm-.08-.08c0 .004.01.01.01.013.01 0 .01 0 0-.01s-.01-.01-.01 0zm.03.04c0 .006.01.015.02.02.01.004.01 0 0-.012-.01-.01-.01-.014-.01-.008zm-.13-.116c0 .006.01.01.01.01.01.007.01 0 0-.003s-.01-.01-.01-.01zm-.05-.04c0 .008.01.01.01.017.01 0 .01 0 0-.01 0-.01-.01-.01-.01-.01zm-.05-.033l.01.01c.01 0 .01 0 0-.01 0-.01-.01-.01-.01-.01zm-.14-.11s.01.01.02.01.01 0 0-.01l-.01-.01zm-.05-.04l.01.01c.01 0 .01 0 0-.01 0-.01-.01-.01-.01-.01zm-.05-.04s.01.01.02.01.01 0 0-.01c0-.01-.01-.01-.01-.01zm-.1-.08l.01.01c.01 0 .01 0 0-.01 0-.01-.01-.01-.01-.01zm-.05-.04l.01.01c.01 0 .01 0 0-.01 0-.01-.01-.01-.01-.01zm-.15-.11s.01.01.02.01c0 0 0-.01-.01-.01-.01-.01-.01-.02-.01-.01zm-.05-.04s.01.01.02.01.01 0 0-.01c0-.01-.01-.01-.01-.01zm-.05-.04l.01.01c.01 0 .01 0 0-.01l-.01-.01zm-.05-.04l.01.01s.01 0 0-.01c0-.01-.01-.01-.01-.01zm-.05-.04l.01.01c.01 0 .01 0 0-.01 0-.01-.01-.01-.01-.01zm-.05-.04l.01.01s.01 0 0-.01l-.01-.01zm-.3-.22l.01.01s.01 0 0-.01l-.01-.01zM13.43 6.7c-.008 0 0 .002.02 0 .032-.01.04-.02.01-.01-.01 0-.03 0-.03.01zm9.393 9.16l-.003.01h.01s.003-.01 0-.01h-.01zm-.07-.06s0 .01.01.01c.006 0 .006 0 0-.01s-.01-.01-.01-.01zm-.05-.04s0 .01.01.01c.006 0 .006 0 0-.01s-.01-.01-.01-.01zm-.1-.07s.005.01.01.01c.01.01.01 0 0 0-.005-.01-.01-.01-.01-.01zm-.052-.04c0 .01.01.01.01.02.01 0 .01 0 0-.01l-.01-.01zm-.05-.03s0 .01.01.01.01 0 0-.01l-.01-.01zm-.05-.04s.01.01.02.01v-.01l-.01-.01zm-.05-.04l.01.01c.01 0 .01 0 0-.01 0-.01-.01-.01-.01 0zm-9.03-8.81l-.01.01c.02.01.02.01.03-.01.01-.02.01-.02-.01-.006zm8.93 8.73s.01.01.02.01.01 0 0-.01-.01-.01-.01-.008zm-.09-.07s0 .01.01.01.01 0 0-.01-.01-.01-.01-.008zm-.05-.04l.01.01c.01 0 .01 0 0-.01 0-.007-.01-.01-.01-.005zm-.05-.04s0 .01.01.01c.01.003.01 0 0-.008s-.01-.01-.01-.007zm-.05-.04c0 .01 0 .01.01.013s.01 0 0-.005c-.01-.01-.01-.01-.01-.004zm-8.71-8.5c0-.01-.01-.006-.01.01 0 .01-.01.01-.01.01 0-.007-.01 0-.01.003 0 .01-.01.01-.01.008 0 0-.01 0-.01.01s-.01.02-.02.01c-.01 0-.05.04-.16.14l-.14.14-.01.09c0 .05-.01.11-.01.13v.02c0-.01-.03.18-.04.23 0 .01.03-.01.06-.05.05-.04.07-.06.11-.08l.06-.02-.01-.07c-.01-.05-.01-.09 0-.12s.02-.06.01-.08c0-.01.01-.03.01-.03l.01.02c0 .02.02-.02.06-.11l.05-.13.06-.03c.06-.03.09-.05.06-.04 0 .01-.01 0-.01 0zm-.24.27c-.01.003-.03.012-.03.02s.01 0 .01-.006l.02-.01c.01 0 .01 0 0 .01-.01 0-.03.02-.05.03-.03.01-.03.01-.03 0 .01-.01 0-.01-.01 0s-.01.02-.01.02c.01 0 .01.01 0 .01-.01.02-.01.025-.01.007.01-.03-.01 0-.03.04-.01.03-.01.04-.02.03 0-.02.03-.08.06-.11s.11-.07.13-.07c.01 0 0 .01-.01.02zm-.05.03c0 .005 0 .005.01 0 .01-.01.01-.013.01-.013l-.01.01zm8.96 8.18c0 .005.01.01.01.01.01 0 .01 0 0-.01 0-.01-.01-.01-.01 0zm-.05-.034c.01.01.01.015.02.02.01 0 .01-.005 0-.01l-.01-.01zm-.05-.04c0 .005.01.01.01.013.01 0 .01 0 0-.01l-.01-.01zm-.04-.03c0 .003 0 .01.01.012.01 0 .01 0 0-.01s-.01-.01-.01-.007zm-.06-.045l.01.01s.01 0 0-.01l-.01-.01zm-.04-.03l.02.02c.01 0 0 0-.01-.02l-.01-.01zm-.05-.04s.01.01.02.01.01 0 0-.01l-.01-.01zm-.05-.04c.01 0 .01.01.02.01s0-.01-.01-.01c-.01-.01-.02-.01-.01-.01zm-.05-.04s0 .01.01.01v-.01l-.01-.01zm-.04-.03l.01.01-.01-.01c-.01-.01-.02-.01-.01-.01zm-.05-.04l.01.01-.01-.01c-.01-.01-.02-.01-.01 0zm-.06-.04l.01.01-.01-.01c-.01-.01-.01-.01-.01 0zm-.05-.04l.01.01-.01-.01c-.01-.01-.01-.01-.01 0zm-.05-.04c0 .01.01.01.02.02l-.01-.01s-.02-.02-.02-.01zm-.05-.04c0 .01.01.01.01.02l-.01-.01-.01-.01zm-.06-.04c0 .01.01.02.02.02l-.01-.01-.01-.01zm-3.15-3.05c0 .01 0 .01.01 0 .01 0 .01-.01 0-.01s-.01.01-.01.01zm3.09 3.02l.02.02c.01 0 .01 0-.01-.01l-.01-.01zm-.05-.04c0 .01.01.02.02.02l-.01-.01-.01-.01zm-.05-.04c0 .01.01.02.02.02l-.01-.01-.01-.01zm-.05-.03c0 .01.01.02.02.02 0 .01 0 0-.01-.01s-.01-.01-.01 0zm-2.97-2.86c0 .01 0 .01.01 0s.01-.01 0-.01c0 0-.01.01-.01.02zm2.71 2.67c-.08-.05-.14-.1-.14-.09.01.01.32.24.33.24l-.02-.02-.17-.13zm-.22-.15c-.02-.02-.03-.02-.01-.01.01.01.03.03.05.04.04.03.01 0-.03-.03zm-.07-.05l.02.02c.01 0 .01 0 0-.01l-.01-.01zm-.05-.04l.02.02-.01-.01-.01-.01zm-.05-.04l.02.02c.01 0 .01 0 0-.01s-.02-.02-.02-.01zm-.05-.04c.01.01.02.02.02.03.01.01.01 0-.01-.01-.01-.01-.02-.01-.01-.01zM20.3 14c.003.01.01.02.02.02.007.01.005 0-.005-.01s-.02-.01-.02-.01zm-.05-.03l.02.02c.01 0 .006 0-.005-.01-.01-.01-.02-.02-.02-.01zm-.05-.04s.01.01.016.01c.01.01.01 0 0-.01s-.012-.01-.01 0zm-.05-.04l.02.02c.005 0 .003 0-.007-.01s-.015-.02-.013-.01zm-.05-.04l.02.02-.01-.01c-.01-.01-.016-.02-.013-.01zM18 11.83c-.01.01-.04.02-.118.05l-.104.03-.14-.03-.16-.04c-.02-.01-.02 0-.044.04-.02.02-.03.05-.04.06-.01.01 0-.01.02-.05.01-.03.03-.06.02-.07-.01 0-.01-.01-.04.06-.04.06-.08.1-.11.12-.01.01-.01 0 .02-.02.02-.02.04-.04.066-.09.02-.03.03-.06.03-.06 0-.002-.06-.024-.127-.05-.07-.023-.19-.07-.26-.102-.11-.05-.14-.055-.14-.044-.05.12-.12.21-.18.23-.02.01-.04.02-.046.03-.004.01-.022.01-.04 0-.043-.01-.044-.02 0-.02.09.01.18-.08.245-.23.01-.02.012-.04.01-.05-.015-.01-.025 0-.038.03-.05.13-.172.26-.22.24-.01 0-.01 0 .01-.01.05-.016.11-.07.14-.123.057-.1.07-.14.057-.14-.07-.03-.45-.26-.6-.37-.05-.03-.06-.04-.07-.03-.07.17-.13.28-.18.31-.05.03-.04.02 0-.02.05-.04.1-.12.14-.21.04-.08.04-.09 0-.11-.03-.02-.12-.09-.31-.24-.05-.04-.09-.07-.1-.06-.01 0-.01 0-.01-.01.02-.01-.02-.04-.03-.03-.01.01-.01.01 0 0s.01-.02 0-.02c-.01-.01-.17-.15-.37-.34-.09-.08-.2-.19-.25-.23l-.15-.15c-.04-.04-.14-.16-.24-.26l-.28-.31c-.06-.06-.12-.14-.14-.16l-.07-.09-.07-.09c-.02-.03-.06-.07-.09-.11s-.05-.06-.05-.07c-.01-.01-.01-.02-.02-.02s-.04-.05-.08-.09c-.11-.15-.1-.14-.15-.12-.1.03-.18.07-.23.12-.06.06-.08.05-.02-.01.05-.05.14-.092.23-.124.06-.02.06-.02.05-.03 0-.01-.01-.02-.01-.02l-.08.03c-.1.04-.18.087-.22.13-.03.03-.03.038-.01.06.01.02.01.03 0 .02-.003 0 0 0 .01.01.03.02.05.06.03.06-.01 0 0 .01.018.02.02.017.02.02.01.02s-.01.01 0 .017.01.01.01.016c-.005 0 0 .01.01.02s.015.01.01.02c0 0 0 .01.01.012s.02.01.02.02c0 0 .003.01.02.02l.01.01c-.01.004-.01.01.01.02.01.007.01.016.01.02-.01 0 0 .01.01.017.01.01.02.02.01.02 0 .01 0 .01.01.02l.02.02c-.01.004 0 .01.01.02s.02.014.01.02c0 .005.01.024.03.04.02.02.03.03.02.04 0 0 0 .01.02.02.02.02.02.02.01.02s-.01.01.01.02.04.03.05.05c.01.024.01.03 0 .02-.01-.01 0 .004.01.032.02.03.04.05.04.05.008 0 0-.004 0-.01-.01-.01-.01-.013-.01-.02h.02c0 .007.01 0 .02 0 .01-.01.105-.05.105-.04l-.056.03c-.07.04-.07.04-.05.05.01.01.03 0 .08-.02.034-.02.07-.03.074-.03.02 0 0 .01-.06.04-.04.01-.07.03-.07.04-.01.01-.02.01-.03-.01-.02-.01-.02-.02-.01-.01.02.04.37.44.41.48.02.03.04.04.03.04-.02 0 .06.12.09.15.01.01.02.02.02.04s.046.07.26.27c.23.23.26.25.36.32l.255.19.6.45.16.09c.09.05.14.07.13.06 0-.01 0-.005.01.01s.02.02.02.016c0-.006.01 0 .03.013.01.01.02.02.03.015 0 0 .01 0 .01.005 0 .01.13.08.13.07 0-.01 0-.008.01 0 .02.04.4.2.58.24l.07.02c.03.02.16.05.21.05.03 0 .04 0 .02.01s-.03.01-.02.02c.01.01.02.01.03 0 .03-.01.04-.01.03.01 0 .01 0 .01.01 0s.01-.01.01-.02c0 0 0-.01.01-.02s.02-.01.02 0h.03c.05-.02.2-.03.21-.02.016.02.05.01.045 0 0-.02 0-.02.05-.04.02-.01.07-.03.11-.047.06-.03.09-.04.13-.09.06-.05.09-.09.08-.097 0 0-.01.007-.01.017zm-.79.25c-.024-.01-.17-.05-.194-.06-.012 0 .08.01.13.03.03.01.065.02.076.03l.02.01h-.03zm-1.03-.83c-.04.1-.085.18-.144.24-.06.07-.07.07-.1.04l-.02-.02.03.01c.027.01.04 0 .06-.01.04-.03.11-.13.15-.23.04-.08.06-.11.03-.03zm-.577-.37c-.01.01-.01.01-.01 0 .005 0 .01-.01.02-.01s.01.01-.004.01zm-.16.07c-.03.02-.13.04-.17.04-.02 0-.04 0-.04.01 0 0-.02 0-.032-.01-.04-.02-.04-.02-.04-.03l.04.02c.02.01.05.016.12.007l.11-.02c.03-.01.04-.01.01.005zm-.04-.04c-.043.02-.114.03-.17.03-.07 0-.07-.01 0-.01.05 0 .08-.01.19-.03.02 0 .01 0-.01.01zm.407.53c-.01-.01-.02-.01-.02-.02l.01.01s.01.01 0 .01zm-.04-.02c-.01-.01-.02-.01-.02-.02s0 0 .01 0l.01.01zm-1.15-1.11l-.08.02c-.06.01-.06.01-.09-.01s-.03-.04-.004-.04c.01 0 .04 0 .07-.01.03 0 .05-.01.05 0s-.07.03-.1.03-.03 0-.02.01c.02.02.04.02.08.01.03-.01.05-.01.056-.02h.03c.01 0 .01 0 0 .01zm1.05 1.04c-.01 0-.01-.01-.02-.01l.01.01s.01.016.01.01zm-.22-.16c-.01 0-.02-.01-.02-.01l.01.01.01.01zm-1.12-1.03l-.01-.01s.005 0 .01.01c.01.01.015.01.01.01zm5.66 3.62c0 .01.01.01.02.02.01 0 .01 0 0-.01s-.01-.01-.01 0zm-.05-.03c.01 0 .01.01.02.01s.01 0 0-.01-.01-.01-.01 0zm-.05-.04s.01.01.02.01.01 0 0-.01-.01-.01-.01 0zm-.04-.04c.01.01.01.02.02.02.01.01.01 0 0-.01s-.01-.01-.01 0zm-.04-.03c0 .01 0 .01.01.02s.005 0 0-.01l-.01-.01zm-.05-.03c0 .01.01.01.013.02.01 0 .004 0 0-.01-.01-.01-.017-.01-.01-.01zm-.05-.04c0 .01.01.01.012.02.002 0 0 0-.01-.01-.003-.01-.01-.01-.01-.01zm-.058-.04s0 .01.01.01.004 0 0-.01-.01-.01-.01 0zm-.05-.04c0 .01 0 .01.01.01.01.01.01 0 0 0l-.01-.01zm-.057-.04c0 .01.01.01.014.02v-.01c-.01-.01-.02-.01-.02-.01zm-.05-.03s.006.01.01.01c.01 0 .01 0 0-.01-.004-.01-.01-.01-.01-.01zm-.05-.04c.005.01.01.01.02.02.005 0 0 0-.006-.01-.01-.01-.02-.01-.02 0zm-.05-.04s.004.01.01.01c.01.01.01 0 0-.01-.006-.01-.01-.01-.01 0zm-.05-.03c0 .01.01.01.016.02.01.008.01 0 0-.01s-.02-.01-.01 0zm-.05-.04c0 .01.01.02.015.02.01 0 .01 0 0-.01s-.01-.01-.01 0zm-.046-.03c0 .01.01.02.01.02l-.01-.01-.01-.01zm-.06-.04c0 .01 0 .01.01.02.01 0 .01 0 0-.01s-.01-.01-.01-.005zm-.05-.03c0 .01.01.02.01.02.01.01.01 0 0-.01s-.02-.01-.01 0zm-.06-.04c0 .01.01.02.02.02l-.01-.01-.02-.01zm-.06-.03c-.01.01 0 .01.01 0s.01-.01 0-.01-.01.01-.01.01zm-.04-.03c0 .01 0 .01.01.01s.01 0 0-.01-.02-.01-.02 0zm-.05-.04s0 .01.01.01c.01.007.01 0 0-.01s-.01-.01-.01 0zm-.05-.04c0 .008 0 .01.01.01.01.008.01 0 0-.002s-.01-.01-.01 0zm-.05-.04c0 .01 0 .01.01.018s.01 0 0-.01c-.01 0-.01-.01-.01 0zm-.06-.04c0 .01.01.01.01.02.01 0 .01 0 0-.01 0-.01-.01-.01-.01-.006zm-.05-.03l.01.01c.01 0 .01 0 0-.01 0-.01-.01-.01-.01-.01zm-.05-.04c0 .003 0 .01.01.01s.01 0 0-.01-.01-.01-.01-.004zm-.05-.04s0 .01.01.01.01 0 0-.01c-.01-.007-.01-.01-.01-.005zm-.05-.04s0 .01.01.01c.01.003.01 0 0-.007l-.01-.01zm-.05-.04c0 .004 0 .01.01.013.01 0 .01 0 0-.01l-.01-.01zm-.05-.04c0 .007 0 .01.01.015v-.004c-.01 0-.01-.01-.01 0zm-.05-.035c0 .01 0 .01.01.016-.01-.01-.01-.01-.01 0zm-.06-.034c0 .01.01.01.02.02.01 0 .01 0 0-.01s-.01-.01-.01 0zm-.1-.07c0 .01.01.01.01.02.01.01.01 0 0 0s-.01-.01-.01-.01zm-.1-.07l.01.01c.01 0 .01 0 0-.01s-.01-.01-.01 0zm-.43-.39h.02c.01 0 .01-.01 0-.01s-.02.01-.02.01zm.33.31s0 .01.01.01v-.01c-.01-.01-.02-.01-.02 0zm-.05-.03c0 .01.01.01.02.01s.01 0 0-.01-.01-.01-.01 0zm-.05-.04c0 .01.01.01.01.01.01.01.01 0 0 0s-.01-.01-.01 0zm-.05-.04c0 .01.01.01.01.02.01.01.01 0 0 0l-.01-.01zm-.05-.03c0 .01 0 .01.01.02.01 0 .01 0 0-.01l-.01-.01zm-.17-.15c-.02.01-.02.01 0 .03.03.03.05.01.02-.03h-.02zm.06.08c0 .01.01.01.02.02s.01 0 0 0c-.01-.01-.01-.01-.01 0zm-.2-.04c-.08.01-.16.02-.18.02-.01 0-.01 0 0 .01.01.02.03.02.12 0l.11-.02c.01-.01-.02-.01-.06 0zm-4.27-4.07c-.09.03-.15.07-.19.13l-.03.05c-.01.03 0 .07.01.08.01.01.01.01-.01 0s-.02-.01-.01 0 .03.04.04.07c.04.06.05.07.02.01-.02-.05-.03-.07 0-.03.06.11.13.27.12.26-.01 0 0 .01.01.01.01.01.02.02.01.02s-.01.01 0 .02.01.01 0 .01-.01 0 0 0c.01.01.03.05.02.05-.01.01-.01.01 0 .01.02.01.04.05.03.05-.01 0-.01.01 0 .01s.02.01.03.02c.01.02.01.03 0 .02-.01 0 0 .01.01.02.03.02.03.02.05 0 .03-.04.14-.1.22-.13.05-.01.08-.03.08-.03s-.03-.06-.08-.13c-.08-.13-.09-.14-.19-.34l-.08-.14c-.01 0-.05.02-.09.03-.06.03-.08.04-.12.08-.04.04-.05.06-.06.08 0 .02-.01.03-.02.03V8.3c.02-.05.11-.14.19-.17.09-.04.09-.04.09-.05-.01-.003-.04 0-.07.02zm3.61 4.52c-.04.03-.05.04-.04.05 0 0 .02 0 .05-.04.04-.04.05-.06.04-.06l-.05.04zM12.26 8l-.725-.576-.52-.41c-.18-.137-.36-.28-.4-.312l-.31-.245-.46-.362-1.56-1.24c-.11-.084-.21-.166-.23-.182-.06-.044-.27-.22-.77-.61l-.5-.39-1.22-.962-.36-.28-.4-.32-.4-.31c-.11-.09-.47-.38-.57-.45L3.5 1.1 3.04.73 2.53.32C2.513.3 2.483.28 2.47.27L2.44.247 2.203.58l-.353.5c-.45.64-.542.772-.55.79-.005.01-.053.08-.107.155-.17.233-.4.556-.416.584l-.065.09c-.13.18-.453.64-.472.67-.014.02-.017.04-.01.05l1.185.88 1.513 1.12.417.31c.083.06.75.55 1.18.87.795.59.947.7.954.7l.06.04s.12.1.21.16l.36.27c.11.08.23.17.26.19l.16.12.15.11.2.15.19.15.04.03.1.07.13.1.12.08.17.12c.05.03.11.08.14.11.02.02.07.06.1.08.12.08.13.09.13.1 0 .01 0 .02.01.03.01 0 .32.23.7.51l.72.53c.02.02.05.04.06.05.01.01.03.02.04.02.01 0 .01 0-.01-.02l-.02-.02c0-.01.02 0 .04.01.01.01.03.02.04.02 0-.01.01 0 .01.01h.01c.01-.01.32-.27.75-.63.13-.12.23-.19.22-.18 0 .01 0 0 .02-.02.02-.03.04-.04.1-.07.09-.03.13-.06.12-.07 0-.01.14-.13.22-.19.05-.03.05-.04.08-.09.01-.03.04-.07.06-.08.04-.04 1.05-.86 1.14-.92.02-.02.03-.01-.14-.15zm-1.59 1.52c-.004.003-.01.004-.017.003-.01 0-.01 0-.01-.01h.014c.007 0 .01.01.005.01zm-1.176.77c-.003 0-.02-.01-.035-.026-.03-.02-.03-.025-.01-.02.02.01.05.04.04.044zm4.236-.818c.003.006.01.013.016.016.008.004.005 0-.003-.01-.01-.01-.02-.01-.02-.005zM12.4 8.247c-.004.006 0 .006.007 0 .007-.007.01-.01.005-.01-.003 0-.01.003-.012.01zm4.317 4.427c-.08.07-.096.09-.067.084.015-.004.16-.146.153-.152-.003-.002-.04.028-.087.068zm-9.61-8.76c.004.005.01.012.017.015.006 0 .004 0-.005-.01-.01-.01-.02-.01-.01-.01zm-.063-.05c.002.005.01.012.016.015.005 0 .003-.01-.006-.01-.01-.01-.014-.01-.01-.01zm-.064-.05c0 .005.01.013.018.018.007.004.005 0-.005-.01-.01-.012-.017-.015-.014-.01zm-.062-.05c0 .006.006.01.012.014.007.003.007 0 0-.008-.006-.006-.012-.01-.012-.005zM6.844 3.7c.002.006.01.014.02.02.007.004.005 0-.006-.012-.01-.01-.017-.014-.014-.008zm-.152-.124c-.01 0 .06.06.084.074.014.008.003-.004-.027-.03-.03-.024-.06-.043-.06-.044zm-.25-.202c-.278-.222-.418-.33-.39-.297.014.015.162.133.33.263.166.13.295.228.284.217-.01-.01-.11-.093-.223-.183zM5.75 2.82l-.254-.204c-.065-.053-.122-.097-.124-.097-.022 0 .022.04.216.19l.326.25c.104.08.104.08.038.02-.037-.04-.128-.11-.202-.17zm-.626-.5c-.128-.1-.25-.197-.49-.392-.213-.172-.617-.496-.843-.675L3.37.917C3.25.82 3.14.73 3.12.717L2.637.33c-.16-.127-.16-.127-.174-.113-.015.015-.008.023.075.085l.358.282c.166.13.347.274.4.317l.164.13.164.13.273.22.336.27.27.22c.244.2.704.56.73.58.015.01.03.02.03.01.003-.01.004-.01-.14-.12zm-.63-.543C4.434 1.73 4.39 1.7 4.4 1.71c.015.017.22.18.24.193.033.02-.052-.053-.147-.126zm-.206-.163c-.03-.02-.033-.022-.015-.005l.063.05c.035.02.036.02.014 0-.014-.02-.042-.04-.062-.05zm-.093-.07c.006.01.02.023.03.03.008.005.003-.002-.013-.018-.016-.015-.023-.02-.017-.01zm-.067-.053c.004.01.016.02.025.03.01.01.006 0-.008-.01s-.022-.02-.017-.01zm-.07-.05c.004.01.015.02.025.03.01.01.006 0-.01-.01-.013-.01-.02-.02-.016-.01zm-.065-.05c.005.01.015.02.023.02.007.01.004 0-.01-.01-.01-.01-.017-.01-.013-.01zm-.08-.06c.003.01.01.02.02.02.007.01.005 0-.006-.01-.01-.01-.017-.01-.014 0zm-.058-.04c.003.01.01.02.016.02.01.01.01 0 0-.01s-.01-.01-.01 0zm-.07-.05c.002.01.01.01.016.02.01.01.01 0 0-.01s-.01-.01-.01 0zm-.064-.05l.02.02c.01.01.01 0 0-.01s-.01-.01-.01 0zm-.07-.06c.01.01.01.02.02.02s.01 0 0-.01-.01-.01-.01 0zm-.06-.05c.01.01.01.02.02.02s.01 0 0-.01-.01-.01-.01 0zM3.52 1c0 .005.005.01.012.014.006.003.006 0 0-.008C3.52 1 3.52.996 3.52 1zM3.45.95c.003.006.01.014.02.02.008.003.006 0-.005-.012-.01-.01-.02-.014-.02-.008zM3.38.894c0 .005.005.01.012.013.007.003.007 0 0-.008S3.378.89 3.378.89zm-.064-.05c0 .004.005.01.012.013.007.003.007 0 0-.008S3.314.84 3.314.84zM3.246.79c.003.007.01.014.016.017.006.002.004-.003-.005-.01-.008-.01-.013-.012-.01-.006zM3.182.74c.003.007.01.014.016.016.006.003.004-.002-.005-.01-.01-.01-.014-.01-.01-.005zM3.11.68c0 .005.004.01.01.013.008.003.008 0 0-.007C3.115.68 3.11.676 3.11.68zM3.04.63c.004.006.01.013.017.015.006.003.004-.002-.005-.01-.01-.01-.014-.01-.01-.005zM2.977.58c.002.006.01.013.016.015.006.003.004-.002-.005-.01-.01-.01-.014-.012-.01-.005zM2.91.524c0 .004.005.01.012.012.007.003.007 0 0-.007C2.915.52 2.91.52 2.91.52zM2.842.47c.003.007.01.014.016.017.006.002.004-.003-.005-.012-.008-.008-.014-.01-.01-.004zM2.778.42c.003.007.01.014.016.016.006.003.004-.002-.005-.01-.01-.01-.02-.01-.02-.005zm-.07-.056c.002.006.01.013.015.016.007.002.004-.003-.004-.01C2.71.36 2.7.358 2.7.364zm-.065-.05c.003.006.01.013.016.016 0 .002 0-.003-.01-.01-.01-.01-.01-.012-.01-.006zm-.07-.057c.002.006.01.013.016.016 0 .003 0-.002-.01-.01-.01-.01-.02-.013-.01-.006zM2.503.2c.002.007.01.014.015.017.006.002.004-.003-.005-.01C2.505.197 2.5.194 2.503.2zm-.09-.06s-.434.617-.96 1.372C.16 3.372.128 3.418.128 3.427c0 .004.09.074.198.155l1.762 1.31L4.25 6.5l.984.73.237.176.62.456.7.515.43.317.59.44c.17.12.53.387.8.59l.76.562.26.194.03-.016c.01-.01.06-.042.09-.073.12-.09.23-.18.28-.21.06-.04.23-.19.22-.2 0 0-.03.02-.06.05-.24.21-.45.38-.47.4-.02.02-.03.02-.06 0-.02-.01-.3-.22-1.36-1-.19-.14-.22-.16-.21-.18 0-.01-.02-.03-.06-.05-.02 0-.07-.04-.13-.08l-.14-.1-.26-.19-.36-.27-.36-.27c-.12-.09-.26-.19-.32-.23l-.26-.19-.21-.16c-.17-.11-.38-.28-.41-.31-.02-.02-.04-.04-.06-.04-.01 0-.15-.1-.3-.21l-1.04-.78-2.98-2.2c-.7-.51-.9-.66-.94-.69-.04-.04-.05-.05-.04-.06.01-.01.01-.02.01-.03 0-.03 0-.03.21-.33l.24-.33.23-.32.07-.1c.06-.09.13-.17.15-.18.03-.01.18-.23.19-.27.01-.02.03-.06.07-.12.04-.05.1-.13.13-.18l.12-.17.12-.16L2 .9l.1-.17.12-.17.12-.17c.03-.042.08-.11.11-.142l.04-.06L2.45.16C2.43.145 2.42.14 2.416.14zm8.408 9.37c-.04.014-.03.02.01.023.03 0 .06.018.07.046.01.01 0 .02-.02.04-.04.04-.1.12-.1.13.01 0-.03.05-.11.12-.13.13-.12.14.02.01.08-.07.11-.1.11-.12.01-.02.01-.03.03-.03.02 0 .05-.03.12-.1.06-.05.09-.1.09-.1l-.06.06c-.06.06-.09.08-.1.05 0-.02.08-.09.13-.13l.03-.02-.04-.04-.04-.04-.04.03c-.02.02-.05.04-.07.04zm.1.117c-.02.025-.02.025.01 0 .02-.015.05-.037.06-.05.02-.02.02-.02-.01 0-.02.014-.04.036-.06.05zm-.4.403c-.03.03-.01.027.03-.003.02-.015.03-.023.02-.02-.01 0-.02.012-.03.023zm-.07.07c-.02.02-.02.024 0 .04.03.02.03.02.02-.002-.01-.014 0-.026.01-.04.02-.027.01-.027-.01 0zm-.18.204c-.08.084-.18.205-.23.292-.01.02-.05.063-.08.097-.08.09-.27.338-.27.355.01.017-.02.047-.04.048-.01 0-.01.003-.01.01v.023s-.01.02-.01.04v.03l.02-.02c.01-.01.04-.05.07-.08.03-.04.08-.1.11-.14.03-.04.06-.08.05-.08l-.02.02s-.01.02-.01.01.02-.03.04-.06c.09-.09.16-.18.24-.28.04-.06.12-.15.18-.21.13-.14.14-.15.12-.17l-.01-.02-.09.09zm-.48.65c0 .003-.01.004-.01.003 0 0 0-.005.01-.01.02-.005.03-.003.02.006zm4.9 3.525v.01s-.01.03-.04.06l-.04.05h-.04c-.04-.01-.05.01-.01.02.03.01.04 0 .07-.02.02-.02.05-.04.07-.05.02-.01.03-.03.03-.04.01-.03-.01-.05-.02-.04zm-.03.12h.02c.01-.01.01-.01 0-.01h-.02zm-.17.06c-.02.01-.04.03-.05.04-.02.02-.02.02 0 .01.01-.01.03-.02.05-.04.02-.02.04-.03.07-.03h.05l-.03-.01c-.03-.01-.04-.01-.07.01zm-.05-.06c-.03 0-.04.01-.12.1-.07.08-.08.09-.08.11 0 .01.01.02.02.01.01 0 .05-.04.1-.08s.11-.1.13-.12l.05-.04h-.03c-.01-.01-.04 0-.06 0zm-.14.26s0 .03.01.05c.02.04.03.05.03.02 0-.02 0-.03-.01-.04-.01-.01-.01-.02-.01-.04v-.03l-.01.01zm-.05-.01c-.01 0-.02 0-.02-.02-.01-.03-.01-.02-.01.06v.08l-.05.04c-.06.05-.05.05.05.01.09-.04.12-.07.1-.11-.03-.05-.04-.07-.06-.05 0 0-.01.01-.02 0s.02-.03.04-.03c.01 0 .02-.01.02-.01 0-.01-.01-.01-.02 0zm.04.1h-.01v-.02l.01-.01v.01zm-4.65-4.57c0 .01.03.02.04.01.01-.01 0-.01-.01-.01s-.02-.01-.02 0zM14.28 15c-.02.024-.044.036-.12.067-.07.03-.095.036-.104.027-.006-.006-.014-.008-.017-.005l-.02.01c-.01 0-.01.01 0 .02s0 .04-.03.04c-.03-.01-.03-.01-.02-.02.02-.02-.02 0-.1.05-.14.08-.14.08-.15.08-.01 0-.05-.03-.1-.05-.07-.04-.09-.05-.11-.04-.02 0-.03.01-.03.01 0 .01.14.08.16.07 0 0 .01 0 .02.01.02.02.13-.01.2-.05.01-.01.02-.01.02-.01l.03-.02c.02-.02.02-.03.03-.02.01.02.02.01.09-.04.03-.02.07-.04.08-.05.04-.01.18-.14.16-.15l-.03.03zM.917 2.375c-.004.006 0 .006.007 0 .007-.01.01-.013.005-.013s-.01.01-.02.016zm-.043.055c-.02.03-.01.03.01 0 .01-.018.016-.03.013-.03-.004 0-.013.01-.022.024zm-.09.122c-.015.02-.025.037-.02.037.002 0 .017-.02.033-.04.015-.02.025-.04.022-.04-.01 0-.02.01-.04.03zm8.774 8.62c-.01.01-.01.03 0 .03s.02-.027.012-.033c-.002-.01-.01 0-.014 0zm-.01.05c-.005.002-.01.022-.007.045 0 .023 0 .047-.01.054-.01.02 0 .04.02.07.01.02.02.05.02.07.01.03.01.05.02.05s.01-.01.01-.02-.01-.02-.01-.02 0-.03-.02-.06c-.01-.03-.02-.07-.01-.08.01-.03.02-.08.02-.09h-.01zM.6 2.82c-.316.444-.37.523-.37.53 0 .02.003.013.258-.35l.188-.27c.05-.07.084-.124.08-.12-.007.002-.077.097-.157.21zm8.915 8.444c0 .02 0 .037.004.037s0-.06-.01-.07l-.01.04zm3.94 3.924c-.028.026-.042.043-.038.048.004.003.022-.01.045-.03.03-.03.042-.038.056-.034.016.003.016.002 0-.01-.017-.013-.02-.012-.063.026zm-3.952-3.855c-.002 0-.002.01 0 .022.002.018.002.018.004 0 .003-.02 0-.027-.004-.022zm.013.063c0 .003.01.028.02.056l.018.05-.004-.04c-.002-.022-.01-.047-.02-.056-.007-.008-.014-.013-.014-.01zm.052.122c-.012-.01-.012-.005 0 .032.012.038.017.047.03.045.01-.002.01 0 0 .004s-.01.02.004.06c.01.03.02.05.023.04.002-.01-.002-.03-.01-.05s-.012-.04-.01-.05c.005-.01.014.01.02.03.017.04.027.05.032.01 0-.02 0-.03-.006-.03v-.05c0-.01-.01-.02-.01-.04-.01-.03-.01-.03-.02-.03s-.02-.01-.03-.01zm.033.045v-.016c0-.002.01 0 .01.003.01.004 0 .01 0 .013zm3.67 3.673c-.26-.044-.33-.063-.46-.11-.07-.03-.16-.062-.2-.075l-.09-.03c-.06-.02 0 .01.08.05.13.06.32.12.45.15.12.03.12.03.1.04 0 0-.01.01 0 .01h.02s.01 0 .02.01l.02.01s.01 0 0 0-.01 0 0-.01c.01 0 .02 0 .02.01.01.01.01.01.02.01.02 0 .04-.01.05 0 .01 0 0 .01 0 .01v.01h.13l-.11-.02zm-2.52-1.676v.025c0 .016.02.035.09.1.07.057.09.083.09.096 0 .02.01.02.01.01.02-.01 0-.04-.08-.14l-.08-.09h-.01zm.34.395c0 .003 0 .01.01.02.02.018.05.036.05.026.01-.01-.04-.05-.04-.04zm-.17-.148l.01.016c.01.007.01.01.01.003 0-.01-.01-.024-.01-.02zm.25.255l.06.06c.02.014.01 0-.02-.033-.03-.04-.05-.05-.03-.03zm-.23-.216s.04.043.1.096c.07.068.09.085.07.057-.03-.04-.15-.16-.16-.16zm-.61-.608c0 .005.01.01.02.013.01.01.01 0 0 0 0 0-.01-.01-.01 0zm1.27 1.25c0 .004.01.01.01.012.01.003.01 0 0-.007s-.01-.01-.01-.005zm-.06-.05c0 .004.01.01.01.012.01.003.01 0 0-.007 0-.007-.01-.01-.01-.005zm-.85-.813c0 .007 0 .007.01 0 .01-.006.01-.01.01-.01s-.01.004-.01.01zm-.26-.28c0 .004.01.01.01.013.01.003.01 0 0-.008 0-.007-.01-.01-.01-.005zm.04.05c0 .005.01.01.01.013.01.003.01 0 0-.008 0-.007-.01-.01-.01-.005zm.06.073c0 .006.01.013.02.016.01.002.01-.003 0-.01-.01-.01-.01-.012-.01-.006zm.07.075c0 .006.01.015.02.02l-.01-.012c-.01-.01-.01-.01-.01 0zm9.87-5.427c-.01.014-.03.003-.03-.02 0-.02.01-.02.03-.004.01.007.01.016 0 .024z"/><path fill="#fff" d="M1295.62 793.244c-2.916-7.986-5.22-17.054-5.12-20.152.2-6.357 7.178-19.365 11.675-21.772 2.442-1.307 3.168-.784 4.09 2.944.617 2.493 4.057 11.834 7.644 20.758 3.58 8.924 6.52 16.837 6.52 17.585 0 .747-1.78 2.17-3.95 3.158-2.17.99-6.56 4.093-9.76 6.9l-5.81 5.1-5.3-14.52zm40.52 83.856c-.952-2.048-3.302-6.713-5.223-10.366-6.41-12.19-17.127-35.996-17.127-38.042 0-3.527 15.548-16.037 17.382-13.985.27.302 2.8 5.158 5.624 10.79 2.823 5.632 9.263 17.395 14.31 26.14 5.05 8.744 9.177 16.466 9.174 17.158-.01 1.115-19.707 12.074-21.647 12.04-.42-.006-1.543-1.687-2.494-3.735zm-39.012-152.88c1.48-9.358 3.34-11.3 3.406-3.552.034 4.073.426 5.87 1.063 4.865.643-1.015 1.28-1.155 1.755-.386.55.89-5.11 4.914-6.915 4.914-.128 0 .184-2.62.69-5.84z"/><path fill="none" d="M925.982 1055.466c-2.26-1.103-6.128-3.965-8.594-6.36-2.467-2.396-5.902-4.706-7.633-5.134-4.43-1.095-145.386-107.454-148.524-112.07-1.41-2.08-7.45-7.263-13.42-11.518-22.27-15.88-252.21-189.282-263.91-199.026-3.23-2.69-9.83-7.775-14.67-11.303-4.84-3.527-45.79-34.377-91-68.555-45.21-34.18-147.72-111.552-227.8-171.942-80.08-60.39-166.21-125.403-191.39-144.474-25.18-19.07-48.55-36.74-51.92-39.266l-6.13-4.59 11.34-16.588c20.9-30.562 47.52-69.13 72.85-105.533L10.29 123h356.89l60.71 49.067c33.39 26.986 84.75 68.438 114.13 92.117 29.38 23.678 84.39 68.043 122.23 98.59 69.667 56.23 104.033 83.94 240.59 193.993 41.656 33.57 92.38 74.564 112.724 91.098 20.343 16.533 69.484 56.155 109.2 88.048s77.7 62.48 84.404 67.973l12.19 9.985-2.87 2.43c-1.58 1.33-26.59 21.97-55.57 45.87-60.603 49.97-65.056 53.91-69.505 61.61-3.526 6.1-16.592 16.73-20.833 16.95-1.32.07-2.42.92-2.44 1.89-.054 2.64-11.506 13.64-17.25 16.58-3.42 1.75-6.86 2.5-10.77 2.37-7.65-.27-11.28 2.11-11.28 7.4 0 3.67-1.27 5.03-16.734 17.98-9.2 7.71-31.72 26.78-50.036 42.39-18.32 15.61-33.907 28.33-34.64 28.28-.733-.05-3.183-1-5.443-2.1zm875.365 170.756c-14.595-3.717-46.77-15.972-69.107-26.322-25.485-11.81-95.837-59.21-130.507-87.935-13.646-11.305-60.204-54.21-79.312-73.09-13.43-13.27-52.22-56.656-73.5-82.193-8.56-10.274-46.1-59.775-58.77-77.498-11.92-16.665-45.26-78.92-53.76-100.393-12.33-31.13-17.87-51.77-16.77-62.51.32-3.07 3.32-12.75 6.67-21.5l6.09-15.91 17.27-10.01c163.69-94.94 161.91-93.94 166.28-93.12 3.43.65 5.68 0 12.71-3.63 4.7-2.43 56.97-33.4 116.16-68.83l107.62-64.41 8.31 1.18c4.57.65 13.92 2.5 20.77 4.12s14.87 2.95 17.81 2.95c4.75 0 5.86-.53 9.7-4.69 3.77-4.08 5-4.69 9.4-4.69 4.45 0 5.79-.69 11.16-5.77 4.22-3.99 7.99-6.33 12.2-7.58 3.35-.99 8.19-2.99 10.77-4.44l4.68-2.63 9.66 3.15c15.68 5.11 43.26 21.5 70.72 42.03 19.33 14.45 79.37 72.44 120.2 116.11 18.15 19.41 29 33.02 49.66 62.29 17.29 24.49 17.12 24.16 20.26 38.04l2.88 12.77-2.28 6.1c-1.31 3.5-5.59 10.06-10.06 15.4-4.28 5.11-8.82 11.61-10.09 14.44l-2.31 5.14 3.28 9.87 3.28 9.87-5.67 4.99-5.67 4.99 3.17 13.25c2.74 11.46 2.98 13.83 1.76 17.58-4.18 12.89-25.44 49.8-34.6 60.07-10.45 11.71-21.95 30-51 81.06-7.9 13.89-24.27 40.31-36.38 58.71-23.27 35.37-26.23 40.39-27.62 46.97-.48 2.26-1.93 6.22-3.23 8.81-4.67 9.28-32.69 53.36-38.73 60.93-4.04 5.07-8.59 13.14-13.21 23.43-6.4 14.26-9.56 19.19-34.64 53.98l-27.59 38.29-7.81 2.4c-10.03 3.08-11.51 3-29.76-1.65z"/><path fill="none" d="M1772.58 1659.336c-77.175-52.678-161.828-110.4-188.12-128.27-26.29-17.87-47.647-33.02-47.458-33.666.19-.646 3.734-4.013 7.88-7.483 4.144-3.47 13.755-12.313 21.357-19.65 7.6-7.34 15.26-14.096 17.02-15.016 1.76-.92 8.15-6.73 14.2-12.91 9.02-9.22 10.9-11.75 10.45-14.09-.4-2.06.13-3.16 1.91-3.99 1.35-.63 5.71-4.11 9.69-7.74 4.66-4.25 8.25-6.58 10.11-6.58 3.72 0 9.07-4.21 9.07-7.13 0-1.47.81-2.26 2.33-2.26 1.28 0 5.38-2.65 9.1-5.89 3.72-3.24 9.59-8.36 13.05-11.38 3.46-3.02 6.83-6.67 7.48-8.11.65-1.44 2.33-2.9 3.72-3.25 3.85-.96 11.9-8.36 14.06-12.92 1.58-3.34 1.67-4.62.51-7.17-1.6-3.51-6.49-6.45-10.72-6.45-4.03 0-15.84 8.12-17.56 12.07-.86 1.98-3.36 4.23-6.15 5.55-2.59 1.23-9.9 7.19-16.26 13.25-8.78 8.37-11.76 11.98-12.37 15.03-.72 3.51-1.35 4.09-5.05 4.6-6.11.85-23.28 17.01-23.28 21.91 0 3.55-2.04 5.09-11.97 9.06-4.65 1.86-24.43 20.05-24.43 22.47 0 .8-1.45 1.77-3.23 2.16-1.93.43-8.87 6.13-17.32 14.24-15.21 14.6-23.92 21.24-30.12 22.98-2.16.61-5.63 2.15-7.71 3.42-4.56 2.8-16.98 18.2-25.24 31.3l-6.01 9.53-10.47.68c-6.52.42-11.54 1.38-13.29 2.53-1.55 1.02-8.24 7.97-14.87 15.45l-12.05 13.6-.59 8.31-.59 8.3-18.79 12.1c-10.33 6.66-19.38 12.12-20.11 12.14-.73.01-5.61-2.35-10.85-5.25-5.24-2.89-11.65-5.61-14.25-6.02-4.5-.72-5.01-.47-10.67 5.19l-5.95 5.94-19-3.49c-10.45-1.92-21.64-4.27-24.87-5.22-13.24-3.9-45.34-16.43-55.77-21.77-14.38-7.37-40.77-23.95-64.98-40.84l-19.15-13.36 1.24-4.65 1.24-4.64-13.48-12.87c-16.12-15.4-14.22-13.49-19.17-19.18-3.57-4.11-4.69-4.68-9.38-4.76-4.97-.1-6.05-.76-16.01-9.72-5.87-5.29-11.38-9.62-12.24-9.62-1.05 0-1.8-2.4-2.3-7.34-.59-5.87-1.35-7.87-3.76-9.98-1.66-1.46-3.91-2.68-5-2.71-1.89-.07-13.51-12.92-14.88-16.47-.84-2.15-9.21-6.95-12.13-6.95-1.24 0-3.69 1.13-5.44 2.51-2.7 2.12-3.42 2.26-4.68.88-3.53-3.86-20.43-25.42-22.44-28.63-1.22-1.94-5.72-8.54-10.01-14.68-7.5-10.73-21.41-32.32-33.1-51.38-3.36-5.47-5.58-10.49-5.59-12.61-.02-3.17-2.88-10.02-7.6-18.2-5.12-8.88-19.91-45.51-22.36-55.43-.56-2.26.13-5.05 2.41-9.71 4.2-8.6 3.5-14-4.36-33.31-7.18-17.64-7.15-20.51.33-30.47 25.73-34.3 58.54-75.08 76.78-95.46 16.22-18.12 18.16-20.63 18.19-23.6.01-1.08 11.78-13.77 26.147-28.18 14.37-14.42 33.99-34.21 43.6-44 12.16-12.38 18.5-17.99 20.85-18.46 3.63-.73 35.24-31.01 53.84-51.59 5.49-6.07 11.12-11.78 12.5-12.68 3.2-2.08 28.28-26.5 47.54-46.29 19.02-19.53 41.62-40.59 42.56-39.64.404.41.73 1.46.73 2.35 0 5.12 10.78 28.71 27.06 59.23 20.154 37.78 23.78 44.04 41.44 71.45 29.19 45.32 36.52 55.47 59.71 82.63 8.32 9.75 20.784 25.87 27.7 35.82 11.24 16.19 15.47 20.99 40.11 45.58 27.05 27 28.39 28.13 75.76 64.27 60.22 45.93 71.6 53.38 118.64 77.67 24.65 12.73 40.26 19.27 64.47 27l17.5 5.59-4 3.53c-20.88 18.42-52.03 47.35-54.6 50.73-3.75 4.92-4.08 9.28-1.06 13.9 4.29 6.54 8.61 6.4 18.357-.62 5.08-3.66 37.36-32.97 53.13-48.25 3.83-3.72 7.26-6.76 7.62-6.76.35 0 2.83-2.14 5.49-4.76 4.52-4.44 5.58-4.87 15.89-6.54 6.08-.98 12.37-1.58 13.99-1.33 1.613.25 48.11 34.27 103.33 75.61 102.1 76.43 385.543 288.34 487.8 364.68l56.285 42.02-270.57-.01-270.578-.01-140.32-95.78zM1297.128 724.22c.508-3.21 1.47-6.777 2.138-7.925.96-1.647 1.22-.9 1.25 3.56.02 3.18.513 5.353 1.128 4.973.602-.372 1.41-.162 1.8.467.566.916-4.9 4.766-6.77 4.766-.257 0-.054-2.62.454-5.84zm2.128 80.148c-.697-1.797-2.82-7.99-4.72-13.76-1.898-5.77-3.923-11.06-4.5-11.754-2.784-3.355 5.49-23.5 11.185-27.232 3.43-2.244 4.7-1.508 5.65 3.285.65 3.22 6.6 18.843 13 34.13l1.83 4.378-4.49 2.29c-2.47 1.26-7.23 4.46-10.58 7.11l-6.09 4.82-1.26-3.267z"/><path fill="none" d="M1334.246 873.607c-2.258-4.36-4.922-9.51-5.92-11.448-.998-1.94-4.952-10.2-8.785-18.35l-6.97-14.82 2.29-3.61c2.66-4.2 12.39-11.01 15.01-10.51.99.19 3.32 3.24 5.17 6.79 4.47 8.55 20.84 38.17 24.16 43.71l2.63 4.39-3.15 1.2c-1.73.66-6.76 3.31-11.17 5.88s-8.27 4.68-8.58 4.68c-.31 0-2.41-3.57-4.66-7.93zm189.614 245.113c-4.082-3.156-17.2-15.113-29.155-26.572l-21.734-20.834 3.91-1.84c3.13-1.47 3.99-2.63 4.29-5.813.92-9.54-3.49-13.17-16.47-13.55-7.18-.21-8.51-.6-10.42-3.09-1.2-1.57-2.2-3.68-2.22-4.68-.01-1.01-.96-2.86-2.1-4.11-1.14-1.25-3.12-3.65-4.4-5.33-1.28-1.68-10.65-12.7-20.82-24.5s-18.49-21.78-18.49-22.19c0-.41 2.36-1.99 5.25-3.53 9.68-5.13 8.89-12.34-1.97-17.88-5.18-2.64-9.28-2.82-13.63-.57l-3.2 1.66-7.94-10.75c-8.66-11.73-27.36-39.66-29.14-43.55-.61-1.33-1.86-3.74-2.78-5.34-1.5-2.64-1.42-3.17.91-5.64 3.2-3.4 19.02-11.33 20.63-10.34.65.4 4.12 4.82 7.71 9.82s9.46 12.79 13.06 17.31c3.59 4.52 12.93 16.62 20.74 26.89 7.81 10.28 21.33 26.66 30.05 36.4 8.72 9.75 25.23 28.33 36.7 41.28 18.72 21.14 44.81 47.2 82.92 82.81 13.03 12.18 13.09 12.25 10.87 14.66-1.23 1.33-2.23 3.05-2.23 3.82 0 2.02-4.32 1.71-5.12-.37-.87-2.28-9.13-2.28-24.82-.01-6.46.94-12.01 1.69-12.33 1.67-.32-.02-3.92-2.61-8.01-5.77zm88.5 65.87c-1.75-3.383-8.393-8.333-11.184-8.333-.8 0-2.51-1.346-3.805-2.99-1.29-1.644-4.66-4.08-7.5-5.41s-8.79-5.798-13.25-9.927c-4.46-4.128-8.82-7.52-9.69-7.537-.87-.017-3.43-1.563-5.69-3.434l-4.1-3.41 5.68-1.43c6.25-1.58 12.51-6.12 12.51-9.07 0-1.47.32-1.58 1.41-.48 2.12 2.12 6.56 1.7 11.53-1.09l4.46-2.5 19.78 15.55c10.88 8.55 19.95 16.27 20.16 17.15.89 3.79-14.06 26.31-17.47 26.31-.57 0-1.84-1.54-2.81-3.41zm70.33 41.82c-3.195-2.022-8.186-4.903-11.092-6.403-8.288-4.28-15.69-8.58-17.613-10.235-.97-.833-3.61-2.11-5.87-2.84-2.26-.727-5.83-2.374-7.934-3.657l-3.82-2.334 5.22-7.09c2.88-3.9 6.61-9.93 8.31-13.39l3.09-6.3 17.24 11.41c9.49 6.28 21.87 14.23 27.52 17.67 5.65 3.45 10.28 6.51 10.28 6.82 0 1.24-5.25 9.26-8.11 12.4-1.67 1.84-4.92 4.31-7.21 5.49l-4.17 2.15-5.8-3.67zm69.34 22.033c-3.23-.83-9.04-1.56-12.912-1.622-4.148-.06-10.766-1.35-16.106-3.13l-9.065-3.02 4.742-6c2.6-3.3 5.75-7.99 6.99-10.42l2.25-4.42 6.76 3.01c3.71 1.66 12.83 5.37 20.26 8.24 7.43 2.88 13.94 5.66 14.47 6.18 1.07 1.06-8.5 12.84-10.37 12.76-.65-.03-3.82-.73-7.05-1.56zm33.502 1.92c1.68-1.687 3.588-4.025 4.24-5.196 1.25-2.252 1.07-2.27 20.325 2.21 5.55 1.29-5.372 4.785-17.035 5.45l-10.585.603 3.055-3.067zm15.815-24.14c-14.595-3.718-46.77-15.973-69.107-26.323-25.485-11.81-95.837-59.21-130.507-87.935-13.646-11.305-60.204-54.21-79.312-73.09-13.43-13.27-52.22-56.656-73.5-82.193-8.56-10.274-46.1-59.775-58.77-77.498-11.92-16.665-45.26-78.92-53.76-100.393-12.33-31.13-17.87-51.77-16.77-62.51.32-3.07 3.32-12.75 6.67-21.5l6.09-15.91 17.27-10.01c163.69-94.94 161.91-93.94 166.28-93.12 3.43.65 5.68 0 12.71-3.63 4.7-2.43 56.97-33.4 116.16-68.83l107.62-64.41 8.31 1.18c4.57.65 13.92 2.5 20.77 4.12s14.87 2.95 17.81 2.95c4.75 0 5.86-.53 9.7-4.69 3.77-4.08 5-4.69 9.4-4.69 4.45 0 5.79-.69 11.16-5.77 4.22-3.99 7.99-6.33 12.2-7.58 3.35-.99 8.19-2.99 10.77-4.44l4.68-2.63 9.66 3.15c15.68 5.11 43.26 21.5 70.72 42.03 19.33 14.45 79.37 72.44 120.2 116.11 18.15 19.41 29 33.02 49.66 62.29 17.29 24.49 17.12 24.16 20.26 38.04l2.88 12.77-2.28 6.1c-1.31 3.5-5.59 10.06-10.06 15.4-4.28 5.11-8.82 11.61-10.09 14.44l-2.31 5.14 3.28 9.87 3.28 9.87-5.67 4.99-5.67 4.99 3.17 13.25c2.74 11.46 2.98 13.83 1.76 17.58-4.18 12.89-25.44 49.8-34.6 60.07-10.45 11.71-21.95 30-51 81.06-7.9 13.89-24.27 40.31-36.38 58.71-23.27 35.37-26.23 40.39-27.62 46.97-.48 2.26-1.93 6.22-3.23 8.81-4.67 9.28-32.69 53.36-38.73 60.93-4.04 5.07-8.59 13.14-13.21 23.43-6.4 14.26-9.56 19.19-34.64 53.98l-27.59 38.29-7.81 2.4c-10.03 3.08-11.51 3-29.76-1.65z"/><path fill="none" d="M1772.58 1659.336c-77.175-52.678-161.828-110.4-188.12-128.27-26.29-17.87-47.647-33.02-47.458-33.666.19-.646 3.734-4.013 7.88-7.483 4.144-3.47 13.755-12.313 21.357-19.65 7.6-7.34 15.26-14.096 17.02-15.016 1.76-.92 8.15-6.73 14.2-12.91 9.02-9.22 10.9-11.75 10.45-14.09-.4-2.06.13-3.16 1.91-3.99 1.35-.63 5.71-4.11 9.69-7.74 4.66-4.25 8.25-6.58 10.11-6.58 3.72 0 9.07-4.21 9.07-7.13 0-1.47.81-2.26 2.33-2.26 1.28 0 5.38-2.65 9.1-5.89 3.72-3.24 9.59-8.36 13.05-11.38 3.46-3.02 6.83-6.67 7.48-8.11.65-1.44 2.33-2.9 3.72-3.25 3.85-.96 11.9-8.36 14.06-12.92 1.58-3.34 1.67-4.62.51-7.17-1.6-3.51-6.49-6.45-10.72-6.45-4.03 0-15.84 8.12-17.56 12.07-.86 1.98-3.36 4.23-6.15 5.55-2.59 1.23-9.9 7.19-16.26 13.25-8.78 8.37-11.76 11.98-12.37 15.03-.72 3.51-1.35 4.09-5.05 4.6-6.11.85-23.28 17.01-23.28 21.91 0 3.55-2.04 5.09-11.97 9.06-4.65 1.86-24.43 20.05-24.43 22.47 0 .8-1.45 1.77-3.23 2.16-1.93.43-8.87 6.13-17.32 14.24-15.21 14.6-23.92 21.24-30.12 22.98-2.16.61-5.63 2.15-7.71 3.42-4.56 2.8-16.98 18.2-25.24 31.3l-6.01 9.53-10.47.68c-6.52.42-11.54 1.38-13.29 2.53-1.55 1.02-8.24 7.97-14.87 15.45l-12.05 13.6-.59 8.31-.59 8.3-18.79 12.1c-10.33 6.66-19.38 12.12-20.11 12.14-.73.01-5.61-2.35-10.85-5.25-5.24-2.89-11.65-5.61-14.25-6.02-4.5-.72-5.01-.47-10.67 5.19l-5.95 5.94-19-3.49c-10.45-1.92-21.64-4.27-24.87-5.22-13.24-3.9-45.34-16.43-55.77-21.77-14.38-7.37-40.77-23.95-64.98-40.84l-19.15-13.36 1.24-4.65 1.24-4.64-13.48-12.87c-16.12-15.4-14.22-13.49-19.17-19.18-3.57-4.11-4.69-4.68-9.38-4.76-4.97-.1-6.05-.76-16.01-9.72-5.87-5.29-11.38-9.62-12.24-9.62-1.05 0-1.8-2.4-2.3-7.34-.59-5.87-1.35-7.87-3.76-9.98-1.66-1.46-3.91-2.68-5-2.71-1.89-.07-13.51-12.92-14.88-16.47-.84-2.15-9.21-6.95-12.13-6.95-1.24 0-3.69 1.13-5.44 2.51-2.7 2.12-3.42 2.26-4.68.88-3.53-3.86-20.43-25.42-22.44-28.63-1.22-1.94-5.72-8.54-10.01-14.68-7.5-10.73-21.41-32.32-33.1-51.38-3.36-5.47-5.58-10.49-5.59-12.61-.02-3.17-2.88-10.02-7.6-18.2-5.12-8.88-19.91-45.51-22.36-55.43-.56-2.26.13-5.05 2.41-9.71 4.2-8.6 3.5-14-4.36-33.31-7.18-17.64-7.15-20.51.33-30.47 25.73-34.3 58.54-75.08 76.78-95.46 16.22-18.12 18.16-20.63 18.19-23.6.01-1.08 11.78-13.77 26.147-28.18 14.37-14.42 33.99-34.21 43.6-44 12.16-12.38 18.5-17.99 20.85-18.46 3.63-.73 35.24-31.01 53.84-51.59 5.49-6.07 11.12-11.78 12.5-12.68 3.2-2.08 28.28-26.5 47.54-46.29 19.02-19.53 41.62-40.59 42.56-39.64.404.41.73 1.46.73 2.35 0 5.12 10.78 28.71 27.06 59.23 20.154 37.78 23.78 44.04 41.44 71.45 29.19 45.32 36.52 55.47 59.71 82.63 8.32 9.75 20.784 25.87 27.7 35.82 11.24 16.19 15.47 20.99 40.11 45.58 27.05 27 28.39 28.13 75.76 64.27 60.22 45.93 71.6 53.38 118.64 77.67 24.65 12.73 40.26 19.27 64.47 27l17.5 5.59-4 3.53c-20.88 18.42-52.03 47.35-54.6 50.73-3.75 4.92-4.08 9.28-1.06 13.9 4.29 6.54 8.61 6.4 18.357-.62 5.08-3.66 37.36-32.97 53.13-48.25 3.83-3.72 7.26-6.76 7.62-6.76.35 0 2.83-2.14 5.49-4.76 4.52-4.44 5.58-4.87 15.89-6.54 6.08-.98 12.37-1.58 13.99-1.33 1.613.25 48.11 34.27 103.33 75.61 102.1 76.43 385.543 288.34 487.8 364.68l56.285 42.02-270.57-.01-270.578-.01-140.32-95.78z"/></svg>