<svg xmlns="http://www.w3.org/2000/svg" width="2703.03" height="2083.59" viewBox="0 0 2703.03 2083.59"><desc>world98</desc><path fill="none" stroke="#000" stroke-width="15" d="M2212.3 669.57c13.9 16.58 25.7 31.7 25.47 32.64-.12.6.66 1.9 1.75 3 1.08 1.1 2.48 3.5 3.12 5.4.63 1.9 3.73 7 6.9 11.2 6.86 9.3 15.62 24 15.93 26.7.13 1.1.25 4.9.28 8.4.04 3.6.8 10.3 1.72 15 .92 4.7 1.27 9 .78 9.4-.48.5-1.24 3.2-1.68 6-.95 6-3.03 9.5-12.43 21-10.15 12.5-10.35 12.8-9.03 17.3.7 2.2 1.6 5.5 2 7.4.5 1.9 2 5.2 3.5 7.2 1.5 2.1 2.8 4.4 2.9 5.3.3 2.2-8.4 10.7-11.9 11.7-2.4.7-2.6 1-1.8 3.4.5 1.4 2.2 5.1 3.9 8.1 3.6 6.4 3.5 9.1-.5 16.6-1.5 3-2.8 6.1-2.7 7 .4 3-29.3 53.9-52 89.4-12.4 19.5-28.1 44.8-34.9 56.3-8 13.8-17.1 27.8-26.5 40.7-19.7 27.4-28.9 42.2-32.2 52-2.2 6.6-6.3 13.8-24 42.2-11.7 18.9-22 35-22.9 35.8-.8.9-2.3 3.9-3.2 6.7-.9 2.9-2.9 6.9-4.5 8.9-1.5 2.1-4.1 7.2-5.6 11.3-1.5 4.1-4.1 9.2-5.6 11.3-1.6 2.1-4.1 6-5.6 8.6-1.5 2.7-4.8 7.6-7.4 10.9s-6.5 8.5-8.7 11.4c-2.2 2.9-7.4 9.7-11.7 15.2-4.2 5.5-8.5 11.4-9.5 13.2-.9 1.8-3.5 5-5.8 7.3-2.4 2.4-4.9 6.1-6.2 9.1-1.7 4.1-3.8 6.7-10.8 13.7-7.5 7.6-9.4 9-14.6 11.1l-6.1 2.6c0 .1.8 1.4 1.9 3 1.2 1.9 16.5 13.8 41.5 32.4l134.1 100.1 209.6 156.6 61.5 46c68.4 51.2 91.2 68.2 285.6 213.4 27.7 20.7 27.2 20.4 26.1 21.5-1.2 1.2-341.1 161.3-342.6 161.4-1.3.1-7.4-4-135-91.1-47-32-122.6-83.6-139.6-95.1-14.6-9.9-88.4-60.2-143.8-98-55.6-37.9-165.2-112.6-177.9-121.2-28.3-19.2-113.2-77.1-113.5-77.4-.2-.2-1.1.5-2.1 1.5s-2.3 1.5-2.9 1.2c-.6-.3-3.5-2.1-6.4-3.8-4.7-2.9-5.5-3-6.9-1.4-3.6 4.1-9.2 15.7-9.3 19.2 0 3.6-.3 4-6.6 9.6-10.2 9.1-20.4 15.4-24 15-2.3-.3-3.7.3-6 2.6-1.6 1.7-3.6 3.1-4.2 3.1-1.9.2-8.4 4-10.8 6.4-3.1 3.2-4.3 7.5-2.8 9.9 2.2 3.3 2.5 5.1 1.7 9.3-.7 3.5-1.6 4.8-8.5 11.7-6.3 6.3-8.4 7.9-11.3 8.6-1.9.5-6.5 3-10.1 5.7-7.2 5.4-11.2 7.2-15.4 7.3-1.5.1-3.6.5-4.6 1.1-9.3 5-20.2 7.3-22.7 4.8-.7-.8-1.7-1.3-2.1-1.1-1.1.4-10.5-3.1-11.8-4.3-.6-.6-2.5-1.5-4.2-2.1-3-.9-3.4-.7-7.6 3.4l-4.4 4.4-25.5-4.4c-18.6-3.2-27.5-5.3-32.6-7.6-3.8-1.8-8.1-3.2-9.5-3.2-3.6 0-13.2-3.8-35.2-14-30.8-14.2-67.2-36.8-97.1-60.4-14.3-11.3-13.7-10.5-9.9-14.3 3.2-3.1 3.2-3.3.9-4.8-1.2-.9-6.6-5.5-11.9-10.3-11.6-10.4-11.9-10.6-15.1-9.4l-2.6 1-18.6-18.6-18.6-18.6-.8-4.4c-.8-4.1-1.4-4.9-10-13.6l-9.2-9.2-3.6 3.2-3.6 3.1-5.5-5.8c-9.2-9.9-20.3-23.2-28.7-34.5-16.7-22.3-41.6-62.7-57.3-93-8.7-16.7-24.4-55-27.8-67.5-2-7.5-2-8.6.1-13.6l2.3-5.3-6.2-19.3c-6.1-18.9-6.8-23.7-5-33.2.3-1.4 6.1-10 13.5-19.7 7.2-9.5 16.6-22.1 21-28 4.3-5.9 10.4-13.3 13.5-16.5 3.1-3.1 6.7-7.4 8-9.4 9.4-15 23.8-31.7 60.6-69.8 13.1-13.5 22.1-23.5 21.9-24.1-.3-1.3 6.2-10.1 11.2-15.2 4.5-4.5 3.9-7.1-1.7-7.5-7.8-.6-10-.5-11 .5-.5.6-1.9 1-2.9.9-1.5-.2-3.6 1.4-8.4 6.3-3.6 3.6-9.7 9-13.7 12.1-3.9 3.1-17 15.4-29.2 27.4-12.9 12.8-24.3 23.4-27.4 25.6-5.6 3.9-17 13-30.2 24.2-12.5 10.5-12.5 10.6-16.4 7.6-2.9-2.2-99.1-75.2-179.9-136.6L804.2 987l-70.6-54c-17.9-13.6-36.4-27.6-41-31.1-4.7-3.5-23.3-17.64-41.4-31.4s-52.7-40-76.8-58.3L501 756.3l-37.9-28.8c-4.7-3.5-39.1-29.6-76.4-58-37.4-28.4-77-58.45-88.1-66.8L157.3 495.3c-4.6-3.56-35-26.6-67.5-51.3-94.3-71.57-90.4-68.5-90-69.85C.6 371.9 254.4 0 255.3 0c.98 0 3.36 1.88 43.24 34.16 16.53 13.4 43.1 34.88 59.02 47.73 15.92 12.8 49 39.5 73.53 59.4 91.3 73.7 162.4 131.1 176.1 142.1 7.7 6.2 32.5 26.3 55.1 44.5 22.5 18.2 53.9 43.5 69.6 56.2l47.3 38.2 106.1 85.5 120.2 96.9 39.5 31.8c3.7 2.9 15 12 25.1 20.1 17.8 14.4 33.7 27.2 88 71l47.7 38.5 47 37.8c60 48.3 112.8 90.9 113.3 91.4.2.3 8.5-7.5 18.2-17.2l17.7-17.7 4.9-36 4.9-36 16-15.6 15.7-15.8 15.8-9c33.3-18.9 50.7-28.9 99.4-56.8 174-99.9 312.4-178.9 314.9-179.7 1.6-.5 3.5-.4 4.2.3 2.2 2.1 6.3 2.2 13.6.1 8.9-2.6 13.6-1.5 19.9 4.3 6.5 6 7.2 5.9 15.4-2.3l6.8-6.9 3.6 1.3c3.4 1.2 3.8 1.1 7.1-2.1 4.3-4.4 8.6-6.5 14.6-7.1 3.6-.4 6-1.6 10.9-5.2 5.7-4.3 6.6-4.6 9.7-3.9 1.9.4 5 .5 7 .1 4.8-1.1 7.8 0 15.5 5.6 3.6 2.6 9.3 5.8 12.7 7.1 3.4 1.3 8.3 4.1 11 6.3 2.6 2.1 8.1 5.3 12.1 6.9 7.9 3.3 18.2 10.3 28.9 19.6 3.8 3.3 7.9 6.2 9.2 6.5 3.7.9 21.9 16.4 59.8 51.2 15.4 14.2 70.4 68.8 76.3 75.8zm-80.56-76.42c-29.54-27.15-50.94-45.15-57.7-48.5-2.12-1.07-7.64-5.27-12.26-9.35-4.63-4.08-8.85-7.3-9.4-7.18-.53.12-2.4-1.2-4.13-2.93-2-2-5.65-4.1-9.92-5.7-3.72-1.4-9.82-4.7-13.55-7.3-3.74-2.6-9.47-5.9-12.75-7.3-3.28-1.4-7.93-4.1-10.33-6-6.54-5.1-9.57-6.4-14.17-5.7-2.3.3-5.5.3-7.12-.1-2-.5-3.9-.1-6 1.5-7.8 5.6-10.8 7.1-15.5 7.6-3.3.3-5.3 1.1-5.8 2.2-1.3 2.9 15-2.4 20-6.5l4.2-3.5 13.9 4.3c7.7 2.4 16.4 5.8 19.4 7.5l17.5 10.2c6.7 3.8 20 12.7 29.8 19.7 23.8 17.1 47.7 39.3 104 96.8 41.6 42.4 41.7 42.5 55.4 60.5 7.6 9.9 19.9 27 27.4 38l13.7 19.9 3.1 14.6c1.8 8 3.6 14.6 4 14.6 1 0 .8-2.7-1-11.4-.7-3.6-1.3-9.4-1.3-13.1.1-3.6-.3-8-.9-9.7-1.4-4.4-7.4-14.1-14.6-23.5-3.8-5-6.6-9.7-7.3-12.2-.6-2.2-2-5-3.2-6.1-1.1-1.1-1.9-2.6-1.8-3.2.2-.6-1-2.5-2.7-4.1-1.6-1.6-5.6-6.3-8.9-10.4-3.3-4.1-8.3-10.3-11.1-13.7-7.5-9.3-59.3-61.2-80.5-80.7zm-23.7-9.52c-30.43-29-32.12-30.47-49.6-43.22-11.2-8.1-25.04-17.2-36.37-23.8-16.45-9.6-19.66-11.1-31.96-14.9l-13.6-4.2-3.4 3.4c-2.7 2.7-5 3.9-11.1 5.4-7.1 1.9-8 2.4-13.1 7.4l-5.4 5.4-5.4-.2-5.4-.2-4.7 5.7-4.7 5.7-15.6-3.8c-8.6-2.1-19.8-4.2-24.9-4.8-9.2-1-9.4-1-16.1 2.9-3.7 2.2-55.4 33.1-114.7 68.7l-108 64.5-6-.4-6-.3-19.8 11.4c-40.5 23.3-143.1 82.8-156.8 90.9l-6.4 3.8-4.2 10.4c-2.3 5.7-5.9 15.4-8 21.6-3.7 11.1-3.8 11.5-2.1 21.4 2.4 14.9 6.9 29.8 15.9 52.4 4.4 11.2 8.5 21.3 9.2 22.6 2.2 4.4 29.1 53.6 34.5 63.1 7.4 13.3 6.4 11.9 39.4 56 26.8 35.8 32 42.2 53 65.9 12.8 14.4 27.9 31.5 33.5 38 6.2 7.1 16.9 18.2 27.2 28 27 25.6 55.8 52.2 66.6 61.4 12 10.3 54.2 42.5 63.1 48.2 3.5 2.3 16.5 10.5 29 18.3 12.4 7.8 26.3 16.5 30.8 19.4 5.8 3.7 17.3 9 39.7 18.2 28.5 11.8 33.3 13.4 50 17.2l18.5 4.1 10.9-3.4 10.9-3.5 29.2-40.5 29.2-40.5 7-16.3c6-13.9 7.6-16.7 10.5-19 2.5-1.9 6.9-8.2 16-22.9 27.4-44 27.1-43.4 28.5-50.7 1.3-6.8 1.6-7.2 25.3-42.6 19.3-28.8 26.9-41.1 39.1-63.1 8.3-15 21.2-37.2 28.7-49.3 11.6-18.7 14.6-23 20.2-28.6 6-6 7.9-8.9 19.9-29.7 9.5-16.4 14.1-25.5 16-31.4 2.7-8.3 2.7-8.4-.2-20.5l-2.9-12.1 6.2-5.2 6.1-5.2-4.4-11.3c-5.1-12.9-5.8-10.2 7.4-26 7.1-8.4 8.4-10.5 10.8-17.4l2.8-7.8-3.3-14.8-3.2-14.8-11.4-16.6c-6.3-9.1-15.1-21.5-19.6-27.5-4.5-6-11.1-15-14.8-19.9-6.1-8.3-15.1-17.9-61.8-66.2-4.4-4.5-22.2-21.8-39.5-38.3zm154.13 206.05c-1 2.15-1.86 6.54-1.14 5.82.74-.74 2.64-6.8 2.25-7.2-.18-.16-.67.46-1.1 1.38zm-5.55 10.7c-.3.7.26.45 1.24-.52.97-.97 1.2-1.53.52-1.24-.68.3-1.47 1.08-1.76 1.76zm-306.75-294.36c-.57.98-1.15 1.32-1.3.74-.12-.57-1.86.6-3.85 2.57-3.46 3.46-3.76 3.55-7.12 2.17l-3.5-1.44-6.66 6.65c-6.35 6.4-6.8 6.7-10 6.3-2.25-.2-4.35-1.4-6.53-3.6-5.2-5.3-10.6-6.4-19.3-4.2-5.9 1.5-8.7 1.6-12.5.4-4.8-1.5-5.1-1.4-12.1 2.6-4 2.3-7.2 4.5-7.2 4.9 0 .4.4.4.8 0 .5-.4 3.1-1.8 6-3.1 6.6-3 17.4-2.1 39.8 3.3l16 3.9 4.9-5.4c5-5.4 5-5.4 10.4-5.5 4.9 0 5.9-.5 10.1-4 3.4-3 4.6-4.5 4.3-5.6-.5-2.3-.7-2.3-1.9-.3zm-6.33 7.22c-.85.8-1.2.8-.85 0 .3-.72.9-1.3 1.4-1.3s.2.58-.6 1.3zm301.4 301.6c-.5.87.04.64 1.22-.5 1.18-1.16 1.6-1.87.93-1.6-.7.3-1.7 1.23-2.2 2.1zm-4.55 5.54c-1 .93-.7 2.86.8 6.54 2.1 5.03 2.2 5.1 1.8 2.03-.2-1.75-.9-4.1-1.5-5.2-.7-1.12-.8-2.48-.2-3.02s.8-1.15.6-1.34c-.2-.2-1 .2-1.7.9zm6.6 20.68l1.6 3.84-5.7 4.7c-3.1 2.57-5.5 4.86-5.3 5.08 1 1 7-1.92 9.8-4.75 3.4-3.48 3.6-5.2 1-8.8-3.1-4.06-3.2-4.07-1.6-.08zm-8.4 24.97c0 .3.7 3.86 1.5 7.9 1.5 7.3 1.5 7.35 2.4 4.1.4-1.8.1-4.9-.7-6.85-1.4-3.26-3.5-6.5-3.3-5.17zm-1.7 25.97c-.3 1.23-.3 2.24.1 2.24.6 0 1.2-3.7.7-4.2-.2-.16-.5.72-.8 1.96zm-383.3-366.3c-.7.68-.3.77.9.26 1.1-.44 2.5-1.28 3.1-1.87.6-.7.3-.8-1-.3-1.2.4-2.5 1.3-3.1 1.8zm-3.6 2.4c-.4.78 0 .78.8 0 .8-.72 1-1.3.5-1.3s-1.1.58-1.4 1.3zm-6.4 3.53c-.4.8 0 .8.8 0 .7-.72 1-1.3.5-1.3s-1.1.58-1.4 1.3zm-.7 3.53c-.4.8 0 .8.8 0 .8-.7 1-1.3.5-1.3-.4 0-1.1.6-1.4 1.3zm-2.9-1.4c-.4.78 0 .78.8 0 .8-.73 1-1.3.5-1.3s-1.1.57-1.4 1.3zm-3.6 2.1c-.4.8 0 .8.8 0 .8-.7 1-1.3.6-1.3s-1.1.6-1.4 1.3zm-3.6 4.96c-.4.8 0 .8.8 0 .7-.72 1-1.3.5-1.3s-1.1.58-1.5 1.3zm-117.2 63.62c-105.4 60.26-105.2 60.15-114.8 65.5-4.5 2.5-11.8 6.65-16.3 9.2-4.5 2.57-16.2 9.28-26.1 14.92-10 5.64-23.7 13.53-30.6 17.53-6.9 4-20.6 11.8-30.5 17.4-9.9 5.6-17.9 10.5-17.9 10.9 0 .4.4.4.8-.1s.9-.4 1.1.1c.1.5 7.3-3.2 15.9-8.4 8.6-5.2 28.4-16.7 44-25.6s36.1-20.9 45.6-26.5c44.3-26.1 43.8-25.9 47.9-25.6 2.1.1 4.6.4 5.6.7 1.2.2 19.6-10.3 55-31.5 29.2-17.5 53.4-32.1 53.7-32.4 1.9-1.9-4.8 1.8-38.9 21.4-21 12-40.2 23-42.7 24.4-2.5 1.4-8 4.5-12.2 6.9-10.4 6.1-15.5 8.5-16.4 7.6-.4-.4-.2-1 .5-1.2 2.9-1.3 53.8-30.1 93.7-53.2 12.6-7.3 32-18.4 59.4-33.8 19.7-11.1 30.2-17.7 34.9-21.7 5-4.3 1.2-2.2-112.6 62.8zm466.4 373.7c-8.1 12.96-15.5 25.57-16.6 28.02-2.1 4.92-4.7 12.8-3.5 10.67.4-.75 10.9-17.18 23.4-36.5l22.5-35.16-5.7 4.7c-5.2 4.3-6.8 6.6-20.2 28.25zM1769.4 579c-.33.8 0 .8.87 0 .8-.7 1.1-1.3.6-1.3s-1.1.58-1.4 1.3zm-10.6 6.36c-.33.8 0 .8.86 0 .8-.7 1-1.3.6-1.3s-1.1.6-1.4 1.3zm-6.7 3.66c-1.1 1.15-.9 1.2.96.23 3.2-1.64 5.1-3.5 2.5-2.47-1.1.45-2.7 1.45-3.4 2.24zm390.7 456.76c-4.6 8.15-8.9 15.36-9.53 16.02-.6.66-.8 1.52-.5 1.9.4.4 1.7-.24 2.9-1.4 1.2-1.18 1.8-2.5 1.4-2.92-.5-.5.1-1.34 1.6-2.28 1.9-1.18 2-1.44.6-1.22-1.4.2-1.2-.16.9-1.66 1.8-1.25 2.4-2.03 1.6-2.2-.7-.2-.3-.8 1.3-1.74 1.8-1.1 2.05-1.54 1-1.8-1.1-.24-.9-.6.64-1.42s1.7-1.18.7-1.43-.8-.73.8-1.83c1.4-.92 1.8-1.6 1.1-1.77-.8-.17-.3-.85 1.3-1.85 1.6-.97 1.9-1.46 1-1.26-1.1.2-.8-.94.8-3.85 1.3-2.3 2.1-4.16 1.7-4.16-.3 0-4.4 6.7-8.9 14.9zm-14.94 25.04l-3.3 5.2 3.5-4.3c3.3-4.08 4.5-6.13 3.5-6.13-.24 0-1.9 2.3-3.7 5.2zm-5.6 8.16c-.3.68.3.44 1.2-.53 1-.97 1.2-1.53.52-1.24-.7.3-1.5 1.1-1.8 1.8zm-2.8 4.18c-.4.8 0 .8.8 0 .8-.72 1.02-1.3.55-1.3s-1.1.58-1.4 1.3zm-22.6 33.94c-.4.8 0 .8.8 0 .8-.72 1.1-1.3.6-1.3s-1.1.58-1.4 1.3zm-3.8 5.55c-1.87 2.68-4.66 12.68-3.8 13.54.32.3 6.4-16.1 6.12-16.5-.1-.2-1.17 1.1-2.36 2.9zm-53.77 91.97c-1.6 3.6-3.5 7.77-4.2 9.26-1.9 4.07-.5 3.24 2.6-1.5 3.4-5.2 6.7-13.8 5.4-14.1-.5-.14-2.3 2.72-3.9 6.32zm-6.8 15.65c-.6 2.26 0 2 1.1-.45.4-.88.4-1.6 0-1.6s-.9.92-1.2 2.05zm-3.4 7.76c-1.2 2.67-1.6 4.32-.9 3.67 1.2-1.2 4.2-8.54 3.4-8.54-.2 0-1.4 2.18-2.6 4.85zm-20.4 29.88c-9.6 13.3-16.7 23.7-15.8 23.1.9-.6 3.3-3.5 5.4-6.5s6.6-9.2 10.1-13.9c3.4-4.7 9-12.6 12.4-17.6 11.4-16.9 5.1-9.2-12.4 15.1zm686.2 650.7c-.4.4-.4 1.1 0 1.4 1.2 1.3-1.1 2.6-22.4 12.6-11.6 5.4-49.5 23.2-84.1 39.5L2482 2022l-82.5 38.7c-27.1 12.7-39.7 18.1-40.7 17.6-.8-.5-22.8-15.4-48.9-33.3s-69.2-47.2-95.8-65.4c-42.5-28.9-132.9-90.6-200.1-136.5l-69.3-47.3-105.07-71.7c-31.9-21.8-62.8-42.8-68.6-46.7-5.9-3.9-35.9-24.4-66.9-45.6-30.9-21.2-57.3-39.2-58.6-40.1-1.97-1.3-2.2-1.9-1.3-3.5 1-1.7.7-1.8-2.9-.5-2.2.8-5.4 1.57-7.2 1.7-3.12.3-3.4.5-12.4 11.67-11.3 13.96-11.7 14.66-10 17.6 1.5 2.44 1.7 6 .66 8.5-.4.8 1.2-.5 3.6-2.8 3.1-3.2 3.5-3.85 1.6-2.6l-2.7 1.6 1.8-3.1c1-1.7 2.3-3.5 2.7-4 .5-.53.7-1.64.5-2.5-.2-.83-.1-1.7.2-1.9 2.2-1.7 3.5-3.56 2.2-3.3-1.6.35.3-6.23 2.4-8.3 1.1-1 1.2-.85 1 1.4-.3 2.55-.3 2.55.5.55.4-1.1 2.2-3.4 3.8-5.1 2.9-3 3.2-3.06 6.6-1.4 1.9.96 4.9 2.65 6.5 3.74 2.3 1.6 3.2 1.65 4.6.3 1-1 2.3-1.34 3.3-.8.8.46 10.8 7.2 22.1 14.93 11.3 7.7 27.4 18.7 35.7 24.3l177.5 120.8 113.6 77.4 137.5 93.7c22 15 46.8 31.8 55.1 37.5 8.3 5.7 49.2 33.5 90.8 61.9 43.6 29.7 76.2 51.4 77 51.2.7-.2 12.8-5.7 26.8-12.4s71.9-33.9 128.8-60.7c56.8-26.8 120-56.5 140.3-66.1 20.3-9.6 38.2-18 39.7-18.7 2.5-1.1 2.5-1.3.9-2.9-1-1-2.1-1.5-2.5-1.1zm-8.1-7.1c0 .5.6 1.1 1.3 1.4.8.4.8 0 0-.8-.7-.8-1.3-1-1.3-.5zm2.8 4.3c0 .5.6 1.1 1.3 1.4.8.4.8 0 0-.8-.7-.8-1.3-1-1.3-.5zm-8.5-8.5c0 .5.5 1.1 1.3 1.4.7.4.7 0 0-.8-.8-.8-1.3-1-1.3-.5zm3.1 4.6c.2.7 1.2 1.7 2.1 2.2.8.5.6 0-.6-1.2s-1.9-1.6-1.6-.9zm-8.8-8.8c0 .5.6 1.1 1.3 1.4.8.4.8 0 0-.8-.7-.8-1.3-1-1.3-.6zm3.1 4.6c.3.7 1.1 1.5 1.7 1.8.6.3.4-.3-.6-1.2s-1.5-1.2-1.2-.5zm-8.5-8.5c.3.7 1.1 1.5 1.7 1.8.7.3.4-.3-.5-1.2s-1.6-1.2-1.3-.5zm-51.1-32.9c-58.2-43.5-101.2-75.6-116.9-87.2l-81.7-61.1c-43.4-32.4-97.5-72.9-120.2-89.8-22.7-16.9-54.2-40.5-70-52.3-54.2-40.6-139.6-104.4-147.8-110.3-4.5-3.3-18.7-13.9-31.6-23.6-18.6-14-82.7-62-112-83.8-2.9-2.1-5.5-4.1-5.8-4.4-.6-.6-26.7 3.1-30.6 4.3-1.3.4-3.5 1.9-4.9 3.3-2.3 2.3-2.7 2.4-3.9.6-1.3-1.9-1.7-1.7-6.1 1.9-6.8 5.5-13.9 12.7-15.7 16.1-.9 1.6-3.2 4.1-5.1 5.5-3.4 2.6-3.5 2.6-1.9 0 1.4-2.2 1.1-2.1-1.8.7-2.2 2.1-3.2 3.6-2.7 4.1.5.5-.1 1.4-1.7 2.5-1.3.9-2.4 2.1-2.4 2.6 0 .6 3.3-1.6 7.4-4.8l7.4-5.8-11.6 11.1c-15.5 14.8-32.5 30.4-34.9 32-1.6 1.1-2.1.9-2.6-.7-.3-1.1-1-2-1.5-2-2.3 0 2.3-4.8 19.4-20.3 10.3-9.3 20.5-18.6 22.8-20.6 2.3-2 9.4-8.5 15.9-14.3l11.7-10.7-7-2c-49.9-14.6-63.2-20.1-107.9-44.6-19.4-10.6-38.5-21.7-42.5-24.7-4.1-3-25.2-19.1-46.9-35.8-21.8-16.7-42.8-32.6-46.7-35.3-5.6-3.8-13.3-11.1-35.5-33.3l-28.5-28.4-10.6-16.1c-5.8-8.8-13.1-18.9-16.2-22.5-35-40.4-35.9-41.6-64-84.6-23.8-36.4-28.2-43.7-41.6-69.3-8.3-15.8-17.8-33.5-21.1-39.4-4.6-8.2-7.4-15.2-11.9-29.5l-5.9-18.7-18 18c-9.9 9.9-18.5 17.9-19 17.8-.6-.1-2.6 1.9-4.5 4.5-4.6 6.1-53.9 55.3-56.5 56.4-4.3 1.9 7.9-11.3 42.1-45.5 2.6-2.6 4.1-4.8 4-5.9-.2-.9 1.7-4.2 4.2-7.5 3.6-4.8 5-6 7.4-6.7 2.1-.6 2.6-.5 1.7.4-.7.7-.9 1.6-.5 2.1.6.6 5-3.5 14.9-13.7 20.9-21.4 23-23.3 24.6-22.5.8.3 3.3 7 5.6 14.9s4.8 14.4 5.5 14.6c.7.2.7.4.1.6-1.3.3.5 5.9 3.8 12.1 3.4 6.3 3.6 4.8.2-1.9-2.8-5.7-4.4-10.1-3.1-8.9.3.3 1.2 2.1 2 4.1 2.1 5 4.1 6.9 5 4.6 4.2-10 12.9-17.1 29.2-23.6 1.3-.5 1-1.9-1.2-6.7-1.6-3.3-2.9-6.6-3.1-7.3-.1-.7-1.9-4.9-3.9-9.5-4.3-9.6-7.8-19.7-10.3-30l-1.8-7.3-7.2 3.6c-8.7 4.4-11.8 7.3-15.1 14.2-1.7 3.6-2.9 5.1-3.7 4.9-.8-.1-.7-.4.2-.6 1.1-.3 1.1-.5 0-.7-.9-.2-1-.5-.3-.7.7-.1 1.9-1.9 2.7-3.8 2.3-5.6 9.6-12.3 17.2-15.7 7.6-3.4 8.8-4.9 1.7-2-9.2 3.8-14 7.4-17.4 13.5-1.7 3-3.5 6-4 6.7-.6.7-1.3 4.3-1.6 7.9l-.5 6.5-19.1 19.1-19.2 19.1-1.9-1.3c-3-1.9-10.2-7.9-13.2-10.9-1.5-1.4-3-2.3-3.5-1.8-.5.5-1.8-.5-4-3.4-2.5-3.1-3.2-3.7-3-2.3.2 1.4-.7.7-3.4-2.7-2.8-3.4-3.8-4.2-4-3.2-.3 1-1.2.3-3.5-2.7-2-2.6-3.5-4-4.3-3.8-.8.2-2.2-1.1-3.9-3.4-2.1-2.9-2.9-3.4-3.1-2.3-.3 1.1-1.1.5-3.6-2.8-2.2-3-3.3-3.9-3.5-3-.2.8-1.4 0-3.9-2.6-2-2.1-5.3-5.1-7.2-6.6-2-1.5-6.6-5.4-10.3-8.6-3.7-3.2-7.7-6.1-8.8-6.4-1.1-.3-2.6-1.6-3.3-2.8-.8-1.3-2.2-2.3-3.3-2.4-1.2-.1-2.7-1.4-4.2-3.4-1.3-1.9-2.8-3.1-3.5-2.9-.6.1-1.4-.4-1.8-1.1-.3-.8-6.9-6.4-14.7-12.5-7.7-6.1-22.5-18-32.8-26.4-10.3-8.3-31.4-25.4-47-37.8-15.5-12.4-54.8-44.1-87.3-70.3L955 569.3c-37.9-30.5-83.9-67.6-102.1-82.4-18.3-14.7-51-41.2-72.8-58.7l-50.2-42c-19.2-15.5-32.24-26-58.7-47.3L620 297.5s-35.45-28.7-47.3-38.2c-11.85-9.58-30.17-24.3-40.7-32.86-10.57-8.5-21.5-17.28-24.4-19.47l-5.2-4 5.6 5c3.1 2.76 8.76 7.57 12.6 10.7L540 234.5c6.84 5.6 15.6 12.8 19.48 15.9 6.87 5.54 11.35 9.47 13 11.4.44.54.33 1.44-.25 2.03-.78.77-.36 1.8 1.3 3.5 3.34 3.36 5.3 4.06 6.86 2.48.7-.7 1.6-1 2-.7.3.4 3.2 2.7 6.5 5.2s8.4 6.7 11.5 9.4l14.2 12c4.6 3.9 11.9 10 16.2 13.5 4.3 3.5 11.3 9.2 15.5 12.7 4.2 3.6 16.1 13.3 26.5 21.6 23.3 18.9 56.7 46.2 63.6 52 4 3.4 5 4.6 4.2 5.3-.7.7-.4.9 1 .7 1.4-.2 4.4 1.7 10.5 6.8l28 22.9c10.7 8.7 24.7 20.2 31.1 25.5 6.4 5.3 18.6 15.3 27.2 22.3 33.2 27 38.1 31.2 38.1 32.2 0 .6 1.4 2.3 3.1 3.7 2.7 2.3 3.3 2.4 5 .8 1.2-1.1 1.6-1.2 1-.2-.7 1.1-.2 2.3 1.5 4 2.2 2.2 42.5 35 60.7 49.5 7.3 5.8 51.7 41.5 64.8 52.1 4 3.3 16.7 13.4 28.2 22.6 32.5 25.8 40.7 32.4 49.8 40 11.7 9.7 34.8 28.3 55.8 45.1 9.7 7.7 18.2 15.1 19 16.3.7 1.2 3.6 3.9 6.3 5.8 2.7 1.9 11.7 8.9 19.9 15.5 8.2 6.5 21.9 17.3 30.3 24 8.5 6.6 18.2 14.5 21.5 17.3 3.4 2.9 13.9 11.5 23.4 19.1 9.5 7.6 25.9 20.8 36.4 29.3 10.6 8.5 27 21.7 36.5 29.3 18.6 14.8 22 18.4 19.7 20.6-.7.8-18.9 15.8-40.4 33.4l-63.5 52.2-24.4 20.2-3.8 7.2c-3.4 6.3-4.4 7.6-8.6 10.5-2.6 1.8-6.2 4.7-8 6.4-1.9 1.7-4.3 3.5-5.5 4.1-4.4 2.1-4.3 3.9.9 9 2.6 2.6 4.5 5.1 4.2 5.6-.3.6-1.9-.6-4.2-3.2-2.2-2.5-4.4-4.2-5.6-4.3-1.5-.1-1.7-.3-1-1.1 1.1-1.1-3.5-.6-4.8.6-.5.4-.2 1.3.6 1.8.7.6 1.3 1.5 1.1 2.1-.1.6 1.6 2.5 4.3 4.6 3.4 2.6 4.8 3.2 5.6 2.3.9-.9 1.1-.8.8.3-.2.9.4 1.8 1.3 2.2.9.4 1.4 1.1 1.1 1.5-3.6 4.8-30.1 31.6-58.2 59-8.2 8-8.6 8.5-7.2 9.8 2.4 2.5-1.2 5.7-5.6 5-3.6-.6-6.6.9-6.1 3.1.1.6 1.6.7 3.3.4 2.9-.6 3.1-.5 2.3 1.2-.5 1.1-6.6 8-13.5 15.5s-19.6 22.5-28.2 33.4c-24.7 31.4-45 57.7-48.4 62.5-4.1 5.8-6 14.5-4.1 19.3.8 2.1 3.7 9.1 6.4 15.7s5.6 13.8 6.4 15.9c1.4 4.1 1.3 4.5-4.4 13.9-1.2 1.9-2.3 4.5-2.4 5.6-.2 1.7 10.4 31.7 15.4 43.3.7 1.8 1.1 3.3.8 3.3-.5 0-5-10.5-8.8-21.1-1.1-2.8-3.4-9.1-5.3-13.8-3.6-9.5-4.2-14.1-2.1-16.3 2.4-2.4 6.8-11.2 6-12-1.1-1.1-7.7 7.6-9 11.8-1.7 5.4 10.1 38 24.8 68.6 9.3 19.4 18.5 36 22.4 40.6 1.7 2.1 4.6 6.5 6.5 9.8 1.8 3.3 4.9 8.3 6.7 11.1l6.1 9.4 3.6 5.6c.4.8 2.4 3.5 4.4 6.2 4.6 6.4 9.1 13 9.9 14.8.6 1.3 9.7 12.9 27.2 34.6l3.3 4.1 5.5-4.5 5.5-4.5 5.4 6.1c13.9 15.5 15.7 18 15.7 21.9 0 3.3.6 4.4 5.6 9.8 3.1 3.4 6.7 6.7 8.1 7.5 2.4 1.3 2.4 1.3.1-1.9-1.7-2.4-.5-1.5 4.5 3.4 3.8 3.7 8.1 7.5 9.6 8.5 1.7 1.1 2.4 2 1.9 2.5-.4.5-2.1-.5-4.1-2.5-1.8-1.8-3.2-2.7-3.2-2.1.1.7 3.3 4.1 7.2 7.6 5.2 4.6 7 5.9 6.7 4.5-.4-1.6 0-2.1 2.8-3.5 3-1.5 7.2-.6 5.4 1.2-.5.4-.9.3-1.1-.2-.4-1.5-4.7 1.8-5.4 4-.3 1.2.1 2.3.9 2.8s4.9 3.8 9 7.5c17.4 15.5 18.4 16.2 19.9 14.7 1.3-1.3 1-1.7-2.7-4.7-2.3-1.8-6-4.5-8.2-6-2.2-1.5-5.7-4.3-7.7-6.4-2.1-2-5-4.4-6.6-5.3-2.1-1.1-2.9-2-2.8-3.2.1-1.1.4-1.4 1.1-.8l8.4 6.8c4.1 3.3 9.6 7.7 12.2 9.7l4.8 3.7-3.8-4.6c-3.3-4.1-2.9-3.8 3.4 2.3l7.2 7-4.5 4.9c-2.5 2.7-4.6 5.2-4.6 5.4 0 .8 19.4 15.3 33.2 24.9 21.8 15.1 64.9 40.2 63.2 36.9-.3-.6-9.2-6.2-19.9-12.4-18.3-10.7-69.9-46.3-71.3-49.1-.9-1.8.5-2.4 1.5-.7 2.2 3.7 50.8 37.1 73.5 50.6 23 13.6 23.2 13.7 50.6 23.8 26.2 9.7 28.7 10.4 51.2 14.3l23.7 4.1 5.7-6.6c5.2-6 5.8-6.5 7.4-5.6 1 .5 6.8 3.7 13 7.2s11.7 6.3 12.1 6.3c.72 0 10.5-6.2 41.1-25.9l6.3-4.1.1-8.6.1-8.6 7.7-8.5c4.2-4.7 9.4-10.7 11.6-13.3l3.9-4.8 11.9-.4c7.5-.2 12.2-.9 12.7-1.9.4-.8 2.2-3.2 3.8-5.5s3.8-5.7 4.8-7.7c1.8-3.9 15.4-21.6 20.2-26.4 1.83-1.9 4.3-3 8-3.7 4.2-.8 6.4-1.9 10.63-5.5 3-2.5 5.6-4.4 5.8-4.1.2.2-1.1 1.7-3 3.3-2.8 2.4-3.2 3.2-2.3 4.1.8.8 1.8.4 3.5-1.2 1.3-1.3 3.9-3.3 5.8-4.5 3-1.9 2.9-1.7-1.1 1.7-2.57 2.1-5.47 5.1-6.5 6.7-1.65 2.4-1.6 2.9.34 4.2 3.65 2.4 29.7 20.2 100.1 68.3l203 138.6 38.3 26.1 44.2 30.1c26.6 18.1 103.23 70.4 151.3 103.3l73.6 50.2 69.3 47.3c17.03 11.6 31.14 21.2 31.3 21.2.2 0 36.3-16.9 80.2-37.5l160.3-75.2c100.16-46.9 90.66-42.3 89.5-43.4-.56-.5-32.6-24.6-71.2-53.5zM1891.7 1367c-.37.37-1.18.55-1.8.4-.65-.15-.48-.55.4-.94 1.68-.75 2.4-.47 1.4.55zm-7.23 5.6c-.97.96-1.53 1.2-1.24.52.3-.68 1.08-1.48 1.77-1.76.68-.3.44.26-.53 1.23zm-5.6 5.7c-2.13 2.16-4.53 4.08-5.35 4.26-.83.2.44-1.34 2.9-3.47 5.98-5.2 7.08-5.6 2.44-.8zm-520.42-483.56c-.4.4-.87.24-1.02-.4-.15-.62-.13-1.28.04-1.45.17-.2.63 0 1.02.3.3.4.3 1-.1 1.4zm443.23 553.78c-5.05 5.03-7.7 6.47-8.52 4.64-.36-.8-1.45-1.54-2.43-1.63-1.48-.14-1-.93 2.74-4.66 5.2-5.18 6.2-5.55 9.52-3.54 2.4 1.46 2.4 1.48-1.4 5.18zm-3.05-2.6c-.6.6-.6 1.23.04 1.38.63.15 1.44-.03 1.8-.4.37-.36.36-.98-.03-1.37-.4-.4-1.2-.2-1.8.4zm-4.2 3.5c-.63.15-.8.6-.4 1.02.4.4 1.06.43 1.45.04.4-.4.57-.85.4-1.02-.17-.17-.83-.2-1.46-.04zm-491.23-483.8c-2.08 2-12.07 12.38-22.2 23.05-14.25 15.02-18.62 19.22-19.28 18.56-.47-.48-.98-.35-1.13.28-.2.7-.6.9-1.1.4-.4-.4-1.2-.3-1.8.3s-.4 1.5.3 2.1c1.2 1.1-.3 2.8-19.9 23.1-11.7 12.1-21.9 22.4-22.7 22.9-1.8 1.2-3.2.2-1.8-1.2.5-.5.5-1.9-.1-3.1l-1.1-2.1 1.9 1.3c1.8 1.3 2.2 1 9.4-6.2 8.6-8.7 12.8-14.1 10.5-13.5-1.2.2-1.6-.1-1.6-1.3 0-1.1 3.8-5.3 12.4-13.5 11.9-11.5 12.4-11.9 15.2-11.5 2.5.4 3.3-.1 6.8-4l3.9-4.4-4.5 4.2c-3.2 3-4.9 4.1-5.9 3.6-2.1-.9-1.7-1.7 4.1-7.2 5.5-5.3 9.1-6.9 4.6-2.1-2.6 2.8-2.6 2.8 0 1.3 4.1-2.4 15-13.4 17.6-17.7 1.6-2.7 1.9-4.4 1.2-5.7-1-1.6-.9-1.9.6-1.5.9.2 1.4.1 1.1-.4-.4-.4.4-.3 1.6.3 2.9 1.2 5.4-1.7 4.1-5-1.2-2.9 1-5.3 3-3.3 1 1 2.2.9 4-.3 4.1-2.7 4.2-.7.1 3.3zm-12.56 6.9c-.4.38-.4 1.02 0 1.4.4.4 1.03.4 1.42 0 .4-.4.4-1.02 0-1.4-.4-.4-1.03-.4-1.42 0zm-44.87 49.5c-.9 1.24-.06.66 1.9-1.28 1.94-1.93 2.7-2.95 1.65-2.25-1.04.7-2.63 2.2-3.54 3.5zm-6 3.2c-.7 1.04.14.47 1.9-1.28s2.32-2.6 1.28-1.9c-1.04.7-2.47 2.14-3.18 3.18zm-1.76 4.6c-.5.87.2.46 1.6-.9 1.4-1.37 1.8-2.07.9-1.57-.8.5-1.9 1.62-2.4 2.48zm547.5 432.57c-.9 1.4-4.1 4.5-7 6.9-4.4 3.6-5.6 4.1-6.9 3.2-.8-.7-2.1-1-2.8-.9-2.5.6-.2-2.3 6.3-7.9 6.1-5.2 6.6-5.5 7.8-3.8.9 1.1 1.9 1.4 2.9.7 1.1-.7 1.1-.2-.1 1.6zm-8.1 2.1c-2.9 3.1-3 3.3-.6 1.8 3.9-2.4 5.4-3.8 4.6-4.6-.4-.4-2.2.8-4 2.7zm-500.2-464.2c-13.6 13.8-28.2 28.3-32.5 32.1-4.3 3.8 6.7-7.6 24.4-25.5s32.4-32.3 32.6-32.1c.2.2-10.8 11.6-24.4 25.4zm490 478.3c-3.6 3.8-3.7 3.8-3.3 1.2.3-1.9 1-2.8 2-2.9.9-.1 2.4-.7 3.3-1.2 1-.6.1.7-2 2.9zm-.9-4.2c-.2 1-2.2 2.6-7.8 6.1-3.4 2.1-3.4 2.1.7-2.1 4-4.1 7.6-6.2 7.1-4.1zm-12.9 16.6c-.8.8-1.2.8-.8 0 .3-.7 1-1.3 1.4-1.3s.3.6-.5 1.3zm-11.4 4c-1.9 1.9-2.8 2.5-1.9 1.3 1-1.3 2.5-2.8 3.6-3.5 1.1-.7.3.3-1.6 2.2zm-6.3 6.4c-1.2 1.1-1.7 1.4-1.2.5.6-.9 1.5-1.8 2.2-2.1.7-.3.3.4-.9 1.6zm-6.3 5.1c-.8.8-1.2.8-.8 0 .3-.7 1-1.3 1.4-1.3s.2.6-.5 1.3zm-7.4 12.9c-1 1-1.5 1.2-1.2.5.3-.7 1.1-1.5 1.8-1.8.7-.3.5.2-.5 1.2zm-13.1 12.5c-5 4.6-9.4 8.3-9.7 8.3-.3 0 2.4-2.8 5.9-6.3 5.1-5.1 6.3-6.7 5.8-7.9-.5-1.3-1.6-.6-6.2 3.9-3 2.9-7.8 7.2-10.7 9.4-3.5 2.7-1.9.9 5.4-5.9 8.6-8.1 11.2-10 13.6-10.4 6.4-1 5.8.2-3.9 8.9zm-19.4 17.1c-2.1 2.2-3.1 2.9-2.2 1.7.9-1.3 2.7-3 3.9-3.9 1.3-.9.5.1-1.6 2.2zm-8.8 1.8c-1.9 1.9-2.8 2.5-1.8 1.3.9-1.2 2.5-2.8 3.6-3.5 1-.7.3.3-1.6 2.2zm-3.5 9.4c-4.3 4.4-8.2 7.9-8.6 7.8-.5-.1 2.2-3 5.8-6.5 10.3-9.6 11.5-10.2 2.9-1.4zm-2-3.7c-1.1 1.1-1.7 1.4-1.2.5s1.5-1.8 2.2-2.1c.7-.3.3.4-.9 1.6zm-9.2 8.4c-3.9 3.5-7.3 6.3-7.6 6.4-1 0 9.4-9.6 12.1-11.2 1.5-.9-.5 1.3-4.4 4.7zm-1.4 6.3c-1.6 1.5-2.3 1.9-1.6.9.7-1.1 2-2.3 2.9-2.8.9-.5.3.3-1.3 1.9zM1071.5 1372c.5 1.3.4 1.7-.3 1-.6-.6-1.4-2-1.8-3.1-.5-1.23-.4-1.6.3-.92.6.6 1.4 2 1.9 3.1zm3.2 6.8c.9 2.6.88 2.8-.3.9-1.5-2.5-2.6-5.9-1.52-4.8.4.4 1.2 2.1 1.8 3.9zm7.2 13.77c1.4 3.04 2.4 5.5 2.1 5.5-.7 0-6.5-11.5-6.1-11.93.5-.46 1.1.54 3.9 6.4zm189.4 213.2c-.8.8-1.6 1.3-1.7 1.14-.2-.1.2-1 .78-2 .58-.9 1.34-1.5 1.7-1.1.34.4 0 1.3-.8 2.1zm-18.4-20.2c-.9-.5-1.8-1.5-2.1-2.16-.3-.6.4-.2 1.6 1 1.16 1.2 1.4 1.7.5 1.2zm-8.9-8.9c-.7-.3-1.3-.94-1.3-1.4s.6-.23 1.3.55c.8.9.8 1.2 0 .9zm-43.62-39c.2 5.84 0 7.1-1.2 5.94-.3-.3-.3-3.2 0-6.4s.7-5.7.8-5.5c.1.1.3 2.9.45 6zm-23.9-28.1c-.4.4-1 .4-1.4-.03-.4-.4-.23-.9.4-1.03.6-.1 1.3-.1 1.46.1.2.2 0 .7-.4 1zm-3.9 1.8c-.6.14-1.3.1-1.4-.05-.15-.1 0-.6.4-1 .4-.34 1.05-.3 1.46.1.4.4.24.86-.4 1zm-5.1 4.4c-.3.3-1.32.7-2.3.9-1.4.3-1.42.06-.14-1.24.85-.9 1.9-1.3 2.26-.9.4.35.5.9.2 1.2zm1506.7 388c.3.7 1.1 1.5 1.8 1.77.7.3.47-.26-.5-1.24s-1.5-1.2-1.2-.52zm-9.5-9.6c0 .5.6 1.1 1.3 1.4.8.4.8 0 0-.8-.7-.8-1.3-1.08-1.3-.6zm3.6 4.97c0 .48.6 1.1 1.3 1.4.8.36.8 0 0-.83-.7-.7-1.3-1-1.3-.5zm-9.2-9.2c0 .5.6 1.1 1.3 1.4.8.36.8 0 0-.83-.7-.7-1.3-1-1.3-.5zm3.84 5.35c.3.7 1.08 1.5 1.76 1.8.7.3.44-.3-.5-1.3-1-1-1.56-1.2-1.27-.5zm-8.8-8.9c0 .4.6 1.1 1.3 1.4.8.3.8 0 0-.9-.7-.8-1.3-1.1-1.3-.6zm3.1 4.6c.3.7 1.2 1.6 2.1 2.1.9.5.6-.1-.5-1.2-1.2-1.2-1.9-1.6-1.6-1zm-14.4-13.1c0 .5.6 1.1 1.3 1.4.8.3.8 0 0-.9-.7-.8-1.3-1-1.3-.6zm-5.63-4.3c0 .5.5 1.1 1.3 1.4.8.3.8 0 0-.8s-1.3-1-1.3-.6zm-5.7-4.2c0 .5.6 1.1 1.3 1.4.8.3.8 0 0-.9-.7-.8-1.3-1.1-1.3-.6zm-16.3-12c0 .5.6 1.1 1.3 1.4.8.3.8 0 0-.9-.7-.8-1.3-1-1.3-.6zm-5.7-4.3c0 .4.6 1.1 1.3 1.4.8.3.8 0 0-.9-.7-.8-1.3-1-1.3-.5zm-5.7-4.3c0 .5.6 1.1 1.3 1.4.8.4.8 0 0-.8-.7-.8-1.3-1.1-1.3-.6zm-11.3-8.5c0 .4.5 1.1 1.3 1.4.8.3.8 0 0-.9-.8-.8-1.3-1-1.3-.6zm-5.7-4.3c0 .5.5 1.1 1.3 1.4.8.3.8 0 0-.9-.8-.7-1.3-1-1.3-.5zm-16.7-12.4c.3.7 1.1 1.5 1.8 1.8.7.3.4-.2-.6-1.2s-1.5-1.2-1.3-.5zm-5.2-3.9c0 .5.6 1.1 1.3 1.4.8.4.8 0 0-.8-.7-.8-1.3-1-1.3-.6zm-5.7-4.2c0 .5.6 1.1 1.3 1.4.8.4.8 0 0-.8-.7-.8-1.3-1.1-1.3-.6zm-5.7-4.2c0 .4.6 1.1 1.3 1.4.8.3.8 0 0-.9-.7-.8-1.3-1-1.3-.6zm-5.6-4.3c0 .4.6 1.1 1.3 1.4.8.3.8 0 0-.9-.7-.8-1.3-1-1.3-.6zm-5.7-4.3c0 .5.6 1.1 1.3 1.4.8.4.8 0 0-.8-.7-.8-1.3-1-1.3-.6zm-33.3-24.7c0 .4.6 1.1 1.3 1.4.8.3.8 0 0-.9-.7-.8-1.3-1.1-1.3-.6zM1469.6 745.5c-.62.6.28.66 1.97.13 3.9-1.23 4.66-2.02 1.53-1.58-1.33.18-2.9.83-3.5 1.44zm1035.86 1031.7c-.4.38-.57.84-.4 1 .17.18.83.2 1.46.05.63-.14.8-.6.4-1-.42-.43-1.07-.44-1.46-.06zm-8.02-7.17c0 .47.6 1.1 1.3 1.42.8.33.8 0 0-.86-.7-.8-1.3-1.1-1.3-.6zm-5.66-4.24c0 .4.6 1.1 1.3 1.4.8.3.8 0 0-.9-.7-.8-1.3-1.1-1.3-.6zm-10.6-7.8c0 .4.58 1.1 1.3 1.4.8.3.8 0 0-.9-.72-.8-1.3-1.1-1.3-.6zm-5.66-4.3c0 .4.6 1.1 1.3 1.4.8.3.8 0 0-.9-.7-.8-1.3-1.1-1.3-.6zm-5.65-4.3c0 .4.6 1.1 1.3 1.4.8.3.8 0 0-.9-.7-.8-1.3-1.1-1.3-.6zm-5.65-4.3c0 .4.6 1.1 1.3 1.4.8.3.8 0 0-.9-.7-.8-1.3-1-1.3-.6zm-5.65-4.3c0 .5.6 1.1 1.3 1.4.8.3.8 0 0-.9-.7-.8-1.3-1.1-1.3-.6zM1462.73 749c-1.45 1-1.65 1.55-.7 1.97 1.5.67 1.52.66 2.44-1.4.93-2.08.66-2.17-1.73-.56zm984.5 983.38c0 .46.6 1.1 1.3 1.4.8.33.8 0 0-.86-.7-.76-1.3-1-1.3-.54zm-10.6-7.8c0 .46.6 1.1 1.3 1.4.8.34.8 0 0-.86-.7-.8-1.3-1.04-1.3-.57zm-5.64-4.26c0 .46.5 1.1 1.3 1.4.7.34.7 0 0-.86-.8-.8-1.3-1.05-1.3-.58zm-5.7-4.26c0 .45.6 1.1 1.3 1.4.8.32.8 0 0-.87-.7-.8-1.3-1.1-1.3-.6zm-5.7-4.26c0 .47.6 1.1 1.3 1.4.8.35.8 0 0-.85-.7-.8-1.3-1.04-1.3-.6zM1458.5 752c-.17-.74-.65-.44-1.3.8-.6 1.16-1.33 1.68-1.75 1.26-.4-.4-1.02-.1-1.38.72-.37.8-1.05 1.08-1.5.6-.53-.5-1.17-.2-1.6.8-.4.9-1.4 1.47-2.2 1.28-1.1-.25-5.44 3.53-17.6 15.36l-16.15 15.7-1.47 10.22c-.8 5.63-1.4 11.82-1.3 13.76.1 1.94 0 2.83-.25 2-.32-1.17-3.8 19.6-4.2 25.12 0 .5 2.9-2 6.5-5.55 4.9-4.8 8-7.1 12.3-9.1 3.2-1.48 5.8-2.7 5.85-2.75.03-.04-.48-3.6-1.15-7.93-.8-5.3-.68-9.8.4-13.7.87-3.2 1.53-7.4 1.46-9.4-.08-2 .2-3.9.56-4.3.38-.4.75.5.83 2 .1 1.8 2-2.1 6.02-12.5l5.9-15.2 6.84-4c6.3-3.7 9.7-6.1 6.8-4.8-.7.3-1.4 0-1.5-.7zm-25.88 30.17c-1.62.75-2.94 1.8-2.94 2.26s.5.36 1.13-.27 1.7-1 2.4-.86c.9.2.7.63-.4 1.24l-5.6 3.26c-2.9 1.7-3.8 1.88-3.5.67.3-1.2-.2-1.1-1.6.34-1.1 1.1-1.5 2.1-.9 2.2.6.2.7 1 .4 1.8-1 2.3-1.7 2.7-1.2.7.7-3.2-1.6 0-3.3 4.7-1.1 3.1-1.8 4-2.2 3.1-.9-1.9 2.7-9.1 6.3-12.7 3.5-3.4 12-8.4 13.7-8 .6.2-.3.9-1.9 1.7zm-6.15 3.96c-.35.8 0 .8.85 0 .78-.72 1.03-1.3.56-1.3s-1.1.58-1.4 1.3zM2414 1707.8c0 .46.6 1.1 1.3 1.4.8.34.8 0 0-.86-.7-.78-1.3-1.03-1.3-.56zm-5.36-3.88c.3.68 1.1 1.48 1.77 1.77.7.3.5-.3-.5-1.3-.9-1-1.5-1.2-1.2-.5zm-5.95-4.62c0 .48.6 1.12 1.3 1.42.8.34.8 0 0-.85-.7-.77-1.3-1.03-1.3-.56zm-5-3.52c0 .47.6 1.1 1.3 1.4.8.35.8 0 0-.85-.7-.78-1.3-1.03-1.3-.56zm-6.4-4.95c0 .47.5 1.1 1.3 1.4.8.35.8 0 0-.85-.8-.78-1.3-1.03-1.3-.56zm-4.7-3.18c.3.67 1.2 1.64 2.1 2.14.8.5.6-.1-.6-1.3s-1.9-1.6-1.6-1zm-6-4.6c0 .46.6 1.1 1.3 1.4.8.34.8 0 0-.86-.7-.8-1.3-1.1-1.3-.6zm-5.4-3.88c.3.68 1 1.48 1.7 1.77.7.3.4-.27-.5-1.24s-1.6-1.2-1.3-.53zm-6-4.62c0 .47.5 1.1 1.3 1.4.8.35.8 0 0-.84-.8-.7-1.3-1-1.3-.5zm-4.7-3.15c.3.68 1.1 1.48 1.7 1.77.7.3.4-.27-.5-1.24-1-.98-1.5-1.2-1.2-.53zm-5.7-4.24c.3.68 1.1 1.48 1.8 1.77.7.3.4-.27-.5-1.24s-1.6-1.3-1.3-.6zm-5.7-4.25c.3.7 1.1 1.5 1.7 1.8.7.3.4-.2-.6-1.2-1-.9-1.5-1.2-1.3-.5zm-5.7-4.2c.3.7 1.1 1.5 1.7 1.8.7.3.5-.2-.5-1.2s-1.5-1.2-1.2-.5zm-5.7-4.2c.3.7 1.2 1.7 2.1 2.2.8.5.6 0-.6-1.2s-1.9-1.6-1.6-.9zm-5.7-4.2c.3.7 1.1 1.5 1.7 1.8.6.3.4-.2-.6-1.2-1-.9-1.5-1.2-1.2-.5zm-5.7-4.2c.3.7 1.2 1.7 2.1 2.2.9.5.6 0-.5-1.2s-1.9-1.6-1.6-.9zM1984 1301.9c-.35.8 0 .8.84 0 .8-.7 1.03-1.3.56-1.3s-1.1.6-1.4 1.3zm340.8 340c.3.7 1.24 1.7 2.1 2.2.88.5.64 0-.5-1.2-1.15-1.2-1.86-1.6-1.6-.9zm-5.64-4.2c.3.7 1.2 1.6 2.1 2.2.9.5.6-.06-.5-1.2s-1.9-1.6-1.6-.97zm-5.68-4.2c.3.7 1.2 1.66 2.1 2.17.83.5.6-.02-.5-1.2s-1.9-1.6-1.6-.93zm-5.7-4.22c.3.7 1.2 1.7 2.1 2.2.85.5.6-.03-.5-1.22-1.2-1.2-1.9-1.6-1.6-.9zm-327.4-322.3c-.3.7.3.5 1.25-.5 1-.93 1.2-1.5.56-1.2-.7.3-1.5 1.06-1.8 1.75zm298.66 300.6c-8.63-6.5-15.45-11.3-15.17-10.7.7 1.3 35.5 27.5 36.55 27.4.45-.03-.66-1.14-2.44-2.46l-18.9-14.2zm-23.6-17.5c-2.8-2-3.24-2.1-1.68-.4 1.14 1.2 3.6 3.16 5.5 4.4 4.5 2.95 1.2-.46-3.82-3.97zm-8.13-5.7c.5.9 1.6 2 2.5 2.5.9.5.5-.2-.9-1.53s-2.1-1.75-1.5-.9zm-5.7-4.2c.5.9 1.6 2 2.5 2.5.9.5.5-.2-.9-1.54s-2-1.8-1.5-.95zm-6-4.6c.3.66 1.2 1.63 2.1 2.13.9.5.7-.1-.5-1.2-1.1-1.2-1.8-1.6-1.5-.9zm-5.3-3.87c.5.8 1.6 2 2.5 2.5.9.5.5-.2-.9-1.5s-2-1.8-1.5-.9zm-6-4.7c.3.7 1.2 1.7 2.1 2.2s.7-.1-.5-1.2c-1.1-1.2-1.8-1.6-1.6-.9zm-5.7-4.2c.3.7 1.2 1.7 2.1 2.2.9.5.6 0-.5-1.2s-1.9-1.6-1.6-.9zm-5.6-4.2c.3.7 1.1 1.5 1.8 1.8.7.3.5-.3-.5-1.2-.9-.9-1.5-1.2-1.2-.5zm-5.6-4.2c.3.7 1.3 1.6 2.1 2.1.9.5.7 0-.5-1.2s-1.8-1.6-1.6-.9zm-5.6-4.2c.3.7 1.2 1.7 2.1 2.2.9.5.6-.1-.5-1.2s-1.9-1.6-1.6-.9zm-232-228c-.9 1.6-4.3 3.2-12.9 6l-11.6 3.9-16.2-3.8c-8.9-2-17.1-3.9-18.2-4.1-1.8-.3-2.1.1-4.6 4.7-1.4 2.8-3.4 5.8-4.4 6.8-.9.9-.1-1.3 2-4.9 2.1-3.6 3.4-6.8 3.1-7.2-.8-.8-.4-1.3-4.5 6.1-3.7 6.7-7.9 11.4-11.3 12.7-1.3.5-.7-.3 2-2.4 2.8-2.3 5-5 7.5-9.7 2-3.6 3.5-6.9 3.3-7.4-.1-.4-6.4-2.9-13.9-5.5s-20.3-7.8-28.5-11.5c-12-5.4-15-6.4-15.5-5.2-5.4 13.4-13.1 24-19.4 26.5-2.1.9-4.4 2.2-5.2 2.9-.7.7-2.7.9-4.4.3-5-1.6-5.1-2.6-.2-2.2 9.9.6 19.9-9.1 26.7-26 1.1-2.6 1.7-5 1.5-5.3-1.3-1.2-2.4-.2-3.8 3.2-5.9 14.8-19.2 29.5-24.6 27.1-1.2-.5-.9-.7 1.8-1.6 5.3-1.7 11.9-7.7 15.3-13.7 6.1-11.1 7.8-15.8 6.1-16.6-7.4-3.3-49.1-29.9-65.5-41.9-5.5-4-6.9-4.7-7.4-3.4-7.7 18.7-15 31-20.8 35-4.8 3.3-4.4 1.5.6-3 5.3-4.7 10.7-13.1 15.5-23.9 4.2-9.6 4.2-10.2-.3-13-3.4-2.2-13.3-9.8-34.5-26.7-6-4.8-10.3-7.7-11.2-7.4-1.2.3-1.3.1-.6-.6 1.4-1.5-2.5-4.6-4-3.3-1.2 1.1-1.2 1-.4-.3.5-.8.4-1.8-.2-2.1-1.4-.7-18.8-17-41.5-38.7-9.7-9.3-22.1-21-27.4-25.9-5.3-4.9-12.6-12.6-16.2-16.9-3.7-4.4-15.2-17.5-25.7-29.2l-31-34.7c-6.6-7.4-13.6-15.6-15.5-18.4-1.9-2.7-5.3-7.3-7.4-10.2-2.2-2.9-5.7-7.6-7.8-10.6-2.1-2.9-6.5-8.4-9.8-12.1s-6.1-7.6-6.5-8.6c-.3-1-1.2-2.1-1.9-2.4-.7-.4-4.5-5.1-8.3-10.6-12.2-17.5-10.6-16.1-16.5-14.1-10.9 3.6-19.4 8.3-25.2 13.9-7 6.7-8.4 6.1-1.6-.7 5.5-5.5 14.5-10.5 25.4-14.1 6.1-2.1 6.2-2.1 5.3-4-.5-1.1-1.1-1.9-1.4-1.9-.2 0-4.3 1.6-9.1 3.6-10.8 4.3-19.3 9.6-23.8 14.6-3.2 3.7-3.3 4-1.7 7.1 1 2.1 1.1 3 .2 2.6-.7-.4-.4 0 .9 1 3 2.3 5.1 5.9 3.7 6.2-.7.2-.1.9 1.7 2.1 2.2 1.4 2.5 1.9 1.4 2.1-1 .2-.9.6.5 1.5 1.1.6 1.6 1.4 1.2 1.8-.4.4.2 1.4 1.4 2.2 1.2.8 1.8 1.8 1.4 2.2-.3.3.2 1.1 1.1 1.7 1 .5 1.7 1.5 1.6 2.1-.2.6.7 1.7 1.9 2.5 1.6 1 1.8 1.4.8 1.6-1 .2-.7.8.9 1.8 1.2.9 1.9 1.9 1.5 2.2-.4.4.3 1.3 1.5 2 1.4.9 1.9 1.7 1.4 2.2-.5.5 0 1.4 1.3 2.2 1.1.8 1.8 1.7 1.4 2.1-.4.4.3 1.3 1.4 2 1.2.8 1.9 1.8 1.6 2.3-.3.6 1.1 2.8 3 4.8 1.9 2.1 3.1 3.8 2.5 4-.5.2.3 1.1 1.8 2.1 2.1 1.3 2.5 1.8 1.5 2.1-.9.2-.5.8 1.5 2.2 1.5 1.1 3.8 3.5 5 5.4 1.7 2.7 1.8 3.1.3 1.9-1.1-.9-.3.8 1.7 3.9 1.9 3.1 3.8 5.5 4.2 5.5.4 0 .2-.5-.4-1.2-.6-.6-.8-1.5-.4-1.8.4-.4 1.1-.4 1.5 0 .4.4 1.3.1 2-.6 1.4-1.4 11.7-5.9 11.7-5.1 0 .2-2.7 1.9-6 3.6-7.4 3.9-7.5 4-5.4 5.6 1.3.9 3.3.4 8.8-2.3 3.9-2 7.7-3.5 8.4-3.6 2.3 0 0 1.5-6.8 4.6-3.6 1.6-7.1 3.5-7.8 4.2-1 1-1.9.8-3.4-.5-1.4-1.2-1.6-1.3-.9-.2 2.8 4 41.1 49 45.5 53.5 2.7 2.8 4.1 4.6 3.1 4.1-1.7-.9 7.3 12.9 10.7 16.3.8.8 1.9 2.9 2.4 4.6.8 2.6 5.3 7.4 28.8 30.9 25.9 25.7 28.8 28.5 39.9 36.5 6.6 4.7 19.2 14.1 28 20.9 43.5 33.4 64.2 49.2 66.2 50.5 1.2.8 9 5.2 17.3 10 10 5.7 15.1 8 14.9 7-.1-1 .3-.6 1.3.9.9 1.4 1.7 2.1 1.8 1.6.1-.5 1.4.2 2.8 1.6 1.5 1.3 3.1 2.2 3.7 1.9.6-.3 1.2-.2 1.3.3.4 1.4 14 8.8 14.2 7.7.1-.5.5-.3.9.4 2 4.5 44.7 22.2 63.6 26.4 3.4.8 6.7 1.7 7.2 2 4 2.6 18.2 6.5 23.1 6.4 4-.1 4.9.1 2.7.6-2.6.6-3 .9-2.1 1.8.5.58 2.2.3 3.6-.62 2.8-1.8 4.3-1.3 2.8 1.1-.6 1.2-.5 1.2.8.1 1.1-.9 1.3-1.9.7-2.52-.6-.6-.4-1.7.4-2.5s1.8-1 2.3-.5c.5.5 1.8.6 2.9.2 5.3-1.7 21.1-3 22.3-1.9 1.9 1.8 5.5 1.4 5.1-.5-.4-1.8.1-2.1 5.1-3.7 2.2-.7 7.5-2.9 11.9-5 6.7-3.1 9-4.7 14.4-10.1 6.1-6.1 9.1-10 8.4-10.8-.2-.2-1 .7-1.7 1.9zm-86.9 28.3c-2.8-.4-19.1-5-21.5-6.1-1.7-.8 8.6 1 14.5 2.5 3.1.8 6.7 2.1 7.9 2.7l2.3 1.3-3.1-.4zm-113.6-92.9c-4.4 11.4-9.4 20-16 26.9-7 7.6-7.8 7.8-11.4 4.2l-2.1-2.1 3.3 1.3c2.5 1 3.9.8 6.1-.7 4.3-2.9 12.3-15.1 16.8-25.8 4.1-9.5 6.8-12.4 3.4-3.6zm-63.7-41.8c-1.2.7-1.8.7-1.5 0 .4-.7 1.3-1.2 2.2-1.2 1 0 .8.4-.7 1.3zm-17.4 7.2c-3.7 1.6-14.6 3.9-19.5 4-2.4.1-4.6.4-4.9.6-.3.3-2.1-.3-4-1.4-4.2-2.3-4.6-2.6-3.8-3.4.3-.3 2.3.3 4.4 1.3 3.1 1.6 5.8 1.7 13.7.6 5.4-.8 11.2-1.9 12.9-2.4 3.9-1.2 4.7-.8 1.3.7zm-4.9-4.1c-5.1 2.3-12.9 3.9-18.8 4.1-7.4.2-7.6-1-.3-1.7 5.4-.5 8.9-1.1 20.4-3.4 1.6-.3 1.2 0-1.2 1.1zm44.5 59.5c-.7-.3-1.3-.9-1.3-1.4s.6-.2 1.3.6c.8.9.8 1.2 0 .9zm-3.5-2.1c-.7-.3-1.5-1.1-1.8-1.7-.3-.7.3-.4 1.3.6s1.2 1.5.6 1.2zM1597.4 1152c-1.1.5-4.9 1.54-8.6 2.3-6.1 1.3-6.9 1.2-9.3-1.14-2.9-2.9-3.1-4.7-.3-4.4 1 .1 4.5-.4 7.6-1.1 3.2-.64 5.7-.9 5.7-.52 0 .88-7.5 2.8-11.6 3-2.5.2-2.8.4-1.9 1.3 2.2 2.2 4.3 2.5 9.5 1.5 2.9-.53 5.5-1.3 5.9-1.6.3-.3 1.6-.5 2.8-.33 2 .2 2 .3.3 1.1zm116.5 116.4c-.7-.3-1.5-1.08-1.8-1.77-.3-.7.3-.42 1.2.55 1 1 1.2 1.57.6 1.28zm-24-18.38c-.7-.3-1.5-1.1-1.7-1.8-.3-.7.24-.47 1.2.5 1 .95 1.2 1.5.55 1.2zm-123-116c-.6-.3-1.4-1.1-1.7-1.8-.3-.7.3-.5 1.3.5s1.2 1.5.6 1.2zm623.8 407.3c0 .4.6 1.1 1.3 1.4.8.3.8 0 0-.9-.7-.77-1.3-1.03-1.3-.56zm-5.3-3.9c.3.7 1.1 1.5 1.8 1.74.7.3.5-.26-.5-1.24s-1.5-1.3-1.2-.6zm-5.9-4.6c0 .4.6 1.1 1.3 1.4.8.3.8 0 0-.9-.7-.8-1.3-1-1.3-.56zm-5.3-3.9c.3.7 1.1 1.5 1.8 1.75.7.3.5-.3-.5-1.24-.93-.9-1.5-1.2-1.2-.5zm-5.2-3.9c0 .44.6 1.1 1.3 1.4.8.3.8 0 0-.87-.7-.8-1.3-1-1.3-.56zm-5.35-3.9c.3.7 1.1 1.5 1.77 1.8.7.3.5-.2-.5-1.2s-1.5-1.2-1.2-.5zm-5.66-4.2c.3.7 1.1 1.5 1.8 1.8.6.3.4-.2-.6-1.2-1-.9-1.6-1.2-1.3-.5zm-6-4.6c0 .5.5 1.1 1.3 1.4.8.4.8 0 0-.8-.8-.7-1.3-1-1.3-.5zm-5.7-4.2c0 .5.6 1.1 1.3 1.4.8.4.8 0 0-.8-.7-.7-1.3-1-1.3-.5zm-5.7-4.2c0 .5.6 1.1 1.3 1.4.8.4.8 0 0-.8-.7-.8-1.3-1-1.3-.5zm-5.7-4.2c0 .5.6 1.1 1.3 1.4.8.4.8 0 0-.8-.7-.75-1.3-1-1.3-.5zm-5.4-3.8c.3.64 1.1 1.44 1.8 1.73.7.3.5-.3-.5-1.3s-1.5-1.2-1.3-.5zm-5.9-4.66c0 .45.6 1.1 1.3 1.4.8.33.8 0 0-.86-.7-.8-1.3-1.02-1.3-.55zm-5.4-3.9c.3.7 1.1 1.5 1.8 1.8.7.3.4-.26-.6-1.23-1-.9-1.6-1.2-1.3-.5zm-5.6-4.2c.3.65 1.1 1.45 1.7 1.74.6.3.4-.3-.6-1.23-1-1-1.5-1.2-1.2-.5zm-5-3.56c.3.7 1.1 1.5 1.8 1.78.7.3.5-.3-.5-1.22s-1.5-1.2-1.3-.54zm-5.9-4.6c0 .46.6 1.1 1.3 1.4.8.3.8 0 0-.85-.7-.8-1.3-1-1.3-.6zm-5.4-3.9c.3.7 1.1 1.5 1.8 1.8.7.3.5-.2-.5-1.2s-1.6-1.2-1.3-.5zm-6.4-5c.3.7 1.3 1.68 2.1 2.2.9.5.7 0-.5-1.2-1.1-1.2-1.8-1.6-1.5-.9zm-7-3.4c-.3.8 0 .8.9 0 .8-.7 1-1.3.5-1.3s-1.1.6-1.4 1.3zm-3.9-3.9c0 1.3.4 1.7 1.7 1.7s1.3-.4 0-1.7-1.7-1.3-1.7 0zm-5.6-5c0 .5.6 1.1 1.3 1.4.8.4.8 0 0-.8-.7-.8-1.3-1-1.3-.54zm-5.7-4.2c0 .5.6 1.1 1.3 1.4.8.37.8 0 0-.8-.7-.8-1.3-1-1.3-.6zm-5.7-4.2c0 .5.6 1.1 1.3 1.4.8.3.8 0 0-.84-.7-.8-1.3-1-1.3-.6zm-5.7-4.24c0 .43.6 1.1 1.3 1.4.8.3.8 0 0-.88-.7-.78-1.3-1-1.3-.56zm-5.7-4.28c0 .46.6 1.1 1.3 1.4.8.34.8 0 0-.85-.7-.73-1.3-1-1.3-.5zm-5.7-4.25c0 .5.6 1.1 1.3 1.4.8.4.8 0 0-.8-.7-.76-1.3-1-1.3-.54zm-5.7-4.2c0 .48.6 1.1 1.3 1.4.8.36.8 0 0-.83-.7-.8-1.3-1.02-1.3-.6zm-5.7-4.23c0 .48.6 1.1 1.3 1.4.8.36.8 0 0-.83-.7-.8-1.3-1-1.3-.56zm-5.6-4.23c0 .5.6 1.1 1.3 1.4.8.34.8 0 0-.8-.7-.8-1.3-1-1.3-.6zm-5.7-4.2c0 .4.6 1.1 1.3 1.4.8.3.8 0 0-.9-.7-.8-1.3-1.05-1.3-.6zm-5.6-4.3c0 .45.6 1.1 1.3 1.4.8.3.8 0 0-.86-.7-.8-1.3-1-1.3-.6zm-5.7-4.26c0 .5.6 1.1 1.3 1.4.8.3.8 0 0-.9-.7-.8-1.3-1-1.3-.6zm-11.3-8.5c0 .5.6 1.1 1.3 1.4.8.3.8 0 0-.8-.7-.7-1.3-1-1.3-.5zm-11.3-8.5c0 .5.6 1.1 1.3 1.4.8.4.8 0 0-.8-.7-.8-1.3-1-1.3-.6zM1941 1347c0 .4.8.5 1.8 0 1.4-.6 1.4-.8 0-.8-.9 0-1.7.4-1.7.8zm36.1 34.8c0 .5.6 1.1 1.3 1.4.8.4.8 0 0-.8-.7-.7-1.3-1-1.3-.5zm-4.9-3.5c0 .5.6 1.1 1.3 1.4.8.4.8 0 0-.8-.7-.8-1.3-1-1.3-.5zm-5.6-4.2c0 .5.6 1.1 1.3 1.4.8.3.8 0 0-.8-.7-.8-1.3-1-1.3-.5zm-5.7-4.2c0 .4.6 1.1 1.3 1.4.8.3.8 0 0-.9-.7-.8-1.3-1-1.3-.6zm-5.6-4.3c0 .5.6 1.1 1.3 1.4.8.4.8 0 0-.8-.7-.7-1.3-1-1.3-.5zm-18.2-16.7c-2.3 1.1-2.3 1.1 0 3.4 3.4 3.4 4.8.7 1.9-3.5-.2-.3-1.1-.2-1.96.2zm6.8 8.3c0 .5.6 1.1 1.3 1.4.8.4.8 0 0-.8-.7-.8-1.3-1-1.3-.6zm-23.1-5.1c-8.8 1.8-18 2.7-19.4 1.9-.8-.4-.6.1.3 1.2 1.4 1.6 3.63 1.6 13.1 0 6.25-1 11.6-2.1 11.8-2.3 1.24-1.2-1.47-1.6-5.9-.7zm-471.6-460c-9.16 3.4-16.15 8.3-20.07 14.1-1.6 2.4-3.1 5-3.3 5.7-.9 3.2-.5 7.5.7 8.9 1 1.1.7 1.1-1.2 0-2.04-1.2-2.3-1.2-1.2.1.8.9 2.8 4.3 4.5 7.5 3.65 7 4.82 7.75 1.83 1.2-2.8-6-2.86-8.23-.1-2.92 6.34 12.3 13.94 29.9 12.7 29.4-.8-.3-.3.2 1.1 1.1 1.7 1.1 2.1 1.7 1.3 1.9-.76.2-.5.7.7 1.4 1.5.9 1.6 1.2.5 1.5-1 .3-1.06.5-.1.7 2 .5 4.3 4.7 2.7 5-.9.2-.7.6.4 1.1 2.3 1 4.6 5 3.1 5.3-.7.2-.7.5.1.6.7.2 2.1 1.6 3.03 3 1.3 2 1.3 2.6.2 2.3-1-.2-.4.6 1.5 2.2 3 2.5 3.2 2.5 5.3 0 3.7-4.4 15.3-11.4 24.5-14.7 4.8-1.7 8.7-3.6 8.6-4.2-.1-.5-3.8-7.1-8.3-14.5-9.2-15.1-10.1-16.6-21.4-38.7-4.5-8.6-8.6-15.7-9.2-15.7-.6.1-4.7 1.6-9 3.4-6.7 2.8-8.8 4.2-13.5 8.9-3.9 4-5.7 6.4-6.1 8.5-.3 1.6-1.1 3.2-1.7 3.5-.6.3-.6-1.1 0-3.2 1.9-6 12.1-15.5 20.8-19.4 9.4-4.2 10.2-4.6 9.4-5.4-.4-.3-3.8.5-7.7 1.9zm398.4 508.7c-4.6 3.9-5.4 4.9-4.5 5.8.8.9 2.1.1 5.9-3.7 4.05-4 5.9-6.8 4.5-6.7-.2 0-2.85 2.2-5.9 4.8zm-506.1-511.4c-31.9-25.7-58.75-47.3-80-64.5-12.3-9.9-38.3-30.7-57.7-46.2s-39.1-31.3-43.7-35.2c-4.5-3.8-19.8-16.2-33.9-27.6l-51.1-41.2c-82.06-66.6-153.36-124-172.26-139-11.9-9.4-23.33-18.7-25.42-20.5-6.2-5.2-30.2-24.7-84.85-68.6-28.26-22.7-52.93-42.5-54.83-44.1-8.2-6.9-88.5-71.6-134.6-108.6-15.7-12.6-33.7-27.1-39.9-32.2-6.2-5.1-26-21.14-44.2-35.7-18.1-14.56-37.8-30.47-43.8-35.35-13.2-10.7-52.6-42.6-62.9-50.9L375.6 110c-16.1-13-39-31.5-50.8-41-20.2-16.3-46.6-37.7-56.2-45.6-2.3-1.9-5.5-4.4-7.1-5.6l-2.9-2.1-26.1 37.8c-14.4 20.8-31.9 46.1-38.8 56.2-49.5 72-59.8 87-60.7 88.9-.5 1.2-5.8 9.1-11.8 17.5-18.5 26.3-43.9 62.7-45.8 65.9-1 1.7-4.2 6.5-7.1 10.6-14.3 20.3-50 72.4-52 76-1.5 2.8-1.9 4.6-1.1 5.7.6.9 59.4 45.5 130.6 99.1 71.2 53.7 146.3 110.3 166.9 125.8 20.6 15.6 41.3 31.2 46 34.6 9.1 6.8 82.5 62.3 130.1 98.3 87.6 66.4 104.4 79 105.2 79.2.5.2 3.6 2.6 6.9 5.4 3.3 2.9 13.8 11.1 23.3 18.3l40.4 30.5c12.7 9.6 25.5 19.3 28.6 21.6 3.1 2.4 11.1 8.4 17.7 13.5 6.7 5 14.4 10.9 17.3 13.1 2.9 2.2 13.2 10 22.9 17.2 9.7 7.3 19.5 14.7 21.7 16.5 2.2 1.8 4.3 3.3 4.7 3.4.3.1 5.2 3.8 10.9 8.2s12.5 9.7 15.2 11.6l13.4 9.9c4.7 3.5 13.2 9.7 18.8 13.7 5.7 4.1 12.9 9.6 16 12.4 3.1 2.8 8.4 6.8 11.6 8.9 13.8 9 15.2 10.1 14.9 12-.1 1 .6 2.4 1.8 3.3 1.1.8 35.6 26.8 76.6 57.7 41 30.9 76.9 57.9 79.6 59.8 2.8 2 6 4.5 7.1 5.6 1.2 1.1 2.9 2.2 3.9 2.4 1.4.3 1.2-.1-.9-1.6-1.5-1-2.4-2.2-2.1-2.5.4-.3 2.3.6 4.3 2.1s4.1 2.6 4.8 2.4c.6-.1 1.4.4 1.7 1.1.4.9 1.1.9 1.8.2 1.2-1.2 35.5-30.4 83.3-71 15-12.8 25.2-20.9 24.8-19.8-.4 1.1.5.3 2.2-1.8 2.3-2.9 4.4-4.3 11.2-7.2 9.6-4.1 13.9-6.7 13.2-8.1-.6-1.1 15-14.3 24.6-20.8 5.2-3.6 6-4.4 9-10.1 1.76-3.4 4.7-7.5 6.5-9.2 4.37-4 116.2-96.4 125.7-103.8 2.65-2.1 3.6-1.1-15.15-16.2zm-176.1 170.2c-.4.4-1.2.6-1.85.4-.67-.1-.86-.5-.5-.9.4-.4 1.2-.6 1.84-.4.6.2.8.6.4 1zm-129.7 86.6c-.5.1-2.34-1.1-4.1-2.7-2.4-2.2-2.66-2.7-1.1-2.1 2.6 1 6.5 4.6 5.2 4.9zm466.9-91.9c.3.6 1.06 1.4 1.75 1.7.7.3.45-.3-.5-1.3s-1.56-1.2-1.27-.6zm-146.3-138.6c-.33.8 0 .8.87 0 .8-.8 1.1-1.3.6-1.3s-1.1.5-1.4 1.3zm476.14 498.6c-8.86 7.8-10.7 10.2-7.44 9.4 1.77-.5 17.6-16.4 16.9-17.1-.22-.3-4.5 3.2-9.5 7.6zM773.1 427.6c.3.68 1.08 1.48 1.77 1.77.68.27.44-.3-.53-1.26s-1.53-1.2-1.24-.5zm-7.07-5.66c.3.7 1.08 1.48 1.77 1.77.68.3.44-.2-.53-1.2s-1.53-1.2-1.24-.5zm-7.08-5.67c.28.65 1.23 1.62 2.1 2.12.86.5.63-.1-.52-1.3-1.16-1.2-1.87-1.6-1.58-1zm-6.65-5.34c0 .47.58 1.1 1.3 1.4.8.34.8 0 0-.85-.72-.77-1.3-1.02-1.3-.55zm-8.2-6.7c.28.66 1.22 1.63 2.1 2.14.86.5.63-.04-.52-1.22-1.16-1.18-1.87-1.6-1.58-.93zm-16.7-13.92c-1.03 0 6.53 6.8 9.23 8.4 1.56.9.32-.4-3-3.3-3.14-2.7-5.94-4.9-6.24-4.9zm-27.54-22.8c-30.72-25-46.15-37-42.96-33.4 1.46 1.7 17.73 15 36.16 29.6 18.42 14.7 32.58 25.6 31.45 24.4-1.1-1.2-12.2-10.5-24.6-20.6zm-76.36-62.2c-8.17-6.6-20.76-16.9-28-22.9-7.25-6-13.43-10.9-13.76-10.9-2.43 0 2.48 4.5 23.84 21.7 13.42 10.9 29.6 23.8 35.97 28.7 11.43 8.9 11.48 8.9 4.14 2.2-4.1-3.7-14.1-12.1-22.3-18.8zM554.45 249c-14.14-11.28-27.43-22.12-54.03-44.07-23.52-19.4-68.07-55.85-92.97-76.03-12.25-9.93-33.1-26.95-46.32-37.84C347.9 80.18 335.5 70 333.53 68.44c-7.64-6.15-41.65-33.82-53.4-43.46-17.4-14.27-17.47-14.33-19.1-12.7-1.62 1.63-.82 2.56 8.23 9.58 3.47 2.7 21.27 16.97 39.55 31.74L353 89.3c6.05 4.86 14.15 11.4 18 14.53l18 14.54 30.1 24.35 37.13 30.05c9.9 8 23.26 18.82 29.7 24.06 27 21.96 77.65 62.75 80.5 64.82 1.68 1.23 3.17 1.77 3.3 1.2.33-1.37.5-1.23-15.28-13.8zm-69.56-61.08c-6.6-5.14-11.2-8.53-10.3-7.55 1.6 1.87 24.1 20.37 26.4 21.8 3.6 2.24-5.7-6-16.2-14.25zm-22.7-18.38c-3.3-2.4-3.6-2.5-1.7-.48 1.3 1.37 4.4 4 6.9 5.85 3.8 3 4 3 1.6.5-1.6-1.6-4.7-4.2-6.9-5.8zm-10.2-7.78c.7 1.05 2.1 2.48 3.2 3.18 1 .7.4-.14-1.3-1.9s-2.6-2.32-1.9-1.28zm-7.4-6.03c.5.85 1.7 2.13 2.8 2.84 1 .7.6.02-.9-1.55-1.6-1.56-2.4-2.14-1.9-1.3zm-7.8-6.36c.5.85 1.7 2.13 2.8 2.84 1 .8.6.1-.9-1.5-1.6-1.5-2.4-2.1-1.9-1.3zm-7.1-5.65c.5.86 1.6 1.97 2.4 2.47.8.5.4-.2-.9-1.6-1.4-1.4-2.1-1.8-1.6-.9zm-8.9-7.46c.3.67 1.2 1.64 2.1 2.15.8.6.6 0-.6-1.2s-1.9-1.6-1.6-.9zm-6.4-4.93c.3.68 1.1 1.48 1.7 1.77.7.3.4-.27-.6-1.24s-1.5-1.2-1.3-.53zm-7.8-6.36c.2.68 1 1.47 1.7 1.76.7.3.4-.27-.5-1.24-1-1-1.6-1.3-1.3-.6zm-7.1-5.66c.3.7 1.1 1.5 1.7 1.8.7.3.4-.2-.5-1.2s-1.5-1.2-1.2-.5zm-7.8-6.3c.3.7 1.1 1.5 1.8 1.8.7.3.4-.2-.6-1.2-1-.9-1.6-1.2-1.3-.5zm-7.1-5.6c.3.7 1.1 1.5 1.7 1.8.7.3.4-.2-.5-1.2s-1.6-1.2-1.3-.5zm-8.1-6.7c0 .5.5 1.1 1.3 1.4.7.4.7 0 0-.8-.8-.7-1.3-1-1.3-.5zm-7.5-6c.2.7 1.2 1.7 2.1 2.2.8.5.6 0-.6-1.2s-1.9-1.6-1.6-.9zm-7.4-6c0 .5.6 1.1 1.3 1.4.8.4.8 0 0-.8-.7-.8-1.3-1-1.3-.6zm-7-5.6c0 .5.5 1.1 1.3 1.4.8.4.8 0 0-.8-.8-.7-1.3-1-1.3-.5zm-7.5-6c.2.7 1 1.5 1.7 1.8.7.3.4-.2-.5-1.2s-1.6-1.2-1.3-.5zm-7.1-5.6c.3.7 1 1.5 1.7 1.8.7.3.4-.2-.5-1.2s-1.6-1.2-1.3-.5zm-8.1-6.7c0 .5.6 1.1 1.3 1.4.8.4.8 0 0-.8-.7-.8-1.3-1-1.3-.5zm-7.5-6c.3.7 1.1 1.5 1.7 1.8.6.3.4-.3-.6-1.2s-1.6-1.2-1.3-.5zm-7-5.6c.2.7 1 1.5 1.7 1.8.7.3.4-.3-.5-1.2-1-1-1.6-1.2-1.3-.6zm-7.4-6c0 .5.5 1.1 1.3 1.4.8.4.8 0 0-.8s-1.3-1-1.3-.5zm-7.5-6c.3.7 1.1 1.5 1.7 1.8.7.3.4-.2-.6-1.2s-1.6-1.2-1.3-.5zm-7.1-5.6c.3.7 1.1 1.5 1.7 1.8.6.3.4-.2-.6-1.2-1-.9-1.6-1.2-1.3-.5zm-7.7-6.4c.3.7 1.1 1.5 1.7 1.8.7.3.4-.3-.6-1.2s-1.6-1.2-1.3-.5zm-7.1-5.6c.3.7 1.1 1.5 1.7 1.8.6.3.4-.2-.6-1.2s-1.6-1.2-1.3-.5zM273 17c.3.7 1.1 1.5 1.74 1.8.66.3.42-.27-.55-1.24s-1.6-1.2-1.3-.5zm-7.8-6.33c.3.67 1.1 1.47 1.8 1.76.7.3.43-.25-.5-1.2-.98-1-1.5-1.2-1.2-.55zm-9.6-6.86c-.28 0-47.9 69.5-105.9 154.5C7.04 367.5 3.44 372.8 3.44 373.8c0 .43 9.88 8.3 21.9 17.44l194.3 147.54c39.1 29.65 83.1 63.05 238.4 180.95l108.53 82.4 26.1 19.9c3.3 2.6 33.7 25.6 67.5 51.3s68.2 51.8 76.3 58l47.1 35.7c17.7 13.4 47 35.64 65.13 49.4l87.7 66.5c30 22.85 67.6 51.3 83.4 63.36l28.7 21.8 2.6-1.8c1.4-.9 6-4.6 10.2-8.2 13.1-11 24.5-20.2 30.1-24.1 6.9-4.8 24.9-21.8 24-22.6-.35-.3-3.6 2-7.25 5.2-26.47 23-49.7 42.6-52.5 44.3-2.83 1.6-3.8 1.6-6.6-.1s-33.53-24.8-150.7-113c-21.5-16.2-24.26-18.6-23.84-20.3.5-1.7-2.4-4.1-6.6-5.4-2.2-.7-8.1-4.6-14.5-9.5-5.9-4.6-12.8-9.8-15.3-11.6-2.5-1.8-15.2-11.3-28.2-21.2-13-9.9-31.2-23.6-40.3-30.5L729.3 919c-13-9.9-28.6-21.7-34.6-26.2s-19-14.34-28.93-21.9-20.4-15.5-23.3-17.65c-17.8-13.2-41-31.5-44.3-35-2.12-2.26-5-4.47-6.4-4.9-1.4-.5-16.4-11.5-33.34-24.54-39.73-30.5-91.6-70.2-114.55-87.6C427.3 688.6 170 494.6 116 454c-75.8-57.08-98.6-74.38-102-77.5-3.4-3.1-3.74-3.8-2.66-5.2.67-.9.84-2.7.37-3.9-1-2.65-1-2.6 22.8-36.57 6.2-8.7 11.7-16.7 25.8-37.1C76.5 270.4 80 265.3 85 258.3c2.93-4.03 6.44-9.1 7.8-11.3 6.65-10.4 14.07-19.74 16.07-20.23 2.92-.72 19.8-25.64 20.55-30.35.37-2.34 2.87-6.63 7.97-13.65 4.1-5.64 10.5-14.57 14.1-19.85l13.4-19.2c3.7-5.2 9.4-13.5 12.8-18.3l26.5-37.8c3.5-5 9.4-13.4 13.1-18.7 3.6-5.3 9.7-13.9 13.4-19.14 3.7-5.25 9.7-13.86 13.4-19.13 3.6-5.27 9.1-12.7 12-16.52l5.3-6.92-2.5-1.7c-1.4-1-2.8-1.8-3.1-1.8zm926.94 1055.1c-4.5 1.7-4.2 2.5.9 2.7 3.57.2 6.44 2.1 7.84 5.2.5 1.2-.3 2.6-2.9 5.2-5.24 5.3-11.56 14-11 15.2.3.6-3.97 5.4-11.97 13.5-15.2 15.2-13.7 15.8 2.2 1 8.7-8.2 11.5-11.3 12.2-13.4.8-2.4 1.3-2.9 3.3-3.2 1.8-.2 4.9-2.8 12.9-10.8 5.8-5.8 10.2-10.5 9.7-10.5s-3.8 3-7.3 6.7c-6.5 6.8-10.7 9.1-11.4 6.1-.3-1.5 8.1-10.1 13.5-13.8l3.6-2.4-4.4-4.9-4.5-4.8-4.3 3.5c-2.3 1.9-6 4.2-8.1 5zm10.1 13.3c-2.7 2.8-2.7 2.8 1.3-.1 2.24-1.6 5.2-4.1 6.52-5.5 2.2-2.3 2.1-2.3-1.3.1-2.1 1.5-5 3.9-6.57 5.5zm-44.28 45.4c-3.4 3.4-1.36 3.1 2.43-.3 1.9-1.7 2.5-2.6 1.5-2.4-.9.2-2.7 1.5-4 2.8zm-7.7 7.7c-2.5 2.5-2.58 2.8-.67 4.5 2.9 2.6 3.3 2.6 1.8 0-.9-1.6-.8-2.9.4-4.4 2.4-3.1 1.5-3.2-1.6-.1zm-19.9 23.2c-9.1 9.4-20 23-26.2 32.9-1.4 2.2-5.4 7.1-9 10.9-9.4 10.1-30.2 38.1-29.7 40 .5 1.9-2.9 5.4-5.36 5.5-1.47.1-1.7.3-1.27 1.3.3.6 0 1.7-.66 2.4-.67.7-1.2 2.8-1.12 4.6l.1 3.5 1.73-1.7c.95-.9 4.14-5 7.1-9.1 2.96-4 8.23-11 11.7-15.4 3.5-4.5 6-8.2 5.6-8.3-.44-.1-1.7 1-2.8 2.5-1.1 1.4-2 2.1-2.03 1.5-.03-.6 2.03-3.3 4.56-6 9.3-10 17.4-19.5 26.1-30.9 4.9-6.4 13.8-16.9 19.8-23.3 14.6-15.6 15.2-16.6 13.1-18.7l-1.7-1.7-9.9 10.3zm-53.8 73.1c-.3.4-1.1.6-1.8.4-.6-.1-.4-.5.4-.9 1.7-.7 2.5-.4 1.4.6zm540.6 397.1c-.55.6-.74 1.4-.4 1.7.37.4-1.55 3.4-4.25 6.6l-4.9 5.9-4.3-.4c-5-.5-5.8 1-1.4 2.5 2.6.9 3.6.6 7.3-2.3 2.4-1.8 5.7-4.2 7.2-5.3 1.9-1.3 3-2.8 3.4-4.7.7-3.1-.9-5.5-2.5-3.8zm-4.1 14.3c0 .5.8.5 1.76 0 1.4-.6 1.4-.8 0-.8-.98 0-1.76.4-1.76.8zm-18.9 6.8c-2 1.6-4.64 3.9-5.8 5.1-2.05 2.2-2.05 2.3.2 1.1 1.27-.6 3.6-2.4 5.2-3.9 2.17-2.1 3.96-2.7 7.55-2.8l4.7-.1-4-1.1c-3.5-.9-4.6-.6-7.7 1.8zm-6.05-6.2c-3.4.8-4.4 1.7-13.1 11.2-8 8.9-9.3 10.7-8.9 12.5.3 1.3.9 2 1.6 1.8.6-.1 5.3-4.2 10.5-9s11.6-10.6 14.4-12.8l5-4.1-2.9-.1c-1.6-.1-4.5.3-6.6.7zm-15.2 29.1c-.5 1-.2 3.5.9 5.8 2.4 5.4 3.1 5.9 3.2 2.6.1-1.5-.4-3.2-1-3.8-.6-.6-1.3-2.2-1.5-3.5-.1-1.3-.3-2.5-.4-2.5 0-.1-.5.6-1.1 1.6zm-5.5-1.1c-1.7.5-2.3.2-2.8-1.5-1.1-3.5-1.5-1.7-1.6 7.4l-.1 8.7-5.8 4.9c-6.8 5.8-6 6.1 4.8 1.5 10-4.1 13.2-7.5 11-11.5-2.8-5.2-4.9-7.1-6.3-5.7-.7.7-1.6 1-2 .6-1.1-1.1 1.8-3.4 4.3-3.4 1.3 0 1.9-.3 1.5-.7-.4-.4-1.7-.4-2.9-.1zm4.6 11.7c-.1.7-.6.8-1 .4s-.4-1.1 0-1.4c.4-.4.9-.6 1-.4.2.2.2.8 0 1.5zM1050 1158.5c0 1.16 2.9 2.2 3.76 1.36.52-.53.06-.97-1.5-1.44-1.25-.38-2.27-.34-2.27.08zm513.9 518.96c-2.16 2.72-4.64 4.16-12.96 7.55-7.6 3.1-10.6 3.9-11.54 2.9-.7-.7-1.56-.9-1.9-.6s-1.37 1-2.2 1.4c-1.1.5-1.15 1.1-.15 2.1 1.94 2 .48 4.9-2.23 4.5-2.67-.4-3.54-1.2-2.47-2.3 2.34-2.3-1.78-.1-10.86 5.9-15 9.8-14.8 9.7-16.3 9.4-.7-.1-5.6-2.6-10.8-5.4-7.8-4.2-10-5-12.5-4.4-1.7.4-3.1 1.2-3.1 1.7 0 1.6 16.1 9.1 18 8.3.4-.1 1.4.4 2.2 1.1 2.5 2.6 15.1-.3 22.8-5 1.1-.7 2.2-.9 2.5-.6.3.4 1.7-.6 3.1-2.2 2.1-2.3 2.7-2.6 3.9-1.4 1.9 2 2.8 1.6 10.3-3.9 3.6-2.6 7.6-5 8.9-5.3 4.1-.9 19.4-15 18-16.5-.2-.1-1.5 1.3-2.9 3.2zM90.8 255.16c-.34.8 0 .8.85 0 .78-.7 1.03-1.3.56-1.3s-1.1.6-1.4 1.3zm-4.7 6.35c-2.25 3.6-1.1 3.6 1.25 0 1-1.4 1.52-2.7 1.15-2.7-.36 0-1.43 1.3-2.4 2.7zm-9.77 14.2c-1.7 2.3-2.83 4.2-2.46 4.2.37 0 2.07-1.8 3.8-4.1 1.7-2.2 2.83-4.1 2.5-4.1-.36 0-2.06 1.9-3.8 4.2zm967.28 970.8c-1 1.1-.9 3.5.2 3.5 1 0 2.2-3.1 1.5-3.8-.3-.3-1.1-.2-1.6.4zm-.7 5.7c-.6.2-1 2.4-.8 5 .2 2.6-.3 5.3-1 6.1-1.5 1.5-.9 3.8 1.8 7.8 1.1 1.5 2.2 5.1 2.5 7.9.4 3.7 1 5.1 2.1 5.1s1.4-.6.9-2.1c-.3-1.1-1-2.1-1.5-2.1s-.5-.3-.1-.7c.4-.4-.4-3.7-1.9-7.3-1.4-3.6-2.3-7.6-1.9-8.8 1.3-3.8 2.3-9.8 1.8-10.3-.3-.3-1-.4-1.6-.2zM55.6 305.4c-34.74 50-40.76 58.84-40.76 59.8 0 1.98.4 1.37 28.5-39.66l20.7-30.2c5.4-7.84 9.3-14.02 8.7-13.72-.6.3-8.35 11-17.23 23.78zm983.02 951c-.06 2.27.2 4.13.52 4.13.6 0 .44-7.25-.16-7.94-.16-.2-.33 1.5-.38 3.8zm434.47 441.92c-3.2 2.85-4.7 4.84-4.3 5.3.5.43 2.5-1 5-3.47 3.2-3.24 4.6-4.1 6.2-3.73 1.7.4 1.7.27 0-1.1-1.9-1.48-2.3-1.3-7 3zm-435.8-434.22c-.2.15-.2 1.26 0 2.48.2 2 .2 2 .5 0 .2-2.1 0-3.06-.6-2.48zm1.4 7.13c0 .3.9 3.13 2.1 6.27l2 5.7-.4-4.54c-.3-2.5-1.2-5.32-2.1-6.27-1-1-1.7-1.5-1.7-1.2zm5.7 13.77c-1.4-1.32-1.4-.58-.1 3.6 1.3 4.25 1.9 5.2 3.2 4.98 1.2-.2 1.3-.1.1.52-1.2.6-1 2.48.4 7.2 1.1 3.54 2.2 5.85 2.5 5.15.3-.7-.2-3.08-1.1-5.28-.9-2.2-1.3-4.3-.9-4.7.3-.38 1.3 1.24 2.1 3.6 1.7 5.1 2.8 5.46 3.3 1.12.2-1.8-.1-3.2-.6-3.2s-.8-.9-.5-1.9.1-2.4-.4-2.9-1.4-2.4-1.9-4c-.9-2.8-1.2-3.1-2.8-2.8-1 .1-2.6-.5-3.6-1.4zm3.6 5.04c-.4.4-.9.23-1-.4-.2-.63-.2-1.3 0-1.46.1-.18.6 0 1 .4.4.38.3 1.03-.1 1.44zm404 413.62c-28.6-4.96-37.2-7.05-51.4-12.52-8.2-3.13-18.1-6.88-22.1-8.34s-8.6-3.2-10.3-3.84c-7.1-2.73-.6.96 8.8 4.98 14.5 6.25 35.5 13.46 49 16.88 12.4 3.14 13.1 3.4 10.9 4-.8.2-.8.38-.1.42.7.03 1.6-.32 2-.77.4-.46 1.4-.3 2 .35.7.64 1.7 1.15 2.4 1.12.7-.03.6-.23-.3-.47-1.1-.3-1.2-.52-.2-.74.7-.18 1.6.15 2 .73.3.57 1.1.82 1.6.55 1.4-.7 4.1-.8 4.8-.1.4.4 0 .9-.7 1.1-.8.2-.9.4-.2.5.6.1 1.4-.2 1.8-.5.3-.3 3.3-.4 6.6-.2s5.8.1 5.5-.3c-.3-.3-5.8-1.5-12.2-2.6zm-278.2-188.76c-.4.4-.8 1.7-.8 2.88 0 1.72 1.8 3.85 9.3 11.06 6.9 6.6 9.3 9.47 9.5 11 .1 1.73.4 1.87 1.3.88 1.8-1.78-.2-5.07-9.4-15.65l-8.9-10.3c-.3-.36-.8-.3-1.2.1zm37.6 44.44c-.4.36-.3 1.33.3 2.15 1.5 2.2 4.7 4.2 4.9 3 .3-1.4-4.5-6.1-5.3-5.3zm-18.8-16.64c-.2.15 0 .96.4 1.8.4.86.8 1.02.9.37.2-1.1-.8-2.76-1.4-2.2zm26.8 28.7c1.7 2 4.7 5 6.7 6.72 2 1.7.6.07-3.1-3.62-3.7-3.7-5.4-5.1-3.7-3.1zm-25.5-24.24c-.3-.02 4.4 4.82 10.5 10.75 7.8 7.7 10 9.6 7.6 6.4-3.2-4.1-16.9-17-18.1-17.1zm-67-68.48c0 .47.6 1.1 1.3 1.4.8.34.8 0 0-.85-.8-.78-1.3-1.03-1.3-.56zm139.3 140.7c0 .48.6 1.1 1.3 1.42.8.34.8 0 0-.86-.8-.78-1.3-1.03-1.3-.56zm-7.1-5.65c0 .47.6 1.1 1.3 1.4.8.35.8 0 0-.85-.7-.77-1.3-1.02-1.3-.55zm-93.7-91.48c-.4.8 0 .8.8 0 .8-.72 1-1.3.6-1.3s-1.1.58-1.4 1.3zm-29.3-31.56c0 .4.5 1.1 1.3 1.4.8.3.8 0 0-.9-.8-.8-1.3-1.1-1.3-.6zm4.2 5.6c0 .4.6 1.1 1.3 1.4.8.3.8 0 0-.9-.7-.8-1.3-1.1-1.3-.6zm6.7 8.1c.3.6 1.1 1.4 1.7 1.7.6.3.4-.3-.6-1.3s-1.6-1.2-1.3-.6zm7 8.4c.2.6 1.2 1.6 2.1 2.1.8.5.6-.1-.6-1.3s-1.9-1.6-1.6-1zm1088.2-611.2c-1.7 1.6-3.5.3-3.2-2.3.2-2.1 1.5-2.3 3.3-.5.8.8.8 1.8-.1 2.7z"/><path fill="#fff" d="M1040.76 1139.26c-2.6-2.6-40.3-31.63-83.8-64.5-43.5-32.86-134.75-102.02-202.76-153.7-68-51.65-259.17-196.3-424.78-321.46C163.8 474.46 29.2 369.72 30.3 366.86c1.1-2.87 53.13-79.6 115.63-170.54C219.13 89.82 261.5 32.17 265.03 34.3c3 1.8 86.82 69.04 186.28 149.4 147.9 119.5 887 715.33 891.3 718.57.7.5-21.5 19.52-49.3 42.24-27.8 22.8-59.3 50-70 60.6-34.2 34-48.6 45.2-58.1 45.2-5.1 0-9.4 2.7-9.6 5.9-.4 7.1-91.7 83.9-102.4 86.3-4.1.9-9.6-.5-12.2-3.1zm385.13 547.45c-13-3.5-34.1-10.8-47-16.3-30.7-13.1-96.3-56.1-96.3-63.1 0-6.4-38.2-44.9-44.8-45.1-6.4-.2-30.4-21.9-30.4-27.4 0-8-28.6-33.5-37.6-33.5-25.7 0-110.8-153.1-105-188.9 1.5-9.3-.4-22.9-4.7-33.1l-7.2-17.3 26.4-34.1c53.9-69.7 159.1-186.8 167.9-186.8 2.6 0 37.1-32.8 76.8-73 39.7-40.2 72.8-72.4 73.4-71.6.7.8 13.1 24.3 27.7 52.2 42.2 81.3 102 165.5 164.8 232.4 62.3 66.4 178.3 145.6 252.6 172.6l27.2 9.9-30.6 29c-22.2 21-29.8 31.1-27.6 36.9 2.3 6 1.1 7.3-4.7 5-8.5-3.2-44.4 24.4-76.2 58.6-10.3 11.1-21.2 21.3-24.2 22.6-3 1.3-18.4 14.6-34.4 29.6-15.9 15-34.1 29.2-40.4 31.6-6.2 2.4-18.1 13.9-26.4 25.6-10.4 14.8-18.2 21.2-25.8 21.2-13 0-38.6 26.3-38.8 39.9-.1 5.9-7 13.3-18.4 19.8-15.8 9-20.1 9.6-33 4.8-11.5-4.3-16.8-4.3-24 .2-11 6.8-10.1 6.8-39.9-1.2zm475.7-380c-75.1-26.5-153.5-82-246-174.1-99.8-99.3-170.7-197.6-198.5-274.8-14.6-40.5-15.6-49.8-7.6-69.8 6.8-17.1 14.3-22.5 94.3-68.8 47.8-27.6 91.5-51.4 97.1-52.8 5.6-1.4 60.9-32.7 123-69.5l112.9-67 22.3 4.8c18.1 3.9 25.4 3.4 38.4-2.8 8.8-4.2 17.2-9.5 18.6-11.8 1.4-2.3 8.9-5.6 16.6-7.3 11-2.4 20.5.6 44 13.7 77.6 43.4 233 210.2 233 250.1 0 6.5-5.4 18.8-11.9 27.4-8.6 11.3-11.1 18.9-9 27.4 1.6 6.6.7 13.1-2.2 14.9-3.1 1.9-4 10.3-2.2 21.3 2.4 15 .3 22.7-12 44.2-8.2 14.4-16.9 27.3-19.4 28.9-2.5 1.5-19.6 28.5-38.2 60-18.5 31.5-41.4 68.9-50.9 83.1-9.4 14.2-23 37.5-30.1 51.7-7.1 14.2-20 35.8-28.8 48-8.8 12.2-18.9 29.3-22.6 38.1-6.8 16.3-56.9 87.2-66.1 93.6-8.4 5.8-22.5 3.8-55.3-7.7zm111.8 520.9c-190.9-130.3-347.9-237.8-348.9-238.8s8.3-11 20.6-22.4c12.3-11.3 32.1-30.6 43.9-42.8 11.8-12.2 23.9-22.3 27-22.3 3 0 5.5-2.1 5.5-4.6s5.3-5.9 11.7-7.5 11.7-4.7 11.7-6.9 6.3-10.5 14.1-18.4c7.7-7.9 14.1-17.5 14.1-21.3 0-3.7 4-6.8 8.9-6.8s24.7-14.7 44-32.7c19.3-18 40.6-34.8 47.4-37.4 11.5-4.4 36.2 13.1 383.4 272.7 204.1 152.6 371 279.2 371 281.3 0 2.1-5.9 5.9-13 8.5s-75.9 34.5-152.8 70.9c-76.9 36.5-140.3 66.2-140.9 66.2-.6-.1-157.3-106.8-348.2-237.1z"/><path fill="#fff" d="M1627.77 1189.86c-19.8-17.66-24.95-25.13-24.27-35.23.73-10.74-1.2-13.05-12.04-14.3-7.1-.8-12.92-2.96-12.92-4.77 0-1.82-10.45-15.94-23.2-31.4-12.78-15.45-21.23-28.8-18.8-29.66 10.7-3.8 3.93-18.93-9.8-21.95-10.2-2.24-18.87-10-30.54-27.32-18.35-27.25-19.7-33.68-8.4-40 6.5-3.63 13.72 3.08 40.1 37.18 42.95 55.5 113.24 132.9 146.38 161.1 14.76 12.6 25.76 24 24.44 25.3-1.32 1.3-12.16 2.7-24.1 3-19.6.5-24.12-1.6-46.83-21.8zM1418.4 882.8c-2.9-7.98-5.2-17.05-5.1-20.15.2-6.35 7.17-19.36 11.66-21.77 2.44-1.3 3.17-.78 4.1 2.95.6 2.5 4.05 11.83 7.64 20.75 3.58 8.93 6.52 16.84 6.52 17.6 0 .73-1.78 2.15-3.95 3.14-2.17 1-6.56 4.1-9.75 6.9l-5.8 5.1-5.3-14.52zm40.53 83.86c-.95-2.05-3.3-6.7-5.23-10.36-6.4-12.2-17.12-36-17.12-38.05 0-3.52 15.55-16.03 17.38-13.98.27.3 2.8 5.15 5.62 10.8 2.82 5.62 9.26 17.38 14.3 26.13 5.06 8.74 9.18 16.46 9.18 17.15 0 1.1-19.7 12.07-21.65 12.04-.4-.1-1.5-1.7-2.5-3.8zm275.83 306.73c-1.57-2.4-5.42-5.5-8.54-6.8-3.13-1.3-5.7-3.2-5.7-4.1s-2.5-2.8-5.6-4.1c-3.08-1.3-9.73-6.1-14.76-10.7-5.03-4.6-9.8-8.4-10.58-8.4-.78-.1-3.23-1.5-5.44-3.2l-4.02-3.1 5.3-1.2c2.93-.7 7.53-3.1 10.23-5.3s5.66-3.7 6.6-3.1c.9.5 4.3-.3 7.53-1.8l5.86-2.8 7.86 6.2c4.33 3.4 13.28 10.3 19.9 15.3 6.62 5 12.03 10 12.03 11-.02 3.1-9.3 18.2-13.68 22.3l-4.1 3.8-2.85-4.4zm70.04 41.7c-3.23-2.2-7.27-4.4-8.97-5-1.7-.6-7.07-3.6-11.94-6.8-4.9-3.2-9.3-5.9-9.8-5.9s-4.1-1.6-8.1-3.6l-7.2-3.6 4.7-6c2.6-3.3 6.3-9.2 8.3-13.1 2.2-4.4 4.3-6.6 5.5-5.9 5.6 3.5 47.2 30.5 49.8 32.4 3 2.2 3 2.5-1.3 9.2-3.6 5.6-11.5 12-14.9 12-.4 0-3.3-1.8-6.6-4zm71.43 22.9c-.52-.5-5.53-1.3-11.13-1.6-5.6-.4-14.18-1.9-19.06-3.5l-8.88-2.8 5.2-7c2.87-3.9 6-8.4 6.96-10 1.63-2.8 3-2.6 20.75 4.5 10.46 4.1 20.06 7.8 21.33 8.2 1.68.5.83 2.4-3.08 6.8-4.92 5.6-9.65 7.6-12.1 5.2zm32.1 1.8c1.67-1.7 3.58-4 4.23-5.2 1.14-2.1 1.6-2 12.1.4l10.9 2.5-4.57 2c-2.8 1.2-8.9 2.3-15.2 2.6l-10.6.6 3-3zm-488.4-526.2c1.46-9.4 3.32-11.3 3.4-3.6.03 4 .42 5.8 1.06 4.8.6-1.1 1.2-1.2 1.7-.4.5.9-5.1 4.9-6.9 4.9-.2 0 .2-2.6.7-5.9z"/><path fill="none" d="M1048.77 1145.03c-2.26-1.1-6.13-3.97-8.6-6.36-2.46-2.4-5.9-4.7-7.63-5.14-4.43-1.1-145.4-107.45-148.52-112.07-1.42-2.08-7.46-7.26-13.43-11.5-22.3-15.9-252.3-189.3-264-199.04-3.3-2.7-9.9-7.78-14.7-11.3-4.9-3.53-45.8-34.38-91-68.56S353.3 619.5 273.2 559.12c-80.07-60.4-166.2-125.4-191.38-144.47-25.18-19.07-48.55-36.74-51.92-39.27l-6.13-4.6L35.1 354.2c20.9-30.54 47.54-69.1 72.87-105.5l25.13-36.1h356.87l60.7 49.07c33.4 27 84.76 68.44 114.15 92.12 29.4 23.6 84.4 68 122.24 98.6 69.67 56.2 104.04 83.9 240.6 194 41.65 33.5 92.37 74.5 112.72 91.1 20.34 16.5 69.5 56.1 109.2 88 39.72 31.9 77.7 62.5 84.4 68l12.2 10-2.87 2.4c-1.5 1.3-26.5 22-55.5 45.9-60.6 49.9-65 53.9-69.5 61.6-3.5 6.1-16.6 16.7-20.8 16.9-1.3 0-2.4.9-2.4 1.9 0 2.6-11.5 13.6-17.2 16.5-3.4 1.7-6.8 2.5-10.7 2.3-7.6-.3-11.2 2.1-11.2 7.4 0 3.6-1.3 5-16.7 18-9.2 7.7-31.7 26.8-50 42.4s-33.9 28.3-34.6 28.2c-.7-.1-3.1-1-5.4-2.1zm875.36 170.75c-14.6-3.7-46.77-15.97-69.1-26.32-25.5-11.8-95.84-59.2-130.5-87.93-13.66-11.3-60.2-54.2-79.32-73.1-13.4-13.26-52.2-56.65-73.5-82.2-8.5-10.26-46.1-59.76-58.7-77.48-11.9-16.67-45.2-78.92-53.7-100.4-12.3-31.14-17.8-51.77-16.7-62.5.3-3.1 3.3-12.76 6.7-21.52l6.1-15.92 17.3-10c163.7-94.9 161.9-93.9 166.3-93.1 3.5.7 5.7 0 12.7-3.6 4.7-2.4 57-33.4 116.2-68.8l107.6-64.4 8.3 1.2c4.6.7 13.9 2.5 20.8 4.2 6.9 1.6 14.9 3 17.8 3 4.8 0 5.9-.5 9.7-4.7 3.8-4.1 5-4.7 9.4-4.7 4.5 0 5.8-.7 11.2-5.8 4.2-4 8-6.3 12.2-7.6 3.4-1 8.2-3 10.8-4.4l4.7-2.6 9.7 3.2c15.6 5.1 43.2 21.5 70.7 42 19.3 14.5 79.3 72.5 120.2 116.1 18.1 19.4 29 33 49.6 62.3 17.3 24.5 17.1 24.2 20.3 38.1l2.9 12.8-2.2 6.1c-1.3 3.5-5.6 10.1-10.1 15.4-4.3 5.1-8.8 11.6-10.1 14.5l-2.3 5.2 3.3 9.9 3.3 9.9-5.6 5-5.6 5 3.2 13.3c2.7 11.5 3 13.8 1.7 17.6-4.2 12.9-25.4 49.8-34.6 60.1-10.4 11.7-21.9 30-51 81.1-7.9 13.9-24.3 40.3-36.4 58.7-23.3 35.4-26.2 40.4-27.6 47-.5 2.3-1.9 6.2-3.2 8.8-4.7 9.3-32.7 53.4-38.8 61-4 5.1-8.6 13.2-13.2 23.5-6.4 14.2-9.6 19.2-34.6 54l-27.6 38.3-7.8 2.4c-10 3.1-11.5 3-29.8-1.7z"/><path fill="none" d="M1895.37 1748.9c-77.18-52.68-161.83-110.4-188.12-128.27-26.3-17.87-47.65-33.02-47.46-33.67.1-.64 3.7-4 7.8-7.48 4.1-3.47 13.7-12.32 21.3-19.66s15.2-14.1 17-15.02c1.7-.92 8.1-6.74 14.2-12.92 9-9.22 10.9-11.76 10.4-14.1-.4-2.06.1-3.15 1.9-4 1.3-.63 5.7-4.1 9.7-7.73 4.6-4.26 8.2-6.6 10.1-6.6 3.7 0 9-4.2 9-7.12 0-1.48.8-2.27 2.3-2.27 1.3 0 5.4-2.65 9.1-5.9 3.7-3.23 9.6-8.35 13-11.37 3.4-3.1 6.8-6.7 7.5-8.2.6-1.5 2.3-2.9 3.7-3.3 3.8-1 11.9-8.4 14-13 1.6-3.4 1.7-4.7.5-7.2-1.6-3.5-6.5-6.5-10.7-6.5-4 0-15.9 8.1-17.6 12-.9 2-3.4 4.2-6.2 5.5-2.6 1.2-9.9 7.2-16.2 13.2-8.8 8.4-11.8 12-12.4 15-.7 3.5-1.4 4.1-5.1 4.6-6.1.8-23.3 17-23.3 21.9 0 3.5-2.1 5.1-12 9-4.7 1.8-24.5 20-24.5 22.4 0 .8-1.5 1.8-3.2 2.1-2 .4-8.9 6.1-17.3 14.2-15.2 14.6-24 21.2-30.2 23-2.2.6-5.7 2.1-7.7 3.4-4.6 2.8-17 18.2-25.3 31.3l-6 9.5-10.5.7c-6.5.4-11.6 1.3-13.3 2.5-1.6 1-8.3 8-14.9 15.4l-12.1 13.6-.6 8.3-.6 8.3-18.8 12.1c-10.3 6.6-19.3 12.1-20.1 12.1-.7 0-5.6-2.4-10.8-5.3-5.2-2.9-11.6-5.6-14.2-6-4.5-.7-5-.5-10.7 5.2l-6 5.9-19-3.5c-10.5-1.9-21.6-4.3-24.9-5.2-13.3-3.9-45.4-16.4-55.8-21.8-14.4-7.3-40.8-23.9-65-40.8l-19.2-13.3 1.2-4.6 1.2-4.7-13.5-12.8c-16.1-15.4-14.2-13.5-19.2-19.2-3.6-4.1-4.7-4.7-9.4-4.8-5-.1-6.1-.8-16-9.8-5.9-5.3-11.4-9.6-12.3-9.6-1 0-1.8-2.4-2.3-7.4-.6-5.9-1.3-7.8-3.7-10-1.7-1.4-4-2.7-5-2.7-1.9-.1-13.6-12.9-14.9-16.5-.9-2.2-9.2-6.9-12.2-6.9-1.2 0-3.7 1.2-5.4 2.5-2.7 2.2-3.4 2.3-4.7.9-3.6-3.8-20.4-25.4-22.5-28.6-1.2-2-5.7-8.6-10-14.7-7.5-10.8-21.4-32.4-33.1-51.4-3.3-5.5-5.5-10.5-5.5-12.7 0-3.1-2.9-10-7.6-18.2-5.1-8.8-19.9-45.5-22.3-55.4-.6-2.2.1-5 2.4-9.7 4.2-8.6 3.5-14-4.4-33.3-7.2-17.6-7.2-20.5.3-30.4 25.7-34.3 58.5-75 76.8-95.4 16.2-18.1 18.1-20.6 18.2-23.6 0-1.1 11.7-13.8 26.1-28.2s34-34.2 43.6-44c12.2-12.3 18.5-18 20.9-18.4 3.7-.8 35.3-31 53.9-51.6 5.5-6.1 11.1-11.8 12.5-12.7 3.2-2.1 28.3-26.5 47.6-46.3 19-19.5 41.6-40.6 42.5-39.6.4.4.8 1.4.8 2.3 0 5.2 10.8 28.7 27 59.3 20.2 37.8 23.8 44 41.4 71.4 29.2 45.3 36.6 55.5 59.7 82.6 8.4 9.8 20.8 25.9 27.7 35.8 11.3 16.2 15.5 21 40.2 45.6 27.1 27 28.4 28.1 75.8 64.3 60.2 45.9 71.6 53.4 118.7 77.6 24.6 12.7 40.2 19.2 64.4 27l17.5 5.6-4 3.5c-20.9 18.4-52 47.3-54.6 50.7-3.7 4.9-4.1 9.2-1 13.9 4.3 6.5 8.6 6.4 18.4-.7 5.1-3.7 37.3-33 53.1-48.3 3.8-3.7 7.3-6.8 7.6-6.8.4 0 2.8-2.1 5.5-4.8 4.5-4.4 5.6-4.9 15.9-6.5 6.1-.9 12.4-1.5 14-1.3 1.6.2 48.1 34.3 103.3 75.6 102.1 76.4 385.6 288.3 487.8 364.7l56.3 42h-541l-140.3-95.7zm-475.45-935.12c.5-3.2 1.47-6.78 2.13-7.92.96-1.65 1.22-.9 1.25 3.56.02 3.18.52 5.35 1.13 4.97.6-.4 1.42-.2 1.8.4.57.9-4.9 4.7-6.76 4.7-.26 0-.05-2.6.46-5.9zm2.12 80.15c-.7-1.8-2.82-8-4.72-13.76-1.9-5.77-3.92-11.06-4.5-11.75-2.78-3.36 5.5-23.5 11.2-27.24 3.4-2.24 4.68-1.5 5.64 3.3.64 3.2 6.6 18.83 13 34.12l1.83 4.37-4.5 2.3c-2.5 1.25-7.3 4.45-10.6 7.1l-6.1 4.82-1.3-3.3z"/><path fill="none" d="M1457.03 963.17l-5.92-11.45c-1-1.94-4.9-10.2-8.7-18.34l-6.9-14.83 2.3-3.6c2.7-4.2 12.4-11.02 15-10.52 1 .2 3.4 3.25 5.2 6.8 4.5 8.54 20.9 38.16 24.2 43.7l2.7 4.4-3.1 1.2c-1.7.66-6.8 3.3-11.2 5.88-4.4 2.6-8.3 4.7-8.6 4.7-.3 0-2.4-3.5-4.6-7.9zm189.62 245.1c-4.1-3.14-17.2-15.1-29.16-26.56l-21.8-20.8 3.9-1.8c3.1-1.4 4-2.6 4.3-5.8.9-9.5-3.5-13.1-16.5-13.5-7.2-.2-8.5-.6-10.5-3.1-1.2-1.5-2.2-3.6-2.2-4.7-.1-1-1-2.8-2.1-4.1-1.2-1.2-3.2-3.6-4.4-5.3-1.3-1.7-10.7-12.7-20.8-24.5-10.2-11.8-18.5-21.8-18.5-22.2 0-.4 2.3-2 5.2-3.5 9.7-5.1 8.9-12.3-2-17.9-5.2-2.6-9.3-2.8-13.7-.5l-3.2 1.7-8-10.7c-8.7-11.7-27.4-39.6-29.2-43.5-.6-1.3-1.9-3.7-2.8-5.3-1.5-2.6-1.4-3.1.9-5.6 3.2-3.4 19-11.3 20.6-10.3.6.4 4.1 4.8 7.7 9.8 3.6 5 9.4 12.8 13 17.3s12.9 16.6 20.7 26.9c7.8 10.3 21.3 26.7 30 36.4l36.7 41.3c18.7 21.2 44.8 47.2 82.9 82.8 13 12.2 13.1 12.3 10.8 14.7-1.3 1.4-2.3 3.1-2.3 3.8 0 2.1-4.4 1.7-5.2-.3-.9-2.3-9.1-2.3-24.8 0-6.5.9-12 1.7-12.4 1.7-.3 0-3.9-2.6-8-5.7zm88.5 65.88c-1.75-3.38-8.4-8.33-11.2-8.33-.8 0-2.5-1.35-3.8-3-1.3-1.64-4.66-4.07-7.5-5.4-2.83-1.34-8.8-5.8-13.25-9.93-4.46-4.2-8.82-7.6-9.7-7.6-.87 0-3.43-1.6-5.68-3.5l-4.1-3.4 5.67-1.5c6.2-1.6 12.5-6.1 12.5-9.1 0-1.5.3-1.6 1.4-.5 2.1 2.1 6.5 1.7 11.5-1.1l4.4-2.5 19.7 15.5c10.9 8.5 19.9 16.2 20.1 17.1.9 3.8-14.1 26.3-17.5 26.3-.6 0-1.9-1.6-2.8-3.4zm70.33 41.82c-3.2-2.02-8.2-4.9-11.1-6.4-8.28-4.28-15.68-8.58-17.6-10.24-.98-.84-3.62-2.1-5.88-2.84-2.26-.8-5.83-2.4-7.93-3.7l-3.82-2.4 5.22-7.1c2.87-3.9 6.6-10 8.3-13.4l3.1-6.3L1793 1275c9.5 6.28 21.87 14.24 27.52 17.68 5.65 3.44 10.28 6.5 10.28 6.82 0 1.22-5.25 9.24-8.1 12.38-1.68 1.85-4.93 4.3-7.22 5.5l-4.17 2.16-5.8-3.67zm69.34 22.03c-3.23-.83-9.04-1.56-12.92-1.62-4.14-.06-10.76-1.35-16.1-3.13l-9.07-3.02 4.74-6c2.6-3.3 5.76-8 7-10.42l2.25-4.4 6.76 3c3.7 1.7 12.83 5.4 20.26 8.3 7.43 2.9 13.94 5.7 14.47 6.2 1.1 1.1-8.5 12.9-10.3 12.8-.6 0-3.8-.7-7-1.5zm33.5 1.92c1.68-1.68 3.6-4.02 4.24-5.2 1.25-2.24 1.07-2.26 20.32 2.22 5.55 1.3-5.37 4.78-17.03 5.45l-10.6.6 3.06-3.1zm15.8-24.14c-14.58-3.7-46.76-15.97-69.1-26.32-25.48-11.8-95.83-59.2-130.5-87.93-13.65-11.3-60.2-54.2-79.3-73.1-13.44-13.26-52.24-56.65-73.5-82.2-8.57-10.26-46.1-59.76-58.8-77.48-11.9-16.67-45.25-78.92-53.75-100.4-12.34-31.14-17.87-51.78-16.77-62.5.3-3.1 3.3-12.76 6.66-21.52l6.1-15.92 17.25-10c163.7-94.9 162-93.9 166.3-93.1 3.5.7 5.7 0 12.7-3.6 4.7-2.4 57-33.4 116.2-68.8l107.6-64.4 8.4 1.2c4.6.7 13.9 2.5 20.8 4.2 6.9 1.6 14.9 3 17.8 3 4.8 0 5.9-.5 9.7-4.7 3.8-4.1 5-4.7 9.4-4.7 4.5 0 5.8-.7 11.2-5.8 4.2-4 8-6.3 12.2-7.6 3.4-1 8.2-3 10.8-4.4l4.7-2.6 9.7 3.2c15.7 5.1 43.3 21.5 70.7 42 19.4 14.5 79.4 72.5 120.2 116.1 18.2 19.4 29 33 49.7 62.3 17.3 24.5 17.1 24.2 20.3 38.1l2.9 12.8-2.2 6.1c-1.3 3.5-5.6 10.1-10.1 15.4-4.2 5.1-8.8 11.6-10.1 14.5l-2.3 5.2 3.3 9.9 3.3 9.9-5.6 5-5.6 5 3.2 13.3c2.7 11.5 3 13.8 1.7 17.6-4.2 12.9-25.4 49.8-34.6 60.1-10.4 11.7-21.9 30-51 81.1-7.9 13.9-24.3 40.3-36.4 58.7-23.3 35.4-26.2 40.4-27.6 47-.5 2.3-1.9 6.2-3.2 8.8-4.6 9.3-32.7 53.4-38.7 61-4.1 5.1-8.6 13.2-13.2 23.5-6.4 14.2-9.6 19.2-34.7 54l-27.6 38.3-7.8 2.4c-10.1 3.1-11.5 3-29.8-1.7z"/><path fill="none" d="M1895.37 1748.9c-77.18-52.68-161.83-110.4-188.12-128.27-26.3-17.87-47.65-33.02-47.46-33.67.1-.64 3.7-4 7.8-7.48 4.1-3.47 13.7-12.32 21.3-19.66s15.2-14.1 17-15.02c1.7-.92 8.1-6.74 14.2-12.92 9-9.22 10.9-11.76 10.4-14.1-.4-2.06.1-3.15 1.9-4 1.3-.63 5.7-4.1 9.7-7.73 4.6-4.26 8.2-6.6 10.1-6.6 3.7 0 9-4.2 9-7.12 0-1.48.8-2.27 2.3-2.27 1.3 0 5.4-2.65 9.1-5.9 3.7-3.23 9.6-8.35 13-11.37 3.4-3.1 6.8-6.7 7.5-8.2.6-1.5 2.3-2.9 3.7-3.3 3.8-1 11.9-8.4 14-13 1.6-3.4 1.7-4.7.5-7.2-1.6-3.5-6.5-6.5-10.7-6.5-4 0-15.9 8.1-17.6 12-.9 2-3.4 4.2-6.2 5.5-2.6 1.2-9.9 7.2-16.2 13.2-8.8 8.4-11.8 12-12.4 15-.7 3.5-1.4 4.1-5.1 4.6-6.1.8-23.3 17-23.3 21.9 0 3.5-2.1 5.1-12 9-4.7 1.8-24.5 20-24.5 22.4 0 .8-1.5 1.8-3.2 2.1-2 .4-8.9 6.1-17.3 14.2-15.2 14.6-24 21.2-30.2 23-2.2.6-5.7 2.1-7.7 3.4-4.6 2.8-17 18.2-25.3 31.3l-6 9.5-10.5.7c-6.5.4-11.6 1.3-13.3 2.5-1.6 1-8.3 8-14.9 15.4l-12.1 13.6-.6 8.3-.6 8.3-18.8 12.1c-10.3 6.6-19.3 12.1-20.1 12.1-.7 0-5.6-2.4-10.8-5.3-5.2-2.9-11.6-5.6-14.2-6-4.5-.7-5-.5-10.7 5.2l-6 5.9-19-3.5c-10.5-1.9-21.6-4.3-24.9-5.2-13.3-3.9-45.4-16.4-55.8-21.8-14.4-7.3-40.8-23.9-65-40.8l-19.2-13.3 1.2-4.6 1.2-4.7-13.5-12.8c-16.1-15.4-14.2-13.5-19.2-19.2-3.6-4.1-4.7-4.7-9.4-4.8-5-.1-6.1-.8-16-9.8-5.9-5.3-11.4-9.6-12.3-9.6-1 0-1.8-2.4-2.3-7.4-.6-5.9-1.3-7.8-3.7-10-1.7-1.4-4-2.7-5-2.7-1.9-.1-13.6-12.9-14.9-16.5-.9-2.2-9.2-6.9-12.2-6.9-1.2 0-3.7 1.2-5.4 2.5-2.7 2.2-3.4 2.3-4.7.9-3.6-3.8-20.4-25.4-22.5-28.6-1.2-2-5.7-8.6-10-14.7-7.5-10.8-21.4-32.4-33.1-51.4-3.3-5.5-5.5-10.5-5.5-12.7 0-3.1-2.9-10-7.6-18.2-5.1-8.8-19.9-45.5-22.3-55.4-.6-2.2.1-5 2.4-9.7 4.2-8.6 3.5-14-4.4-33.3-7.2-17.6-7.2-20.5.3-30.4 25.7-34.3 58.5-75 76.8-95.4 16.2-18.1 18.1-20.6 18.2-23.6 0-1.1 11.7-13.8 26.1-28.2s34-34.2 43.6-44c12.2-12.3 18.5-18 20.9-18.4 3.7-.8 35.3-31 53.9-51.6 5.5-6.1 11.1-11.8 12.5-12.7 3.2-2.1 28.3-26.5 47.6-46.3 19-19.5 41.6-40.6 42.5-39.6.4.4.8 1.4.8 2.3 0 5.2 10.8 28.7 27 59.3 20.2 37.8 23.8 44 41.4 71.4 29.2 45.3 36.6 55.5 59.7 82.6 8.4 9.8 20.8 25.9 27.7 35.8 11.3 16.2 15.5 21 40.2 45.6 27.1 27 28.4 28.1 75.8 64.3 60.2 45.9 71.6 53.4 118.7 77.6 24.6 12.7 40.2 19.2 64.4 27l17.5 5.6-4 3.5c-20.9 18.4-52 47.3-54.6 50.7-3.7 4.9-4.1 9.2-1 13.9 4.3 6.5 8.6 6.4 18.4-.7 5.1-3.7 37.3-33 53.1-48.3 3.8-3.7 7.3-6.8 7.6-6.8.4 0 2.8-2.1 5.5-4.8 4.5-4.4 5.6-4.9 15.9-6.5 6.1-.9 12.4-1.5 14-1.3 1.6.2 48.1 34.3 103.3 75.6 102.1 76.4 385.6 288.3 487.8 364.7l56.3 42h-541l-140.3-95.7z"/></svg>