<?xml version="1.0" encoding="UTF-8" standalone="no"?>
<!-- Created with Inkscape (http://www.inkscape.org/) -->

<svg
   xmlns:dc="http://purl.org/dc/elements/1.1/"
   xmlns:cc="http://creativecommons.org/ns#"
   xmlns:rdf="http://www.w3.org/1999/02/22-rdf-syntax-ns#"
   xmlns:svg="http://www.w3.org/2000/svg"
   xmlns="http://www.w3.org/2000/svg"
   xmlns:sodipodi="http://sodipodi.sourceforge.net/DTD/sodipodi-0.dtd"
   xmlns:inkscape="http://www.inkscape.org/namespaces/inkscape"
   width="24.562679"
   height="25.754311"
   id="svg2"
   version="1.1"
   inkscape:version="0.48.4 r9939"
   sodipodi:docname="DRG1.svg">
  <defs
     id="defs4" />
  <sodipodi:namedview
     id="base"
     pagecolor="#ffffff"
     bordercolor="#666666"
     borderopacity="1.0"
     inkscape:pageopacity="0.0"
     inkscape:pageshadow="2"
     inkscape:zoom="23.646527"
     inkscape:cx="12.281339"
     inkscape:cy="14.877156"
     inkscape:document-units="px"
     inkscape:current-layer="layer1"
     showgrid="false"
     fit-margin-top="3"
     fit-margin-left="0"
     fit-margin-right="0"
     fit-margin-bottom="7"
     inkscape:window-width="1366"
     inkscape:window-height="750"
     inkscape:window-x="0"
     inkscape:window-y="18"
     inkscape:window-maximized="1" />
  <metadata
     id="metadata7">
    <rdf:RDF>
      <cc:Work
         rdf:about="">
        <dc:format>image/svg+xml</dc:format>
        <dc:type
           rdf:resource="http://purl.org/dc/dcmitype/StillImage" />
        <dc:title></dc:title>
      </cc:Work>
    </rdf:RDF>
  </metadata>
  <g
     inkscape:label="Layer 1"
     inkscape:groupmode="layer"
     id="layer1"
     transform="translate(-165.43732,-368.40625)">
    <path
       style="fill:#ffffff;fill-opacity:1;stroke:#000000;stroke-width:0.5;stroke-miterlimit:4;stroke-opacity:1;stroke-dasharray:none"
       d="m 181.85605,386.91059 c -0.28884,-0.0326 -0.68391,-0.11788 -0.94853,-0.2048 -0.23731,-0.0779 -0.6981,-0.2904 -0.72528,-0.33439 -0.0407,-0.0658 0.054,-0.0602 0.30006,0.0179 0.53992,0.17135 0.76019,0.17308 1.12407,0.009 l 0.18595,-0.0839 0.79027,-8.1e-4 c 0.82491,-9e-4 0.83839,-0.002 1.24652,-0.10681 0.5164,-0.13258 0.81504,-0.29265 1.12679,-0.60395 0.31744,-0.317 0.47831,-0.68358 0.50998,-1.16212 0.0292,-0.44038 -0.11915,-0.85261 -0.3953,-1.09884 -0.27791,-0.24781 -0.54504,-0.32759 -1.0993,-0.32831 -1.10108,-0.002 -2.08595,0.31842 -4.47331,1.45265 -1.3263,0.63014 -2.04386,0.8973 -2.80384,1.04396 -0.78084,0.15069 -1.90635,0.12901 -2.61898,-0.0504 -0.85662,-0.21571 -1.86147,-0.73227 -2.63856,-1.3564 -0.31498,-0.25298 -0.91008,-0.79396 -0.97742,-0.88854 -0.0853,-0.11976 -0.0447,-0.14047 0.31385,-0.1603 0.17178,-0.01 0.51288,-0.0347 0.75798,-0.0559 0.41798,-0.0362 0.44765,-0.0359 0.47767,0.005 0.16284,0.22269 0.49748,0.59315 0.69351,0.76774 0.43723,0.38942 0.91253,0.66248 1.47208,0.84572 0.67162,0.21995 1.18295,0.28135 1.96604,0.23612 1.12288,-0.0648 1.89641,-0.29664 3.93126,-1.178 1.36493,-0.59119 2.02787,-0.81013 2.88969,-0.95436 0.48651,-0.0814 0.83395,-0.10058 1.2019,-0.0663 0.59574,0.0555 0.94992,0.19307 1.23272,0.47883 0.31787,0.32119 0.42624,0.65224 0.40293,1.23082 -0.0172,0.42752 -0.0537,0.57033 -0.24458,0.95597 -0.33918,0.68549 -0.84889,1.12084 -1.6088,1.37409 -0.63194,0.2106 -1.41883,0.29215 -2.08937,0.21652 z m 0.93555,-0.0485 c 1.1301,-0.10003 1.95161,-0.48076 2.43703,-1.12942 0.31345,-0.41887 0.46185,-0.78234 0.50401,-1.23448 0.0624,-0.66875 -0.10292,-1.12692 -0.52103,-1.44431 -0.29796,-0.22617 -0.63791,-0.31897 -1.24359,-0.33944 -0.47964,-0.0162 -0.74211,0.009 -1.28095,0.12198 -0.77857,0.16356 -1.31802,0.34982 -2.53904,0.87669 -2.30532,0.99475 -3.09653,1.21166 -4.41972,1.21173 -1.52979,8e-5 -2.78122,-0.59766 -3.66947,-1.7527 -0.0988,-0.12851 -0.13342,-0.15692 -0.17839,-0.14654 -0.0896,0.0206 -1.00781,0.0893 -1.19484,0.0893 -0.094,0 -0.17667,0.009 -0.1838,0.021 -0.0291,0.0469 0.70789,0.71578 1.18132,1.0721 0.83133,0.6257 1.81235,1.08156 2.69347,1.25159 0.60945,0.11761 1.62084,0.11772 2.24272,2.3e-4 0.80441,-0.15198 1.40108,-0.37097 2.77668,-1.0191 2.32968,-1.09766 3.21498,-1.40559 4.25312,-1.47931 0.62428,-0.0444 1.03843,0.0215 1.31024,0.20858 0.41631,0.28638 0.59234,0.69359 0.56025,1.29605 -0.0447,0.83992 -0.55903,1.45399 -1.46055,1.74391 -0.45651,0.14681 -0.52202,0.15405 -1.39999,0.15486 l -0.81577,6.9e-4 -0.17845,0.0802 c -0.33819,0.15209 -0.52792,0.17033 -0.90499,0.087 -0.11918,-0.0263 -0.21975,-0.045 -0.22349,-0.0414 -0.0152,0.0144 0.43061,0.17107 0.6529,0.22949 0.53805,0.14138 1.07056,0.18832 1.60233,0.14124 z m -15.78829,-5.33346 c -0.2652,-0.28179 -0.67889,-0.94466 -0.90577,-1.45136 -0.16319,-0.36447 -0.31584,-0.81367 -0.38318,-1.12759 -0.0796,-0.3712 -0.0809,-1.14671 -0.003,-1.48145 0.12219,-0.52118 0.30752,-0.89866 0.63257,-1.28837 0.64699,-0.7757 1.67402,-1.30681 3.52712,-1.824 0.47757,-0.13329 0.64013,-0.16264 0.64013,-0.11559 0,0.0489 -0.0827,0.081 -0.53244,0.20625 -1.16939,0.32588 -1.93374,0.63864 -2.53796,1.03851 -0.48345,0.31995 -1.00041,0.92167 -1.18813,1.38296 -0.099,0.24321 -0.19564,0.65141 -0.22903,0.96717 -0.0657,0.62048 0.10043,1.33604 0.53508,2.30582 0.0952,0.21251 0.27299,0.60845 0.395,0.87987 0.21703,0.48283 0.25871,0.6126 0.20315,0.63246 -0.0151,0.005 -0.0845,-0.0507 -0.15413,-0.12468 z m 0.0544,-0.11643 c -0.033,-0.0812 -0.18822,-0.42821 -0.34495,-0.77116 -0.55876,-1.22255 -0.7165,-1.7205 -0.75476,-2.38254 -0.0186,-0.32209 0.0128,-0.61479 0.10815,-1.00696 0.20457,-0.84168 0.82736,-1.57651 1.75231,-2.06755 0.12831,-0.0681 0.22286,-0.12407 0.21011,-0.12434 -0.0127,-2.3e-4 -0.15375,0.0681 -0.31333,0.15191 -1.2917,0.67844 -1.91481,1.53694 -2.00798,2.76653 -0.0177,0.23371 0.0192,0.71201 0.076,0.98583 0.12643,0.6089 0.47955,1.40332 0.91025,2.0478 0.14422,0.21582 0.39604,0.5481 0.41537,0.5481 0.005,0 -0.0182,-0.0664 -0.0513,-0.14762 z m 1.83313,0.0733 c -0.005,-0.006 -0.0105,-0.38316 -0.0105,-0.8385 l 0,-0.82788 0.46524,0.0149 c 0.61905,0.0198 0.83932,0.0761 1.09994,0.28127 0.17741,0.13964 0.27488,0.44707 0.21956,0.69254 -0.0863,0.38279 -0.39279,0.58444 -0.98485,0.6479 -0.26683,0.0286 -0.77153,0.0477 -0.78932,0.0298 z m 0.38456,-0.83063 0,-0.76479 -0.17208,-0.007 -0.17207,-0.007 0,0.77986 0,0.77986 0.17207,-0.007 0.17208,-0.007 0,-0.76478 z m 0.80085,0.65596 c 0.21901,-0.0651 0.35873,-0.17662 0.45728,-0.36508 0.0775,-0.14813 0.0844,-0.17893 0.0739,-0.32913 -0.007,-0.0989 -0.0336,-0.20884 -0.0662,-0.27278 -0.091,-0.17836 -0.34796,-0.33983 -0.64126,-0.40307 l -0.0892,-0.0192 0.11445,0.0874 c 0.073,0.0557 0.14225,0.1417 0.1912,0.2374 0.0703,0.13749 0.0768,0.17156 0.0768,0.40679 0,0.22158 -0.008,0.27232 -0.0607,0.37067 -0.0939,0.17625 -0.16084,0.25643 -0.25794,0.30916 l -0.0892,0.0484 0.0765,-0.0148 c 0.0421,-0.008 0.13859,-0.0332 0.21451,-0.0557 z m -0.25379,-0.0338 c 0.10984,-0.0617 0.20285,-0.17897 0.26996,-0.34029 0.0514,-0.12367 0.0578,-0.39944 0.0124,-0.53673 -0.0473,-0.14308 -0.16347,-0.3047 -0.2632,-0.36634 -0.0869,-0.0537 -0.44192,-0.12333 -0.47258,-0.0927 -0.009,0.009 -0.0213,0.3334 -0.0262,0.71995 l -0.009,0.70282 0.19323,-0.0146 c 0.13208,-0.01 0.22561,-0.0328 0.29554,-0.0722 z m 2.47383,-0.62058 c 0,-0.45486 0.01,-0.8331 0.0218,-0.84052 0.039,-0.0241 1.36663,0.0339 1.4512,0.0634 l 0.082,0.0286 0,0.32496 c 0,0.28244 -0.006,0.33048 -0.0466,0.36715 -0.0257,0.0232 -0.0629,0.0426 -0.0829,0.0432 -0.0199,5.8e-4 9.2e-4,0.0172 0.0466,0.037 l 0.0829,0.036 0,0.38691 0,0.38692 -0.15933,-0.018 c -0.0877,-0.01 -0.19088,-0.0243 -0.22944,-0.032 l -0.0701,-0.0139 0,-0.34097 0,-0.34096 -0.11553,0 c -0.15373,0 -0.29906,-0.061 -0.28766,-0.12061 0.007,-0.0377 0.041,-0.0463 0.2059,-0.0525 l 0.19729,-0.007 0,-0.32141 0,-0.32141 -0.31118,0.0176 c -0.17114,0.01 -0.31395,0.0204 -0.31733,0.0238 -0.004,0.004 -0.0143,0.34707 -0.0242,0.76376 l -0.0181,0.75761 -0.21272,0 -0.21272,0 0,-0.82701 z m 0.38805,-0.002 0.007,-0.77753 -0.17207,1e-5 -0.17208,10e-6 0,0.77753 0,0.77753 0.16498,0 0.16499,0 0.007,-0.77755 z m 1.10643,0.12648 c -0.006,-0.0161 -0.0639,-0.044 -0.12829,-0.0621 -0.14394,-0.0403 -0.14946,-0.0848 -0.0155,-0.12498 0.0558,-0.0168 0.11322,-0.0522 0.12747,-0.0789 0.0142,-0.0266 0.0259,-0.1631 0.0259,-0.30329 0,-0.28615 0.0144,-0.26698 -0.22306,-0.29711 l -0.13383,-0.017 0,0.35929 0,0.35929 -0.17996,0 c -0.22184,0 -0.21279,0.0403 0.0145,0.0647 l 0.16544,0.0177 0,0.33716 0,0.33716 0.17207,0.0231 0.17208,0.0231 0.007,-0.30451 c 0.004,-0.16746 0.002,-0.31768 -0.004,-0.33381 z m 1.71761,-0.01 0,-0.71172 0.0829,-0.0511 c 0.23597,-0.1454 0.33968,-0.16833 0.75841,-0.16773 0.42274,5.7e-4 0.58429,0.0351 0.76425,0.16326 l 0.077,0.0548 0,0.71206 0,0.71207 -0.24219,0 -0.24217,0 -0.003,-0.37603 c -0.002,-0.2068 -0.0103,-0.53088 -0.0192,-0.72017 l -0.0161,-0.34415 -0.0892,-0.0304 c -0.11357,-0.0387 -0.3032,-0.0412 -0.4441,-0.005 l -0.10977,0.0276 -0.0161,0.16992 c -0.009,0.0935 -0.0161,0.21247 -0.0162,0.26445 l -2.3e-4,0.0945 0.1973,0.007 c 0.16142,0.006 0.19879,0.0153 0.20553,0.0506 0.0119,0.0627 -0.12189,0.12256 -0.2741,0.12256 l -0.12873,0 0,0.36965 0,0.36964 -0.24218,0 -0.24219,0 0,-0.71171 z m 0.43338,0.29462 0,-0.3661 0.1559,-0.0141 c 0.23478,-0.0213 0.25395,-0.0694 0.0276,-0.0694 l -0.18355,0 0,-0.30655 0,-0.30654 0.0702,-0.0309 c 0.0402,-0.0177 0.18492,-0.031 0.33889,-0.0313 0.21484,-3.4e-4 0.28265,0.008 0.33778,0.0448 l 0.069,0.0452 0,0.70047 0,0.70046 0.19162,0 0.19162,0 -0.006,-0.66919 -0.006,-0.66918 -0.16571,-0.0828 c -0.31587,-0.15784 -0.85768,-0.16159 -1.19037,-0.008 l -0.17831,0.0822 -0.0166,0.47604 c -0.009,0.26182 -0.0167,0.56495 -0.0167,0.67361 l -8e-5,0.19757 0.1912,0 0.19119,0 0,-0.36611 z m 3.04638,0.40118 c -0.0421,-0.006 -0.13671,-0.0233 -0.21031,-0.0378 l -0.13384,-0.0264 0,-0.76025 c 0,-0.699 0.004,-0.76195 0.0447,-0.78138 0.0246,-0.0116 0.39163,-0.025 0.81577,-0.0299 l 0.77115,-0.009 0,0.18013 0,0.18013 -0.2389,0 -0.23889,0 -0.0169,-0.12746 -0.0169,-0.12747 -0.30102,0 -0.30103,0 -0.0167,0.43976 c -0.009,0.24185 -0.0167,0.56306 -0.0168,0.71379 l -7e-5,0.27405 0.3314,0 0.33141,0 0,-0.34415 0,-0.34416 -0.21856,0 c -0.19229,0 -0.21755,-0.005 -0.21018,-0.0435 0.0126,-0.0654 0.0983,-0.0787 0.52434,-0.0814 l 0.38877,-0.003 0,0.43132 0,0.43131 -0.1211,0.0292 c -0.1219,0.0293 -1.0239,0.0568 -1.16629,0.0355 z m 0.57997,-0.0537 c -0.0596,-0.006 -0.1571,-0.006 -0.21669,0 -0.0596,0.005 -0.0108,0.01 0.10834,0.01 0.11917,0 0.16794,-0.005 0.10835,-0.01 z m -0.49074,-0.75886 0,-0.75204 -0.11153,0 c -0.0613,0 -0.14738,0.007 -0.1912,0.016 l -0.0797,0.0159 0,0.70772 0,0.70771 0.14658,0.0251 c 0.0806,0.0138 0.16666,0.0266 0.1912,0.0284 0.0415,0.003 0.0446,-0.0483 0.0446,-0.74876 z m 1.03883,0.71324 0.10834,-0.0167 0,-0.38015 0,-0.38016 -0.29954,0.005 c -0.16474,0.003 -0.25078,0.009 -0.1912,0.0142 l 0.10835,0.01 0,0.39652 0,0.3965 0.0829,-0.0139 c 0.0456,-0.007 0.1316,-0.0214 0.1912,-0.0305 z m 0.10834,-1.36331 0,-0.12746 -0.19119,0 -0.1912,0 0,0.12746 0,0.12746 0.1912,0 0.19119,0 0,-0.12746 z m 2.09307,1.43824 c -0.40928,-0.11007 -0.71693,-0.44783 -0.71632,-0.78643 5.8e-4,-0.33722 0.28065,-0.66498 0.6689,-0.78291 0.14271,-0.0434 0.22501,-0.0512 0.45981,-0.0435 0.25145,0.008 0.30373,0.0179 0.4328,0.0811 0.21824,0.10701 0.37899,0.24584 0.46477,0.4014 0.0655,0.11872 0.0763,0.16522 0.0765,0.32943 2.3e-4,0.15115 -0.0127,0.21749 -0.0615,0.31669 -0.11445,0.23256 -0.34906,0.40881 -0.65203,0.48987 -0.16508,0.0442 -0.49807,0.0414 -0.6729,-0.005 z m 0.41195,-0.0286 c -0.0314,-0.006 -0.0887,-0.006 -0.12747,-3.4e-4 -0.0388,0.005 -0.0131,0.0108 0.057,0.011 0.0702,2.2e-4 0.10181,-0.005 0.0704,-0.0106 z m -0.28969,-0.0583 c -0.29142,-0.15403 -0.44952,-0.58877 -0.34494,-0.94853 0.0589,-0.20265 0.18449,-0.37816 0.32199,-0.45003 l 0.11471,-0.06 -0.12076,0.0148 c -0.0664,0.008 -0.18687,0.0482 -0.26767,0.0891 -0.50882,0.25748 -0.61574,0.78788 -0.23016,1.14184 0.1658,0.15221 0.39351,0.25916 0.55487,0.26063 0.0579,5.7e-4 0.0553,-0.004 -0.0281,-0.048 z m 0.73313,-0.0498 c 0.29067,-0.13528 0.46805,-0.38505 0.46701,-0.65762 -6.8e-4,-0.1829 -0.0626,-0.32474 -0.20303,-0.46517 -0.1255,-0.12549 -0.43415,-0.28076 -0.55811,-0.28076 l -0.0876,0 0.11236,0.0593 c 0.23888,0.12609 0.36988,0.40943 0.34874,0.7543 -0.0184,0.30087 -0.15306,0.5316 -0.37845,0.64861 l -0.0874,0.0454 0.11471,-0.0155 c 0.0631,-0.008 0.18537,-0.0483 0.27172,-0.0886 z m -0.29118,-0.0342 c 0.18515,-0.10246 0.30769,-0.34939 0.30633,-0.6173 -0.002,-0.40315 -0.21961,-0.68284 -0.53119,-0.68284 -0.25117,0 -0.44396,0.19843 -0.51157,0.52652 -0.0696,0.33781 0.11224,0.72056 0.38975,0.82032 0.1138,0.0409 0.21235,0.0276 0.34668,-0.0467 z m 2.3648,-0.57734 c 0,-0.72893 0.004,-0.78957 0.0446,-0.80192 0.17095,-0.0512 0.43662,-0.0718 0.76889,-0.0595 0.37804,0.0139 0.54921,0.048 0.74793,0.14927 l 0.0956,0.0487 0,0.72602 0,0.72604 -0.24218,0 -0.24218,0 -1.2e-4,-0.49074 c -7e-5,-0.26991 -0.007,-0.58672 -0.0168,-0.70403 l -0.0166,-0.21329 -0.0899,-0.0376 c -0.0495,-0.0207 -0.19681,-0.044 -0.3274,-0.0517 l -0.23744,-0.0142 0,0.75578 0,0.75579 -0.24218,0 -0.24218,0 0,-0.78856 z m 0.43338,-0.0172 0,-0.75471 0.29954,0.01 c 0.32773,0.0109 0.44647,0.0494 0.4744,0.15367 0.008,0.0321 0.0158,0.34804 0.016,0.70208 l 3.5e-4,0.64369 0.19119,0 0.1912,0 0,-0.677 0,-0.67699 -0.11114,-0.0491 c -0.22981,-0.10166 -0.42304,-0.13436 -0.79385,-0.13437 -0.1963,0 -0.42286,0.0141 -0.50349,0.0313 l -0.14658,0.0313 0,0.73748 0,0.73749 0.1912,0 0.19119,0 0,-0.75473 z m 2.54927,0.66777 c 0,-0.0458 0.18504,-0.47605 0.47787,-1.1112 0.37489,-0.81314 0.4952,-1.14483 0.61021,-1.68253 0.0367,-0.1714 0.046,-0.3259 0.0447,-0.73928 -0.002,-0.47917 -0.007,-0.54289 -0.0675,-0.76667 -0.15529,-0.57517 -0.37828,-0.95074 -0.83235,-1.40181 -0.67658,-0.6721 -1.51673,-1.08361 -2.88423,-1.41273 -0.58829,-0.14159 -0.59786,-0.14491 -0.60722,-0.21084 -0.0112,-0.0788 0.0125,-0.0764 0.53247,0.0544 0.7986,0.20088 1.52783,0.46051 2.11878,0.75435 1.08081,0.53743 1.79553,1.33358 2.05389,2.28791 0.0626,0.23133 0.0675,0.28682 0.0677,0.77185 2.2e-4,0.61411 -0.0312,0.82548 -0.19818,1.33168 -0.24234,0.73471 -0.68075,1.53296 -1.1305,2.05838 -0.0865,0.10105 -0.18568,0.13656 -0.18568,0.0665 z m 0.20065,-0.186 c 0.3548,-0.43535 0.77293,-1.17924 0.98574,-1.75372 0.34313,-0.92628 0.37796,-1.84539 0.0976,-2.57477 -0.28503,-0.74142 -0.93398,-1.42872 -1.75558,-1.85926 -0.19275,-0.10101 -0.18665,-0.0956 0.12144,0.10801 0.7368,0.48692 1.23241,1.10821 1.43042,1.79315 0.10596,0.36649 0.12736,0.52638 0.12744,0.95233 2.3e-4,0.78348 -0.1397,1.28761 -0.68604,2.47279 -0.2951,0.64016 -0.4753,1.04812 -0.44981,1.01834 0.0114,-0.0133 0.0693,-0.0839 0.12882,-0.15687 z m -21.49583,-1.85268 c -0.37354,-0.93307 -0.24582,-2.11627 0.31898,-2.95519 0.13129,-0.19499 0.45898,-0.52436 0.69658,-0.70013 0.89077,-0.65897 2.19177,-1.09979 3.25113,-1.10159 0.6353,-9.2e-4 0.93135,0.079 1.8348,0.4963 0.50993,0.23553 0.57714,0.2736 0.60553,0.34294 0.0202,0.0491 0.0502,0.078 0.0813,0.078 0.075,0 0.0783,0.0265 0.0233,0.18931 -0.0885,0.26217 -0.0125,0.43853 0.25042,0.58109 0.23291,0.12627 0.40446,0.15379 1.06176,0.17032 0.56421,0.0142 0.61012,0.0188 0.64403,0.0652 0.0201,0.0275 0.0326,0.0619 0.0277,0.0765 -0.0161,0.0484 -0.2797,0.0683 -0.75665,0.0571 -0.38639,-0.009 -0.5055,-0.021 -0.65904,-0.0662 -0.47795,-0.1408 -0.69364,-0.3494 -0.77815,-0.75258 -0.0215,-0.10262 -0.0547,-0.18572 -0.0832,-0.20815 -0.026,-0.0205 -0.21569,-0.12169 -0.42136,-0.22475 -0.42098,-0.21097 -0.95535,-0.39676 -1.31944,-0.45874 -0.25725,-0.0438 -0.99046,-0.054 -1.20005,-0.0167 -0.13885,0.0247 -0.15015,0.0228 0.30592,0.0512 0.41451,0.0258 0.64615,0.068 1.06159,0.19399 0.27517,0.0834 1.02643,0.36298 1.30482,0.48558 l 0.13579,0.0598 -0.0179,0.22817 c -0.016,0.20384 -0.0119,0.24037 0.0376,0.34265 0.16695,0.34489 0.81388,0.53182 1.97179,0.56977 l 0.47862,0.0157 0.11863,0.16808 c 0.36656,0.51928 0.55095,0.7036 0.83303,0.83275 0.0802,0.0368 0.14154,0.0801 0.13623,0.0962 -0.0156,0.0473 -0.19572,0.14024 -0.38597,0.19909 -0.16007,0.0495 -0.21296,0.0531 -0.57359,0.0387 -0.21849,-0.008 -0.55212,-0.0394 -0.74141,-0.0684 -0.64721,-0.0989 -0.72693,-0.10744 -1.03246,-0.11099 -0.34139,-0.004 -0.48445,0.0321 -0.65494,0.16517 -0.0517,0.0404 -0.0986,0.0735 -0.10401,0.0735 -0.006,0 -0.0539,-0.0867 -0.10769,-0.19263 -0.27403,-0.53989 -0.77977,-0.66237 -1.56791,-0.37972 -0.24092,0.0864 -0.63164,0.27848 -0.875,0.43016 -0.20603,0.12841 -0.24668,0.13987 -0.24668,0.0695 0,-0.0623 0.24287,-0.44636 0.49711,-0.78607 0.24659,-0.32951 0.3039,-0.42247 0.34438,-0.55874 0.038,-0.12763 0.0102,-0.19314 -0.10933,-0.25831 -0.11223,-0.0612 -0.66382,-0.0595 -1.05082,0.004 -1.04197,0.16891 -1.91374,0.55586 -2.48808,1.10437 -0.47296,0.4517 -0.67028,0.87741 -0.70351,1.51773 -0.0182,0.35216 -0.0469,0.37934 -0.14394,0.13684 z m 0.14745,-0.65607 c 0.24282,-0.95341 1.31579,-1.76504 2.75646,-2.0851 0.51583,-0.11459 1.22021,-0.16536 1.44149,-0.10389 0.0507,0.0141 0.12238,0.0536 0.15934,0.0878 0.14329,0.1328 0.0654,0.36379 -0.27502,0.81519 -0.21402,0.28384 -0.47355,0.67281 -0.47356,0.70976 0,0.0109 0.0634,-0.0206 0.14082,-0.0701 0.39491,-0.25262 0.98901,-0.4926 1.36325,-0.55067 0.51589,-0.08 0.91535,0.10052 1.13208,0.51173 0.0406,0.0771 0.0766,0.14365 0.0798,0.14784 0.004,0.005 0.0493,-0.0218 0.10246,-0.0579 0.0531,-0.036 0.1604,-0.0841 0.2384,-0.10678 0.19527,-0.0568 0.68055,-0.0336 1.34075,0.0641 0.90449,0.13381 1.24066,0.13119 1.5645,-0.0122 l 0.14351,-0.0635 -0.15295,-0.0807 c -0.19853,-0.10476 -0.46407,-0.3713 -0.70396,-0.70659 l -0.19151,-0.26767 -0.50824,-0.0161 c -1.47606,-0.0469 -2.12694,-0.36459 -2,-0.97605 0.0161,-0.0779 0.0226,-0.15239 0.0144,-0.16572 -0.0206,-0.0334 -0.87085,-0.36656 -1.27877,-0.50115 -0.50462,-0.16647 -0.78868,-0.21693 -1.34164,-0.23829 -0.2628,-0.0102 -0.48301,-0.0236 -0.48936,-0.03 -0.0356,-0.0356 0.0511,-0.0793 0.22957,-0.11585 0.29158,-0.0597 1.09042,-0.059 1.40039,9.1e-4 0.35329,0.0686 0.88027,0.25411 1.27984,0.45048 0.45133,0.2218 0.50895,0.26794 0.53228,0.42627 0.0271,0.18428 0.0578,0.24442 0.0611,0.12001 0.002,-0.0561 0.0192,-0.14787 0.0394,-0.20395 0.0202,-0.0561 0.037,-0.10484 0.0371,-0.10834 2.3e-4,-0.004 -0.0212,-0.006 -0.0475,-0.006 -0.0548,0 -0.0955,-0.042 -0.10872,-0.11195 -0.006,-0.035 -0.14858,-0.11237 -0.51898,-0.28271 -0.64428,-0.29632 -0.80483,-0.36005 -1.10706,-0.43949 -0.21696,-0.057 -0.29498,-0.0642 -0.70292,-0.0645 -0.81974,-5.6e-4 -1.59488,0.1886 -2.42233,0.59125 -1.38412,0.67353 -2.02844,1.61077 -2.02518,2.94589 9e-4,0.37107 0.0387,0.62426 0.14414,0.96615 l 0.0716,0.23201 0.0168,-0.27067 c 0.009,-0.14887 0.0354,-0.34389 0.0582,-0.43338 z m 8.29414,-2.10423 c 0.46618,-0.0269 0.2989,-0.0634 -0.39401,-0.086 -0.62761,-0.0205 -0.71681,-0.0326 -0.94741,-0.12874 l -0.11918,-0.0497 0.0637,0.0515 c 0.035,0.0283 0.1555,0.0803 0.26767,0.11568 0.34073,0.10725 0.58722,0.12849 1.12919,0.0973 z m -1.47334,-0.27323 c 0,-0.006 -0.0201,-0.0254 -0.0447,-0.0447 -0.0404,-0.0317 -0.0413,-0.0308 -0.01,0.01 0.0333,0.0425 0.0542,0.0559 0.0542,0.035 z m -0.12746,-0.12746 c 0,-0.005 -0.0201,-0.0254 -0.0447,-0.0446 -0.0404,-0.0317 -0.0413,-0.0308 -0.01,0.01 0.0333,0.0425 0.0543,0.0559 0.0543,0.035 z m 14.67582,2.87968 c -0.0178,-0.47683 -0.0734,-0.77534 -0.20458,-1.09705 -0.31306,-0.76789 -0.88559,-1.25479 -1.74847,-1.487 -0.22231,-0.0598 -0.28952,-0.0658 -0.75393,-0.0675 -0.5826,-0.002 -0.67996,0.0165 -0.83271,0.15927 -0.10371,0.0969 -0.14695,0.21015 -0.14814,0.38803 -0.002,0.21884 0.16477,0.63353 0.39275,0.97966 0.0644,0.0977 0.11308,0.18948 0.10826,0.20393 -0.0221,0.0665 -0.11585,0.0212 -0.52954,-0.25615 -0.24404,-0.16358 -0.51179,-0.33004 -0.595,-0.36992 -0.31088,-0.14901 -0.59733,-0.15799 -0.73234,-0.0229 -0.0944,0.0943 -0.0971,0.25532 -0.008,0.47139 0.0347,0.0841 0.0631,0.16157 0.0631,0.17208 2.3e-4,0.0444 -0.0743,0.0105 -0.29179,-0.13264 -0.36905,-0.24276 -0.49736,-0.29276 -0.7533,-0.29355 -0.2804,-9.2e-4 -0.37653,0.0437 -0.67555,0.31365 -0.12619,0.1139 -0.23787,0.20732 -0.24819,0.20761 -0.0104,3.4e-4 -0.0521,-0.0655 -0.0928,-0.14622 -0.22596,-0.44765 -0.6507,-0.8046 -1.25356,-1.0535 -0.21615,-0.0892 -0.25392,-0.14029 -0.1198,-0.16191 0.75924,-0.12237 1.17224,-0.24785 1.53162,-0.46533 0.2406,-0.14561 0.52215,-0.44283 0.63542,-0.6708 0.10162,-0.20452 0.17192,-0.44179 0.17192,-0.58024 0,-0.0744 0.0121,-0.0902 0.0956,-0.12477 0.0525,-0.0218 0.19884,-0.10004 0.32503,-0.17391 0.33149,-0.19406 0.56819,-0.30884 0.73986,-0.35874 0.19256,-0.0559 0.57986,-0.0381 0.85344,0.0393 0.20208,0.0572 0.6354,0.25373 0.85215,0.38645 0.10715,0.0657 0.12057,0.0693 0.0783,0.0219 -0.13602,-0.1529 -0.47733,-0.35356 -0.77965,-0.45838 -0.23973,-0.0832 -0.22468,-0.12823 0.0427,-0.12823 1.0634,0 2.45387,0.66503 3.36394,1.60892 0.52212,0.54151 0.80535,1.14091 0.88115,1.86476 0.0465,0.44394 -0.0191,0.89009 -0.20925,1.42305 -0.11589,0.32484 -0.1405,0.29517 -0.15861,-0.19119 z m 0.15676,-0.008 c 0.13073,-0.41458 0.16504,-0.65833 0.14984,-1.06432 -0.0219,-0.58464 -0.16649,-1.03307 -0.48969,-1.51854 -0.59281,-0.89048 -1.93765,-1.75516 -3.08473,-1.98336 -0.1402,-0.0279 -0.3467,-0.0578 -0.45886,-0.0663 l -0.20395,-0.0156 0.181,0.0734 c 0.25612,0.10378 0.46726,0.23841 0.60519,0.38587 0.21254,0.2272 0.13007,0.24243 -0.23145,0.0427 -0.49474,-0.27333 -0.83327,-0.38092 -1.2048,-0.38291 -0.30211,-0.002 -0.46964,0.0517 -0.84205,0.26786 -0.14679,0.0852 -0.34432,0.19424 -0.43896,0.24229 -0.16789,0.0852 -0.17208,0.0898 -0.17208,0.18631 0,0.0545 -0.0239,0.17761 -0.0532,0.27373 -0.17045,0.55969 -0.64484,0.99154 -1.34235,1.22196 -0.21897,0.0723 -0.74476,0.18869 -0.85416,0.189 -0.11623,3.4e-4 -0.08,0.034 0.13312,0.12355 0.45752,0.19223 0.93216,0.59572 1.12163,0.95351 l 0.0885,0.16704 0.19772,-0.18599 c 0.28228,-0.26556 0.37571,-0.30587 0.70881,-0.30587 0.25699,0 0.27539,0.004 0.46091,0.0945 0.10628,0.052 0.26211,0.14517 0.34628,0.20713 l 0.15304,0.11267 -0.0624,-0.15431 c -0.10251,-0.25381 -0.0486,-0.45203 0.14686,-0.54018 0.13264,-0.0598 0.41423,-0.0414 0.62502,0.0407 0.0841,0.0328 0.34779,0.19004 0.58593,0.34944 0.55169,0.36927 0.54369,0.36531 0.43765,0.21653 -0.11487,-0.16115 -0.30639,-0.54647 -0.35798,-0.72016 -0.0226,-0.076 -0.041,-0.21967 -0.041,-0.31931 0,-0.32424 0.15657,-0.51654 0.47162,-0.57924 0.0842,-0.0168 0.3365,-0.03 0.56083,-0.0294 0.44956,9.2e-4 0.73426,0.0492 1.11745,0.18892 0.67993,0.24783 1.17275,0.73702 1.45315,1.44243 0.12501,0.3145 0.1705,0.55001 0.18763,0.97133 0.008,0.1998 0.0175,0.36327 0.021,0.36327 0.004,0 0.0414,-0.11185 0.0845,-0.24855 z m -8.48489,0.092 c 0,-0.0198 0.0447,-0.0954 0.0991,-0.16797 0.26284,-0.3498 0.17059,-0.74717 -0.23789,-1.02471 -0.18362,-0.12477 -0.37621,-0.21966 -0.90779,-0.4473 -0.84622,-0.36239 -1.12814,-0.52544 -1.37436,-0.79484 -0.13733,-0.15027 -0.26985,-0.39448 -0.24673,-0.45472 0.0249,-0.0649 0.0827,-0.044 0.2505,0.0907 0.31382,0.25186 0.53963,0.35002 1.46868,0.63839 1.06022,0.32908 1.36643,0.46666 1.63862,0.7362 0.2281,0.2259 0.29148,0.36212 0.2907,0.62481 -4.6e-4,0.1413 -0.0138,0.22823 -0.0433,0.28298 -0.077,0.14255 -0.28012,0.31632 -0.49101,0.42002 -0.22435,0.11034 -0.44657,0.15832 -0.44657,0.0964 z m 0.44921,-0.16281 c 0.17169,-0.0836 0.35521,-0.24746 0.42383,-0.37843 0.19126,-0.36502 -0.0902,-0.85748 -0.6452,-1.12878 -0.22109,-0.10808 -0.67658,-0.26811 -1.54475,-0.54271 -0.53963,-0.17068 -0.91311,-0.34339 -1.12915,-0.52214 -0.0764,-0.0633 -0.14319,-0.11075 -0.14836,-0.10558 -0.0237,0.0236 0.11432,0.24059 0.23278,0.36608 0.25519,0.27031 0.53878,0.43469 1.32566,0.76839 0.5564,0.23597 0.81146,0.36523 0.9868,0.50009 0.2496,0.19199 0.3551,0.38072 0.3551,0.63529 0,0.16733 -0.0358,0.27469 -0.14151,0.42441 l -0.0833,0.11789 0.11875,-0.0355 c 0.0653,-0.0195 0.1775,-0.0641 0.2493,-0.099 z m -3.07496,-1.09505 c -0.27762,-0.0473 -0.39874,-0.0841 -0.59908,-0.18178 -0.38927,-0.18987 -0.69117,-0.48336 -0.86598,-0.84184 -0.13831,-0.28367 -0.17458,-0.47628 -0.15772,-0.83779 0.0267,-0.57184 0.12653,-0.78609 0.57701,-1.23797 0.17557,-0.17613 0.44893,-0.42116 0.60747,-0.54452 0.15854,-0.12336 0.28289,-0.22964 0.27635,-0.23618 -0.006,-0.006 -0.15919,0.0477 -0.33922,0.12044 -0.50436,0.20388 -0.75969,0.2019 -1.37255,-0.0106 -0.14021,-0.0486 -0.23198,-0.0901 -0.20394,-0.0922 0.0505,-0.004 0.0505,-0.004 5.6e-4,-0.0235 -0.0277,-0.0108 0.18549,-0.0143 0.47383,-0.007 0.36075,0.008 0.55228,0.003 0.61414,-0.0176 0.0494,-0.0163 0.20098,-0.0965 0.33676,-0.1783 0.13578,-0.0818 0.37219,-0.19776 0.52535,-0.25778 0.15316,-0.06 0.27344,-0.11728 0.26727,-0.12725 -0.006,-0.01 -0.0833,-0.0439 -0.17131,-0.0755 -0.24808,-0.089 -1.49918,-0.7124 -1.51563,-0.75529 -0.008,-0.021 -0.009,-0.044 -0.002,-0.0513 0.007,-0.007 0.16059,0.0213 0.34093,0.0633 0.46787,0.10893 0.6299,0.13441 0.85469,0.13441 0.24442,0 0.44063,-0.0546 0.57163,-0.15903 0.1487,-0.11855 0.28754,-0.18277 0.35729,-0.16527 0.0367,0.009 0.0809,0.0551 0.11228,0.11674 0.0285,0.0558 0.0569,0.10156 0.0632,0.10156 0.006,0 0.0507,-0.0187 0.0988,-0.0417 0.1369,-0.0653 0.20695,-0.0324 0.32139,0.15077 0.12636,0.20228 0.22671,0.32428 0.26671,0.32428 0.0172,0 0.0464,-0.028 0.0646,-0.0621 0.0576,-0.10763 0.0197,-0.28916 -0.12237,-0.58665 -0.0724,-0.15158 -0.13165,-0.27987 -0.13165,-0.28508 0,-0.005 0.0239,-0.009 0.0532,-0.009 0.0679,0 0.35175,0.27052 0.49484,0.47161 0.24147,0.33938 0.39615,0.74839 0.45606,1.20595 0.0407,0.31099 0.0689,0.38996 0.24227,0.67905 0.12556,0.2094 0.20672,0.35889 0.20672,0.38078 0,0.006 -0.0186,0.0308 -0.0414,0.0535 -0.0382,0.0382 -0.0353,0.0546 0.0372,0.21214 0.183,0.39744 0.17249,0.78086 -0.0248,0.90531 -0.0622,0.0392 -0.21188,-0.002 -0.34913,-0.0967 l -0.12644,-0.087 0.0373,0.0747 c 0.0754,0.15115 -0.0354,0.17465 -0.13243,0.0281 -0.073,-0.11031 -0.0902,-0.11974 -0.48309,-0.26382 -0.74253,-0.27233 -1.03312,-0.53867 -1.03312,-0.94689 0,-0.15916 -0.025,-0.13874 -0.12024,0.0979 -0.0814,0.20258 -0.12616,0.22771 -0.2265,0.12738 -0.0588,-0.0588 -0.0656,-0.0818 -0.0524,-0.17746 0.0135,-0.0981 0.009,-0.11152 -0.0409,-0.12458 -0.0796,-0.0208 -0.26511,0.18401 -0.39796,0.43936 -0.23773,0.45696 -0.28498,1.0569 -0.12875,1.6347 0.12382,0.45789 0.41493,0.87391 0.72485,1.03585 0.27798,0.14524 0.11763,0.20322 -0.34437,0.1245 z m 0.33141,-0.049 c 0,-0.005 -0.0491,-0.0392 -0.10923,-0.0744 -0.46241,-0.27099 -0.7866,-1.06181 -0.74909,-1.8273 0.0228,-0.46693 0.14094,-0.81877 0.38104,-1.13553 0.13838,-0.18256 0.2104,-0.22786 0.32301,-0.20313 0.0949,0.0208 0.11466,0.0563 0.081,0.14499 -0.026,0.0684 0.009,0.17419 0.0643,0.19229 0.0163,0.006 0.0586,-0.0668 0.0959,-0.16369 0.0856,-0.22208 0.10042,-0.24397 0.1584,-0.23286 0.0392,0.007 0.0511,0.0409 0.065,0.1814 0.0331,0.33451 0.18637,0.52066 0.59375,0.72129 0.22557,0.1111 0.80712,0.33383 0.76277,0.29214 -0.0124,-0.0116 -0.13144,-0.081 -0.26463,-0.15409 -0.26572,-0.14592 -0.45888,-0.29023 -0.45888,-0.34284 0,-0.0778 0.23914,-0.0883 0.39514,-0.0171 0.14117,0.0644 0.24324,0.15561 0.44726,0.39988 0.24866,0.29771 0.4597,0.41732 0.55975,0.31726 0.13013,-0.13014 0.12,-0.449 -0.024,-0.75685 -0.077,-0.16457 -0.10196,-0.31381 -0.0524,-0.31381 0.046,0 0.027,-0.0559 -0.0734,-0.21471 -0.22285,-0.35287 -0.28584,-0.51309 -0.33584,-0.85427 -0.0652,-0.44508 -0.17332,-0.75631 -0.36918,-1.0629 -0.11634,-0.18212 -0.3019,-0.40259 -0.39407,-0.46821 l -0.068,-0.0484 0.0879,0.18345 c 0.11676,0.24352 0.15829,0.36448 0.15817,0.46071 -1e-4,0.0894 -0.0812,0.23902 -0.14225,0.26245 -0.0644,0.0247 -0.16784,-0.072 -0.29104,-0.27175 -0.15173,-0.2461 -0.18944,-0.2702 -0.31629,-0.20222 -0.11964,0.0641 -0.154,0.0526 -0.21202,-0.0711 -0.0671,-0.1431 -0.13709,-0.13999 -0.34769,0.0155 -0.34681,0.25602 -0.70561,0.26521 -1.60735,0.0412 -0.0921,-0.0228 1.03198,0.53298 1.27189,0.62895 0.2509,0.10039 0.31372,0.15691 0.22999,0.20697 -0.0281,0.0168 -0.16857,0.0777 -0.31229,0.13541 -0.14373,0.0577 -0.35726,0.16377 -0.47454,0.23569 -0.3615,0.22169 -0.3573,0.22058 -0.82814,0.21782 -0.22925,-9.1e-4 -0.40133,0.006 -0.3824,0.0156 0.12483,0.0655 0.48816,0.13595 0.69724,0.13532 0.2186,-6.9e-4 0.24646,-0.007 0.58951,-0.14469 0.32841,-0.13134 0.51944,-0.17676 0.51944,-0.1235 0,0.0301 -0.12753,0.14291 -0.47367,0.41922 -0.37965,0.30304 -0.76083,0.68175 -0.87138,0.86572 -0.0457,0.0761 -0.10554,0.2021 -0.13292,0.27998 -0.0669,0.19048 -0.11149,0.57844 -0.0899,0.7838 0.0882,0.84208 0.86929,1.52418 1.77827,1.55285 0.0666,0.002 0.12109,-8e-4 0.12109,-0.006 z m 0.83524,-3.12518 c -0.16907,-0.0509 -0.35089,-0.21126 -0.35089,-0.30945 0,-0.0678 0.0511,-0.059 0.15508,0.0269 0.0855,0.0705 0.0918,0.0719 0.11982,0.027 0.0247,-0.0394 0.0212,-0.0501 -0.0206,-0.0634 -0.0536,-0.017 -0.0685,-0.10024 -0.023,-0.12835 0.0322,-0.0199 0.31001,0.1136 0.41676,0.20025 0.0889,0.0722 0.0783,0.15552 -0.0168,0.13165 -0.0476,-0.0119 -0.0636,-3.4e-4 -0.0876,0.0631 -0.0307,0.0814 -0.0652,0.0908 -0.19273,0.0524 z m 0.20175,-0.1913 c 0.0267,-0.0197 0.009,-0.041 -0.0792,-0.0942 -0.0813,-0.0491 -0.10939,-0.0573 -0.0984,-0.0287 0.008,0.0226 -0.002,0.0494 -0.0238,0.0618 -0.0632,0.0353 -0.0212,0.18276 0.0575,0.20197 0.0513,0.0126 0.0672,0.004 0.0861,-0.0501 0.0128,-0.0359 0.0388,-0.0768 0.0578,-0.0909 z m 0.65948,1.09282 c -0.18044,-0.21147 -0.30984,-0.31693 -0.44476,-0.3625 -0.10656,-0.0359 -0.20652,-0.0379 -0.20652,-0.004 0,0.037 0.18484,0.16487 0.41604,0.2879 0.11099,0.0591 0.24345,0.1442 0.29439,0.18918 0.0509,0.045 0.0958,0.0823 0.0997,0.0829 0.004,5.6e-4 -0.0676,-0.0865 -0.15887,-0.1935 z m 0.1135,0.9873 c -0.28704,-0.0407 -0.34888,-0.0576 -0.29316,-0.0802 0.051,-0.0206 0.051,-0.0206 0,-0.0258 -0.0281,-0.003 0.16128,-0.02 0.42071,-0.0382 0.55969,-0.0394 0.89569,-0.10457 1.19493,-0.23178 0.4468,-0.18993 0.56728,-0.30914 0.8579,-0.84894 0.13628,-0.25313 0.16512,-0.32545 0.14228,-0.3569 -0.0433,-0.0596 -0.0614,-0.104 -0.048,-0.11737 0.0115,-0.0115 1.27081,-0.47094 1.39002,-0.50715 0.0424,-0.0128 0.0574,-0.007 0.0574,0.0223 0,0.0239 -0.0785,0.0793 -0.19757,0.13936 -0.10865,0.0548 -0.26821,0.13976 -0.35456,0.18876 -0.21893,0.12427 -0.42396,0.19649 -0.55775,0.19649 -0.11169,0 -0.15092,0.0313 -0.0756,0.0602 0.0494,0.019 0.0488,0.0918 -9.2e-4,0.16335 -0.0217,0.0311 -0.0613,0.11994 -0.0881,0.19752 -0.16536,0.48061 -0.52509,0.8536 -1.02017,1.05776 -0.31131,0.12837 -0.56849,0.18046 -0.94263,0.19092 -0.18928,0.005 -0.40724,6.9e-4 -0.48435,-0.0103 z m 0.92798,-0.0949 c 0.41876,-0.0855 0.75893,-0.25169 1.0275,-0.50204 0.20874,-0.19458 0.33466,-0.38522 0.42649,-0.64568 0.0388,-0.11009 0.0866,-0.21837 0.1064,-0.24063 0.0311,-0.0351 0.0289,-0.0468 -0.017,-0.0882 -0.0291,-0.0262 -0.0476,-0.0674 -0.0414,-0.0914 0.007,-0.0293 -1.1e-4,-0.0392 -0.0239,-0.0302 -0.0429,0.0165 -0.0433,0.0216 -0.005,0.0821 0.0248,0.0399 0.0115,0.0832 -0.0801,0.26096 -0.30856,0.59837 -0.45254,0.77537 -0.76146,0.93609 -0.3721,0.19359 -0.73513,0.28306 -1.32965,0.3277 l -0.26767,0.0201 0.19119,0.0151 c 0.24408,0.0193 0.55072,0.002 0.77502,-0.0438 z m 1.86759,-1.662 c 0.12003,-0.0374 0.56578,-0.25965 0.51849,-0.25846 -0.007,2.3e-4 -0.19628,0.0684 -0.42063,0.15158 -0.28017,0.10391 -0.38265,0.1516 -0.32729,0.15231 0.0443,5.6e-4 0.14756,-0.0199 0.22943,-0.0454 z m -4.71226,1.44065 c -0.13355,-0.0911 -0.17579,-0.13886 -0.24806,-0.28004 -0.0935,-0.18257 -0.14037,-0.45135 -0.0788,-0.45135 0.0174,0 0.0898,0.043 0.16084,0.0956 0.0711,0.0525 0.16906,0.11854 0.21774,0.14659 0.0793,0.0457 0.0947,0.0734 0.14783,0.26767 0.1029,0.3758 0.0738,0.40812 -0.19954,0.22153 z m 0.16815,-0.0877 c -0.021,-0.0666 -0.045,-0.15926 -0.0535,-0.20593 -0.0115,-0.0636 -0.0414,-0.10117 -0.12,-0.15026 -0.0576,-0.0359 -0.14943,-0.1005 -0.20409,-0.14338 l -0.0994,-0.0779 0.0187,0.10076 c 0.0205,0.11051 0.12251,0.32969 0.18657,0.40082 0.0468,0.052 0.26023,0.19703 0.28987,0.19703 0.0109,0 0.003,-0.0545 -0.0181,-0.12109 z m -0.3186,-0.59984 c -0.12206,-0.0822 -0.15535,-0.15845 -0.1417,-0.32427 0.0133,-0.16152 0.10053,-0.38239 0.151,-0.38239 0.0189,0 0.068,0.0356 0.10925,0.079 0.0412,0.0435 0.1265,0.10953 0.1896,0.14678 0.1383,0.0817 0.15752,0.13108 0.051,0.13108 l -0.0765,0 0,0.17335 c 0,0.10084 -0.0128,0.18614 -0.0306,0.20394 -0.0479,0.048 -0.15779,0.036 -0.25206,-0.0275 z m 0.20528,-0.0422 c 0.0145,-0.0271 0.0264,-0.11889 0.0264,-0.20394 0,-0.0941 0.0108,-0.15464 0.0277,-0.15464 0.0152,0 -0.0336,-0.0506 -0.10835,-0.11248 l -0.136,-0.11249 -0.0476,0.10444 c -0.0711,0.15577 -0.0664,0.33286 0.0109,0.41604 0.0558,0.06 0.13196,0.10629 0.18241,0.11077 0.01,9e-4 0.0301,-0.0205 0.0447,-0.0477 z"
       id="path3047"
       inkscape:connector-curvature="0" />
    <path
       style="fill:#ffffff;fill-opacity:1;stroke:#000000;stroke-width:0.001;stroke-linecap:round;stroke-linejoin:bevel;stroke-miterlimit:4;stroke-opacity:1;stroke-dasharray:none"
       d="m 22.871528,6.9753817 c -0.0089,-0.064706 -0.01617,-0.173767 -0.01622,-0.2423571 C 22.854834,6.1350153 22.543121,5.4070096 22.096166,4.960054 21.640783,4.5046715 21.031554,4.2585162 20.25649,4.2167448 c -0.379948,-0.020477 -0.777393,0.015235 -0.907337,0.081527 -0.125831,0.064194 -0.242245,0.1974289 -0.274738,0.314436 -0.03238,0.1165853 -0.03218,0.3521676 4.1e-4,0.4948265 0.02875,0.1258369 0.22992,0.5587494 0.323954,0.6971328 0.03483,0.051254 0.05947,0.097035 0.05477,0.1017378 -0.0047,0.0047 -0.171478,-0.097934 -0.370613,-0.2280811 -0.199135,-0.1301469 -0.447632,-0.281113 -0.552215,-0.3354806 -0.175269,-0.091112 -0.208296,-0.099643 -0.421945,-0.1089874 -0.262212,-0.011468 -0.346329,0.012025 -0.439494,0.1227453 -0.07183,0.085361 -0.08243,0.2683401 -0.02499,0.4311472 0.01954,0.055374 0.02992,0.1006799 0.02306,0.1006799 -0.0069,0 -0.07802,-0.044523 -0.158152,-0.098939 -0.337796,-0.2293925 -0.561023,-0.2894918 -0.907126,-0.2442241 -0.23631,0.030908 -0.292626,0.06019 -0.541352,0.281483 L 15.860426,6.0049572 15.753193,5.8230597 C 15.684593,5.7066933 15.57094,5.5689048 15.437723,5.4405934 15.192318,5.2042261 15.069824,5.1167935 14.748011,4.9482986 14.510499,4.8239412 14.480969,4.7902964 14.609335,4.7902964 c 0.112481,0 0.803496,-0.1834587 1.00039,-0.2655952 0.270476,-0.1128317 0.52829,-0.2925295 0.735095,-0.5123647 0.220637,-0.234539 0.34688,-0.4737808 0.407187,-0.7716559 0.02313,-0.1142621 0.05241,-0.2176497 0.06507,-0.2297502 0.05326,-0.050933 0.846407,-0.4715466 0.977875,-0.5185767 0.196004,-0.070116 0.438617,-0.082439 0.70453,-0.035783 0.260614,0.045726 0.485776,0.1296987 0.886801,0.3307263 0.389822,0.1954116 0.474831,0.1968508 0.321004,0.00543 C 19.604926,2.665352 19.421204,2.5305044 19.200125,2.420481 18.987633,2.3147316 19.005621,2.3081032 19.360453,2.361398 c 1.090108,0.1637317 2.454959,0.9736731 3.135408,1.8606392 0.137383,0.1790789 0.316481,0.4881496 0.394319,0.6804773 0.148988,0.3681291 0.227531,0.8874782 0.197081,1.3031471 -0.0148,0.2020121 -0.110847,0.6503702 -0.177382,0.8280275 -0.01984,0.052986 -0.02395,0.046746 -0.03835,-0.058313 l 0,0 z"
       id="path3879"
       inkscape:connector-curvature="0"
       transform="translate(165.65379,372.07709)" />
    <path
       style="fill:#ffffff;fill-opacity:1;stroke:#000000;stroke-width:0.001;stroke-linecap:round;stroke-linejoin:bevel;stroke-miterlimit:4;stroke-opacity:1;stroke-dasharray:none"
       d="M 11.752067,5.6806114 C 11.04689,5.5365238 10.475013,5.0069662 10.321121,4.3555566 c -0.02875,-0.1216838 -0.03498,-0.2313352 -0.02452,-0.4315644 0.03545,-0.6788597 0.205196,-0.9280413 1.199238,-1.7603933 0.161059,-0.1348617 0.308293,-0.2638607 0.327185,-0.2866646 0.09996,-0.1206507 -0.140029,-0.083392 -0.559013,0.086789 -0.247027,0.100336 -0.265873,0.1041027 -0.524663,0.1048603 -0.188037,5.505e-4 -0.326902,-0.013707 -0.463656,-0.047606 l -0.195224,-0.048392 0.40349,-0.013658 0.403489,-0.013658 0.218786,-0.1197458 c 0.316213,-0.1730696 0.457487,-0.2442717 0.725146,-0.3654722 0.179343,-0.08121 0.237929,-0.1191228 0.237929,-0.1539741 0,-0.036426 -0.128147,-0.1069515 -0.603973,-0.3323963 C 10.80849,0.66247086 10.605944,0.55790425 10.70274,0.579984 c 0.319361,0.0728476 0.669017,0.11490538 0.866305,0.10420193 0.247158,-0.013409 0.373137,-0.0553332 0.576359,-0.19180457 0.208832,-0.1402384 0.249498,-0.14346213 0.323855,-0.0256733 0.03395,0.0537778 0.07295,0.10471483 0.08667,0.11319343 0.01372,0.008479 0.07977,-0.004058 0.146789,-0.0278602 0.140718,-0.0499787 0.108012,-0.0734382 0.322813,0.2315505 0.06911,0.0981194 0.157756,0.19500436 0.197003,0.21529979 0.06532,0.0337788 0.07551,0.0331425 0.120444,-0.007521 0.140737,-0.12736518 0.148047,-0.26172152 0.02964,-0.54479705 -0.04772,-0.11408372 -0.0932,-0.22389694 -0.101073,-0.24402936 -0.02781,-0.0711405 0.124391,0.0879012 0.267803,0.2798303 0.261421,0.3498628 0.367936,0.61080263 0.472121,1.15659513 0.07628,0.3995898 0.113833,0.503295 0.301689,0.8330476 0.08028,0.140927 0.135365,0.2598913 0.1224,0.2643651 -0.04481,0.015463 -0.02323,0.1455891 0.06391,0.3855025 0.107926,0.2971113 0.123604,0.5289275 0.0431,0.6372326 -0.110384,0.1484977 -0.259655,0.07302 -0.61596,-0.3114542 -0.306739,-0.3309899 -0.37781,-0.3746478 -0.612754,-0.376405 -0.169786,-0.00127 -0.183569,0.00247 -0.190573,0.051652 -0.0085,0.059675 0.145992,0.187601 0.393008,0.3254317 0.07779,0.043403 0.137028,0.083313 0.131652,0.088689 C 13.633338,3.551636 13.127464,3.3357057 12.97268,3.248799 12.667161,3.0772586 12.551802,2.9218055 12.500165,2.6120569 c -0.02691,-0.1614377 -0.03475,-0.1772677 -0.09102,-0.1838913 -0.05529,-0.00651 -0.06987,0.011635 -0.142932,0.1778772 -0.04475,0.1018183 -0.09363,0.1810859 -0.108627,0.1761496 -0.015,-0.00494 -0.03068,-0.068269 -0.03484,-0.1407398 -0.0082,-0.1427739 -0.02875,-0.1684893 -0.135083,-0.1690615 -0.110667,-5.954e-4 -0.204481,0.071947 -0.332462,0.2570785 -0.260914,0.3774259 -0.330532,0.6377115 -0.329286,1.231127 7.67e-4,0.3650759 0.0089,0.4565889 0.05599,0.6305835 0.128898,0.4761941 0.366615,0.8639248 0.640991,1.0454982 0.05237,0.034657 0.09522,0.067044 0.09522,0.071971 0,0.019244 -0.215387,0.00275 -0.366044,-0.028038 l 0,0 z m 1.438822,-3.0911807 c 0.02737,-0.029374 0.04976,-0.061589 0.04976,-0.071588 0,-0.01 0.02935,-0.021655 0.06523,-0.025902 0.09226,-0.010922 0.0971,-0.058689 0.01383,-0.1364707 -0.08313,-0.077658 -0.307878,-0.1942626 -0.395698,-0.2053 -0.07642,-0.0096 -0.09604,0.061616 -0.03543,0.1285894 0.06856,0.075761 0.01937,0.084081 -0.08196,0.013861 -0.117705,-0.08157 -0.151649,-0.081445 -0.151649,5.579e-4 0,0.11936 0.285202,0.3365593 0.456605,0.3477329 0.01625,0.00106 0.05194,-0.022107 0.07931,-0.051481 l 0,0 z"
       id="path3881"
       inkscape:connector-curvature="0"
       transform="translate(165.65379,372.07709)" />
    <path
       style="fill:#ffffff;fill-opacity:1;stroke:#000000;stroke-width:0.001;stroke-linecap:round;stroke-linejoin:bevel;stroke-miterlimit:4;stroke-opacity:1;stroke-dasharray:none"
       d="M 1.2784254,6.9743592 C 1.1784356,6.6017447 1.161184,6.4707997 1.1612904,6.0852709 1.1615411,5.177192 1.4233825,4.5181845 2.0151766,3.9361936 2.316671,3.6396935 2.6230454,3.4312765 3.1256286,3.1807875 3.6243512,2.9322226 3.9070143,2.8230488 4.3238428,2.7179978 4.8617433,2.5824338 5.3956578,2.5317276 5.8953619,2.5687497 c 0.3705845,0.027456 0.6117399,0.098604 1.1499898,0.3392816 0.6362497,0.284498 0.8019298,0.372126 0.8684293,0.4593113 0.033893,0.044436 0.077982,0.080792 0.097977,0.080792 0.027823,0 0.032062,0.015748 0.018067,0.067108 C 8.019767,3.5521516 8.004187,3.6207853 7.995201,3.6677609 L 7.978863,3.7531709 7.937956,3.6163107 C 7.8910745,3.4594628 7.8507558,3.4261348 7.4866923,3.2432912 7.1992706,3.0989394 6.9163888,2.9827447 6.62745,2.8903545 6.117872,2.7274135 6.1330053,2.7294372 5.4195046,2.7288191 c -0.5706963,-4.944e-4 -0.677659,0.00538 -0.7991961,0.043866 -0.084631,0.026801 -0.1403169,0.058276 -0.1403169,0.079309 0,0.01918 0.00824,0.034965 0.018302,0.035078 0.010066,1.122e-4 0.2450479,0.016259 0.5221813,0.035879 0.5092352,0.036053 0.7468034,0.072658 1.0579088,0.1630014 0.2205755,0.064054 1.1228811,0.3951711 1.3349949,0.4898997 l 0.1636536,0.073087 -0.00503,0.235138 c -0.00466,0.2177507 -2.45e-5,0.2436518 0.062646,0.3502735 0.1989237,0.3384015 0.7400566,0.4969626 1.912023,0.5602555 l 0.5399308,0.029159 0.171179,0.2333954 c 0.245584,0.3348427 0.445584,0.5433968 0.6562,0.6842654 l 0.18402,0.1230801 -0.09392,0.039733 C 10.692714,6.0359711 10.376691,6.0422302 9.5463723,5.9331113 9.0845018,5.8724134 8.8632968,5.855354 8.5179706,5.8538017 L 8.0780105,5.8518251 7.9200987,5.9307886 C 7.7785792,6.0015552 7.7596533,6.0056044 7.7377836,5.969795 7.5363898,5.6400337 7.3797706,5.4873094 7.1643146,5.4105873 6.989349,5.3482834 6.6400712,5.3374671 6.4284677,5.3877999 6.0566216,5.4762483 5.5930979,5.6652864 5.2385456,5.8730837 5.1554432,5.9217888 5.082392,5.9616383 5.07621,5.9616383 5.060879,5.9616383 5.152816,5.8232698 5.4647826,5.376821 5.7907097,4.9103934 5.8539623,4.790777 5.8566854,4.6356964 5.8604005,4.4241332 5.7129265,4.3508976 5.2852885,4.3519408 4.3483668,4.3542265 3.2779505,4.6634679 2.5564279,5.1403041 2.0327579,5.4863845 1.6901351,5.8693347 1.5038803,6.3167389 1.4165723,6.5264621 1.3865452,6.6685677 1.3616204,6.9899949 L 1.3439098,7.2183886 1.2784254,6.9743592 z"
       id="path3883"
       inkscape:connector-curvature="0"
       transform="translate(165.65379,372.07709)" />
    <path
       style="fill:#ffffff;fill-opacity:1;stroke:#000000;stroke-width:0.001;stroke-linecap:round;stroke-linejoin:bevel;stroke-miterlimit:4;stroke-opacity:1;stroke-dasharray:none"
       d="m 14.694428,6.8017655 c 0.07282,-0.1397047 0.0836,-0.1832673 0.0836,-0.3377435 0,-0.3146259 -0.166149,-0.5532961 -0.536865,-0.7711981 C 14.167347,5.6494342 13.83104,5.4898909 13.493817,5.3382833 12.749328,5.0035785 12.664837,4.9612623 12.44755,4.814273 12.225054,4.6637599 11.886038,4.3065496 11.926903,4.2656843 c 0.0058,-0.00584 0.06499,0.028795 0.131421,0.076977 0.226634,0.1643635 0.608394,0.3230567 1.487358,0.6182776 0.990654,0.3327343 1.296545,0.4672991 1.506781,0.6628509 0.441258,0.4104363 0.436711,0.8565005 -0.0117,1.1482873 -0.116964,0.076109 -0.363153,0.1900805 -0.410591,0.1900805 -0.01064,0 0.01828,-0.072176 0.06426,-0.1603922 l 0,0 z"
       id="path3885"
       inkscape:connector-curvature="0"
       transform="translate(165.65379,372.07709)" />
    <path
       style="fill:#ffffff;fill-opacity:1;stroke:#000000;stroke-width:0.001;stroke-linecap:round;stroke-linejoin:bevel;stroke-miterlimit:4;stroke-opacity:1;stroke-dasharray:none"
       d="M 12.089687,4.0842814 C 11.984892,4.0092398 11.939334,3.9545818 11.881165,3.8341118 11.840228,3.7493299 11.799471,3.6487939 11.790595,3.6106985 l -0.01614,-0.069264 0.153525,0.1098919 c 0.08444,0.06044 0.173191,0.1360109 0.197229,0.1679341 0.04255,0.056507 0.127419,0.3321898 0.108186,0.3514224 -0.0053,0.00529 -0.06996,-0.03359 -0.14371,-0.086401 l 0,0 z"
       id="path3887"
       inkscape:connector-curvature="0"
       transform="translate(165.65379,372.07709)" />
    <path
       style="fill:#ffffff;fill-opacity:1;stroke:#000000;stroke-width:0.001;stroke-linecap:round;stroke-linejoin:bevel;stroke-miterlimit:4;stroke-opacity:1;stroke-dasharray:none"
       d="M 11.98195,3.4265269 C 11.846536,3.3439516 11.817042,3.170085 11.903022,2.9612554 l 0.03468,-0.084231 0.110344,0.1017114 0.110344,0.1017113 -0.0199,0.1655417 c -0.03038,0.2527369 -0.03307,0.255831 -0.156538,0.1805381 z"
       id="path3889"
       inkscape:connector-curvature="0"
       transform="translate(165.65379,372.07709)" />
    <path
       style="fill:#ffffff;fill-opacity:1;stroke:#000000;stroke-width:0.001;stroke-linecap:round;stroke-linejoin:bevel;stroke-miterlimit:4;stroke-opacity:1;stroke-dasharray:none"
       d="m 13.037003,2.5005996 c -0.04882,-0.053943 -0.05015,-0.099062 -0.0047,-0.159068 0.03275,-0.04323 0.03712,-0.04332 0.106712,-0.00221 l 0.07256,0.042863 -0.05258,0.08122 c -0.06118,0.094496 -0.06821,0.096641 -0.122009,0.037197 z"
       id="path3891"
       inkscape:connector-curvature="0"
       transform="translate(165.65379,372.07709)" />
    <path
       style="fill:#ffffff;fill-opacity:1;stroke:#000000;stroke-width:0.001;stroke-linecap:round;stroke-linejoin:bevel;stroke-miterlimit:4;stroke-opacity:1;stroke-dasharray:none"
       d="M 1.1730403,9.093313 C 0.62434501,8.3198305 0.22207282,7.4089914 0.10787345,6.681524 0.05731294,6.3594457 0.06854327,5.7237791 0.12964536,5.4491757 0.29602241,4.7014483 0.6707807,4.1211857 1.3000349,3.6369858 1.3826919,3.5733826 1.4580991,3.5213437 1.4676064,3.5213437 c 0.00951,0 -0.08598,0.1015772 -0.2121936,0.2257272 -0.59805328,0.5882736 -0.86453776,1.1501175 -0.95126963,2.0056138 -0.0486414,0.479784 0.029139,1.00807 0.23555872,1.59992 0.10882597,0.3120277 0.1313808,0.3660211 0.52847711,1.2651129 0.1739387,0.3938258 0.3108793,0.7214196 0.3043125,0.7279864 -0.00657,0.00657 -0.09632,-0.107009 -0.1994512,-0.252391 l 0,0 z"
       id="path3893"
       inkscape:connector-curvature="0"
       transform="translate(165.65379,372.07709)" />
    <path
       style="fill:#ffffff;fill-opacity:1;stroke:#000000;stroke-width:0.001;stroke-linecap:round;stroke-linejoin:bevel;stroke-miterlimit:4;stroke-opacity:1;stroke-dasharray:none"
       d="M 1.2558814,6.8342026 C 1.1889912,6.56376 1.1646385,5.9138598 1.2089248,5.5810687 1.3270344,4.693528 1.8427903,3.9533091 2.7107787,3.4255903 2.948602,3.2809987 3.5724103,2.9803508 3.8211123,2.8904589 4.3975734,2.6821003 4.9367465,2.5867035 5.5537208,2.5839058 c 0.6519064,-0.00296 0.8591673,0.050721 1.7025245,0.4409238 0.4555875,0.2107904 0.5546348,0.2667653 0.6780861,0.383208 0.079196,0.0747 0.083732,0.086936 0.065234,0.1759684 L 7.9796845,3.6796921 7.9390431,3.5781193 C 7.8899171,3.4553411 7.807413,3.3905264 7.5134908,3.2438085 7.0241475,2.9995417 6.4087301,2.7830281 6.0790792,2.7391598 5.7983837,2.7018061 4.7188927,2.7200558 4.6020063,2.7641308 4.4901034,2.8063267 4.4558266,2.8346901 4.4705062,2.8729445 c 0.00831,0.021653 0.1000886,0.036314 0.2974854,0.047519 0.4119721,0.023385 0.7697977,0.061009 0.9902007,0.104117 0.2649326,0.051817 1.0269753,0.3155026 1.7538641,0.606881 0.036203,0.014512 0.042705,0.05028 0.042705,0.234918 0,0.2541533 0.034523,0.3567033 0.1659114,0.4928326 0.2535331,0.2626823 0.7794449,0.3872585 1.9187194,0.4544995 0.2405881,0.0142 0.4390638,0.028467 0.4410568,0.031705 0.002,0.00324 0.08994,0.1195439 0.195428,0.2584576 0.217707,0.2866799 0.449138,0.5239045 0.638023,0.6539951 0.07094,0.048859 0.123818,0.097195 0.117503,0.1074131 -0.0063,0.010218 -0.06363,0.037484 -0.127367,0.060592 -0.204523,0.07415 -0.644735,0.074099 -1.2872265,-1.464e-4 C 9.3024315,5.8893981 8.8408412,5.8546617 8.5674505,5.84676 L 8.0793591,5.8326529 7.9520877,5.8971462 c -0.069999,0.035469 -0.1436991,0.064491 -0.1637778,0.064491 -0.020078,0 -0.079395,-0.063157 -0.1318157,-0.1403493 C 7.5339051,5.6407678 7.3617331,5.4827329 7.2174073,5.4182552 7.0438737,5.3407288 6.6276442,5.3295281 6.3672454,5.3953775 6.0583447,5.4734917 5.8111625,5.5684189 5.4609843,5.7434148 5.2824741,5.8326224 5.1415708,5.8921883 5.147866,5.8757832 5.1541613,5.8593781 5.2796663,5.671575 5.4267665,5.4584429 5.7571368,4.9797719 5.8422521,4.8292448 5.8607473,4.690943 5.8821082,4.5312126 5.8427279,4.4550121 5.7080252,4.3954267 5.6016711,4.3483812 5.5621022,4.3457698 5.1405579,4.3579748 4.3743732,4.3801584 3.6681044,4.551038 3.0036139,4.8750021 2.0280708,5.3506161 1.4233697,6.07783 1.3637705,6.8470788 1.3556759,6.9515556 1.3406602,7.0422235 1.3304023,7.0485634 1.3201444,7.054903 1.28661,6.9584407 1.2558814,6.8342026 l 0,0 z"
       id="path3895"
       inkscape:connector-curvature="0"
       transform="translate(165.65379,372.07709)" />
    <path
       style="fill:#ffffff;fill-opacity:1;stroke:#000000;stroke-width:0.001;stroke-linecap:round;stroke-linejoin:bevel;stroke-miterlimit:4;stroke-opacity:1;stroke-dasharray:none"
       d="m 3.2842477,8.5881459 0,-0.7718854 0.1586191,0 0.1586191,0 0,0.756491 0,0.756491 -0.067108,2.687e-4 c -0.036909,1.489e-4 -0.108288,0.00708 -0.1586191,0.015394 l -0.091511,0.015126 0,-0.7718855 z"
       id="path3897"
       inkscape:connector-curvature="0"
       transform="translate(165.65379,372.07709)" />
    <path
       style="fill:#ffffff;fill-opacity:1;stroke:#000000;stroke-width:0.001;stroke-linecap:round;stroke-linejoin:bevel;stroke-miterlimit:4;stroke-opacity:1;stroke-dasharray:none"
       d="M 4.3414287,9.1765579 C 4.3840842,9.1311371 4.4464376,9.039842 4.4799916,8.97368 c 0.054564,-0.1075902 0.061007,-0.149933 0.061007,-0.4009285 0,-0.3138703 -0.028532,-0.3979499 -0.19912,-0.5867701 -0.112581,-0.1246137 -0.069369,-0.1242468 0.1819561,0.00155 0.2291704,0.1147034 0.3301012,0.218784 0.3821605,0.3940867 0.053233,0.1792535 0.046955,0.2964158 -0.02331,0.435078 -0.1163275,0.2295614 -0.30075,0.3746875 -0.5412567,0.4259268 l -0.077556,0.016523 0.077556,-0.082583 0,0 z"
       id="path3899"
       inkscape:connector-curvature="0"
       transform="translate(165.65379,372.07709)" />
    <path
       style="fill:#ffffff;fill-opacity:1;stroke:#000000;stroke-width:0.001;stroke-linecap:round;stroke-linejoin:bevel;stroke-miterlimit:4;stroke-opacity:1;stroke-dasharray:none"
       d="m 6.7006588,8.584953 0,-0.7686925 0.1586191,0 0.1586191,0 0,0.7686925 0,0.7686925 -0.1586191,0 -0.1586191,0 0,-0.7686925 z"
       id="path3901"
       inkscape:connector-curvature="0"
       transform="translate(165.65379,372.07709)" />
    <path
       style="fill:#ffffff;fill-opacity:1;stroke:#000000;stroke-width:0.001;stroke-linecap:round;stroke-linejoin:bevel;stroke-miterlimit:4;stroke-opacity:1;stroke-dasharray:none"
       d="M 8.0184174,9.3158353 C 7.9982849,9.3115752 7.940633,9.3013701 7.8903019,9.2931574 l -0.091511,-0.014932 0,-0.3405353 0,-0.3405353 -0.1037124,-0.00243 C 7.6380366,8.5933841 7.5639127,8.5834974 7.5303586,8.5727515 7.486067,8.5585669 7.5144838,8.5525471 7.6340711,8.5507811 l 0.1647198,-0.00243 0,-0.3538426 c 0,-0.3994022 -0.011514,-0.3808227 0.2048941,-0.3306222 0.1210933,0.02809 0.136228,0.054219 0.134967,0.2330105 -0.00196,0.2781313 -0.022248,0.3356717 -0.1376525,0.3904469 -0.1352831,0.06421 -0.1336747,0.1164806 0.00522,0.1695236 l 0.1098132,0.041938 0,0.3152199 c 0,0.3239587 4.512e-4,0.3225633 -0.097612,0.3018126 l 0,0 z"
       id="path3903"
       inkscape:connector-curvature="0"
       transform="translate(165.65379,372.07709)" />
    <path
       style="fill:#ffffff;fill-opacity:1;stroke:#000000;stroke-width:0.001;stroke-linecap:round;stroke-linejoin:bevel;stroke-miterlimit:4;stroke-opacity:1;stroke-dasharray:none"
       d="m 16.35202,14.770076 c -0.314392,-0.02751 -0.693095,-0.103231 -1.008338,-0.201605 l -0.250133,-0.07806 0.336401,-6.64e-4 c 0.329603,-6.49e-4 0.340097,-0.0023 0.519422,-0.0835 l 0.183022,-0.08283 0.854102,-0.01744 c 0.949756,-0.0194 1.053937,-0.03279 1.49863,-0.192619 0.89241,-0.320751 1.343929,-0.894006 1.38479,-1.758148 0.0234,-0.494846 -0.08993,-0.838968 -0.364645,-1.107248 -0.17596,-0.171837 -0.33505,-0.264879 -0.556905,-0.3257 -0.194918,-0.05344 -1.04597,-0.06018 -1.351796,-0.01072 -0.879837,0.142306 -1.775285,0.466872 -3.477419,1.260431 -1.853913,0.86432 -2.467168,1.090102 -3.330002,1.226005 -0.41703,0.06569 -1.5799533,0.05811 -1.9654347,-0.0128 C 7.8058097,13.197922 6.773556,12.70443 5.8429761,11.960165 5.5191534,11.701175 4.959134,11.197796 4.9069065,11.118769 c -0.039679,-0.06004 -0.089812,-0.05228 0.6834187,-0.105834 0.2013242,-0.01395 0.4374226,-0.03188 0.5246631,-0.03986 l 0.1586191,-0.0145 0.1795763,0.222417 c 0.2333621,0.289034 0.6192866,0.655886 0.9083081,0.863418 0.3866935,0.277665 1.0537715,0.579385 1.4988269,0.677919 0.5359177,0.118652 1.0397849,0.155571 1.6498963,0.120891 1.129093,-0.06418 1.761272,-0.252439 3.94687,-1.17535 1.252623,-0.528945 1.750543,-0.70439 2.450111,-0.863307 0.57835,-0.131382 0.889896,-0.165554 1.360455,-0.149223 0.45783,0.01589 0.799259,0.07475 1.00895,0.173955 0.292487,0.138369 0.533291,0.371739 0.660179,0.639799 0.102875,0.217332 0.124538,0.342787 0.12351,0.715291 -0.0012,0.431709 -0.04223,0.633234 -0.192227,0.944005 -0.386345,0.800437 -0.987501,1.268362 -1.938286,1.508714 -0.474918,0.120056 -1.111901,0.173739 -1.577757,0.132971 l 0,0 z"
       id="path3905"
       inkscape:connector-curvature="0"
       transform="translate(165.65379,372.07709)" />
    <path
       style="fill:#ffffff;fill-opacity:1;stroke:#000000;stroke-width:0.001;stroke-linecap:round;stroke-linejoin:bevel;stroke-miterlimit:4;stroke-opacity:1;stroke-dasharray:none"
       d="M 9.921921,9.1035154 C 9.921962,8.9659438 9.9291549,8.6646547 9.937905,8.433984 L 9.9538144,8.0145827 10.098058,7.952026 c 0.07933,-0.034406 0.157246,-0.062575 0.173139,-0.062598 0.0212,-3.01e-5 0.02692,0.08771 0.02147,0.3294397 l -0.0074,0.3294807 0.153839,0.00171 c 0.174309,0.00194 0.131963,0.042408 -0.04748,0.045376 l -0.103713,0.00172 0,0.3782455 0,0.3782455 -0.183022,0 -0.1830216,0 7.46e-5,-0.2501301 z"
       id="path3907"
       inkscape:connector-curvature="0"
       transform="translate(165.65379,372.07709)" />
    <path
       style="fill:#ffffff;fill-opacity:1;stroke:#000000;stroke-width:0.001;stroke-linecap:round;stroke-linejoin:bevel;stroke-miterlimit:4;stroke-opacity:1;stroke-dasharray:none"
       d="m 13.204041,9.2888572 c -0.02684,-0.00568 -0.07351,-0.015593 -0.103712,-0.022037 l -0.05491,-0.011716 0,-0.6921726 0,-0.6921726 0.05491,-0.014714 c 0.0302,-0.00809 0.112558,-0.014864 0.183022,-0.015048 l 0.128115,-3.332e-4 0,0.6934879 c 0,0.3814183 -0.0067,0.7108579 -0.01481,0.7320881 -0.01434,0.037363 -0.08413,0.045559 -0.192613,0.022618 z"
       id="path3909"
       inkscape:connector-curvature="0"
       transform="translate(165.65379,372.07709)" />
    <path
       style="fill:#ffffff;fill-opacity:1;stroke:#000000;stroke-width:0.001;stroke-linecap:round;stroke-linejoin:bevel;stroke-miterlimit:4;stroke-opacity:1;stroke-dasharray:none"
       d="m 14.19236,7.9260737 0,-0.1098132 0.183022,0 0.183022,0 0,0.1098132 0,0.1098132 -0.183022,0 -0.183022,0 0,-0.1098132 z"
       id="path3911"
       inkscape:connector-curvature="0"
       transform="translate(165.65379,372.07709)" />
    <path
       style="fill:#ffffff;fill-opacity:1;stroke:#000000;stroke-width:0.001;stroke-linecap:round;stroke-linejoin:bevel;stroke-miterlimit:4;stroke-opacity:1;stroke-dasharray:none"
       d="m 14.19236,8.9232627 0,-0.3993171 0.183022,0 0.183022,0 0,0.3655792 c 0,0.4146732 0.02786,0.3665049 -0.237928,0.4114097 l -0.128116,0.021645 0,-0.3993171 z"
       id="path3913"
       inkscape:connector-curvature="0"
       transform="translate(165.65379,372.07709)" />
    <path
       style="fill:#ffffff;fill-opacity:1;stroke:#000000;stroke-width:0.001;stroke-linecap:round;stroke-linejoin:bevel;stroke-miterlimit:4;stroke-opacity:1;stroke-dasharray:none"
       d="m 16.547244,9.2336312 c -0.183807,-0.086581 -0.33473,-0.2170288 -0.421123,-0.3639925 -0.05576,-0.094854 -0.06694,-0.1423856 -0.06694,-0.2846857 0,-0.2881882 0.150638,-0.5024022 0.459724,-0.6537468 0.196244,-0.096091 0.240694,-0.087252 0.127583,0.025371 -0.339063,0.3375977 -0.323922,0.9403855 0.03148,1.2532227 0.132258,0.1164178 0.08436,0.1251486 -0.130728,0.023831 z"
       id="path3915"
       inkscape:connector-curvature="0"
       transform="translate(165.65379,372.07709)" />
    <path
       style="fill:#ffffff;fill-opacity:1;stroke:#000000;stroke-width:0.001;stroke-linecap:round;stroke-linejoin:bevel;stroke-miterlimit:4;stroke-opacity:1;stroke-dasharray:none"
       d="m 17.382897,9.1767242 c 0.163626,-0.167152 0.210966,-0.3017449 0.212431,-0.6039727 0.0011,-0.217573 -0.0072,-0.2746393 -0.05497,-0.3782455 C 17.478811,8.0609243 17.39247,7.9582552 17.279332,7.8841199 l -0.07321,-0.047971 0.07321,0.015286 c 0.127536,0.026631 0.380891,0.1669656 0.485683,0.2690238 0.146047,0.142236 0.197837,0.2614876 0.196427,0.4522923 -0.002,0.2769755 -0.16677,0.5057254 -0.466164,0.6473615 -0.197008,0.0932 -0.232627,0.079448 -0.112381,-0.043389 z"
       id="path3917"
       inkscape:connector-curvature="0"
       transform="translate(165.65379,372.07709)" />
    <path
       style="fill:#ffffff;fill-opacity:1;stroke:#000000;stroke-width:0.001;stroke-linecap:round;stroke-linejoin:bevel;stroke-miterlimit:4;stroke-opacity:1;stroke-dasharray:none"
       d="m 19.658618,8.6232019 c 0,-0.8273453 -0.02488,-0.7422962 0.225727,-0.771699 l 0.140317,-0.016463 0,0.7593028 0,0.7593028 -0.183022,0 -0.183022,0 0,-0.7304436 z"
       id="path3919"
       inkscape:connector-curvature="0"
       transform="translate(165.65379,372.07709)" />
    <path
       style="fill:#ffffff;fill-opacity:1;stroke:#000000;stroke-width:0.001;stroke-linecap:round;stroke-linejoin:bevel;stroke-miterlimit:4;stroke-opacity:1;stroke-dasharray:none"
       d="m 14.485195,4.3889988 c 0.573863,-0.075198 1.056847,-0.2473368 1.315739,-0.4689388 0.133165,-0.1139842 0.311028,-0.3797996 0.490585,-0.7331758 0.172968,-0.340409 0.217526,-0.3215189 0.07116,0.030167 -0.131531,0.316036 -0.2318,0.4631092 -0.457543,0.6711174 -0.352971,0.3252409 -0.839774,0.5103357 -1.383335,0.5259787 l -0.292835,0.00843 0.25623,-0.033576 z"
       id="path3925"
       inkscape:connector-curvature="0"
       transform="translate(165.65379,372.07709)" />
    <path
       style="fill:#ffffff;fill-opacity:1;stroke:#000000;stroke-width:0.001;stroke-linecap:round;stroke-linejoin:bevel;stroke-miterlimit:4;stroke-opacity:1;stroke-dasharray:none"
       d="m 19.683395,8.6398596 c 2.05e-4,-0.3791606 0.01018,-0.7048677 0.02216,-0.7237934 0.0128,-0.020216 0.07807,-0.039079 0.158245,-0.045727 l 0.136462,-0.011317 0,0.7351099 0,0.7351099 -0.158619,0 -0.158619,0 3.74e-4,-0.6893829 z"
       id="path3927"
       inkscape:connector-curvature="0"
       transform="translate(165.65379,372.07709)" />
    <path
       style="fill:#ffffff;fill-opacity:1;stroke:#000000;stroke-width:0.001;stroke-linecap:round;stroke-linejoin:bevel;stroke-miterlimit:4;stroke-opacity:1;stroke-dasharray:none"
       d="m 22.733388,9.0731542 c 0,-0.00663 0.104112,-0.2428973 0.231359,-0.5250328 0.57428,-1.2733035 0.722235,-1.6852148 0.793177,-2.2082385 0.04041,-0.2978987 0.0337,-1.01557 -0.01152,-1.233081 C 23.613784,4.4689291 23.352687,3.9953654 22.862285,3.5032302 22.71172,3.3521332 22.595194,3.2285085 22.603338,3.2285085 c 0.03624,0 0.366748,0.2923233 0.565136,0.4998398 0.430225,0.4500241 0.681549,0.9177228 0.813245,1.5134024 0.049,0.2216466 0.04212,0.9913261 -0.0114,1.2747062 -0.141597,0.749746 -0.537824,1.6254888 -1.071137,2.3674321 -0.132799,0.1847492 -0.165791,0.222413 -0.165791,0.1892652 z"
       id="path3929"
       inkscape:connector-curvature="0"
       transform="translate(165.65379,372.07709)" />
  </g>
</svg>
