<svg xmlns="http://www.w3.org/2000/svg" width="2703.027" height="2083.591"><desc>world98</desc><path fill="none" stroke="#000" stroke-width="15" d="M2212.302 669.57c13.884 16.58 25.692 31.71 25.473 32.64-.126.535.657 1.86 1.74 2.944 1.085 1.084 2.49 3.52 3.122 5.412.633 1.892 3.738 6.932 6.9 11.2 6.866 9.266 15.627 23.94 15.936 26.69.122 1.082.248 4.86.28 8.392.034 3.533.807 10.26 1.72 14.95.912 4.69 1.263 8.923.78 9.406-.485.484-1.244 3.154-1.688 5.933-.948 5.934-3.028 9.438-12.424 20.94-10.15 12.43-10.35 12.812-9.03 17.325.64 2.176 1.51 5.51 1.95 7.41.44 1.9 2 5.113 3.47 7.14 1.47 2.028 2.76 4.402 2.86 5.275.25 2.156-8.47 10.69-11.93 11.684-2.47.71-2.62.99-1.86 3.38.46 1.43 2.2 5.05 3.88 8.05 3.58 6.37 3.5 9.11-.49 16.6-1.57 2.95-2.78 6.09-2.69 6.98.32 3.01-29.3 53.87-52.03 89.36-12.45 19.44-28.16 44.78-34.91 56.31-8.04 13.74-17.17 27.76-26.5 40.67-19.75 27.35-28.94 42.17-32.2 51.95-2.2 6.59-6.31 13.82-23.99 42.2-11.73 18.84-22.03 34.95-22.89 35.8-.85.86-2.31 3.87-3.23 6.7-.92 2.83-2.95 6.84-4.51 8.92-1.56 2.09-4.09 7.16-5.62 11.27-1.53 4.12-4.08 9.2-5.67 11.3-1.59 2.1-4.1 5.98-5.58 8.62-1.49 2.64-4.85 7.55-7.47 10.92s-6.56 8.47-8.75 11.33c-2.19 2.87-7.46 9.69-11.71 15.16-4.25 5.47-8.52 11.39-9.48 13.14-.96 1.76-3.57 5.01-5.79 7.24-2.38 2.38-4.94 6.11-6.22 9.05-1.76 4.05-3.81 6.64-10.82 13.62-7.56 7.53-9.41 8.93-14.64 11.11-3.29 1.38-6.03 2.54-6.09 2.59-.05.06.79 1.4 1.87 2.98 1.25 1.82 16.55 13.77 41.5 32.4 75.07 56.07 101.17 75.57 134.23 100.28 50.4 37.67 149.92 112.03 209.65 156.63 29.39 21.95 57.08 42.63 61.53 45.96 68.37 51.17 91.19 68.22 285.56 213.41 27.75 20.73 27.28 20.35 26.18 21.45-1.16 1.17-341.07 161.28-342.54 161.36-1.32.07-7.41-4.03-135.03-91.08-47.01-32.06-122.65-83.59-139.64-95.11-14.64-9.94-88.39-60.18-143.84-97.99-55.6-37.92-165.22-112.6-177.9-121.2-28.28-19.19-113.19-77.12-113.52-77.45-.18-.18-1.13.48-2.11 1.46-.98.99-2.29 1.5-2.91 1.15-.61-.35-3.49-2.09-6.38-3.86-4.72-2.89-5.43-3.03-6.87-1.39-3.62 4.14-9.17 15.65-9.25 19.22-.08 3.58-.36 3.97-6.68 9.58-10.2 9.05-20.42 15.42-24.02 14.99-2.3-.27-3.67.33-5.98 2.63-1.64 1.65-3.55 3.03-4.24 3.08-1.89.13-8.45 3.97-10.81 6.33-3.14 3.14-4.34 7.42-2.77 9.85 2.15 3.32 2.46 5.06 1.66 9.3-.66 3.49-1.62 4.8-8.51 11.7-6.33 6.33-8.42 7.93-11.29 8.65-1.94.49-6.46 3.04-10.05 5.67-7.26 5.33-11.22 7.19-15.38 7.28-1.54.03-3.62.5-4.62 1.03-9.34 5-20.22 7.33-22.69 4.86-.78-.77-1.75-1.27-2.17-1.11-1.09.42-10.49-3.06-11.78-4.35-.6-.59-2.51-1.53-4.25-2.08-2.98-.95-3.42-.75-7.6 3.36l-4.44 4.37-25.56-4.42c-18.6-3.22-27.46-5.29-32.55-7.61-3.85-1.76-8.14-3.2-9.53-3.2-3.64 0-13.2-3.78-35.28-13.94-30.81-14.18-67.15-36.82-97.05-60.45-14.38-11.36-13.76-10.47-9.92-14.3 3.16-3.15 3.18-3.28.92-4.81-1.28-.86-6.66-5.51-11.95-10.32-11.51-10.45-11.82-10.65-15.08-9.43l-2.56.96-18.59-18.59-18.59-18.59-.84-4.37c-.78-4.1-1.39-4.92-10.02-13.56l-9.19-9.19-3.57 3.14-3.57 3.15-5.44-5.88c-9.21-9.93-20.24-23.2-28.7-34.52-16.68-22.33-41.57-62.73-57.3-93.02-8.64-16.65-24.39-54.93-27.76-67.48-2.02-7.51-2.01-8.63.11-13.55l2.31-5.36-6.17-19.28c-6.08-18.96-6.8-23.71-5.04-33.23.25-1.38 6.13-9.94 13.53-19.7 7.19-9.49 16.61-22.1 20.94-28.03 4.33-5.92 10.43-13.34 13.56-16.47 3.13-3.13 6.74-7.36 8.01-9.41 9.36-15.02 23.83-31.7 60.59-69.88 13.05-13.56 22.08-23.51 21.93-24.16-.32-1.34 6.12-10.09 11.14-15.16 4.47-4.51 3.87-7.13-1.73-7.55-7.87-.58-10.06-.48-11.02.48-.56.56-1.88.93-2.95.83-1.47-.14-3.53 1.4-8.4 6.27-3.55 3.55-9.68 8.95-13.62 12.02-3.94 3.07-17.08 15.38-29.21 27.36-12.93 12.77-24.3 23.35-27.47 25.56-5.59 3.9-16.93 13-30.13 24.17-12.46 10.55-12.48 10.56-16.45 7.59-2.9-2.16-99.1-75.2-179.85-136.54-12.6-9.57-40.09-30.45-61.09-46.39l-70.74-53.71c-17.9-13.6-36.36-27.6-41.01-31.11-4.65-3.51-23.28-17.66-41.4-31.43s-52.66-40-76.76-58.29c-24.1-18.29-57.02-43.28-73.16-55.54-16.13-12.26-33.14-25.16-37.8-28.67-4.66-3.51-39.02-29.6-76.37-57.98-37.35-28.38-76.96-58.45-88.03-66.82-20.83-15.76-126.23-95.78-141.08-107.11-4.63-3.53-35.02-26.6-67.53-51.27C-4.17 372.18-.22 375.25.1 373.9.588 371.857 254.438 0 255.348 0c.98 0 3.36 1.877 43.24 34.165 16.55 13.397 43.12 34.874 59.046 47.727 15.926 12.853 49.02 39.58 73.54 59.395 91.288 73.76 162.36 131.145 176.052 142.147 7.764 6.237 32.588 26.28 55.165 44.537 22.57 18.26 53.91 43.56 69.64 56.23 15.72 12.66 37.04 29.85 47.37 38.19 10.33 8.34 58.07 46.83 106.09 85.54 48.03 38.71 102.11 82.31 120.2 96.89 18.08 14.59 35.9 28.92 39.58 31.84 3.69 2.92 14.98 12 25.09 20.17 17.8 14.39 33.72 27.24 88.07 71.03l47.77 38.5c12.06 9.72 33.21 26.76 46.99 37.86 60.02 48.33 112.81 90.93 113.3 91.42.29.29 8.51-7.44 18.25-17.19l17.72-17.72 4.88-35.99 4.88-35.98 15.77-15.76 15.77-15.76 15.8-8.94c33.28-18.84 50.76-28.82 99.47-56.79 174.02-99.92 312.4-178.88 314.92-179.7 1.62-.52 3.5-.39 4.18.29 2.17 2.17 6.32 2.22 13.57.18 8.95-2.53 13.64-1.5 19.93 4.38 6.47 6.04 7.21 5.94 15.4-2.24l6.86-6.85 3.66 1.3c3.44 1.22 3.86 1.09 7.1-2.15 4.35-4.35 8.65-6.45 14.58-7.11 3.65-.41 6.06-1.56 10.94-5.21 5.68-4.25 6.58-4.6 9.68-3.82 1.88.48 5.04.51 7.03.09 4.87-1.05 7.83.03 15.56 5.66 3.6 2.63 9.32 5.84 12.71 7.13 3.39 1.3 8.35 4.13 11.01 6.29 2.67 2.17 8.11 5.31 12.08 6.99 7.87 3.32 18.2 10.32 28.9 19.57 3.76 3.25 7.87 6.14 9.14 6.43 3.71.83 21.91 16.4 59.83 51.19 15.44 14.15 70.46 68.8 76.28 75.74zm-80.562-76.415c-29.537-27.152-50.943-45.154-57.69-48.516-2.128-1.06-7.652-5.26-12.275-9.34-4.624-4.08-8.848-7.3-9.386-7.18-.54.12-2.4-1.19-4.14-2.93-1.99-1.99-5.65-4.1-9.92-5.7-3.72-1.4-9.82-4.68-13.55-7.28-3.74-2.61-9.47-5.87-12.75-7.26-3.28-1.39-7.93-4.06-10.33-5.94-6.54-5.12-9.57-6.33-14.17-5.63-2.29.35-5.5.29-7.12-.12-2.05-.52-3.91-.06-6.06 1.48-7.82 5.63-10.81 7.09-15.56 7.6-3.3.36-5.36 1.14-5.84 2.21-1.3 2.9 14.99-2.4 19.95-6.5l4.18-3.46 13.92 4.35c7.66 2.39 16.36 5.78 19.34 7.53 2.97 1.75 10.83 6.35 17.46 10.22 6.63 3.87 20 12.77 29.72 19.78 23.81 17.17 47.63 39.34 103.99 96.82 41.62 42.45 41.67 42.5 55.38 60.58 7.55 9.95 19.88 27.05 27.41 37.99l13.69 19.89 3.13 14.65c1.72 8.06 3.52 14.65 3.99 14.65 1.01 0 .78-2.63-1.02-11.36-.73-3.55-1.31-9.41-1.28-13.02.03-3.61-.38-7.97-.92-9.69-1.38-4.41-7.4-14.09-14.63-23.53-3.82-4.99-6.64-9.64-7.34-12.15-.63-2.24-2.07-5-3.2-6.13-1.13-1.13-1.94-2.58-1.79-3.2.15-.63-1.06-2.48-2.7-4.11-1.64-1.62-5.67-6.31-8.97-10.4-3.3-4.09-8.27-10.26-11.06-13.7-7.47-9.24-59.31-61.18-80.53-80.69zm-23.71-9.525c-30.424-29-32.112-30.47-49.582-43.22-11.203-8.176-25.045-17.267-36.375-23.89-16.453-9.618-19.662-11.112-31.965-14.886l-13.675-4.196-3.404 3.404c-2.7 2.693-5.01 3.824-11.08 5.416-7.14 1.872-8.05 2.388-13.08 7.42l-5.41 5.41-5.44-.276-5.44-.276-4.72 5.66-4.72 5.657-15.64-3.783c-8.6-2.08-19.83-4.247-24.95-4.814-9.2-1.018-9.4-.983-16.15 2.946-3.76 2.186-55.38 33.07-114.72 68.63l-107.88 64.653-6-.344-6.01-.34-19.76 11.36c-40.51 23.29-143.16 82.81-156.84 90.93l-6.39 3.8-4.21 10.36c-2.32 5.7-5.92 15.43-8 21.63-3.72 11.05-3.76 11.48-2.13 21.34 2.45 14.85 6.97 29.72 15.94 52.41 4.4 11.13 8.54 21.28 9.2 22.56 2.26 4.37 29.14 53.54 34.49 63.09 7.41 13.25 6.47 11.92 39.49 55.97 26.78 35.75 31.95 42.17 52.96 65.83 12.8 14.42 27.85 31.51 33.44 37.97 6.14 7.11 16.91 18.16 27.22 27.94 27 25.6 55.82 52.18 66.58 61.41 11.97 10.27 54.2 42.51 63.06 48.15 3.5 2.23 16.53 10.43 28.95 18.23 12.42 7.8 26.26 16.55 30.75 19.45 5.79 3.74 17.32 9.05 39.7 18.28 28.46 11.75 33.33 13.42 50.01 17.17l18.47 4.15 10.94-3.46 10.93-3.46 29.15-40.5 29.15-40.5 7.02-16.3c5.97-13.85 7.54-16.7 10.43-18.95 2.47-1.92 6.85-8.18 16-22.88 27.38-43.98 27.04-43.37 28.45-50.73 1.3-6.77 1.57-7.23 25.24-42.64 19.27-28.82 26.88-41.12 39.05-63.1 8.31-15.02 21.21-37.19 28.67-49.27 11.52-18.66 14.55-22.95 20.19-28.59 6-6 7.91-8.86 19.87-29.7 9.43-16.44 14.02-25.46 15.96-31.41 2.71-8.32 2.71-8.39-.18-20.45l-2.91-12.09 6.13-5.21 6.13-5.21-4.42-11.28c-5.07-12.95-5.84-10.24 7.38-26 7.09-8.45 8.4-10.56 10.85-17.43l2.79-7.81-3.28-14.81-3.28-14.82-11.42-16.64c-6.29-9.15-15.11-21.55-19.6-27.55-4.5-6-11.16-14.93-14.81-19.84-6.12-8.26-15.13-17.91-61.79-66.19-4.4-4.55-22.17-21.78-39.49-38.29zm154.143 206.053c-1.003 2.146-1.868 6.54-1.145 5.817.744-.745 2.637-6.8 2.247-7.19-.172-.172-.668.446-1.1 1.373zm-5.557 10.706c-.29.68.268.44 1.24-.53.973-.97 1.21-1.53.528-1.24-.683.29-1.478 1.08-1.768 1.76zm-306.742-294.37c-.575.98-1.156 1.32-1.29.74-.135-.57-1.87.59-3.86 2.57-3.46 3.46-3.76 3.55-7.12 2.17l-3.51-1.44-6.657 6.65c-6.35 6.35-6.81 6.64-9.985 6.26-2.26-.27-4.362-1.43-6.545-3.62-5.286-5.29-10.624-6.46-19.373-4.27-5.936 1.49-8.696 1.56-12.51.34-4.77-1.53-5.083-1.46-12.144 2.62-3.987 2.3-7.25 4.52-7.25 4.92 0 .4.36.37.8-.07.44-.44 3.12-1.86 5.96-3.15 6.59-3 17.366-2.1 39.81 3.33l15.933 3.85 4.94-5.42c4.925-5.4 4.958-5.42 10.35-5.49 4.823-.06 5.916-.51 10.06-4.09 3.413-2.96 4.552-4.45 4.29-5.62-.516-2.3-.734-2.34-1.9-.35zm-6.33 7.22c-.857.79-1.193.79-.854 0 .306-.72.94-1.3 1.41-1.3s.22.58-.556 1.3zm301.396 301.61c-.508.86.04.63 1.223-.52 1.18-1.15 1.597-1.86.925-1.58-.673.28-1.64 1.22-2.148 2.09zm-4.555 5.53c-.93.93-.67 2.86.88 6.54 2.122 5.03 2.19 5.1 1.854 2.03-.2-1.75-.88-4.1-1.52-5.21-.64-1.11-.72-2.47-.18-3.01.54-.54.82-1.15.63-1.34-.2-.2-.95.24-1.67.96zm6.68 20.68l1.607 3.84-5.665 4.69c-3.116 2.58-5.488 4.87-5.27 5.09.99.99 7.025-1.92 9.856-4.75 3.482-3.48 3.682-5.21 1.014-8.79-3.026-4.07-3.215-4.08-1.543-.09zm-8.377 24.97c.026.29.735 3.86 1.576 7.91 1.513 7.3 1.538 7.34 2.373 4.09.464-1.81.175-4.89-.643-6.85-1.357-3.26-3.42-6.49-3.306-5.17zM2236.93 892c-.28 1.23-.24 2.243.09 2.24.61 0 1.23-3.695.71-4.215-.15-.15-.502.737-.79 1.972zm-383.32-366.29c-.668.67-.313.763.962.255 1.11-.445 2.5-1.285 3.08-1.87.67-.667.313-.76-.96-.253-1.113.444-2.5 1.284-3.084 1.868zm-3.543 2.38c-.34.79 0 .79.854 0 .78-.715 1.03-1.3.56-1.3s-1.1.585-1.41 1.3zm-6.364 3.536c-.34.79 0 .79.854 0 .774-.716 1.025-1.3.555-1.3s-1.106.584-1.41 1.3zm-.707 3.534c-.34.79 0 .79.854 0 .776-.714 1.027-1.3.557-1.3-.47 0-1.106.586-1.412 1.3zm-2.83-1.413c-.337.79 0 .79.856 0 .775-.714 1.025-1.3.555-1.3s-1.103.586-1.41 1.3zm-3.534 2.122c-.34.79 0 .79.853 0 .775-.72 1.026-1.3.556-1.3s-1.1.58-1.41 1.3zm-3.537 4.95c-.34.79 0 .79.854 0 .77-.72 1.02-1.3.55-1.3s-1.11.58-1.42 1.3zm-117.13 63.62c-105.405 60.26-105.226 60.15-114.808 65.5-4.49 2.51-11.8 6.65-16.24 9.21-4.44 2.56-16.185 9.27-26.103 14.91-9.92 5.64-23.664 13.53-30.55 17.53-6.883 4-20.576 11.85-30.43 17.43-9.85 5.58-17.912 10.51-17.912 10.96 0 .44.39.42.867-.06.47-.48.97-.42 1.1.14.13.55 7.31-3.21 15.96-8.35 8.65-5.15 28.47-16.66 44.04-25.59s36.12-20.84 45.66-26.46c44.32-26.1 43.86-25.85 47.97-25.55 2.11.15 4.65.45 5.64.66 1.19.25 19.61-10.27 55.02-31.45 29.27-17.51 53.46-32.08 53.76-32.39 1.89-1.89-4.76 1.75-38.91 21.34-20.99 12.03-40.21 23.02-42.7 24.41-2.5 1.39-7.96 4.53-12.13 6.97-10.46 6.11-15.55 8.49-16.38 7.66-.39-.39-.15-.94.54-1.22 2.92-1.21 53.8-30.06 93.71-53.14 12.63-7.31 32.07-18.35 59.43-33.77 19.73-11.12 30.28-17.66 34.93-21.64 4.99-4.28 1.24-2.19-112.52 62.85zm466.347 373.7c-8.046 12.96-15.486 25.57-16.535 28.02-2.11 4.92-4.68 12.81-3.474 10.67.42-.75 10.92-17.18 23.335-36.51l22.572-35.15-5.638 4.69c-5.18 4.31-6.83 6.61-20.264 28.26zM1769.452 579c-.34.79 0 .79.854 0 .776-.715 1.027-1.3.557-1.3-.47 0-1.103.585-1.41 1.3zm-10.607 6.364c-.338.79 0 .79.855 0 .774-.714 1.025-1.3.555-1.3s-1.105.586-1.41 1.3zm-6.69 3.653c-1.12 1.154-.934 1.2.942.234 3.192-1.64 5.05-3.5 2.475-2.47-1.115.45-2.65 1.45-3.42 2.24zm390.69 456.762c-4.58 8.15-8.87 15.36-9.533 16.02-.666.66-.89 1.52-.5 1.91.39.39 1.66-.25 2.83-1.42 1.163-1.17 1.765-2.48 1.334-2.91-.493-.5.105-1.34 1.612-2.28 1.887-1.18 2.003-1.44.548-1.22-1.442.21-1.246-.16.887-1.66 1.767-1.25 2.32-2.03 1.567-2.21-.758-.18-.318-.79 1.245-1.73 1.816-1.09 2.06-1.54.984-1.79-1.07-.25-.89-.62.66-1.43s1.72-1.18.66-1.43c-1.05-.25-.85-.73.77-1.83 1.35-.92 1.76-1.61 1.06-1.77-.73-.17-.22-.85 1.38-1.85 1.56-.97 1.93-1.46.97-1.26-1.1.21-.86-.94.78-3.85 1.29-2.29 2.05-4.16 1.7-4.16-.35 0-4.39 6.67-8.97 14.82zm-14.947 25.04l-3.27 5.21 3.48-4.3c3.312-4.09 4.486-6.14 3.505-6.14-.242 0-1.915 2.35-3.713 5.21zm-5.63 8.16c-.29.68.27.44 1.24-.53.973-.97 1.21-1.53.528-1.24-.682.29-1.477 1.08-1.767 1.76zm-2.798 4.18c-.34.79 0 .79.853 0 .78-.72 1.03-1.3.56-1.3s-1.102.58-1.41 1.3zm-22.63 33.94c-.34.79 0 .79.85 0 .777-.72 1.028-1.3.558-1.3s-1.106.58-1.41 1.3zm-3.737 5.55c-1.85 2.68-4.64 12.68-3.78 13.54.32.31 6.41-16.05 6.12-16.45-.094-.14-1.15 1.17-2.34 2.89zm-53.754 91.97c-1.61 3.61-3.5 7.77-4.19 9.26-1.9 4.07-.43 3.24 2.64-1.49 3.37-5.2 6.67-13.82 5.41-14.12-.52-.13-2.26 2.73-3.87 6.33zm-6.81 15.65c-.6 2.26.06 2.01 1.15-.45.39-.88.41-1.59.04-1.59s-.91.91-1.2 2.04zm-3.38 7.76c-1.17 2.67-1.57 4.32-.89 3.67 1.25-1.19 4.21-8.54 3.43-8.54-.23 0-1.38 2.18-2.55 4.85zm-20.37 29.88c-9.56 13.27-16.63 23.63-15.73 23.02.9-.61 3.37-3.54 5.47-6.51 2.11-2.97 6.67-9.24 10.14-13.94 3.47-4.7 9.08-12.63 12.46-17.63 11.45-16.93 5.11-9.2-12.34 15.05zm686.17 650.68c-.39.39-.39 1.03 0 1.42 1.27 1.27-1.02 2.56-22.32 12.53-11.58 5.42-49.44 23.16-84.12 39.43-34.68 16.26-82.56 38.71-106.39 49.88l-82.54 38.68c-27.09 12.7-39.67 18.12-40.71 17.55-.83-.46-22.86-15.42-48.96-33.27s-69.22-47.28-95.81-65.42c-42.47-28.96-132.87-90.65-200.06-136.52-12.25-8.37-43.45-29.66-69.35-47.33-25.89-17.67-73.17-49.94-105.06-71.72-31.9-21.78-62.74-42.8-68.55-46.72-5.81-3.91-35.88-24.44-66.82-45.61-30.94-21.17-57.34-39.21-58.65-40.09-1.95-1.3-2.18-1.95-1.27-3.52 1-1.71.69-1.77-2.87-.53-2.2.76-5.44 1.54-7.21 1.72-3.16.32-3.38.52-12.41 11.63-11.34 13.95-11.74 14.65-9.99 17.58 1.45 2.42 1.71 5.96.62 8.46-.34.79 1.27-.48 3.59-2.83 3.17-3.21 3.57-3.86 1.6-2.64l-2.62 1.63 1.86-3.09c1.02-1.7 2.24-3.52 2.72-4.04.47-.53.7-1.64.5-2.49-.2-.84-.13-1.7.15-1.92 2.22-1.7 3.48-3.55 2.22-3.27-1.63.37.28-6.21 2.4-8.26 1.09-1.04 1.2-.88.95 1.36-.28 2.55-.28 2.55.55.55.45-1.1 2.19-3.4 3.85-5.11 2.89-2.97 3.19-3.03 6.63-1.35 1.98.96 4.91 2.65 6.51 3.74 2.35 1.61 3.23 1.66 4.6.3 1-1 2.34-1.33 3.28-.81.88.48 10.85 7.21 22.17 14.95 11.31 7.74 27.39 18.71 35.73 24.37 13.23 8.98 132.47 90.22 177.48 120.91 8.78 5.99 59.88 40.81 113.54 77.37 53.66 36.56 115.55 78.73 137.52 93.7 21.97 14.97 46.77 31.85 55.12 37.51 8.34 5.66 49.2 33.49 90.81 61.85 43.63 29.73 76.23 51.42 77.03 51.23.76-.18 12.84-5.75 26.84-12.39s71.97-33.96 128.82-60.73c56.85-26.77 120.01-56.52 140.35-66.12 20.34-9.6 38.21-17.99 39.69-18.65 2.49-1.1 2.56-1.32.94-2.94-.96-.96-2.07-1.43-2.46-1.05zm-8.02-7.16c0 .47.58 1.11 1.3 1.41.79.34.79 0 0-.86-.72-.78-1.3-1.03-1.3-.56zm2.83 4.25c0 .47.59 1.1 1.3 1.41.79.34.79 0 0-.86-.71-.78-1.3-1.03-1.3-.56zm-8.48-8.49c0 .47.58 1.1 1.3 1.41.78.34.79 0 0-.86-.72-.78-1.3-1.03-1.3-.56zm3.11 4.6c.28.67 1.23 1.64 2.09 2.14.86.51.63-.04-.52-1.22s-1.86-1.6-1.58-.93zm-8.78-8.85c0 .47.58 1.1 1.3 1.41.79.34.79 0 0-.86-.72-.78-1.3-1.03-1.3-.56zm3.12 4.62c.29.68 1.08 1.48 1.76 1.77.68.29.44-.27-.53-1.24s-1.53-1.21-1.24-.53zm-8.49-8.49c.29.68 1.08 1.47 1.76 1.76.68.29.44-.27-.53-1.24s-1.53-1.21-1.24-.53zm-51.1-32.92c-58.22-43.55-101.17-75.59-116.91-87.22-1.57-1.16-38.34-28.67-81.71-61.13-43.38-32.46-97.45-72.89-120.17-89.84-22.72-16.95-54.22-40.5-70-52.33-54.14-40.59-139.57-104.39-147.76-110.35-4.51-3.28-18.7-13.91-31.54-23.62-18.59-14.06-82.68-62.01-112.03-83.84-2.9-2.15-5.52-4.15-5.82-4.44-.59-.56-26.64 3.13-30.61 4.34-1.3.39-3.51 1.85-4.9 3.25-2.28 2.28-2.68 2.33-3.91.55-1.29-1.86-1.66-1.75-6.1 1.85-6.78 5.49-13.82 12.71-15.69 16.08-.88 1.59-3.17 4.07-5.09 5.51-3.38 2.53-3.44 2.53-1.84.01 1.41-2.23 1.15-2.14-1.8.67-2.12 2.02-3.14 3.58-2.65 4.07.5.5-.12 1.4-1.65 2.43-1.35.9-2.45 2.08-2.45 2.63 0 .55 3.33-1.61 7.42-4.79l7.43-5.78-11.57 11.06c-15.49 14.8-32.5 30.4-34.88 31.97-1.58 1.05-2.05.91-2.54-.72-.33-1.1-.99-2-1.47-2-2.36 0 2.26-4.87 19.31-20.33 10.26-9.31 20.5-18.56 22.77-20.58 2.26-2.01 9.4-8.48 15.85-14.37l11.74-10.71-6.98-2.05c-49.92-14.64-63.19-20.13-107.94-44.64-19.35-10.59-38.48-21.69-42.5-24.67-4.03-2.97-25.14-19.09-46.92-35.81-21.78-16.72-42.79-32.62-46.68-35.34-5.54-3.87-13.28-11.14-35.5-33.36l-28.42-28.42-10.56-16.05c-5.81-8.83-13.07-18.95-16.14-22.49-35-40.39-35.92-41.6-64.01-84.61-23.76-36.39-28.15-43.68-41.63-69.35-8.29-15.78-17.76-33.53-21.06-39.46-4.56-8.2-7.41-15.25-11.89-29.48l-5.9-18.7-18.01 18.01c-9.9 9.9-18.44 17.9-18.96 17.78-.53-.13-2.55 1.87-4.49 4.43-4.57 6.02-53.86 55.27-56.44 56.39-4.25 1.85 7.97-11.37 42.12-45.55 2.66-2.67 4.16-4.85 4.02-5.88-.12-.9 1.78-4.28 4.22-7.52 3.62-4.8 4.98-6.05 7.38-6.76 2.12-.63 2.61-.52 1.73.39-.67.7-.86 1.62-.43 2.05.55.55 4.98-3.52 14.94-13.7 20.91-21.39 22.99-23.29 24.62-22.57.78.34 3.31 7.06 5.64 14.92 2.32 7.87 4.8 14.43 5.5 14.6.7.17.77.43.15.57-1.28.3.49 5.97 3.79 12.13 3.38 6.34 3.58 4.85.24-1.86-2.81-5.65-4.39-10.09-3.15-8.91.31.3 1.23 2.16 2.04 4.14 2.06 5.03 4.08 6.9 5.01 4.66 4.16-10 12.93-17.1 29.19-23.64 1.28-.51 1.03-1.92-1.21-6.73-1.55-3.34-2.92-6.62-3.04-7.29-.12-.66-1.88-4.92-3.91-9.47-4.31-9.63-7.76-19.76-10.24-30.05l-1.76-7.31-7.26 3.63c-8.68 4.34-11.77 7.24-15.1 14.19-1.72 3.57-2.9 5.13-3.74 4.93-.79-.18-.69-.42.26-.64 1.05-.25 1.05-.46 0-.71-.94-.22-1.05-.46-.3-.64.66-.15 1.86-1.89 2.67-3.86 2.3-5.62 9.61-12.31 17.17-15.74 7.54-3.42 8.77-4.93 1.68-2.07-9.24 3.73-14 7.4-17.41 13.44-1.68 2.97-3.48 6-4.02 6.73-.54.73-1.23 4.26-1.55 7.84l-.58 6.51-19.16 19.15-19.14 19.16-1.93-1.25c-2.92-1.88-10.17-7.88-13.16-10.88-1.47-1.47-2.99-2.31-3.43-1.87-.53.53-1.83-.56-4.03-3.39-2.44-3.14-3.18-3.72-2.97-2.34.21 1.38-.64.71-3.41-2.7-2.73-3.35-3.78-4.19-4.01-3.2-.24.99-1.13.27-3.43-2.73-1.99-2.59-3.56-3.96-4.34-3.77-.78.18-2.23-1.07-3.97-3.41-2.11-2.86-2.82-3.38-3.08-2.28-.26 1.1-1.05.48-3.54-2.8-2.25-2.97-3.29-3.86-3.5-2.99-.2.84-1.48 0-3.96-2.58-2.02-2.1-5.27-5.08-7.23-6.62-1.96-1.55-6.59-5.44-10.3-8.65-3.71-3.21-7.64-6.11-8.73-6.44-1.1-.33-2.59-1.61-3.33-2.84-.77-1.28-2.15-2.32-3.23-2.42-1.21-.12-2.71-1.35-4.19-3.43-1.38-1.94-2.79-3.14-3.49-2.97-.65.15-1.45-.33-1.78-1.08-.33-.74-6.94-6.37-14.68-12.49-7.75-6.13-22.52-17.98-32.83-26.34-10.32-8.35-31.46-25.39-47-37.85-15.54-12.47-54.85-44.12-87.35-70.34-32.51-26.22-90.12-72.66-128.03-103.2-37.91-30.54-83.89-67.61-102.17-82.39-18.28-14.77-51.04-41.2-72.79-58.73-21.75-17.53-44.65-36-50.88-41.05-19.19-15.56-32.23-26.08-58.69-47.38-14-11.27-37.09-29.87-51.29-41.33s-35.52-28.64-47.37-38.18c-11.85-9.54-30.17-24.31-40.72-32.82-10.54-8.51-21.51-17.27-24.38-19.46l-5.21-3.99 5.63 4.97c3.1 2.74 8.78 7.55 12.63 10.7 3.85 3.15 12.6 10.31 19.44 15.92 6.84 5.61 15.61 12.75 19.48 15.87 6.87 5.53 11.35 9.46 13 11.4.44.53.33 1.43-.25 2.02-.74.73-.32 1.8 1.35 3.48 3.33 3.33 5.28 4.03 6.85 2.45.73-.74 1.63-1.04 1.99-.68.36.36 3.29 2.69 6.5 5.18s8.42 6.71 11.57 9.38l14.19 12c4.63 3.93 11.94 9.98 16.26 13.44 4.31 3.47 11.31 9.2 15.55 12.73 4.24 3.54 16.16 13.26 26.48 21.6 23.32 18.85 56.76 46.14 63.66 51.95 4.04 3.4 4.98 4.57 4.24 5.31-.69.69-.4.88 1.07.7 1.46-.18 4.39 1.7 10.55 6.77 4.69 3.86 17.3 14.16 28.02 22.89 10.72 8.72 24.72 20.19 31.1 25.47 6.38 5.28 18.63 15.31 27.22 22.28 33.24 26.97 38.13 31.09 38.13 32.14 0 .6 1.4 2.24 3.12 3.66 2.75 2.27 3.35 2.36 5.07.78 1.25-1.15 1.63-1.23 1.04-.23-.65 1.11-.2 2.27 1.54 4.01 2.2 2.2 42.5 34.99 60.73 49.42 7.3 5.78 51.68 41.46 64.76 52.07 4.03 3.27 16.73 13.41 28.22 22.53 32.5 25.81 40.69 32.37 49.85 39.95 11.73 9.7 34.83 28.35 55.87 45.11 9.7 7.72 18.24 15.06 18.99 16.3.74 1.24 3.59 3.86 6.34 5.82 2.74 1.96 11.71 8.93 19.94 15.49 8.22 6.55 21.89 17.38 30.38 24.06 8.49 6.67 18.18 14.48 21.54 17.35 3.36 2.87 13.87 11.44 23.37 19.06 9.5 7.61 25.89 20.81 36.42 29.33 10.53 8.52 26.94 21.7 36.47 29.28 18.54 14.76 21.97 18.34 19.71 20.6-.76.76-18.95 15.79-40.43 33.4-21.48 17.62-50.05 41.09-63.48 52.16l-24.42 20.14-3.81 7.22c-3.33 6.31-4.41 7.63-8.56 10.53-2.61 1.82-6.24 4.68-8.06 6.36-1.82 1.68-4.27 3.52-5.45 4.1-4.41 2.14-4.24 3.89.89 9.02 2.6 2.59 4.51 5.14 4.26 5.66-.29.58-1.88-.66-4.14-3.21-2.23-2.53-4.41-4.23-5.56-4.33-1.5-.14-1.7-.37-.97-1.11 1.15-1.15-3.52-.62-4.73.54-.46.43-.2 1.27.59 1.84.78.57 1.32 1.54 1.19 2.15-.14.64 1.63 2.55 4.25 4.59 3.38 2.63 4.77 3.21 5.65 2.34.88-.86 1.09-.78.84.34-.19.82.4 1.81 1.3 2.21.9.4 1.39 1.04 1.11 1.42-3.62 4.75-30.08 31.55-58.21 58.97-8.16 7.94-8.52 8.45-7.18 9.79 2.46 2.46-1.18 5.7-5.59 4.96-3.56-.6-6.61.92-6.11 3.04.13.56 1.66.72 3.39.36 2.94-.61 3.09-.53 2.27 1.22-.48 1.04-6.55 7.98-13.48 15.44s-19.61 22.46-28.16 33.35c-24.63 31.35-44.97 57.62-48.35 62.43-4.11 5.86-5.93 14.56-4.04 19.34.8 2.04 3.71 9.1 6.45 15.69s5.62 13.76 6.39 15.92c1.44 4.04 1.31 4.44-4.38 13.84-1.18 1.95-2.28 4.49-2.43 5.63-.23 1.72 10.44 31.69 15.43 43.34.77 1.783 1.15 3.245.84 3.245-.53 0-4.95-10.57-8.83-21.12-1.04-2.84-3.4-9.08-5.23-13.86-3.65-9.5-4.24-14.15-2.07-16.32 2.41-2.41 6.87-11.23 6.07-12.02-1.1-1.093-7.73 7.52-9.03 11.73-1.68 5.44 10.13 38.057 24.87 68.68 9.31 19.34 18.46 35.98 22.36 40.61 1.73 2.06 4.65 6.46 6.5 9.76 1.84 3.31 4.88 8.31 6.74 11.12 1.86 2.81 4.62 7.04 6.14 9.41 1.52 2.37 3.14 4.89 3.6 5.6.46.71 2.44 3.49 4.41 6.19 4.643 6.36 9.09 12.98 9.93 14.81.56 1.22 9.73 12.86 27.23 34.56l3.27 4.06 5.47-4.49 5.47-4.49 5.43 6.05c13.9 15.46 15.69 17.96 15.66 21.87-.02 3.27.59 4.36 5.57 9.78 3.08 3.36 6.72 6.72 8.08 7.48 2.41 1.33 2.42 1.27.14-1.93-1.7-2.39-.44-1.45 4.55 3.4 3.8 3.69 8.1 7.5 9.56 8.47 1.71 1.14 2.37 2.05 1.85 2.56-.48.48-2.13-.54-4.12-2.53-1.83-1.83-3.27-2.77-3.21-2.1.07.67 3.31 4.08 7.22 7.56 5.18 4.63 6.97 5.84 6.64 4.48-.38-1.59.04-2.12 2.82-3.53 3.04-1.54 7.224-.66 5.42 1.14-.44.44-.91.34-1.04-.21-.36-1.5-4.74 1.79-5.43 4.07-.35 1.14.05 2.32.94 2.82.84.47 4.9 3.85 9.02 7.51 17.4 15.47 18.42 16.22 19.91 14.73 1.25-1.24.98-1.69-2.76-4.66-2.276-1.81-5.96-4.52-8.19-6.02-2.23-1.51-5.71-4.39-7.736-6.42-2.03-2.024-4.99-4.405-6.59-5.29-2.08-1.15-2.86-2.064-2.76-3.22.103-1.14.44-1.39 1.13-.85.54.42 4.313 3.48 8.39 6.8 4.07 3.32 9.56 7.69 12.21 9.71l4.8 3.68-3.83-4.65c-3.33-4.04-2.89-3.74 3.37 2.31l7.2 6.97-4.55 4.98c-2.5 2.74-4.55 5.155-4.55 5.365 0 .77 19.41 15.3 33.22 24.87 21.75 15.06 64.84 40.22 63.17 36.87-.29-.58-9.23-6.17-19.87-12.43-18.3-10.76-69.96-46.33-71.36-49.13-.9-1.81.49-2.47 1.52-.73 2.15 3.67 50.74 37.12 73.49 50.59 23.02 13.625 23.18 13.7 50.59 23.81 26.2 9.666 28.63 10.34 51.13 14.25l23.612 4.11 5.72-6.594c5.23-6.04 5.87-6.52 7.47-5.67.96.51 6.81 3.75 13 7.21s11.63 6.28 12.09 6.28c.73 0 10.52-6.17 41.04-25.85l6.33-4.08.1-8.6.09-8.59 7.68-8.58c4.23-4.72 9.46-10.72 11.62-13.33l3.93-4.76 11.93-.44c7.544-.28 12.23-.98 12.74-1.9.443-.81 2.18-3.28 3.85-5.5s3.85-5.71 4.83-7.75c1.843-3.84 15.433-21.55 20.21-26.35 1.86-1.87 4.34-3.02 8-3.69 4.233-.79 6.39-1.9 10.66-5.51 2.942-2.49 5.55-4.33 5.783-4.09.24.23-1.114 1.75-3 3.36-2.76 2.35-3.21 3.15-2.31 4.06.8.8 1.82.46 3.47-1.13 1.29-1.24 3.9-3.24 5.81-4.444 3.02-1.91 2.87-1.68-1.13 1.72-2.53 2.15-5.43 5.16-6.46 6.69-1.64 2.46-1.6 2.96.355 4.27 3.65 2.44 29.72 20.23 100.14 68.31 59.96 40.945 160.41 109.51 202.99 138.544 8.79 5.99 26 17.74 38.25 26.1 12.25 8.36 32.12 21.904 44.15 30.1 26.57 18.1 103.22 70.395 151.31 103.24 19.41 13.26 52.5 35.84 73.54 50.19 21.04 14.35 52.22 35.64 69.29 47.3 17.07 11.66 31.18 21.2 31.35 21.2.17 0 36.27-16.87 80.22-37.48 43.95-20.61 116.09-54.434 160.31-75.16 100.13-46.93 90.63-42.31 89.46-43.48-.52-.53-32.57-24.61-71.21-53.51zM1891.7 1367c-.37.37-1.177.55-1.8.4-.65-.15-.482-.553.388-.94 1.694-.754 2.425-.472 1.41.545zm-7.227 5.59c-.97.974-1.53 1.21-1.24.53.29-.68 1.082-1.475 1.764-1.765.68-.29.445.267-.527 1.24zm-5.61 5.704c-2.12 2.165-4.52 4.086-5.34 4.27-.838.19.44-1.347 2.89-3.47 5.982-5.19 7.09-5.55 2.445-.796zm-520.41-483.55c-.41.41-.87.232-1.02-.398-.15-.63-.13-1.286.042-1.458.17-.17.63.004 1.014.394.39.39.37 1.04-.04 1.455zm443.223 553.774c-5.05 5.03-7.707 6.473-8.52 4.64-.36-.8-1.45-1.535-2.43-1.626-1.476-.14-1.01-.93 2.74-4.66 5.2-5.18 6.21-5.55 9.525-3.54 2.41 1.46 2.41 1.48-1.31 5.18zm-3.05-2.586c-.607.6-.588 1.22.04 1.37.63.15 1.445-.03 1.81-.4.367-.365.35-.983-.04-1.37-.39-.39-1.2-.21-1.81.393zm-4.2 3.49c-.63.15-.81.61-.397 1.02.41.41 1.06.43 1.45.04.39-.39.57-.85.4-1.02-.17-.17-.83-.19-1.46-.04zM1303.2 965.62c-2.08 2.005-12.07 12.38-22.2 23.054-14.25 15.015-18.616 19.216-19.28 18.552-.472-.473-.98-.344-1.128.285-.15.63-.607.81-1.02.4-.41-.41-1.19-.3-1.73.24s-.38 1.5.353 2.12c1.238 1.06-.222 2.75-19.877 23.06-11.667 12.06-21.887 22.36-22.71 22.9-1.77 1.16-3.18.16-1.768-1.25.538-.54.5-1.93-.087-3.09l-1.065-2.11 1.904 1.28c1.833 1.23 2.185 1 9.45-6.28 8.63-8.65 12.85-14.05 10.552-13.51-1.12.26-1.51-.05-1.51-1.24 0-1.1 3.855-5.3 12.382-13.5 11.948-11.49 12.48-11.89 15.24-11.5 2.535.36 3.308-.1 6.81-4.06l3.95-4.47-4.478 4.21c-3.168 2.98-4.897 4.02-5.913 3.57-2.068-.92-1.635-1.67 4.144-7.21 5.5-5.26 9.13-6.94 4.59-2.11-2.62 2.78-2.62 2.82-.03 1.27 4.12-2.45 15.02-13.43 17.58-17.72 1.63-2.72 1.98-4.42 1.19-5.79-.93-1.62-.82-1.88.65-1.57.96.2 1.46.02 1.1-.4-.36-.42.38-.32 1.64.22 2.93 1.25 5.4-1.71 4.14-4.95-1.13-2.9 1.06-5.32 3.03-3.35 1.02 1.03 2.15.95 3.98-.26 4.12-2.74 4.17-.69.07 3.26zm-12.556 6.89c-.39.39-.39 1.025 0 1.414.39.39 1.025.39 1.414 0 .39-.39.39-1.025 0-1.414-.39-.39-1.025-.39-1.414 0zm-44.87 49.51c-.91 1.238-.062.663 1.888-1.276 1.95-1.937 2.696-2.952 1.658-2.25-1.037.702-2.632 2.29-3.545 3.526zm-6.01 3.2c-.707 1.044.147.466 1.897-1.284s2.33-2.604 1.29-1.898c-1.04.707-2.47 2.14-3.18 3.182zm-1.757 4.608c-.503.86.2.447 1.56-.914 1.36-1.36 1.773-2.063.914-1.56-.85.502-1.97 1.616-2.47 2.474zm547.467 432.563c-.907 1.43-4.08 4.56-7.05 6.96-4.467 3.61-5.67 4.17-6.94 3.22-.848-.63-2.133-1.01-2.857-.83-2.513.6-.25-2.23 6.305-7.88 6.05-5.21 6.524-5.44 7.764-3.81.87 1.15 1.85 1.41 2.873.76 1.09-.69 1.06-.21-.1 1.61zm-8.08 2.17c-2.925 3.08-2.99 3.28-.615 1.87 3.92-2.33 5.39-3.8 4.59-4.59-.39-.39-2.18.84-3.98 2.74zm-500.204-464.14c-13.602 13.82-28.253 28.28-32.558 32.15-4.305 3.86 6.673-7.59 24.395-25.45s32.374-32.32 32.558-32.14c.185.19-10.793 11.64-24.395 25.46zm489.98 478.28c-3.647 3.81-3.77 3.85-3.307 1.23.324-1.84.98-2.77 2.025-2.88.852-.09 2.34-.64 3.31-1.22.968-.58.056.71-2.027 2.89zm-.907-4.2c-.254 1.04-2.267 2.63-7.788 6.15-3.4 2.17-3.39 2.14.718-2.11 3.954-4.08 7.587-6.16 7.07-4.04zm-12.933 16.68c-.858.79-1.193.79-.855 0 .306-.71.94-1.3 1.41-1.3s.22.59-.555 1.3zm-11.402 4.04c-1.95 1.94-2.797 2.52-1.885 1.28.912-1.23 2.507-2.82 3.545-3.52 1.038-.7.29.31-1.658 2.25zm-6.298 6.43c-1.18 1.15-1.732 1.39-1.223.52.508-.86 1.474-1.81 2.146-2.09.673-.28.257.43-.924 1.58zm-6.34 5.09c-.86.79-1.194.79-.856 0 .307-.71.942-1.3 1.412-1.3s.22.59-.557 1.3zm-7.423 12.97c-.973.97-1.53 1.21-1.24.53.29-.68 1.084-1.48 1.767-1.77.682-.29.445.27-.528 1.24zm-13.154 12.52c-5.06 4.54-9.45 8.27-9.754 8.3-.31.02 2.33-2.84 5.85-6.37 5.04-5.04 6.26-6.72 5.75-7.87-.55-1.22-1.59-.56-6.2 3.91-3.05 2.96-7.87 7.19-10.71 9.4-3.57 2.78-1.89.95 5.42-5.89 8.57-8.03 11.15-10.01 13.55-10.39 6.35-1.02 5.81.19-3.93 8.93zm-19.474 17.08c-2.14 2.14-3.15 2.88-2.24 1.65.91-1.23 2.66-2.98 3.89-3.89 1.23-.9.49.1-1.65 2.24zm-8.83 1.78c-1.95 1.94-2.8 2.52-1.89 1.28.91-1.24 2.5-2.82 3.54-3.52 1.03-.7.29.31-1.66 2.25zm-3.58 9.43c-4.3 4.41-8.2 7.93-8.67 7.82-.48-.11 2.14-3.02 5.81-6.47 10.25-9.63 11.49-10.22 2.85-1.34zm-2.02-3.7c-1.18 1.15-1.73 1.39-1.22.52s1.47-1.81 2.14-2.09c.67-.28.25.43-.93 1.58zm-9.24 8.44c-3.9 3.49-7.34 6.37-7.64 6.39-1.04.08 9.39-9.57 12.06-11.15 1.46-.87-.53 1.28-4.43 4.77zm-1.41 6.37c-1.57 1.55-2.27 1.96-1.55.91.71-1.05 1.98-2.31 2.84-2.81.85-.5.27.36-1.29 1.91zm-593.09-199.23c.51 1.28.41 1.63-.26.96-.59-.58-1.43-1.97-1.87-3.08-.51-1.27-.42-1.63.25-.96.58.58 1.42 1.97 1.87 3.08zm3.15 6.75c.91 2.62.88 2.78-.24.94-1.51-2.49-2.62-5.89-1.56-4.8.38.4 1.19 2.13 1.8 3.86zm7.19 13.76c1.47 3.05 2.43 5.54 2.12 5.54-.65 0-6.47-11.54-6.05-11.96.46-.46 1.07.54 3.91 6.43zm189.41 213.2c-.78.78-1.54 1.3-1.69 1.15-.15-.15.2-1.07.77-2.05.57-.98 1.33-1.49 1.68-1.14.35.36 0 1.28-.78 2.06zm-18.36-20.2c-.87-.51-1.81-1.48-2.1-2.15-.29-.67.42-.25 1.57.93 1.15 1.18 1.39 1.74.52 1.23zm-8.87-8.88c-.72-.3-1.3-.94-1.3-1.41s.58-.22 1.3.56c.79.86.79 1.19 0 .85zm-43.65-39c.21 5.84-.03 7.08-1.18 5.94-.34-.34-.36-3.22-.05-6.41s.67-5.68.79-5.55c.11.13.31 2.84.43 6.03zm-23.89-28.09c-.39.39-1.05.37-1.46-.04-.41-.41-.24-.87.39-1.02.63-.15 1.28-.13 1.46.04.17.17-.01.63-.4 1.02zm-3.89 1.77c-.63.15-1.29.13-1.46-.04-.17-.17.01-.63.39-1.02.39-.38 1.04-.37 1.45.05.41.41.23.87-.4 1.02zm-5.14 4.41c-.3.29-1.33.69-2.29.9-1.41.3-1.44.07-.16-1.23.87-.88 1.9-1.28 2.28-.9.39.39.47.94.17 1.23zm1506.74 387.98c.29.68 1.09 1.48 1.77 1.77.68.29.44-.26-.53-1.24-.97-.97-1.53-1.21-1.24-.52zm-9.49-9.57c0 .47.59 1.11 1.3 1.42.79.34.79 0 0-.85-.71-.78-1.3-1.03-1.3-.56zm3.54 4.95c0 .47.58 1.11 1.3 1.41.79.34.79 0 0-.85-.72-.78-1.3-1.03-1.3-.56zm-9.2-9.19c0 .47.58 1.11 1.3 1.41.79.34.79 0 0-.85-.72-.77-1.3-1.02-1.3-.55zm3.83 5.33c.29.69 1.08 1.48 1.76 1.77.68.29.44-.27-.53-1.24-.98-.97-1.53-1.21-1.24-.52zm-8.79-8.86c0 .47.58 1.11 1.3 1.41.79.34.79 0 0-.85-.72-.78-1.3-1.03-1.3-.56zm3.12 4.61c.28.68 1.22 1.64 2.09 2.15.87.51.63-.04-.52-1.22-1.16-1.18-1.87-1.6-1.58-.93zm-14.44-13.09c0 .47.59 1.11 1.3 1.41.79.34.79 0 0-.85-.71-.77-1.3-1.03-1.3-.56zm-5.66-4.24c0 .47.58 1.11 1.3 1.41.79.34.79 0 0-.85-.72-.77-1.3-1.02-1.3-.55zm-5.66-4.24c0 .47.58 1.1 1.3 1.41.79.34.79 0 0-.85-.72-.77-1.3-1.02-1.3-.55zm-16.27-12.02c0 .47.59 1.1 1.3 1.41.79.34.79 0 0-.85-.71-.77-1.3-1.02-1.3-.55zm-5.66-4.24c0 .47.58 1.11 1.3 1.41.79.34.79 0 0-.85-.72-.77-1.3-1.02-1.3-.55zm-5.66-4.24c0 .47.59 1.11 1.3 1.41.79.34.79 0 0-.85-.71-.77-1.3-1.03-1.3-.56zm-11.31-8.48c0 .47.58 1.11 1.3 1.41.79.34.79 0 0-.85-.72-.77-1.3-1.02-1.3-.55zm-5.66-4.24c0 .47.58 1.1 1.3 1.41.79.34.79 0 0-.86-.72-.77-1.3-1.02-1.3-.55zm-16.67-12.35c.29.68 1.08 1.48 1.77 1.77.68.29.44-.27-.53-1.24s-1.53-1.21-1.24-.53zm-5.25-3.92c0 .47.58 1.11 1.3 1.41.79.34.79 0 0-.85-.72-.77-1.3-1.03-1.3-.56zm-5.66-4.24c0 .47.59 1.1 1.3 1.41.79.34.79 0 0-.86-.71-.77-1.3-1.02-1.3-.55zm-5.66-4.25c0 .47.59 1.11 1.3 1.41.79.34.79 0 0-.85-.71-.77-1.3-1.02-1.3-.55zm-5.66-4.24c0 .47.59 1.11 1.3 1.41.79.34.79 0 0-.85-.71-.77-1.3-1.03-1.3-.56zm-5.66-4.24c0 .47.59 1.11 1.3 1.41.79.34.79 0 0-.85-.71-.78-1.3-1.03-1.3-.56zm-33.23-24.75c0 .47.59 1.11 1.3 1.41.79.34.79 0 0-.85-.71-.77-1.3-1.03-1.3-.56zM1469.59 745.49c-.606.605.29.67 1.984.137 3.9-1.227 4.66-2.014 1.525-1.58-1.33.185-2.91.834-3.51 1.442zm1035.865 1031.705c-.39.39-.566.848-.395 1.02.172.17.827.19 1.456.04.63-.148.807-.606.395-1.018-.41-.412-1.06-.43-1.45-.042zm-8.013-7.16c0 .47.584 1.106 1.3 1.412.79.338.79 0 0-.855-.716-.776-1.3-1.026-1.3-.556zm-5.657-4.242c0 .47.584 1.105 1.3 1.41.79.34.79 0 0-.853-.716-.776-1.3-1.027-1.3-.557zm-10.607-7.778c0 .47.585 1.105 1.3 1.41.79.34.79 0 0-.853-.715-.776-1.3-1.027-1.3-.557zm-5.657-4.243c0 .47.59 1.105 1.3 1.41.79.34.79 0 0-.853-.71-.78-1.3-1.03-1.3-.56zm-5.65-4.243c0 .47.59 1.1 1.3 1.41.79.34.79 0 0-.86-.71-.78-1.3-1.03-1.3-.56zm-5.65-4.25c0 .47.59 1.1 1.3 1.41.79.34.79 0 0-.86-.71-.78-1.3-1.03-1.3-.56zm-5.65-4.25c0 .47.59 1.1 1.3 1.41.79.34.79 0 0-.86-.71-.78-1.3-1.03-1.3-.56zm-995.84-991.84c-1.45.98-1.65 1.54-.71 1.96 1.51.67 1.53.66 2.45-1.4.93-2.08.66-2.17-1.73-.56zm984.51 983.37c0 .47.59 1.1 1.3 1.41.79.33.79 0 0-.86-.71-.78-1.3-1.03-1.3-.56zm-10.6-7.78c0 .47.59 1.1 1.3 1.41.79.34.79 0 0-.86-.71-.78-1.3-1.03-1.3-.56zm-5.65-4.25c0 .47.59 1.1 1.3 1.41.79.34.79 0 0-.86-.71-.78-1.3-1.03-1.3-.56zm-5.65-4.25c0 .47.59 1.1 1.3 1.41.79.33.79 0 0-.86-.71-.78-1.3-1.03-1.3-.56zm-5.65-4.24c0 .47.59 1.1 1.3 1.41.79.34.79 0 0-.86-.71-.78-1.3-1.03-1.3-.56zm-961.14-960.02c-.17-.74-.65-.44-1.3.81-.59 1.15-1.33 1.67-1.75 1.25-.4-.4-1.02-.07-1.38.74-.36.81-1.04 1.08-1.51.61-.51-.51-1.15-.2-1.59.78-.4.91-1.38 1.48-2.19 1.29-1.1-.26-5.44 3.52-17.61 15.35l-16.14 15.69-1.47 10.23c-.81 5.63-1.39 11.82-1.29 13.76.11 1.94-.01 2.83-.26 1.99-.34-1.16-3.81 19.6-4.19 25.13-.03.5 2.88-2 6.48-5.55 4.89-4.83 8-7.13 12.31-9.13 3.17-1.47 5.8-2.7 5.83-2.74.04-.04-.47-3.61-1.14-7.93-.81-5.31-.68-9.76.4-13.67.87-3.19 1.53-7.41 1.46-9.37-.08-1.96.18-3.88.56-4.26.38-.39.75.53.83 2.03.09 1.86 1.99-2.07 6.03-12.49l5.89-15.22 6.85-3.93c6.31-3.62 9.71-6.02 6.73-4.75-.69.29-1.37.01-1.52-.64zm-25.88 30.17c-1.62.78-2.94 1.81-2.94 2.29s.52.36 1.14-.27 1.71-1 2.41-.84c.82.19.67.63-.44 1.24-.94.51-3.48 1.98-5.65 3.25-2.88 1.7-3.83 1.88-3.56.67.27-1.2-.16-1.11-1.63.33-1.1 1.08-1.53 2.08-.97 2.21.57.13.72.93.34 1.78-1.03 2.31-1.7 2.69-1.28.72.69-3.2-1.58-.03-3.35 4.69-1.14 3.04-1.79 3.93-2.19 3.02-.87-1.94 2.7-9.12 6.32-12.74 3.47-3.47 11.97-8.47 13.7-8.07.59.14-.25.89-1.87 1.67zm-6.15 3.99c-.34.79 0 .79.86 0 .78-.72 1.03-1.3.56-1.3s-1.1.58-1.41 1.3zm987.5 921.62c0 .47.59 1.1 1.3 1.41.79.34.79 0 0-.86-.71-.78-1.3-1.03-1.3-.56zm-5.36-3.87c.29.68 1.09 1.48 1.77 1.77.68.29.45-.26-.53-1.24-.97-.97-1.53-1.21-1.24-.52zm-5.95-4.62c0 .47.58 1.11 1.3 1.41.78.34.79 0 0-.85-.72-.77-1.3-1.03-1.3-.56zm-4.95-3.53c0 .47.58 1.1 1.3 1.41.79.34.79 0 0-.86-.72-.78-1.3-1.03-1.3-.56zm-6.37-4.95c0 .47.58 1.1 1.3 1.41.79.34.79 0 0-.86-.72-.78-1.3-1.03-1.3-.56zm-4.66-3.18c.28.67 1.22 1.64 2.09 2.14.86.51.63-.04-.52-1.22s-1.86-1.6-1.58-.93zm-5.95-4.61c0 .47.58 1.1 1.3 1.41.79.34.79 0 0-.86-.72-.77-1.3-1.02-1.3-.55zm-5.36-3.87c.29.68 1.08 1.48 1.77 1.77.68.29.44-.27-.53-1.24s-1.53-1.21-1.24-.53zm-5.96-4.62c0 .47.58 1.11 1.3 1.41.79.34.79 0 0-.85-.72-.78-1.3-1.03-1.3-.56zm-4.65-3.15c.29.68 1.08 1.48 1.77 1.77.68.29.44-.27-.53-1.24-.97-.98-1.53-1.21-1.24-.53zm-5.66-4.24c.29.68 1.09 1.48 1.77 1.77.69.29.45-.27-.52-1.24s-1.53-1.21-1.24-.53zm-5.66-4.25c.29.68 1.09 1.47 1.77 1.76.68.29.45-.27-.53-1.24-.97-.97-1.53-1.21-1.24-.53zm-5.66-4.25c.29.68 1.09 1.48 1.77 1.77.69.29.45-.27-.52-1.24s-1.53-1.21-1.24-.53zm-5.67-4.26c.29.67 1.23 1.64 2.1 2.15.87.51.63-.04-.52-1.22s-1.86-1.6-1.57-.93zm-5.64-4.22c.29.68 1.09 1.48 1.77 1.77.68.29.45-.27-.53-1.24-.97-.98-1.53-1.21-1.24-.53zm-5.67-4.26c.28.67 1.23 1.64 2.09 2.15.87.51.64-.04-.51-1.22s-1.86-1.6-1.57-.92zm-346.45-344.26c-.34.79 0 .79.85 0 .78-.72 1.03-1.3.56-1.3s-1.1.58-1.41 1.3zm340.78 340.04c.29.67 1.23 1.64 2.1 2.14.87.51.63-.04-.52-1.22-1.15-1.19-1.86-1.6-1.58-.93zm-5.65-4.25c.29.68 1.23 1.64 2.1 2.15.87.51.63-.04-.52-1.22s-1.87-1.6-1.58-.93zm-5.66-4.24c.29.67 1.23 1.64 2.1 2.15.87.51.63-.04-.52-1.22s-1.86-1.6-1.58-.93zm-5.65-4.24c.29.67 1.23 1.64 2.1 2.15.87.5.64-.04-.51-1.23-1.15-1.18-1.86-1.6-1.58-.92zm-327.38-322.3c-.29.68.27.44 1.24-.53.98-.97 1.21-1.53.53-1.24-.68.29-1.48 1.08-1.77 1.77zm298.65 300.61c-8.62-6.49-15.44-11.33-15.16-10.77.67 1.33 35.5 27.48 36.54 27.43.44-.02-.67-1.13-2.45-2.45-1.78-1.33-10.3-7.72-18.92-14.21zm-23.6-17.52c-2.81-1.97-3.23-2.08-1.67-.45 1.14 1.19 3.61 3.17 5.49 4.41 4.5 2.95 1.22-.46-3.81-3.97zm-8.12-5.67c.51.86 1.62 1.97 2.48 2.47.86.51.45-.2-.91-1.56s-2.07-1.77-1.56-.91zm-5.65-4.24c.5.85 1.62 1.97 2.48 2.47.86.5.45-.2-.91-1.56s-2.06-1.78-1.56-.92zm-6-4.64c.29.67 1.23 1.64 2.1 2.14.87.51.64-.04-.52-1.22-1.15-1.18-1.86-1.59-1.57-.92zm-5.31-3.86c.5.86 1.62 1.98 2.47 2.48.86.5.45-.2-.91-1.56s-2.06-1.77-1.56-.92zm-6-4.63c.28.68 1.23 1.64 2.09 2.15s.64-.04-.52-1.22c-1.15-1.18-1.86-1.6-1.58-.93zm-5.66-4.24c.29.67 1.23 1.64 2.1 2.15.87.51.63-.04-.52-1.22s-1.86-1.6-1.58-.93zm-5.65-4.22c.29.68 1.09 1.48 1.77 1.77.68.29.45-.27-.53-1.24-.97-.97-1.53-1.21-1.24-.53zm-5.66-4.26c.28.67 1.23 1.64 2.09 2.15.87.51.63-.04-.52-1.22s-1.86-1.6-1.58-.93zm-5.66-4.24c.28.67 1.22 1.64 2.09 2.15.87.5.63-.05-.52-1.23s-1.86-1.6-1.58-.92zm-232.04-228.04c-.97 1.62-4.37 3.21-12.93 6.05l-11.61 3.85-16.22-3.73c-8.92-2.05-17.11-3.88-18.19-4.08-1.84-.33-2.17.01-4.61 4.7-1.45 2.78-3.43 5.8-4.4 6.71-.97.91-.1-1.3 1.93-4.91 2.03-3.61 3.4-6.84 3.06-7.19-.8-.8-.41-1.33-4.52 6.08-3.72 6.69-7.92 11.39-11.34 12.7-1.37.52-.73-.27 1.92-2.39 2.83-2.27 4.99-5.05 7.52-9.74 1.96-3.62 3.45-6.93 3.33-7.36-.13-.44-6.37-2.93-13.86-5.54-7.5-2.62-20.33-7.79-28.52-11.49-11.99-5.43-15-6.43-15.52-5.16-5.45 13.42-13.14 23.93-19.38 26.49-2.13.87-4.47 2.18-5.19 2.9-.74.73-2.7.87-4.48.3-4.99-1.59-5.09-2.57-.23-2.25 9.92.64 19.91-9.09 26.72-26.03 1.06-2.63 1.7-5.02 1.43-5.29-1.23-1.23-2.38-.25-3.74 3.16-5.87 14.75-19.21 29.46-24.56 27.08-1.19-.54-.93-.78 1.76-1.64 5.23-1.67 11.89-7.68 15.23-13.75 6.1-11.11 7.83-15.79 6.09-16.55-7.44-3.29-49.09-29.94-65.46-41.91-5.51-4.03-6.88-4.66-7.39-3.41-7.71 18.67-15.05 31-20.81 34.94-4.8 3.28-4.46 1.46.58-3.04 5.31-4.74 10.72-13.15 15.43-23.96 4.16-9.55 4.14-10.2-.31-13.02-3.41-2.16-13.27-9.79-34.52-26.72-6-4.78-10.35-7.67-11.25-7.46-1.15.25-1.29.13-.6-.57 1.41-1.45-2.45-4.62-3.98-3.28-1.21 1.05-1.24 1.02-.44-.36.49-.83.39-1.77-.22-2.09-1.4-.73-18.82-16.95-41.51-38.65-9.74-9.32-22.06-21-27.37-25.96-5.31-4.96-12.64-12.59-16.28-16.96-3.64-4.37-15.19-17.51-25.66-29.2l-31.07-34.69c-6.62-7.38-13.62-15.66-15.56-18.39-1.94-2.73-5.3-7.33-7.46-10.22-2.17-2.89-5.68-7.65-7.81-10.58-2.13-2.93-6.53-8.39-9.78-12.14s-6.16-7.63-6.48-8.62c-.31-.99-1.19-2.08-1.94-2.42-.75-.34-4.48-5.09-8.29-10.55-12.17-17.49-10.58-16.13-16.54-14.17-10.97 3.62-19.41 8.24-25.22 13.83-6.98 6.72-8.45 6.11-1.65-.68 5.51-5.51 14.52-10.51 25.39-14.08 6.14-2.02 6.25-2.11 5.28-3.98-.55-1.06-1.18-1.89-1.42-1.86-.23.03-4.34 1.65-9.13 3.59-10.8 4.37-19.35 9.63-23.82 14.66-3.26 3.66-3.34 4-1.75 7.11 1.05 2.04 1.15 3 .27 2.56-.77-.39-.38.08.87 1.04 3 2.31 5.11 5.92 3.67 6.26-.73.17-.14.91 1.66 2.06 2.15 1.38 2.46 1.88 1.35 2.14-1.05.25-.92.65.48 1.47 1.06.62 1.6 1.45 1.2 1.85-.4.4.22 1.36 1.38 2.15 1.16.79 1.79 1.74 1.41 2.12-.38.38.11 1.16 1.09 1.74.98.57 1.67 1.55 1.52 2.17-.14.62.72 1.72 1.92 2.44 1.57.94 1.8 1.41.84 1.63-.96.23-.71.77.87 1.84 1.23.83 1.93 1.82 1.55 2.2-.38.38.31 1.28 1.53 2.01 1.38.83 1.91 1.62 1.41 2.13-.48.48.05 1.39 1.3 2.23 1.16.78 1.8 1.74 1.42 2.11-.38.38.27 1.26 1.45 1.97 1.22.73 1.92 1.72 1.63 2.31-.29.57 1.06 2.71 2.99 4.76 1.93 2.06 3.07 3.84 2.53 3.97-.54.13.28 1.04 1.82 2.03 2.04 1.31 2.44 1.88 1.46 2.11-.97.23-.57.85 1.46 2.25 1.54 1.06 3.77 3.51 4.96 5.43 1.67 2.72 1.73 3.14.24 1.88-1.08-.92-.37.77 1.64 3.9 1.95 3.04 3.86 5.53 4.25 5.53.39 0 .18-.53-.46-1.18-.65-.65-.86-1.5-.47-1.88.39-.39 1.03-.39 1.42 0 .39.39 1.3.11 2.02-.62 1.4-1.4 11.65-5.91 11.65-5.12 0 .25-2.68 1.89-5.95 3.63-7.39 3.94-7.49 4.04-5.43 5.55 1.3.95 3.31.42 8.76-2.3 3.89-1.94 7.68-3.53 8.41-3.54 2.26-.02.02 1.49-6.8 4.58-3.56 1.61-7.07 3.53-7.8 4.26-.96.95-1.91.81-3.37-.52-1.36-1.22-1.65-1.29-.88-.19 2.79 3.96 41.09 48.93 45.53 53.46 2.7 2.75 4.09 4.61 3.09 4.13-1.73-.83 7.23 12.94 10.64 16.35.81.81 1.9 2.86 2.43 4.56.81 2.61 5.3 7.42 28.87 30.91 25.83 25.74 28.81 28.46 39.91 36.46 6.6 4.76 19.19 14.18 27.98 20.94 43.49 33.43 64.22 49.25 66.17 50.51 1.19.76 8.97 5.24 17.29 9.96 10.03 5.68 15.05 8.06 14.88 7.05-.16-.97.32-.63 1.31.91.86 1.35 1.66 2.04 1.78 1.54.12-.5 1.39.22 2.82 1.58 1.43 1.37 3.1 2.24 3.71 1.93.6-.3 1.2-.16 1.31.32.33 1.42 13.93 8.84 14.18 7.74.13-.55.52-.37.87.41 2 4.48 44.77 22.21 63.6 26.36 3.48.77 6.73 1.66 7.22 1.97 4.06 2.59 18.26 6.51 23.12 6.39 4.03-.1 4.85.08 2.67.61-2.6.63-2.96.93-2.11 1.78.57.56 2.19.27 3.61-.64 2.87-1.84 4.28-1.3 2.87 1.11-.68 1.17-.5 1.19.76.05 1.03-.93 1.27-1.92.62-2.57-.59-.59-.43-1.69.36-2.47.78-.78 1.82-1.02 2.31-.52.49.49 1.83.59 2.96.22 5.3-1.73 21.08-3.05 22.26-1.87 1.82 1.81 5.49 1.41 5.03-.55-.41-1.75.03-2.07 5.12-3.72 2.16-.7 7.52-2.94 11.9-4.98 6.69-3.11 9-4.74 14.37-10.12 6.09-6.11 9.14-10.04 8.38-10.8-.19-.19-.94.65-1.66 1.85zm-86.89 28.34c-2.82-.38-19.14-4.99-21.5-6.07-1.69-.78 8.52 1 14.43 2.52 3.09.79 6.65 2.01 7.9 2.7l2.27 1.26-3.1-.42zm-113.64-92.94c-4.41 11.41-9.49 19.95-16.02 26.91-7.05 7.52-7.8 7.8-11.41 4.13l-2.1-2.14 3.24 1.28c2.46.97 3.93.8 6.12-.7 4.3-2.94 12.25-15.17 16.81-25.88 4.04-9.48 6.76-12.4 3.36-3.6zm-63.75-41.86c-1.2.71-1.84.71-1.49 0 .34-.68 1.29-1.24 2.11-1.24 1.05 0 .86.36-.62 1.23zm-17.48 7.19c-3.68 1.65-14.54 3.88-19.5 3.99-2.4.05-4.59.32-4.86.59-.27.27-2.09-.37-4.04-1.43-4.24-2.29-4.63-2.63-3.85-3.41.33-.33 2.31.27 4.41 1.33 3.06 1.54 5.77 1.65 13.63.54 5.39-.76 11.21-1.83 12.93-2.37 3.84-1.23 4.65-.76 1.3.74zm-4.88-4.12c-5.04 2.24-12.85 3.92-18.83 4.05-7.39.17-7.6-1.03-.3-1.71 5.32-.5 8.85-1.09 20.41-3.44 1.53-.31 1.14.03-1.27 1.1zm44.51 59.52c-.71-.31-1.3-.94-1.3-1.41s.59-.22 1.3.55c.79.85.79 1.19 0 .85zm-3.47-2.09c-.68-.29-1.48-1.09-1.77-1.77-.29-.68.27-.45 1.24.53.98.97 1.21 1.53.53 1.24zm-126.89-124.3c-1.06.48-4.93 1.52-8.58 2.31-6.08 1.3-6.88 1.2-9.29-1.16-2.96-2.9-3.09-4.7-.31-4.44 1.02.09 4.45-.4 7.62-1.09 3.17-.69 5.76-.95 5.76-.57 0 .84-7.48 2.78-11.61 3.01-2.52.14-2.83.35-1.89 1.29 2.17 2.17 4.27 2.5 9.49 1.49 2.9-.56 5.53-1.28 5.85-1.6.32-.32 1.56-.48 2.75-.36 1.92.2 1.94.32.22 1.11zM1713.89 1268c-.68-.29-1.475-1.084-1.765-1.767-.29-.682.266-.445 1.24.528.97.98 1.21 1.53.525 1.24zm-24.04-18.384c-.68-.29-1.477-1.085-1.767-1.767-.29-.68.27-.45 1.24.53.974.97 1.21 1.53.53 1.24zm-123.036-115.965c-.682-.29-1.48-1.08-1.77-1.76-.29-.68.27-.44 1.24.53.975.98 1.21 1.53.53 1.24zm623.724 407.27c0 .47.582 1.11 1.3 1.41.79.34.79 0 0-.85-.718-.77-1.3-1.03-1.3-.56zm-5.36-3.86c.29.68 1.083 1.48 1.77 1.77.68.29.44-.26-.53-1.24-.97-.97-1.53-1.21-1.24-.52zm-5.957-4.62c0 .47.59 1.11 1.3 1.41.79.34.79 0 0-.85-.71-.77-1.3-1.02-1.3-.55zm-5.36-3.86c.29.69 1.09 1.48 1.77 1.77.68.29.45-.26-.53-1.24-.97-.97-1.53-1.21-1.24-.52zm-5.24-3.91c0 .47.59 1.11 1.3 1.41.79.34.79 0 0-.85-.72-.77-1.3-1.02-1.3-.55zm-5.36-3.86c.29.69 1.09 1.48 1.77 1.77.69.29.45-.27-.52-1.24s-1.53-1.21-1.24-.53zm-5.66-4.24c.29.69 1.09 1.48 1.77 1.77.68.29.45-.27-.53-1.24-.97-.97-1.53-1.21-1.24-.53zm-5.95-4.62c0 .47.58 1.11 1.3 1.41.79.34.79 0 0-.85-.72-.77-1.3-1.02-1.3-.55zm-5.66-4.24c0 .47.59 1.1 1.3 1.41.79.34.79 0 0-.86-.71-.77-1.3-1.02-1.3-.55zm-5.66-4.25c0 .47.59 1.11 1.3 1.42.79.34.79 0 0-.85-.71-.78-1.3-1.03-1.3-.56zm-5.65-4.24c0 .47.59 1.11 1.3 1.41.79.34.79 0 0-.85-.71-.77-1.3-1.02-1.3-.55zm-5.36-3.86c.29.68 1.09 1.48 1.77 1.77.68.29.45-.27-.53-1.24s-1.53-1.21-1.24-.53zm-5.95-4.62c0 .47.59 1.11 1.3 1.41.79.34.79 0 0-.85-.71-.77-1.3-1.02-1.3-.55zm-5.36-3.86c.29.69 1.09 1.48 1.77 1.77.68.29.45-.27-.53-1.24-.97-.97-1.53-1.21-1.24-.53zm-5.65-4.24c.29.68 1.09 1.48 1.77 1.77.68.29.45-.27-.53-1.24-.97-.97-1.53-1.21-1.24-.53zm-4.95-3.53c.29.68 1.09 1.48 1.77 1.77.68.29.45-.27-.53-1.24s-1.53-1.21-1.24-.53zm-5.95-4.62c0 .47.59 1.11 1.3 1.41.79.34.79 0 0-.85-.71-.78-1.3-1.03-1.3-.56zm-5.36-3.86c.29.68 1.09 1.48 1.77 1.77.68.29.45-.27-.53-1.24-.97-.98-1.53-1.21-1.24-.53zm-6.37-4.97c.29.68 1.23 1.64 2.1 2.15.87.51.64-.04-.52-1.22-1.15-1.18-1.86-1.6-1.57-.93zm-7.03-3.45c-.34.79 0 .79.85 0 .78-.71 1.03-1.3.56-1.3s-1.1.59-1.41 1.3zm-3.91-3.89c0 1.32.38 1.7 1.7 1.7s1.32-.37 0-1.69-1.69-1.32-1.69 0zm-5.61-5.04c0 .47.58 1.11 1.3 1.41.79.34.79 0 0-.85-.72-.78-1.3-1.03-1.3-.56zm-5.66-4.24c0 .47.59 1.11 1.3 1.41.79.34.79 0 0-.85-.71-.78-1.3-1.03-1.3-.56zm-5.65-4.24c0 .47.59 1.11 1.3 1.41.79.34.79 0 0-.85-.71-.77-1.3-1.02-1.3-.55zm-5.65-4.24c0 .47.59 1.11 1.3 1.41.79.34.79.01 0-.85-.71-.77-1.3-1.02-1.3-.55zm-5.65-4.24c0 .47.59 1.11 1.3 1.41.79.34.79 0 0-.85-.71-.77-1.3-1.02-1.3-.55zm-5.65-4.24c0 .47.59 1.1 1.3 1.41.79.34.79 0 0-.85-.71-.77-1.3-1.02-1.3-.55zm-5.65-4.24c0 .47.59 1.11 1.3 1.41.79.34.79 0 0-.85-.71-.77-1.3-1.03-1.3-.56zm-5.65-4.24c0 .47.58 1.11 1.29 1.41.79.34.79 0 0-.85-.71-.77-1.3-1.02-1.3-.55zm-5.66-4.24c0 .47.58 1.11 1.3 1.41.79.34.79 0 0-.85-.72-.77-1.3-1.02-1.3-.55zm-5.66-4.24c0 .47.59 1.11 1.3 1.41.79.34.79 0 0-.85-.71-.78-1.3-1.03-1.3-.56zm-5.66-4.24c0 .47.59 1.1 1.3 1.41.79.34.79 0 0-.85-.71-.78-1.3-1.03-1.3-.56zm-5.66-4.24c0 .47.59 1.1 1.3 1.41.79.34.79 0 0-.85-.71-.78-1.3-1.03-1.3-.56zm-11.31-8.49c0 .47.59 1.11 1.3 1.41.79.34.79 0 0-.85-.71-.78-1.3-1.03-1.3-.56zm-11.31-8.48c0 .47.59 1.11 1.3 1.41.79.34.79 0 0-.85-.71-.78-1.3-1.03-1.3-.56zm-47.37-43.24c0 .43.79.44 1.75.01 1.4-.63 1.4-.79 0-.79-.96 0-1.75.35-1.75.79zm36.07 34.75c0 .47.58 1.11 1.3 1.41.79.34.79 0 0-.85-.72-.77-1.3-1.02-1.3-.55zm-4.95-3.53c0 .47.58 1.11 1.3 1.41.79.34.79 0 0-.85-.72-.78-1.3-1.03-1.3-.56zm-5.66-4.24c0 .47.59 1.11 1.3 1.41.79.34.79 0 0-.85-.71-.77-1.3-1.02-1.3-.55zm-5.66-4.24c0 .47.59 1.11 1.3 1.42.79.34.79 0 0-.85-.71-.78-1.3-1.03-1.3-.56zm-5.66-4.24c0 .47.59 1.11 1.3 1.41.79.34.79 0 0-.85-.71-.77-1.3-1.03-1.3-.56zm-18.13-16.75c-2.31 1.03-2.31 1.11-.02 3.41 3.39 3.39 4.87.67 1.94-3.55-.21-.3-1.07-.23-1.92.15zm6.82 8.27c0 .47.59 1.11 1.3 1.41.79.34.79 0 0-.85-.71-.77-1.3-1.02-1.3-.55zm-23.06-5.12c-8.8 1.78-17.94 2.68-19.36 1.91-.76-.41-.61.1.33 1.13 1.42 1.56 3.64 1.55 13.1-.01 6.26-1.04 11.58-2.09 11.82-2.33 1.28-1.27-1.43-1.6-5.88-.7zm-471.35-459.38c-9.15 3.41-16.14 8.32-20.06 14.08-1.66 2.44-3.18 5.01-3.38 5.72-.9 3.21-.56 7.48.71 8.9.99 1.11.62 1.1-1.28-.03-2.03-1.2-2.32-1.2-1.22.03.8.89 2.83 4.24 4.51 7.45 3.66 6.97 4.83 7.73 1.84 1.21-2.76-6.03-2.85-8.26-.12-2.95 6.33 12.32 13.93 29.91 12.72 29.42-.78-.31-.29.16 1.07 1.05 1.63 1.07 2.07 1.72 1.27 1.91-.76.18-.5.7.72 1.41 1.44.84 1.54 1.22.43 1.48-1.02.24-1.05.46-.11.69 2.04.48 4.29 4.66 2.71 5.03-.87.21-.74.56.4 1.07 2.3 1.02 4.57 4.96 3.07 5.31-.71.17-.65.42.15.6.74.18 2.12 1.53 3.07 3 1.26 1.96 1.29 2.58.13 2.31-1-.23-.44.59 1.5 2.2 2.99 2.5 3.15 2.5 5.27-.04 3.68-4.41 15.31-11.4 24.51-14.74 4.81-1.75 8.71-3.63 8.66-4.18-.04-.55-3.78-7.08-8.3-14.52-9.2-15.14-10.02-16.62-21.41-38.75-4.47-8.68-8.6-15.76-9.18-15.72-.58.04-4.63 1.57-9 3.4-6.69 2.81-8.82 4.21-13.45 8.89-3.9 3.93-5.69 6.41-6.12 8.5-.34 1.62-1.12 3.2-1.74 3.51-.62.3-.59-1.14.06-3.21 1.88-6 12.08-15.51 20.85-19.46 9.45-4.26 10.18-4.68 9.4-5.46-.38-.37-3.81.48-7.64 1.91zm398.4 508.71c-4.6 3.9-5.37 4.88-4.5 5.75.83.82 2.09.02 5.89-3.78 4.07-4.07 5.9-6.79 4.5-6.69-.18.01-2.83 2.14-5.88 4.72zm-506.09-511.37c-31.93-25.7-58.75-47.32-80.03-64.48-12.27-9.9-38.23-30.71-57.69-46.25s-39.1-31.38-43.64-35.21c-4.54-3.83-19.78-16.27-33.87-27.64-14.09-11.38-37.06-29.92-51.05-41.21-82.22-66.39-153.52-123.8-172.4-138.83-11.9-9.48-23.36-18.71-25.45-20.5-6.17-5.28-30.17-24.7-84.83-68.61-28.25-22.7-52.92-42.57-54.82-44.17-8.24-6.9-88.51-71.65-134.64-108.6-15.76-12.63-33.72-27.12-39.91-32.22-6.18-5.09-26.06-21.17-44.17-35.73-18.1-14.56-37.83-30.47-43.84-35.35-13.2-10.73-52.6-42.6-62.93-50.91-4.09-3.29-20.65-16.65-36.79-29.68-16.14-13.02-39.03-31.49-50.88-41.04-20.24-16.31-46.63-37.7-56.24-45.59-2.35-1.93-5.56-4.46-7.13-5.63l-2.87-2.13-26.14 37.78c-14.4 20.78-31.87 46.07-38.85 56.21-49.56 71.96-59.79 86.94-60.69 88.87-.56 1.2-5.89 9.08-11.85 17.51-18.56 26.26-43.9 62.64-45.87 65.86-1.03 1.69-4.25 6.43-7.14 10.53-14.33 20.31-49.96 72.43-51.96 76.03-1.57 2.8-1.92 4.57-1.13 5.62.63.85 59.39 45.44 130.58 99.09 71.19 53.66 146.3 110.28 166.91 125.84 20.61 15.56 41.3 31.14 45.98 34.63 9.1 6.81 82.49 62.28 130.07 98.33 87.62 66.38 104.35 78.97 105.22 79.17.52.13 3.62 2.55 6.9 5.38 3.27 2.84 13.76 11.05 23.31 18.25 9.55 7.21 27.71 20.9 40.34 30.44 12.64 9.53 25.5 19.26 28.59 21.62 3.08 2.36 11.04 8.4 17.68 13.43 6.64 5.03 14.41 10.93 17.27 13.13 2.86 2.2 13.14 9.94 22.86 17.21 9.71 7.27 19.48 14.69 21.7 16.48 2.22 1.79 4.32 3.33 4.65 3.41.34.09 5.24 3.77 10.9 8.19s12.5 9.65 15.2 11.62c2.7 1.96 8.74 6.42 13.43 9.9 4.68 3.49 13.16 9.65 18.83 13.7 5.67 4.05 12.85 9.6 15.95 12.33 3.1 2.74 8.33 6.73 11.62 8.88 13.79 9 15.18 10.12 14.88 12.01-.16 1.01.59 2.4 1.75 3.23 1.11.8 35.58 26.76 76.6 57.7 41.02 30.93 76.85 57.85 79.63 59.83 2.78 1.98 5.98 4.51 7.11 5.62 1.13 1.12 2.87 2.17 3.87 2.34 1.39.23 1.18-.15-.87-1.6-1.48-1.05-2.42-2.18-2.09-2.51.34-.34 2.25.6 4.25 2.08s4.16 2.57 4.8 2.42c.63-.15 1.43.34 1.76 1.09.37.85 1.07.91 1.82.16 1.22-1.21 35.5-30.43 83.25-70.95 15.03-12.76 25.19-20.87 24.76-19.78-.41 1.06.5.29 2.15-1.79 2.32-2.94 4.46-4.32 11.19-7.19 9.67-4.13 13.92-6.75 13.21-8.15-.56-1.12 15.01-14.33 24.59-20.86 5.26-3.59 6.04-4.45 9.01-10.09 1.78-3.39 4.73-7.54 6.55-9.22 4.34-4.02 116.19-96.42 125.66-103.8 2.67-2.09 3.61-1.08-15.13-16.17zm-176.1 170.19c-.39.39-1.22.59-1.85.44-.63-.14-.82-.58-.44-.97.39-.39 1.22-.59 1.85-.44.63.15.83.59.44.98zM1036 1146.12c-.5.12-2.34-1.105-4.076-2.72-2.39-2.22-2.67-2.746-1.12-2.15 2.58.994 6.418 4.587 5.2 4.874zm466.88-91.93c.29.685 1.085 1.48 1.77 1.77.68.29.443-.27-.53-1.24-.97-.973-1.53-1.21-1.24-.53zm-146.34-138.52c-.34.79 0 .79.856 0 .776-.716 1.026-1.3.556-1.3s-1.11.584-1.42 1.3zm476.13 498.63c-8.868 7.884-10.69 10.196-7.448 9.43 1.78-.42 17.61-16.37 16.93-17.055-.24-.24-4.51 3.19-9.49 7.62zM773.1 427.62c.29.683 1.085 1.48 1.768 1.77.682.29.445-.27-.528-1.24-.972-.974-1.53-1.21-1.24-.53zm-7.07-5.656c.29.682 1.084 1.478 1.766 1.768.683.29.445-.26-.527-1.24s-1.53-1.21-1.24-.52zm-7.08-5.675c.284.67 1.227 1.64 2.094 2.14.867.51.634-.04-.518-1.23-1.153-1.18-1.862-1.6-1.577-.93zm-6.654-5.32c0 .47.585 1.1 1.3 1.41.79.33.79 0 0-.86-.716-.78-1.3-1.03-1.3-.56zm-8.197-6.71c.28.67 1.22 1.64 2.09 2.15.87.5.64-.05-.51-1.23-1.16-1.18-1.87-1.6-1.58-.93zm-16.71-13.91c-1.02-.07 6.54 6.73 9.24 8.32 1.56.92.32-.47-3.01-3.36-3.13-2.71-5.93-4.94-6.23-4.97zm-27.53-22.8c-30.72-25.01-46.15-37.01-42.96-33.41 1.46 1.64 17.73 14.96 36.16 29.59 18.42 14.63 32.58 25.61 31.45 24.4-1.13-1.21-12.22-10.48-24.66-20.6zm-76.37-62.23c-8.15-6.63-20.74-16.95-27.98-22.94-7.25-5.98-13.43-10.88-13.76-10.88-2.43-.02 2.48 4.45 23.84 21.7 13.43 10.85 29.62 23.75 35.98 28.67 11.43 8.85 11.48 8.87 4.14 2.22-4.08-3.7-14.09-12.15-22.23-18.78zM554.47 249c-14.14-11.276-27.43-22.12-54.03-44.074-23.52-19.41-68.07-55.846-92.97-76.03-12.25-9.928-33.09-26.95-46.32-37.835-13.23-10.88-25.64-21.06-27.587-22.62-7.66-6.15-41.67-33.82-53.413-43.46-17.39-14.27-17.48-14.33-19.11-12.7-1.624 1.63-.825 2.56 8.23 9.58 3.47 2.69 21.266 16.97 39.554 31.74 18.29 14.77 38.18 30.84 44.21 35.7 6.03 4.86 14.127 11.4 17.998 14.53 3.87 3.13 11.96 9.67 17.99 14.54 6.02 4.87 19.57 15.83 30.092 24.35 10.53 8.53 27.236 22.05 37.13 30.05 9.893 8 23.252 18.82 29.69 24.06 26.994 21.96 77.655 62.75 80.5 64.82 1.685 1.23 3.18 1.77 3.312 1.2.322-1.37.48-1.23-15.29-13.81zm-69.56-61.076c-6.53-5.14-11.14-8.536-10.26-7.55 1.67 1.866 24.1 20.366 26.42 21.79 3.66 2.25-5.7-5.995-16.167-14.24zm-22.63-18.382c-3.28-2.393-3.6-2.49-1.64-.486 1.35 1.375 4.442 4.01 6.88 5.85 3.85 2.92 4.063 2.982 1.633.486-1.537-1.577-4.63-4.21-6.88-5.85zm-10.26-7.778c.706 1.042 2.138 2.474 3.18 3.18 1.045.707.467-.147-1.283-1.897s-2.604-2.328-1.897-1.285zm-7.42-6.03c.5.85 1.765 2.13 2.814 2.84 1.05.71.64.012-.905-1.55-1.55-1.565-2.41-2.147-1.91-1.294zm-7.78-6.367c.5.853 1.767 2.132 2.816 2.842 1.05.71.64.01-.91-1.55-1.55-1.57-2.406-2.15-1.907-1.3zm-7.063-5.647c.503.858 1.617 1.97 2.475 2.474.86.5.446-.2-.915-1.56-1.36-1.36-2.06-1.775-1.56-.916zm-8.828-7.462c.28.675 1.22 1.64 2.09 2.15.87.51.63-.04-.52-1.22-1.16-1.18-1.86-1.6-1.58-.92zm-6.36-4.93c.29.68 1.08 1.48 1.77 1.77.68.29.44-.268-.53-1.24-.97-.973-1.53-1.21-1.24-.528zm-7.78-6.363c.29.68 1.08 1.477 1.76 1.767.68.29.44-.27-.53-1.24-.97-.974-1.53-1.21-1.24-.53zm-7.07-5.658c.29.69 1.08 1.48 1.77 1.77.68.29.44-.27-.53-1.24s-1.53-1.21-1.24-.53zm-7.78-6.36c.29.685 1.08 1.48 1.77 1.77.68.29.44-.27-.53-1.24-.98-.97-1.53-1.21-1.24-.53zm-7.07-5.654c.29.683 1.08 1.478 1.77 1.768.68.29.44-.26-.53-1.24-.98-.97-1.53-1.21-1.24-.52zm-8.08-6.743c0 .47.58 1.104 1.3 1.41.79.34.79 0 0-.855-.72-.78-1.3-1.03-1.3-.56zm-7.49-6.003c.28.677 1.23 1.64 2.09 2.15.87.51.64-.04-.52-1.22-1.15-1.18-1.86-1.595-1.58-.922zm-7.36-6.02c0 .47.58 1.11 1.3 1.417.79.336.79 0 0-.857-.72-.775-1.3-1.026-1.3-.556zm-7.07-5.65c0 .47.58 1.105 1.3 1.41.79.34.79 0 0-.853-.72-.776-1.3-1.027-1.3-.557zm-7.48-5.984c.29.68 1.08 1.478 1.76 1.768.68.29.44-.27-.53-1.24s-1.53-1.21-1.24-.52zm-7.07-5.657c.29.68 1.08 1.475 1.76 1.765.68.29.45-.27-.52-1.24s-1.53-1.21-1.24-.53zm-8.08-6.74c0 .47.58 1.105 1.3 1.41.79.34.79 0 0-.85-.72-.777-1.3-1.028-1.3-.558zm-7.48-5.984c.29.683 1.08 1.48 1.76 1.77.68.29.45-.27-.53-1.24-.97-.974-1.53-1.21-1.24-.53zm-7.07-5.656c.29.68 1.08 1.48 1.76 1.77.68.29.44-.267-.53-1.24-.98-.97-1.53-1.21-1.24-.527zm-7.37-6.036c0 .47.58 1.106 1.3 1.413.79.337.79 0 0-.856-.72-.775-1.3-1.025-1.3-.555zm-7.48-5.983c.29.684 1.08 1.48 1.76 1.77.68.29.45-.27-.53-1.24-.97-.97-1.53-1.21-1.24-.53zm-7.07-5.656c.29.69 1.08 1.48 1.76 1.77.68.29.44-.26-.53-1.24-.98-.97-1.53-1.21-1.24-.52zM288 28.82c.29.68 1.086 1.48 1.768 1.77.686.29.448-.27-.524-1.24-.97-.975-1.53-1.21-1.24-.53zm-7.07-5.66c.29.69 1.085 1.48 1.767 1.77.68.29.444-.27-.528-1.24s-1.53-1.21-1.24-.522zm-7.78-6.36c.29.69 1.087 1.48 1.77 1.77.68.29.444-.27-.528-1.24s-1.53-1.21-1.24-.52zm-7.78-6.36c.29.68 1.087 1.48 1.77 1.77.682.29.445-.27-.527-1.24-.97-.97-1.53-1.21-1.24-.526zm-9.6-6.85c-.274-.02-47.924 69.49-105.89 154.48C7.046 367.51 3.476 372.77 3.476 373.75c0 .47 9.844 8.34 21.875 17.48 25.45 19.34 138.95 105.5 194.32 147.53 39.08 29.65 83.07 63.05 238.36 180.95 48.64 36.924 97.48 73.995 108.54 82.38 11.06 8.384 22.82 17.306 26.14 19.827 3.31 2.52 33.7 25.59 67.52 51.272 33.83 25.68 68.18 51.78 76.35 58 8.17 6.22 29.34 22.28 47.03 35.7 17.7 13.41 47 35.65 65.12 49.43 18.12 13.77 57.55 43.7 87.63 66.51 30.08 22.81 67.61 51.3 83.4 63.32l28.71 21.85 2.62-1.79c1.44-.98 6.02-4.67 10.19-8.2 13.11-11.09 24.52-20.25 30.12-24.17 6.89-4.82 24.9-21.77 24.05-22.63-.35-.36-3.62 1.95-7.25 5.12-26.48 23.06-49.72 42.67-52.51 44.32-2.83 1.66-3.78 1.66-6.58-.05s-33.55-24.77-150.73-113.02c-21.47-16.17-24.25-18.54-23.83-20.32.42-1.77-2.46-4.14-6.6-5.45-2.22-.7-8.15-4.57-14.52-9.49-5.92-4.58-12.82-9.77-15.33-11.54-2.5-1.77-15.23-11.31-28.28-21.21-13.05-9.89-31.17-23.59-40.27-30.43-9.1-6.85-27.23-20.54-40.29-30.42-13.06-9.89-28.65-21.66-34.65-26.16s-19.04-14.37-28.97-21.94c-9.93-7.56-20.44-15.51-23.35-17.66-17.8-13.15-41.07-31.49-44.36-34.96-2.12-2.24-5-4.45-6.4-4.91-1.4-.47-16.41-11.5-33.34-24.51-39.75-30.54-91.62-70.22-114.57-87.66-16.44-12.48-273.74-206.51-327.74-247.14C40.2 396.84 17.45 379.56 14 376.39c-3.39-3.12-3.716-3.765-2.638-5.2.67-.905.84-2.645.37-3.87-1.01-2.64-1.024-2.62 22.79-36.56 6.13-8.73 11.705-16.75 25.81-37.12C76.47 270.32 80.03 265.22 85 258.3c2.93-4.072 6.44-9.152 7.804-11.29 6.648-10.42 14.07-19.786 16.068-20.28 2.935-.72 19.825-25.645 20.565-30.347.37-2.345 2.872-6.632 7.974-13.658 4.09-5.633 10.44-14.563 14.1-19.846 3.66-5.29 9.68-13.91 13.36-19.17 3.69-5.26 9.45-13.5 12.82-18.3 8.94-12.77 19.22-27.42 26.54-37.81 3.54-5.02 9.42-13.46 13.08-18.75 3.66-5.29 9.67-13.91 13.37-19.16 3.7-5.25 9.73-13.86 13.4-19.13 3.68-5.27 9.09-12.71 12.03-16.52l5.35-6.94-2.56-1.75c-1.41-.96-2.79-1.77-3.06-1.79zm926.946 1055.13c-4.48 1.707-4.207 2.5.923 2.698 3.57.134 6.44 2.023 7.84 5.167.5 1.13-.29 2.535-2.93 5.2-5.23 5.27-11.55 13.985-10.98 15.13.31.63-3.98 5.46-11.98 13.498-15.15 15.198-13.72 15.85 2.17.996 8.7-8.13 11.53-11.24 12.22-13.4.76-2.38 1.25-2.86 3.23-3.13 1.77-.25 4.88-2.86 12.91-10.85 5.81-5.79 10.16-10.53 9.67-10.53-.49 0-3.79 3.01-7.33 6.7-6.56 6.81-10.72 9.04-11.42 6.09-.36-1.53 8.06-10.17 13.47-13.83l3.55-2.4-4.47-4.88-4.47-4.88-4.3 3.48c-2.36 1.91-6.02 4.14-8.14 4.94zm10.11 13.298c-2.715 2.795-2.68 2.793 1.3-.115 2.25-1.64 5.19-4.11 6.534-5.49 2.254-2.3 2.152-2.29-1.3.118-2.06 1.44-5 3.91-6.53 5.49zm-44.27 45.412c-3.356 3.322-1.32 3.033 2.47-.35 1.945-1.74 2.506-2.63 1.52-2.41-.86.196-2.657 1.437-3.99 2.76zm-7.706 7.68c-2.48 2.484-2.53 2.82-.62 4.51 2.892 2.56 3.29 2.55 1.812-.047-.897-1.584-.774-2.9.413-4.4 2.473-3.13 1.5-3.17-1.61-.07zm-19.89 23.173c-9.07 9.367-19.95 23.02-26.19 32.88-1.366 2.15-5.408 7.06-8.98 10.91-9.34 10.035-30.15 38.04-29.68 39.92.48 1.908-2.92 5.387-5.33 5.457-1.46.04-1.71.29-1.26 1.26.31.662.01 1.76-.67 2.44-.68.675-1.19 2.773-1.13 4.66l.104 3.43 1.713-1.717c.945-.94 4.13-5.03 7.08-9.073 2.957-4.046 8.226-11.003 11.71-15.46 3.49-4.46 5.99-8.185 5.57-8.286-.43-.1-1.68 1.01-2.78 2.47-1.1 1.46-2.02 2.16-2.037 1.557-.015-.6 2.04-3.32 4.57-6.03 9.315-9.99 17.37-19.54 26.044-30.87 4.89-6.39 13.797-16.89 19.79-23.34 14.566-15.67 15.22-16.6 13.09-18.73l-1.7-1.7-9.92 10.24zm-53.75 73.09c-.366.37-1.17.55-1.796.4-.65-.15-.485-.554.386-.94 1.696-.755 2.427-.473 1.41.544zm540.54 397.086c-.58.58-.768 1.35-.41 1.7.354.36-1.566 3.32-4.268 6.58l-4.913 5.93-4.34-.44c-4.96-.5-5.77.94-1.39 2.49 2.54.89 3.57.56 7.33-2.35 2.4-1.87 5.63-4.25 7.16-5.3 1.88-1.29 2.98-2.83 3.38-4.75.65-3.16-.91-5.53-2.56-3.88zm-4.12 14.29c0 .44.784.44 1.75.01 1.39-.62 1.39-.79 0-.79-.966 0-1.75.35-1.75.79zm-18.878 6.77c-2.043 1.55-4.673 3.84-5.844 5.09-2.053 2.19-2.05 2.23.21 1.07 1.28-.66 3.62-2.43 5.2-3.93 2.184-2.08 3.972-2.75 7.56-2.82l4.69-.1-4.05-1.07c-3.476-.91-4.58-.66-7.77 1.75zm-6.087-6.2c-3.39.8-4.43 1.69-13.078 11.21-8.03 8.83-9.325 10.64-8.915 12.41.3 1.3.89 1.98 1.58 1.81.61-.15 5.3-4.19 10.43-8.99s11.61-10.59 14.39-12.86l5.06-4.13-2.894-.16c-1.59-.09-4.55.23-6.573.7zm-15.26 29.03c-.57.97-.21 3.45.84 5.79 2.4 5.37 3.033 5.89 3.2 2.64.07-1.48-.396-3.22-1.04-3.86-.64-.65-1.32-2.26-1.5-3.58-.18-1.33-.373-2.47-.42-2.55-.05-.08-.536.63-1.08 1.56zm-5.52-1.12c-1.768.53-2.31.25-2.83-1.47-1.07-3.54-1.467-1.72-1.59 7.35l-.12 8.65-5.76 4.85c-6.84 5.76-6.014 6.01 4.82 1.49 9.975-4.17 13.15-7.5 10.98-11.52-2.84-5.27-4.894-7.13-6.31-5.71-.716.71-1.62.98-2.01.59-1.102-1.11 1.777-3.44 4.245-3.44 1.223 0 1.893-.33 1.49-.73-.403-.4-1.716-.44-2.917-.07zm4.61 11.66c-.15.63-.61.8-1.02.39-.41-.42-.43-1.07-.04-1.46.39-.39.842-.57 1.02-.4.17.17.19.82.04 1.45zm-512.54-514.37c0 1.16 2.92 2.21 3.776 1.36.52-.53.06-.97-1.51-1.44-1.24-.38-2.26-.34-2.26.08zm513.92 518.96c-2.166 2.72-4.64 4.16-12.96 7.55-7.615 3.1-10.606 3.86-11.55 2.91-.7-.7-1.56-.98-1.92-.62s-1.343.96-2.195 1.34c-1.09.48-1.13 1.1-.13 2.1 1.943 1.95.48 4.88-2.227 4.46-2.66-.42-3.53-1.23-2.46-2.3 2.342-2.35-1.787-.13-10.863 5.82-14.93 9.79-14.812 9.72-16.23 9.42-.72-.15-5.545-2.61-10.725-5.45-7.75-4.26-9.968-5.04-12.496-4.42-1.69.41-3.08 1.16-3.08 1.66 0 1.61 16.07 9.07 17.97 8.34.42-.16 1.39.34 2.17 1.11 2.52 2.52 15.15-.29 22.84-5.08 1.08-.68 2.23-.95 2.56-.62.33.33 1.72-.66 3.1-2.21 2.1-2.37 2.72-2.59 3.91-1.4 1.93 1.93 2.79 1.61 10.27-3.88 3.59-2.64 7.59-5.05 8.9-5.35 4.15-.98 19.47-15.07 17.99-16.55-.12-.12-1.42 1.29-2.9 3.14zM90.777 255.15c-.337.79 0 .79.856 0 .78-.714 1.03-1.3.56-1.3s-1.105.586-1.412 1.3zm-4.686 6.36c-2.26 3.538-1.12 3.538 1.24 0 1-1.49 1.52-2.71 1.15-2.71-.36 0-1.43 1.22-2.39 2.71zm-9.78 14.144c-1.73 2.268-2.86 4.124-2.49 4.124.37 0 2.07-1.856 3.79-4.124 1.72-2.27 2.84-4.125 2.5-4.125-.35 0-2.05 1.85-3.79 4.12zm967.25 970.815c-1.06 1.06-.92 3.46.21 3.46.99 0 2.17-3.13 1.45-3.85-.34-.35-1.09-.18-1.65.38zm-.73 5.69c-.62.14-.99 2.39-.82 4.98.17 2.59-.29 5.3-1.01 6.03-1.49 1.49-.97 3.79 1.78 7.82 1.04 1.52 2.13 5.05 2.44 7.84.4 3.66.99 5.07 2.1 5.07s1.36-.6.89-2.15c-.36-1.18-1.05-2.15-1.54-2.15s-.56-.34-.15-.75c.41-.41-.45-3.72-1.92-7.36-1.48-3.66-2.34-7.59-1.94-8.82 1.27-3.86 2.31-9.8 1.8-10.31-.27-.27-.99-.37-1.61-.23zM55.53 305.4c-34.72 50-40.74 58.84-40.74 59.805 0 1.972.43 1.364 28.56-39.663 6.01-8.768 15.322-22.36 20.702-30.202 5.38-7.843 9.29-14.017 8.69-13.72-.6.298-8.35 11-17.227 23.785zm983.04 950.994c-.05 2.277.19 4.14.53 4.14.59 0 .442-7.25-.16-7.948-.16-.183-.33 1.53-.378 3.807zm434.48 441.924c-3.115 2.853-4.707 4.84-4.24 5.304.43.432 2.49-1.01 4.943-3.468 3.25-3.245 4.67-4.098 6.21-3.73 1.73.41 1.73.263.04-1.097-1.85-1.485-2.24-1.315-6.94 2.99zM1037.24 1264.1c-.15.148-.15 1.26 0 2.476.24 2 .29 2 .53 0 .25-2.102.04-3.057-.54-2.475zm1.475 7.126c.018.306.96 3.13 2.095 6.273l2.06 5.71-.405-4.55c-.223-2.5-1.165-5.32-2.095-6.27-.93-.95-1.674-1.48-1.656-1.17zm5.75 13.777c-1.37-1.318-1.384-.583-.066 3.595 1.34 4.25 1.96 5.2 3.28 4.98 1.24-.207 1.26-.085.08.526-1.14.585-1.03 2.478.42 7.21 1.07 3.528 2.2 5.838 2.51 5.133.31-.707-.18-3.08-1.07-5.28-.9-2.2-1.32-4.31-.93-4.696.38-.38 1.36 1.24 2.19 3.6 1.78 5.11 2.82 5.46 3.34 1.12.21-1.75-.07-3.18-.62-3.18s-.76-.86-.46-1.92.12-2.34-.4-2.86-1.38-2.33-1.92-4.02c-.86-2.73-1.18-3.05-2.81-2.81-1.02.15-2.62-.47-3.57-1.38zm3.604 5.036c-.42.41-.87.23-1.02-.4-.15-.63-.13-1.29.04-1.46.17-.18.63.01 1.02.39.39.39.37 1.04-.04 1.45zm404.05 413.62c-28.58-4.96-37.15-7.05-51.4-12.52-8.14-3.13-18.07-6.88-22.05-8.34-3.99-1.46-8.63-3.19-10.31-3.84-7.08-2.73-.58.96 8.78 4.98 14.57 6.25 35.5 13.46 49.03 16.88 12.41 3.14 13.12 3.4 10.94 3.99-.81.21-.87.39-.16.43.68.03 1.61-.32 2.06-.77.46-.46 1.37-.3 2.02.35.66.64 1.75 1.15 2.41 1.12.71-.03.56-.23-.35-.47-1.07-.29-1.14-.52-.22-.74.75-.18 1.65.15 2.01.73.36.57 1.07.82 1.58.55 1.47-.78 4.1-.85 4.82-.13.37.36.04.83-.73 1.04-.81.21-.87.39-.16.43.68.03 1.49-.21 1.81-.52.32-.32 3.3-.44 6.63-.27 3.33.17 5.81.03 5.51-.3-.3-.33-5.8-1.51-12.22-2.63zm-278.2-188.76c-.42.41-.76 1.71-.76 2.88 0 1.72 1.79 3.85 9.32 11.06 6.89 6.61 9.37 9.47 9.51 10.99.16 1.74.37 1.88 1.35.89 1.77-1.78-.21-5.07-9.4-15.65-4.63-5.32-8.61-9.96-8.84-10.31-.24-.35-.77-.29-1.19.12zm37.58 44.44c-.36.36-.22 1.33.32 2.15 1.47 2.23 4.68 4.23 4.95 3.07.32-1.35-4.45-6.06-5.28-5.23zm-18.72-16.64c-.16.15.02.96.4 1.79.38.87.79 1.03.94.38.25-1.09-.77-2.76-1.35-2.19zm26.8 28.7c1.7 1.99 4.72 5.01 6.72 6.72 1.99 1.7.6.07-3.1-3.62-3.7-3.7-5.33-5.09-3.63-3.1zm-25.5-24.24c-.31-.02 4.4 4.82 10.46 10.75 7.87 7.7 10.05 9.53 7.62 6.4-3.19-4.11-16.86-17.09-18.08-17.16zm-67.02-68.48c0 .47.58 1.1 1.29 1.41.79.33.79 0 0-.86-.72-.78-1.3-1.03-1.3-.56zm139.3 140.71c0 .47.58 1.1 1.29 1.41.79.34.79 0 0-.86-.72-.78-1.3-1.03-1.3-.56zm-7.08-5.66c0 .47.58 1.1 1.3 1.41.79.34.79 0 0-.86-.72-.77-1.3-1.02-1.3-.55zm-93.72-91.48c-.34.79 0 .79.85 0 .77-.72 1.02-1.3.55-1.3s-1.1.58-1.41 1.3zm-29.32-31.56c0 .47.58 1.1 1.3 1.41.79.34.79 0 0-.86-.72-.78-1.3-1.03-1.3-.56zm4.24 5.65c0 .47.58 1.1 1.3 1.41.79.34.79 0 0-.85-.72-.77-1.3-1.03-1.3-.56zm6.66 8.16c.29.68 1.08 1.48 1.76 1.77.68.29.44-.27-.53-1.24-.98-.97-1.53-1.21-1.24-.53zm7.06 8.47c.28.67 1.23 1.64 2.09 2.15.86.51.63-.04-.52-1.23-1.15-1.18-1.86-1.6-1.58-.93zm1088.2-611.2c-1.62 1.61-3.44.31-3.2-2.27.19-2.06 1.52-2.24 3.31-.44.82.82.78 1.81-.12 2.71z"/><path fill="#fff" d="M1040.756 1139.258c-2.584-2.605-40.292-31.627-83.797-64.492C913.45 1041.9 822.21 972.74 754.2 921.074 686.187 869.41 495.035 724.747 329.418 599.6 163.8 474.457 29.195 369.72 30.293 366.858c1.1-2.863 53.136-79.605 115.637-170.536 73.2-106.498 115.58-164.156 119.095-162.03 3 1.817 86.828 69.05 186.283 149.41 147.89 119.5 886.932 715.33 891.28 718.57.68.51-21.513 19.513-49.317 42.233-27.8 22.72-59.3 49.992-69.99 60.604-34.19 33.94-48.6 45.12-58.14 45.12-5.12 0-9.46 2.64-9.65 5.87-.41 7.06-91.71 83.89-102.47 86.24-4.15.9-9.67-.49-12.25-3.09zm385.137 547.452c-12.917-3.502-34.052-10.88-46.968-16.394-30.688-13.102-96.285-56.108-96.285-63.124 0-6.436-38.196-44.937-44.797-45.154-6.338-.208-30.35-21.922-30.35-27.446 0-7.996-28.572-33.464-37.542-33.464-25.68 0-110.81-153.16-105.01-188.933 1.51-9.304-.4-22.942-4.65-33.1l-7.21-17.276 26.45-34.17c53.98-69.73 159.18-186.79 167.9-186.83 2.59-.02 37.18-32.88 76.88-73.03 39.7-40.15 72.75-72.38 73.44-71.61.69.77 13.15 24.25 27.69 52.19 42.28 81.25 102.05 165.51 164.86 232.41 62.35 66.39 178.35 145.61 252.65 172.52l27.2 9.85-30.61 28.95c-22.22 21.02-29.77 31.13-27.55 36.92 2.31 6.01 1.18 7.24-4.63 5.01-8.48-3.26-44.34 24.33-76.13 58.58-10.33 11.13-21.22 21.29-24.21 22.58-2.98 1.29-18.45 14.61-34.37 29.59-15.93 14.99-34.1 29.2-40.39 31.6-6.29 2.39-18.17 13.9-26.41 25.59-10.43 14.79-18.28 21.24-25.88 21.24-12.97 0-38.6 26.34-38.85 39.92-.11 5.89-6.96 13.27-18.35 19.77-15.79 9.02-20.11 9.65-32.94 4.8-11.5-4.34-16.81-4.3-24 .19-10.94 6.83-10.08 6.86-39.88-1.22zm475.787-380.06c-75.06-26.495-153.45-81.987-246.013-174.154-99.743-99.317-170.692-197.582-198.432-274.828-14.56-40.542-15.564-49.824-7.564-69.818 6.84-17.077 14.3-22.522 94.36-68.84 47.82-27.66 91.53-51.44 97.13-52.84 5.6-1.4 60.98-32.7 123.06-69.56l112.88-67.014 22.38 4.773c18.13 3.86 25.43 3.32 38.4-2.83 8.81-4.18 17.19-9.5 18.62-11.81 1.43-2.32 8.94-5.6 16.68-7.3 11.03-2.42 20.57.54 44.06 13.67 77.53 43.35 232.96 210.18 232.96 250.03 0 6.43-5.37 18.75-11.94 27.36-8.6 11.27-11.12 18.94-9.01 27.35 1.64 6.53.69 13.08-2.15 14.83-3.1 1.91-3.95 10.24-2.18 21.3 2.4 14.98.3 22.71-12.02 44.23-8.2 14.34-16.92 27.32-19.36 28.83-2.45 1.51-19.6 28.5-38.12 59.98-18.52 31.48-41.42 68.86-50.89 83.07-9.47 14.2-23.01 37.44-30.08 51.63-7.07 14.19-20.02 35.77-28.78 47.96-8.75 12.18-18.92 29.35-22.59 38.14-6.78 16.22-56.94 87.19-66.1 93.51-8.43 5.82-22.45 3.86-55.25-7.71zm111.782 520.832c-190.9-130.326-347.915-237.78-348.92-238.785-1.006-1.006 8.29-11.08 20.658-22.39 12.37-11.307 32.13-30.6 43.913-42.87 11.784-12.27 23.94-22.31 27.013-22.31 3.073 0 5.587-2.072 5.587-4.606 0-2.53 5.284-5.93 11.742-7.55 6.458-1.62 11.742-4.76 11.742-6.97s6.34-10.51 14.09-18.44c7.75-7.93 14.09-17.51 14.09-21.29 0-3.78 4.014-6.88 8.92-6.88 4.904 0 24.7-14.74 43.99-32.75 19.29-18.01 40.63-34.86 47.42-37.45 11.552-4.39 36.207 13.15 383.416 272.74 204.09 152.59 371.07 279.14 371.07 281.23 0 2.08-5.81 5.88-12.915 8.43-7.104 2.56-75.836 34.47-152.74 70.91-76.9 36.45-140.308 66.2-140.902 66.12-.595-.08-157.273-106.78-348.174-237.11z"/><path fill="#fff" d="M1627.77 1189.86c-19.808-17.66-24.955-25.13-24.27-35.225.73-10.745-1.213-13.05-12.045-14.297-7.104-.818-12.917-2.97-12.917-4.782 0-1.812-10.444-15.94-23.21-31.39-12.766-15.454-21.22-28.802-18.787-29.663 10.71-3.788 3.93-18.932-9.81-21.95-10.19-2.24-18.86-9.994-30.53-27.318-18.35-27.255-19.7-33.68-8.39-40.01 6.48-3.625 13.71 3.085 40.1 37.187 42.94 55.485 113.23 132.826 146.37 161.065 14.76 12.577 25.76 23.948 24.44 25.27-1.32 1.32-12.16 2.655-24.1 2.965-19.6.51-24.12-1.598-46.83-21.85zm-209.364-307.053c-2.915-7.986-5.22-17.055-5.12-20.153.202-6.356 7.18-19.365 11.676-21.77 2.442-1.308 3.168-.786 4.09 2.943.617 2.493 4.057 11.834 7.644 20.757 3.588 8.924 6.524 16.837 6.524 17.585 0 .74-1.777 2.16-3.947 3.15-2.17.99-6.562 4.09-9.757 6.9l-5.81 5.1-5.3-14.52zm40.52 83.855c-.95-2.048-3.3-6.712-5.222-10.365-6.41-12.192-17.127-35.996-17.127-38.042 0-3.528 15.548-16.038 17.382-13.986.27.3 2.8 5.15 5.62 10.79 2.82 5.63 9.26 17.39 14.31 26.14 5.05 8.74 9.17 16.46 9.17 17.15-.01 1.11-19.71 12.07-21.65 12.04-.42-.01-1.55-1.69-2.5-3.74zm275.83 306.732c-1.57-2.397-5.413-5.426-8.54-6.732-3.124-1.306-5.682-3.15-5.682-4.098s-2.524-2.778-5.61-4.067c-3.086-1.29-9.73-6.108-14.763-10.71-5.03-4.6-9.79-8.38-10.58-8.4-.78-.02-3.23-1.428-5.44-3.128l-4.02-3.09 5.31-1.17c2.92-.64 7.52-3.03 10.22-5.3s5.66-3.67 6.59-3.1c.92.57 4.31-.22 7.54-1.75l5.86-2.78 7.86 6.2c4.33 3.41 13.28 10.32 19.9 15.35 6.62 5.02 12.03 9.98 12.03 11.01-.02 3.1-9.3 18.21-13.68 22.28l-4.1 3.8-2.85-4.36zm70.04 41.75c-3.23-2.19-7.264-4.426-8.965-4.965-1.7-.54-7.07-3.61-11.94-6.81-4.86-3.21-9.26-5.83-9.76-5.83s-4.12-1.6-8.04-3.56l-7.12-3.56 4.74-5.99c2.61-3.3 6.37-9.16 8.36-13.04 2.25-4.38 4.35-6.61 5.53-5.88 5.68 3.49 47.22 30.48 49.88 32.41 3.04 2.2 3 2.49-1.23 9.2-3.54 5.61-11.46 12-14.87 12-.37 0-3.32-1.8-6.55-3.99zm71.438 22.966c-.52-.52-5.53-1.238-11.132-1.595-5.602-.357-14.18-1.907-19.062-3.446l-8.875-2.8 5.2-6.99c2.862-3.85 5.99-8.34 6.95-9.99 1.635-2.8 2.996-2.51 20.758 4.53 10.455 4.14 20.052 7.85 21.327 8.23 1.68.51.83 2.4-3.078 6.85-4.922 5.6-9.648 7.64-12.088 5.2zm32.086 1.815c1.68-1.687 3.59-4.03 4.243-5.204 1.142-2.05 1.61-2.03 12.09.43l10.9 2.56-4.56 2.04c-2.71 1.22-8.847 2.29-15.144 2.65l-10.59.61 3.05-3.06zm-488.405-526.14c1.48-9.36 3.34-11.303 3.406-3.555.04 4.073.43 5.87 1.07 4.865.65-1.015 1.28-1.155 1.76-.386.55.89-5.11 4.91-6.91 4.91-.13 0 .19-2.63.69-5.84z"/><path fill="none" d="M1048.77 1145.03c-2.26-1.104-6.13-3.967-8.596-6.362-2.466-2.396-5.9-4.705-7.632-5.133-4.43-1.095-145.387-107.455-148.524-112.07-1.415-2.08-7.455-7.264-13.423-11.518-22.275-15.88-252.21-189.283-263.912-199.027-3.23-2.69-9.83-7.775-14.672-11.302-4.84-3.528-45.79-34.378-91-68.556s-147.72-111.552-227.8-171.94c-80.08-60.39-166.2-125.404-191.39-144.476-25.18-19.07-48.55-36.74-51.92-39.265l-6.13-4.59 11.34-16.58c20.89-30.56 47.52-69.13 72.85-105.53l25.13-36.1h356.88l60.71 49.07c33.39 26.99 84.75 68.44 114.14 92.12 29.39 23.68 84.39 68.05 122.24 98.59 69.67 56.23 104.04 83.94 240.59 194 41.66 33.57 92.38 74.57 112.73 91.1 20.34 16.54 69.49 56.16 109.2 88.05 39.72 31.9 77.7 62.48 84.41 67.97l12.19 9.99-2.87 2.42c-1.58 1.33-26.59 21.97-55.57 45.87-60.6 49.97-65.05 53.92-69.5 61.61-3.52 6.11-16.59 16.73-20.83 16.95-1.32.07-2.42.92-2.44 1.89-.05 2.64-11.5 13.64-17.25 16.57-3.42 1.75-6.86 2.5-10.77 2.36-7.65-.27-11.28 2.12-11.28 7.4 0 3.67-1.27 5.03-16.73 17.98-9.2 7.71-31.72 26.78-50.04 42.39s-33.9 28.33-34.64 28.28c-.73-.05-3.18-1-5.44-2.1zm875.364 170.754c-14.595-3.717-46.77-15.972-69.107-26.322-25.485-11.81-95.837-59.21-130.507-87.934-13.646-11.306-60.204-54.212-79.312-73.09-13.43-13.27-52.23-56.656-73.502-82.194-8.558-10.274-46.1-59.775-58.776-77.497-11.92-16.665-45.26-78.92-53.764-100.394-12.333-31.14-17.87-51.778-16.77-62.515.317-3.074 3.315-12.752 6.664-21.506l6.09-15.918 17.265-10.014c163.69-94.943 161.91-93.946 166.28-93.126 3.43.643 5.675 0 12.705-3.637 4.697-2.43 56.967-33.404 116.156-68.83l107.617-64.41 8.314 1.18c4.573.65 13.92 2.504 20.77 4.122 6.848 1.61 14.865 2.94 17.813 2.94 4.748 0 5.855-.54 9.696-4.7 3.768-4.08 5-4.7 9.393-4.7 4.44 0 5.79-.7 11.16-5.78 4.22-3.99 7.98-6.33 12.19-7.58 3.35-1 8.19-2.99 10.77-4.44l4.68-2.63 9.66 3.15c15.67 5.11 43.25 21.5 70.71 42.02 19.32 14.44 79.36 72.44 120.2 116.1 18.14 19.4 28.99 33.01 49.66 62.28 17.29 24.49 17.11 24.16 20.25 38.04l2.88 12.77-2.28 6.1c-1.31 3.5-5.6 10.06-10.06 15.39-4.28 5.11-8.82 11.61-10.09 14.44l-2.32 5.14 3.28 9.86 3.28 9.87-5.67 4.99-5.67 4.99 3.17 13.25c2.74 11.46 2.98 13.83 1.76 17.58-4.18 12.89-25.45 49.8-34.6 60.06-10.45 11.71-21.96 29.99-51.01 81.06-7.9 13.88-24.27 40.3-36.39 58.71-23.28 35.36-26.23 40.39-27.63 46.96-.48 2.26-1.94 6.22-3.24 8.81-4.67 9.28-32.7 53.36-38.74 60.93-4.05 5.07-8.59 13.13-13.22 23.43-6.4 14.26-9.56 19.19-34.64 53.98l-27.6 38.28-7.82 2.39c-10.04 3.08-11.51 2.99-29.76-1.65z"/><path fill="none" d="M1895.366 1748.9c-77.174-52.68-161.827-110.402-188.118-128.272-26.29-17.87-47.648-33.02-47.46-33.666.19-.646 3.735-4.013 7.88-7.483 4.145-3.47 13.756-12.32 21.358-19.66s15.264-14.1 17.026-15.02c1.762-.92 8.154-6.74 14.205-12.92 9.02-9.22 10.903-11.76 10.457-14.09-.395-2.07.13-3.16 1.915-4 1.35-.64 5.71-4.12 9.68-7.74 4.66-4.26 8.25-6.59 10.11-6.59 3.71 0 9.07-4.21 9.07-7.13 0-1.48.81-2.27 2.33-2.27 1.28 0 5.38-2.65 9.1-5.89 3.72-3.24 9.59-8.36 13.05-11.38 3.46-3.02 6.83-6.67 7.48-8.11.65-1.44 2.33-2.91 3.72-3.26 3.85-.97 11.9-8.37 14.06-12.93 1.58-3.34 1.67-4.62.51-7.17-1.6-3.51-6.49-6.46-10.72-6.46-4.02 0-15.84 8.12-17.56 12.07-.86 1.97-3.36 4.23-6.15 5.55-2.59 1.22-9.9 7.18-16.26 13.24-8.77 8.36-11.75 11.98-12.37 15.02-.71 3.51-1.34 4.08-5.05 4.59-6.1.84-23.28 17.01-23.28 21.91 0 3.54-2.05 5.09-11.98 9.06-4.65 1.86-24.43 20.05-24.43 22.47 0 .8-1.45 1.77-3.23 2.16-1.94.42-8.87 6.12-17.32 14.23-15.21 14.6-23.92 21.24-30.12 22.97-2.16.61-5.64 2.15-7.72 3.42-4.56 2.8-16.98 18.2-25.24 31.3l-6.01 9.52-10.47.68c-6.52.42-11.54 1.37-13.29 2.52-1.55 1.02-8.24 7.97-14.87 15.45l-12.05 13.61-.59 8.3-.59 8.3-18.79 12.11c-10.33 6.66-19.38 12.12-20.11 12.13-.73.01-5.61-2.35-10.85-5.24-5.24-2.9-11.65-5.61-14.25-6.03-4.5-.72-5.01-.47-10.67 5.19l-5.94 5.94-19-3.49c-10.44-1.92-21.63-4.27-24.86-5.22-13.24-3.9-45.35-16.43-55.78-21.77-14.38-7.37-40.77-23.95-64.99-40.84l-19.15-13.36 1.24-4.65 1.24-4.65-13.48-12.87c-16.12-15.4-14.22-13.49-19.17-19.18-3.57-4.11-4.69-4.68-9.38-4.77-4.96-.1-6.05-.76-16.01-9.73-5.87-5.29-11.38-9.62-12.24-9.62-1.04 0-1.8-2.4-2.3-7.34-.59-5.87-1.35-7.86-3.76-9.98-1.66-1.45-3.91-2.67-5-2.71-1.89-.06-13.51-12.92-14.89-16.46-.84-2.16-9.21-6.95-12.13-6.95-1.24 0-3.69 1.13-5.44 2.51-2.7 2.12-3.42 2.25-4.68.88-3.53-3.86-20.42-25.42-22.44-28.64-1.21-1.94-5.71-8.55-10-14.68-7.51-10.74-21.42-32.33-33.1-51.39-3.36-5.48-5.58-10.49-5.59-12.62-.02-3.17-2.88-10.02-7.6-18.2-5.12-8.87-19.91-45.51-22.36-55.43-.56-2.26.13-5.05 2.41-9.71 4.2-8.6 3.5-14-4.36-33.31-7.18-17.64-7.15-20.51.33-30.47 25.74-34.29 58.54-75.07 76.79-95.45 16.22-18.12 18.16-20.63 18.19-23.59.01-1.08 11.77-13.77 26.14-28.18s33.99-34.22 43.6-44c12.16-12.38 18.5-17.99 20.85-18.46 3.62-.73 35.23-31.01 53.84-51.59 5.49-6.07 11.11-11.77 12.5-12.67 3.2-2.09 28.27-26.5 47.54-46.29 19.02-19.54 41.62-40.59 42.56-39.65.4.4.73 1.46.73 2.35 0 5.12 10.77 28.71 27.05 59.23 20.15 37.78 23.78 44.03 41.43 71.44 29.19 45.31 36.53 55.47 59.71 82.63 8.32 9.75 20.78 25.86 27.7 35.82 11.24 16.19 15.47 20.99 40.11 45.58 27.06 27 28.39 28.13 75.76 64.27 60.22 45.93 71.6 53.38 118.64 77.67 24.65 12.72 40.27 19.27 64.47 27l17.5 5.59-4 3.52c-20.88 18.42-52.02 47.35-54.6 50.73-3.75 4.92-4.08 9.28-1.05 13.9 4.29 6.54 8.6 6.4 18.35-.63 5.08-3.66 37.36-32.97 53.13-48.25 3.83-3.71 7.26-6.75 7.62-6.75.36 0 2.83-2.14 5.5-4.76 4.52-4.44 5.58-4.88 15.89-6.54 6.08-.98 12.37-1.58 13.98-1.33 1.61.24 48.11 34.27 103.33 75.6 102.1 76.43 385.54 288.34 487.8 364.68l56.29 42.02-270.58-.01-270.57-.01-140.32-95.78zm-475.45-935.116c.507-3.212 1.47-6.78 2.137-7.926.96-1.648 1.22-.9 1.25 3.56.02 3.178.513 5.352 1.128 4.972.61-.372 1.42-.16 1.8.468.57.916-4.9 4.766-6.76 4.766-.26 0-.05-2.628.46-5.84zm2.127 80.146c-.697-1.797-2.82-7.988-4.72-13.76-1.898-5.77-3.923-11.058-4.5-11.754-2.784-3.354 5.49-23.5 11.185-27.232 3.425-2.244 4.69-1.507 5.65 3.285.644 3.22 6.59 18.84 12.993 34.13l1.84 4.37-4.49 2.29c-2.47 1.26-7.23 4.46-10.58 7.11l-6.1 4.82-1.26-3.27z"/><path fill="none" d="M1457.033 963.17c-2.258-4.36-4.922-9.512-5.92-11.45-1-1.936-4.952-10.19-8.785-18.343l-6.97-14.822 2.287-3.613c2.658-4.198 12.385-11.007 15.01-10.508.99.188 3.316 3.243 5.17 6.788 4.472 8.553 20.84 38.17 24.16 43.716l2.63 4.39-3.157 1.2c-1.735.66-6.764 3.308-11.175 5.884-4.41 2.576-8.272 4.683-8.582 4.683-.31 0-2.41-3.566-4.66-7.926zm189.614 245.112c-4.082-3.155-17.202-15.112-29.155-26.57l-21.734-20.836 3.91-1.84c3.13-1.47 3.985-2.63 4.29-5.812.912-9.546-3.498-13.175-16.478-13.556-7.18-.21-8.513-.606-10.426-3.094-1.205-1.57-2.204-3.677-2.218-4.686-.014-1.008-.96-2.857-2.1-4.11-1.142-1.25-3.123-3.65-4.404-5.332-1.28-1.68-10.65-12.707-20.822-24.502-10.172-11.796-18.494-21.782-18.494-22.192 0-.41 2.363-1.998 5.25-3.53 9.683-5.136 8.887-12.34-1.974-17.884-5.187-2.647-9.287-2.818-13.637-.57l-3.2 1.656-7.946-10.755c-8.67-11.73-27.36-39.67-29.15-43.56-.62-1.34-1.86-3.74-2.78-5.34-1.51-2.64-1.42-3.17.9-5.65 3.19-3.41 19.02-11.34 20.63-10.35.65.4 4.12 4.82 7.7 9.82 3.58 4.99 9.46 12.78 13.05 17.3s12.92 16.62 20.74 26.89c7.81 10.27 21.33 26.65 30.05 36.4 8.71 9.75 25.23 28.32 36.7 41.27 18.71 21.14 44.81 47.2 82.92 82.81 13.03 12.17 13.08 12.24 10.86 14.66-1.23 1.33-2.24 3.05-2.24 3.81 0 2.02-4.32 1.71-5.12-.37-.88-2.28-9.13-2.29-24.82-.01-6.46.93-12.01 1.68-12.33 1.67-.32-.02-3.93-2.62-8.01-5.77zm88.5 65.87c-1.75-3.383-8.393-8.333-11.184-8.333-.8 0-2.512-1.35-3.805-2.99-1.293-1.65-4.67-4.08-7.5-5.41-2.833-1.34-8.8-5.8-13.258-9.93-4.46-4.13-8.82-7.52-9.694-7.54-.872-.02-3.433-1.56-5.69-3.44l-4.103-3.4 5.68-1.43c6.245-1.58 12.508-6.12 12.508-9.07 0-1.47.32-1.58 1.41-.49 2.12 2.12 6.56 1.7 11.53-1.1l4.45-2.5 19.78 15.55c10.88 8.55 19.95 16.27 20.16 17.15.89 3.79-14.06 26.3-17.47 26.3-.57 0-1.84-1.54-2.81-3.41zm70.33 41.82c-3.195-2.02-8.186-4.902-11.09-6.403-8.29-4.28-15.69-8.58-17.615-10.24-.97-.84-3.61-2.11-5.87-2.84-2.26-.73-5.83-2.38-7.934-3.66l-3.823-2.34 5.222-7.1c2.872-3.91 6.61-9.93 8.304-13.4l3.09-6.3 17.24 11.41c9.49 6.27 21.87 14.23 27.52 17.67 5.65 3.44 10.28 6.51 10.28 6.82 0 1.23-5.25 9.25-8.11 12.39-1.67 1.83-4.92 4.3-7.21 5.48l-4.17 2.15-5.81-3.68zm69.34 22.033c-3.23-.83-9.04-1.56-12.912-1.62-4.148-.067-10.766-1.354-16.106-3.133l-9.07-3.02 4.74-6c2.61-3.3 5.76-7.99 7-10.422l2.25-4.423 6.76 3.01c3.71 1.657 12.83 5.365 20.26 8.24 7.43 2.875 13.94 5.654 14.47 6.176 1.07 1.052-8.5 12.84-10.37 12.755-.65-.03-3.82-.733-7.05-1.563zm33.503 1.92c1.68-1.687 3.587-4.025 4.238-5.195 1.252-2.252 1.07-2.272 20.326 2.21 5.55 1.29-5.372 4.784-17.035 5.45l-10.59.603 3.05-3.068zm15.814-24.14c-14.595-3.718-46.77-15.973-69.107-26.323-25.485-11.81-95.837-59.21-130.507-87.934-13.646-11.306-60.204-54.212-79.312-73.09-13.43-13.27-52.23-56.656-73.502-82.194-8.558-10.274-46.1-59.775-58.776-77.497-11.92-16.665-45.26-78.92-53.764-100.394-12.333-31.14-17.87-51.778-16.77-62.515.317-3.074 3.315-12.752 6.664-21.506l6.09-15.918 17.265-10.014c163.69-94.943 161.91-93.946 166.28-93.126 3.43.643 5.675 0 12.705-3.637 4.697-2.43 56.967-33.404 116.156-68.83l107.617-64.41 8.314 1.18c4.573.65 13.92 2.504 20.77 4.122 6.848 1.61 14.865 2.94 17.813 2.94 4.748 0 5.855-.54 9.696-4.7 3.768-4.08 5-4.7 9.393-4.7 4.44 0 5.79-.7 11.16-5.78 4.22-3.99 7.98-6.33 12.19-7.58 3.35-1 8.19-2.99 10.77-4.44l4.68-2.63 9.66 3.15c15.67 5.11 43.25 21.5 70.71 42.02 19.32 14.44 79.36 72.44 120.2 116.1 18.14 19.4 28.99 33.01 49.66 62.28 17.29 24.49 17.11 24.16 20.25 38.04l2.88 12.77-2.28 6.1c-1.31 3.5-5.6 10.06-10.06 15.39-4.28 5.11-8.82 11.61-10.09 14.44l-2.32 5.14 3.28 9.86 3.28 9.87-5.67 4.99-5.67 4.99 3.17 13.25c2.74 11.46 2.98 13.83 1.76 17.58-4.18 12.89-25.45 49.8-34.6 60.06-10.45 11.71-21.96 29.99-51.01 81.06-7.9 13.88-24.27 40.3-36.39 58.71-23.28 35.36-26.23 40.39-27.63 46.96-.48 2.26-1.94 6.22-3.24 8.81-4.67 9.28-32.7 53.36-38.74 60.93-4.05 5.07-8.59 13.13-13.22 23.43-6.4 14.26-9.56 19.19-34.64 53.98l-27.6 38.28-7.82 2.39c-10.04 3.08-11.51 2.99-29.76-1.65z"/><path fill="none" d="M1895.366 1748.9c-77.174-52.68-161.827-110.402-188.118-128.272-26.29-17.87-47.648-33.02-47.46-33.666.19-.646 3.735-4.013 7.88-7.483 4.145-3.47 13.756-12.32 21.358-19.66s15.264-14.1 17.026-15.02c1.762-.92 8.154-6.74 14.205-12.92 9.02-9.22 10.903-11.76 10.457-14.09-.395-2.07.13-3.16 1.915-4 1.35-.64 5.71-4.12 9.68-7.74 4.66-4.26 8.25-6.59 10.11-6.59 3.71 0 9.07-4.21 9.07-7.13 0-1.48.81-2.27 2.33-2.27 1.28 0 5.38-2.65 9.1-5.89 3.72-3.24 9.59-8.36 13.05-11.38 3.46-3.02 6.83-6.67 7.48-8.11.65-1.44 2.33-2.91 3.72-3.26 3.85-.97 11.9-8.37 14.06-12.93 1.58-3.34 1.67-4.62.51-7.17-1.6-3.51-6.49-6.46-10.72-6.46-4.02 0-15.84 8.12-17.56 12.07-.86 1.97-3.36 4.23-6.15 5.55-2.59 1.22-9.9 7.18-16.26 13.24-8.77 8.36-11.75 11.98-12.37 15.02-.71 3.51-1.34 4.08-5.05 4.59-6.1.84-23.28 17.01-23.28 21.91 0 3.54-2.05 5.09-11.98 9.06-4.65 1.86-24.43 20.05-24.43 22.47 0 .8-1.45 1.77-3.23 2.16-1.94.42-8.87 6.12-17.32 14.23-15.21 14.6-23.92 21.24-30.12 22.97-2.16.61-5.64 2.15-7.72 3.42-4.56 2.8-16.98 18.2-25.24 31.3l-6.01 9.52-10.47.68c-6.52.42-11.54 1.37-13.29 2.52-1.55 1.02-8.24 7.97-14.87 15.45l-12.05 13.61-.59 8.3-.59 8.3-18.79 12.11c-10.33 6.66-19.38 12.12-20.11 12.13-.73.01-5.61-2.35-10.85-5.24-5.24-2.9-11.65-5.61-14.25-6.03-4.5-.72-5.01-.47-10.67 5.19l-5.94 5.94-19-3.49c-10.44-1.92-21.63-4.27-24.86-5.22-13.24-3.9-45.35-16.43-55.78-21.77-14.38-7.37-40.77-23.95-64.99-40.84l-19.15-13.36 1.24-4.65 1.24-4.65-13.48-12.87c-16.12-15.4-14.22-13.49-19.17-19.18-3.57-4.11-4.69-4.68-9.38-4.77-4.96-.1-6.05-.76-16.01-9.73-5.87-5.29-11.38-9.62-12.24-9.62-1.04 0-1.8-2.4-2.3-7.34-.59-5.87-1.35-7.86-3.76-9.98-1.66-1.45-3.91-2.67-5-2.71-1.89-.06-13.51-12.92-14.89-16.46-.84-2.16-9.21-6.95-12.13-6.95-1.24 0-3.69 1.13-5.44 2.51-2.7 2.12-3.42 2.25-4.68.88-3.53-3.86-20.42-25.42-22.44-28.64-1.21-1.94-5.71-8.55-10-14.68-7.51-10.74-21.42-32.33-33.1-51.39-3.36-5.48-5.58-10.49-5.59-12.62-.02-3.17-2.88-10.02-7.6-18.2-5.12-8.87-19.91-45.51-22.36-55.43-.56-2.26.13-5.05 2.41-9.71 4.2-8.6 3.5-14-4.36-33.31-7.18-17.64-7.15-20.51.33-30.47 25.74-34.29 58.54-75.07 76.79-95.45 16.22-18.12 18.16-20.63 18.19-23.59.01-1.08 11.77-13.77 26.14-28.18s33.99-34.22 43.6-44c12.16-12.38 18.5-17.99 20.85-18.46 3.62-.73 35.23-31.01 53.84-51.59 5.49-6.07 11.11-11.77 12.5-12.67 3.2-2.09 28.27-26.5 47.54-46.29 19.02-19.54 41.62-40.59 42.56-39.65.4.4.73 1.46.73 2.35 0 5.12 10.77 28.71 27.05 59.23 20.15 37.78 23.78 44.03 41.43 71.44 29.19 45.31 36.53 55.47 59.71 82.63 8.32 9.75 20.78 25.86 27.7 35.82 11.24 16.19 15.47 20.99 40.11 45.58 27.06 27 28.39 28.13 75.76 64.27 60.22 45.93 71.6 53.38 118.64 77.67 24.65 12.72 40.27 19.27 64.47 27l17.5 5.59-4 3.52c-20.88 18.42-52.02 47.35-54.6 50.73-3.75 4.92-4.08 9.28-1.05 13.9 4.29 6.54 8.6 6.4 18.35-.63 5.08-3.66 37.36-32.97 53.13-48.25 3.83-3.71 7.26-6.75 7.62-6.75.36 0 2.83-2.14 5.5-4.76 4.52-4.44 5.58-4.88 15.89-6.54 6.08-.98 12.37-1.58 13.98-1.33 1.61.24 48.11 34.27 103.33 75.6 102.1 76.43 385.54 288.34 487.8 364.68l56.29 42.02-270.58-.01-270.57-.01-140.32-95.78z"/></svg>