<?xml version="1.0" encoding="UTF-8" standalone="no"?>
<svg
   xmlns:dc="http://purl.org/dc/elements/1.1/"
   xmlns:cc="http://creativecommons.org/ns#"
   xmlns:rdf="http://www.w3.org/1999/02/22-rdf-syntax-ns#"
   xmlns:svg="http://www.w3.org/2000/svg"
   xmlns="http://www.w3.org/2000/svg"
   xmlns:sodipodi="http://sodipodi.sourceforge.net/DTD/sodipodi-0.dtd"
   xmlns:inkscape="http://www.inkscape.org/namespaces/inkscape"
   width="24.719"
   height="18.719"
   viewBox="0 0 24.71886 18.719459"
   id="svg4136"
   version="1.1"
   inkscape:version="0.91 r13725"
   sodipodi:docname="DRG1.svg">
  <metadata
     id="metadata4156">
    <rdf:RDF>
      <cc:Work
         rdf:about="">
        <dc:format>image/svg+xml</dc:format>
        <dc:type
           rdf:resource="http://purl.org/dc/dcmitype/StillImage" />
        <dc:title />
      </cc:Work>
    </rdf:RDF>
  </metadata>
  <defs
     id="defs4154" />
  <sodipodi:namedview
     pagecolor="#ffffff"
     bordercolor="#666666"
     borderopacity="1"
     objecttolerance="10"
     gridtolerance="10"
     guidetolerance="10"
     inkscape:pageopacity="0"
     inkscape:pageshadow="2"
     inkscape:window-width="1858"
     inkscape:window-height="1058"
     id="namedview4152"
     showgrid="false"
     inkscape:zoom="94.983707"
     inkscape:cx="12.829107"
     inkscape:cy="10.380209"
     inkscape:window-x="54"
     inkscape:window-y="-8"
     inkscape:window-maximized="1"
     inkscape:current-layer="svg4136" />
  <desc
     id="desc4138">world98</desc>
  <path
     fill="none"
     stroke="#000"
     stroke-width=".1"
     d="M20.16 6.054c.126.147.233.28.23.29 0 .004.007.016.017.026.01.01.022.03.028.048.006.017.034.06.063.1.062.08.14.212.144.236l.003.075c0 .03.007.09.015.13.01.04.012.08.008.08-.005 0-.012.03-.016.05-.008.05-.027.08-.112.18-.093.11-.094.11-.082.15l.017.06c.004.01.018.04.032.06.013.02.025.04.026.05.002.02-.077.09-.11.1-.02 0-.022.01-.016.03l.036.07c.032.05.03.08-.005.14-.014.03-.025.05-.024.06.003.03-.266.48-.472.79-.113.17-.256.4-.317.5-.073.12-.156.24-.24.36-.18.24-.263.37-.292.46-.02.06-.057.12-.218.37-.106.17-.2.31-.207.32-.008 0-.02.03-.03.06-.008.02-.027.06-.04.08-.015.01-.038.06-.052.1-.014.03-.037.08-.05.1-.015.01-.038.05-.052.07-.013.02-.044.06-.067.09l-.08.1-.106.13c-.03.05-.07.1-.08.12-.01.02-.03.05-.05.07-.02.02-.04.05-.05.08-.01.03-.03.06-.1.12s-.08.08-.13.1l-.05.02.02.03c.01.01.15.12.38.29l1.22.89 1.9 1.39.56.41 2.59 1.89c.25.18.25.18.24.19-.01.01-3.09 1.43-3.1 1.43-.01 0-.06-.04-1.22-.81l-1.26-.85-1.3-.87L16.11 15l-1.03-.69c0-.003-.01.003-.02.01-.007.01-.02.015-.025.01l-.06-.032c-.04-.027-.05-.028-.06-.01-.033.033-.083.136-.084.17 0 .03 0 .033-.06.082-.09.08-.18.137-.22.133-.02-.002-.03.003-.05.024-.01.016-.03.03-.04.03-.01 0-.07.034-.1.055-.03.03-.04.067-.02.09.02.03.03.044.02.08 0 .03-.01.044-.08.105-.06.06-.07.07-.1.08-.02.004-.06.027-.09.05-.07.047-.1.064-.14.065-.01 0-.03.005-.04.01-.08.044-.18.065-.2.043-.01-.008-.01-.01-.02-.01-.01.003-.09-.028-.11-.04 0-.005-.02-.013-.03-.02-.02-.006-.03-.005-.07.03l-.04.04-.23-.04c-.17-.027-.25-.046-.29-.066-.03-.02-.07-.03-.08-.03-.03 0-.12-.04-.32-.13-.28-.13-.61-.33-.88-.54-.13-.1-.12-.1-.09-.13s.03-.03.01-.04l-.11-.09c-.1-.1-.1-.1-.13-.09l-.02.01-.17-.16-.16-.17-.01-.04c-.01-.04-.01-.04-.09-.12l-.09-.08-.03.03-.03.03-.05-.06c-.08-.09-.18-.21-.26-.31-.15-.2-.38-.56-.52-.83-.08-.15-.22-.49-.25-.6-.02-.07-.02-.08 0-.12l.02-.05-.05-.17c-.05-.17-.06-.21-.04-.3.01-.01.06-.09.13-.18l.19-.25c.04-.05.1-.12.13-.14.03-.03.06-.07.08-.09.09-.14.22-.28.55-.62.12-.12.2-.21.2-.22 0-.01.06-.09.1-.14.04-.04.04-.07-.01-.07-.07-.01-.09-.01-.1 0 0 0-.02.01-.03 0-.01 0-.03.01-.07.05-.03.03-.08.08-.12.11-.03.02-.15.13-.26.24-.12.11-.22.21-.25.23-.05.03-.15.11-.27.21-.11.09-.11.09-.15.07L8 9.24l-.57-.41-.644-.48-.375-.272-.37-.28-.69-.52-.66-.5c-.14-.11-.3-.22-.34-.252l-.69-.51c-.34-.25-.7-.52-.8-.597l-1.29-.94-.61-.46C.07 3.41.1 3.44.1 3.43.1 3.41 2.402.108 2.41.108c.01 0 .03.018.393.305.15.12.39.31.536.423.14.115.44.352.66.528l1.6 1.262.5.395.63.5.43.34.96.76 1.09.86.36.29.22.18.8.63.43.35.42.34 1.03.81c0 .01.07-.06.16-.15l.16-.16.04-.32.04-.31.14-.14.14-.14.14-.08.9-.5c1.58-.88 2.83-1.58 2.85-1.59.01 0 .03 0 .04.01.02.02.05.02.12 0 .08-.02.12-.01.18.04.06.06.07.06.14-.02l.06-.06.03.01c.03.01.03.01.06-.02.04-.04.08-.05.13-.06.03 0 .05-.01.1-.04s.06-.04.09-.03c.02.01.05.01.06 0 .04-.01.07 0 .14.05.03.03.09.05.12.07.03.01.08.04.1.06.02.02.07.05.11.06.07.03.16.09.26.18.03.03.07.06.08.06.03.01.2.15.54.46.14.13.64.61.69.68zm-.73-.68c-.27-.24-.463-.4-.524-.43-.02-.01-.07-.046-.11-.083-.043-.03-.08-.06-.086-.06-.005 0-.022-.01-.038-.02-.018-.02-.05-.03-.09-.05-.034-.01-.09-.04-.123-.06-.04-.02-.09-.05-.12-.06-.03-.01-.07-.03-.1-.05-.06-.04-.09-.05-.13-.05-.02.01-.05.01-.07 0-.02 0-.04 0-.06.02-.07.05-.1.07-.14.07-.03 0-.05.01-.06.02-.01.03.13-.02.18-.06l.04-.03.12.04c.07.02.15.05.17.07l.15.09.27.18c.21.16.43.35.94.86.37.38.38.38.5.54.07.09.18.24.25.34l.12.18.02.13c.02.07.03.13.04.13.01 0 0-.02-.01-.1-.01-.03-.02-.08-.01-.11 0-.03-.01-.07-.01-.08-.02-.04-.07-.12-.14-.21-.04-.04-.06-.08-.07-.1 0-.02-.02-.04-.03-.05-.01-.01-.02-.02-.02-.03 0 0-.01-.02-.03-.03l-.08-.09-.1-.12c-.07-.08-.54-.54-.73-.72zm-.216-.083c-.276-.25-.29-.27-.45-.38-.1-.07-.227-.15-.33-.21-.15-.08-.178-.1-.29-.13l-.123-.03-.03.03c-.02.03-.04.04-.1.05-.06.02-.07.02-.12.07l-.04.05h-.1l-.04.05-.04.05-.14-.03c-.08-.02-.18-.04-.22-.04-.08-.01-.08-.01-.14.03L16 5.4l-.98.572-.05-.003-.05-.01-.18.1c-.36.2-1.29.73-1.42.8l-.06.03-.03.09c-.02.05-.06.13-.08.19-.04.09-.04.1-.02.19.02.13.06.26.14.46.04.1.08.19.08.2.02.04.266.47.315.56.066.11.057.1.357.49.245.31.29.37.48.58l.306.34c.053.06.15.16.244.25.244.22.506.46.603.54.107.09.49.38.57.43l.26.16.28.17c.05.03.16.08.36.16.26.1.3.12.45.15l.17.03.1-.03.1-.03.27-.36.26-.36.068-.15c.05-.13.067-.15.094-.17.02-.02.06-.07.143-.21.25-.39.247-.39.26-.45.014-.06.016-.07.23-.38.175-.26.244-.37.355-.56.075-.14.19-.33.26-.44.104-.17.13-.21.183-.26.05-.06.07-.08.18-.27.08-.15.122-.23.14-.28.03-.07.03-.07 0-.18l-.03-.11.054-.05.055-.04-.04-.1c-.045-.12-.05-.09.07-.23.06-.08.073-.1.1-.16l.02-.07-.03-.14-.03-.13-.104-.15c-.06-.08-.14-.19-.18-.24l-.133-.17c-.06-.08-.14-.16-.56-.59-.04-.04-.2-.19-.36-.34zm1.398 1.83c-.01.02-.017.06-.01.06.007 0 .024-.06.02-.06l-.01.01zm-.05.1c-.003.01.002.01.01 0 .01-.01.012-.01.006-.01s-.013.01-.016.02zM17.78 4.6c-.005.01-.01.013-.012.008 0-.005-.017.005-.035.023-.03.04-.034.04-.064.02l-.04-.01-.06.06c-.06.06-.06.06-.09.06-.02 0-.04-.01-.06-.03-.05-.04-.1-.05-.18-.03-.06.02-.08.02-.12.01-.05-.01-.05-.01-.11.03-.04.02-.07.04-.07.05h.01s.03-.02.05-.03c.06-.03.15-.02.36.03l.14.03.04-.05c.04-.05.04-.05.09-.05.04 0 .05 0 .09-.03.03-.03.04-.04.04-.05-.01-.02-.01-.02-.02 0zm-.058.066c-.007.007-.01.007-.007 0 .002-.007.008-.012.012-.012.005 0 .002.005-.005.012zm2.734 2.678c-.005.007 0 .005.01-.005.012-.01.016-.02.01-.02-.007 0-.015.01-.02.02zm-.04.05c-.01.007-.007.024.007.057.02.05.02.05.017.02-.002-.01-.008-.03-.014-.04-.006-.01-.007-.02-.002-.02s.008-.01.006-.01-.01.01-.015.01zm.06.183l.014.034-.05.05-.05.05c.01.01.064-.02.09-.04.032-.03.034-.04.01-.08-.028-.03-.03-.03-.015 0zm-.077.22l.01.072c.01.06.01.06.02.03 0-.02 0-.05-.01-.06-.02-.03-.03-.06-.03-.05zm-.02.232v.02l.01-.04s-.01 0-.01.02zM16.9 4.77c-.006.006-.003.007.008.003.01-.005.024-.013.03-.018.006-.007.003-.008-.008-.003-.01.004-.023.01-.028.016zm-.032.02c-.003.008 0 .008.008 0 .007-.005.01-.01.005-.01s-.01.005-.01.01zm-.057.033c0 .006 0 .006.01 0 .01-.008.01-.013.01-.013s-.01.005-.01.012zm0 .03c0 .007 0 .007.01 0 .01-.006.01-.01.01-.01s-.01.004-.01.01zm-.02-.012c0 .01 0 .01.01 0 .01 0 .01-.01.01-.01s-.01.01-.01.02zm-.03.02c0 .01 0 .01.01 0 .01 0 .01-.01.01-.01s-.01.01-.01.02zm-.03.05c0 .01 0 .01.01 0 .01 0 .01-.01.01-.01l-.01.01zm-1.06.57l-1.04.59-.14.09-.24.13-.27.16-.27.16c-.09.05-.16.09-.16.1 0 .01 0 .01.01 0h.01c.01.01.07-.03.15-.07l.4-.23.41-.23c.4-.23.4-.23.44-.23.02 0 .04.01.05.01.01 0 .18-.09.5-.28l.49-.29c.02-.02-.04.02-.35.19l-.38.22-.11.06c-.09.06-.14.08-.15.07 0 0 0-.01.01-.01.03-.01.49-.27.85-.47l.54-.3c.18-.1.27-.15.32-.19.04-.03.01-.02-1.02.56zM19.9 8.8c-.073.12-.14.23-.15.25-.02.048-.04.118-.03.1.002-.007.1-.153.21-.325l.205-.31-.05.04c-.05.04-.064.06-.186.25zm-3.76-3.55c-.002.006 0 .006.01 0s.01-.013.01-.013-.01.005-.013.012zm-.095.055c-.003.007 0 .007.008 0 .007-.006.01-.012.005-.012-.004 0-.01.006-.013.012zm-.06.032c-.01.01-.01.01.008.003.03-.01.046-.03.023-.02-.01.005-.024.01-.03.02zm3.543 4.056c-.04.073-.08.137-.086.143-.006.005-.008.013-.005.017 0 .003.01-.003.02-.013.01-.01.016-.02.012-.02-.01-.006 0-.014.01-.02.01-.01.02-.015 0-.01-.02 0-.02-.004 0-.018.01-.01.02-.02.01-.02s-.01-.006.01-.014c.01-.01.02-.015.01-.017-.01 0-.01 0 0-.01s.01-.01 0-.01-.01 0 .01-.01l.01-.01c-.01 0-.01 0 .01-.01l.01-.01c-.01 0-.01-.01 0-.03.01-.02.02-.03.01-.03 0 0-.04.06-.08.13zm-.136.223l-.03.046.032-.037c.03-.036.04-.055.032-.055-.002 0-.017.02-.034.047zm-.05.072c-.003 0 .002 0 .01-.01.01-.008.012-.013.005-.01-.01.002-.02.01-.02.015zm-.026.032c-.003.006 0 .006.008 0 .007-.007.01-.01.005-.01 0 0-.01.003-.01.01zm-.205.3c0 .008 0 .008.01 0s.01-.01.01-.01-.01.004-.01.01zm-.03.05c-.02.024-.05.113-.04.12.01.003.06-.142.06-.146l-.02.026zm-.49.817c-.02.033-.03.07-.04.083-.02.036 0 .03.02-.013.03-.046.06-.122.05-.125 0 0-.02.025-.03.057zm-.06.14c-.01.02 0 .017.01-.004v-.016c-.01 0-.01.01-.01.02zm-.03.07c-.01.023-.02.04-.01.032.01-.01.04-.08.03-.08l-.02.04zm-.19.265c-.08.118-.15.21-.14.204.01-.006.03-.03.05-.06l.09-.122c.03-.043.08-.113.11-.158.11-.15.05-.08-.11.134zm6.23 5.778v.012c.01.01-.01.023-.2.11-.1.05-.44.207-.76.352l-.96.44-.74.345c-.24.11-.36.16-.37.15l-.44-.3c-.23-.16-.62-.42-.87-.58l-1.81-1.21-.63-.42-.95-.64c-.29-.2-.57-.38-.62-.42l-.6-.41-.53-.36c-.02-.01-.02-.02-.01-.03.01-.02.01-.02-.03-.01l-.06.01c-.03 0-.03 0-.11.1-.1.12-.1.13-.09.15.02.02.02.05.01.07l.03-.03c.03-.03.04-.03.02-.02l-.02.01.02-.03.03-.03c.01-.01.01-.02.01-.03v-.01c.02-.02.04-.03.02-.03-.01 0 .01-.05.03-.07.01-.01.01-.01.01.01s0 .02 0 0c0-.01.02-.03.03-.05.03-.03.03-.03.06-.01l.06.03c.02.01.03.01.04 0 .01-.01.02-.01.03-.01.01 0 .1.06.2.13s.25.17.33.22l1.61 1.07 1.03.69c.48.32 1.05.7 1.25.83l.5.33.82.55c.4.26.69.45.7.45.01-.01.11-.05.24-.11s.65-.31 1.17-.54c.52-.24 1.09-.5 1.27-.59l.36-.17c.03-.01.03-.01.01-.03-.01-.01-.02-.01-.02-.01zm-.07-.064c0 .003.01.01.02.012.01.003.01 0 0-.008 0-.007-.01-.01-.01-.005zm.03.04l.01.01c.01.002.01 0 0-.008 0-.007-.01-.01-.01-.005zm-.07-.08c0 .006.01.01.01.014.01.003.01 0 0-.008 0-.007-.01-.01-.01-.005zm.03.04c.01.008.01.017.02.02.01.006.01 0 0-.01l-.01-.01zm-.1-.076c0 .004.01.01.02.012.01.003.01 0 0-.007 0-.005-.01-.01-.01-.003zm.03.04c0 .007.01.014.02.016.01.004.01 0 0-.01s-.01-.01-.01-.004zm-.07-.075c0 .01.01.015.02.02.01 0 .01-.004 0-.01-.01-.01-.01-.014-.01-.008zm-.46-.29L22.8 15.9l-.74-.54-1.09-.8-.638-.46c-.49-.36-1.26-.92-1.34-.98l-.28-.21-1.01-.74-.05-.04s-.24.03-.28.04c-.01 0-.03.02-.04.03-.02.02-.02.02-.03.01-.01-.01-.014-.01-.055.02-.06.05-.124.12-.14.15l-.043.05c-.03.02-.03.02-.014 0 .013-.02.01-.02-.016 0-.02.02-.03.03-.02.04.004 0 0 .01-.015.02-.02.007-.03.02-.03.02 0 .007.03-.012.06-.04l.07-.05-.11.1c-.14.13-.29.27-.32.283-.01.01-.02.01-.02-.01 0-.01-.01-.016-.01-.016-.02 0 .02-.044.18-.18l.2-.187.14-.13.1-.096-.07-.02c-.46-.13-.58-.18-.98-.4-.18-.093-.35-.19-.39-.22-.04-.024-.23-.17-.43-.32-.2-.15-.39-.29-.42-.31-.05-.032-.12-.1-.32-.294l-.26-.255-.1-.14c-.05-.08-.12-.17-.15-.2-.32-.36-.33-.37-.58-.75-.22-.323-.26-.39-.38-.615L13 8.3c-.04-.07-.07-.13-.11-.26l-.05-.16-.165.16c-.09.085-.16.16-.17.155 0 0-.02.016-.04.04-.04.052-.49.49-.51.5-.04.016.07-.1.38-.405.023-.023.04-.042.035-.05 0-.008.01-.038.04-.067.03-.044.04-.055.06-.06.02-.007.02-.006.01 0-.01.007-.01.015-.004.02.003.004.043-.033.134-.123.19-.19.205-.207.22-.2.01.003.03.06.05.13.02.07.045.13.05.13.01 0 .01.006.003.007-.015.006 0 .056.03.11.03.057.03.04 0-.02-.03-.05-.04-.09-.03-.08l.02.04c.02.048.033.06.04.04.04-.09.12-.15.264-.21.01 0 .01-.012-.01-.06l-.03-.06c0-.01-.02-.046-.04-.09-.04-.09-.07-.18-.093-.27l-.017-.07-.07.03c-.075.04-.103.06-.133.12-.012.03-.023.045-.03.04-.01 0-.01 0 0-.003s.01-.005 0-.007c-.01-.01-.01-.01 0-.01s.017-.02.025-.038c.02-.05.09-.11.16-.14.06-.03.08-.04.01-.02-.09.04-.13.07-.16.12l-.04.06c-.01.01-.01.04-.02.07l-.01.06-.17.17-.17.17-.02-.01-.12-.1c-.01-.01-.02-.02-.03-.02l-.03-.03c-.02-.03-.03-.03-.03-.02 0 .01-.01.01-.03-.03-.03-.03-.04-.04-.04-.03 0 .01-.01 0-.03-.03-.02-.03-.03-.04-.04-.04-.01.01-.02-.01-.04-.03-.02-.02-.03-.03-.03-.02 0 .01-.01.01-.03-.02-.02-.02-.03-.03-.03-.02-.01.01-.02 0-.04-.03l-.06-.06c-.02-.01-.06-.05-.1-.08-.04-.03-.07-.06-.08-.06-.01-.01-.03-.02-.03-.03-.01-.01-.02-.02-.03-.02-.01 0-.03-.01-.04-.03-.01-.02-.03-.03-.03-.03-.01 0-.02-.01-.02-.01 0-.01-.06-.06-.13-.11l-.3-.24-.43-.34-.79-.62-1.16-.92-.93-.73-.66-.52-.46-.37-.54-.42-.46-.37c-.13-.1-.32-.25-.43-.34l-.37-.29-.22-.17-.05-.03.05.04.11.09.18.14.17.14c.06.05.1.09.12.1v.02s0 .02.01.03c.03.03.05.04.07.03.01-.01.02-.01.02-.01l.06.05c.03.02.08.06.1.08l.13.11.14.12c.04.03.1.08.14.11.04.03.15.12.24.19l.58.46c.04.03.04.05.04.05-.01.01-.01.01.01.01.01 0 .04.02.09.06l.25.21.29.22.25.2c.3.24.34.273.34.282 0 .01.02.02.03.03.03.02.03.02.05.007.01-.01.016-.01.01 0-.01.01 0 .02.01.04.02.02.39.31.55.44l.59.46.256.2c.29.23.37.29.45.36l.5.4c.09.07.165.134.17.15.01.01.034.03.06.05.024.02.105.08.18.14.074.052.2.15.275.21l.19.153.21.17.33.26.33.26c.17.13.2.17.18.19-.007.008-.17.14-.367.298l-.58.46-.22.18-.038.06c-.03.05-.04.065-.08.09-.02.02-.058.04-.07.06-.018.01-.04.03-.05.034-.04.02-.04.03.01.08.02.02.04.04.04.05 0 0-.02-.01-.04-.03-.02-.02-.04-.04-.05-.04-.01-.004-.017-.01-.01-.01.01-.01-.03-.01-.04 0 0 .01 0 .01.003.02.01.01.01.02.01.02 0 .01.02.02.04.04.03.027.04.03.05.02s.01 0 .01.01l.01.02.01.01c-.03.04-.27.28-.53.52-.07.07-.08.075-.06.09.02.02-.01.05-.05.04-.03 0-.06.01-.06.03 0 .005.01.006.03 0 .02 0 .03 0 .02.01-.01.01-.06.075-.13.14-.06.07-.18.2-.25.3-.23.28-.41.51-.44.55-.04.05-.05.13-.04.17l.06.14.06.14c.01.03.01.04-.04.12l-.02.05c-.01.02.09.28.14.384 0 .02.01.03 0 .03s-.04-.09-.08-.19l-.04-.12c-.03-.08-.035-.12-.015-.14.02-.02.06-.1.055-.11-.01-.01-.07.07-.08.1-.01.05.096.34.23.61.086.18.17.32.204.365l.06.08c.01.03.04.07.06.1l.05.08.034.05.04.06c.04.054.08.11.09.13 0 .01.09.11.24.3l.03.037.05-.04.05-.04.05.05c.13.14.14.16.14.194 0 .03.01.04.05.09.03.03.06.06.08.07.03.01.03.01 0-.01-.01-.02 0-.02.05.03.03.03.07.06.08.07.02.01.02.015.02.02-.01 0-.02-.01-.04-.026l-.03-.02c0 .01.03.04.07.07.04.04.06.06.06.04-.01-.01 0-.02.02-.03.03-.01.07 0 .05.01 0 .01-.01.01-.01 0s-.04.02-.05.04c0 .01 0 .02.01.026s.05.032.08.07c.16.14.17.143.186.13.01-.01.01-.01-.025-.04-.02-.018-.05-.04-.07-.05-.02-.02-.05-.04-.07-.06-.02-.02-.047-.04-.06-.05-.02-.01-.027-.02-.026-.03 0-.01.006-.01.01-.01l.08.06.11.09.04.03-.03-.04c-.03-.037-.026-.03.03.02l.07.062-.04.04c-.02.03-.04.05-.04.05 0 .01.18.14.3.22.2.14.59.36.57.33l-.18-.11c-.163-.09-.632-.41-.65-.44-.01-.01.01-.02.02 0 .02.03.46.33.67.45.21.12.21.12.46.21.238.09.26.09.46.13l.218.04.06-.06c.04-.055.05-.06.06-.05l.116.06c.054.03.103.06.11.06.004 0 .093-.05.37-.23l.06-.03v-.15l.07-.077.104-.11.04-.043h.11c.06-.007.11-.01.11-.02.01-.01.02-.03.04-.05.01-.02.03-.05.04-.07.02-.036.14-.19.18-.236.02-.02.04-.03.07-.04.04-.01.06-.02.1-.05.03-.02.05-.04.06-.03.01 0-.01.015-.02.03-.023.02-.03.03-.02.035.01.01.017 0 .03-.01l.055-.04c.028-.02.027-.01-.01.02-.022.02-.05.05-.06.06-.013.02-.012.03.005.04l.91.61 1.84 1.23.35.23.4.265 1.37.92.67.44.63.42c.15.11.28.19.28.19l.73-.33 1.45-.67c.91-.41.82-.37.81-.38l-.644-.48zm-6.6-4.43s-.01.003-.01 0c0 0 0-.003.01-.006.02-.01.02-.01.01 0zm-.06.05c-.01.006-.01.01-.01.002 0-.005.01-.012.02-.015 0-.002 0 .003-.01.01zm-.05.05c-.02.02-.04.034-.05.036 0 .01.01-.01.03-.03.06-.04.07-.05.03 0zM12.42 8.05c-.006 0-.01 0-.01-.01v-.01h.01c.002 0 .002.01 0 .01zm4.02 4.91c-.048.04-.07.06-.08.04-.004-.01-.014-.02-.023-.02-.014 0-.01-.01.025-.04.047-.05.056-.05.086-.04.022.01.022.01-.012.04zm-.03-.02c-.005 0-.005.01 0 .01.004 0 .01 0 .015-.01s.005-.01 0-.02c-.002-.007-.01-.006-.015 0zm-.038.03c-.006 0-.01.01-.004.01h.013l.01-.01h-.02zm-4.46-4.29c-.02.016-.11.11-.2.203-.13.133-.17.17-.174.165-.007-.005-.01-.004-.013 0h-.01c-.003-.005-.01 0-.015 0-.004.006-.003.014.004.02.01.01 0 .024-.18.205-.1.106-.2.197-.2.202-.01.01-.03 0-.01-.01.01-.01.01-.02 0-.03l-.01-.02.02.01c.02.012.02.01.09-.055.08-.08.12-.127.1-.12-.01 0-.014 0-.014-.01s.03-.05.11-.12c.11-.105.11-.108.14-.105.02.003.03 0 .06-.036l.034-.04-.04.04c-.03.02-.044.03-.053.03-.02-.01-.01-.02.04-.07s.09-.06.04-.02c-.02.02-.02.02 0 .01.04-.02.14-.12.16-.16.02-.03.02-.04.01-.06 0-.02 0-.02.01-.02h.03c.03.01.05-.02.04-.04-.01-.03.01-.05.03-.03.01.01.02 0 .04-.01.04-.03.04-.01 0 .02zm-.112.06c-.002 0-.002.01 0 .01h.015c.003-.01.003-.01 0-.018-.004-.005-.01-.005-.013 0zm-.405.44l.017-.02c.02-.016.02-.025.01-.02-.01.007-.03.02-.03.03zm-.055.02c-.007.01 0 .005.017-.01.015-.015.02-.023.01-.017l-.028.03zm-.017.04c-.003.01.003.006.016-.007.01-.013.01-.02 0-.014s-.02.02-.03.03zm4.967 3.843c-.01.01-.04.04-.067.06-.04.032-.06.037-.07.03-.01-.007-.02-.01-.03-.01-.03.006 0-.02.05-.07.05-.046.06-.05.07-.033.01.01.01.016.02.01s.01 0 0 .015zm-.076.02c-.026.025-.027.027-.005.014.03-.02.05-.04.04-.04-.01-.01-.02 0-.04.02zm-4.53-4.13c-.124.124-.256.253-.295.287-.04.038.06-.064.22-.222.16-.16.29-.29.29-.28l-.22.22zm4.444 4.25c-.033.033-.034.033-.03.01.003-.016.01-.024.018-.025.01 0 .03-.007.03-.01.01-.008.01.004-.01.023zm-.008-.038c-.003.01-.02.026-.07.06-.032.02-.032.02.006-.02.04-.037.07-.056.07-.037zm-.118.15c-.007.01-.01.01-.007 0 .003-.005.01-.01.013-.01.005 0 .002.005-.005.01zm-.103.04c-.02.014-.03.02-.02.01s.02-.027.03-.03c0-.01 0 0-.02.02zm-.06.054l-.01.01c0-.01.01-.01.02-.02 0 0 0 .01-.01.02zm-.06.05c-.01.01-.02.01-.01 0l.01-.01s0 .01-.01.01zm-.07.12c-.01.01-.02.01-.01.01 0-.01.01-.02.01-.02l-.01.01zm-.12.11l-.09.07s.02-.03.05-.06c.04-.05.05-.06.05-.07-.01-.01-.02-.01-.06.03-.03.02-.07.06-.1.08-.03.02-.02.01.05-.05.07-.07.1-.09.12-.1.05-.01.05 0-.04.08zm-.18.15c-.02.02-.03.03-.02.01.01-.01.02-.03.03-.04l-.02.02zm-.08.02c-.02.02-.03.03-.02.01 0-.01.02-.03.03-.03l-.02.02zm-.03.09c-.04.04-.08.07-.08.07-.01-.01.02-.03.05-.06.09-.09.1-.09.02-.02zm-.02-.04c-.01.01-.02.01-.01.01 0-.01.01-.02.02-.02 0-.01 0 0-.01.01zm-.08.08l-.07.05c-.01 0 .08-.09.11-.1l-.04.04zm-.02.05c-.02.01-.02.02-.02.01s.02-.02.02-.02l-.01.01zM9.8 12.3c0 .013 0 .016-.01.01-.01-.005-.018-.018-.02-.028-.006-.01-.005-.02 0-.01.007 0 .015.01.02.02zm.03.06c.01.024.01.026 0 .01-.02-.023-.03-.053-.02-.043l.01.034zm.06.123l.02.05-.06-.11c.002 0 .01.005.033.06zm1.72 1.89c-.01.01-.02.01-.02.01l.01-.02c0-.006.01-.01.01-.01 0 .005 0 .013-.01.02zm-.17-.18c-.01 0-.02-.01-.02-.02l.01.01s.01.015.004.01zm-.08-.08c-.01 0-.01-.006-.01-.01 0-.005 0 0 .01.005.01.006.01.01 0 .006zm-.4-.34c0 .05-.005.06-.015.05-.003 0-.003-.03 0-.058.002-.025.006-.05.007-.05l.003.058zm-.22-.25h-.014c0-.008 0-.01.005-.01h.02v.01zm-.036.012c-.01.005-.015.005-.017 0 0 0 0-.002.006-.005.004-.008.01-.008.013 0 0 0 0 .004-.007.01zm-.05.04c-.004.006-.013.01-.02.01-.015.005-.015 0-.003-.01l.02-.01c.01.007.01.01 0 .014zm13.667 3.45c0 .008.01.015.02.018.01.008.01 0 0-.01s-.01-.01-.01 0zm-.08-.083c0 .005.01.01.01.013.01.003.01 0 0-.01 0-.006-.01-.01-.01-.004zm.03.044s.01.01.02.01c.01.002.01 0 0-.01s-.01-.01-.01-.005zm-.08-.08l.02.01s.01 0 0-.01c0-.006-.01-.01-.01-.004zm.04.042c.01.005.01.012.02.015.01 0 .01 0 0-.01 0-.01-.01-.01-.01-.004zm-.08-.08c0 .004.01.01.01.013.01 0 .01 0 0-.01s-.01-.01-.01 0zm.03.04c0 .006.01.015.02.02.01.004.01 0 0-.012-.01-.01-.01-.014-.01-.008zm-.13-.116c0 .006.01.01.01.01.01.007.01 0 0-.003s-.01-.01-.01-.01zm-.05-.04c0 .008.01.01.01.017.01 0 .01 0 0-.01 0-.01-.01-.01-.01-.01zm-.05-.033l.01.01c.01 0 .01 0 0-.01 0-.01-.01-.01-.01-.01zm-.14-.11s.01.01.02.01.01 0 0-.01l-.01-.01zm-.05-.04l.01.01c.01 0 .01 0 0-.01 0-.01-.01-.01-.01-.01zm-.05-.04s.01.01.02.01.01 0 0-.01c0-.01-.01-.01-.01-.01zm-.1-.08l.01.01c.01 0 .01 0 0-.01 0-.01-.01-.01-.01-.01zm-.05-.04l.01.01c.01 0 .01 0 0-.01 0-.01-.01-.01-.01-.01zm-.15-.11s.01.01.02.01c0 0 0-.01-.01-.01-.01-.01-.01-.02-.01-.01zm-.05-.04s.01.01.02.01.01 0 0-.01c0-.01-.01-.01-.01-.01zm-.05-.04l.01.01c.01 0 .01 0 0-.01l-.01-.01zm-.05-.04l.01.01s.01 0 0-.01c0-.01-.01-.01-.01-.01zm-.05-.04l.01.01c.01 0 .01 0 0-.01 0-.01-.01-.01-.01-.01zm-.05-.04l.01.01s.01 0 0-.01l-.01-.01zm-.3-.22l.01.01s.01 0 0-.01l-.01-.01zM13.43 6.7c-.008 0 0 .002.02 0 .032-.01.04-.02.01-.01-.01 0-.03 0-.03.01zm9.393 9.16l-.003.01h.01s.003-.01 0-.01h-.01zm-.07-.06s0 .01.01.01c.006 0 .006 0 0-.01s-.01-.01-.01-.01zm-.05-.04s0 .01.01.01c.006 0 .006 0 0-.01s-.01-.01-.01-.01zm-.1-.07s.005.01.01.01c.01.01.01 0 0 0-.005-.01-.01-.01-.01-.01zm-.052-.04c0 .01.01.01.01.02.01 0 .01 0 0-.01l-.01-.01zm-.05-.03s0 .01.01.01.01 0 0-.01l-.01-.01zm-.05-.04s.01.01.02.01v-.01l-.01-.01zm-.05-.04l.01.01c.01 0 .01 0 0-.01 0-.01-.01-.01-.01 0zm-9.03-8.81l-.01.01c.02.01.02.01.03-.01.01-.02.01-.02-.01-.006zm8.93 8.73s.01.01.02.01.01 0 0-.01-.01-.01-.01-.008zm-.09-.07s0 .01.01.01.01 0 0-.01-.01-.01-.01-.008zm-.05-.04l.01.01c.01 0 .01 0 0-.01 0-.007-.01-.01-.01-.005zm-.05-.04s0 .01.01.01c.01.003.01 0 0-.008s-.01-.01-.01-.007zm-.05-.04c0 .01 0 .01.01.013s.01 0 0-.005c-.01-.01-.01-.01-.01-.004zm-8.71-8.5c0-.01-.01-.006-.01.01 0 .01-.01.01-.01.01 0-.007-.01 0-.01.003 0 .01-.01.01-.01.008 0 0-.01 0-.01.01s-.01.02-.02.01c-.01 0-.05.04-.16.14l-.14.14-.01.09c0 .05-.01.11-.01.13v.02c0-.01-.03.18-.04.23 0 .01.03-.01.06-.05.05-.04.07-.06.11-.08l.06-.02-.01-.07c-.01-.05-.01-.09 0-.12s.02-.06.01-.08c0-.01.01-.03.01-.03l.01.02c0 .02.02-.02.06-.11l.05-.13.06-.03c.06-.03.09-.05.06-.04 0 .01-.01 0-.01 0zm-.24.27c-.01.003-.03.012-.03.02s.01 0 .01-.006l.02-.01c.01 0 .01 0 0 .01-.01 0-.03.02-.05.03-.03.01-.03.01-.03 0 .01-.01 0-.01-.01 0s-.01.02-.01.02c.01 0 .01.01 0 .01-.01.02-.01.025-.01.007.01-.03-.01 0-.03.04-.01.03-.01.04-.02.03 0-.02.03-.08.06-.11s.11-.07.13-.07c.01 0 0 .01-.01.02zm-.05.03c0 .005 0 .005.01 0 .01-.01.01-.013.01-.013l-.01.01zm8.96 8.18c0 .005.01.01.01.01.01 0 .01 0 0-.01 0-.01-.01-.01-.01 0zm-.05-.034c.01.01.01.015.02.02.01 0 .01-.005 0-.01l-.01-.01zm-.05-.04c0 .005.01.01.01.013.01 0 .01 0 0-.01l-.01-.01zm-.04-.03c0 .003 0 .01.01.012.01 0 .01 0 0-.01s-.01-.01-.01-.007zm-.06-.045l.01.01s.01 0 0-.01l-.01-.01zm-.04-.03l.02.02c.01 0 0 0-.01-.02l-.01-.01zm-.05-.04s.01.01.02.01.01 0 0-.01l-.01-.01zm-.05-.04c.01 0 .01.01.02.01s0-.01-.01-.01c-.01-.01-.02-.01-.01-.01zm-.05-.04s0 .01.01.01v-.01l-.01-.01zm-.04-.03l.01.01-.01-.01c-.01-.01-.02-.01-.01-.01zm-.05-.04l.01.01-.01-.01c-.01-.01-.02-.01-.01 0zm-.06-.04l.01.01-.01-.01c-.01-.01-.01-.01-.01 0zm-.05-.04l.01.01-.01-.01c-.01-.01-.01-.01-.01 0zm-.05-.04c0 .01.01.01.02.02l-.01-.01s-.02-.02-.02-.01zm-.05-.04c0 .01.01.01.01.02l-.01-.01-.01-.01zm-.06-.04c0 .01.01.02.02.02l-.01-.01-.01-.01zm-3.15-3.05c0 .01 0 .01.01 0 .01 0 .01-.01 0-.01s-.01.01-.01.01zm3.09 3.02l.02.02c.01 0 .01 0-.01-.01l-.01-.01zm-.05-.04c0 .01.01.02.02.02l-.01-.01-.01-.01zm-.05-.04c0 .01.01.02.02.02l-.01-.01-.01-.01zm-.05-.03c0 .01.01.02.02.02 0 .01 0 0-.01-.01s-.01-.01-.01 0zm-2.97-2.86c0 .01 0 .01.01 0s.01-.01 0-.01c0 0-.01.01-.01.02zm2.71 2.67c-.08-.05-.14-.1-.14-.09.01.01.32.24.33.24l-.02-.02-.17-.13zm-.22-.15c-.02-.02-.03-.02-.01-.01.01.01.03.03.05.04.04.03.01 0-.03-.03zm-.07-.05l.02.02c.01 0 .01 0 0-.01l-.01-.01zm-.05-.04l.02.02-.01-.01-.01-.01zm-.05-.04l.02.02c.01 0 .01 0 0-.01s-.02-.02-.02-.01zm-.05-.04c.01.01.02.02.02.03.01.01.01 0-.01-.01-.01-.01-.02-.01-.01-.01zM20.3 14c.003.01.01.02.02.02.007.01.005 0-.005-.01s-.02-.01-.02-.01zm-.05-.03l.02.02c.01 0 .006 0-.005-.01-.01-.01-.02-.02-.02-.01zm-.05-.04s.01.01.016.01c.01.01.01 0 0-.01s-.012-.01-.01 0zm-.05-.04l.02.02c.005 0 .003 0-.007-.01s-.015-.02-.013-.01zm-.05-.04l.02.02-.01-.01c-.01-.01-.016-.02-.013-.01zM18 11.83c-.01.01-.04.02-.118.05l-.104.03-.14-.03-.16-.04c-.02-.01-.02 0-.044.04-.02.02-.03.05-.04.06-.01.01 0-.01.02-.05.01-.03.03-.06.02-.07-.01 0-.01-.01-.04.06-.04.06-.08.1-.11.12-.01.01-.01 0 .02-.02.02-.02.04-.04.066-.09.02-.03.03-.06.03-.06 0-.002-.06-.024-.127-.05-.07-.023-.19-.07-.26-.102-.11-.05-.14-.055-.14-.044-.05.12-.12.21-.18.23-.02.01-.04.02-.046.03-.004.01-.022.01-.04 0-.043-.01-.044-.02 0-.02.09.01.18-.08.245-.23.01-.02.012-.04.01-.05-.015-.01-.025 0-.038.03-.05.13-.172.26-.22.24-.01 0-.01 0 .01-.01.05-.016.11-.07.14-.123.057-.1.07-.14.057-.14-.07-.03-.45-.26-.6-.37-.05-.03-.06-.04-.07-.03-.07.17-.13.28-.18.31-.05.03-.04.02 0-.02.05-.04.1-.12.14-.21.04-.08.04-.09 0-.11-.03-.02-.12-.09-.31-.24-.05-.04-.09-.07-.1-.06-.01 0-.01 0-.01-.01.02-.01-.02-.04-.03-.03-.01.01-.01.01 0 0s.01-.02 0-.02c-.01-.01-.17-.15-.37-.34-.09-.08-.2-.19-.25-.23l-.15-.15c-.04-.04-.14-.16-.24-.26l-.28-.31c-.06-.06-.12-.14-.14-.16l-.07-.09-.07-.09c-.02-.03-.06-.07-.09-.11s-.05-.06-.05-.07c-.01-.01-.01-.02-.02-.02s-.04-.05-.08-.09c-.11-.15-.1-.14-.15-.12-.1.03-.18.07-.23.12-.06.06-.08.05-.02-.01.05-.05.14-.092.23-.124.06-.02.06-.02.05-.03 0-.01-.01-.02-.01-.02l-.08.03c-.1.04-.18.087-.22.13-.03.03-.03.038-.01.06.01.02.01.03 0 .02-.003 0 0 0 .01.01.03.02.05.06.03.06-.01 0 0 .01.018.02.02.017.02.02.01.02s-.01.01 0 .017.01.01.01.016c-.005 0 0 .01.01.02s.015.01.01.02c0 0 0 .01.01.012s.02.01.02.02c0 0 .003.01.02.02l.01.01c-.01.004-.01.01.01.02.01.007.01.016.01.02-.01 0 0 .01.01.017.01.01.02.02.01.02 0 .01 0 .01.01.02l.02.02c-.01.004 0 .01.01.02s.02.014.01.02c0 .005.01.024.03.04.02.02.03.03.02.04 0 0 0 .01.02.02.02.02.02.02.01.02s-.01.01.01.02.04.03.05.05c.01.024.01.03 0 .02-.01-.01 0 .004.01.032.02.03.04.05.04.05.008 0 0-.004 0-.01-.01-.01-.01-.013-.01-.02h.02c0 .007.01 0 .02 0 .01-.01.105-.05.105-.04l-.056.03c-.07.04-.07.04-.05.05.01.01.03 0 .08-.02.034-.02.07-.03.074-.03.02 0 0 .01-.06.04-.04.01-.07.03-.07.04-.01.01-.02.01-.03-.01-.02-.01-.02-.02-.01-.01.02.04.37.44.41.48.02.03.04.04.03.04-.02 0 .06.12.09.15.01.01.02.02.02.04s.046.07.26.27c.23.23.26.25.36.32l.255.19.6.45.16.09c.09.05.14.07.13.06 0-.01 0-.005.01.01s.02.02.02.016c0-.006.01 0 .03.013.01.01.02.02.03.015 0 0 .01 0 .01.005 0 .01.13.08.13.07 0-.01 0-.008.01 0 .02.04.4.2.58.24l.07.02c.03.02.16.05.21.05.03 0 .04 0 .02.01s-.03.01-.02.02c.01.01.02.01.03 0 .03-.01.04-.01.03.01 0 .01 0 .01.01 0s.01-.01.01-.02c0 0 0-.01.01-.02s.02-.01.02 0h.03c.05-.02.2-.03.21-.02.016.02.05.01.045 0 0-.02 0-.02.05-.04.02-.01.07-.03.11-.047.06-.03.09-.04.13-.09.06-.05.09-.09.08-.097 0 0-.01.007-.01.017zm-.79.25c-.024-.01-.17-.05-.194-.06-.012 0 .08.01.13.03.03.01.065.02.076.03l.02.01h-.03zm-1.03-.83c-.04.1-.085.18-.144.24-.06.07-.07.07-.1.04l-.02-.02.03.01c.027.01.04 0 .06-.01.04-.03.11-.13.15-.23.04-.08.06-.11.03-.03zm-.577-.37c-.01.01-.01.01-.01 0 .005 0 .01-.01.02-.01s.01.01-.004.01zm-.16.07c-.03.02-.13.04-.17.04-.02 0-.04 0-.04.01 0 0-.02 0-.032-.01-.04-.02-.04-.02-.04-.03l.04.02c.02.01.05.016.12.007l.11-.02c.03-.01.04-.01.01.005zm-.04-.04c-.043.02-.114.03-.17.03-.07 0-.07-.01 0-.01.05 0 .08-.01.19-.03.02 0 .01 0-.01.01zm.407.53c-.01-.01-.02-.01-.02-.02l.01.01s.01.01 0 .01zm-.04-.02c-.01-.01-.02-.01-.02-.02s0 0 .01 0l.01.01zm-1.15-1.11l-.08.02c-.06.01-.06.01-.09-.01s-.03-.04-.004-.04c.01 0 .04 0 .07-.01.03 0 .05-.01.05 0s-.07.03-.1.03-.03 0-.02.01c.02.02.04.02.08.01.03-.01.05-.01.056-.02h.03c.01 0 .01 0 0 .01zm1.05 1.04c-.01 0-.01-.01-.02-.01l.01.01s.01.016.01.01zm-.22-.16c-.01 0-.02-.01-.02-.01l.01.01.01.01zm-1.12-1.03l-.01-.01s.005 0 .01.01c.01.01.015.01.01.01zm5.66 3.62c0 .01.01.01.02.02.01 0 .01 0 0-.01s-.01-.01-.01 0zm-.05-.03c.01 0 .01.01.02.01s.01 0 0-.01-.01-.01-.01 0zm-.05-.04s.01.01.02.01.01 0 0-.01-.01-.01-.01 0zm-.04-.04c.01.01.01.02.02.02.01.01.01 0 0-.01s-.01-.01-.01 0zm-.04-.03c0 .01 0 .01.01.02s.005 0 0-.01l-.01-.01zm-.05-.03c0 .01.01.01.013.02.01 0 .004 0 0-.01-.01-.01-.017-.01-.01-.01zm-.05-.04c0 .01.01.01.012.02.002 0 0 0-.01-.01-.003-.01-.01-.01-.01-.01zm-.058-.04s0 .01.01.01.004 0 0-.01-.01-.01-.01 0zm-.05-.04c0 .01 0 .01.01.01.01.01.01 0 0 0l-.01-.01zm-.057-.04c0 .01.01.01.014.02v-.01c-.01-.01-.02-.01-.02-.01zm-.05-.03s.006.01.01.01c.01 0 .01 0 0-.01-.004-.01-.01-.01-.01-.01zm-.05-.04c.005.01.01.01.02.02.005 0 0 0-.006-.01-.01-.01-.02-.01-.02 0zm-.05-.04s.004.01.01.01c.01.01.01 0 0-.01-.006-.01-.01-.01-.01 0zm-.05-.03c0 .01.01.01.016.02.01.008.01 0 0-.01s-.02-.01-.01 0zm-.05-.04c0 .01.01.02.015.02.01 0 .01 0 0-.01s-.01-.01-.01 0zm-.046-.03c0 .01.01.02.01.02l-.01-.01-.01-.01zm-.06-.04c0 .01 0 .01.01.02.01 0 .01 0 0-.01s-.01-.01-.01-.005zm-.05-.03c0 .01.01.02.01.02.01.01.01 0 0-.01s-.02-.01-.01 0zm-.06-.04c0 .01.01.02.02.02l-.01-.01-.02-.01zm-.06-.03c-.01.01 0 .01.01 0s.01-.01 0-.01-.01.01-.01.01zm-.04-.03c0 .01 0 .01.01.01s.01 0 0-.01-.02-.01-.02 0zm-.05-.04s0 .01.01.01c.01.007.01 0 0-.01s-.01-.01-.01 0zm-.05-.04c0 .008 0 .01.01.01.01.008.01 0 0-.002s-.01-.01-.01 0zm-.05-.04c0 .01 0 .01.01.018s.01 0 0-.01c-.01 0-.01-.01-.01 0zm-.06-.04c0 .01.01.01.01.02.01 0 .01 0 0-.01 0-.01-.01-.01-.01-.006zm-.05-.03l.01.01c.01 0 .01 0 0-.01 0-.01-.01-.01-.01-.01zm-.05-.04c0 .003 0 .01.01.01s.01 0 0-.01-.01-.01-.01-.004zm-.05-.04s0 .01.01.01.01 0 0-.01c-.01-.007-.01-.01-.01-.005zm-.05-.04s0 .01.01.01c.01.003.01 0 0-.007l-.01-.01zm-.05-.04c0 .004 0 .01.01.013.01 0 .01 0 0-.01l-.01-.01zm-.05-.04c0 .007 0 .01.01.015v-.004c-.01 0-.01-.01-.01 0zm-.05-.035c0 .01 0 .01.01.016-.01-.01-.01-.01-.01 0zm-.06-.034c0 .01.01.01.02.02.01 0 .01 0 0-.01s-.01-.01-.01 0zm-.1-.07c0 .01.01.01.01.02.01.01.01 0 0 0s-.01-.01-.01-.01zm-.1-.07l.01.01c.01 0 .01 0 0-.01s-.01-.01-.01 0zm-.43-.39h.02c.01 0 .01-.01 0-.01s-.02.01-.02.01zm.33.31s0 .01.01.01v-.01c-.01-.01-.02-.01-.02 0zm-.05-.03c0 .01.01.01.02.01s.01 0 0-.01-.01-.01-.01 0zm-.05-.04c0 .01.01.01.01.01.01.01.01 0 0 0s-.01-.01-.01 0zm-.05-.04c0 .01.01.01.01.02.01.01.01 0 0 0l-.01-.01zm-.05-.03c0 .01 0 .01.01.02.01 0 .01 0 0-.01l-.01-.01zm-.17-.15c-.02.01-.02.01 0 .03.03.03.05.01.02-.03h-.02zm.06.08c0 .01.01.01.02.02s.01 0 0 0c-.01-.01-.01-.01-.01 0zm-.2-.04c-.08.01-.16.02-.18.02-.01 0-.01 0 0 .01.01.02.03.02.12 0l.11-.02c.01-.01-.02-.01-.06 0zm-4.27-4.07c-.09.03-.15.07-.19.13l-.03.05c-.01.03 0 .07.01.08.01.01.01.01-.01 0s-.02-.01-.01 0 .03.04.04.07c.04.06.05.07.02.01-.02-.05-.03-.07 0-.03.06.11.13.27.12.26-.01 0 0 .01.01.01.01.01.02.02.01.02s-.01.01 0 .02.01.01 0 .01-.01 0 0 0c.01.01.03.05.02.05-.01.01-.01.01 0 .01.02.01.04.05.03.05-.01 0-.01.01 0 .01s.02.01.03.02c.01.02.01.03 0 .02-.01 0 0 .01.01.02.03.02.03.02.05 0 .03-.04.14-.1.22-.13.05-.01.08-.03.08-.03s-.03-.06-.08-.13c-.08-.13-.09-.14-.19-.34l-.08-.14c-.01 0-.05.02-.09.03-.06.03-.08.04-.12.08-.04.04-.05.06-.06.08 0 .02-.01.03-.02.03V8.3c.02-.05.11-.14.19-.17.09-.04.09-.04.09-.05-.01-.003-.04 0-.07.02zm3.61 4.52c-.04.03-.05.04-.04.05 0 0 .02 0 .05-.04.04-.04.05-.06.04-.06l-.05.04zM12.26 8l-.725-.576-.52-.41c-.18-.137-.36-.28-.4-.312l-.31-.245-.46-.362-1.56-1.24c-.11-.084-.21-.166-.23-.182-.06-.044-.27-.22-.77-.61l-.5-.39-1.22-.962-.36-.28-.4-.32-.4-.31c-.11-.09-.47-.38-.57-.45L3.5 1.1 3.04.73 2.53.32C2.513.3 2.483.28 2.47.27L2.44.247 2.203.58l-.353.5c-.45.64-.542.772-.55.79-.005.01-.053.08-.107.155-.17.233-.4.556-.416.584l-.065.09c-.13.18-.453.64-.472.67-.014.02-.017.04-.01.05l1.185.88 1.513 1.12.417.31c.083.06.75.55 1.18.87.795.59.947.7.954.7l.06.04s.12.1.21.16l.36.27c.11.08.23.17.26.19l.16.12.15.11.2.15.19.15.04.03.1.07.13.1.12.08.17.12c.05.03.11.08.14.11.02.02.07.06.1.08.12.08.13.09.13.1 0 .01 0 .02.01.03.01 0 .32.23.7.51l.72.53c.02.02.05.04.06.05.01.01.03.02.04.02.01 0 .01 0-.01-.02l-.02-.02c0-.01.02 0 .04.01.01.01.03.02.04.02 0-.01.01 0 .01.01h.01c.01-.01.32-.27.75-.63.13-.12.23-.19.22-.18 0 .01 0 0 .02-.02.02-.03.04-.04.1-.07.09-.03.13-.06.12-.07 0-.01.14-.13.22-.19.05-.03.05-.04.08-.09.01-.03.04-.07.06-.08.04-.04 1.05-.86 1.14-.92.02-.02.03-.01-.14-.15zm-1.59 1.52c-.004.003-.01.004-.017.003-.01 0-.01 0-.01-.01h.014c.007 0 .01.01.005.01zm-1.176.77c-.003 0-.02-.01-.035-.026-.03-.02-.03-.025-.01-.02.02.01.05.04.04.044zm4.236-.818c.003.006.01.013.016.016.008.004.005 0-.003-.01-.01-.01-.02-.01-.02-.005zM12.4 8.247c-.004.006 0 .006.007 0 .007-.007.01-.01.005-.01-.003 0-.01.003-.012.01zm4.317 4.427c-.08.07-.096.09-.067.084.015-.004.16-.146.153-.152-.003-.002-.04.028-.087.068zm-9.61-8.76c.004.005.01.012.017.015.006 0 .004 0-.005-.01-.01-.01-.02-.01-.01-.01zm-.063-.05c.002.005.01.012.016.015.005 0 .003-.01-.006-.01-.01-.01-.014-.01-.01-.01zm-.064-.05c0 .005.01.013.018.018.007.004.005 0-.005-.01-.01-.012-.017-.015-.014-.01zm-.062-.05c0 .006.006.01.012.014.007.003.007 0 0-.008-.006-.006-.012-.01-.012-.005zM6.844 3.7c.002.006.01.014.02.02.007.004.005 0-.006-.012-.01-.01-.017-.014-.014-.008zm-.152-.124c-.01 0 .06.06.084.074.014.008.003-.004-.027-.03-.03-.024-.06-.043-.06-.044zm-.25-.202c-.278-.222-.418-.33-.39-.297.014.015.162.133.33.263.166.13.295.228.284.217-.01-.01-.11-.093-.223-.183zM5.75 2.82l-.254-.204c-.065-.053-.122-.097-.124-.097-.022 0 .022.04.216.19l.326.25c.104.08.104.08.038.02-.037-.04-.128-.11-.202-.17zm-.626-.5c-.128-.1-.25-.197-.49-.392-.213-.172-.617-.496-.843-.675L3.37.917C3.25.82 3.14.73 3.12.717L2.637.33c-.16-.127-.16-.127-.174-.113-.015.015-.008.023.075.085l.358.282c.166.13.347.274.4.317l.164.13.164.13.273.22.336.27.27.22c.244.2.704.56.73.58.015.01.03.02.03.01.003-.01.004-.01-.14-.12zm-.63-.543C4.434 1.73 4.39 1.7 4.4 1.71c.015.017.22.18.24.193.033.02-.052-.053-.147-.126zm-.206-.163c-.03-.02-.033-.022-.015-.005l.063.05c.035.02.036.02.014 0-.014-.02-.042-.04-.062-.05zm-.093-.07c.006.01.02.023.03.03.008.005.003-.002-.013-.018-.016-.015-.023-.02-.017-.01zm-.067-.053c.004.01.016.02.025.03.01.01.006 0-.008-.01s-.022-.02-.017-.01zm-.07-.05c.004.01.015.02.025.03.01.01.006 0-.01-.01-.013-.01-.02-.02-.016-.01zm-.065-.05c.005.01.015.02.023.02.007.01.004 0-.01-.01-.01-.01-.017-.01-.013-.01zm-.08-.06c.003.01.01.02.02.02.007.01.005 0-.006-.01-.01-.01-.017-.01-.014 0zm-.058-.04c.003.01.01.02.016.02.01.01.01 0 0-.01s-.01-.01-.01 0zm-.07-.05c.002.01.01.01.016.02.01.01.01 0 0-.01s-.01-.01-.01 0zm-.064-.05l.02.02c.01.01.01 0 0-.01s-.01-.01-.01 0zm-.07-.06c.01.01.01.02.02.02s.01 0 0-.01-.01-.01-.01 0zm-.06-.05c.01.01.01.02.02.02s.01 0 0-.01-.01-.01-.01 0zM3.52 1c0 .005.005.01.012.014.006.003.006 0 0-.008C3.52 1 3.52.996 3.52 1zM3.45.95c.003.006.01.014.02.02.008.003.006 0-.005-.012-.01-.01-.02-.014-.02-.008zM3.38.894c0 .005.005.01.012.013.007.003.007 0 0-.008S3.378.89 3.378.89zm-.064-.05c0 .004.005.01.012.013.007.003.007 0 0-.008S3.314.84 3.314.84zM3.246.79c.003.007.01.014.016.017.006.002.004-.003-.005-.01-.008-.01-.013-.012-.01-.006zM3.182.74c.003.007.01.014.016.016.006.003.004-.002-.005-.01-.01-.01-.014-.01-.01-.005zM3.11.68c0 .005.004.01.01.013.008.003.008 0 0-.007C3.115.68 3.11.676 3.11.68zM3.04.63c.004.006.01.013.017.015.006.003.004-.002-.005-.01-.01-.01-.014-.01-.01-.005zM2.977.58c.002.006.01.013.016.015.006.003.004-.002-.005-.01-.01-.01-.014-.012-.01-.005zM2.91.524c0 .004.005.01.012.012.007.003.007 0 0-.007C2.915.52 2.91.52 2.91.52zM2.842.47c.003.007.01.014.016.017.006.002.004-.003-.005-.012-.008-.008-.014-.01-.01-.004zM2.778.42c.003.007.01.014.016.016.006.003.004-.002-.005-.01-.01-.01-.02-.01-.02-.005zm-.07-.056c.002.006.01.013.015.016.007.002.004-.003-.004-.01C2.71.36 2.7.358 2.7.364zm-.065-.05c.003.006.01.013.016.016 0 .002 0-.003-.01-.01-.01-.01-.01-.012-.01-.006zm-.07-.057c.002.006.01.013.016.016 0 .003 0-.002-.01-.01-.01-.01-.02-.013-.01-.006zM2.503.2c.002.007.01.014.015.017.006.002.004-.003-.005-.01C2.505.197 2.5.194 2.503.2zm-.09-.06s-.434.617-.96 1.372C.16 3.372.128 3.418.128 3.427c0 .004.09.074.198.155l1.762 1.31L4.25 6.5l.984.73.237.176.62.456.7.515.43.317.59.44c.17.12.53.387.8.59l.76.562.26.194.03-.016c.01-.01.06-.042.09-.073.12-.09.23-.18.28-.21.06-.04.23-.19.22-.2 0 0-.03.02-.06.05-.24.21-.45.38-.47.4-.02.02-.03.02-.06 0-.02-.01-.3-.22-1.36-1-.19-.14-.22-.16-.21-.18 0-.01-.02-.03-.06-.05-.02 0-.07-.04-.13-.08l-.14-.1-.26-.19-.36-.27-.36-.27c-.12-.09-.26-.19-.32-.23l-.26-.19-.21-.16c-.17-.11-.38-.28-.41-.31-.02-.02-.04-.04-.06-.04-.01 0-.15-.1-.3-.21l-1.04-.78-2.98-2.2c-.7-.51-.9-.66-.94-.69-.04-.04-.05-.05-.04-.06.01-.01.01-.02.01-.03 0-.03 0-.03.21-.33l.24-.33.23-.32.07-.1c.06-.09.13-.17.15-.18.03-.01.18-.23.19-.27.01-.02.03-.06.07-.12.04-.05.1-.13.13-.18l.12-.17.12-.16L2 .9l.1-.17.12-.17.12-.17c.03-.042.08-.11.11-.142l.04-.06L2.45.16C2.43.145 2.42.14 2.416.14zm8.408 9.37c-.04.014-.03.02.01.023.03 0 .06.018.07.046.01.01 0 .02-.02.04-.04.04-.1.12-.1.13.01 0-.03.05-.11.12-.13.13-.12.14.02.01.08-.07.11-.1.11-.12.01-.02.01-.03.03-.03.02 0 .05-.03.12-.1.06-.05.09-.1.09-.1l-.06.06c-.06.06-.09.08-.1.05 0-.02.08-.09.13-.13l.03-.02-.04-.04-.04-.04-.04.03c-.02.02-.05.04-.07.04zm.1.117c-.02.025-.02.025.01 0 .02-.015.05-.037.06-.05.02-.02.02-.02-.01 0-.02.014-.04.036-.06.05zm-.4.403c-.03.03-.01.027.03-.003.02-.015.03-.023.02-.02-.01 0-.02.012-.03.023zm-.07.07c-.02.02-.02.024 0 .04.03.02.03.02.02-.002-.01-.014 0-.026.01-.04.02-.027.01-.027-.01 0zm-.18.204c-.08.084-.18.205-.23.292-.01.02-.05.063-.08.097-.08.09-.27.338-.27.355.01.017-.02.047-.04.048-.01 0-.01.003-.01.01v.023s-.01.02-.01.04v.03l.02-.02c.01-.01.04-.05.07-.08.03-.04.08-.1.11-.14.03-.04.06-.08.05-.08l-.02.02s-.01.02-.01.01.02-.03.04-.06c.09-.09.16-.18.24-.28.04-.06.12-.15.18-.21.13-.14.14-.15.12-.17l-.01-.02-.09.09zm-.48.65c0 .003-.01.004-.01.003 0 0 0-.005.01-.01.02-.005.03-.003.02.006zm4.9 3.525v.01s-.01.03-.04.06l-.04.05h-.04c-.04-.01-.05.01-.01.02.03.01.04 0 .07-.02.02-.02.05-.04.07-.05.02-.01.03-.03.03-.04.01-.03-.01-.05-.02-.04zm-.03.12h.02c.01-.01.01-.01 0-.01h-.02zm-.17.06c-.02.01-.04.03-.05.04-.02.02-.02.02 0 .01.01-.01.03-.02.05-.04.02-.02.04-.03.07-.03h.05l-.03-.01c-.03-.01-.04-.01-.07.01zm-.05-.06c-.03 0-.04.01-.12.1-.07.08-.08.09-.08.11 0 .01.01.02.02.01.01 0 .05-.04.1-.08s.11-.1.13-.12l.05-.04h-.03c-.01-.01-.04 0-.06 0zm-.14.26s0 .03.01.05c.02.04.03.05.03.02 0-.02 0-.03-.01-.04-.01-.01-.01-.02-.01-.04v-.03l-.01.01zm-.05-.01c-.01 0-.02 0-.02-.02-.01-.03-.01-.02-.01.06v.08l-.05.04c-.06.05-.05.05.05.01.09-.04.12-.07.1-.11-.03-.05-.04-.07-.06-.05 0 0-.01.01-.02 0s.02-.03.04-.03c.01 0 .02-.01.02-.01 0-.01-.01-.01-.02 0zm.04.1h-.01v-.02l.01-.01v.01zm-4.65-4.57c0 .01.03.02.04.01.01-.01 0-.01-.01-.01s-.02-.01-.02 0zM14.28 15c-.02.024-.044.036-.12.067-.07.03-.095.036-.104.027-.006-.006-.014-.008-.017-.005l-.02.01c-.01 0-.01.01 0 .02s0 .04-.03.04c-.03-.01-.03-.01-.02-.02.02-.02-.02 0-.1.05-.14.08-.14.08-.15.08-.01 0-.05-.03-.1-.05-.07-.04-.09-.05-.11-.04-.02 0-.03.01-.03.01 0 .01.14.08.16.07 0 0 .01 0 .02.01.02.02.13-.01.2-.05.01-.01.02-.01.02-.01l.03-.02c.02-.02.02-.03.03-.02.01.02.02.01.09-.04.03-.02.07-.04.08-.05.04-.01.18-.14.16-.15l-.03.03zM.917 2.375c-.004.006 0 .006.007 0 .007-.01.01-.013.005-.013s-.01.01-.02.016zm-.043.055c-.02.03-.01.03.01 0 .01-.018.016-.03.013-.03-.004 0-.013.01-.022.024zm-.09.122c-.015.02-.025.037-.02.037.002 0 .017-.02.033-.04.015-.02.025-.04.022-.04-.01 0-.02.01-.04.03zm8.774 8.62c-.01.01-.01.03 0 .03s.02-.027.012-.033c-.002-.01-.01 0-.014 0zm-.01.05c-.005.002-.01.022-.007.045 0 .023 0 .047-.01.054-.01.02 0 .04.02.07.01.02.02.05.02.07.01.03.01.05.02.05s.01-.01.01-.02-.01-.02-.01-.02 0-.03-.02-.06c-.01-.03-.02-.07-.01-.08.01-.03.02-.08.02-.09h-.01zM.6 2.82c-.316.444-.37.523-.37.53 0 .02.003.013.258-.35l.188-.27c.05-.07.084-.124.08-.12-.007.002-.077.097-.157.21zm8.915 8.444c0 .02 0 .037.004.037s0-.06-.01-.07l-.01.04zm3.94 3.924c-.028.026-.042.043-.038.048.004.003.022-.01.045-.03.03-.03.042-.038.056-.034.016.003.016.002 0-.01-.017-.013-.02-.012-.063.026zm-3.952-3.855c-.002 0-.002.01 0 .022.002.018.002.018.004 0 .003-.02 0-.027-.004-.022zm.013.063c0 .003.01.028.02.056l.018.05-.004-.04c-.002-.022-.01-.047-.02-.056-.007-.008-.014-.013-.014-.01zm.052.122c-.012-.01-.012-.005 0 .032.012.038.017.047.03.045.01-.002.01 0 0 .004s-.01.02.004.06c.01.03.02.05.023.04.002-.01-.002-.03-.01-.05s-.012-.04-.01-.05c.005-.01.014.01.02.03.017.04.027.05.032.01 0-.02 0-.03-.006-.03v-.05c0-.01-.01-.02-.01-.04-.01-.03-.01-.03-.02-.03s-.02-.01-.03-.01zm.033.045v-.016c0-.002.01 0 .01.003.01.004 0 .01 0 .013zm3.67 3.673c-.26-.044-.33-.063-.46-.11-.07-.03-.16-.062-.2-.075l-.09-.03c-.06-.02 0 .01.08.05.13.06.32.12.45.15.12.03.12.03.1.04 0 0-.01.01 0 .01h.02s.01 0 .02.01l.02.01s.01 0 0 0-.01 0 0-.01c.01 0 .02 0 .02.01.01.01.01.01.02.01.02 0 .04-.01.05 0 .01 0 0 .01 0 .01v.01h.13l-.11-.02zm-2.52-1.676v.025c0 .016.02.035.09.1.07.057.09.083.09.096 0 .02.01.02.01.01.02-.01 0-.04-.08-.14l-.08-.09h-.01zm.34.395c0 .003 0 .01.01.02.02.018.05.036.05.026.01-.01-.04-.05-.04-.04zm-.17-.148l.01.016c.01.007.01.01.01.003 0-.01-.01-.024-.01-.02zm.25.255l.06.06c.02.014.01 0-.02-.033-.03-.04-.05-.05-.03-.03zm-.23-.216s.04.043.1.096c.07.068.09.085.07.057-.03-.04-.15-.16-.16-.16zm-.61-.608c0 .005.01.01.02.013.01.01.01 0 0 0 0 0-.01-.01-.01 0zm1.27 1.25c0 .004.01.01.01.012.01.003.01 0 0-.007s-.01-.01-.01-.005zm-.06-.05c0 .004.01.01.01.012.01.003.01 0 0-.007 0-.007-.01-.01-.01-.005zm-.85-.813c0 .007 0 .007.01 0 .01-.006.01-.01.01-.01s-.01.004-.01.01zm-.26-.28c0 .004.01.01.01.013.01.003.01 0 0-.008 0-.007-.01-.01-.01-.005zm.04.05c0 .005.01.01.01.013.01.003.01 0 0-.008 0-.007-.01-.01-.01-.005zm.06.073c0 .006.01.013.02.016.01.002.01-.003 0-.01-.01-.01-.01-.012-.01-.006zm.07.075c0 .006.01.015.02.02l-.01-.012c-.01-.01-.01-.01-.01 0zm9.87-5.427c-.01.014-.03.003-.03-.02 0-.02.01-.02.03-.004.01.007.01.016 0 .024z"
     id="path4140" />
  <path
     fill="#fff"
     d="M1295.62 793.244c-2.916-7.986-5.22-17.054-5.12-20.152.2-6.357 7.178-19.365 11.675-21.772 2.442-1.307 3.168-.784 4.09 2.944.617 2.493 4.057 11.834 7.644 20.758 3.58 8.924 6.52 16.837 6.52 17.585 0 .747-1.78 2.17-3.95 3.158-2.17.99-6.56 4.093-9.76 6.9l-5.81 5.1-5.3-14.52zm40.52 83.856c-.952-2.048-3.302-6.713-5.223-10.366-6.41-12.19-17.127-35.996-17.127-38.042 0-3.527 15.548-16.037 17.382-13.985.27.302 2.8 5.158 5.624 10.79 2.823 5.632 9.263 17.395 14.31 26.14 5.05 8.744 9.177 16.466 9.174 17.158-.01 1.115-19.707 12.074-21.647 12.04-.42-.006-1.543-1.687-2.494-3.735zm-39.012-152.88c1.48-9.358 3.34-11.3 3.406-3.552.034 4.073.426 5.87 1.063 4.865.643-1.015 1.28-1.155 1.755-.386.55.89-5.11 4.914-6.915 4.914-.128 0 .184-2.62.69-5.84z"
     id="path4142" />
  <path
     fill="none"
     d="M925.982 1055.466c-2.26-1.103-6.128-3.965-8.594-6.36-2.467-2.396-5.902-4.706-7.633-5.134-4.43-1.095-145.386-107.454-148.524-112.07-1.41-2.08-7.45-7.263-13.42-11.518-22.27-15.88-252.21-189.282-263.91-199.026-3.23-2.69-9.83-7.775-14.67-11.303-4.84-3.527-45.79-34.377-91-68.555-45.21-34.18-147.72-111.552-227.8-171.942-80.08-60.39-166.21-125.403-191.39-144.474-25.18-19.07-48.55-36.74-51.92-39.266l-6.13-4.59 11.34-16.588c20.9-30.562 47.52-69.13 72.85-105.533L10.29 123h356.89l60.71 49.067c33.39 26.986 84.75 68.438 114.13 92.117 29.38 23.678 84.39 68.043 122.23 98.59 69.667 56.23 104.033 83.94 240.59 193.993 41.656 33.57 92.38 74.564 112.724 91.098 20.343 16.533 69.484 56.155 109.2 88.048s77.7 62.48 84.404 67.973l12.19 9.985-2.87 2.43c-1.58 1.33-26.59 21.97-55.57 45.87-60.603 49.97-65.056 53.91-69.505 61.61-3.526 6.1-16.592 16.73-20.833 16.95-1.32.07-2.42.92-2.44 1.89-.054 2.64-11.506 13.64-17.25 16.58-3.42 1.75-6.86 2.5-10.77 2.37-7.65-.27-11.28 2.11-11.28 7.4 0 3.67-1.27 5.03-16.734 17.98-9.2 7.71-31.72 26.78-50.036 42.39-18.32 15.61-33.907 28.33-34.64 28.28-.733-.05-3.183-1-5.443-2.1zm875.365 170.756c-14.595-3.717-46.77-15.972-69.107-26.322-25.485-11.81-95.837-59.21-130.507-87.935-13.646-11.305-60.204-54.21-79.312-73.09-13.43-13.27-52.22-56.656-73.5-82.193-8.56-10.274-46.1-59.775-58.77-77.498-11.92-16.665-45.26-78.92-53.76-100.393-12.33-31.13-17.87-51.77-16.77-62.51.32-3.07 3.32-12.75 6.67-21.5l6.09-15.91 17.27-10.01c163.69-94.94 161.91-93.94 166.28-93.12 3.43.65 5.68 0 12.71-3.63 4.7-2.43 56.97-33.4 116.16-68.83l107.62-64.41 8.31 1.18c4.57.65 13.92 2.5 20.77 4.12s14.87 2.95 17.81 2.95c4.75 0 5.86-.53 9.7-4.69 3.77-4.08 5-4.69 9.4-4.69 4.45 0 5.79-.69 11.16-5.77 4.22-3.99 7.99-6.33 12.2-7.58 3.35-.99 8.19-2.99 10.77-4.44l4.68-2.63 9.66 3.15c15.68 5.11 43.26 21.5 70.72 42.03 19.33 14.45 79.37 72.44 120.2 116.11 18.15 19.41 29 33.02 49.66 62.29 17.29 24.49 17.12 24.16 20.26 38.04l2.88 12.77-2.28 6.1c-1.31 3.5-5.59 10.06-10.06 15.4-4.28 5.11-8.82 11.61-10.09 14.44l-2.31 5.14 3.28 9.87 3.28 9.87-5.67 4.99-5.67 4.99 3.17 13.25c2.74 11.46 2.98 13.83 1.76 17.58-4.18 12.89-25.44 49.8-34.6 60.07-10.45 11.71-21.95 30-51 81.06-7.9 13.89-24.27 40.31-36.38 58.71-23.27 35.37-26.23 40.39-27.62 46.97-.48 2.26-1.93 6.22-3.23 8.81-4.67 9.28-32.69 53.36-38.73 60.93-4.04 5.07-8.59 13.14-13.21 23.43-6.4 14.26-9.56 19.19-34.64 53.98l-27.59 38.29-7.81 2.4c-10.03 3.08-11.51 3-29.76-1.65z"
     id="path4144" />
  <path
     fill="none"
     d="M1772.58 1659.336c-77.175-52.678-161.828-110.4-188.12-128.27-26.29-17.87-47.647-33.02-47.458-33.666.19-.646 3.734-4.013 7.88-7.483 4.144-3.47 13.755-12.313 21.357-19.65 7.6-7.34 15.26-14.096 17.02-15.016 1.76-.92 8.15-6.73 14.2-12.91 9.02-9.22 10.9-11.75 10.45-14.09-.4-2.06.13-3.16 1.91-3.99 1.35-.63 5.71-4.11 9.69-7.74 4.66-4.25 8.25-6.58 10.11-6.58 3.72 0 9.07-4.21 9.07-7.13 0-1.47.81-2.26 2.33-2.26 1.28 0 5.38-2.65 9.1-5.89 3.72-3.24 9.59-8.36 13.05-11.38 3.46-3.02 6.83-6.67 7.48-8.11.65-1.44 2.33-2.9 3.72-3.25 3.85-.96 11.9-8.36 14.06-12.92 1.58-3.34 1.67-4.62.51-7.17-1.6-3.51-6.49-6.45-10.72-6.45-4.03 0-15.84 8.12-17.56 12.07-.86 1.98-3.36 4.23-6.15 5.55-2.59 1.23-9.9 7.19-16.26 13.25-8.78 8.37-11.76 11.98-12.37 15.03-.72 3.51-1.35 4.09-5.05 4.6-6.11.85-23.28 17.01-23.28 21.91 0 3.55-2.04 5.09-11.97 9.06-4.65 1.86-24.43 20.05-24.43 22.47 0 .8-1.45 1.77-3.23 2.16-1.93.43-8.87 6.13-17.32 14.24-15.21 14.6-23.92 21.24-30.12 22.98-2.16.61-5.63 2.15-7.71 3.42-4.56 2.8-16.98 18.2-25.24 31.3l-6.01 9.53-10.47.68c-6.52.42-11.54 1.38-13.29 2.53-1.55 1.02-8.24 7.97-14.87 15.45l-12.05 13.6-.59 8.31-.59 8.3-18.79 12.1c-10.33 6.66-19.38 12.12-20.11 12.14-.73.01-5.61-2.35-10.85-5.25-5.24-2.89-11.65-5.61-14.25-6.02-4.5-.72-5.01-.47-10.67 5.19l-5.95 5.94-19-3.49c-10.45-1.92-21.64-4.27-24.87-5.22-13.24-3.9-45.34-16.43-55.77-21.77-14.38-7.37-40.77-23.95-64.98-40.84l-19.15-13.36 1.24-4.65 1.24-4.64-13.48-12.87c-16.12-15.4-14.22-13.49-19.17-19.18-3.57-4.11-4.69-4.68-9.38-4.76-4.97-.1-6.05-.76-16.01-9.72-5.87-5.29-11.38-9.62-12.24-9.62-1.05 0-1.8-2.4-2.3-7.34-.59-5.87-1.35-7.87-3.76-9.98-1.66-1.46-3.91-2.68-5-2.71-1.89-.07-13.51-12.92-14.88-16.47-.84-2.15-9.21-6.95-12.13-6.95-1.24 0-3.69 1.13-5.44 2.51-2.7 2.12-3.42 2.26-4.68.88-3.53-3.86-20.43-25.42-22.44-28.63-1.22-1.94-5.72-8.54-10.01-14.68-7.5-10.73-21.41-32.32-33.1-51.38-3.36-5.47-5.58-10.49-5.59-12.61-.02-3.17-2.88-10.02-7.6-18.2-5.12-8.88-19.91-45.51-22.36-55.43-.56-2.26.13-5.05 2.41-9.71 4.2-8.6 3.5-14-4.36-33.31-7.18-17.64-7.15-20.51.33-30.47 25.73-34.3 58.54-75.08 76.78-95.46 16.22-18.12 18.16-20.63 18.19-23.6.01-1.08 11.78-13.77 26.147-28.18 14.37-14.42 33.99-34.21 43.6-44 12.16-12.38 18.5-17.99 20.85-18.46 3.63-.73 35.24-31.01 53.84-51.59 5.49-6.07 11.12-11.78 12.5-12.68 3.2-2.08 28.28-26.5 47.54-46.29 19.02-19.53 41.62-40.59 42.56-39.64.404.41.73 1.46.73 2.35 0 5.12 10.78 28.71 27.06 59.23 20.154 37.78 23.78 44.04 41.44 71.45 29.19 45.32 36.52 55.47 59.71 82.63 8.32 9.75 20.784 25.87 27.7 35.82 11.24 16.19 15.47 20.99 40.11 45.58 27.05 27 28.39 28.13 75.76 64.27 60.22 45.93 71.6 53.38 118.64 77.67 24.65 12.73 40.26 19.27 64.47 27l17.5 5.59-4 3.53c-20.88 18.42-52.03 47.35-54.6 50.73-3.75 4.92-4.08 9.28-1.06 13.9 4.29 6.54 8.61 6.4 18.357-.62 5.08-3.66 37.36-32.97 53.13-48.25 3.83-3.72 7.26-6.76 7.62-6.76.35 0 2.83-2.14 5.49-4.76 4.52-4.44 5.58-4.87 15.89-6.54 6.08-.98 12.37-1.58 13.99-1.33 1.613.25 48.11 34.27 103.33 75.61 102.1 76.43 385.543 288.34 487.8 364.68l56.285 42.02-270.57-.01-270.578-.01-140.32-95.78zM1297.128 724.22c.508-3.21 1.47-6.777 2.138-7.925.96-1.647 1.22-.9 1.25 3.56.02 3.18.513 5.353 1.128 4.973.602-.372 1.41-.162 1.8.467.566.916-4.9 4.766-6.77 4.766-.257 0-.054-2.62.454-5.84zm2.128 80.148c-.697-1.797-2.82-7.99-4.72-13.76-1.898-5.77-3.923-11.06-4.5-11.754-2.784-3.355 5.49-23.5 11.185-27.232 3.43-2.244 4.7-1.508 5.65 3.285.65 3.22 6.6 18.843 13 34.13l1.83 4.378-4.49 2.29c-2.47 1.26-7.23 4.46-10.58 7.11l-6.09 4.82-1.26-3.267z"
     id="path4146" />
  <path
     fill="none"
     d="M1334.246 873.607c-2.258-4.36-4.922-9.51-5.92-11.448-.998-1.94-4.952-10.2-8.785-18.35l-6.97-14.82 2.29-3.61c2.66-4.2 12.39-11.01 15.01-10.51.99.19 3.32 3.24 5.17 6.79 4.47 8.55 20.84 38.17 24.16 43.71l2.63 4.39-3.15 1.2c-1.73.66-6.76 3.31-11.17 5.88s-8.27 4.68-8.58 4.68c-.31 0-2.41-3.57-4.66-7.93zm189.614 245.113c-4.082-3.156-17.2-15.113-29.155-26.572l-21.734-20.834 3.91-1.84c3.13-1.47 3.99-2.63 4.29-5.813.92-9.54-3.49-13.17-16.47-13.55-7.18-.21-8.51-.6-10.42-3.09-1.2-1.57-2.2-3.68-2.22-4.68-.01-1.01-.96-2.86-2.1-4.11-1.14-1.25-3.12-3.65-4.4-5.33-1.28-1.68-10.65-12.7-20.82-24.5s-18.49-21.78-18.49-22.19c0-.41 2.36-1.99 5.25-3.53 9.68-5.13 8.89-12.34-1.97-17.88-5.18-2.64-9.28-2.82-13.63-.57l-3.2 1.66-7.94-10.75c-8.66-11.73-27.36-39.66-29.14-43.55-.61-1.33-1.86-3.74-2.78-5.34-1.5-2.64-1.42-3.17.91-5.64 3.2-3.4 19.02-11.33 20.63-10.34.65.4 4.12 4.82 7.71 9.82s9.46 12.79 13.06 17.31c3.59 4.52 12.93 16.62 20.74 26.89 7.81 10.28 21.33 26.66 30.05 36.4 8.72 9.75 25.23 28.33 36.7 41.28 18.72 21.14 44.81 47.2 82.92 82.81 13.03 12.18 13.09 12.25 10.87 14.66-1.23 1.33-2.23 3.05-2.23 3.82 0 2.02-4.32 1.71-5.12-.37-.87-2.28-9.13-2.28-24.82-.01-6.46.94-12.01 1.69-12.33 1.67-.32-.02-3.92-2.61-8.01-5.77zm88.5 65.87c-1.75-3.383-8.393-8.333-11.184-8.333-.8 0-2.51-1.346-3.805-2.99-1.29-1.644-4.66-4.08-7.5-5.41s-8.79-5.798-13.25-9.927c-4.46-4.128-8.82-7.52-9.69-7.537-.87-.017-3.43-1.563-5.69-3.434l-4.1-3.41 5.68-1.43c6.25-1.58 12.51-6.12 12.51-9.07 0-1.47.32-1.58 1.41-.48 2.12 2.12 6.56 1.7 11.53-1.09l4.46-2.5 19.78 15.55c10.88 8.55 19.95 16.27 20.16 17.15.89 3.79-14.06 26.31-17.47 26.31-.57 0-1.84-1.54-2.81-3.41zm70.33 41.82c-3.195-2.022-8.186-4.903-11.092-6.403-8.288-4.28-15.69-8.58-17.613-10.235-.97-.833-3.61-2.11-5.87-2.84-2.26-.727-5.83-2.374-7.934-3.657l-3.82-2.334 5.22-7.09c2.88-3.9 6.61-9.93 8.31-13.39l3.09-6.3 17.24 11.41c9.49 6.28 21.87 14.23 27.52 17.67 5.65 3.45 10.28 6.51 10.28 6.82 0 1.24-5.25 9.26-8.11 12.4-1.67 1.84-4.92 4.31-7.21 5.49l-4.17 2.15-5.8-3.67zm69.34 22.033c-3.23-.83-9.04-1.56-12.912-1.622-4.148-.06-10.766-1.35-16.106-3.13l-9.065-3.02 4.742-6c2.6-3.3 5.75-7.99 6.99-10.42l2.25-4.42 6.76 3.01c3.71 1.66 12.83 5.37 20.26 8.24 7.43 2.88 13.94 5.66 14.47 6.18 1.07 1.06-8.5 12.84-10.37 12.76-.65-.03-3.82-.73-7.05-1.56zm33.502 1.92c1.68-1.687 3.588-4.025 4.24-5.196 1.25-2.252 1.07-2.27 20.325 2.21 5.55 1.29-5.372 4.785-17.035 5.45l-10.585.603 3.055-3.067zm15.815-24.14c-14.595-3.718-46.77-15.973-69.107-26.323-25.485-11.81-95.837-59.21-130.507-87.935-13.646-11.305-60.204-54.21-79.312-73.09-13.43-13.27-52.22-56.656-73.5-82.193-8.56-10.274-46.1-59.775-58.77-77.498-11.92-16.665-45.26-78.92-53.76-100.393-12.33-31.13-17.87-51.77-16.77-62.51.32-3.07 3.32-12.75 6.67-21.5l6.09-15.91 17.27-10.01c163.69-94.94 161.91-93.94 166.28-93.12 3.43.65 5.68 0 12.71-3.63 4.7-2.43 56.97-33.4 116.16-68.83l107.62-64.41 8.31 1.18c4.57.65 13.92 2.5 20.77 4.12s14.87 2.95 17.81 2.95c4.75 0 5.86-.53 9.7-4.69 3.77-4.08 5-4.69 9.4-4.69 4.45 0 5.79-.69 11.16-5.77 4.22-3.99 7.99-6.33 12.2-7.58 3.35-.99 8.19-2.99 10.77-4.44l4.68-2.63 9.66 3.15c15.68 5.11 43.26 21.5 70.72 42.03 19.33 14.45 79.37 72.44 120.2 116.11 18.15 19.41 29 33.02 49.66 62.29 17.29 24.49 17.12 24.16 20.26 38.04l2.88 12.77-2.28 6.1c-1.31 3.5-5.59 10.06-10.06 15.4-4.28 5.11-8.82 11.61-10.09 14.44l-2.31 5.14 3.28 9.87 3.28 9.87-5.67 4.99-5.67 4.99 3.17 13.25c2.74 11.46 2.98 13.83 1.76 17.58-4.18 12.89-25.44 49.8-34.6 60.07-10.45 11.71-21.95 30-51 81.06-7.9 13.89-24.27 40.31-36.38 58.71-23.27 35.37-26.23 40.39-27.62 46.97-.48 2.26-1.93 6.22-3.23 8.81-4.67 9.28-32.69 53.36-38.73 60.93-4.04 5.07-8.59 13.14-13.21 23.43-6.4 14.26-9.56 19.19-34.64 53.98l-27.59 38.29-7.81 2.4c-10.03 3.08-11.51 3-29.76-1.65z"
     id="path4148" />
  <path
     fill="none"
     d="M1772.58 1659.336c-77.175-52.678-161.828-110.4-188.12-128.27-26.29-17.87-47.647-33.02-47.458-33.666.19-.646 3.734-4.013 7.88-7.483 4.144-3.47 13.755-12.313 21.357-19.65 7.6-7.34 15.26-14.096 17.02-15.016 1.76-.92 8.15-6.73 14.2-12.91 9.02-9.22 10.9-11.75 10.45-14.09-.4-2.06.13-3.16 1.91-3.99 1.35-.63 5.71-4.11 9.69-7.74 4.66-4.25 8.25-6.58 10.11-6.58 3.72 0 9.07-4.21 9.07-7.13 0-1.47.81-2.26 2.33-2.26 1.28 0 5.38-2.65 9.1-5.89 3.72-3.24 9.59-8.36 13.05-11.38 3.46-3.02 6.83-6.67 7.48-8.11.65-1.44 2.33-2.9 3.72-3.25 3.85-.96 11.9-8.36 14.06-12.92 1.58-3.34 1.67-4.62.51-7.17-1.6-3.51-6.49-6.45-10.72-6.45-4.03 0-15.84 8.12-17.56 12.07-.86 1.98-3.36 4.23-6.15 5.55-2.59 1.23-9.9 7.19-16.26 13.25-8.78 8.37-11.76 11.98-12.37 15.03-.72 3.51-1.35 4.09-5.05 4.6-6.11.85-23.28 17.01-23.28 21.91 0 3.55-2.04 5.09-11.97 9.06-4.65 1.86-24.43 20.05-24.43 22.47 0 .8-1.45 1.77-3.23 2.16-1.93.43-8.87 6.13-17.32 14.24-15.21 14.6-23.92 21.24-30.12 22.98-2.16.61-5.63 2.15-7.71 3.42-4.56 2.8-16.98 18.2-25.24 31.3l-6.01 9.53-10.47.68c-6.52.42-11.54 1.38-13.29 2.53-1.55 1.02-8.24 7.97-14.87 15.45l-12.05 13.6-.59 8.31-.59 8.3-18.79 12.1c-10.33 6.66-19.38 12.12-20.11 12.14-.73.01-5.61-2.35-10.85-5.25-5.24-2.89-11.65-5.61-14.25-6.02-4.5-.72-5.01-.47-10.67 5.19l-5.95 5.94-19-3.49c-10.45-1.92-21.64-4.27-24.87-5.22-13.24-3.9-45.34-16.43-55.77-21.77-14.38-7.37-40.77-23.95-64.98-40.84l-19.15-13.36 1.24-4.65 1.24-4.64-13.48-12.87c-16.12-15.4-14.22-13.49-19.17-19.18-3.57-4.11-4.69-4.68-9.38-4.76-4.97-.1-6.05-.76-16.01-9.72-5.87-5.29-11.38-9.62-12.24-9.62-1.05 0-1.8-2.4-2.3-7.34-.59-5.87-1.35-7.87-3.76-9.98-1.66-1.46-3.91-2.68-5-2.71-1.89-.07-13.51-12.92-14.88-16.47-.84-2.15-9.21-6.95-12.13-6.95-1.24 0-3.69 1.13-5.44 2.51-2.7 2.12-3.42 2.26-4.68.88-3.53-3.86-20.43-25.42-22.44-28.63-1.22-1.94-5.72-8.54-10.01-14.68-7.5-10.73-21.41-32.32-33.1-51.38-3.36-5.47-5.58-10.49-5.59-12.61-.02-3.17-2.88-10.02-7.6-18.2-5.12-8.88-19.91-45.51-22.36-55.43-.56-2.26.13-5.05 2.41-9.71 4.2-8.6 3.5-14-4.36-33.31-7.18-17.64-7.15-20.51.33-30.47 25.73-34.3 58.54-75.08 76.78-95.46 16.22-18.12 18.16-20.63 18.19-23.6.01-1.08 11.78-13.77 26.147-28.18 14.37-14.42 33.99-34.21 43.6-44 12.16-12.38 18.5-17.99 20.85-18.46 3.63-.73 35.24-31.01 53.84-51.59 5.49-6.07 11.12-11.78 12.5-12.68 3.2-2.08 28.28-26.5 47.54-46.29 19.02-19.53 41.62-40.59 42.56-39.64.404.41.73 1.46.73 2.35 0 5.12 10.78 28.71 27.06 59.23 20.154 37.78 23.78 44.04 41.44 71.45 29.19 45.32 36.52 55.47 59.71 82.63 8.32 9.75 20.784 25.87 27.7 35.82 11.24 16.19 15.47 20.99 40.11 45.58 27.05 27 28.39 28.13 75.76 64.27 60.22 45.93 71.6 53.38 118.64 77.67 24.65 12.73 40.26 19.27 64.47 27l17.5 5.59-4 3.53c-20.88 18.42-52.03 47.35-54.6 50.73-3.75 4.92-4.08 9.28-1.06 13.9 4.29 6.54 8.61 6.4 18.357-.62 5.08-3.66 37.36-32.97 53.13-48.25 3.83-3.72 7.26-6.76 7.62-6.76.35 0 2.83-2.14 5.49-4.76 4.52-4.44 5.58-4.87 15.89-6.54 6.08-.98 12.37-1.58 13.99-1.33 1.613.25 48.11 34.27 103.33 75.61 102.1 76.43 385.543 288.34 487.8 364.68l56.285 42.02-270.57-.01-270.578-.01-140.32-95.78z"
     id="path4150" />
  <path
     style="fill:#ffffff;stroke:none;stroke-width:1px;stroke-linecap:butt;stroke-linejoin:miter;stroke-opacity:1;fill-opacity:1"
     d="m 18.354794,16.275214 -3.145918,-2.095045 0.376562,-0.363927 c 0.207109,-0.20016 0.503863,-0.466204 0.659453,-0.591209 0.281989,-0.226558 0.363426,-0.391602 0.193225,-0.391602 -0.04932,0 -0.254511,0.160802 -0.455987,0.357337 -0.201476,0.196535 -0.383914,0.357336 -0.405418,0.357336 -0.0215,0 -0.117812,0.08289 -0.214018,0.184205 -0.09621,0.101313 -0.27341,0.224018 -0.393785,0.272679 -0.120375,0.04866 -0.280899,0.179011 -0.356721,0.289665 -0.08097,0.118161 -0.197493,0.208399 -0.282362,0.218658 -0.09301,0.01124 -0.178122,0.0847 -0.238839,0.20614 -0.129303,0.258607 -0.379418,0.404034 -0.543684,0.316121 -0.09192,-0.04919 -0.145492,-0.04859 -0.206839,0.0023 -0.06318,0.05243 -0.164571,0.04538 -0.427975,-0.02975 -0.375739,-0.107177 -1.220786,-0.55859 -1.177325,-0.628911 0.0148,-0.02395 -0.100112,-0.145334 -0.255366,-0.269737 C 11.220181,13.901469 10.973759,13.674498 10.470794,13.180138 10.202647,12.916578 9.7386225,11.988304 9.7374806,11.713155 9.736979,11.592301 9.7124853,11.45537 9.6830501,11.408865 9.645758,11.349946 9.6818132,11.259661 9.8019675,11.111084 10.662515,10.04698 10.956035,9.7281696 11.678721,9.0726268 12.134686,8.6590234 12.571323,8.2520819 12.649025,8.1683123 l 0.141277,-0.1523085 0.228996,0.4735346 c 0.250255,0.5174946 0.574276,1.0185934 0.947561,1.4654006 0.132245,0.158292 0.336733,0.402985 0.454417,0.543762 0.455799,0.545237 2.161694,1.679614 2.525833,1.679614 0.17819,0 0.140619,0.09426 -0.121547,0.304941 -0.213558,0.17162 -0.321755,0.409731 -0.186181,0.409731 0.02862,0 0.217237,-0.147401 0.419143,-0.327558 0.201906,-0.180157 0.419994,-0.327558 0.48464,-0.327558 0.06465,0 0.860939,0.544683 1.769541,1.210408 0.908601,0.665724 2.308608,1.691505 3.111126,2.279513 0.802518,0.588008 1.546408,1.13391 1.653089,1.213115 0.106681,0.0792 0.173682,0.162878 0.14889,0.18594 -0.0476,0.04428 -2.653961,1.245971 -2.698895,1.244354 -0.01441,-5.36e-4 -1.441866,-0.943713 -3.172121,-2.095987 z"
     id="path4158"
     inkscape:connector-curvature="0"
     transform="matrix(1.0000246,0,0,1.0000246,-3.7384953e-4,0)" />
  <path
     style="fill:#ffffff;stroke:none;stroke-width:1px;stroke-linecap:butt;stroke-linejoin:miter;stroke-opacity:1;fill-opacity:0"
     d="m 18.35681,16.276068 -3.143903,-2.09418 0.310033,-0.313932 c 0.170518,-0.172663 0.466172,-0.442565 0.65701,-0.599783 0.337646,-0.278163 0.43319,-0.434742 0.26528,-0.434742 -0.0454,0 -0.249457,0.160802 -0.453452,0.357337 -0.203996,0.196535 -0.389636,0.357336 -0.412533,0.357336 -0.0229,0 -0.120346,0.08289 -0.216552,0.184205 -0.09621,0.101313 -0.27341,0.224018 -0.393785,0.272679 -0.120375,0.04866 -0.281176,0.179988 -0.357336,0.291837 -0.07616,0.111849 -0.180702,0.203545 -0.232315,0.203769 -0.100942,4.17e-4 -0.352829,0.238777 -0.352829,0.333852 0,0.03177 -0.07989,0.104959 -0.177539,0.162641 -0.140042,0.08272 -0.203737,0.09085 -0.301587,0.03848 -0.09192,-0.04919 -0.145492,-0.04859 -0.206839,0.0023 -0.06318,0.05243 -0.164571,0.04538 -0.427975,-0.02975 -0.409171,-0.116715 -1.208746,-0.555742 -1.208746,-0.663694 0,-0.04166 -0.04259,-0.09959 -0.09464,-0.128718 -0.111441,-0.06236 -0.859637,-0.732752 -1.12495,-1.007959 -0.273884,-0.284099 -0.6899056,-1.104087 -0.742598,-1.46368 -0.025002,-0.170625 -0.056042,-0.339125 -0.068977,-0.374445 -0.053355,-0.14569 1.1153407,-1.480564 2.0236417,-2.3113844 0.511854,-0.4681906 0.96715,-0.8953885 1.01177,-0.9493285 0.07197,-0.087002 0.104426,-0.049415 0.28752,0.3329737 0.496387,1.0366973 1.351178,2.0858412 2.255859,2.7687732 0.628778,0.474656 1.500181,0.967634 1.71042,0.967634 0.163706,0 0.119167,0.0997 -0.136225,0.304941 -0.208451,0.167516 -0.322614,0.409731 -0.193119,0.409731 0.02481,0 0.214119,-0.147401 0.42069,-0.327558 0.206571,-0.180157 0.427375,-0.327558 0.490675,-0.327558 0.149812,0 6.751017,4.823728 6.686255,4.885877 -0.05401,0.05183 -2.434858,1.153649 -2.616806,1.211015 -0.08166,0.02575 -0.975218,-0.53915 -3.256447,-2.058695 z"
     id="path4160"
     inkscape:connector-curvature="0"
     transform="matrix(1.0000246,0,0,1.0000246,-3.7384953e-4,0)" />
  <path
     style="fill:#a0a0a0;stroke:none;stroke-width:1px;stroke-linecap:butt;stroke-linejoin:miter;stroke-opacity:1;fill-opacity:0"
     d="m 18.35681,16.276068 -3.143903,-2.09418 0.310033,-0.313932 c 0.170518,-0.172663 0.466172,-0.442565 0.65701,-0.599783 0.337646,-0.278163 0.43319,-0.434742 0.26528,-0.434742 -0.0454,0 -0.249457,0.160802 -0.453452,0.357337 -0.203996,0.196535 -0.389636,0.357336 -0.412533,0.357336 -0.0229,0 -0.120346,0.08289 -0.216552,0.184205 -0.09621,0.101313 -0.27341,0.224018 -0.393785,0.272679 -0.120375,0.04866 -0.281176,0.179988 -0.357336,0.291837 -0.07616,0.111849 -0.180702,0.203545 -0.232315,0.203769 -0.100942,4.17e-4 -0.352829,0.238777 -0.352829,0.333852 0,0.03177 -0.07989,0.104959 -0.177539,0.162641 -0.140042,0.08272 -0.203737,0.09085 -0.301587,0.03848 -0.09192,-0.04919 -0.145492,-0.04859 -0.206839,0.0023 -0.06318,0.05243 -0.164571,0.04538 -0.427975,-0.02975 -0.409171,-0.116715 -1.208746,-0.555742 -1.208746,-0.663694 0,-0.04166 -0.04259,-0.09959 -0.09464,-0.128718 -0.111441,-0.06236 -0.859637,-0.732752 -1.12495,-1.007959 -0.273884,-0.284099 -0.6899056,-1.104087 -0.742598,-1.46368 -0.025002,-0.170625 -0.056042,-0.339125 -0.068977,-0.374445 -0.053355,-0.14569 1.1153407,-1.480564 2.0236417,-2.3113844 0.511854,-0.4681906 0.96715,-0.8953885 1.01177,-0.9493285 0.07197,-0.087002 0.104426,-0.049415 0.28752,0.3329737 0.496387,1.0366973 1.351178,2.0858412 2.255859,2.7687732 0.628778,0.474656 1.500181,0.967634 1.71042,0.967634 0.163706,0 0.119167,0.0997 -0.136225,0.304941 -0.208451,0.167516 -0.322614,0.409731 -0.193119,0.409731 0.02481,0 0.214119,-0.147401 0.42069,-0.327558 0.206571,-0.180157 0.427375,-0.327558 0.490675,-0.327558 0.149812,0 6.751017,4.823728 6.686255,4.885877 -0.05401,0.05183 -2.434858,1.153649 -2.616806,1.211015 -0.08166,0.02575 -0.975218,-0.53915 -3.256447,-2.058695 z"
     id="path4162"
     inkscape:connector-curvature="0"
     transform="matrix(1.0000246,0,0,1.0000246,-3.7384953e-4,0)" />
  <path
     style="fill:#a0a0a0;stroke:none;stroke-width:1px;stroke-linecap:butt;stroke-linejoin:miter;stroke-opacity:1;fill-opacity:0"
     d="M 17.629569,11.776794 C 16.246592,11.519019 13.728573,9.100524 13.291618,7.6102991 13.141973,7.0999386 13.202141,7.0190805 14.11103,6.5091174 c 0.426698,-0.2394136 0.830123,-0.4514564 0.8965,-0.4712062 0.06638,-0.01975 0.572105,-0.2969627 1.12384,-0.6160287 0.880172,-0.5089999 1.027386,-0.575574 1.20081,-0.5430395 0.146739,0.027528 0.264197,4.224e-4 0.455968,-0.1052245 0.142072,-0.078268 0.298514,-0.1285723 0.347647,-0.111788 0.545338,0.1862902 2.26358,1.8889876 2.332169,2.31107 0.01116,0.068669 -0.01273,0.1646405 -0.05309,0.2132711 -0.04036,0.048631 -0.08358,0.2352362 -0.09604,0.4146792 -0.0251,0.3613199 -0.05994,0.4438326 -0.423951,1.0041012 -0.773108,1.1899205 -0.925297,1.432487 -0.925297,1.474786 0,0.02563 -0.09623,0.192725 -0.213841,0.37131 -0.117612,0.178586 -0.255685,0.405619 -0.306828,0.504519 -0.130657,0.252663 -0.543815,0.790901 -0.629086,0.819537 -0.03913,0.01314 -0.124744,0.0139 -0.190256,0.0017 z"
     id="path4164"
     inkscape:connector-curvature="0"
     transform="matrix(1.0000246,0,0,1.0000246,-3.7384953e-4,0)" />
  <path
     style="fill:#a0a0a0;stroke:none;stroke-width:1px;stroke-linecap:butt;stroke-linejoin:miter;stroke-opacity:1;fill-opacity:0"
     d="M 8.9315284,9.7798904 C 8.6023979,9.5431224 8.1826516,9.2288016 7.998758,9.0814004 7.8148644,8.9339992 7.0925442,8.39158 6.3936028,7.8760241 1.770697,4.4660629 0.36037031,3.4057666 0.37558614,3.3516253 0.3850853,3.3178252 0.58608697,3.0221876 0.82225651,2.6946527 1.0584261,2.3671179 1.2913509,2.0420312 1.3398673,1.9722377 1.9850601,1.0440929 2.4281385,0.41166871 2.4459955,0.3934152 2.4581447,0.3809961 2.732136,0.58199777 3.054865,0.84008556 3.377594,1.0981733 3.8007031,1.4321166 3.9951076,1.5821817 c 0.6566878,0.5069117 8.0607504,6.3492748 8.1459664,6.427781 0.02762,0.025445 -0.206882,0.2530536 -0.521115,0.5057958 -0.314233,0.2527428 -0.571333,0.478864 -0.571333,0.502491 0,0.023628 -0.11522,0.1257032 -0.256043,0.2268353 C 10.651759,9.3462164 10.324367,9.605362 10.065044,9.8209632 9.8057219,10.036564 9.5792385,10.212383 9.5617475,10.211672 9.5442571,10.210957 9.2606584,10.016658 8.9315284,9.7798904 Z"
     id="path4166"
     inkscape:connector-curvature="0"
     transform="matrix(1.0000246,0,0,1.0000246,-3.7384953e-4,0)" />
  <path
     style="fill:#a0a0a0;stroke:none;stroke-width:1px;stroke-linecap:butt;stroke-linejoin:miter;stroke-opacity:1;fill-opacity:0"
     d="m 12.976845,8.0745904 c -0.0059,-0.014775 -0.03094,-0.083814 -0.05568,-0.15342 -0.02474,-0.069606 -0.05165,-0.1307447 -0.0598,-0.1358635 -0.03591,-0.022551 0.03424,-0.1619168 0.0815,-0.1619168 0.01175,0 0.03349,-0.0134 0.04831,-0.029778 0.01482,-0.016378 0.03139,-0.029778 0.03681,-0.029778 0.0054,0 0.02186,0.038525 0.03653,0.085612 0.01467,0.047086 0.04945,0.1352492 0.07728,0.1959171 0.02784,0.060668 0.04889,0.1116918 0.04677,0.1133865 -0.0021,0.00169 -0.03399,0.021561 -0.07085,0.044147 -0.03685,0.022586 -0.08122,0.054001 -0.0986,0.069812 -0.03015,0.027427 -0.03209,0.027513 -0.04229,0.00188 z"
     id="path4168"
     inkscape:connector-curvature="0"
     transform="matrix(1.0000246,0,0,1.0000246,-3.7384953e-4,0)" />
  <path
     style="fill:#a0a0a0;stroke:none;stroke-width:1px;stroke-linecap:butt;stroke-linejoin:miter;stroke-opacity:1;fill-opacity:0"
     d="m 13.342173,8.7571105 c -0.01698,-0.033289 -0.03092,-0.069167 -0.03097,-0.07973 -5.4e-5,-0.010562 -0.04005,-0.099391 -0.08888,-0.1973966 l -0.08878,-0.1781922 0.03305,-0.035391 c 0.03668,-0.039286 0.102464,-0.077229 0.133891,-0.077229 0.01124,0 0.05299,0.061976 0.09279,0.1377233 0.0398,0.075748 0.09873,0.1812738 0.130966,0.234502 0.03224,0.053228 0.06141,0.1015651 0.06483,0.1074152 0.0034,0.00585 -0.0292,0.028365 -0.07249,0.050032 -0.0433,0.021667 -0.0933,0.052759 -0.111119,0.069093 l -0.0324,0.029698 -0.03088,-0.060525 z"
     id="path4170"
     inkscape:connector-curvature="0"
     transform="matrix(1.0000246,0,0,1.0000246,-3.7384953e-4,0)" />
  <path
     style="fill:#a0a0a0;stroke:none;stroke-width:1px;stroke-linecap:butt;stroke-linejoin:miter;stroke-opacity:1;fill-opacity:0"
     d="m 15.819825,11.375148 c -0.06251,-0.06346 -0.07516,-0.07075 -0.08401,-0.04839 -0.0088,0.02217 -0.01058,0.02104 -0.01146,-0.0072 -9.43e-4,-0.03017 -0.0085,-0.0335 -0.07602,-0.0335 -0.100248,0 -0.148366,-0.03194 -0.148366,-0.09849 0,-0.04047 -0.0059,-0.0504 -0.02978,-0.0504 -0.01638,0 -0.02978,0.0067 -0.02978,0.01489 0,0.0082 -0.007,0.01489 -0.01552,0.01489 -0.01831,0 -0.146839,-0.09247 -0.147683,-0.106255 -9e-4,-0.01467 0.09519,-0.02552 0.104034,-0.01175 0.0043,0.0067 0.03446,-0.0028 0.067,-0.02105 0.05567,-0.03129 0.05916,-0.03732 0.05916,-0.102291 0,-0.06381 -0.0032,-0.06968 -0.04197,-0.07746 -0.02309,-0.0046 -0.07068,-0.002 -0.105775,0.0059 -0.03509,0.0079 -0.108082,0.01616 -0.162202,0.01844 -0.08163,0.0034 -0.09913,0.0087 -0.102672,0.03112 -0.0037,0.0231 -0.01514,0.01883 -0.07996,-0.02978 -0.04163,-0.03121 -0.174523,-0.151289 -0.295319,-0.266835 l -0.219627,-0.210084 0.06454,-0.0168 c 0.115159,-0.02998 0.136789,-0.06873 0.07106,-0.12729 -0.04661,-0.04153 -0.09772,-0.04797 -0.197238,-0.02487 l -0.05672,0.01317 0.0097,-0.0443 c 0.01068,-0.04861 -0.02314,-0.101158 -0.06611,-0.102714 -0.01306,-4.73e-4 -0.100236,-0.08887 -0.193721,-0.1964457 C 13.980073,9.723482 13.964418,9.700354 13.988417,9.6863521 c 0.111143,-0.064845 0.120631,-0.1148207 0.03097,-0.1631078 -0.04835,-0.026039 -0.05502,-0.026251 -0.111754,-0.00355 -0.04716,0.01887 -0.06033,0.019903 -0.06033,0.00473 0,-0.010673 -0.01259,-0.03292 -0.02798,-0.049438 -0.03848,-0.041305 -0.108759,-0.1542504 -0.09598,-0.1542504 0.0057,0 -0.0081,-0.019286 -0.03064,-0.042857 -0.02258,-0.023572 -0.04266,-0.053761 -0.04462,-0.067088 -0.002,-0.013327 -0.02424,-0.045966 -0.04952,-0.072532 -0.04084,-0.042916 -0.108767,-0.1681928 -0.108496,-0.2000978 2.31e-4,-0.027171 0.193693,-0.1322186 0.222304,-0.1207078 0.01095,0.00441 0.05162,0.053852 0.374672,0.4555216 0.242399,0.3013918 0.804905,0.9094889 1.049589,1.1346589 0.120132,0.110551 0.271301,0.249577 0.335931,0.308947 0.08569,0.07872 0.109444,0.107946 0.08772,0.107946 -0.02553,0 -0.02849,0.0069 -0.02074,0.04839 0.01316,0.07044 0.02703,0.07954 0.08772,0.0576 0.05973,-0.0216 0.04078,-0.03229 0.297056,0.16757 0.0737,0.05748 0.136126,0.105871 0.138724,0.107547 0.01913,0.01234 -0.132042,0.244233 -0.159219,0.244233 -0.0057,0 -0.04352,-0.03362 -0.084,-0.07472 z"
     id="path4172"
     inkscape:connector-curvature="0"
     transform="matrix(1.0000246,0,0,1.0000246,-3.7384953e-4,0)" />
  <path
     style="fill:#a0a0a0;stroke:none;stroke-width:1px;stroke-linecap:butt;stroke-linejoin:miter;stroke-opacity:1;fill-opacity:0"
     d="m 16.370059,11.784089 c -0.08138,-0.0444 -0.194862,-0.104805 -0.252185,-0.134243 l -0.104223,-0.05352 0.06158,-0.06603 c 0.03387,-0.03632 0.08068,-0.102502 0.104018,-0.147081 l 0.04244,-0.08105 0.03743,0.02484 c 0.02059,0.01366 0.13919,0.08643 0.263567,0.161722 l 0.226138,0.136885 -0.04194,0.06614 c -0.02307,0.03637 -0.06788,0.08161 -0.09958,0.100528 -0.0317,0.01892 -0.06476,0.04297 -0.07346,0.05347 -0.01245,0.01502 -0.04726,0.0019 -0.163779,-0.06164 z"
     id="path4174"
     inkscape:connector-curvature="0"
     transform="matrix(1.0000246,0,0,1.0000246,-3.7384953e-4,0)" />
  <path
     style="fill:#a0a0a0;stroke:none;stroke-width:1px;stroke-linecap:butt;stroke-linejoin:miter;stroke-opacity:1;fill-opacity:0"
     d="m 16.817658,11.990957 c -0.130634,-0.04757 -0.14017,-0.05679 -0.08732,-0.08438 0.05077,-0.02651 0.109843,-0.08847 0.147982,-0.155208 0.01521,-0.02661 0.03235,-0.04839 0.0381,-0.04839 0.0057,0 0.04283,0.01404 0.0824,0.03119 0.03958,0.01716 0.125384,0.05104 0.190684,0.0753 0.0653,0.02426 0.121695,0.04708 0.125322,0.0507 0.0036,0.0036 -0.01463,0.033 -0.04056,0.06527 -0.02594,0.03227 -0.04715,0.06649 -0.04715,0.07603 0,0.01045 -0.01037,0.01334 -0.02606,0.0073 -0.138778,-0.0538 -0.241947,-0.0538 -0.241947,-6e-6 0,0.02922 -0.01895,0.02684 -0.141445,-0.01777 z"
     id="path4176"
     inkscape:connector-curvature="0"
     transform="matrix(1.0000246,0,0,1.0000246,-3.7384953e-4,0)" />
  <path
     style="fill:#a0a0a0;stroke:none;stroke-width:1px;stroke-linecap:butt;stroke-linejoin:miter;stroke-opacity:1;fill-opacity:0"
     d="m 17.257112,12.108705 c 5.74e-4,-0.02811 0.08572,-0.09541 0.144193,-0.113971 0.0177,-0.0056 0.04437,-0.02865 0.05927,-0.05118 l 0.02709,-0.04097 0.126557,0.02933 0.126556,0.02932 -0.04972,0.02035 c -0.03997,0.01636 -0.04635,0.02441 -0.03254,0.04106 0.02652,0.03195 -0.01544,0.04681 -0.207678,0.07354 -0.19701,0.02739 -0.194023,0.0272 -0.193723,0.01253 z"
     id="path4178"
     inkscape:connector-curvature="0"
     transform="matrix(1.0000246,0,0,1.0000246,-3.7384953e-4,0)" />
  <path
     style="fill:#a0a0a0;stroke:none;stroke-width:1px;stroke-linecap:butt;stroke-linejoin:miter;stroke-opacity:1;fill-opacity:0"
     d="m 11.085388,9.3400439 c -0.02457,-0.012779 -0.04767,-0.025908 -0.05133,-0.029175 -0.0037,-0.00327 0.02834,-0.036557 0.07112,-0.073978 0.04278,-0.037421 0.08751,-0.086856 0.0994,-0.1098541 0.01189,-0.022998 0.139018,-0.1365303 0.2825,-0.2522928 0.2326,-0.1876648 0.260875,-0.2064256 0.260875,-0.1730955 0,0.042432 -0.08079,0.1426408 -0.114994,0.1426408 -0.03043,0 -0.375493,0.341319 -0.385541,0.3813534 -0.0044,0.01744 -0.03257,0.055543 -0.06266,0.084673 -0.05366,0.051957 -0.05555,0.052522 -0.09937,0.029728 z"
     id="path4180"
     inkscape:connector-curvature="0"
     transform="matrix(1.0000246,0,0,1.0000246,-3.7384953e-4,0)" />
  <path
     style="fill:#ffffff;stroke:none;stroke-width:1px;stroke-linecap:butt;stroke-linejoin:miter;stroke-opacity:1;fill-opacity:1"
     d="M 9.3727745,10.114597 C 8.9995387,9.8607135 8.295793,9.3409265 7.96602,9.0755667 7.879163,9.0056753 7.6612309,8.8426998 7.4817264,8.7133993 7.3022219,8.5840986 7.0501288,8.3971164 6.9215196,8.297883 6.7929104,8.1986497 6.4233733,7.9224531 6.1003261,7.6841124 5.7772789,7.445772 4.9491868,6.8349647 4.2601212,6.3267628 3.1184749,5.4847723 0.3230635,3.4160158 0.30420715,3.3991712 0.29162209,3.3879289 1.099258,2.2533942 1.2012474,2.1390449 1.2521285,2.0819976 1.3182102,1.9919821 1.3480955,1.9390106 1.4245154,1.8035569 1.5381253,1.6380092 1.8023537,1.2770844 1.9283581,1.1049678 2.0609266,0.91546164 2.0969503,0.85595956 2.1329741,0.79645748 2.2281658,0.65498867 2.3084876,0.54158444 2.4383305,0.35826272 2.4583232,0.338613 2.4887541,0.36441082 2.655889,0.50609891 3.5470572,1.2130892 3.7547714,1.36878 3.8995331,1.4772852 4.0843016,1.6196934 4.1653681,1.6852426 4.3238046,1.813352 6.1075968,3.2179243 6.9026797,3.8406236 7.1690412,4.0492347 8.0028684,4.7088287 8.7556291,5.306388 9.5083898,5.9039473 10.43697,6.6383497 10.819141,6.9383934 c 0.382171,0.3000435 0.854953,0.6731626 1.050627,0.8291538 l 0.355771,0.2836202 -0.05266,0.043674 c -0.02896,0.024021 -0.285965,0.2321434 -0.571118,0.4624947 -0.285152,0.2303515 -0.523787,0.4356088 -0.5303,0.4561273 -0.0065,0.020518 -0.06595,0.082218 -0.132081,0.1371094 -0.06613,0.054892 -0.135108,0.116245 -0.15328,0.1363406 -0.01817,0.020096 -0.07335,0.057103 -0.122623,0.08224 -0.04927,0.025136 -0.114944,0.068096 -0.145939,0.095466 -0.290249,0.2563044 -0.917224,0.7689919 -0.940413,0.7689919 -0.016163,0 -0.1081211,-0.05356 -0.2043515,-0.119014 z"
     id="path4159"
     inkscape:connector-curvature="0"
     transform="matrix(1.0000246,0,0,1.0000246,-3.7384953e-4,0)" />
  <path
     style="fill:#ffffff;stroke:none;stroke-width:1px;stroke-linecap:butt;stroke-linejoin:miter;stroke-opacity:1;fill-opacity:1"
     d="m 21.39713,18.312193 c -0.07375,-0.04767 -1.503275,-0.997099 -3.17672,-2.109847 -1.673445,-1.112748 -3.061577,-2.031067 -3.084739,-2.040707 -0.03675,-0.0153 -0.03254,-0.01998 0.0331,-0.03681 0.0829,-0.02125 0.327666,-0.251978 0.305448,-0.287927 -0.0071,-0.01145 -0.0039,-0.02637 0.0071,-0.03315 0.01097,-0.0068 0.02592,-0.0027 0.03322,0.0092 0.01691,0.02736 0.158082,-0.07807 0.158082,-0.118049 0,-0.016 0.01554,-0.02909 0.03453,-0.02909 0.03693,0 0.06266,-0.02709 0.146522,-0.154267 0.02943,-0.04463 0.08584,-0.09424 0.126463,-0.111211 0.04033,-0.01685 0.07867,-0.04455 0.0852,-0.06156 0.0065,-0.01701 0.02125,-0.03092 0.03272,-0.03092 0.03953,0 0.397377,-0.325476 0.409069,-0.372061 0.02903,-0.115668 -0.104629,-0.129379 -0.196017,-0.02011 -0.03269,0.03909 -0.0805,0.07755 -0.106243,0.08546 -0.04914,0.01511 -0.220951,0.205688 -0.244491,0.271191 -0.0075,0.021 -0.02367,0.03204 -0.03583,0.02452 -0.03643,-0.02251 -0.209812,0.133416 -0.209812,0.188689 0,0.03974 -0.01431,0.0509 -0.07896,0.06155 -0.07359,0.01212 -0.103004,0.03507 -0.289523,0.225868 -0.116521,0.119195 -0.260507,0.229745 -0.299233,0.229745 -0.06449,0 -0.271308,0.11452 -0.333712,0.184784 -0.02802,0.03155 -0.0861,0.11075 -0.129072,0.176002 -0.07447,0.113081 -0.08311,0.119219 -0.184461,0.131017 -0.09556,0.01112 -0.118605,0.02503 -0.227407,0.137203 -0.09728,0.100292 -0.121277,0.138688 -0.122107,0.195355 -9.63e-4,0.06566 -0.01369,0.07829 -0.184243,0.182841 l -0.183208,0.112312 -0.111012,-0.05441 c -0.137078,-0.06718 -0.147044,-0.06722 -0.216424,-7.48e-4 l -0.05601,0.05366 -0.209394,-0.04267 c -0.23667,-0.04823 -0.611891,-0.181167 -0.785767,-0.27839 -0.06401,-0.03579 -0.232632,-0.140924 -0.374709,-0.233627 -0.207541,-0.135415 -0.253637,-0.174196 -0.234486,-0.197272 0.0188,-0.02266 0.0023,-0.04766 -0.07841,-0.118429 -0.05623,-0.04934 -0.129106,-0.115765 -0.161939,-0.147613 -0.03283,-0.03185 -0.07093,-0.0579 -0.08467,-0.0579 -0.01374,0 -0.03433,-0.02132 -0.04576,-0.04738 -0.0125,-0.02849 -0.0429,-0.04994 -0.07626,-0.0538 -0.07974,-0.0092 -0.224637,-0.139927 -0.232697,-0.209882 -0.0036,-0.03158 -0.01691,-0.05742 -0.02949,-0.05742 -0.01258,0 -0.06349,-0.04693 -0.113129,-0.104283 -0.122239,-0.141236 -0.181974,-0.185479 -0.229895,-0.170269 -0.04619,0.01466 -0.143341,-0.09303 -0.314298,-0.348408 -0.272499,-0.407062 -0.4697804,-0.776642 -0.5802994,-1.087112 -0.045191,-0.126951 -0.051987,-0.174274 -0.041365,-0.288028 0.010656,-0.114112 0.00543,-0.150082 -0.032307,-0.222487 -0.02476,-0.0475 -0.045018,-0.106068 -0.045018,-0.130144 0,-0.02408 0.048982,-0.09722 0.1088486,-0.162538 0.059867,-0.06532 0.1333004,-0.156662 0.1631859,-0.202986 0.067394,-0.104464 0.2861233,-0.373029 0.4563323,-0.560303 0.07054,-0.07762 0.143605,-0.173455 0.162356,-0.212971 0.01875,-0.03952 0.152908,-0.1920483 0.298126,-0.3389615 0.145218,-0.1469132 0.264032,-0.2765528 0.264032,-0.288088 0,-0.011535 0.0141,-0.020973 0.03132,-0.020973 0.01723,0 0.07604,-0.047377 0.130691,-0.1052812 0.05465,-0.057905 0.114143,-0.1052813 0.132205,-0.1052813 0.01806,0 0.14165,-0.1099676 0.274642,-0.2443726 0.132992,-0.1344049 0.267738,-0.2607229 0.299437,-0.2807066 0.0317,-0.019984 0.233307,-0.2061194 0.44802,-0.413635 0.214712,-0.2075155 0.396514,-0.3755521 0.404004,-0.3734146 0.0075,0.00214 0.03502,0.058989 0.06118,0.1263375 0.175871,0.4528442 0.720986,1.3350233 1.084606,1.755258 0.104767,0.1210784 0.241091,0.2916054 0.302942,0.3789494 0.06301,0.08897 0.23123,0.270122 0.382559,0.411948 0.264242,0.247648 1.019101,0.827692 1.296307,0.996101 0.291508,0.177097 0.709584,0.377172 0.948823,0.454069 l 0.248416,0.07985 -0.04838,0.05201 c -0.02661,0.0286 -0.136867,0.12891 -0.245016,0.222903 -0.217387,0.188932 -0.270546,0.263661 -0.234917,0.330235 0.01234,0.02306 0.03911,0.04192 0.05949,0.04192 0.0426,0 0.31295,-0.233058 0.498394,-0.429645 0.12616,-0.133741 0.208274,-0.183178 0.347583,-0.209262 0.148143,-0.02774 0.07431,-0.07471 1.294804,0.823856 0.289523,0.213158 0.543689,0.407529 0.564814,0.431935 0.02112,0.02441 0.05011,0.04609 0.06441,0.04819 0.02527,0.0037 0.87346,0.617764 2.992446,2.16642 1.501771,1.097566 1.910177,1.404793 1.891045,1.422557 -0.0094,0.0087 -0.287086,0.139063 -0.617143,0.28969 -0.330056,0.150628 -0.90805,0.415498 -1.28443,0.588602 -0.376381,0.173103 -0.728215,0.334114 -0.781854,0.357803 l -0.09753,0.04307 -0.134093,-0.08667 z"
     id="path4161"
     inkscape:connector-curvature="0"
     transform="matrix(1.0000246,0,0,1.0000246,-3.7384953e-4,0)" />
  <path
     style="fill:#ffffff;stroke:none;stroke-width:1px;stroke-linecap:butt;stroke-linejoin:miter;stroke-opacity:1;fill-opacity:1"
     d="M 17.515026,11.771028 C 16.517758,11.503889 15.24143,10.502435 14.154106,9.1339272 13.815117,8.7072759 13.748686,8.6107114 13.563474,8.2753808 13.338935,7.8688483 13.241933,7.6291057 13.207451,7.3954682 c -0.01815,-0.1229948 -0.01525,-0.1417216 0.04084,-0.263203 0.03321,-0.071933 0.06402,-0.1420619 0.06846,-0.1558423 0.0097,-0.030026 0.123444,-0.1138768 0.239696,-0.1766703 0.04632,-0.025022 0.374484,-0.2101706 0.729245,-0.4114419 0.428218,-0.2429469 0.665674,-0.3659479 0.706469,-0.3659479 0.03982,0 0.190791,-0.075478 0.428849,-0.2143975 0.202069,-0.1179186 0.670609,-0.388711 1.041199,-0.601761 l 0.6738,-0.3873635 0.22109,0.043772 0.221091,0.043772 0.03861,-0.052642 c 0.02211,-0.030152 0.05965,-0.052642 0.08787,-0.052642 0.02709,0 0.07769,-0.028426 0.112433,-0.063169 0.03474,-0.034743 0.08074,-0.063169 0.102216,-0.063169 0.02148,0 0.05904,-0.014002 0.08347,-0.031115 0.03935,-0.027559 0.05576,-0.027252 0.143609,0.00268 0.12786,0.043566 0.497887,0.2869376 0.726757,0.4779959 0.246336,0.2056397 1.030217,0.9802733 1.180202,1.1662803 0.261864,0.3247553 0.401718,0.5468364 0.429614,0.6822058 l 0.02629,0.1275825 -0.08109,0.1025809 c -0.0621,0.078565 -0.08109,0.1214585 -0.08109,0.183214 0,0.044348 0.0115,0.092133 0.02556,0.1061879 0.02004,0.020035 0.0139,0.037207 -0.0284,0.079506 -0.05335,0.053355 -0.05363,0.055336 -0.02498,0.1793668 l 0.02897,0.1254158 -0.105564,0.2046225 c -0.05806,0.1125422 -0.143114,0.251999 -0.189009,0.3099036 -0.09247,0.1166617 -0.30888,0.4561886 -0.496587,0.779081 -0.06732,0.1158094 -0.216306,0.3511737 -0.331073,0.5230318 -0.114767,0.1718581 -0.221594,0.3491091 -0.237394,0.3938911 -0.03273,0.09276 -0.326964,0.572247 -0.399954,0.651767 -0.02657,0.02895 -0.0753,0.116435 -0.108269,0.194405 -0.03596,0.08503 -0.160217,0.277698 -0.310474,0.481404 -0.314877,0.426889 -0.340068,0.440592 -0.654896,0.356258 z"
     id="path4163"
     inkscape:connector-curvature="0"
     transform="matrix(1.0000246,0,0,1.0000246,-3.7384953e-4,0)" />
  <path
     style="fill:#ffffff;stroke:none;stroke-width:1px;stroke-linecap:butt;stroke-linejoin:miter;stroke-opacity:1;fill-opacity:1"
     d="m 12.94476,7.9753293 c -0.01982,-0.0608 -0.05009,-0.1349779 -0.06727,-0.16484 -0.02788,-0.048463 -0.02753,-0.061468 0.0033,-0.1210734 0.01899,-0.036728 0.04539,-0.066779 0.05865,-0.066779 0.01327,0 0.04145,-0.015682 0.06263,-0.034848 0.03063,-0.027724 0.03859,-0.0288 0.03889,-0.00526 2.12e-4,0.016271 0.03264,0.107891 0.07207,0.2035998 l 0.07168,0.1740161 -0.05781,0.029894 c -0.03179,0.016442 -0.07012,0.044732 -0.08517,0.062867 -0.04342,0.05232 -0.05858,0.040191 -0.09697,-0.077573 z"
     id="path4165"
     inkscape:connector-curvature="0"
     transform="matrix(1.0000246,0,0,1.0000246,-3.7384953e-4,0)" />
  <path
     style="fill:#ffffff;stroke:none;stroke-width:1px;stroke-linecap:butt;stroke-linejoin:miter;stroke-opacity:1;fill-opacity:1"
     d="m 13.33616,8.7333541 c -0.01395,-0.037638 -0.06552,-0.1514072 -0.114597,-0.2528203 -0.09691,-0.2002487 -0.09655,-0.2037866 0.02657,-0.2675667 0.06118,-0.031693 0.06236,-0.030491 0.182268,0.1866788 0.05372,0.097298 0.111284,0.1976699 0.127913,0.2230484 0.02874,0.043865 0.02495,0.049425 -0.0767,0.1126177 -0.05882,0.036561 -0.109894,0.066475 -0.11351,0.066475 -0.0036,0 -0.01799,-0.030795 -0.03194,-0.068433 z"
     id="path4167"
     inkscape:connector-curvature="0"
     transform="matrix(1.0000246,0,0,1.0000246,-3.7384953e-4,0)" />
  <path
     style="fill:#ffffff;stroke:none;stroke-width:1px;stroke-linecap:butt;stroke-linejoin:miter;stroke-opacity:1;fill-opacity:1"
     d="m 15.819999,11.36012 c -0.0574,-0.05922 -0.08743,-0.0737 -0.152909,-0.0737 -0.107801,0 -0.162935,-0.03189 -0.162935,-0.09425 0,-0.05953 -0.0394,-0.0916 -0.06388,-0.052 -0.01333,0.02157 -0.03332,0.01645 -0.09157,-0.02346 -0.06909,-0.04734 -0.07137,-0.05222 -0.03129,-0.06705 0.02378,-0.0088 0.05163,-0.0108 0.06191,-0.0044 0.01999,0.01236 0.106378,-0.02675 0.126373,-0.05722 0.0066,-0.01012 0.0078,-0.0476 0.0025,-0.08329 l -0.0095,-0.0649 -0.160471,0.01615 c -0.08826,0.0089 -0.177052,0.01665 -0.197318,0.01726 -0.02027,6.08e-4 -0.03685,0.01362 -0.03685,0.02892 0,0.05114 -0.0835,-0.01315 -0.339962,-0.261761 -0.189502,-0.183698 -0.239412,-0.242947 -0.211902,-0.251546 0.145623,-0.04552 0.167955,-0.08775 0.07769,-0.146896 -0.03783,-0.02479 -0.08065,-0.03165 -0.149227,-0.02392 -0.08677,0.0098 -0.09515,0.0069 -0.08569,-0.02925 0.0074,-0.0282 -0.01174,-0.05704 -0.06445,-0.09725 -0.04121,-0.03143 -0.139929,-0.1322448 -0.219368,-0.2240235 l -0.144437,-0.1668704 0.06332,-0.038509 c 0.07547,-0.045897 0.07826,-0.065688 0.01724,-0.1225331 -0.05099,-0.047503 -0.08528,-0.052995 -0.141845,-0.022721 -0.03112,0.016654 -0.05033,0.00282 -0.109161,-0.078609 -0.07585,-0.1049817 -0.113375,-0.1640431 -0.136825,-0.2153332 -0.0079,-0.017371 -0.03586,-0.055273 -0.06204,-0.084225 -0.02618,-0.028952 -0.06205,-0.087796 -0.07971,-0.1307644 l -0.03212,-0.078124 0.06701,-0.041308 c 0.129041,-0.079549 0.166771,-0.077086 0.236139,0.015412 0.363169,0.4842653 1.009818,1.1976615 1.461312,1.6121495 0.214308,0.196743 0.310567,0.298257 0.293069,0.309071 -0.02019,0.01248 -0.02054,0.02821 -0.0016,0.06985 0.0207,0.04544 0.03425,0.0518 0.08767,0.04111 0.05422,-0.01084 0.08851,0.0064 0.241737,0.121473 0.0982,0.07376 0.179022,0.149271 0.179596,0.1678 0.0012,0.03727 -0.115745,0.208457 -0.142352,0.208457 -0.0092,0 -0.04894,-0.03316 -0.08822,-0.0737 z"
     id="path4169"
     inkscape:connector-curvature="0"
     transform="matrix(1.0000246,0,0,1.0000246,-3.7384953e-4,0)" />
  <path
     style="fill:#ffffff;stroke:none;stroke-width:1px;stroke-linecap:butt;stroke-linejoin:miter;stroke-opacity:1;fill-opacity:1"
     d="m 16.261648,11.721659 -0.241615,-0.12992 0.05935,-0.06317 c 0.03265,-0.03474 0.07816,-0.09931 0.101138,-0.143487 l 0.04179,-0.08032 0.06731,0.04416 c 0.03702,0.02429 0.154828,0.09705 0.261792,0.161701 l 0.19448,0.117545 -0.04266,0.05991 c -0.03704,0.05202 -0.104182,0.108932 -0.178382,0.151203 -0.01187,0.0068 -0.130315,-0.04617 -0.263203,-0.11762 z"
     id="path4171"
     inkscape:connector-curvature="0"
     transform="matrix(1.0000246,0,0,1.0000246,-3.7384953e-4,0)" />
  <path
     style="fill:#ffffff;stroke:none;stroke-width:1px;stroke-linecap:butt;stroke-linejoin:miter;stroke-opacity:1;fill-opacity:1"
     d="m 16.872811,12.008466 c -0.01737,-0.0064 -0.06184,-0.02387 -0.09882,-0.03888 l -0.06724,-0.02727 0.09041,-0.09106 c 0.04973,-0.05009 0.09479,-0.104688 0.100139,-0.12134 0.0079,-0.02444 0.04234,-0.01713 0.178911,0.03792 0.09305,0.03751 0.177734,0.06659 0.188187,0.06463 0.06892,-0.01293 0.07316,0.0061 0.01789,0.08038 -0.03232,0.04343 -0.06045,0.08149 -0.06252,0.08458 -0.0021,0.0031 -0.05367,-0.0059 -0.114677,-0.01998 -0.09845,-0.02273 -0.113856,-0.02158 -0.137075,0.01017 -0.02716,0.03714 -0.042,0.04039 -0.09521,0.02085 z"
     id="path4173"
     inkscape:connector-curvature="0"
     transform="matrix(1.0000246,0,0,1.0000246,-3.7384953e-4,0)" />
  <path
     style="fill:#ffffff;stroke:none;stroke-width:1px;stroke-linecap:butt;stroke-linejoin:miter;stroke-opacity:1;fill-opacity:1"
     d="m 17.251823,12.114032 c 0,-0.02336 0.115514,-0.111696 0.146056,-0.111696 0.01178,0 0.0363,-0.02271 0.05449,-0.05047 0.03217,-0.04909 0.03598,-0.0497 0.139529,-0.02239 0.112796,0.02975 0.153264,0.0518 0.09508,0.0518 -0.02079,0 -0.03509,0.01678 -0.03509,0.04116 0,0.03028 -0.01809,0.04389 -0.06843,0.0515 -0.164444,0.02486 -0.219336,0.03419 -0.273731,0.04652 -0.03185,0.0072 -0.0579,0.0043 -0.0579,-0.0064 z"
     id="path4175"
     inkscape:connector-curvature="0"
     transform="matrix(1.0000246,0,0,1.0000246,-3.7384953e-4,0)" />
  <path
     style="fill:#ffffff;stroke:none;stroke-width:1px;stroke-linecap:butt;stroke-linejoin:miter;stroke-opacity:1;fill-opacity:1"
     d="m 13.019673,7.2742712 c 0.0063,-0.082803 0.0096,-0.092916 0.03866,-0.1201174 0.01748,-0.016336 0.03418,-0.027303 0.03711,-0.02437 0.0029,0.00293 -0.0027,0.029475 -0.01249,0.058983 -0.01081,0.032556 -0.01641,0.075979 -0.01423,0.1104361 0.0035,0.055308 0.0028,0.056898 -0.02617,0.061134 l -0.02975,0.00435 0.0069,-0.090416 z"
     id="path4177"
     inkscape:connector-curvature="0"
     transform="matrix(1.0000246,0,0,1.0000246,-3.7384953e-4,0)" />
</svg>
