<?xml version="1.0" encoding="UTF-8" standalone="no"?>
<!-- Created with Inkscape (http://www.inkscape.org/) -->

<svg
   xmlns:dc="http://purl.org/dc/elements/1.1/"
   xmlns:cc="http://creativecommons.org/ns#"
   xmlns:rdf="http://www.w3.org/1999/02/22-rdf-syntax-ns#"
   xmlns:svg="http://www.w3.org/2000/svg"
   xmlns="http://www.w3.org/2000/svg"
   xmlns:sodipodi="http://sodipodi.sourceforge.net/DTD/sodipodi-0.dtd"
   xmlns:inkscape="http://www.inkscape.org/namespaces/inkscape"
   id="svg4003"
   version="1.1"
   inkscape:version="0.48.4 r9939"
   width="23.593859"
   height="23.68815"
   sodipodi:docname="DRG2.svg">
  <metadata
     id="metadata4009">
    <rdf:RDF>
      <cc:Work
         rdf:about="">
        <dc:format>image/svg+xml</dc:format>
        <dc:type
           rdf:resource="http://purl.org/dc/dcmitype/StillImage" />
        <dc:title></dc:title>
      </cc:Work>
    </rdf:RDF>
  </metadata>
  <defs
     id="defs4007" />
  <sodipodi:namedview
     pagecolor="#ffffff"
     bordercolor="#666666"
     borderopacity="1"
     objecttolerance="10"
     gridtolerance="10"
     guidetolerance="10"
     inkscape:pageopacity="0"
     inkscape:pageshadow="2"
     inkscape:window-width="1366"
     inkscape:window-height="750"
     id="namedview4005"
     showgrid="false"
     fit-margin-top="3"
     fit-margin-left="0"
     fit-margin-right="0"
     fit-margin-bottom="10"
     inkscape:zoom="22.423624"
     inkscape:cx="5.4353581"
     inkscape:cy="15.35722"
     inkscape:window-x="0"
     inkscape:window-y="18"
     inkscape:window-maximized="1"
     inkscape:current-layer="svg4003" />
  <path
     style="fill:#ffffff;fill-opacity:1;stroke:#000000;stroke-width:0.07;stroke-miterlimit:4;stroke-opacity:1;stroke-dasharray:none"
     d="m 1758.7507,779.12781 c -0.1375,-0.0193 -0.3293,-0.0455 -0.3751,-0.0512 l -0.03,-0.004 0,-0.40155 0,-0.40154 -0.1299,-0.002 c -0.1581,-0.002 -0.207,-0.006 -0.2656,-0.0235 -0.076,-0.0221 -0.1243,-0.0695 -0.1356,-0.13295 l 0,-0.0127 0.2667,0 0.2667,0 0,-0.38473 0,-0.38473 -0.4413,0 -0.4413,0 0,0.90665 0,0.90664 -0.268,0 -0.2681,0 0,-0.95933 0,-0.95932 0.5878,0.002 c 0.3232,10e-4 0.6237,0.003 0.6677,0.005 0.2584,0.009 0.4857,0.0399 0.6572,0.0883 l 0.038,0.0107 0,0.0466 c 0,0.072 0,0.68021 -10e-4,0.6938 0,0.009 -0.01,0.016 -0.021,0.0275 -0.049,0.0418 -0.1588,0.069 -0.3499,0.0867 l -0.026,0.002 0.029,0.002 c 0.053,0.004 0.143,0.0161 0.1831,0.0242 0.098,0.0199 0.1695,0.0517 0.1813,0.0807 0,0.0102 0,0.0704 0.01,0.43159 9e-4,0.34417 4e-4,0.4197 0,0.41939 0,-2.1e-4 -0.06,-0.008 -0.1269,-0.0176 z m 2.3144,-0.78867 0,-0.80664 0.034,-0.0262 c 0.044,-0.0345 0.066,-0.0496 0.1054,-0.0731 0.34,-0.20199 0.9397,-0.26459 1.4351,-0.14981 0.2083,0.0483 0.3848,0.12754 0.5031,0.22604 l 0.028,0.0233 0,0.80651 0,0.80651 -0.2861,0 -0.286,0 0,-0.82279 0,-0.8228 -0.021,-0.0177 c -0.1289,-0.10996 -0.4065,-0.14872 -0.6891,-0.0962 -0.079,0.0147 -0.1491,0.0351 -0.2153,0.0628 l -0.034,0.0144 -9e-4,0.31774 -8e-4,0.31773 0.2667,0 0.2667,0 0,0.0127 c -0.012,0.0634 -0.06,0.11092 -0.1356,0.13295 -0.059,0.0171 -0.1075,0.0214 -0.2656,0.0235 l -0.1299,0.002 0,0.438 0,0.43799 -0.286,0 -0.2861,0 0,-0.80664 z m -8.5025,-0.15416 0,-0.95783 0.3245,0.002 c 0.3408,0.002 0.4225,0.004 0.5401,0.014 0.6575,0.0542 1.0778,0.2297 1.2742,0.53206 0.081,0.12497 0.1202,0.27006 0.1158,0.43078 -0.01,0.22011 -0.086,0.39551 -0.2491,0.54463 -0.2363,0.21629 -0.6309,0.34156 -1.203,0.38186 -0.074,0.005 -0.3695,0.01 -0.6317,0.0102 l -0.1708,1.6e-4 0,-0.95783 z m 0.9199,0.85041 c 0.2542,-0.0192 0.4743,-0.16808 0.6018,-0.40704 0.069,-0.12959 0.1092,-0.27369 0.115,-0.41306 0.01,-0.17552 -0.052,-0.38459 -0.1535,-0.53832 -0.1171,-0.17825 -0.2876,-0.29465 -0.4849,-0.33117 -0.061,-0.0113 -0.1033,-0.0132 -0.2914,-0.0132 l -0.174,-5e-5 0,0.85296 0,0.85296 0.174,-4e-5 c 0.096,-3e-5 0.1916,-10e-4 0.213,-0.003 z m 16.5966,0.10548 c -0.039,-0.003 -0.1437,-0.0169 -0.1955,-0.0263 -0.4891,-0.0892 -0.8728,-0.38078 -0.9714,-0.73817 -0.022,-0.0782 -0.023,-0.0897 -0.023,-0.19094 0,-0.10128 0,-0.11276 0.023,-0.19093 0.031,-0.1111 0.096,-0.22913 0.1798,-0.32353 0.026,-0.0289 0.1302,-0.12496 0.165,-0.15156 0.012,-0.009 0.039,-0.0277 0.06,-0.0418 0.2168,-0.14402 0.4923,-0.23047 0.7951,-0.24947 0.059,-0.004 0.2321,6.7e-4 0.2909,0.007 0.2582,0.0295 0.4734,0.0996 0.6669,0.21706 0.08,0.0487 0.131,0.0887 0.2208,0.17395 0.1284,0.12189 0.217,0.28858 0.2434,0.45805 0.01,0.0415 0.01,0.16012 0,0.20163 -0.022,0.13931 -0.081,0.2682 -0.1806,0.39128 -0.037,0.0462 -0.1638,0.1615 -0.2166,0.19736 -0.2064,0.14042 -0.4296,0.2213 -0.7114,0.25783 -0.058,0.008 -0.07,0.008 -0.1957,0.009 -0.074,3.5e-4 -0.1414,1.2e-4 -0.1504,-5.4e-4 z m 0.1946,-0.11147 c 0.204,-0.0225 0.3881,-0.1392 0.5111,-0.32403 0.089,-0.13358 0.1417,-0.29443 0.1492,-0.45504 0.01,-0.12481 0,-0.21903 -0.03,-0.31837 -0.063,-0.23548 -0.2097,-0.42495 -0.4044,-0.52313 -0.1593,-0.0803 -0.3358,-0.0914 -0.5014,-0.0316 -0.2112,0.0763 -0.3814,0.26215 -0.4616,0.50404 -0.038,0.11545 -0.052,0.22909 -0.045,0.37131 0.012,0.23569 0.1199,0.46461 0.2889,0.6119 0.1239,0.10803 0.2723,0.16583 0.4305,0.16761 0.019,2.1e-4 0.047,-9.9e-4 0.062,-0.003 z m 3.2819,-0.7855 0,-0.8989 0.029,-0.009 c 0.2734,-0.0903 0.6991,-0.12886 1.1008,-0.0998 0.3902,0.0282 0.7105,0.11049 0.9129,0.23452 l 0.024,0.0145 0,0.82901 0,0.82901 -0.286,0 -0.2861,0 0,-0.79413 0,-0.79412 -0.012,-0.0192 c -0.015,-0.0232 -0.057,-0.0628 -0.085,-0.0803 -0.059,-0.0364 -0.1592,-0.0627 -0.2735,-0.0718 -0.022,-0.002 -0.1543,-0.004 -0.295,-0.005 l -0.2558,-0.002 0,0.88326 0,0.88327 -0.286,0 -0.2861,0 0,-0.89891 z m -7.7457,0.89261 c -0.2593,-0.015 -0.4623,-0.0407 -0.6954,-0.088 l -0.025,-0.005 0,-0.87019 0,-0.87019 0.012,-0.003 c 0.089,-0.0228 0.2587,-0.0474 0.4013,-0.0581 0.1339,-0.0101 0.183,-0.0108 0.8932,-0.0126 l 0.72,-0.002 0,0.1943 0,0.1943 -0.2861,0 -0.286,0 0,-0.15509 0,-0.15508 -0.4413,0 -0.4413,0 0,0.86936 0,0.86937 0.4413,0 0.4413,0 0,-0.42778 0,-0.42778 -0.3021,-9.4e-4 c -0.1662,-5e-4 -0.3033,-0.002 -0.3048,-0.004 0,-0.004 0.029,-0.0294 0.057,-0.0456 0.041,-0.0232 0.1098,-0.0454 0.171,-0.0551 0.015,-0.002 0.1648,-0.004 0.4863,-0.005 l 0.465,-10e-4 0,0.48295 0,0.48294 -0.017,0.003 c -0.01,0.002 -0.041,0.008 -0.071,0.0139 -0.1897,0.0375 -0.3832,0.0608 -0.6193,0.0746 -0.083,0.005 -0.5192,0.006 -0.5984,10e-4 z m 3.392,-2.07127 c -0.06,-0.0249 -0.1321,-0.0391 -0.2192,-0.043 -0.08,-0.004 -0.217,-0.004 -0.3043,5e-5 -0.039,0.002 -0.1388,0.003 -0.2226,0.004 l -0.1524,8.2e-4 -0.081,-0.0748 c -0.1097,-0.10094 -0.1907,-0.16186 -0.3124,-0.23504 -0.3418,-0.20548 -0.7792,-0.33069 -1.2923,-0.36993 -0.138,-0.0106 -0.1845,-0.0119 -0.3857,-0.0115 -0.2087,4.2e-4 -0.2659,0.002 -0.4413,0.016 -0.6125,0.0471 -1.291,0.19686 -1.9038,0.42026 -0.177,0.0645 -0.3359,0.13104 -0.5079,0.21263 -0.041,0.0194 -0.076,0.0345 -0.078,0.0335 0,-9.9e-4 0,-0.007 0,-0.0122 0,-0.0195 -0.01,-0.0982 -0.018,-0.1429 -0.056,-0.30555 -0.2232,-0.54337 -0.5016,-0.71271 -0.2348,-0.14277 -0.5434,-0.23779 -0.9398,-0.28935 -0.1609,-0.0209 -0.2855,-0.0311 -0.5345,-0.0437 -0.093,-0.005 -0.5595,-0.005 -0.7012,1.5e-4 -0.2023,0.007 -0.4383,0.0173 -0.6096,0.0271 -0.057,0.003 -0.128,0.007 -0.1586,0.009 -0.031,0.002 -0.088,0.005 -0.1275,0.007 -0.07,0.004 -0.3025,0.0173 -0.3694,0.0208 l -0.033,0.002 0.023,-0.0127 c 0.1719,-0.0973 0.2911,-0.18221 0.4059,-0.28912 0.1135,-0.10573 0.1853,-0.19731 0.2484,-0.31661 0.2418,-0.45781 0.08,-1.01979 -0.4746,-1.64984 -0.3854,-0.4377 -0.9873,-0.91578 -1.571,-1.24787 -0.064,-0.0367 -0.083,-0.0488 -0.044,-0.0292 0.031,0.0159 0.2995,0.13785 0.3751,0.17056 0.1221,0.0528 0.2055,0.0876 0.5786,0.24097 0.3591,0.14768 0.4362,0.18065 0.6538,0.27992 0.4953,0.22593 0.8189,0.41316 1.1817,0.6838 0.1382,0.10306 0.2785,0.21583 0.5884,0.47267 0.3566,0.29562 0.4774,0.39161 0.6538,0.51966 0.5222,0.37917 0.9549,0.56225 1.5805,0.66875 0.2907,0.0495 0.5973,0.0775 1.1784,0.10776 0.828,0.0431 1.0664,0.0652 1.4351,0.13286 0.2386,0.0438 0.4609,0.0939 0.9186,0.207 0.2956,0.0731 0.5392,0.13009 0.6685,0.1565 0.2276,0.0465 0.3272,0.0645 0.4625,0.0836 0.1716,0.0242 0.3465,0.0412 0.4904,0.0479 0.04,0.002 0.073,0.004 0.074,0.005 0,10e-4 0.01,0.0206 0.011,0.0434 0.04,0.19067 0.1157,0.36182 0.2545,0.57299 0.016,0.0246 0.067,0.0998 0.1132,0.16702 0.095,0.13873 0.119,0.17443 0.1173,0.17578 -6e-4,5e-4 -0.012,-0.004 -0.025,-0.009 z m 0.1806,-0.11727 c -0.1153,-0.0566 -0.2064,-0.15098 -0.2855,-0.29584 -0.048,-0.0875 -0.066,-0.1324 -0.1645,-0.40223 -0.064,-0.1753 -0.085,-0.22744 -0.1189,-0.29209 -0.023,-0.0433 -0.055,-0.0984 -0.071,-0.11873 l -0.01,-0.0127 -0.2172,0 -0.2172,0 0,0.007 c 0,0.004 0,0.0121 0.01,0.0183 l 0.01,0.0113 -0.016,-0.002 c -0.045,-0.006 -0.2941,-0.0319 -0.5551,-0.0585 -0.3171,-0.0323 -0.4043,-0.0415 -0.5641,-0.0598 -0.6177,-0.0706 -1.0816,-0.16175 -1.51,-0.29669 -0.2023,-0.0637 -0.2971,-0.10562 -0.6309,-0.27884 -0.1917,-0.0995 -0.2216,-0.11432 -0.3089,-0.15359 -0.2238,-0.10058 -0.4002,-0.14699 -0.5835,-0.15345 -0.1923,-0.007 -0.3484,0.0191 -0.5424,0.0898 -0.023,0.008 -0.045,0.0163 -0.049,0.0178 l -0.01,0.003 0.011,0.0106 c 0.013,0.0128 0.062,0.0346 0.091,0.0411 0.043,0.009 0.074,0.0112 0.2533,0.0138 0.1875,0.003 0.2052,0.004 0.2522,0.0163 0.025,0.007 0.055,0.0183 0.068,0.0264 l 0.01,0.006 -0.028,0.0148 c -0.047,0.0249 -0.067,0.0516 -0.055,0.0724 0.016,0.0283 0.057,0.0448 0.2308,0.0921 0.064,0.0174 0.1256,0.0352 0.1373,0.0395 l 0.021,0.008 -0.021,0.002 c -0.06,0.005 -0.3269,5.4e-4 -0.4298,-0.008 -0.2874,-0.0232 -0.5342,-0.0686 -0.7966,-0.14651 -0.334,-0.0992 -0.6816,-0.25785 -1.0301,-0.47005 -0.2528,-0.15394 -0.5024,-0.32873 -0.9486,-0.66451 -0.4723,-0.35529 -0.6739,-0.49749 -0.9213,-0.64955 -0.046,-0.0285 -0.084,-0.0523 -0.083,-0.0528 0,-10e-4 0.069,0.0115 0.1241,0.0235 0.1202,0.0264 0.2286,0.0572 0.5764,0.16366 0.3147,0.0963 0.4368,0.1322 0.5599,0.16465 0.2715,0.0716 0.4795,0.11265 0.6938,0.13705 0.1252,0.0142 0.2778,0.0239 0.2734,0.0173 -0.01,-0.01 -0.3262,-0.16121 -0.718,-0.34039 -0.2649,-0.12116 -0.3303,-0.15052 -0.7911,-0.35528 -0.7266,-0.32287 -1.2994,-0.59337 -1.6688,-0.78803 -0.102,-0.0538 -0.2678,-0.14289 -0.2713,-0.14585 0,-0.004 0.02,0.006 0.072,0.03 0.2337,0.10556 0.6021,0.24723 0.9785,0.37621 0.3182,0.10908 0.5345,0.17799 1.3942,0.44428 1.0043,0.31111 1.3898,0.44047 1.9156,0.64282 0.3806,0.1465 0.7638,0.3219 1.082,0.49523 l 0.078,0.0427 0.034,0.003 c 0.083,0.008 0.1393,0.0174 0.2778,0.0483 0.2238,0.0498 0.3025,0.0622 0.3942,0.0622 l 0.043,0 0.1027,0.0779 c 0.3493,0.26508 0.4347,0.3288 0.5538,0.413 0.3989,0.28218 0.7545,0.46893 1.1179,0.58723 0.1908,0.0621 0.3764,0.10147 0.6032,0.12803 0.1388,0.0163 0.183,0.0217 0.3056,0.0376 0.44,0.0572 0.6541,0.10634 0.846,0.19409 0.1403,0.0642 0.2645,0.16305 0.3444,0.27428 0.1118,0.15547 0.1728,0.36428 0.1874,0.64089 0.01,0.10428 0,0.26227 0,0.2644 0,5e-4 -0.017,-0.006 -0.033,-0.0137 z"
     id="path4013"
     inkscape:connector-curvature="0" />
  <path
     style="fill:#ffffff;fill-opacity:1;stroke:#000000;stroke-width:0.07;stroke-linecap:round;stroke-linejoin:bevel;stroke-miterlimit:4;stroke-opacity:1;stroke-dasharray:none"
     d="m 1768.6877,776.97947 -0.3689,-0.006 -0.1288,-0.10989 c -0.4383,-0.3742 -1.1066,-0.57038 -1.9429,-0.57038 -0.8821,0 -1.9608,0.23235 -2.7717,0.59706 l -0.1317,0.0592 -0.033,-0.14281 c -0.051,-0.21996 -0.1399,-0.37463 -0.3027,-0.52908 -0.3739,-0.3547 -0.9839,-0.50524 -2.0474,-0.50528 -0.4082,-10e-6 -1.1136,0.0265 -1.3593,0.051 l -0.1191,0.0119 0.1218,-0.0915 c 0.5355,-0.40255 0.6621,-0.9076 0.3778,-1.50765 -0.1094,-0.23101 -0.239,-0.41897 -0.4672,-0.67769 -0.1908,-0.21637 -0.5751,-0.56087 -0.8422,-0.75497 -0.091,-0.0665 -0.1621,-0.12524 -0.1569,-0.13048 0.016,-0.0157 0.9819,0.40282 1.299,0.56264 0.4179,0.21061 0.7275,0.42379 1.3685,0.94228 0.8096,0.65483 1.0715,0.83299 1.4752,1.00352 0.4704,0.19869 0.9619,0.28062 2.1011,0.35026 1.0916,0.0667 1.2158,0.0849 2.2456,0.32893 0.75,0.17773 1.0875,0.24229 1.4391,0.27522 l 0.26,0.0244 0.012,0.073 c 0.021,0.12203 0.1359,0.36269 0.2667,0.55696 0.068,0.10127 0.124,0.18869 0.124,0.19425 0,0.006 -0.011,0.008 -0.025,0.006 -0.014,-0.003 -0.1911,-0.007 -0.394,-0.0105 l 0,0 z"
     id="path4523"
     inkscape:connector-curvature="0" />
  <path
     style="fill:#ffffff;fill-opacity:1;stroke:#000000;stroke-width:0.07;stroke-linecap:round;stroke-linejoin:bevel;stroke-miterlimit:4;stroke-opacity:1;stroke-dasharray:none"
     d="m 1767.7543,775.76121 c -0.9173,-0.10131 -1.2769,-0.15551 -1.6721,-0.25203 -0.3864,-0.0944 -0.5695,-0.16309 -0.9973,-0.37426 -0.2178,-0.10748 -0.4576,-0.21561 -0.533,-0.24028 -0.1878,-0.0615 -0.4145,-0.09 -0.5833,-0.0734 -0.1352,0.0133 -0.4438,0.0965 -0.4782,0.12899 -0.02,0.0189 0.077,0.0984 0.1349,0.11031 0.023,0.005 0.1473,0.0144 0.2762,0.0215 0.2215,0.0122 0.2331,0.0149 0.2113,0.0499 -0.019,0.0298 -0.016,0.0451 0.014,0.0782 0.021,0.0227 0.051,0.0412 0.068,0.0412 0.017,0 0.026,0.005 0.02,0.0102 -0.016,0.0165 -0.3855,-0.0271 -0.6013,-0.0711 -0.298,-0.0607 -0.5925,-0.16546 -0.9279,-0.33004 -0.3693,-0.18118 -0.625,-0.34763 -1.3441,-0.875 -0.3076,-0.22562 -0.5978,-0.43561 -0.6448,-0.46665 -0.047,-0.031 -0.082,-0.0605 -0.077,-0.0655 0.01,-0.005 0.2238,0.054 0.4863,0.13102 0.6923,0.2032 1.0784,0.28459 1.35,0.28459 0.093,0 0.1012,-0.004 0.095,-0.0439 -0.01,-0.0519 -0.2528,-0.1715 -1.5938,-0.77725 -0.4753,-0.21472 -0.8608,-0.39372 -0.8568,-0.39778 0,-0.004 0.132,0.0338 0.2842,0.0841 0.1522,0.0503 0.6103,0.19608 1.018,0.32391 1.6945,0.53123 2.2493,0.73537 2.9169,1.07331 0.2624,0.1328 0.2842,0.13999 0.6011,0.19815 0.1808,0.0332 0.3489,0.0604 0.3734,0.0604 0.026,10e-6 0.1907,0.10843 0.3907,0.2569 0.4116,0.30554 0.528,0.38424 0.7668,0.51876 0.4283,0.24117 0.776,0.35674 1.2823,0.42616 0.4732,0.0649 0.7985,0.11915 0.8939,0.14909 0.087,0.0272 0.084,0.0276 -0.1364,0.0296 -0.1256,10e-4 -0.2296,0.0108 -0.2366,0.022 -0.015,0.0241 0.017,0.0261 -0.5009,-0.0311 l 0,0 z"
     id="path4525"
     inkscape:connector-curvature="0" />
  <path
     style="fill:#ffffff;fill-opacity:1;stroke:#000000;stroke-width:0.07;stroke-linecap:round;stroke-linejoin:bevel;stroke-miterlimit:4;stroke-opacity:1;stroke-dasharray:none"
     d="m 1753.7883,778.99644 c 0.1911,-0.1048 0.3599,-0.33397 0.4223,-0.5733 0.1016,-0.39028 -0.073,-0.84246 -0.3986,-1.0289 -0.089,-0.0511 -0.096,-0.0588 -0.05,-0.059 0.029,-1.1e-4 0.1327,0.0226 0.2304,0.0505 0.4607,0.1315 0.7212,0.36614 0.7654,0.68934 0.057,0.42056 -0.1961,0.73737 -0.7195,0.8988 -0.072,0.0223 -0.176,0.0462 -0.2304,0.0532 l -0.099,0.0126 0.079,-0.0432 z"
     id="path4527"
     inkscape:connector-curvature="0" />
  <path
     style="fill:#ffffff;fill-opacity:1;stroke:#000000;stroke-width:0.07;stroke-linecap:round;stroke-linejoin:bevel;stroke-miterlimit:4;stroke-opacity:1;stroke-dasharray:none"
     d="m 1752.5976,778.18659 0,-0.91161 0.3656,0.004 c 0.2011,0.002 0.3048,0.007 0.2304,0.0109 l -0.1352,0.007 0,0.88978 0,0.88978 0.1452,0.007 c 0.08,0.004 -0.024,0.009 -0.2304,0.0109 l -0.3756,0.004 0,-0.91161 z"
     id="path4529"
     inkscape:connector-curvature="0" />
  <path
     style="fill:#ffffff;fill-opacity:1;stroke:#000000;stroke-width:0.07;stroke-linecap:round;stroke-linejoin:bevel;stroke-miterlimit:4;stroke-opacity:1;stroke-dasharray:none"
     d="m 1756.9653,778.18659 0,-0.91161 0.2304,0 0.2304,0 0,0.91161 0,0.91161 -0.2304,0 -0.2304,0 0,-0.91161 z"
     id="path4531"
     inkscape:connector-curvature="0" />
  <path
     style="fill:#ffffff;fill-opacity:1;stroke:#000000;stroke-width:0.07;stroke-linecap:round;stroke-linejoin:bevel;stroke-miterlimit:4;stroke-opacity:1;stroke-dasharray:none"
     d="m 1758.5932,779.06287 -0.2054,-0.0303 0,-0.40621 0,-0.40621 -0.2197,-0.007 c -0.1764,-0.005 -0.2267,-0.0137 -0.2548,-0.0419 -0.033,-0.0334 -0.023,-0.0351 0.2198,-0.0351 l 0.2547,0 0,-0.42074 0,-0.42075 0.045,-4e-5 c 0.025,-2e-5 0.1239,0.0144 0.2204,0.0321 l 0.1753,0.0322 0,0.357 0,0.357 -0.065,0.0205 c -0.036,0.0113 -0.117,0.0265 -0.1804,0.0339 -0.102,0.0119 -0.1152,0.0186 -0.1152,0.0584 0,0.039 0.013,0.0466 0.099,0.0568 0.055,0.007 0.1359,0.0227 0.1804,0.036 l 0.081,0.0242 0,0.39754 c 0,0.21865 -0.01,0.3964 -0.015,0.39501 -0.01,-10e-4 -0.1074,-0.0162 -0.2203,-0.0328 l 0,0 z"
     id="path4533"
     inkscape:connector-curvature="0" />
  <path
     style="fill:#ffffff;fill-opacity:1;stroke:#000000;stroke-width:0.07;stroke-linecap:round;stroke-linejoin:bevel;stroke-miterlimit:4;stroke-opacity:1;stroke-dasharray:none"
     d="m 1761.1126,778.32994 c 0,-0.87494 -0.02,-0.78515 0.1957,-0.89288 0.2281,-0.11414 0.4296,-0.15129 0.8161,-0.15054 0.2528,5e-4 0.3762,0.01 0.4788,0.035 0.1712,0.0426 0.3526,0.11488 0.4436,0.17686 l 0.069,0.047 10e-5,0.77637 10e-5,0.77637 -0.2404,0 -0.2404,0 0,-0.81914 0,-0.81915 -0.046,-0.0302 c -0.1113,-0.0729 -0.2415,-0.10033 -0.4748,-0.10004 -0.1895,2.4e-4 -0.2554,0.009 -0.3707,0.0479 l -0.1402,0.0476 -0.01,0.35563 -0.01,0.35563 0.2552,0 c 0.243,0 0.2535,0.002 0.2202,0.0351 -0.028,0.0281 -0.078,0.0364 -0.2547,0.0418 l -0.2198,0.007 0,0.439 0,0.43901 -0.2404,0 -0.2404,0 0,-0.76826 z"
     id="path4535"
     inkscape:connector-curvature="0" />
  <path
     style="fill:#ffffff;fill-opacity:1;stroke:#000000;stroke-width:0.07;stroke-linecap:round;stroke-linejoin:bevel;stroke-miterlimit:4;stroke-opacity:1;stroke-dasharray:none"
     d="m 1765.3801,779.04697 c -0.094,-0.015 -0.186,-0.0276 -0.2053,-0.0281 -0.033,-7.9e-4 -0.035,-0.0545 -0.035,-0.84052 l 0,-0.83968 0.1353,-0.0207 c 0.074,-0.0114 0.1825,-0.026 0.2404,-0.0326 l 0.1052,-0.0119 0,0.90229 c 0,0.84671 0,0.90216 -0.035,0.9003 -0.019,-10e-4 -0.1117,-0.0142 -0.2054,-0.0292 z"
     id="path4537"
     inkscape:connector-curvature="0" />
  <path
     style="fill:#ffffff;fill-opacity:1;stroke:#000000;stroke-width:0.07;stroke-linecap:round;stroke-linejoin:bevel;stroke-miterlimit:4;stroke-opacity:1;stroke-dasharray:none"
     d="m 1766.5823,778.61061 0,-0.47202 -0.1052,-0.007 c -0.058,-0.004 0.05,-0.009 0.2404,-0.0111 l 0.3456,-0.004 0,0.44757 0,0.44757 -0.1753,0.0247 c -0.096,0.0136 -0.2046,0.0296 -0.2404,0.0355 l -0.065,0.0108 0,-0.47201 z"
     id="path4539"
     inkscape:connector-curvature="0" />
  <path
     style="fill:#ffffff;fill-opacity:1;stroke:#000000;stroke-width:0.07;stroke-linecap:round;stroke-linejoin:bevel;stroke-miterlimit:4;stroke-opacity:1;stroke-dasharray:none"
     d="m 1766.5823,777.42524 0,-0.15026 0.2404,0 0.2404,0 0,0.15026 0,0.15027 -0.2404,0 -0.2404,0 0,-0.15027 z"
     id="path4541"
     inkscape:connector-curvature="0" />
  <path
     style="fill:#ffffff;fill-opacity:1;stroke:#000000;stroke-width:0.07;stroke-linecap:round;stroke-linejoin:bevel;stroke-miterlimit:4;stroke-opacity:1;stroke-dasharray:none"
     d="m 1769.936,779.07768 c -0.3015,-0.0542 -0.6237,-0.21187 -0.7818,-0.38257 -0.2911,-0.31426 -0.2921,-0.69411 0,-1.01079 0.2516,-0.27528 0.6893,-0.4278 1.1573,-0.40321 0.5009,0.0263 0.9402,0.26686 1.1135,0.60987 0.052,0.10178 0.058,0.13641 0.058,0.29561 10e-5,0.16724 0,0.18944 -0.068,0.30616 -0.1356,0.25008 -0.4415,0.46682 -0.7833,0.55493 -0.1525,0.0393 -0.5466,0.0564 -0.6933,0.03 z m 0.4967,-0.039 c 0.1981,-0.0583 0.4152,-0.29057 0.4929,-0.52734 0.09,-0.27504 0.05,-0.62611 -0.099,-0.8596 -0.1691,-0.26539 -0.4797,-0.40267 -0.7613,-0.33647 -0.1342,0.0316 -0.1884,0.0588 -0.2969,0.14946 -0.2266,0.18934 -0.3391,0.47673 -0.3139,0.80204 0.019,0.24645 0.088,0.40493 0.2516,0.57767 0.1929,0.2038 0.4554,0.27398 0.7264,0.19424 l 0,0 z"
     id="path4543"
     inkscape:connector-curvature="0" />
  <path
     style="fill:#ffffff;fill-opacity:1;stroke:#000000;stroke-width:0.07;stroke-linecap:round;stroke-linejoin:bevel;stroke-miterlimit:4;stroke-opacity:1;stroke-dasharray:none"
     d="m 1773.5946,778.23883 0,-0.85936 0.1353,-0.0317 c 0.2606,-0.0611 0.4647,-0.0784 0.7942,-0.0672 0.4335,0.0147 0.7286,0.0726 0.9589,0.18791 l 0.095,0.0477 0,0.79106 0,0.79106 -0.2405,0 -0.2404,0 0,-0.77868 c 0,-0.76664 -7e-4,-0.77953 -0.043,-0.83348 -0.088,-0.11143 -0.1888,-0.13598 -0.603,-0.14636 l -0.3757,-0.009 0,0.88396 0,0.88397 -0.2404,0 -0.2404,0 0,-0.85936 z"
     id="path4545"
     inkscape:connector-curvature="0" />
  <path
     style="fill:#ffffff;fill-opacity:1;stroke:#000000;stroke-width:0.07;stroke-linecap:round;stroke-linejoin:bevel;stroke-miterlimit:4;stroke-opacity:1;stroke-dasharray:none"
     d="m 1769.264,776.79914 c -0.107,-0.11863 -0.1466,-0.19489 -0.2737,-0.52763 -0.065,-0.17155 -0.1434,-0.35034 -0.173,-0.39732 l -0.054,-0.0854 0.046,0.0139 c 0.026,0.008 0.086,0.0365 0.1341,0.0642 0.2743,0.15748 0.4053,0.42015 0.4299,0.86214 0.01,0.17107 -0.01,0.18251 -0.1098,0.0701 l 0,0 z"
     id="path4547"
     inkscape:connector-curvature="0" />
  <path
     style="fill:#ffffff;fill-opacity:1;stroke:#000000;stroke-width:0.07;stroke-linecap:round;stroke-linejoin:bevel;stroke-miterlimit:4;stroke-opacity:1;stroke-dasharray:none"
     d="m 1757.6726,777.28005 c 0.1191,-0.004 0.3084,-0.004 0.4208,3e-5 0.1123,0.004 0.015,0.006 -0.2165,0.006 -0.2314,-2e-5 -0.3233,-0.003 -0.2043,-0.006 z"
     id="path4549"
     inkscape:connector-curvature="0" />
  <path
     style="fill:#ffffff;fill-opacity:1;stroke:#000000;stroke-width:0.07;stroke-linecap:round;stroke-linejoin:bevel;stroke-miterlimit:4;stroke-opacity:1;stroke-dasharray:none"
     d="m 1765.9261,779.08328 c 0.096,-0.004 0.2542,-0.004 0.3506,0 0.096,0.004 0.018,0.007 -0.1753,0.007 -0.1928,0 -0.2717,-0.003 -0.1753,-0.007 z"
     id="path4551"
     inkscape:connector-curvature="0" />
  <path
     style="fill:#ffffff;fill-opacity:1;stroke:#000000;stroke-width:0.5;stroke-miterlimit:4;stroke-opacity:1;stroke-dasharray:none"
     d="m 22.889549,13.40534 c -0.125838,-0.05474 -0.25953,-0.08102 -0.459437,-0.0903 -0.146911,-0.0068 -0.284865,-0.0058 -0.890887,0.0068 -0.167532,0.0035 -0.339342,0.0045 -0.381811,0.0024 l -0.07723,-0.0039 -0.0403,-0.04112 c -0.103213,-0.105308 -0.286074,-0.27257 -0.375149,-0.343159 -0.786302,-0.623128 -1.84546,-0.970814 -3.18356,-1.045053 -0.430258,-0.02387 -1.049931,-0.01026 -1.538675,0.03379 -1.614424,0.145495 -3.425269,0.654405 -4.79551,1.347706 -0.0414,0.02094 -0.07828,0.03631 -0.08196,0.03415 -0.0036,-0.0021 -0.0067,-0.01364 -0.0067,-0.02553 0,-0.04079 -0.02002,-0.204944 -0.03638,-0.298215 -0.05264,-0.300224 -0.153158,-0.564701 -0.305648,-0.804174 -0.400771,-0.629383 -1.1451445,-1.036909 -2.2585275,-1.236486 -0.3999226,-0.07169 -0.7616366,-0.108444 -1.3952679,-0.141791 -0.1864368,-0.0098 -1.1210753,-0.0096 -1.4051088,3.46e-4 -0.4054838,0.01416 -0.8782833,0.03605 -1.2216697,0.05658 -0.1134871,0.0068 -0.2564609,0.01521 -0.3177096,0.01874 -0.061249,0.0035 -0.1761984,0.01054 -0.2554678,0.0156 -0.1392902,0.0089 -0.6062935,0.0362 -0.7402028,0.04333 l -0.06551,0.0035 0.04507,-0.02655 C 3.4460652,10.709065 3.6885501,10.529024 3.9183591,10.305671 4.1429858,10.087359 4.2872959,9.8954092 4.4128449,9.6479292 4.8975619,8.6924912 4.5736408,7.5196522 3.4618829,6.2047656 2.894863,5.5341566 2.1133642,4.8317656 1.2397756,4.2076079 0.93486836,3.9897645 0.59791025,3.7688318 0.31380438,3.6004846 0.18469818,3.5239862 0.14788034,3.4986472 0.22538017,3.5396328 c 0.0624766,0.033048 0.60037089,0.2877437 0.75186759,0.356019 0.24360434,0.1097834 0.41093684,0.1823701 1.15924714,0.5028314 0.7197084,0.3082123 0.8740219,0.3770264 1.3101119,0.5841834 1.1947651,0.567557 1.9037477,1.021569 2.8887651,1.8498736 0.1772998,0.149097 0.3286697,0.278773 0.7270031,0.622796 0.8702116,0.75159 1.2724818,1.070437 1.7501381,1.38718 1.0235689,0.678756 2.0392099,1.006007 3.5952559,1.1584288 0.411767,0.04033 0.724981,0.06239 1.424736,0.100308 1.659223,0.08991 2.136897,0.135974 2.875692,0.277284 0.512037,0.09794 1.03498,0.222354 2.155134,0.51275 0.492085,0.127572 1.145904,0.276967 1.526288,0.348752 0.463339,0.08744 0.985253,0.15099 1.40836,0.171485 0.07927,0.0038 0.146097,0.0088 0.148499,0.01113 0.0024,0.0023 0.0121,0.04301 0.02165,0.09051 0.07947,0.397929 0.232121,0.755777 0.510087,1.195815 0.03245,0.05135 0.13456,0.208196 0.226939,0.348552 0.190625,0.289651 0.238259,0.364041 0.234936,0.366857 -0.0018,10e-4 -0.02401,-0.0075 -0.05054,-0.01901 z m 0.36157,-0.244909 c -0.282499,-0.144476 -0.499163,-0.413656 -0.676481,-0.840498 -0.05561,-0.13388 -0.07344,-0.182672 -0.224951,-0.616189 -0.127626,-0.365187 -0.170186,-0.474124 -0.238134,-0.609579 -0.04534,-0.09037 -0.110904,-0.205352 -0.141312,-0.247795 l -0.01896,-0.02645 -0.435295,0 -0.435296,0 0,0.01469 c 0,0.0081 0.0076,0.02529 0.01679,0.03825 l 0.01679,0.02356 -0.03156,-0.0041 c -0.08712,-0.01142 -0.57984,-0.06564 -1.053452,-0.115916 -0.291834,-0.03098 -0.570397,-0.06056 -0.619024,-0.06574 -0.984981,-0.104743 -1.697268,-0.211343 -2.369758,-0.354653 -0.531665,-0.113297 -1.09222,-0.272378 -1.495068,-0.4242888 -0.250683,-0.09453 -0.444197,-0.189233 -0.995688,-0.487296 -0.384177,-0.207634 -0.443981,-0.238599 -0.619024,-0.320552 -0.363285,-0.170075 -0.658387,-0.263257 -0.966202,-0.305097 -0.10426,-0.01418 -0.315019,-0.02107 -0.451998,-0.0148 -0.265634,0.01215 -0.536703,0.07272 -0.837854,0.187175 -0.04538,0.01724 -0.0896,0.03396 -0.09828,0.03715 l -0.01589,0.0058 0.02234,0.02208 c 0.02703,0.0267 0.124357,0.07231 0.182843,0.08569 0.08682,0.01986 0.149005,0.0234 0.507668,0.02886 0.375762,0.0057 0.411207,0.0081 0.505337,0.03405 0.05023,0.01385 0.110924,0.03825 0.137052,0.05513 l 0.02089,0.01348 -0.05565,0.03096 c -0.09346,0.052 -0.134217,0.107646 -0.110599,0.151038 0.03218,0.05913 0.11477,0.09343 0.462616,0.192132 0.127897,0.03629 0.251712,0.07336 0.275132,0.08238 l 0.04258,0.01641 -0.04258,0.0039 c -0.1208,0.01118 -0.655137,0.0012 -0.861401,-0.0162 -1.170446,-0.09834 -2.171335,-0.420176 -3.2720057,-1.05214 C 8.8780596,8.3967232 8.4079143,8.0752672 7.7012971,7.5377142 7.5178403,7.3981452 7.3768342,7.2887112 6.8691127,6.8918152 6.1140672,6.3015956 5.6989954,5.9993316 5.2392329,5.7049026 c -0.093011,-0.05956 -0.1681811,-0.109178 -0.1670436,-0.11026 0.00307,-0.0029 0.1392181,0.02399 0.2488229,0.0491 0.2408959,0.05518 0.458011,0.119383 1.1550579,0.341544 0.3098369,0.09875 0.6510929,0.206053 0.7583322,0.238449 0.683306,0.206404 1.2369999,0.329907 1.7538037,0.391194 0.2475048,0.02935 0.5566738,0.04973 0.5478258,0.03612 C 9.5151966,6.6190256 7.9682309,5.8715476 6.9542688,5.4035706 4.8519324,4.4332775 3.8860375,3.9564464 2.8372436,3.3711471 2.7237566,3.3078133 2.6279471,3.253407 2.6243539,3.2502431 c -0.00939,-0.00817 0.04023,0.013171 0.1451767,0.062553 0.4682854,0.2203027 1.2066645,0.5159613 1.9608253,0.7851437 0.6377665,0.2276411 1.0710939,0.3714493 2.7938042,0.9271948 2.0126479,0.649276 2.7851179,0.919249 3.8386249,1.341551 0.762702,0.305733 1.530676,0.6717986 2.168244,1.0335166 l 0.157203,0.08919 0.06878,0.0066 c 0.166917,0.01609 0.27914,0.03639 0.556799,0.100712 0.448406,0.103876 0.606078,0.129783 0.789878,0.129783 l 0.08575,0 0.205775,0.162632 c 0.699991,0.553228 0.871205,0.686204 1.109753,0.861928 0.799448,0.588893 1.511916,0.978633 2.240291,1.225524 0.382227,0.1295568 0.754125,0.2117768 1.208579,0.2671958 0.27831,0.03394 0.366769,0.04528 0.612469,0.07857 0.881786,0.119444 1.31069,0.221933 1.695191,0.405072 0.284106,0.135316 0.531268,0.341158 0.694014,0.577954 0.220961,0.321521 0.342682,0.757683 0.371717,1.331965 0.01101,0.217624 0.0052,0.547348 -0.0098,0.551806 -0.0036,0.001 -0.03357,-0.01186 -0.06659,-0.02874 z"
     id="path4662"
     inkscape:connector-curvature="0" />
  <path
     style="fill:#ffffff;fill-opacity:1;stroke:#000000;stroke-width:0.07;stroke-linecap:round;stroke-linejoin:bevel;stroke-miterlimit:4;stroke-opacity:1;stroke-dasharray:none"
     d="m 20.896731,13.064484 c -0.659073,-0.601995 -1.563641,-0.988113 -2.708045,-1.155941 -0.632636,-0.09278 -2.260745,-0.06774 -2.977923,0.0458 -1.315933,0.208324 -2.983608,0.70757 -3.878737,1.161167 l -0.214602,0.108748 -0.05563,-0.29481 C 10.929548,12.228548 10.482371,11.654712 9.8051067,11.316804 8.6641194,10.747531 6.955153,10.616647 3.6604442,10.846206 l -0.3790645,0.02641 0.2367888,-0.163384 c 0.7386169,-0.509645 1.1679797,-1.2556788 1.1679797,-2.0294088 0,-0.48124 -0.2872002,-1.265215 -0.6733293,-1.837997 C 3.470114,6.0367815 2.4854878,5.0505884 1.5087039,4.3337282 1.3438786,4.2127631 1.2174043,4.1054087 1.22765,4.095163 1.251218,4.071595 2.7362152,4.7172197 3.511795,5.0882283 c 1.3289767,0.6357332 1.7844924,0.9536174 3.8111304,2.6596199 1.5736417,1.324675 2.3077559,1.747096 3.5843406,2.062486 0.671335,0.165859 1.306183,0.2392168 3.144005,0.3633008 2.143852,0.144745 2.476135,0.19343 4.102816,0.60113 1.338695,0.335521 2.298233,0.538078 2.874177,0.606733 0.3201,0.03816 0.645441,0.07838 0.722981,0.08937 0.131224,0.01862 0.147453,0.04131 0.234499,0.327888 0.103907,0.342092 0.323927,0.779229 0.58771,1.167666 0.0957,0.140929 0.174003,0.267368 0.174003,0.280977 0,0.01361 -0.366243,0.02385 -0.813874,0.02275 l -0.813873,-0.002 -0.222979,-0.203668 0,-1e-6 z"
     id="path4703"
     inkscape:connector-curvature="0" />
  <path
     style="fill:#ffffff;fill-opacity:1;stroke:#000000;stroke-width:0.07;stroke-linecap:round;stroke-linejoin:bevel;stroke-miterlimit:4;stroke-opacity:1;stroke-dasharray:none"
     d="m 23.037312,12.910604 c -0.22502,-0.207416 -0.319403,-0.390018 -0.64451,-1.24693 -0.126258,-0.332787 -0.268907,-0.66977 -0.316998,-0.748851 l -0.08744,-0.143782 -0.7242,0.0073 c -1.449362,0.01459 -4.045824,-0.368284 -5.362166,-0.7907068 -0.196221,-0.06297 -0.788231,-0.329388 -1.315577,-0.592043 -0.550195,-0.274036 -1.08625,-0.50953 -1.257848,-0.552584 -0.416382,-0.10447 -1.003905,-0.09756 -1.416046,0.01665 -0.47619,0.131959 -0.495545,0.148138 -0.311467,0.260356 0.121813,0.07426 0.227224,0.09373 0.510293,0.09425 0.196222,3.57e-4 0.430688,0.01288 0.521035,0.02782 0.142711,0.0236 0.157882,0.03739 0.115601,0.105091 -0.07864,0.125922 -0.0077,0.217787 0.210571,0.272752 0.112316,0.02828 0.197469,0.05816 0.189228,0.0664 -0.0082,0.0082 -0.248824,-0.0041 -0.534628,-0.02737 C 11.629348,9.5787622 10.861195,9.3591722 9.9264957,8.8909202 9.0613014,8.4574882 8.6115182,8.1533282 6.9382374,6.8701522 6.4231556,6.4751549 5.8747527,6.0664942 5.7195642,5.9620171 5.5643757,5.8575399 5.4457386,5.7637233 5.4559261,5.7535358 5.4661136,5.7433482 5.8539716,5.8539867 6.3178327,5.999399 7.7167648,6.4379398 8.500261,6.6233009 9.2410222,6.6909732 9.4674816,6.7116612 9.5424155,6.7038842 9.5600763,6.6578614 9.5879518,6.5852191 9.6313413,6.607102 6.7598541,5.2456164 4.589421,4.2165283 3.9902969,3.9214287 4.1732962,3.9716025 c 0.049055,0.01345 1.3434493,0.4432577 2.8764307,0.9551288 3.7735131,1.2599972 4.4769761,1.5278054 5.9312451,2.2580229 0.714454,0.358741 0.754617,0.372856 1.38247,0.485857 0.355652,0.06401 0.68193,0.116352 0.725062,0.116316 0.04313,-3.6e-5 0.344153,0.207587 0.668937,0.461383 1.173897,0.917323 1.894756,1.369133 2.641923,1.655871 0.566175,0.2172788 0.99387,0.3160658 1.939919,0.4480748 0.453762,0.06332 0.989767,0.153615 1.191121,0.200662 0.939583,0.219538 1.442186,0.648647 1.637348,1.397924 0.07204,0.276594 0.146278,1.142924 0.09794,1.142924 -0.01632,0 -0.119087,-0.08242 -0.228376,-0.183162 z"
     id="path4705"
     inkscape:connector-curvature="0" />
</svg>
