<svg xmlns="http://www.w3.org/2000/svg" width="978.908" height="587.754"><desc>world98</desc><path fill="none" stroke="#000" stroke-width="9" d="M230.975 586.306c-3.28-1.364-4.562-3.505-18.41-30.7-8.186-16.077-14.93-29.31-14.985-29.41-.055-.096-7.455 1.667-16.444 3.92l-16.344 4.094-11.646-1.775c-16.062-2.448-28.445-8.084-44.34-20.183-10.558-8.035-12.936-10.49-25.066-25.878-16.126-20.455-33.86-49.48-42.312-69.25-3.973-9.29-6.152-13.247-7.296-13.242-.898.004-8.832 1.35-17.632 2.992S.387 409.862.25 409.867c-.138.004-.25-.618-.25-1.383 0-.764 5.848-5.827 12.995-11.25l12.996-9.86.01-5c.01-2.75-2.22-15.125-4.95-27.5C14.42 324.772 12 303.3 12 274.342c0-20.813.24-23.775 3.598-44.522 3.084-19.05 4.45-24.74 9.56-39.826 5.84-17.246 6.133-17.834 14.533-29.11 8.4-11.274 11.81-14.964 13.81-14.964.55 0-.12.94-1.5 2.1l-2.5 2.1 2.5-1.546c1.38-.85 2.39-2.038 2.25-2.643-.14-.6 2.63-3.18 6.14-5.74 5.44-3.94 6.66-5.4 8.11-9.73 1.71-5.06 1.69-5.26-2.92-36.05l-4.63-30.95 3.81-3.81c3.57-3.56 5.2-4.19 25.28-9.83 11.81-3.31 37.29-10.5 56.63-15.98s36.76-9.96 38.71-9.96c3.08 0 12.9 1.5 62.14 9.49 15.25 2.48 103.3 16.57 115.92 18.56l11.92 1.88 22.58-5.59c20.39-5.05 23.66-6.16 33.62-11.41 7.69-4.05 19.09-8.56 37.5-14.82l26.46-9 40.87-6.08c34.96-5.2 43.63-6.16 60-6.65 29.15-.89 38.66.22 94.61 11.09 60.64 11.79 105.68 20.51 129.49 25.07 26.04 5 45.71 10.57 72.97 20.66 27.1 10.03 35.43 14.71 48.43 27.21 15.18 14.59 25.5 30.46 33.88 52.09 3.33 8.6 3.46 9.41 2.89 18-.78 11.66-6.26 31.56-12.18 44.23-8.09 17.31-12.23 22.91-26.72 36.14-7.28 6.65-18.2 16.68-24.25 22.28-13.53 12.53-39.02 34.8-42.73 37.34-.8.55-11.31 8.42-23.36 17.5-12.05 9.07-31.34 23.47-42.88 32-11.53 8.52-38.03 28.21-58.88 43.74-29.62 22.06-41.54 30.3-54.52 37.68l-16.62 9.44-36 11.12c-34.49 10.66-36.79 11.23-55 13.61-10.45 1.37-22.6 3.41-27 4.55-10.23 2.64-28.49 2.19-38.22-.93l-6.21-2-19.28 6.38-19.28 6.38L442 498.86c-18.424 13.753-46.266 34.54-61.87 46.2l-28.37 21.194-40.13 7.77c-81.95 15.868-74.688 14.762-80.654 12.282zm6.525-1.432c-2.75-1.18-4.328-1.18-2.5 0 .825.534 2.175.945 3 .915.99-.04.82-.35-.5-.92zm62.91-14.818l48.91-9.917 51.99-38.89c71.864-53.75 67.46-50.7 79.555-55.03l10.366-3.71-4.54-4.08c-4.56-4.1-8.93-9.13-24.85-28.59-7.11-8.69-11.22-15.37-23.77-38.61-13.46-24.93-16.56-31.65-27.51-59.52-6.78-17.29-15.05-40.19-18.36-50.9l-6.03-19.47-.6-29.5c-.33-16.23-1.21-39.77-1.95-52.32-1.29-21.87-1.25-23.82.97-47 2.91-30.46 6.08-44.45 13.74-60.73 4.02-8.54 6.92-13.16 11.12-17.7l5.69-6.15-6.81 1.96c-31.48 9.07-32.24 9.23-39.22 8.11-3.62-.58-46.82-7.44-96.01-15.25l-89.42-14.19-56.9 15.87c-56.1 15.7-56.94 15.97-58.88 19.1l-1.96 3.17 4.68 29.1 4.68 29.1-2.43 6.2c-2.28 5.83-3 6.62-12.12 13.22-8.39 6.08-10.81 8.56-18.11 18.52-7.99 10.9-8.74 12.38-14.46 28.57-5.58 15.77-6.26 18.69-9.06 38.5-2.17 15.35-3.2 27.24-3.63 41.93-.56 19.07-.39 22.02 2.37 42.35 1.63 12.02 4.91 30.79 7.27 41.71 4 18.44 4.45 19.822 6.33 19.372 1.11-.267 61.87-13.78 135.02-30.028 124.92-27.75 169.93-36.92 176.3-35.92l6.34.99c2.84.44 3.91 1.22 4.87 3.54 1.47 3.553 1.13 4.08-6.46 9.935-5.29 4.076-6.2 4.35-109.19 32.415-102.23 27.86-104.6 28.45-150.94 37.665l-47.08 9.36 5.36 12.04c8.57 19.27 27.28 49.54 42.04 68.01 11.08 13.87 14.24 17.11 24.08 24.66 13.33 10.24 25.89 16.17 39.07 18.47 12.34 2.15 13.09 2.08 30.69-2.98 8.84-2.54 16.61-4.62 17.25-4.62.64 0 8.02 13.72 16.4 30.49 15.15 30.32 15.26 30.5 19.18 31.81 4.6 1.53-1.76 2.61 65.98-11.13zm-40.68 11.214c-.333-.332-1.196-.368-1.918-.08-.797.32-.56.557.605.605 1.054.044 1.644-.192 1.312-.525zm10-2c-.333-.332-1.196-.368-1.918-.08-.797.32-.56.557.605.605 1.054.044 1.644-.192 1.312-.525zm5.52-1.058c-.688-.277-1.813-.277-2.5 0-.688.278-.125.504 1.25.504s1.937-.227 1.25-.504zm5-1c-.688-.277-1.813-.277-2.5 0-.688.278-.125.504 1.25.504s1.937-.227 1.25-.504zm5-1c-.688-.277-1.813-.277-2.5 0-.688.278-.125.504 1.25.504s1.937-.227 1.25-.504zm5-1c-.688-.277-1.813-.277-2.5 0-.688.278-.125.504 1.25.504s1.937-.227 1.25-.504zm5-1c-.688-.277-1.813-.277-2.5 0-.688.278-.125.504 1.25.504s1.937-.227 1.25-.504zm5-1c-.688-.277-1.813-.277-2.5 0-.688.278-.125.504 1.25.504s1.937-.227 1.25-.504zm8.75-1.338c1.96-.627 2.067-.796.5-.782-1.1.01-3.35.363-5 .782-2.695.686-2.746.766-.5.782 1.375.01 3.625-.34 5-.782zm23.296-4.446l17.796-3.444 15.204-11.278c56.716-42.07 102.91-76.832 102.104-76.832-.522 0-27.004 19.513-58.848 43.362l-57.898 43.362-14.077 2.718c-7.742 1.494-16.552 3.318-19.577 4.053-10.275 2.49-2.565 1.51 15.296-1.95zM159.25 530.212c-.688-.277-1.813-.277-2.5 0-.688.278-.125.504 1.25.504s1.937-.227 1.25-.504zm9.48.058c-.333-.332-1.196-.368-1.918-.08-.797.32-.56.557.605.605 1.054.044 1.644-.192 1.312-.525zm-15-1c-.333-.332-1.196-.368-1.918-.08-.797.32-.56.557.605.605 1.054.044 1.644-.192 1.312-.525zm31.51-2.634c7.557-1.794 13.744-3.6 13.75-4.012.006-.412-.553-.75-1.24-.75-1.616 0-28.573 7.873-27.25 7.96.55.034 7.183-1.404 14.74-3.198zm-37.99 1.576c-.688-.277-1.813-.277-2.5 0-.688.278-.125.504 1.25.504s1.937-.227 1.25-.504zM484 468.748c4.675-1.605 11.813-4.098 15.863-5.54l7.363-2.62-3.264-1.372c-1.796-.755-3.053-1.584-2.795-1.842.573-.573 10.017 1.03 18.833 3.194 3.575.878 11.093 2.02 16.706 2.538 9.334.86 11.17.723 21.5-1.622 6.212-1.41 18.71-3.497 27.777-4.637 15.395-1.935 18.908-2.822 53.236-13.447 34.06-10.543 50.08-16.756 48.01-18.625-.41-.362-2.43-1.2-4.5-1.863-2.07-.662-7.4-3.945-11.84-7.295-6.99-5.278-8.77-6.15-13.28-6.524-2.87-.238-9.02.344-13.67 1.294-15.23 3.11-30.45 5.27-30.79 4.37-.19-.485-1.76-.838-3.5-.783-2.98.094-3.02.143-.67.81 1.92.547.81.943-4.81 1.715-4.02.55-7.53.63-7.81.19-.28-.45-1.49-.77-2.7-.72-2.06.09-2.04.15.31.98 1.75.62.55.76-4 .46-4.5-.29-5.89-.14-4.5.51 1.38.64.42.75-3.14.35-3.22-.36-5.39-.17-5.81.5-.41.65-2.31.85-4.86.5-3.2-.45-3.84-.32-2.69.52 1.13.83.2.94-3.75.45-3.32-.42-5.25-.28-5.25.36 0 1.4-5.85 2.14-6.4.81-.3-.71-.73-.74-1.28-.08-.46.55-2.4 1.11-4.33 1.25-9.66.69-16.6 1.44-34.71 3.74-10.86 1.38-20.28 2.51-20.93 2.51-.66 0-3.1-3.49-5.43-7.75-6.74-12.29-29.93-52.16-34.15-58.7-2.12-3.27-3.61-6.56-3.33-7.3.28-.75.07-1.08-.47-.74-.9.56-1.38-1.04-1.26-4.25.02-.68-.32-1.02-.77-.74-1.12.69-2.26-3.23-1.37-4.67.42-.68.28-.9-.33-.52-1.09.67-2.72-2.22-1.79-3.15.28-.29.52.08.52.81 0 .73.24 1.1.52.81.91-.91-.69-3.83-1.74-3.18-.63.39-.74-.22-.29-1.63.45-1.44.34-2.02-.31-1.62-.58.36-1.79-1.45-2.77-4.12-.96-2.62-2.35-6.27-3.08-8.11-.74-1.85-1.11-3.72-.83-4.17.27-.45.06-.96-.47-1.15-1.75-.6-9.72-28.66-11.58-40.72-.29-1.87-.77-3.79-1.07-4.28-.3-.49-.71-2.13-.9-3.65-.19-1.52-1.7-8.82-3.36-16.22-1.66-7.41-3.53-16.07-4.15-19.24-1.09-5.55-1.38-7.42-2.53-16.23-.29-2.2-1.68-10.75-3.09-19-2.14-12.51-2.6-18.49-2.72-36l-.15-21 14.5-6.14c7.98-3.38 29.8-12.54 48.5-20.36s41.43-17.39 50.5-21.25c9.08-3.87 21.23-8.8 27-10.96 12.61-4.72 13.81-5.45 17.2-10.42 2.06-3.02 3.23-7.17 5.33-18.87 1.48-8.25 3.76-18.38 5.07-22.5 1.31-4.13 2.38-8.01 2.39-8.63.01-.62-1.45-1.74-3.24-2.5-4.82-2.03-62.59-1.85-75.96.23-7.95 1.25-9.81 1.28-10.22.21-.29-.76.2-1.31 1.17-1.31 1.11 0 1.33-.33.67-.99-.67-.67-2.49-.42-5.45.75l-4.45 1.75 3.5.66c3.43.65 3.42.66-.71.54-2.31-.07-4.53.2-4.92.59-.39.39-1.53.71-2.54.71-3.605 0-30.995 9.94-38.096 13.83-3.98 2.18-9.01 4.9-11.174 6.04-7.18 3.78-17.14 16.3-23.59 29.63-7.87 16.27-11.26 30.91-14.04 60.67-1.91 20.39-1.99 24.15-.91 43.33.65 11.55 1.75 36.07 2.46 54.5l1.28 33.5 5.53 17c3.04 9.35 11 30.95 17.68 48 10.71 27.33 13.93 34.29 27.15 58.83 12.3 22.81 16.56 29.76 23.65 38.5 13.76 16.98 21.12 25.34 26.42 30.06 6.07 5.4 5.85 5.7-7.44 10.07-5.36 1.76-10.04 3.69-10.42 4.29-.45.73-.042.83 1.24.31 1.055-.428 5.74-2.09 10.416-3.69zm-2.246-51.056c-5.537-7.87-6.397-9.333-4.972-8.452 1.574.973 10.4 13.785 9.866 14.32-.248.247-2.45-2.393-4.894-5.868zm96.058 1.5c.722-.29 1.585-.254 1.917.078.33.332-.26.57-1.32.525-1.17-.048-1.4-.285-.61-.604zm-50.736 2.717c17.283-2.19 54.743-6.91 83.243-10.5l51.81-6.54 13.88 8.04 13.88 8.04 10.4-6.8c5.72-3.74 36.62-26.37 68.66-50.3s68.45-51.03 80.9-60.24c18.95-14.02 28.68-22.29 59.82-50.82l37.19-34.08 7.41-12.68c9.97-17.05 16.64-36.58 17.44-51.06.51-9.29.37-10.23-2.69-18.15-7.92-20.54-15.07-31.78-30.77-48.36-11.21-11.84-19.02-16.15-51.54-28.44-18.71-7.07-30.35-10.84-40.28-13.04-10.74-2.4-153.07-29.41-202.96-38.54-15.76-2.88-36.8-3.97-53-2.73-11.28.86-76.05 8.63-86.42 10.37-.78.13 13.96.28 32.76.34 30.63.09 34.59.28 38.16 1.9 2.19.99 3.99 2.45 3.99 3.25 0 .8-1.12 5.12-2.48 9.6-1.37 4.48-3.81 15.28-5.45 24-4.06 21.8-5.7 24.16-20.57 29.61-4.95 1.81-31.72 12.86-59.5 24.54s-57.81 24.29-66.75 28.02l-16.23 6.8v18.23c0 17.16.29 19.96 4.96 48.09 2.72 16.43 8.1 43.82 11.95 60.87l6.99 31 11.61 28.89c10.99 27.35 12.58 30.58 29.69 60.5 19.67 34.39 19.5 34.11 21.25 34.11.67 0 15.35-1.78 32.63-3.97zM697 420.94c.825-.498 4.762-2.846 8.75-5.216 3.987-2.37 7.25-4.656 7.25-5.08 0-.423.45-.77 1.003-.77.55 0 5.39-3.285 10.75-7.3 5.36-4.016 19.196-14.254 30.744-22.75 25.897-19.054 46.718-34.508 60.503-44.906 55.494-41.86 58.6-44.28 73-56.87 22.105-19.326 43-39.202 43-40.902 0-.458 1.297-1.323 2.883-1.92 1.585-.6 3.498-2.353 4.25-3.897.752-1.55 2.042-3.02 2.867-3.28 1.105-.35.998.09-.405 1.67-1.048 1.18-1.51 2.14-1.03 2.14 1.08 0 12.435-11.14 12.435-12.2 0-.42 1.78-3.67 3.953-7.23 8.914-14.57 18.126-42.03 19.48-58.08.645-7.64.513-8.4-2.946-16.9-3.943-9.7-13.2-28.6-14.005-28.6-.275 0 1.686 4.39 4.358 9.75 5.948 11.94 9.836 22.24 10.695 28.35.94 6.68-1.132 18.64-5.706 32.9-3.19 9.93-5.74 15.42-12.42 26.66-5.06 8.52-9.96 15.49-12.31 17.5-3.24 2.77-50.66 46.08-67.36 61.52-2.62 2.41-4.75 4.85-4.75 5.41 0 .56-.43.75-.96.43-.53-.33-11.67 7.37-24.75 17.1-13.09 9.73-32.05 23.81-42.13 31.28-10.09 7.47-36.5 27.15-58.71 43.73s-43.88 32.28-48.17 34.89l-7.8 4.74-9-4.72c-4.95-2.6-7.88-3.75-6.5-2.56s5.64 3.65 9.47 5.49c7.43 3.55 6.94 3.56 13.52-.42zm-94.27-5.67c-.333-.332-1.196-.368-1.918-.08-.797.32-.56.557.605.605 1.054.044 1.644-.192 1.312-.525zM25.5 402.812c7.15-1.196 34.6-6.41 61-11.59 47.634-9.344 48.755-9.62 147-36.302 54.45-14.787 100.852-27.373 103.115-27.968 2.264-.595 5.864-2.478 8-4.184 2.137-1.707 4.716-3.69 5.73-4.41 1.24-.878 1.636-1.97 1.204-3.33-.51-1.585-1.86-2.173-6.25-2.722-9.57-1.195-37.79 4.286-145.3 28.224-55.83 12.43-117.03 26.038-136 30.242l-34.5 7.644-.5 5.164-.5 5.163-10 7.644c-12.46 9.52-12.83 9.894-9 9.168 1.65-.313 8.85-1.547 16-2.743zm-9.817-93.125c-.32-.798-.556-.56-.604.604-.05 1.06.19 1.65.52 1.32.33-.33.37-1.19.08-1.91zm-1-8c-.32-.798-.556-.56-.604.604-.05 1.06.19 1.65.52 1.32.33-.33.37-1.19.08-1.91zm-.94-24.52c-.193-3.736-.353-.943-.354 6.207-.01 7.15.15 10.207.35 6.792.19-3.415.19-9.265 0-13zm2.94-42.48c-.32-.798-.556-.56-.604.604-.05 1.06.19 1.65.52 1.32.33-.33.37-1.19.08-1.91zm.98-7.063c-.278-.687-.505-.125-.505 1.25s.227 1.938.504 1.25c.278-.687.278-1.812 0-2.5zm1-7c-.278-.687-.505-.125-.505 1.25s.227 1.938.504 1.25c.278-.687.278-1.812 0-2.5zm1.03-6.48c-.254-.974-.478-.42-.498 1.23-.02 1.65.187 2.446.46 1.77.275-.678.292-2.028.038-3zm.97-5.52c-.278-.687-.505-.125-.505 1.25s.227 1.938.504 1.25c.278-.687.278-1.812 0-2.5zM958 106.497c0-.208-.787-.995-1.75-1.75-1.586-1.244-1.62-1.21-.378.377 1.307 1.666 2.128 2.196 2.128 1.373zm-3-4c0-.208-.787-.995-1.75-1.75-1.586-1.244-1.62-1.21-.378.377 1.307 1.666 2.128 2.196 2.128 1.373zm-4-5c0-.208-.787-.995-1.75-1.75-1.586-1.244-1.62-1.21-.378.377C950.18 97.79 951 98.32 951 97.497zM376.73 56.27c-.333-.332-1.196-.368-1.918-.08-.797.32-.56.557.605.605 1.054.044 1.644-.192 1.312-.525zm436-19c-.333-.332-1.196-.368-1.918-.08-.797.32-.56.557.605.605 1.054.044 1.644-.192 1.312-.525zm-5-1c-.333-.332-1.196-.368-1.918-.08-.797.32-.56.557.605.605 1.054.044 1.644-.192 1.312-.525zm-16-3c-.333-.332-1.196-.368-1.918-.08-.797.32-.56.557.605.605 1.054.044 1.644-.192 1.312-.525zm-5-1c-.333-.332-1.196-.368-1.918-.08-.797.32-.56.557.605.605 1.054.044 1.644-.192 1.312-.525zm-10.48-2.058c-.688-.277-1.813-.277-2.5 0-.688.278-.125.504 1.25.504s1.937-.226 1.25-.504zm-5.52-.942c-.333-.332-1.196-.368-1.918-.08-.797.32-.56.557.605.605 1.054.044 1.644-.192 1.312-.525zm-5.48-1.058c-.688-.277-1.813-.277-2.5 0-.688.278-.125.504 1.25.504s1.937-.226 1.25-.504zm-4.52-.942c-.333-.332-1.196-.368-1.918-.08-.797.32-.56.557.605.605 1.054.044 1.644-.192 1.312-.525zm-573-1c-.333-.332-1.196-.368-1.918-.08-.797.32-.56.557.605.605 1.054.044 1.644-.192 1.312-.525zm567.52-.058c-.688-.277-1.813-.277-2.5 0-.688.278-.125.504 1.25.504s1.937-.226 1.25-.504zm-5.52-.942c-.333-.332-1.196-.368-1.918-.08-.797.32-.56.557.605.605 1.054.044 1.644-.192 1.312-.525zm-4.48-1.058c-.688-.277-1.813-.277-2.5 0-.688.278-.125.504 1.25.504s1.937-.226 1.25-.504zm-6-1c-.688-.277-1.813-.277-2.5 0-.688.278-.125.504 1.25.504s1.937-.226 1.25-.504zm-5-1c-.688-.277-1.813-.277-2.5 0-.688.278-.125.504 1.25.504s1.937-.226 1.25-.504zm-5-1c-.688-.277-1.813-.277-2.5 0-.688.278-.125.504 1.25.504s1.937-.226 1.25-.504zm-5.75-1.055c-1.1-.267-20.45-4.05-43-8.404-29.46-5.69-43.955-8.044-51.5-8.363l-10.5-.445 12.5 1.43c6.875.787 29.825 4.776 51 8.864 21.175 4.08 39.625 7.42 41 7.41 1.993-.01 2.094-.12.5-.5zm-223.25-2.945c-.688-.277-1.813-.277-2.5 0-.688.278-.125.504 1.25.504s1.937-.226 1.25-.504zm9.48-3.942c-.333-.332-1.196-.368-1.918-.08-.797.32-.56.557.605.605 1.054.044 1.644-.192 1.312-.525zm7-1c-.333-.332-1.196-.368-1.918-.08-.797.32-.56.557.605.605 1.054.044 1.644-.192 1.312-.525zm43-6c-.333-.332-1.196-.368-1.918-.08-.797.32-.56.557.605.605 1.054.044 1.644-.192 1.312-.525zm7.54-1.052c-.678-.273-2.028-.29-3-.037-.974.26-.42.48 1.23.5 1.65.02 2.446-.18 1.77-.46zm7.48-1.033c-.963-.25-2.538-.25-3.5 0-.963.252-.175.457 1.75.457s2.712-.205 1.75-.457zm13-1.027c-1.513-.23-3.988-.23-5.5 0-1.513.23-.275.417 2.75.417s4.262-.188 2.75-.417zm25.04-1.02c-3.142-.2-8.542-.2-12-.005-3.46.195-.89.357 5.71.36 6.6 0 9.43-.16 6.29-.357z"/><path fill="#fff" d="M219.617 545.5c-11.462-21.693-18-31.686-20.705-31.648-2.174.03-11.6 2.09-20.95 4.577-15.56 4.13-18.096 4.23-30.052 1.11-16.49-4.3-34.87-15.98-47.244-30.04-22.4-25.45-55.61-80.47-49.756-82.44 1.73-.58 17.41-3.84 34.848-7.24 46.502-9.07 190.26-46.44 244.14-63.46 27.482-8.68 36.652-18.18 26.932-27.9-8.316-8.32-22.894-5.88-203.892 34.16-91.094 20.15-117.58 25.25-119.023 22.91-2.1-3.4-7.91-34.01-11.71-61.68-2.855-20.81.208-66.72 6.19-92.81 6.42-27.99 19.626-50.96 35.714-62.1 5.1-3.54 11.03-10.35 13.16-15.14 3.64-8.18 3.59-10.41-.81-36.89-3.96-23.87-4.18-28.56-1.42-30.64 1.79-1.35 27.04-9.11 56.11-17.24l52.86-14.78 90.01 14.32c92.54 14.74 103.39 15.86 116.45 12.12 4.19-1.2 7.61-1.69 7.61-1.08s-2.12 5.25-4.71 10.33c-13.05 25.57-17.23 66.61-14.37 140.89l2.13 55.19 9.31 27.01c22.77 66.02 48.33 117.7 72.79 147.18 8.07 9.72 14.67 18.44 14.67 19.36 0 .92-3.54 3.36-7.87 5.43-4.33 2.06-33.65 23.08-65.16 46.7l-57.3 42.95-55.19 11.18-55.62 11.27c-.24.04-7.97-14.19-17.18-31.62z"/><path fill="#fff" d="M519.037 454.714c-5.166-1.238-12.968-1.856-17.336-1.374-7.4.817-9.03-.402-24.02-18.01-24.91-29.254-47.7-73.61-71.38-138.943l-10.47-28.895-2.67-56.82c-3.7-78.65.89-116.52 17.2-141.896 12.22-19.017 20.35-24.495 52.74-35.53 16.64-5.666 22.58-6.367 62.67-7.4 42.56-1.1 44.24-.97 42.96 3.28-.73 2.433-3.07 12.35-5.19 22.037s-5.08 18.817-6.56 20.287c-1.48 1.48-34.4 15.9-73.15 32.06-38.74 16.17-73.35 30.72-76.91 32.35-6.4 2.94-6.45 3.14-6.45 26.1 0 26.02 5.82 65.79 16.26 111.14 11.26 48.878 20.45 73.594 39.44 106.036 7 11.955 13.71 25.31 14.92 29.676 1.21 4.368 5.68 11.978 9.95 16.91l7.76 8.97 37.45-4.055c20.6-2.232 53.83-6.136 73.85-8.674l47.37-6.006c8.87-1.125 12.61-.38 19.5 3.88 4.69 2.9 8.21 5.585 7.82 5.973-3.33 3.304-75.38 23.02-98.03 26.82-30.87 5.18-42.95 5.62-57.67 2.092z"/><path fill="#fff" d="M477.94 388.76c-27.276-48.005-40.24-83.016-51.96-140.332-7.93-38.78-9.886-53.314-10.06-74.735l-.212-26.592 71.626-29.92c39.394-16.46 73.86-31.13 76.588-32.61 6.11-3.31 8.63-9.71 14.837-37.68 5.59-25.2 5.97-30.94 2.04-30.94-2.09 0-2.14-.68-.18-2.64 1.79-1.79 11.54-2.28 30.41-1.5 36.02 1.47 228.01 37.54 260.39 48.91 38.64 13.57 52.77 21.3 66.58 36.43 13.98 15.32 28.41 42.67 28.37 53.77-.05 11.12-5.61 29.34-14.28 46.76-6.8 13.66-12.52 20.12-39.68 44.83-43.79 39.84-44.43 40.35-120.98 97.41-82.13 61.22-98.46 72.91-101.76 72.91-1.4 0-7.85-3.13-14.34-6.96l-11.8-6.96-81.65 10.48c-44.91 5.77-82.71 10.46-84 10.43-1.3-.03-10.28-14-19.97-31.05zm-446.665 4.8c1.55-1.55 2.818-4.56 2.818-6.69 0-3.202 21.428-8.603 123.878-31.225 68.14-15.044 134.3-29.47 147.04-32.06 21.42-4.35 36.53-6.016 34.19-3.765-3.59 3.452-212.84 57.554-255.53 66.068-59.78 11.924-56.1 11.385-52.38 7.67z"/><path fill="none" d="M231.846 568.52c-3.08-4.91-10.68-18.797-16.89-30.858-6.21-12.06-12.58-22.423-14.156-23.027-1.575-.604-11.3 1.055-21.61 3.688-16.64 4.248-20.066 4.444-30.475 1.744-24.99-6.482-44.173-22.112-66.778-54.412-13.34-19.062-32.58-52.537-32.58-56.686 0-1.25 12.946-4.74 28.77-7.75 54.606-10.4 249.397-61.57 265.633-69.79 15.702-7.95 20.752-19.02 11.044-24.22-11.158-5.97-22.74-3.95-195.794 34.15C92 356.12 36.384 368.19 35.42 368.19c-2.067 0-5.908-16.432-10.707-45.793-8.735-53.45-.056-120.737 19.564-151.668 3.754-5.92 12.154-15.26 18.666-20.75 17.525-14.78 18.41-18.3 13.36-53.14-2.33-16.09-3.64-29.86-2.906-30.59.733-.74 25.837-8.24 55.788-16.67l54.456-15.34 92.87 14.61c89.76 14.12 105.56 15.5 118.87 10.34 4.01-1.55 3.95-.94-.73 8.24-2.78 5.45-7.34 18.02-10.14 27.93-4.75 16.84-5.06 22.75-4.77 91.2.35 82.74-.39 78.07 21.16 134.64 18.16 47.68 42.87 94.7 62.53 119 8.86 10.96 15.76 20.1 15.32 20.32-12.62 6.38-26.59 16.09-74.63 51.86l-57.67 42.93-50.49 9.89c-27.77 5.44-52.29 10.41-54.49 11.05-2.76.8-5.74-1.61-9.6-7.77z"/><path fill="none" d="M486.742 404.01c-31.344-53.16-46.64-89.79-56.635-135.62-15.007-68.816-20.69-118.862-13.812-121.615 53.146-21.27 147.322-61.97 150.553-65.065 5.667-5.43 19.15-60.81 15.655-64.305-5.13-5.13-1.614-6.165 20.94-6.165 24.536 0 46.196 3.53 182.137 29.682 69.914 13.45 109.293 25.075 134.02 39.566 22.09 12.945 45.627 50.77 45.63 73.33.003 13.904-6.692 33.926-17.11 51.165-6.813 11.277-40.217 43.546-76.388 73.792-17.575 14.697-107.195 82.036-155.17 116.593l-26.745 19.266-13.224-7.75-13.224-7.75-82.15 10.34c-45.18 5.687-82.82 10.35-83.64 10.364-.82.01-5.7-7.11-10.84-15.83z"/><path fill="none" d="M519.037 454.902c-4.52-1.128-12.17-1.87-16.996-1.65-7.66.35-9.9-.9-17.61-9.817-28.99-33.527-51.17-74.303-74.15-136.297l-15.23-41.097-2-50.49c-2.32-58.56-1.85-75.63 2.87-104.14 5.78-34.97 19.15-56.92 41.28-67.74 29.16-14.26 39.98-16.47 87.13-17.77 36.64-1.01 44.02-.66 43.96 2.05-.2 8.18-9.16 40.52-12.01 43.34-1.74 1.73-36.46 17.09-77.15 34.12-40.68 17.04-75.44 32.14-77.23 33.55-9.06 7.15 8.55 124.62 26.9 179.41 7.83 23.36 16.92 42.92 31.22 67.12 6.64 11.25 12.08 22.39 12.08 24.77s3.99 8.82 8.86 14.3l8.86 9.98 36.36-3.98c19.99-2.19 52.73-6.07 72.75-8.61 63.77-8.11 59.76-7.99 68.16-2.01 9.26 6.59 10.08 6.1-31.09 18.59-50.98 15.47-95.61 21.73-116.92 16.41z"/><path fill="none" d="M231.846 568.52c-3.08-4.91-10.68-18.797-16.89-30.858-6.21-12.06-12.58-22.423-14.156-23.027-1.575-.604-11.3 1.055-21.61 3.688-16.64 4.248-20.066 4.444-30.475 1.744-24.99-6.482-44.173-22.112-66.778-54.412-13.34-19.062-32.58-52.537-32.58-56.686 0-1.25 12.946-4.74 28.77-7.75 54.606-10.4 249.397-61.57 265.633-69.79 15.702-7.95 20.752-19.02 11.044-24.22-11.158-5.97-22.74-3.95-195.794 34.15C92 356.12 36.384 368.19 35.42 368.19c-2.067 0-5.908-16.432-10.707-45.793-8.735-53.45-.056-120.737 19.564-151.668 3.754-5.92 12.154-15.26 18.666-20.75 17.525-14.78 18.41-18.3 13.36-53.14-2.33-16.09-3.64-29.86-2.906-30.59.733-.74 25.837-8.24 55.788-16.67l54.456-15.34 92.87 14.61c89.76 14.12 105.56 15.5 118.87 10.34 4.01-1.55 3.95-.94-.73 8.24-2.78 5.45-7.34 18.02-10.14 27.93-4.75 16.84-5.06 22.75-4.77 91.2.35 82.74-.39 78.07 21.16 134.64 18.16 47.68 42.87 94.7 62.53 119 8.86 10.96 15.76 20.1 15.32 20.32-12.62 6.38-26.59 16.09-74.63 51.86l-57.67 42.93-50.49 9.89c-27.77 5.44-52.29 10.41-54.49 11.05-2.76.8-5.74-1.61-9.6-7.77z"/><path fill="none" d="M29.984 394.93c1.614-.71 2.95-2.526 2.97-4.032.02-1.507.843-4.01 1.83-5.56 2.45-3.856 283.372-66.372 298.534-66.434 9.658-.04 4.65 1.85-30.453 11.5-104.742 28.793-171.338 45.756-211.673 53.916-46.884 9.485-66.29 12.85-61.208 10.61z"/></svg>