<?xml version="1.0" encoding="UTF-8" standalone="no"?>
<svg
   xmlns:dc="http://purl.org/dc/elements/1.1/"
   xmlns:cc="http://creativecommons.org/ns#"
   xmlns:rdf="http://www.w3.org/1999/02/22-rdf-syntax-ns#"
   xmlns:svg="http://www.w3.org/2000/svg"
   xmlns="http://www.w3.org/2000/svg"
   xmlns:sodipodi="http://sodipodi.sourceforge.net/DTD/sodipodi-0.dtd"
   xmlns:inkscape="http://www.inkscape.org/namespaces/inkscape"
   version="1.1"
   width="978.90833"
   height="587.75354"
   viewBox="0 0 978.90829 587.75354"
   id="svg6081"
   inkscape:version="0.91 r13725"
   sodipodi:docname="DRG2.svg">
  <metadata
     id="metadata9137">
    <rdf:RDF>
      <cc:Work
         rdf:about="">
        <dc:format>image/svg+xml</dc:format>
        <dc:type
           rdf:resource="http://purl.org/dc/dcmitype/StillImage" />
        <dc:title />
      </cc:Work>
    </rdf:RDF>
  </metadata>
  <defs
     id="defs9135" />
  <sodipodi:namedview
     pagecolor="#ffffff"
     bordercolor="#666666"
     borderopacity="1"
     objecttolerance="10"
     gridtolerance="10"
     guidetolerance="10"
     inkscape:pageopacity="0"
     inkscape:pageshadow="2"
     inkscape:window-width="1920"
     inkscape:window-height="1018"
     id="namedview9133"
     showgrid="false"
     fit-margin-top="0"
     fit-margin-left="0"
     fit-margin-right="0"
     fit-margin-bottom="0"
     inkscape:zoom="0.42582247"
     inkscape:cx="-368.65677"
     inkscape:cy="526.72739"
     inkscape:window-x="-8"
     inkscape:window-y="-8"
     inkscape:window-maximized="1"
     inkscape:current-layer="svg6081" />
  <desc
     id="desc6083">world98</desc>
  <path
     style="fill:#000000;fill-opacity:0;stroke:#000000;stroke-opacity:1;stroke-width:9;stroke-miterlimit:4;stroke-dasharray:none"
     d="m 230.97533,586.30576 c -3.27885,-1.36334 -4.56275,-3.50429 -18.40934,-30.69847 -8.18656,-16.07811 -14.93016,-29.31261 -14.98575,-29.41001 -0.0556,-0.0974 -7.45567,1.66553 -16.44459,3.91761 l -16.34349,4.0947 -11.64608,-1.77479 c -16.06237,-2.44779 -28.44473,-8.08396 -44.34149,-20.18323 -10.556777,-8.03494 -12.934917,-10.49014 -25.064917,-25.8772 -16.12542,-20.45528 -33.85962,-49.48016 -42.31177,-69.25 -3.97252,-9.29184 -6.15214,-13.24766 -7.29632,-13.24216 -0.89738,0.004 -8.83159,1.35078 -17.63159,2.99216 -8.8000005,1.64138 -16.11250047,2.98785 -16.25000047,2.99216 -0.1375,0.004 -0.2500000004447,-0.61774 -0.2500000004447,-1.38233 0,-0.76459 5.8479599704447,-5.82709 12.9954804704447,-11.25 l 12.99547,-9.85983 0.0103,-5 c 0.006,-2.75 -2.22219,-15.125 -4.95073,-27.5 -6.63733,-30.10267 -9.05052,-51.57554 -9.05052,-80.53227 0,-20.81263 0.23943,-23.77521 3.59813,-44.52177 3.08425,-19.05134 4.44939,-24.73924 9.55872,-39.82677 5.8401,-17.24545 6.1339,-17.83393 14.53368,-29.11023 8.39698,-11.27257 11.80395,-14.96449 13.80947,-14.96449 0.55,0 -0.125,0.94524 -1.5,2.10053 l -2.5,2.10053 2.5,-1.54235 c 1.375,-0.84829 2.38457,-2.03733 2.24349,-2.6423 -0.14109,-0.60498 2.62278,-3.18812 6.14192,-5.74031 5.43957,-3.94494 6.65523,-5.40315 8.11198,-9.73046 1.7038,-5.0612 1.68722,-5.26594 -2.91922,-36.048107 l -4.63277,-30.95799 3.8108,-3.8108 c 3.56583,-3.56582 5.19072,-4.19776 25.2773,-9.83064 11.806567,-3.31091 37.287207,-10.50245 56.623627,-15.98121 19.33643,-5.47875 36.75371,-9.96136 38.70508,-9.96136 3.0759,0 12.89151,1.49812 62.13779,9.48384 15.24953,2.47284 103.2998,16.57043 115.92017,18.55979 l 11.92017,1.87899 22.57983,-5.59365 c 20.3831,-5.04946 23.65387,-6.16013 33.61973,-11.41638 7.68217,-4.05177 19.08762,-8.55984 37.5,-14.82209 l 26.4601,-8.99937 40.86552,-6.0800398 c 34.95958,-5.20134 43.63088,-6.16261001 59.99998,-6.65144001 29.1762,-0.87129 38.6836,0.24556 94.6345,11.11686981 60.6365,11.78171 105.6803,20.50301 129.4841,25.07046 26.03403,4.99536 45.70733,10.56409 72.96573,20.65371 27.094,10.02877 35.4254,14.70955 48.4278,27.20778 15.1739,14.58556 25.4946,30.453137 33.8803,52.089057 3.3318,8.5964 3.4621,9.40843 2.8893,18.00247 -0.7769,11.65466 -6.2563,31.55625 -12.1762,44.22444 -8.0914,17.31505 -12.2304,22.91415 -26.7206,36.14641 -7.2877,6.65504 -18.2004,16.68343 -24.2504,22.28531 -13.5359,12.53329 -39.02,34.80558 -42.7292,37.34384 -0.8037,0.55 -11.319,8.425 -23.3674,17.5 -12.0485,9.075 -31.34573,23.475 -42.88273,32 -11.5371,8.525 -38.0348,28.20859 -58.8838,43.74131 -29.6192,22.06664 -41.5399,30.30536 -54.5221,37.68175 l -16.6148,9.44044 -36,11.12645 c -34.4894,10.65956 -36.7973,11.23079 -55,13.6131 -10.45,1.36766 -22.6,3.41412 -27,4.54767 -10.2319,2.63602 -28.49079,2.19312 -38.21905,-0.92707 l -6.21904,-1.99466 -19.28096,6.3772 -19.28095,6.37719 -33.5,25.00393 c -18.425,13.75216 -46.26727,34.54138 -61.8717,46.19825 l -28.3717,21.19433 -40.1283,7.77002 c -81.94864,15.86766 -74.6874,14.76195 -80.65296,12.28148 z m 6.52466,-1.43139 c -2.74909,-1.18132 -4.32797,-1.18132 -2.5,0 0.825,0.53316 2.175,0.94464 3,0.9144 0.98906,-0.0362 0.81874,-0.34772 -0.5,-0.9144 z m 62.90978,-14.8186 48.90978,-9.91664 51.99113,-38.88238 c 71.86305,-53.7439 67.45907,-50.69795 79.55479,-55.02281 l 10.36548,-3.7062 -4.54082,-4.07668 c -4.56003,-4.09394 -8.93514,-9.12563 -24.85566,-28.58578 -7.1107,-8.69163 -11.22116,-15.36812 -23.76799,-38.60551 -13.45854,-24.92594 -16.56276,-31.64237 -27.50914,-59.52017 -6.7863,-17.28306 -15.05183,-40.18558 -18.36784,-50.89449 l -6.02911,-19.47074 -0.60551,-29.5 c -0.33303,-16.225 -1.21193,-39.76851 -1.95311,-52.31892 -1.29179,-21.87395 -1.25188,-23.8203 0.96366,-47 2.91134,-30.45926 6.07635,-44.452027 13.73707,-60.732577 4.01551,-8.53376 6.9216,-13.15668 11.12411,-17.6959 l 5.68862,-6.14439 -6.80762,1.96228 c -31.48045,9.07418 -32.24099,9.23157 -39.21851,8.11601 -3.62401,-0.5794 -46.82818,-7.44084 -96.00926,-15.24764 l -89.42015,-14.19419 -56.8977,15.87767 c -56.085927,15.65113 -56.925777,15.92297 -58.865417,19.05325 l -1.96772,3.17559 4.68291,29.10077 4.68292,29.100757 -2.43077,6.20258 c -2.28658,5.83465 -3.00551,6.61907 -12.11959,13.22365 -8.39195,6.08128 -10.81637,8.56035 -18.11279,18.52106 -7.98688,10.90328 -8.73681,12.38566 -14.45285,28.56853 -5.57282,15.77739 -6.25793,18.68971 -9.05701,38.5 -2.16914,15.35201 -3.19823,27.2467 -3.62774,41.93147 -0.5578,19.07072 -0.39258,22.02379 2.36979,42.35563 1.63317,12.0206 4.90709,30.79154 7.27536,41.7132 3.99874,18.44077 4.45062,19.82299 6.33344,19.37281 1.11511,-0.26662 61.87747,-13.77935 135.027467,-30.02828 124.92078,-27.74887 169.92789,-36.91884 176.30003,-35.92022 1.48498,0.23272 4.33743,0.67797 6.33878,0.98945 2.8372,0.44156 3.9104,1.22201 4.87169,3.54277 1.47216,3.55409 1.13035,4.07977 -6.4608,9.9363 -5.28587,4.07802 -6.2033,4.35038 -109.19018,32.41668 -102.23457,27.86127 -104.59614,28.45057 -150.941097,37.66579 l -47.08157,9.36168 5.3596,12.04709 c 8.57205,19.2679 27.288,49.54295 42.04616,68.01415 11.08137,13.86936 14.245167,17.10907 24.081987,24.65975 13.33697,10.23739 25.88964,16.17151 39.07031,18.47003 12.34496,2.15278 13.09074,2.08047 30.69215,-2.97568 8.84788,-2.54163 16.61134,-4.62115 17.25213,-4.62115 0.6408,0 8.02251,13.72363 16.4038,30.49695 15.14856,30.31653 15.26203,30.50472 19.18113,31.81109 4.60644,1.53548 -1.75903,2.60884 65.98566,-11.12664 z m -40.68061,11.21443 c -0.33229,-0.33229 -1.1948,-0.36781 -1.91667,-0.0789 -0.79773,0.31922 -0.56078,0.55618 0.60417,0.60416 1.05416,0.0434 1.64479,-0.19293 1.3125,-0.52522 z m 10,-2 c -0.33229,-0.33229 -1.1948,-0.36781 -1.91667,-0.0789 -0.79773,0.31922 -0.56078,0.55618 0.60417,0.60416 1.05416,0.0434 1.64479,-0.19293 1.3125,-0.52522 z m 5.52083,-1.05811 c -0.6875,-0.27741 -1.8125,-0.27741 -2.5,0 -0.6875,0.27741 -0.125,0.50439 1.25,0.50439 1.375,0 1.9375,-0.22698 1.25,-0.50439 z m 5,-1 c -0.6875,-0.27741 -1.8125,-0.27741 -2.5,0 -0.6875,0.27741 -0.125,0.50439 1.25,0.50439 1.375,0 1.9375,-0.22698 1.25,-0.50439 z m 5,-1 c -0.6875,-0.27741 -1.8125,-0.27741 -2.5,0 -0.6875,0.27741 -0.125,0.50439 1.25,0.50439 1.375,0 1.9375,-0.22698 1.25,-0.50439 z m 5,-1 c -0.6875,-0.27741 -1.8125,-0.27741 -2.5,0 -0.6875,0.27741 -0.125,0.50439 1.25,0.50439 1.375,0 1.9375,-0.22698 1.25,-0.50439 z m 5,-1 c -0.6875,-0.27741 -1.8125,-0.27741 -2.5,0 -0.6875,0.27741 -0.125,0.50439 1.25,0.50439 1.375,0 1.9375,-0.22698 1.25,-0.50439 z m 5,-1 c -0.6875,-0.27741 -1.8125,-0.27741 -2.5,0 -0.6875,0.27741 -0.125,0.50439 1.25,0.50439 1.375,0 1.9375,-0.22698 1.25,-0.50439 z m 8.75,-1.33772 c 1.95899,-0.62738 2.0672,-0.79661 0.5,-0.78201 -1.1,0.0103 -3.35,0.36216 -5,0.78201 -2.69472,0.68569 -2.7456,0.76527 -0.5,0.78201 1.375,0.0102 3.625,-0.34166 5,-0.78201 z m 23.29624,-4.44596 17.79623,-3.44454 15.20377,-11.27795 c 56.71547,-42.07077 102.91001,-76.83155 102.10352,-76.83155 -0.52223,0 -27.00357,19.51278 -58.84742,43.36172 l -57.8979,43.36173 -14.07722,2.71782 c -7.74247,1.4948 -16.55222,3.31876 -19.57722,4.05323 -10.27452,2.49467 -2.56475,1.51662 15.29624,-1.94046 z M 159.24999,530.21209 c -0.6875,-0.27741 -1.8125,-0.27741 -2.5,0 -0.6875,0.27741 -0.125,0.50439 1.25,0.50439 1.375,0 1.9375,-0.22698 1.25,-0.50439 z m 9.47917,0.0581 c -0.33229,-0.33229 -1.1948,-0.36781 -1.91667,-0.0789 -0.79773,0.31922 -0.56078,0.55618 0.60417,0.60416 1.05416,0.0434 1.64479,-0.19293 1.3125,-0.52522 z m -15,-1 c -0.33229,-0.33229 -1.1948,-0.36781 -1.91667,-0.0789 -0.79773,0.31922 -0.56078,0.55618 0.60417,0.60416 1.05416,0.0434 1.64479,-0.19293 1.3125,-0.52522 z m 31.5107,-2.63434 c 7.55692,-1.79382 13.74442,-3.59899 13.75,-4.01149 0.006,-0.4125 -0.55237,-0.74995 -1.23987,-0.74989 -1.6156,1.5e-4 -28.57251,7.87282 -27.25,7.95826 0.55,0.0355 7.18294,-1.40306 14.73987,-3.19688 z m -37.98987,1.57624 c -0.6875,-0.27741 -1.8125,-0.27741 -2.5,0 -0.6875,0.27741 -0.125,0.50439 1.25,0.50439 1.375,0 1.9375,-0.22698 1.25,-0.50439 z m 336.75,-59.46413 c 4.675,-1.60536 11.81343,-4.09789 15.86318,-5.53895 l 7.36318,-2.62011 -3.2645,-1.37261 c -1.79547,-0.75494 -3.05304,-1.58408 -2.79459,-1.84252 0.57292,-0.57293 10.01699,1.02889 18.83273,3.19423 3.575,0.8781 11.09271,2.02029 16.70602,2.5382 9.33351,0.86115 11.17148,0.72244 21.49998,-1.62259 6.2117,-1.41033 18.7113,-3.49673 27.777,-4.63644 15.3955,-1.93549 18.9077,-2.82265 53.2356,-13.44694 34.0657,-10.5431 50.0812,-16.75595 48.0115,-18.62495 -0.4016,-0.36262 -2.425,-1.20101 -4.4966,-1.8631 -2.0716,-0.66209 -7.397,-3.94508 -11.8344,-7.29553 -6.9892,-5.27725 -8.7649,-6.14953 -13.2814,-6.52407 -2.8674,-0.23779 -9.0169,0.34464 -13.6656,1.2943 -15.2292,3.11112 -30.4456,5.27149 -30.7854,4.37082 -0.1834,-0.48583 -1.7584,-0.83847 -3.5,-0.78365 -2.975,0.0936 -3.0153,0.14272 -0.6667,0.81052 1.9225,0.54665 0.8124,0.94273 -4.8057,1.71468 -4.0182,0.5521 -7.5322,0.63737 -7.809,0.18947 -0.2768,-0.44789 -1.4893,-0.76949 -2.6943,-0.71467 -2.058,0.0936 -2.0393,0.15347 0.309,0.98588 1.7526,0.62128 0.5568,0.76039 -4,0.46533 -4.5004,-0.2914 -5.8847,-0.1344 -4.5,0.51036 1.3846,0.64471 0.4178,0.75424 -3.1422,0.35599 -3.2133,-0.35948 -5.3927,-0.16971 -5.8103,0.50592 -0.4059,0.65678 -2.3128,0.85235 -4.8579,0.49823 -3.1958,-0.44466 -3.8338,-0.32101 -2.6896,0.5213 1.128,0.83041 0.1981,0.94248 -3.75,0.45195 -3.3145,-0.41182 -5.25,-0.27798 -5.25,0.36303 0,1.39957 -5.8444,2.14439 -6.3995,0.81555 -0.296,-0.70865 -0.7289,-0.73353 -1.2744,-0.0732 -0.4543,0.55 -2.4011,1.11226 -4.3261,1.24947 -9.65649,0.6883 -16.59399,1.43573 -34.70451,3.73897 -10.86174,1.38134 -20.28099,2.51154 -20.93167,2.51154 -0.65067,0 -3.09312,-3.4875 -5.42766,-7.75 -6.73276,-12.29294 -29.92714,-52.1599 -34.15202,-58.70115 -2.11406,-3.27313 -3.61049,-6.559 -3.3254,-7.30193 0.28509,-0.74294 0.0735,-1.07587 -0.47019,-0.73984 -0.90176,0.55731 -1.37456,-1.03735 -1.25899,-4.24632 0.0245,-0.68158 -0.32216,-1.01254 -0.77047,-0.73548 -1.11449,0.68879 -2.26203,-3.22609 -1.36913,-4.67084 0.42186,-0.68259 0.2852,-0.89532 -0.33067,-0.51469 -1.08279,0.6692 -2.71613,-2.21625 -1.78283,-3.14954 0.28795,-0.28795 0.52354,0.0765 0.52354,0.80979 0,0.73333 0.23559,1.09774 0.52354,0.80979 0.90849,-0.90849 -0.68531,-3.82784 -1.73546,-3.17882 -0.62925,0.3889 -0.73648,-0.21819 -0.28808,-1.63097 0.45615,-1.4372 0.34495,-2.02221 -0.30772,-1.61884 -0.57515,0.35547 -1.78589,-1.44795 -2.76918,-4.12477 -0.96097,-2.61601 -2.3463,-6.2667 -3.07851,-8.11262 -0.73222,-1.84593 -1.1065,-3.72 -0.83172,-4.16459 0.27478,-0.4446 0.0626,-0.95929 -0.4714,-1.14377 -1.74329,-0.60218 -9.71675,-28.65889 -11.57343,-40.72414 -0.28681,-1.8638 -0.76882,-3.78893 -1.07113,-4.27808 -0.30231,-0.48915 -0.70663,-2.12968 -0.89848,-3.64563 -0.19186,-1.51595 -1.70574,-8.81581 -3.36418,-16.22192 -1.65844,-7.4061 -3.52622,-16.06381 -4.15062,-19.23936 -1.0913,-5.55007 -1.38173,-7.41339 -2.52915,-16.22628 -0.28644,-2.2 -1.67626,-10.75 -3.08849,-19 -2.14128,-12.50898 -2.59246,-18.48742 -2.71684,-36 l -0.14915,-21 14.5,-6.13706 c 7.975,-3.37539 29.8,-12.53866 48.5,-20.36282 18.7,-7.82416 41.425,-17.387667 50.5,-21.252237 9.075,-3.86458 21.225,-8.79578 27,-10.95824 12.6136,-4.72318 13.8111,-5.44858 17.1991,-10.41864 2.0586,-3.01975 3.2308,-7.16955 5.3304,-18.871 1.4804,-8.25 3.7611,-18.375 5.0683,-22.5 1.3072,-4.125 2.3824,-8.00791 2.3894,-8.62868 0.01,-0.62077 -1.4497,-1.74577 -3.2372,-2.5 -4.8204,-2.03394 -62.5885,-1.85784 -75.96584,0.23157 -7.94945,1.24163 -9.80725,1.27932 -10.21862,0.20732 -0.29075,-0.75768 0.2009,-1.31021 1.16584,-1.31021 1.11091,0 1.33484,-0.33378 0.66997,-0.99865 -0.66486,-0.66486 -2.48645,-0.41419 -5.45,0.75 l -4.45135,1.74865 3.5,0.66557 c 3.43441,0.6531 3.42115,0.66323 -0.7074,0.54074 -2.31407,-0.0687 -4.52657,0.19433 -4.91667,0.58443 -0.39009,0.39009 -1.53193,0.70926 -2.5374,0.70926 -3.60306,0 -30.99325,9.94464 -38.09457,13.83112 -3.98418,2.18049 -9.01413,4.8981 -11.17768,6.03912 -7.18007,3.78667 -17.1414,16.29882 -23.5892,29.62976 -7.87184,16.27515 -11.26056,30.916237 -14.04232,60.670347 -1.90612,20.38809 -1.9851,24.15559 -0.90842,43.32965 0.64857,11.55 1.75593,36.075 2.46079,54.5 l 1.28157,33.5 5.53123,17 c 3.04217,9.35 10.99853,30.95 17.6808,48 10.71201,27.33201 13.92489,34.29366 27.15362,58.83634 12.29628,22.81275 16.56414,29.7608 23.64874,38.5 13.76058,16.97433 21.11613,25.34171 26.42063,30.05501 6.07397,5.39703 5.84701,5.70403 -7.44358,10.06842 -5.35692,1.75912 -10.04324,3.68929 -10.41405,4.28925 -0.45213,0.73157 -0.0438,0.83602 1.23987,0.31714 1.05272,-0.42554 5.73904,-2.0872 10.41404,-3.69257 z m -2.24633,-51.05581 c -5.53709,-7.87156 -6.3969,-9.33335 -4.97167,-8.45251 1.57437,0.97301 10.40102,13.78505 9.86575,14.32031 -0.24748,0.24749 -2.44982,-2.39303 -4.89408,-5.8678 z m 96.05883,1.49911 c 0.7219,-0.28887 1.5844,-0.25335 1.9167,0.0789 0.3323,0.33229 -0.2584,0.56864 -1.3125,0.52522 -1.165,-0.048 -1.4019,-0.28494 -0.6042,-0.60416 z m -50.73609,2.7178 c 17.28297,-2.18092 54.74219,-6.90598 83.24269,-10.50013 l 51.819,-6.53481 13.8821,8.04708 13.8822,8.04709 10.4018,-6.79696 c 5.7211,-3.73833 36.619,-26.37196 68.662,-50.29696 32.0431,-23.925 68.44673,-51.03451 80.89703,-60.24335 18.9543,-14.01961 28.6865,-22.28676 59.8258,-50.8198 l 37.1889,-34.07645 7.4156,-12.6802 c 9.9723,-17.05192 16.6416,-36.57736 17.4395,-51.05638 0.5118,-9.28767 0.3731,-10.22571 -2.6835,-18.15159 -7.9177,-20.53131 -15.0691,-31.77151 -30.7622,-48.350137 -11.2089,-11.84149 -19.0214,-16.15177 -51.54,-28.43558 -18.7133,-7.06888 -30.3486,-10.83688 -40.2808,-13.0446 -10.7434,-2.38805 -153.07493,-29.40627 -202.96653,-38.5283398 -15.7536,-2.88035 -36.8009,-3.96386 -53,-2.72841 -11.2784,0.86015 -76.05075,8.6381698 -86.41691,10.3771498 -0.7793,0.13073 13.96148,0.28333 32.7573,0.33911 30.63081,0.0909 34.58821,0.2881 38.16691,1.90187 2.196,0.99025 3.9927,2.45454 3.9927,3.25397 0,0.79943 -1.1146,5.11859 -2.4769,9.59813 -1.3623,4.47953 -3.8111,15.28262 -5.4418,24.00686 -4.0735,21.79325 -5.7135,24.15219 -20.5813,29.60386 -4.95,1.81505 -31.725,12.85904 -59.5,24.542207 -27.775,11.68318 -57.8125,24.29238 -66.75,28.02045 l -16.25,6.77832 0,18.22466 c 0,17.16463 0.28833,19.96213 4.95719,48.09645 2.72645,16.42949 8.10427,43.8218 11.95071,60.8718 l 6.99353,31 11.60784,28.89167 c 10.9881,27.34915 12.57316,30.57923 29.68845,60.5 19.67268,34.39157 19.49621,34.10833 21.25113,34.10833 0.66218,0 15.34458,-1.78439 32.62756,-3.96531 z m 169.92359,-0.96813 c 0.825,-0.4994 4.7625,-2.8472 8.75,-5.21734 3.9875,-2.37014 7.25,-4.65581 7.25,-5.07928 0,-0.42347 0.4512,-0.76994 1.0027,-0.76994 0.5516,0 5.3891,-3.28544 10.75,-7.30099 5.361,-4.01554 19.1961,-14.25304 30.7446,-22.75 25.8966,-19.0537 46.7173,-34.50696 60.5027,-44.90549 55.49393,-41.85974 58.60013,-44.2796 73.00003,-56.86975 22.1046,-19.32655 43,-39.20248 43,-40.90212 0,-0.45825 1.2971,-1.32279 2.8826,-1.92122 1.5854,-0.59842 3.4979,-2.35135 4.25,-3.89539 0.752,-1.54405 2.0424,-3.01883 2.8674,-3.2773 1.1045,-0.34602 0.9977,0.096 -0.405,1.67616 -1.0477,1.18036 -1.5108,2.1461 -1.029,2.1461 1.0791,0 12.434,-11.14225 12.434,-12.20108 0,-0.42003 1.779,-3.67026 3.9534,-7.22273 8.9139,-14.56362 18.1253,-42.02584 19.48,-58.07619 0.6449,-7.64061 0.5126,-8.39989 -2.9461,-16.90167 -3.9437,-9.69423 -13.2017,-28.59833 -14.0055,-28.59833 -0.275,0 1.6861,4.3875 4.358,9.75 5.9481,11.93793 9.8364,22.24481 10.6953,28.35041 0.9403,6.68441 -1.1325,18.63535 -5.706,32.89959 -3.1826,9.9259 -5.7389,15.41659 -12.4138,26.66313 -5.0604,8.52643 -9.9575,15.49115 -12.3046,17.5 -3.2342,2.76808 -50.6556,46.08162 -67.3607,61.5256 -2.6125,2.41528 -4.75,4.84994 -4.75,5.41036 0,0.56042 -0.4295,0.75347 -0.9545,0.42901 -0.525,-0.32447 -11.6625,7.37135 -24.75,17.10181 -13.0875,9.73047 -32.04553,23.80688 -42.12883,31.28092 -10.0834,7.47404 -36.4999,27.15524 -58.7034,43.73598 -22.2036,16.58075 -43.8786,32.28017 -48.1667,34.8876 l -7.7966,4.74079 -9,-4.71815 c -4.95,-2.59499 -7.875,-3.74794 -6.5,-2.56213 1.375,1.18582 5.639,3.65616 9.4755,5.48965 7.4349,3.55318 6.9388,3.56851 13.5245,-0.41801 z m -94.2708,-5.67073 c -0.3323,-0.33229 -1.1948,-0.36781 -1.9167,-0.0789 -0.7977,0.31922 -0.5608,0.55618 0.6042,0.60416 1.0541,0.0434 1.6448,-0.19293 1.3125,-0.52522 z M 25.499993,402.81191 c 7.15,-1.19575 34.6,-6.41109 61,-11.58967 47.633817,-9.34375 48.755247,-9.62069 146.999997,-36.30193 54.45,-14.78749 100.85192,-27.37328 103.11538,-27.96844 2.26347,-0.59515 5.86347,-2.47811 8,-4.18435 2.13654,-1.70625 4.71514,-3.69021 5.73022,-4.40882 1.24091,-0.87847 1.63526,-1.96928 1.20361,-3.32928 -0.50342,-1.58615 -1.85227,-2.17394 -6.24936,-2.72332 -9.56504,-1.19508 -37.78226,4.28599 -145.29985,28.2238 -55.825,12.42893 -117.024997,26.03784 -135.999997,30.24201 l -34.5,7.64396 -0.5,5.16378 -0.5,5.16379 -10,7.64352 c -12.4552405,9.52019 -12.8223605,9.89418 -9.0000005,9.16854 1.6500005,-0.31323 8.8500005,-1.54785 16.0000005,-2.74359 z m -9.81689,-93.12504 c -0.31922,-0.79773 -0.55618,-0.56078 -0.60416,0.60417 -0.0434,1.05416 0.19293,1.64479 0.52522,1.3125 0.33229,-0.33229 0.36781,-1.1948 0.0789,-1.91667 z m -1,-8 c -0.31922,-0.79773 -0.55618,-0.56078 -0.60416,0.60417 -0.0434,1.05416 0.19293,1.64479 0.52522,1.3125 0.33229,-0.33229 0.36781,-1.1948 0.0789,-1.91667 z m -0.94061,-24.52091 c -0.19293,-3.73538 -0.35221,-0.94159 -0.35396,6.20841 -0.002,7.15 0.1561,10.20621 0.35078,6.79159 0.19467,-3.41463 0.19611,-9.26463 0.003,-13 z m 2.94061,-42.47909 c -0.31922,-0.79773 -0.55618,-0.56078 -0.60416,0.60417 -0.0434,1.05416 0.19293,1.64479 0.52522,1.3125 0.33229,-0.33229 0.36781,-1.1948 0.0789,-1.91667 z m 0.97917,-7.0625 c -0.27741,-0.6875 -0.50439,-0.125 -0.50439,1.25 0,1.375 0.22698,1.9375 0.50439,1.25 0.27741,-0.6875 0.27741,-1.8125 0,-2.5 z m 1,-7 c -0.27741,-0.6875 -0.50439,-0.125 -0.50439,1.25 0,1.375 0.22698,1.9375 0.50439,1.25 0.27741,-0.6875 0.27741,-1.8125 0,-2.5 z m 1.03071,-6.48097 c -0.25354,-0.97297 -0.47766,-0.41903 -0.49804,1.23097 -0.0204,1.65 0.18706,2.44606 0.46099,1.76903 0.27392,-0.67703 0.29059,-2.02703 0.0371,-3 z m 0.96929,-5.51903 c -0.27741,-0.6875 -0.50439,-0.125 -0.50439,1.25 0,1.375 0.22698,1.9375 0.50439,1.25 0.27741,-0.6875 0.27741,-1.8125 0,-2.5 z M 958.00002,106.49681 c 0,-0.20765 -0.7875,-0.99515 -1.75,-1.75 -1.5861,-1.24387 -1.6214,-1.2085 -0.3776,0.37756 1.3064,1.66575 2.1276,2.19548 2.1276,1.37244 z m -3,-4 c 0,-0.20765 -0.7875,-0.99515 -1.75,-1.75 -1.5861,-1.243867 -1.6214,-1.208497 -0.3776,0.37756 1.3064,1.66575 2.1276,2.19548 2.1276,1.37244 z m -4,-4.999997 c 0,-0.20765 -0.7875,-0.99515 -1.75,-1.75 -1.5861,-1.24387 -1.6214,-1.2085 -0.3776,0.37756 1.3064,1.66575 2.1276,2.19548 2.1276,1.37244 z M 376.72916,56.270203 c -0.33229,-0.33229 -1.1948,-0.36781 -1.91667,-0.0789 -0.79773,0.31922 -0.56078,0.55618 0.60417,0.60416 1.05416,0.0434 1.64479,-0.19293 1.3125,-0.52522 z m 436.00003,-19 c -0.3323,-0.33229 -1.1948,-0.36781 -1.9167,-0.0789 -0.7977,0.31922 -0.5608,0.55618 0.6042,0.60416 1.0541,0.0434 1.6448,-0.19293 1.3125,-0.52522 z m -5,-1 c -0.3323,-0.33229 -1.1948,-0.36781 -1.9167,-0.0789 -0.7977,0.31922 -0.5608,0.55618 0.6042,0.60416 1.0541,0.0434 1.6448,-0.19293 1.3125,-0.52522 z m -16,-3 c -0.3323,-0.33229 -1.1948,-0.36781 -1.9167,-0.0789 -0.7977,0.31922 -0.5608,0.55618 0.6042,0.60416 1.0541,0.0434 1.6448,-0.19293 1.3125,-0.52522 z m -5,-1 c -0.3323,-0.33229 -1.1948,-0.36781 -1.9167,-0.0789 -0.7977,0.31922 -0.5608,0.55618 0.6042,0.60416 1.0541,0.0434 1.6448,-0.19293 1.3125,-0.52522 z m -10.4792,-2.05811 c -0.6875,-0.27741 -1.8125,-0.27741 -2.5,0 -0.6875,0.27741 -0.125,0.50439 1.25,0.50439 1.375,0 1.9375,-0.22698 1.25,-0.50439 z m -5.5208,-0.94189 c -0.3323,-0.33229 -1.1948,-0.36781 -1.9167,-0.0789 -0.7977,0.31922 -0.5608,0.55618 0.6042,0.60416 1.0541,0.0434 1.6448,-0.19293 1.3125,-0.52522 z m -5.4792,-1.05811 c -0.6875,-0.27741 -1.8125,-0.27741 -2.5,0 -0.6875,0.27741 -0.125,0.50439 1.25,0.50439 1.375,0 1.9375,-0.22698 1.25,-0.50439 z m -4.5208,-0.94189 c -0.3323,-0.33229 -1.1948,-0.36781 -1.9167,-0.0789 -0.7977,0.31922 -0.5608,0.55618 0.6042,0.60416 1.0541,0.0434 1.6448,-0.19293 1.3125,-0.52522 z m -573.00003,-1 c -0.33229,-0.33229 -1.1948,-0.36781 -1.91667,-0.0789 -0.79773,0.31922 -0.56078,0.55618 0.60417,0.60416 1.05416,0.0434 1.64479,-0.19293 1.3125,-0.52522 z m 567.52083,-0.0581 c -0.6875,-0.27741 -1.8125,-0.27741 -2.5,0 -0.6875,0.27741 -0.125,0.50439 1.25,0.50439 1.375,0 1.9375,-0.22698 1.25,-0.50439 z m -5.5208,-0.94189 c -0.3323,-0.33229 -1.1948,-0.36781 -1.9167,-0.0789 -0.7977,0.31922 -0.5608,0.55618 0.6042,0.60416 1.0541,0.0434 1.6448,-0.19293 1.3125,-0.52522 z m -4.4792,-1.05811 c -0.6875,-0.27741 -1.8125,-0.27741 -2.5,0 -0.6875,0.27741 -0.125,0.50439 1.25,0.50439 1.375,0 1.9375,-0.22698 1.25,-0.50439 z m -6,-1 c -0.6875,-0.27741 -1.8125,-0.27741 -2.5,0 -0.6875,0.27741 -0.125,0.50439 1.25,0.50439 1.375,0 1.9375,-0.22698 1.25,-0.50439 z m -5,-1 c -0.6875,-0.27741 -1.8125,-0.27741 -2.5,0 -0.6875,0.27741 -0.125,0.50439 1.25,0.50439 1.375,0 1.9375,-0.22698 1.25,-0.50439 z m -5,-1 c -0.6875,-0.27741 -1.8125,-0.27741 -2.5,0 -0.6875,0.27741 -0.125,0.50439 1.25,0.50439 1.375,0 1.9375,-0.22698 1.25,-0.50439 z m -5.75,-1.05522 c -1.1,-0.26702 -20.45,-4.04887 -43,-8.4041 -29.461,-5.6899898 -43.9551,-8.0437398 -51.5,-8.3632098 l -10.5,-0.44462 12.5,1.43021 c 6.875,0.78661 29.825,4.7755 51,8.8641898 21.175,4.08869 39.625,7.42702 41,7.41851 1.993,-0.0123 2.0944,-0.11394 0.5,-0.50098 z m -223.25,-2.94478 c -0.6875,-0.27741 -1.8125,-0.27741 -2.5,0 -0.6875,0.27741 -0.125,0.50439 1.25,0.50439 1.375,0 1.9375,-0.22698 1.25,-0.50439 z m 9.47917,-3.94189 c -0.33229,-0.33229 -1.1948,-0.36781 -1.91667,-0.0789 -0.79773,0.31922 -0.56078,0.55618 0.60417,0.60416 1.05416,0.0434 1.64479,-0.19293 1.3125,-0.52522 z m 7,-1 c -0.33229,-0.33229 -1.1948,-0.36781 -1.91667,-0.0789 -0.79773,0.31922 -0.56078,0.55618 0.60417,0.60416 1.05416,0.0434 1.64479,-0.19293 1.3125,-0.52522 z m 43.00003,-5.9999998 c -0.3323,-0.33229 -1.1948,-0.36781 -1.9167,-0.0789 -0.7977,0.31922 -0.5608,0.55618 0.6042,0.60416 1.0541,0.0434 1.6448,-0.19293 1.3125,-0.52522 z m 7.5398,-1.05177 c -0.677,-0.27392 -2.027,-0.29059 -3,-0.0371 -0.9729,0.25354 -0.419,0.47766 1.231,0.49804 1.65,0.0204 2.4461,-0.18706 1.769,-0.46099 z m 7.481,-1.03339 c -0.9625,-0.25152 -2.5375,-0.25152 -3.5,0 -0.9625,0.25153 -0.175,0.45733 1.75,0.45733 1.925,0 2.7125,-0.2058 1.75,-0.45733 z m 13,-1.02692 c -1.5125,-0.22913 -3.9875,-0.22913 -5.5,0 -1.5125,0.22912 -0.275,0.41659 2.75,0.41659 3.025,0 4.2625,-0.18747 2.75,-0.41659 z m 25.0392,-1.02157 c -3.141,-0.19781 -8.541,-0.19942 -12,-0.004 -3.4591,0.19583 -0.8892,0.35767 5.7108,0.35965 6.6,0.002 9.4301,-0.15825 6.2892,-0.35606 z"
     id="path6739"
     inkscape:connector-curvature="0" />
  <path
     style="fill:#ffffff"
     d="M 219.61656,545.50035 C 208.155,523.80736 201.61759,513.81444 198.9122,513.85228 c -2.17459,0.0303 -11.60162,2.08972 -20.94895,4.57627 -15.5614,4.13961 -18.09678,4.23407 -30.05365,1.11972 -16.49077,-4.29532 -34.87067,-15.9815 -47.24406,-30.03841 -22.399801,-25.44751 -55.608659,-80.46779 -49.755183,-82.43415 1.729336,-0.58092 17.410756,-3.83871 34.8476,-7.23952 46.502493,-9.06964 190.260673,-46.43367 244.140243,-63.45421 27.48204,-8.68157 36.65194,-18.1818 26.93181,-27.90193 -8.31638,-8.31638 -22.89431,-5.87376 -203.89154,34.16299 -91.094713,20.15025 -117.581425,25.24987 -119.023699,22.91622 -2.09942,-3.39693 -7.91028,-34.00636 -11.708565,-61.67629 -2.855821,-20.80424 0.206327,-66.71839 6.189343,-92.80364 6.420031,-27.99059 19.62506,-50.95295 35.713184,-62.10203 5.108761,-3.54037 11.031774,-10.35269 13.162253,-15.13848 3.639726,-8.1761 3.59121,-10.40286 -0.803574,-36.882203 C 72.505874,73.087674 72.28821,68.400052 75.044819,66.319701 76.834835,64.968814 102.0877,57.210426 131.16229,49.078837 l 52.86289,-14.784707 90.00889,14.321104 c 92.53657,14.723279 103.38332,15.850875 116.44383,12.105169 4.18924,-1.201456 7.61679,-1.687746 7.61679,-1.080643 0,0.607103 -2.11858,5.256604 -4.70797,10.332226 -13.04243,25.565241 -17.22575,66.601714 -14.36174,140.881864 l 2.12786,55.18731 9.3148,27.00656 c 22.77327,66.02696 48.33315,117.70539 72.79506,147.18132 8.07261,9.72727 14.67747,18.43909 14.67747,19.35964 0,0.92052 -3.543,3.36323 -7.87335,5.42825 -4.33037,2.06499 -33.65597,23.0822 -65.168,46.70491 l -57.29465,42.95038 -55.18732,11.18084 c -30.35303,6.14944 -55.38136,11.21904 -55.61853,11.26572 -0.23716,0.0467 -7.96896,-14.18159 -17.18176,-31.61843 z"
     id="path3380"
     inkscape:connector-curvature="0"
     transform="translate(-3.0517578e-5,0)" />
  <path
     style="fill:#ffffff"
     d="m 519.03711,454.71362 c -5.16647,-1.23756 -12.96774,-1.85568 -17.33615,-1.37365 -7.40486,0.8171 -9.03143,-0.40221 -24.02667,-18.01114 -24.9112,-29.25323 -47.69828,-73.60791 -71.38096,-138.94185 l -10.47396,-28.89474 -2.67102,-56.81901 c -3.69737,-78.65178 0.89119,-116.520791 17.1936,-141.897371 12.21655,-19.016463 20.34857,-24.494399 52.74232,-35.528557 16.63723,-5.667079 22.57477,-6.368436 62.66889,-7.402618 42.56241,-1.097849 44.23827,-0.969826 42.95461,3.281403 -0.73468,2.433103 -3.07221,12.349662 -5.19453,22.036798 -2.12231,9.687135 -5.07182,18.816646 -6.55446,20.287799 -1.48265,1.471156 -34.39907,15.898262 -73.14762,32.060236 -38.74854,16.16197 -73.35803,30.71541 -76.90998,32.34097 -6.40845,2.93285 -6.45809,3.1335 -6.45809,26.10143 0,26.01622 5.81812,65.78681 16.25788,111.13303 11.25286,48.87803 20.44568,73.59365 39.43944,106.03609 6.99875,11.95426 13.71159,25.30818 14.91744,29.67538 1.20584,4.36722 5.68223,11.97748 9.94753,16.91169 l 7.7551,8.97132 37.44808,-4.0589 c 20.59645,-2.2324 53.82815,-6.1357 73.84823,-8.67394 20.02008,-2.53826 41.33699,-5.24035 47.37094,-6.00464 8.86386,-1.12274 12.6084,-0.37753 19.4978,3.88035 4.68984,2.89849 8.20722,5.58733 7.81638,5.97519 -3.33254,3.3072 -75.38316,23.02093 -98.02946,26.82179 -30.87446,5.18185 -42.95031,5.62007 -57.67534,2.09294 z"
     id="path3382"
     inkscape:connector-curvature="0"
     transform="translate(-3.0517578e-5,0)" />
  <path
     style="fill:#ffffff"
     d="m 477.94017,388.76017 c -27.27574,-48.00519 -40.23893,-83.01577 -51.96001,-140.33198 -7.93033,-38.77944 -9.88656,-53.31388 -10.05874,-74.7348 l -0.21375,-26.59268 71.62609,-29.92689 c 39.39435,-16.45979 73.85891,-31.136352 76.5879,-32.614586 6.11096,-3.310166 8.63073,-9.709805 14.83732,-37.683418 5.59124,-25.200147 5.96981,-30.938879 2.04096,-30.938879 -2.08879,0 -2.13383,-0.684248 -0.17403,-2.64405 1.79655,-1.796545 11.5445,-2.279604 30.41174,-1.50705 36.02671,1.475179 228.00803,37.539005 260.39289,48.914985 38.64254,13.574147 52.77133,21.305771 66.57751,36.432889 13.98235,15.320109 28.41421,42.672209 28.37072,53.769769 -0.0437,11.11706 -5.60759,29.33894 -14.27863,46.76174 -6.79536,13.65399 -12.51631,20.11801 -39.67514,44.82833 -43.7899,39.84203 -44.42307,40.35185 -120.97389,97.40912 -82.13367,61.21845 -98.4558,72.91328 -101.76302,72.91328 -1.39368,0 -7.84494,-3.1315 -14.33619,-6.95887 l -11.80224,-6.95884 -81.64775,10.48144 c -44.90626,5.7648 -82.70548,10.45847 -83.99826,10.43035 -1.29278,-0.0281 -10.27634,-14.00055 -19.96348,-31.04986 z"
     id="path3384"
     inkscape:connector-curvature="0"
     transform="translate(-3.0517578e-5,0)" />
  <path
     style="fill:#ffffff"
     d="m 31.275158,393.5591 c 1.549942,-1.54995 2.818076,-4.5603 2.818076,-6.68968 0,-3.20191 21.427643,-8.60289 123.877916,-31.22424 68.13285,-15.04395 134.29784,-29.47044 147.03329,-32.05887 21.4143,-4.35236 36.5283,-6.01755 34.18465,-3.76631 -3.59345,3.45172 -212.84069,57.55366 -255.528115,66.06808 -59.780567,11.92382 -56.099603,11.3848 -52.385817,7.67102 z"
     id="path3386"
     inkscape:connector-curvature="0"
     transform="translate(-3.0517578e-5,0)" />
  <path
     style="fill:#a0a0a0;stroke:none;stroke-width:1px;stroke-linecap:butt;stroke-linejoin:miter;stroke-opacity:1;fill-opacity:0"
     d="m 231.84558,568.52126 c -3.07973,-4.91179 -10.68047,-18.79831 -16.89054,-30.8589 -6.21007,-12.06061 -12.5797,-22.42288 -14.15472,-23.02727 -1.57503,-0.6044 -11.29985,1.05504 -21.61072,3.68764 -16.63946,4.24844 -20.06542,4.44455 -30.47407,1.7446 -24.99138,-6.4827 -44.17332,-22.11255 -66.778325,-54.41246 C 68.59681,446.593 49.357811,413.11844 49.357811,408.96892 c 0,-1.24968 12.945536,-4.73603 28.767858,-7.74748 54.607541,-10.39337 249.398181,-61.56723 265.634241,-69.78532 15.70209,-7.94782 20.7517,-19.0199 11.04383,-24.2154 -11.15754,-5.97134 -22.73849,-3.95136 -195.79338,34.1505 -67.010534,14.75385 -122.626316,26.82519 -123.590628,26.82519 -2.066246,0 -5.908022,-16.43194 -10.706545,-45.79373 -8.735289,-53.45056 -0.05617,-120.73324 19.563941,-151.66447 3.754107,-5.91838 12.153589,-15.25327 18.665516,-20.74421 17.525468,-14.77769 18.409219,-18.29295 13.360187,-53.142183 -2.331222,-16.090482 -3.638969,-29.855043 -2.9061,-30.587909 0.732866,-0.732867 25.837622,-8.235 55.788339,-16.671408 l 54.45586,-15.338922 92.8684,14.614974 c 89.75989,14.125775 105.55594,15.500526 118.8686,10.345298 4.00594,-1.551273 3.95143,-0.937184 -0.73179,8.242668 -2.78311,5.455348 -7.34703,18.023327 -10.14206,27.928845 -4.75271,16.843487 -5.06209,22.750597 -4.77653,91.198727 0.34524,82.74384 -0.3883,78.07557 21.15664,134.64439 18.16088,47.68356 42.8654,94.7059 62.5235,119.00671 8.86381,10.95717 15.75973,20.10232 15.32425,20.32251 -12.62193,6.38245 -26.59454,16.09147 -74.63698,51.86224 l -57.66499,42.93545 -50.49053,9.88567 c -27.76978,5.43713 -52.29139,10.4088 -54.49245,11.0482 -2.76006,0.80179 -5.73954,-1.60875 -9.60141,-7.768 z"
     id="path4192"
     inkscape:connector-curvature="0"
     transform="translate(-3.0517578e-5,0)" />
  <path
     style="fill:#a0a0a0;stroke:none;stroke-width:1px;stroke-linecap:butt;stroke-linejoin:miter;stroke-opacity:1;fill-opacity:0"
     d="M 486.74198,404.00946 C 455.3982,350.85008 440.1015,314.21998 430.1072,268.38956 415.10042,199.57372 409.41642,149.5276 416.29477,146.77484 c 53.14599,-21.26939 147.32252,-61.970076 150.5533,-65.065282 5.66669,-5.428912 19.14955,-60.809786 15.65526,-64.304073 -5.13007,-5.130069 -1.61401,-6.165341 20.93915,-6.165341 24.53608,0 46.1961,3.529783 182.13764,29.681717 69.91415,13.44983 109.29308,25.075471 134.01876,39.56569 22.09045,12.945863 45.62831,50.770899 45.63171,73.329589 0.002,13.90505 -6.6929,33.92676 -17.10922,51.16572 -6.81403,11.27723 -40.21852,43.54622 -76.38908,73.79244 -17.57507,14.69645 -107.195,82.03611 -155.16941,116.59298 l -26.7461,19.2657 -13.22408,-7.75041 -13.22408,-7.75041 -82.14643,10.34052 c -45.18055,5.6873 -82.81859,10.3511 -83.64011,10.36402 -0.82151,0.0117 -5.69956,-7.10982 -10.8401,-15.82824 z"
     id="path4194"
     inkscape:connector-curvature="0"
     transform="translate(-3.0517578e-5,0)" />
  <path
     style="fill:#a0a0a0;stroke:none;stroke-width:1px;stroke-linecap:butt;stroke-linejoin:miter;stroke-opacity:1;fill-opacity:0"
     d="m 519.03711,454.9025 c -4.52066,-1.12873 -12.16895,-1.87151 -16.9962,-1.65064 -7.65974,0.35047 -9.90142,-0.89897 -17.61297,-9.81679 -28.99153,-33.52663 -51.17528,-74.30353 -74.14926,-136.29697 l -15.23,-41.09694 -1.99959,-50.49052 c -2.3194,-58.56585 -1.85018,-75.63083 2.86357,-104.14488 5.78195,-34.975752 19.15132,-56.917447 41.27768,-67.744575 29.15502,-14.266473 39.97924,-16.47464 87.13066,-17.774875 36.6343,-1.010216 44.01896,-0.665702 43.95224,2.05049 -0.20095,8.179619 -9.16129,40.516278 -12.00885,43.338276 -1.74654,1.730867 -36.46405,17.086381 -77.15002,34.123364 -40.68597,17.03698 -75.44254,32.13391 -77.23682,33.54872 -9.06332,7.14654 8.55086,124.61621 26.90094,179.40343 7.8236,23.35868 16.9192,42.91639 31.215,67.11969 6.64163,11.24452 12.07569,22.3898 12.07569,24.76729 0,2.37749 3.98434,8.8125 8.85408,14.30002 l 8.85408,9.97731 36.35255,-3.98606 c 19.99391,-2.19229 52.73262,-6.06961 72.7527,-8.61622 63.76538,-8.11112 59.75958,-7.99288 68.15916,-2.01184 9.25761,6.59199 10.08317,6.09834 -31.08906,18.5899 -50.98157,15.46772 -95.60751,21.73202 -116.91558,16.41182 z"
     id="path4196"
     inkscape:connector-curvature="0"
     transform="translate(-3.0517578e-5,0)" />
  <path
     style="fill:#a0a0a0;stroke:none;stroke-width:1px;stroke-linecap:butt;stroke-linejoin:miter;stroke-opacity:1;fill-opacity:0"
     d="m 231.84558,568.52126 c -3.07973,-4.91179 -10.68047,-18.79831 -16.89054,-30.8589 -6.21007,-12.06061 -12.5797,-22.42288 -14.15472,-23.02727 -1.57503,-0.6044 -11.29985,1.05504 -21.61072,3.68764 -16.63946,4.24844 -20.06542,4.44455 -30.47407,1.7446 -24.99138,-6.4827 -44.17332,-22.11255 -66.778325,-54.41246 C 68.59681,446.593 49.357811,413.11844 49.357811,408.96892 c 0,-1.24968 12.945536,-4.73603 28.767858,-7.74748 54.607541,-10.39337 249.398181,-61.56723 265.634241,-69.78532 15.70209,-7.94782 20.7517,-19.0199 11.04383,-24.2154 -11.15754,-5.97134 -22.73849,-3.95136 -195.79338,34.1505 -67.010534,14.75385 -122.626316,26.82519 -123.590628,26.82519 -2.066246,0 -5.908022,-16.43194 -10.706545,-45.79373 -8.735289,-53.45056 -0.05617,-120.73324 19.563941,-151.66447 3.754107,-5.91838 12.153589,-15.25327 18.665516,-20.74421 17.525468,-14.77769 18.409219,-18.29295 13.360187,-53.142183 -2.331222,-16.090482 -3.638969,-29.855043 -2.9061,-30.587909 0.732866,-0.732867 25.837622,-8.235 55.788339,-16.671408 l 54.45586,-15.338922 92.8684,14.614974 c 89.75989,14.125775 105.55594,15.500526 118.8686,10.345298 4.00594,-1.551273 3.95143,-0.937184 -0.73179,8.242668 -2.78311,5.455348 -7.34703,18.023327 -10.14206,27.928845 -4.75271,16.843487 -5.06209,22.750597 -4.77653,91.198727 0.34524,82.74384 -0.3883,78.07557 21.15664,134.64439 18.16088,47.68356 42.8654,94.7059 62.5235,119.00671 8.86381,10.95717 15.75973,20.10232 15.32425,20.32251 -12.62193,6.38245 -26.59454,16.09147 -74.63698,51.86224 l -57.66499,42.93545 -50.49053,9.88567 c -27.76978,5.43713 -52.29139,10.4088 -54.49245,11.0482 -2.76006,0.80179 -5.73954,-1.60875 -9.60141,-7.768 z"
     id="path4198"
     inkscape:connector-curvature="0"
     transform="translate(-3.0517578e-5,0)" />
  <path
     style="fill:#a0a0a0;stroke:none;stroke-width:1px;stroke-linecap:butt;stroke-linejoin:miter;stroke-opacity:1;fill-opacity:0"
     d="m 29.98354,394.9306 c 1.614523,-0.71127 2.951678,-2.52613 2.971456,-4.03302 0.01978,-1.50689 0.8422,-4.00814 1.827604,-5.55833 2.451788,-3.85704 283.3738,-66.37307 298.5355,-66.43572 9.65785,-0.0399 4.65031,1.85121 -30.45335,11.50086 C 198.12294,359.19684 131.527,376.15955 91.192504,384.31959 44.307913,393.80478 24.903228,397.16872 29.98354,394.9306 Z"
     id="path4200"
     inkscape:connector-curvature="0"
     transform="translate(-3.0517578e-5,0)" />
</svg>
