<?xml version="1.0" encoding="UTF-8" standalone="no"?>
<!-- Created with Inkscape (http://www.inkscape.org/) -->

<svg
   xmlns:dc="http://purl.org/dc/elements/1.1/"
   xmlns:cc="http://creativecommons.org/ns#"
   xmlns:rdf="http://www.w3.org/1999/02/22-rdf-syntax-ns#"
   xmlns:svg="http://www.w3.org/2000/svg"
   xmlns="http://www.w3.org/2000/svg"
   xmlns:sodipodi="http://sodipodi.sourceforge.net/DTD/sodipodi-0.dtd"
   xmlns:inkscape="http://www.inkscape.org/namespaces/inkscape"
   width="24.164mm"
   height="33.817001mm"
   viewBox="0 0 85.620471 119.82402"
   id="svg4729"
   version="1.1"
   inkscape:version="0.91 r13725"
   sodipodi:docname="ELSZ.svg">
  <defs
     id="defs4731" />
  <sodipodi:namedview
     id="base"
     pagecolor="#ffffff"
     bordercolor="#666666"
     borderopacity="1.0"
     inkscape:pageopacity="0.0"
     inkscape:pageshadow="2"
     inkscape:zoom="7.4192136"
     inkscape:cx="42.810235"
     inkscape:cy="59.91201"
     inkscape:document-units="px"
     inkscape:current-layer="layer1"
     showgrid="false"
     fit-margin-top="0"
     fit-margin-left="0"
     fit-margin-right="0"
     fit-margin-bottom="0"
     inkscape:window-width="1858"
     inkscape:window-height="1058"
     inkscape:window-x="54"
     inkscape:window-y="-8"
     inkscape:window-maximized="1" />
  <metadata
     id="metadata4734">
    <rdf:RDF>
      <cc:Work
         rdf:about="">
        <dc:format>image/svg+xml</dc:format>
        <dc:type
           rdf:resource="http://purl.org/dc/dcmitype/StillImage" />
        <dc:title></dc:title>
      </cc:Work>
    </rdf:RDF>
  </metadata>
  <g
     inkscape:label="Layer 1"
     inkscape:groupmode="layer"
     id="layer1"
     transform="translate(1897.816,227.68139)">
    <path
       inkscape:connector-curvature="0"
       style="fill:#ffffff;stroke:#000000;stroke-width:0.7073375"
       d="m -1863.6297,-108.56117 c -0.5871,-0.62246 -0.7179,-0.69319 -0.9054,-0.48099 -0.078,0.0884 -0.092,0.16976 -0.064,0.32891 0.035,0.20159 0.035,0.2122 -0.1238,0.2122 -0.2122,0 -0.6012,-0.19805 -0.7781,-0.41379 -0.071,-0.1061 -0.2122,-0.37489 -0.2475,-0.60124 -0.071,-0.22281 -0.1415,-0.4244 -0.1769,-0.43501 -0.2122,-0.0778 -0.389,0.26879 -0.389,0.74271 0,0.29354 -0.035,0.40671 -0.1769,0.40671 -0.1061,0 -0.2475,-0.2122 -0.3183,-0.59416 -0.1414,-0.67197 -0.3183,-0.81344 -0.8841,-0.75685 -0.1769,0.0177 -0.3537,0.053 -0.3891,0.0707 -0.1061,0.046 -0.2829,-0.12378 -0.2829,-0.30061 0,-0.17684 0.2476,-0.38904 0.4951,-0.38904 0.1061,0 0.2122,-0.0212 0.283,-0.053 0.071,-0.046 0.071,-0.0707 0,-0.20513 -0.1061,-0.17683 -0.1061,-0.45977 -0.035,-0.56587 0.1415,-0.14854 0.3537,-0.0707 0.7073,0.26172 0.4952,0.45977 0.672,0.41733 0.4598,-0.1061 -0.1768,-0.44563 -0.071,-0.82052 0.2476,-0.82052 0.1768,0 0.2476,0.12379 0.3183,0.626 0.071,0.49513 0.1415,0.60124 0.3183,0.60124 0.2829,0 0.3537,-0.28294 0.1415,-0.60124 -0.2122,-0.38904 -0.1061,-0.63661 0.3536,-0.77807 0.4244,-0.14147 0.5305,-0.3183 0.2476,-0.45977 -0.1061,-0.0707 -0.2122,-0.0707 -0.4598,0.0354 -0.4597,0.14147 -0.6012,0.10611 -0.8134,-0.14146 -0.3183,-0.35367 -0.2476,-0.60124 0.2122,-0.77807 0.2829,-0.14147 0.672,-0.49514 0.672,-0.67197 0,-0.10611 -0.035,-0.14147 -0.1769,-0.14147 -0.2475,0 -0.8841,0.28293 -1.1671,0.5305 -0.3183,0.28294 -0.389,0.49514 -0.3537,0.99027 0.035,0.28294 0,0.45977 -0.071,0.56587 -0.2122,0.42441 -0.6012,0.56587 -1.0964,0.42441 -0.3536,-0.1061 -0.5658,-0.0707 -0.6366,0.17683 0,0.1061 0,0.17683 0.1061,0.24757 0.071,0.0707 0.1769,0.1061 0.2122,0.1061 0.035,0 0.1061,0.0354 0.1415,0.0707 0.035,0.0707 0.035,0.1061 -0.1061,0.28294 -0.1061,0.0707 -0.2122,0.17683 -0.2476,0.17683 -0.071,0 -0.2122,-0.14147 -0.389,-0.28293 -0.4244,-0.35367 -0.4951,-0.38904 -0.9903,-0.38904 -0.4244,0 -0.4597,0 -0.6366,-0.2122 -0.2475,-0.28293 -0.4244,-0.6366 -0.4244,-0.81344 0.035,-0.2122 0.283,-0.2122 0.8842,0 0.3183,0.1061 0.6366,0.17684 0.7427,0.17684 0.1768,-0.0354 0.2122,-0.0354 0.2476,-0.28294 0.071,-0.35367 0.2122,-0.56587 0.389,-0.67197 0.1415,-0.0707 0.1768,-0.0707 0.389,0.0354 0.283,0.14147 0.3891,0.14147 0.7074,0 0.2829,-0.14147 0.4597,-0.38904 0.389,-0.56587 -0.071,-0.28294 -0.2122,-0.3183 -0.7427,-0.0354 -0.389,0.17684 -0.5659,0.24757 -0.9195,0.24757 -0.3183,0.0354 -0.4952,0.0707 -0.6366,0.17683 -0.1061,0.0707 -0.2122,0.17684 -0.2122,0.2122 0,0.0707 -0.3183,0.21221 -0.4952,0.17684 -0.2122,-0.0707 -0.2829,-0.17684 -0.1768,-0.3183 0.071,-0.0707 0.1061,-0.2122 0.1415,-0.3183 0.035,-0.24757 0.3183,-0.53051 0.5305,-0.60124 0.071,-0.0354 0.2122,0 0.3183,0.0707 0.1061,0.0354 0.2475,0.0707 0.3183,0.0707 0.1768,0 0.5658,-0.17684 0.6366,-0.28294 0.035,-0.0354 0.1768,-0.0707 0.3536,-0.0707 0.3891,0 0.4952,-0.0354 0.4952,-0.17684 0,-0.28293 -0.7074,-0.45977 -1.4501,-0.4244 -0.5305,0.0354 -0.6366,0.0707 -1.0256,0.4244 -0.3183,0.3183 -0.4951,0.38904 -0.7073,0.28294 -0.1415,-0.0707 -0.3183,-0.4244 -0.283,-0.63661 0.071,-0.28293 0.2476,-0.35366 0.7074,-0.35366 1.0963,0 1.5207,-0.49514 0.8488,-0.91954 -0.3183,-0.24757 -0.5305,-0.2122 -0.6366,0.14146 -0.1061,0.35367 -0.283,0.38904 -0.4598,0.0707 l -0.1061,-0.2122 -0.389,0.0354 c -0.2122,0.0354 -0.3891,0.0354 -0.3891,0 -0.035,-0.1061 0.283,-0.4244 0.6013,-0.60123 0.3536,-0.2122 0.4244,-0.38904 0.1768,-0.53051 -0.1415,-0.1061 -0.1768,-0.1061 -0.4244,0 -0.2476,0.1061 -0.3183,0.1061 -0.4951,0 -0.283,-0.1061 -0.3183,-0.1061 -0.5659,0.0707 -0.1061,0.0707 -0.2476,0.14146 -0.283,0.14146 -0.1414,0 -0.1414,-0.24756 -0.035,-0.49513 0.1061,-0.24757 0.1061,-0.28294 0.035,-0.38904 -0.1414,-0.2122 -0.1414,-0.2122 0.1415,-0.28293 0.1768,-0.0707 0.2476,-0.1061 0.2476,-0.24757 0.035,-0.1061 0.1415,-0.24757 0.2476,-0.35367 0.1061,-0.1061 0.1768,-0.24757 0.1768,-0.3183 0,-0.24757 0.2476,-1.16711 0.389,-1.45004 0.1769,-0.3183 0.1769,-0.53051 0.035,-0.67197 -0.1415,-0.14147 -0.3537,-0.1061 -0.4951,0.14146 -0.1061,0.17684 -0.1415,0.28294 -0.1061,0.60124 0,0.45977 -0.1061,0.56587 -0.4245,0.5305 -0.1768,0 -0.2122,-0.0354 -0.2829,-0.2122 -0.071,-0.17683 -0.1061,-0.2122 -0.2476,-0.2122 -0.1061,0 -0.2122,-0.0354 -0.2829,-0.1061 -0.1768,-0.2122 -0.1061,-0.35367 0.2122,-0.67197 0.1768,-0.14147 0.389,-0.4244 0.4951,-0.56587 0.1415,-0.24757 0.283,-0.35367 0.4245,-0.38903 0.2829,-0.10611 0.4244,-0.24757 0.4244,-0.42441 0,-0.45977 -0.283,-0.49513 -0.6013,-0.14146 -0.1768,0.24756 -0.5305,0.45976 -0.7427,0.45976 -0.071,0 -0.1415,-0.0707 -0.2122,-0.17683 -0.035,-0.1061 -0.1768,-0.28293 -0.2476,-0.38904 -0.1414,-0.17683 -0.1768,-0.2122 -0.1061,-0.35366 0.071,-0.17684 0.4952,-0.49514 0.7427,-0.53051 0.1061,-0.0354 0.283,0 0.4598,0.0354 0.3537,0.1061 0.4244,0.0707 0.672,-0.17683 0.1768,-0.14147 0.2122,-0.17684 0.389,-0.14147 0.1061,0 0.283,0.1061 0.4244,0.2122 0.283,0.2122 0.3891,0.17683 0.3891,-0.0707 0,-0.35367 -0.2476,-0.49514 -0.7781,-0.38904 -0.7073,0.14147 -0.8488,0.0354 -0.8134,-0.4244 0.035,-0.35367 0.1768,-0.56587 0.4244,-0.67197 0.1768,-0.0707 0.2122,-0.1061 0.2122,-0.31831 0,-0.17683 -0.035,-0.28293 -0.1415,-0.38903 -0.1415,-0.14147 -0.3183,-0.14147 -0.672,-0.0354 -0.1061,0.0354 -0.1415,0 -0.2476,-0.1061 -0.2475,-0.28293 -0.3183,-0.35367 -0.4597,-0.35367 -0.1415,0 -0.3183,0.14147 -0.3183,0.3183 0,0.14147 -0.1769,0.17684 -0.283,0.0707 -0.1768,-0.2122 0.071,-0.63661 0.6013,-0.99027 0.1768,-0.1061 0.3183,-0.21221 0.3183,-0.21221 0,-0.0354 -0.035,-0.1061 -0.071,-0.17683 -0.071,-0.0707 -0.071,-0.2122 -0.071,-0.3183 0,-0.17684 0.1415,-0.28294 0.6366,-0.49514 0.1415,-0.0707 0.1769,-0.1061 0.283,-0.38903 0.035,-0.0707 0.1414,-0.1061 0.3536,-0.1061 0.4952,-0.0354 0.5305,-0.21221 0.1415,-0.70734 -0.3537,-0.45977 -0.389,-0.5305 -0.2829,-0.63661 0.1061,-0.14146 0.3183,-0.14146 0.5305,0.0354 0.2122,0.2122 0.3536,0.45977 0.3536,0.70734 0,0.17683 -0.071,0.28293 -0.389,0.6366 -0.2122,0.24757 -0.389,0.45977 -0.389,0.49514 0,0.17683 0.6012,0.67197 0.8134,0.67197 0.035,0 0.1061,-0.0707 0.1768,-0.14147 0.071,-0.14147 0.071,-0.17683 -0.071,-0.45977 -0.071,-0.17683 -0.1061,-0.35367 -0.1061,-0.4244 0.035,-0.1061 0.2476,-0.2122 0.5659,-0.24757 0.1414,-0.0354 0.2475,-0.0707 0.2475,-0.14147 0,-0.0707 -0.035,-0.24756 -0.1061,-0.38903 -0.1768,-0.38904 -0.1768,-0.56587 -0.035,-0.67197 0.1061,-0.0707 0.1061,-0.14147 0.1061,-0.5305 -0.035,-0.24757 -0.035,-0.56587 -0.071,-0.70734 -0.035,-0.2122 0,-0.3183 0.1061,-0.53051 0.1061,-0.24756 0.1415,-0.38903 0.1415,-0.77807 0,-0.45977 0,-0.49513 0.2122,-0.8488 l 0.237,-0.38904 -0.071,-0.38903 c -0.071,-0.49514 -0.071,-0.60124 0.1769,-0.77807 0.2122,-0.14147 0.2122,-0.35367 0.035,-0.53051 -0.071,-0.0707 -0.1768,-0.1061 -0.2122,-0.14146 -0.035,0 -0.071,-0.1061 -0.1061,-0.24757 -0.035,-0.17684 -0.071,-0.24757 -0.1768,-0.24757 -0.1486,0 -0.3325,0.14147 -0.3537,0.3183 -0.035,0.0707 -0.1061,0.15562 -0.1768,0.2122 -0.283,0.14147 -0.283,0.2122 -0.3537,1.27321 -0.035,1.34394 -0.071,1.45004 -0.6012,1.52078 -0.3891,0.0707 -0.5659,-0.0601 -0.5659,-0.38904 0,-0.37489 0.1768,-1.4076 0.2829,-1.76127 0.1061,-0.3183 0.2122,-0.45977 0.4598,-0.5305 0.2476,-0.0707 0.2829,-0.2122 0.1592,-0.67197 -0.1415,-0.47392 -0.1769,-0.88418 -0.035,-1.24845 0.035,-0.14147 0.1061,-0.45977 0.1415,-0.70734 0.035,-0.28294 0.1061,-0.56587 0.2475,-0.84881 0.4244,-0.91954 0.4952,-1.41467 0.2122,-1.98054 -0.1768,-0.38904 -0.1768,-0.4244 -0.1768,-1.09637 0.035,-0.56587 0,-0.74271 -0.081,-1.04333 -0.2122,-0.6366 -0.1415,-0.91954 0.2475,-1.02564 0.2122,-0.0354 0.3183,-0.17683 0.4598,-0.60123 0.071,-0.17684 0.3183,-0.81344 0.5659,-1.37931 0.5305,-1.27321 0.6543,-1.66224 0.8134,-2.44032 0.049,-0.3183 0.2122,-0.77807 0.3183,-1.061 0.1768,-0.38904 0.2122,-0.53051 0.2122,-0.88417 0,-0.35367 0,-0.42441 0.1415,-0.63661 0.1414,-0.2122 0.1556,-0.3183 0.2122,-1.02564 0.035,-0.4244 0.035,-1.20247 0,-1.73297 -0.071,-1.59151 -0.088,-1.48541 0.2122,-1.98055 0.1768,-0.28293 0.2829,-0.49514 0.2829,-0.6366 0,-0.12732 -0.1415,-0.45977 -0.3183,-0.84881 -0.1768,-0.35367 -0.3183,-0.67197 -0.3183,-0.72856 0,-0.0354 0.1061,-0.2122 0.2476,-0.38903 0.3536,-0.38904 0.4951,-0.70734 0.4951,-1.16711 0,-0.2122 0.035,-0.49513 0.1415,-0.70733 0.1414,-0.38904 0.2122,-0.56587 0.5658,-2.12202 0.3183,-1.48541 0.3891,-1.80371 0.3891,-2.97081 0,-0.84881 0,-0.99028 0.1061,-1.16711 l 0.1061,-0.2122 -0.1415,-0.2122 c -0.1768,-0.21221 -0.1768,-0.38904 -0.035,-0.84881 0.071,-0.17683 0.2122,-0.7427 0.3183,-1.20247 l 0.2122,-0.84881 0,-1.59151 c 0,-1.30857 0,-1.66224 -0.1061,-2.05128 -0.071,-0.3183 -0.1061,-0.6366 -0.081,-1.09637 0,-0.35367 0,-0.67197 -0.035,-0.67197 0,0 -0.2475,-0.14147 -0.4951,-0.3183 -0.6012,-0.35367 -0.9903,-0.70734 -1.3086,-1.09637 -0.4597,-0.56587 -1.3439,-1.16711 -3.6428,-2.36958 -1.3793,-0.74271 -1.7329,-0.96906 -2.6171,-1.73298 -0.8134,-0.67197 -0.9903,-0.95491 -0.9549,-1.45004 l 0,-0.49514 c 0,-0.28293 -0.2829,-0.8488 -0.8488,-1.66224 -0.8842,-1.27321 -1.9558,-3.43059 -2.6525,-5.37577 -0.3183,-0.8488 -0.4598,-1.13174 -0.7781,-1.52077 -0.1415,-0.17684 -0.4244,-0.60124 -0.6366,-0.91954 -0.5305,-0.88417 -0.679,-1.02564 -1.4147,-1.52078 -0.7781,-0.49513 -1.061,-0.77807 -0.9903,-0.9549 0.035,-0.0707 0.1061,-0.14147 0.2122,-0.14147 0.099,-0.0283 0.1769,-0.0707 0.2122,-0.1061 0,-0.0354 -0.1061,-0.41379 -0.2829,-0.81344 -0.389,-0.91954 -0.4032,-1.1954 -0.1061,-1.687 0.2829,-0.45977 0.7074,-0.91954 1.0044,-0.99027 l 0.4244,-0.1061 c 0.3183,-0.1061 0.5659,-0.56587 0.4244,-0.81344 -0.071,-0.1061 -0.1061,-0.14147 -0.2829,-0.1061 -0.1768,0.0354 -0.2476,0 -0.7427,-0.35367 -0.3395,-0.24757 -0.5305,-0.45977 -0.5305,-0.49514 0,-0.0707 0.035,-0.2122 0.071,-0.3183 0.1061,-0.3183 0.1061,-0.49513 -0.035,-0.81344 -0.1769,-0.4244 -0.1061,-0.6366 0.3183,-0.9549 0.1768,-0.14147 0.3183,-0.3183 0.3183,-0.35367 0,-0.3183 0.1414,-0.60124 0.4456,-0.91954 0.2829,-0.3183 0.3183,-0.33952 0.3183,-0.67197 0,-0.38903 0.071,-0.7427 0.1768,-0.83112 0.035,-0.0354 0.2476,-0.1061 0.4598,-0.14147 0.389,-0.0601 0.7427,-0.2122 0.8134,-0.35367 0.035,-0.0354 0.071,-0.24756 0.071,-0.4244 0.035,-0.28293 0.071,-0.38903 0.2122,-0.5305 0.081,-0.1061 0.2122,-0.28294 0.2475,-0.4244 0.1061,-0.35367 0.3007,-0.55173 0.5765,-0.60124 0.3537,-0.0354 0.672,-0.24757 0.8488,-0.45977 0.2122,-0.28294 0.7074,-1.27321 0.7781,-1.48541 0,-0.1061 -0.035,-0.24757 -0.1415,-0.4244 -0.1768,-0.3183 -0.3536,-1.02564 -0.3536,-1.66224 0,-0.42441 0,-0.53051 0.1061,-0.67198 0.1414,-0.19805 0.1768,-0.35366 0.035,-0.67197 0.035,0.14147 0,-0.0707 0,-0.24756 0,-0.45977 -0.1414,-0.67197 -0.8488,-1.41468 -0.8842,-0.88417 -0.9903,-1.13174 -0.7427,-1.55614 0.1415,-0.24757 0.1415,-0.38904 0,-0.60124 -0.2369,-0.28293 -0.5517,-0.4244 -1.0504,-0.38903 -0.5305,0.0354 -0.8488,0.2122 -1.061,0.56587 -0.071,0.17683 -0.2122,0.3183 -0.4244,0.4244 -0.389,0.24757 -0.4244,0.35367 -0.1415,0.67197 0.1061,0.14147 0.2122,0.28293 0.2476,0.3183 0.071,0.28294 -0.4244,0.72149 -0.7781,0.72149 -0.1768,0 -0.2475,-0.0354 -0.389,-0.24757 -0.1415,-0.17684 -0.2829,-0.24757 -0.4951,-0.3183 -0.2122,-0.0707 -0.4244,-0.21221 -0.6366,-0.38904 -0.5659,-0.5305 -1.1671,-0.77807 -2.0513,-0.88417 -0.3183,-0.0354 -0.6366,-0.0707 -0.7074,-0.14147 -0.2122,-0.1061 -0.3183,-0.3183 -0.3183,-0.56587 0,-0.4244 -0.4597,-0.91954 -0.9549,-0.99027 -0.1768,-0.0354 -0.2475,-0.1061 -0.389,-0.28294 -0.1981,-0.3183 -0.3537,-0.38903 -0.5305,-0.28293 -0.389,0.24757 -0.3714,0.24757 -0.7073,0.0707 -0.3891,-0.17683 -0.5659,-0.4244 -0.5659,-0.81344 0,-0.17683 0.035,-0.3183 0.1415,-0.45977 0.2652,-0.35366 0.1556,-0.8488 -0.2335,-1.13174 -0.3041,-0.2122 -2.1573,-2.15738 -2.1573,-2.26348 0,-0.14146 0.1061,-0.24756 0.3536,-0.28293 0.1061,-0.0354 0.283,-0.14147 0.4244,-0.24757 0.1769,-0.2122 0.2122,-0.2122 0.1769,-0.56587 -0.035,-0.49514 0.035,-0.56587 0.8134,-0.67197 0.7781,-0.14147 1.061,-0.28293 1.2378,-0.6366 0.1415,-0.35367 0.283,-0.42441 0.9549,-0.42441 0.5659,0 0.5659,0 0.955,-0.24756 0.4951,-0.28294 1.061,-0.49514 1.1671,-0.42441 0.071,0.0354 0.071,0.14147 0.071,0.24757 l -0.1061,0.70734 c 0,0.38904 -0.035,0.5305 -0.1768,0.7427 l -0.2476,0.35367 0,1.13174 c 0,1.09638 0,1.09638 -0.2122,1.76835 -0.2476,0.8488 -0.3183,1.13174 -0.1768,1.3793 0.1202,0.32538 1.0963,1.62688 1.6976,2.26348 0.7073,0.74978 1.3793,1.13174 2.0512,1.13174 0.4598,0 0.7074,-0.1061 1.1672,-0.48806 0.5658,-0.45977 1.1671,-0.76392 1.4854,-0.76392 0.1414,0 0.4597,0.0354 0.6719,0.1061 l 0.8135,0.2122 c 0.6012,0.17683 0.8841,0.38903 1.2732,0.99027 0.4244,0.66136 0.6719,0.91954 0.8488,0.91954 0.1414,0 0.2476,-0.1061 0.8488,-0.95491 0.2476,-0.3183 0.4951,-0.60123 0.7781,-0.81343 0.5658,-0.42441 0.6366,-0.56587 0.6366,-1.16711 0,-0.24757 0.035,-0.5305 0.053,-0.60124 0.1415,-0.35367 0.9196,-1.02564 1.2025,-1.02564 0.071,0 0.2476,0.0354 0.3713,0.1061 0.3183,0.14854 0.3891,0.14147 0.4598,-0.0354 0.1061,-0.17684 0.2122,-0.2405 0.7073,-0.28294 0.4952,-0.0707 0.7074,-0.16622 1.0611,-0.45977 0.3041,-0.24757 0.5552,-0.38903 0.9195,-0.48099 0.1415,-0.0354 0.389,-0.2122 0.6896,-0.45977 0.5305,-0.45977 0.7427,-0.49513 1.061,-0.2122 0.3184,0.28294 0.1769,0.63661 -0.3536,0.81344 -0.5305,0.14147 -0.6366,0.49514 -0.3891,1.16711 0.1415,0.38903 0.1415,0.4244 -0.2475,1.09637 -0.2476,0.38904 -0.3183,0.56587 -0.3183,0.81344 -0.035,0.28293 -0.035,0.3183 0.2122,0.56587 0.4244,0.49513 0.9549,0.6366 1.2378,0.38903 0.2476,-0.2122 0.2122,-0.5305 -0.1061,-1.3793 -0.3183,-0.81344 -0.3183,-0.99028 -0.1061,-1.23784 0.1769,-0.24757 0.3183,-0.31831 1.2379,-0.70734 l 0.6719,-0.3183 0,-0.42441 c 0.035,-0.38903 0.035,-0.4244 0.1769,-0.45977 0.2122,-0.0707 0.4244,0.0354 0.6012,0.31831 0.2122,0.38903 0.389,0.49513 0.7781,0.49513 0.6366,0 1.0963,0.38904 1.0963,0.99027 0,0.31831 0.1061,0.53051 0.3183,0.63661 0.283,0.1061 0.9196,0.1061 1.3794,-0.0354 0.6012,-0.2122 0.778,-0.17683 1.6976,0.38904 0.3183,0.17683 0.6719,0.35367 0.8134,0.38903 0.2476,0.0707 0.2829,0.0707 0.9195,-0.24757 1.1318,-0.49513 2.1928,-0.8488 2.7587,-0.8488 0.389,0 0.8488,0.1061 0.9902,0.2122 0.1061,0.1061 0.1061,0.1061 0.035,0.17684 -0.071,0.0354 -0.1415,0.0707 -0.2122,0.0707 -0.2122,0 -0.4244,0.2122 -0.4244,0.4244 0,0.28294 0.1415,0.35367 0.9903,0.5305 1.1671,0.21221 1.5561,0.38904 1.5561,0.74271 0,0.14147 -0.1768,0.49514 -0.389,0.88417 -0.2476,0.38904 -0.2122,0.38904 0.778,0.4244 1.0964,0.0354 1.4855,0.14147 1.9452,0.56587 0.1769,0.17684 0.4952,0.38904 0.7427,0.53051 0.6013,0.3183 0.7074,0.45977 0.7074,0.77807 0,0.49513 0.2475,0.77807 0.7427,0.88417 0.1061,0.0354 0.3536,0.24757 0.6719,0.60124 0.283,0.3183 0.5659,0.59416 0.6366,0.60123 0.071,0.0354 0.2476,-0.0141 0.4244,-0.1061 0.3891,-0.21927 0.5659,-0.2122 0.8842,0.099 0.2122,0.24757 0.2829,0.24757 0.5659,0.24757 0.1415,0 0.4951,-0.0354 0.7781,-0.1061 0.7073,-0.14147 1.061,-0.14147 1.7329,0.13085 0.3183,0.10611 0.8842,0.31831 1.2732,0.42441 0.3537,0.1061 0.7781,0.28293 0.9196,0.38903 0.1414,0.0849 0.5658,0.47392 0.9549,0.84881 0.389,0.38903 0.7781,0.77807 0.8842,0.8488 0.2829,0.19098 0.4244,0.49514 0.6366,1.46065 0.2122,1.13174 0.389,1.41468 0.8488,1.80372 1.061,0.81343 1.061,0.81343 0.6366,1.66224 -0.3183,0.6366 -0.6366,1.13174 -0.9196,1.34394 -0.1061,0.0707 -0.2829,0.14147 -0.4244,0.17683 -0.389,0.0707 -0.6719,0.38904 -0.6719,0.74271 0,0.28293 0.389,0.6366 0.5658,0.5305 0.035,-0.0354 0.1061,-0.22281 0.1769,-0.45977 0.1061,-0.47038 0.3183,-0.70734 0.6719,-0.81344 0.7074,-0.17683 2.2281,0.1061 2.6525,0.49514 0.2122,0.2122 0.2122,0.35367 -0.071,0.88417 -0.2122,0.38904 -0.6366,0.91954 -1.0964,1.27321 -0.2122,0.17683 -0.2122,0.28293 0,0.4244 0.1415,0.1061 0.1415,0.1061 0.3537,0 0.1061,-0.0707 0.2476,-0.2122 0.3537,-0.38903 0.3183,-0.53051 0.2829,-0.53051 0.7073,-0.53051 l 0.3537,0 0.035,-0.35367 c 0.1414,-1.21308 0.8841,-1.24845 3.2891,-0.17683 1.3439,0.60124 2.122,1.09637 2.2988,1.48541 0.1061,0.17683 0.1061,0.2122 0,0.49513 -0.035,0.17684 -0.1415,0.42441 -0.2122,0.60124 -0.2829,0.63661 -0.1415,0.70734 0.5659,0.17684 0.9903,-0.70734 1.1317,-0.74271 2.122,-0.31831 0.389,0.14147 0.8134,0.31831 0.9903,0.38904 0.389,0.14147 1.0256,0.1061 1.4854,0 0.4597,-0.1061 1.3793,-0.1061 1.8391,0 0.4597,0.1061 0.9902,0.38904 1.3793,0.67197 0.1768,0.1061 0.6719,0.56587 1.1317,1.02564 0.8842,0.88417 1.45,1.27321 2.1928,1.52078 0.389,0.14146 0.4951,0.15915 1.0963,0.14146 0.3537,0 0.7427,0 0.8135,0.0354 0.2475,0.0707 0.389,0.40672 0.6719,1.52077 0.3183,1.2626 0.3891,1.94518 0.3537,2.58179 -0.1061,1.13174 -0.8134,2.61715 -1.7683,3.67815 -0.283,0.35367 -0.4244,0.4244 -1.061,0.67197 -0.4952,0.17684 -0.7074,0.45977 -1.0964,1.48541 -0.7074,1.80371 -1.061,2.12201 -1.6623,1.66224 -0.2122,-0.17683 -0.2829,-0.17683 -0.389,-0.13085 -0.2476,0.1061 -0.2476,0.24756 -0.035,0.44562 0.2122,0.2122 0.2122,0.28293 0,0.60124 -0.3183,0.45977 -0.3536,1.02564 -0.2122,3.89035 0.035,0.63661 0.035,0.77807 -0.1061,1.30858 -0.1414,0.5305 -0.1768,0.67197 -0.1414,1.13174 0.035,0.6366 0.035,0.70733 -0.3891,0.99027 -0.1768,0.1061 -0.3183,0.24757 -0.3536,0.3183 -0.071,0.36074 -0.2476,1.73298 -0.2476,1.90981 0,0.28294 -0.1061,0.49514 -0.2829,0.60124 -0.2122,0.14147 -0.2476,0.19452 -0.4598,0.88417 -0.1061,0.45977 -0.1768,0.56587 -0.4598,0.86649 -0.389,0.43501 -0.4951,0.6366 -0.5305,1.23784 -0.071,0.7427 -0.1415,0.8488 -0.672,0.91954 -0.4951,0.0707 -0.7427,0.35367 -0.8134,0.88417 -0.071,0.38904 -0.1768,0.4244 -0.8842,0.45977 -0.3536,0 -1.0256,-0.0354 -1.5207,-0.0707 -1.1671,-0.14147 -1.2379,-0.10611 -1.7684,0.38903 -0.2476,0.2122 -0.5305,0.4244 -0.672,0.49514 -0.1768,0.0707 -0.3536,0.2122 -0.4597,0.28293 -0.1061,0.14147 -0.2122,0.17684 -0.4244,0.2122 -1.0964,0.14147 -1.344,0.24757 -2.1928,1.09638 -0.8488,0.8488 -1.3085,1.1671 -1.6269,1.23784 -0.2475,0.0354 -0.2829,0.1061 -0.3536,0.5305 0,0.14854 -0.1061,0.4244 -0.1769,0.60124 -0.1414,0.28293 -0.1414,0.35367 -0.1061,0.9549 0,0.38904 0.071,0.99027 0.1061,1.34394 0.071,0.74271 0,1.55615 -0.1414,1.83908 -0.071,0.14147 -0.1769,0.2122 -0.4598,0.3183 -0.5517,0.2122 -0.8488,0.60124 -1.4854,1.94518 -0.8134,1.69761 -1.1317,2.15738 -1.8744,2.72325 -0.336,0.24757 -0.5659,0.35367 -0.5659,0.2122 0,-0.0354 0.2122,-0.3183 0.4598,-0.6366 0.5305,-0.70734 0.7427,-1.13174 0.7073,-1.41468 -0.035,-0.17683 -0.035,-0.2122 -0.2122,-0.2122 -0.2476,-0.0354 -0.7073,0.2122 -0.8134,0.4244 -0.035,0.1061 -0.071,0.31831 -0.071,0.48099 0,0.35367 -0.1414,0.67197 -0.389,0.88418 -0.2476,0.24756 -0.3608,0.49513 -0.4598,0.9549 -0.049,0.24757 -0.1768,0.60124 -0.2476,0.77807 -0.078,0.2122 -0.2122,0.53051 -0.2829,0.74271 -0.1768,0.5305 -0.389,0.81343 -0.7781,1.1671 -0.4244,0.31831 -0.6719,0.60124 -1.0963,1.20248 -0.4598,0.60123 -0.7427,0.91954 -1.1671,1.12466 -0.3183,0.15915 -0.3891,0.16976 -1.344,0.17684 -0.5659,0 -1.1317,0.0354 -1.2378,0.0531 -0.1769,0.0354 -0.3537,0 -0.9196,-0.24757 -0.5658,-0.24757 -0.7427,-0.28293 -1.2024,-0.3183 -0.3891,0 -0.5659,-0.0707 -0.672,-0.14147 -0.3537,-0.24757 -0.389,-0.24757 -0.5659,-0.17683 -0.2122,0.1061 -0.2829,0.24756 -0.2829,0.4244 0,0.3183 0.3537,0.56587 1.0893,0.70734 0.5659,0.1061 0.8842,0.3183 0.9549,0.5305 0.035,0.14147 0.035,0.2122 -0.1415,0.5305 -0.3289,0.63661 -0.2122,1.02564 0.3537,1.20248 0.4244,0.14146 0.672,0.35366 0.672,0.6366 0,0.24757 -0.1769,0.5305 -0.7569,1.27321 -0.2122,0.28293 -0.4951,0.70733 -0.5659,0.91954 -0.2829,0.60123 -0.7427,0.91953 -1.8037,1.28735 -1.0256,0.33599 -2.8293,0.6366 -3.9964,0.6366 -0.6013,0 -0.7427,0 -0.8842,-0.1061 -0.4951,-0.3183 -0.7781,0.28294 -0.389,0.95491 0.1061,0.17683 0.1768,0.35367 0.1768,0.38903 0,0.0354 -0.1061,0.19099 -0.2476,0.33245 -0.3183,0.3183 -0.389,0.49514 -0.2475,1.02564 0.035,0.2405 0.1061,0.45977 0.1061,0.49514 0,0.17683 -0.4244,0.5588 -0.7427,0.67197 -0.7427,0.28293 -1.2025,0.2122 -2.3342,-0.25818 -0.7074,-0.3183 -0.9196,-0.3183 -1.0257,-0.14147 -0.1415,0.17684 -0.1415,0.70734 0,1.09638 0.035,0.17683 0.1061,0.5305 0.1061,0.81343 0.035,0.38904 0.06,0.49514 0.1556,0.56587 0.035,0.0354 0.2476,0.14147 0.3891,0.24757 0.3183,0.2122 0.4244,0.2122 0.7427,-0.0707 0.2475,-0.2122 0.3536,-0.2122 0.6012,-0.1061 0.4244,0.24757 0.3537,0.77807 -0.1768,1.09637 -0.283,0.17684 -0.4244,0.17684 -0.672,-0.1061 -0.1768,-0.19098 -0.2476,-0.24757 -0.4244,-0.24757 -0.4598,0 -0.5659,0.35367 -0.1768,0.56587 0.1414,0.0707 0.2475,0.16623 0.2475,0.20513 0,0.1061 -0.2122,0.24757 -0.5658,0.35367 -0.3183,0.0707 -0.3537,0.1061 -0.4598,0.35367 -0.1061,0.2122 -0.1415,0.45977 -0.1768,1.02564 -0.035,0.80283 -0.071,0.88417 -0.3537,1.1671 -0.1061,0.1061 -0.1768,0.21221 -0.1768,0.31831 0,0.24756 -0.1061,0.45977 -0.2476,0.49513 l -0.4951,0.0955 c -0.8489,0.14147 -1.5916,0.67197 -1.9099,1.41468 -0.1414,0.3183 -0.1768,0.41379 -0.1414,0.67197 0.035,0.38903 0.2122,0.70734 0.4951,1.02564 0.389,0.38903 0.672,0.5305 1.2732,0.60123 0.6366,0.0707 0.8135,0.14147 0.8842,0.28294 0.035,0.0707 -0.035,0.35367 -0.1061,0.67197 -0.071,0.3183 -0.1415,0.6366 -0.1415,0.7427 0.035,0.35367 0.035,0.35367 -0.9549,1.06101 -0.8134,0.59063 -1.3439,1.08576 -1.5561,1.41468 -0.071,0.14146 -0.1769,0.44915 -0.2122,0.77807 -0.1061,0.70733 -0.3891,1.09637 -0.8135,1.09637 -0.071,0 -0.2122,0.0354 -0.2475,0.0707 -0.2122,0.1061 -0.8488,0.81344 -0.8842,0.95491 -0.035,0.24757 0.035,1.37931 0.1061,1.90981 0.071,0.41379 0.1415,0.49514 0.4951,0.97966 0.2122,0.28294 0.3891,0.54112 0.3891,0.56587 0,0.0354 -0.035,0.1061 -0.071,0.14147 -0.071,0.0707 -0.1768,0.0707 -0.5305,-0.0354 -0.5658,-0.17683 -0.8134,-0.17683 -0.9195,0 -0.1061,0.17684 -0.1061,0.38904 0.1061,0.53051 0.1061,0.0707 0.2829,0.1061 0.7073,0.14146 0.5305,0.0354 0.5659,0.0354 0.7781,0.21221 0.3183,0.3183 0.3183,0.4244 0,0.70733 -0.389,0.35367 -0.3537,0.60124 0.035,0.53051 0.1768,-0.0354 0.3183,0.0707 0.4244,0.35366 0.1414,0.35367 2.0159,1.90982 2.6879,2.22812 0.1414,0.0707 0.4951,0.14146 0.8134,0.17683 0.6366,0.0707 0.8488,0.14147 0.8134,0.28294 -0.035,0.17683 -0.389,0.3183 -1.061,0.4244 -0.4774,0.0707 -0.7073,0.14147 -0.8665,0.24757 -0.2475,0.17683 -0.3183,0.17683 -0.6366,0.0707 -0.2122,-0.0707 -0.2122,-0.0637 -0.3536,0.14147 -0.1769,0.24757 -0.3891,0.24757 -1.061,0.0354 -0.4421,-0.14147 -0.8135,-0.17684 -0.8135,-0.10611 0,0.0354 0.1061,0.17684 0.2122,0.31831 0.3891,0.56587 0.4244,0.8488 0.1415,0.8488 -0.1061,0 -0.283,-0.14147 -0.7074,-0.60124 z m -33.2095,-93.62672 c -0.6932,-0.37136 -0.8488,-1.29797 -0.2829,-1.75066 0.2016,-0.16269 0.237,-0.15915 0.4527,0.0813 0.3077,0.32891 0.4845,1.20955 0.3183,1.542 -0.1273,0.2122 -0.2263,0.24756 -0.4881,0.1061 z m 43.8762,-16.93366 c -0.057,-0.0566 -0.078,-0.14147 -0.057,-0.19452 0.092,-0.22281 0.096,-0.3183 0.035,-0.45977 -0.071,-0.14147 -0.071,-0.16269 0.035,-0.24049 0.1415,-0.1061 0.4704,-0.19806 0.7144,-0.2016 0.3537,0 0.6862,0.48807 0.5447,0.80637 -0.046,0.1061 -0.1662,0.17683 -0.4492,0.26525 -0.4668,0.14854 -0.6861,0.15208 -0.8134,0.0248 z"
       id="path4" />
    <path
       inkscape:connector-curvature="0"
       style="fill:none;stroke:#ff0000;stroke-width:0.87432319;stroke-linecap:round;stroke-linejoin:bevel"
       d="m -1832.7395,-211.00344 c 0,3.0708 -2.3689,5.5602 -5.2913,5.5602 -2.922,0 -5.2916,-2.48696 -5.2916,-5.55681 0,-3.06984 2.3689,-5.5568 5.2913,-5.5568 2.9227,0 5.2916,2.49181 5.2916,5.56165 z"
       id="path4736" />
    <path
       inkscape:connector-curvature="0"
       style="fill:none;stroke:#ff0000;stroke-width:0.87432319;stroke-linecap:round;stroke-linejoin:bevel"
       d="m -1834.9804,-211.16376 c 0,1.77294 -1.3726,3.20976 -3.0659,3.20976 -1.6927,0 -3.0649,-1.43682 -3.0649,-3.20926 0,-1.77195 1.3722,-3.20877 3.0649,-3.20877 1.6933,0 3.0659,1.43777 3.0659,3.20587 z"
       id="path4738" />
  </g>
</svg>
