<?xml version="1.0" encoding="UTF-8" standalone="no"?>
<!-- Created with Inkscape (http://www.inkscape.org/) -->

<svg
   xmlns:dc="http://purl.org/dc/elements/1.1/"
   xmlns:cc="http://creativecommons.org/ns#"
   xmlns:rdf="http://www.w3.org/1999/02/22-rdf-syntax-ns#"
   xmlns:svg="http://www.w3.org/2000/svg"
   xmlns="http://www.w3.org/2000/svg"
   xmlns:sodipodi="http://sodipodi.sourceforge.net/DTD/sodipodi-0.dtd"
   xmlns:inkscape="http://www.inkscape.org/namespaces/inkscape"
   width="24.299809"
   height="23.981884"
   viewBox="0 0 24.299809 23.981883"
   id="svg4159"
   version="1.1"
   inkscape:version="0.91 r13725"
   sodipodi:docname="ELSZ.svg">
  <defs
     id="defs4161" />
  <sodipodi:namedview
     id="base"
     pagecolor="#ffffff"
     bordercolor="#666666"
     borderopacity="1.0"
     inkscape:pageopacity="0.0"
     inkscape:pageshadow="2"
     inkscape:zoom="26.265587"
     inkscape:cx="6.5339273"
     inkscape:cy="10.052052"
     inkscape:document-units="px"
     inkscape:current-layer="layer1"
     showgrid="false"
     fit-margin-top="0"
     fit-margin-left="0"
     fit-margin-right="0"
     fit-margin-bottom="-10"
     units="px"
     inkscape:window-width="1858"
     inkscape:window-height="1058"
     inkscape:window-x="54"
     inkscape:window-y="-8"
     inkscape:window-maximized="1" />
  <metadata
     id="metadata4164">
    <rdf:RDF>
      <cc:Work
         rdf:about="">
        <dc:format>image/svg+xml</dc:format>
        <dc:type
           rdf:resource="http://purl.org/dc/dcmitype/StillImage" />
        <dc:title></dc:title>
      </cc:Work>
    </rdf:RDF>
  </metadata>
  <g
     inkscape:label="Layer 1"
     inkscape:groupmode="layer"
     id="layer1"
     transform="translate(1066.4368,358.89915)">
    <path
       inkscape:connector-curvature="0"
       style="fill:#ffffff;stroke:#000000;stroke-width:0.30000001;stroke-miterlimit:4;stroke-dasharray:none"
       d="m -1056.7213,-325.19923 c -0.166,-0.176 -0.203,-0.196 -0.256,-0.136 -0.022,0.025 -0.026,0.048 -0.018,0.093 0.01,0.057 0.01,0.06 -0.035,0.06 -0.06,0 -0.17,-0.056 -0.22,-0.117 -0.02,-0.03 -0.06,-0.106 -0.07,-0.17 -0.02,-0.063 -0.04,-0.12 -0.05,-0.123 -0.06,-0.022 -0.11,0.076 -0.11,0.21 0,0.083 -0.01,0.115 -0.05,0.115 -0.03,0 -0.07,-0.06 -0.09,-0.168 -0.04,-0.19 -0.09,-0.23 -0.25,-0.214 -0.05,0.005 -0.1,0.015 -0.11,0.02 -0.03,0.013 -0.08,-0.035 -0.08,-0.085 0,-0.05 0.07,-0.11 0.14,-0.11 0.03,0 0.06,-0.006 0.08,-0.015 0.02,-0.013 0.02,-0.02 0,-0.058 -0.03,-0.05 -0.03,-0.13 -0.01,-0.16 0.04,-0.042 0.1,-0.02 0.2,0.074 0.14,0.13 0.19,0.118 0.13,-0.03 -0.05,-0.126 -0.02,-0.232 0.07,-0.232 0.05,0 0.07,0.035 0.09,0.177 0.02,0.14 0.04,0.17 0.09,0.17 0.08,0 0.1,-0.08 0.04,-0.17 -0.06,-0.11 -0.03,-0.18 0.1,-0.22 0.12,-0.04 0.15,-0.09 0.07,-0.13 -0.03,-0.02 -0.06,-0.02 -0.13,0.01 -0.13,0.04 -0.17,0.03 -0.23,-0.04 -0.09,-0.1 -0.07,-0.17 0.06,-0.22 0.08,-0.04 0.19,-0.14 0.19,-0.19 0,-0.03 -0.01,-0.04 -0.05,-0.04 -0.07,0 -0.25,0.08 -0.33,0.15 -0.09,0.08 -0.11,0.14 -0.1,0.28 0.01,0.08 0,0.13 -0.02,0.16 -0.06,0.12 -0.17,0.16 -0.31,0.12 -0.1,-0.03 -0.16,-0.02 -0.18,0.05 0,0.03 0,0.05 0.03,0.07 0.02,0.02 0.05,0.03 0.06,0.03 0.01,0 0.03,0.01 0.04,0.02 0.01,0.02 0.01,0.03 -0.03,0.08 -0.03,0.02 -0.06,0.05 -0.07,0.05 -0.02,0 -0.06,-0.04 -0.11,-0.08 -0.12,-0.1 -0.14,-0.11 -0.28,-0.11 -0.12,0 -0.13,0 -0.18,-0.06 -0.07,-0.08 -0.12,-0.18 -0.12,-0.23 0.01,-0.06 0.08,-0.06 0.25,0 0.09,0.03 0.18,0.05 0.21,0.05 0.05,-0.01 0.06,-0.01 0.07,-0.08 0.02,-0.1 0.06,-0.16 0.11,-0.19 0.04,-0.02 0.05,-0.02 0.11,0.01 0.08,0.04 0.11,0.04 0.2,0 0.08,-0.04 0.13,-0.11 0.11,-0.16 -0.02,-0.08 -0.06,-0.09 -0.21,-0.01 -0.11,0.05 -0.16,0.07 -0.26,0.07 -0.09,0.01 -0.14,0.02 -0.18,0.05 -0.03,0.02 -0.06,0.05 -0.06,0.06 0,0.02 -0.09,0.06 -0.14,0.05 -0.06,-0.02 -0.08,-0.05 -0.05,-0.09 0.02,-0.02 0.03,-0.06 0.04,-0.09 0.01,-0.07 0.09,-0.15 0.15,-0.17 0.02,-0.01 0.06,0 0.09,0.02 0.03,0.01 0.07,0.02 0.09,0.02 0.05,0 0.16,-0.05 0.18,-0.08 0.01,-0.01 0.05,-0.02 0.1,-0.02 0.11,0 0.14,-0.01 0.14,-0.05 0,-0.08 -0.2,-0.13 -0.41,-0.12 -0.15,0.01 -0.18,0.02 -0.29,0.12 -0.09,0.09 -0.14,0.11 -0.2,0.08 -0.04,-0.02 -0.09,-0.12 -0.08,-0.18 0.02,-0.08 0.07,-0.1 0.2,-0.1 0.31,0 0.43,-0.14 0.24,-0.26 -0.09,-0.07 -0.15,-0.06 -0.18,0.04 -0.03,0.1 -0.08,0.11 -0.13,0.02 l -0.03,-0.06 -0.11,0.01 c -0.06,0.01 -0.11,0.01 -0.11,0 -0.01,-0.03 0.08,-0.12 0.17,-0.17 0.1,-0.06 0.12,-0.11 0.05,-0.15 -0.04,-0.03 -0.05,-0.03 -0.12,0 -0.07,0.03 -0.09,0.03 -0.14,0 -0.08,-0.03 -0.09,-0.03 -0.16,0.02 -0.03,0.02 -0.07,0.04 -0.08,0.04 -0.04,0 -0.04,-0.07 -0.01,-0.14 0.03,-0.07 0.03,-0.08 0.01,-0.11 -0.04,-0.06 -0.04,-0.06 0.04,-0.08 0.05,-0.02 0.07,-0.03 0.07,-0.07 0.01,-0.03 0.04,-0.07 0.07,-0.1 0.03,-0.03 0.05,-0.07 0.05,-0.09 0,-0.07 0.07,-0.33 0.11,-0.41 0.05,-0.09 0.05,-0.15 0.01,-0.19 -0.04,-0.04 -0.1,-0.03 -0.14,0.04 -0.03,0.05 -0.04,0.08 -0.03,0.17 0,0.13 -0.03,0.16 -0.12,0.15 -0.05,0 -0.06,-0.01 -0.08,-0.06 -0.02,-0.05 -0.03,-0.06 -0.07,-0.06 -0.03,0 -0.06,-0.01 -0.08,-0.03 -0.05,-0.06 -0.03,-0.1 0.06,-0.19 0.05,-0.04 0.11,-0.12 0.14,-0.16 0.04,-0.07 0.08,-0.1 0.12,-0.11 0.08,-0.03 0.12,-0.07 0.12,-0.12 0,-0.13 -0.08,-0.14 -0.17,-0.04 -0.05,0.07 -0.15,0.13 -0.21,0.13 -0.02,0 -0.04,-0.02 -0.06,-0.05 -0.01,-0.03 -0.05,-0.08 -0.07,-0.11 -0.04,-0.05 -0.05,-0.06 -0.03,-0.1 0.02,-0.05 0.14,-0.14 0.21,-0.15 0.03,-0.01 0.08,0 0.13,0.01 0.1,0.03 0.12,0.02 0.19,-0.05 0.05,-0.04 0.06,-0.05 0.11,-0.04 0.03,0 0.08,0.03 0.12,0.06 0.08,0.06 0.11,0.05 0.11,-0.02 0,-0.1 -0.07,-0.14 -0.22,-0.11 -0.2,0.04 -0.24,0.01 -0.23,-0.12 0.01,-0.1 0.05,-0.16 0.12,-0.19 0.05,-0.02 0.06,-0.03 0.06,-0.09 0,-0.05 -0.01,-0.08 -0.04,-0.11 -0.04,-0.04 -0.09,-0.04 -0.19,-0.01 -0.03,0.01 -0.04,0 -0.07,-0.03 -0.07,-0.08 -0.09,-0.1 -0.13,-0.1 -0.04,0 -0.09,0.04 -0.09,0.09 0,0.04 -0.05,0.05 -0.08,0.02 -0.05,-0.06 0.02,-0.18 0.17,-0.28 0.05,-0.03 0.09,-0.06 0.09,-0.06 0,-0.01 -0.01,-0.03 -0.02,-0.05 -0.02,-0.02 -0.02,-0.06 -0.02,-0.09 0,-0.05 0.04,-0.08 0.18,-0.14 0.04,-0.02 0.05,-0.03 0.08,-0.11 0.01,-0.02 0.04,-0.03 0.1,-0.03 0.14,-0.01 0.15,-0.06 0.04,-0.2 -0.1,-0.13 -0.11,-0.15 -0.08,-0.18 0.03,-0.04 0.09,-0.04 0.15,0.01 0.06,0.06 0.1,0.13 0.1,0.2 0,0.05 -0.02,0.08 -0.11,0.18 -0.06,0.07 -0.11,0.13 -0.11,0.14 0,0.05 0.17,0.19 0.23,0.19 0.01,0 0.03,-0.02 0.05,-0.04 0.02,-0.04 0.02,-0.05 -0.02,-0.13 -0.02,-0.05 -0.03,-0.1 -0.03,-0.12 0.01,-0.03 0.07,-0.06 0.16,-0.07 0.04,-0.01 0.07,-0.02 0.07,-0.04 0,-0.02 -0.01,-0.07 -0.03,-0.11 -0.05,-0.11 -0.05,-0.16 -0.01,-0.19 0.03,-0.02 0.03,-0.04 0.03,-0.15 -0.01,-0.07 -0.01,-0.16 -0.02,-0.2 -0.01,-0.06 0,-0.09 0.03,-0.15 0.03,-0.07 0.04,-0.11 0.04,-0.22 0,-0.13 0,-0.14 0.06,-0.24 l 0.067,-0.11 -0.02,-0.11 c -0.02,-0.14 -0.02,-0.17 0.05,-0.22 0.06,-0.04 0.06,-0.1 0.01,-0.15 -0.02,-0.02 -0.05,-0.03 -0.06,-0.04 -0.01,0 -0.02,-0.03 -0.03,-0.07 -0.01,-0.05 -0.02,-0.07 -0.05,-0.07 -0.042,0 -0.094,0.04 -0.1,0.09 -0.01,0.02 -0.03,0.044 -0.05,0.06 -0.08,0.04 -0.08,0.06 -0.1,0.36 -0.01,0.38 -0.02,0.41 -0.17,0.43 -0.11,0.02 -0.16,-0.017 -0.16,-0.11 0,-0.106 0.05,-0.398 0.08,-0.498 0.03,-0.09 0.06,-0.13 0.13,-0.15 0.07,-0.02 0.08,-0.06 0.045,-0.19 -0.04,-0.134 -0.05,-0.25 -0.01,-0.353 0.01,-0.04 0.03,-0.13 0.04,-0.2 0.01,-0.08 0.03,-0.16 0.07,-0.24 0.12,-0.26 0.14,-0.4 0.06,-0.56 -0.05,-0.11 -0.05,-0.12 -0.05,-0.31 0.01,-0.16 0,-0.21 -0.023,-0.295 -0.06,-0.18 -0.04,-0.26 0.07,-0.29 0.06,-0.01 0.09,-0.05 0.13,-0.17 0.02,-0.05 0.09,-0.23 0.16,-0.39 0.15,-0.36 0.185,-0.47 0.23,-0.69 0.014,-0.09 0.06,-0.22 0.09,-0.3 0.05,-0.11 0.06,-0.15 0.06,-0.25 0,-0.1 0,-0.12 0.04,-0.18 0.04,-0.06 0.044,-0.09 0.06,-0.29 0.01,-0.12 0.01,-0.34 0,-0.49 -0.02,-0.45 -0.025,-0.42 0.06,-0.56 0.05,-0.08 0.08,-0.14 0.08,-0.18 0,-0.036 -0.04,-0.13 -0.09,-0.24 -0.05,-0.1 -0.09,-0.19 -0.09,-0.206 0,-0.01 0.03,-0.06 0.07,-0.11 0.1,-0.11 0.14,-0.2 0.14,-0.33 0,-0.06 0.01,-0.14 0.04,-0.2 0.04,-0.11 0.06,-0.16 0.16,-0.6 0.09,-0.42 0.11,-0.51 0.11,-0.84 0,-0.24 0,-0.28 0.03,-0.33 l 0.03,-0.06 -0.04,-0.06 c -0.05,-0.06 -0.05,-0.11 -0.01,-0.24 0.02,-0.05 0.06,-0.21 0.09,-0.34 l 0.06,-0.24 0,-0.45 c 0,-0.37 0,-0.47 -0.03,-0.58 -0.02,-0.09 -0.03,-0.18 -0.023,-0.31 0,-0.1 0,-0.19 -0.01,-0.19 0,0 -0.07,-0.04 -0.14,-0.09 -0.17,-0.1 -0.28,-0.2 -0.37,-0.31 -0.13,-0.16 -0.38,-0.33 -1.03,-0.67 -0.39,-0.21 -0.49,-0.274 -0.74,-0.49 -0.23,-0.19 -0.28,-0.27 -0.27,-0.41 l 0,-0.14 c 0,-0.08 -0.08,-0.24 -0.24,-0.47 -0.25,-0.36 -0.553,-0.97 -0.75,-1.52 -0.09,-0.24 -0.13,-0.32 -0.22,-0.43 -0.04,-0.05 -0.12,-0.17 -0.18,-0.26 -0.15,-0.25 -0.192,-0.29 -0.4,-0.43 -0.22,-0.14 -0.3,-0.22 -0.28,-0.27 0.01,-0.02 0.03,-0.04 0.06,-0.04 0.028,-0.008 0.05,-0.02 0.06,-0.03 0,-0.01 -0.03,-0.117 -0.08,-0.23 -0.11,-0.26 -0.114,-0.338 -0.03,-0.477 0.08,-0.13 0.2,-0.26 0.284,-0.28 l 0.12,-0.03 c 0.09,-0.03 0.16,-0.16 0.12,-0.23 -0.02,-0.03 -0.03,-0.04 -0.08,-0.03 -0.05,0.01 -0.07,0 -0.21,-0.1 -0.096,-0.07 -0.15,-0.13 -0.15,-0.14 0,-0.02 0.01,-0.06 0.02,-0.09 0.03,-0.09 0.03,-0.14 -0.01,-0.23 -0.05,-0.12 -0.03,-0.18 0.09,-0.27 0.05,-0.04 0.09,-0.09 0.09,-0.1 0,-0.09 0.04,-0.17 0.126,-0.26 0.08,-0.09 0.09,-0.096 0.09,-0.19 0,-0.11 0.02,-0.21 0.05,-0.235 0.01,-0.01 0.07,-0.03 0.13,-0.04 0.11,-0.017 0.21,-0.06 0.23,-0.1 0.01,-0.01 0.02,-0.07 0.02,-0.12 0.01,-0.08 0.02,-0.11 0.06,-0.15 0.023,-0.03 0.06,-0.08 0.07,-0.12 0.03,-0.1 0.085,-0.156 0.163,-0.17 0.1,-0.01 0.19,-0.07 0.24,-0.13 0.06,-0.08 0.2,-0.36 0.22,-0.42 0,-0.03 -0.01,-0.07 -0.04,-0.12 -0.05,-0.09 -0.1,-0.29 -0.1,-0.47 0,-0.12 0,-0.15 0.03,-0.19 0.04,-0.056 0.05,-0.1 0.01,-0.19 0.01,0.04 0,-0.02 0,-0.07 0,-0.13 -0.04,-0.19 -0.24,-0.4 -0.25,-0.25 -0.28,-0.32 -0.21,-0.44 0.04,-0.07 0.04,-0.11 0,-0.17 -0.067,-0.08 -0.156,-0.12 -0.297,-0.11 -0.15,0.01 -0.24,0.06 -0.3,0.16 -0.02,0.05 -0.06,0.09 -0.12,0.12 -0.11,0.07 -0.12,0.1 -0.04,0.19 0.03,0.04 0.06,0.08 0.07,0.09 0.02,0.08 -0.12,0.204 -0.22,0.204 -0.05,0 -0.07,-0.01 -0.11,-0.07 -0.04,-0.05 -0.08,-0.07 -0.14,-0.09 -0.06,-0.02 -0.12,-0.06 -0.18,-0.11 -0.16,-0.15 -0.33,-0.22 -0.58,-0.25 -0.09,-0.01 -0.18,-0.02 -0.2,-0.04 -0.06,-0.03 -0.09,-0.09 -0.09,-0.16 0,-0.12 -0.13,-0.26 -0.27,-0.28 -0.05,-0.01 -0.07,-0.03 -0.11,-0.08 -0.056,-0.09 -0.1,-0.11 -0.15,-0.08 -0.11,0.07 -0.105,0.07 -0.2,0.02 -0.11,-0.05 -0.16,-0.12 -0.16,-0.23 0,-0.05 0.01,-0.09 0.04,-0.13 0.075,-0.1 0.044,-0.24 -0.066,-0.32 -0.086,-0.06 -0.61,-0.61 -0.61,-0.64 0,-0.04 0.03,-0.07 0.1,-0.08 0.03,-0.01 0.08,-0.04 0.12,-0.07 0.05,-0.06 0.06,-0.06 0.05,-0.16 -0.01,-0.14 0.01,-0.16 0.23,-0.19 0.22,-0.04 0.3,-0.08 0.35,-0.18 0.04,-0.1 0.08,-0.12 0.27,-0.12 0.16,0 0.16,0 0.27,-0.07 0.14,-0.08 0.3,-0.14 0.33,-0.12 0.02,0.01 0.02,0.04 0.02,0.07 l -0.03,0.2 c 0,0.11 -0.01,0.15 -0.05,0.21 l -0.07,0.1 0,0.32 c 0,0.31 0,0.31 -0.06,0.5 -0.07,0.24 -0.09,0.32 -0.05,0.39 0.034,0.092 0.31,0.46 0.48,0.64 0.2,0.212 0.39,0.32 0.58,0.32 0.13,0 0.2,-0.03 0.33,-0.138 0.16,-0.13 0.33,-0.216 0.42,-0.216 0.04,0 0.13,0.01 0.19,0.03 l 0.23,0.06 c 0.17,0.05 0.25,0.11 0.36,0.28 0.12,0.187 0.19,0.26 0.24,0.26 0.04,0 0.07,-0.03 0.24,-0.27 0.07,-0.09 0.14,-0.17 0.22,-0.23 0.16,-0.12 0.18,-0.16 0.18,-0.33 0,-0.07 0.01,-0.15 0.015,-0.17 0.04,-0.1 0.26,-0.29 0.34,-0.29 0.02,0 0.07,0.01 0.105,0.03 0.09,0.042 0.11,0.04 0.13,-0.01 0.03,-0.05 0.06,-0.068 0.2,-0.08 0.14,-0.02 0.2,-0.047 0.3,-0.13 0.086,-0.07 0.157,-0.11 0.26,-0.136 0.04,-0.01 0.11,-0.06 0.195,-0.13 0.15,-0.13 0.21,-0.14 0.3,-0.06 0.09,0.08 0.05,0.18 -0.1,0.23 -0.15,0.04 -0.18,0.14 -0.11,0.33 0.04,0.11 0.04,0.12 -0.07,0.31 -0.07,0.11 -0.09,0.16 -0.09,0.23 -0.01,0.08 -0.01,0.09 0.06,0.16 0.12,0.14 0.27,0.18 0.35,0.11 0.07,-0.06 0.06,-0.15 -0.03,-0.39 -0.09,-0.23 -0.09,-0.28 -0.03,-0.35 0.05,-0.07 0.09,-0.09 0.35,-0.2 l 0.19,-0.09 0,-0.12 c 0.01,-0.11 0.01,-0.12 0.05,-0.13 0.06,-0.02 0.12,0.01 0.17,0.09 0.06,0.11 0.11,0.14 0.22,0.14 0.18,0 0.31,0.11 0.31,0.28 0,0.09 0.03,0.15 0.09,0.18 0.08,0.03 0.26,0.03 0.39,-0.01 0.17,-0.06 0.22,-0.05 0.48,0.11 0.09,0.05 0.19,0.1 0.23,0.11 0.07,0.02 0.08,0.02 0.26,-0.07 0.32,-0.14 0.62,-0.24 0.78,-0.24 0.11,0 0.24,0.03 0.28,0.06 0.03,0.03 0.03,0.03 0.01,0.05 -0.02,0.01 -0.04,0.02 -0.06,0.02 -0.06,0 -0.12,0.06 -0.12,0.12 0,0.08 0.04,0.1 0.28,0.15 0.33,0.06 0.44,0.11 0.44,0.21 0,0.04 -0.05,0.14 -0.11,0.25 -0.07,0.11 -0.06,0.11 0.22,0.12 0.31,0.01 0.42,0.04 0.55,0.16 0.05,0.05 0.14,0.11 0.21,0.15 0.17,0.09 0.2,0.13 0.2,0.22 0,0.14 0.07,0.22 0.21,0.25 0.03,0.01 0.1,0.07 0.19,0.17 0.08,0.09 0.16,0.168 0.18,0.17 0.02,0.01 0.07,-0.004 0.12,-0.03 0.11,-0.062 0.16,-0.06 0.25,0.028 0.06,0.07 0.08,0.07 0.16,0.07 0.04,0 0.14,-0.01 0.22,-0.03 0.2,-0.04 0.3,-0.04 0.49,0.037 0.09,0.03 0.25,0.09 0.36,0.12 0.1,0.03 0.22,0.08 0.26,0.11 0.04,0.024 0.16,0.134 0.27,0.24 0.11,0.11 0.22,0.22 0.25,0.24 0.08,0.054 0.12,0.14 0.18,0.413 0.06,0.32 0.11,0.4 0.24,0.51 0.3,0.23 0.3,0.23 0.18,0.47 -0.09,0.18 -0.18,0.32 -0.26,0.38 -0.03,0.02 -0.08,0.04 -0.12,0.05 -0.11,0.02 -0.19,0.11 -0.19,0.21 0,0.08 0.11,0.18 0.16,0.15 0.01,-0.01 0.03,-0.063 0.05,-0.13 0.03,-0.133 0.09,-0.2 0.19,-0.23 0.2,-0.05 0.63,0.03 0.75,0.14 0.06,0.06 0.06,0.1 -0.02,0.25 -0.06,0.11 -0.18,0.26 -0.31,0.36 -0.06,0.05 -0.06,0.08 0,0.12 0.04,0.03 0.04,0.03 0.1,0 0.03,-0.02 0.07,-0.06 0.1,-0.11 0.09,-0.15 0.08,-0.15 0.2,-0.15 l 0.1,0 0.01,-0.1 c 0.04,-0.343 0.25,-0.353 0.93,-0.05 0.38,0.17 0.6,0.31 0.65,0.42 0.03,0.05 0.03,0.06 0,0.14 -0.01,0.05 -0.04,0.12 -0.06,0.17 -0.08,0.18 -0.04,0.2 0.16,0.05 0.28,-0.2 0.32,-0.21 0.6,-0.09 0.11,0.04 0.23,0.09 0.28,0.11 0.11,0.04 0.29,0.03 0.42,0 0.13,-0.03 0.39,-0.03 0.52,0 0.13,0.03 0.28,0.11 0.39,0.19 0.05,0.03 0.19,0.16 0.32,0.29 0.25,0.25 0.41,0.36 0.62,0.43 0.11,0.04 0.14,0.045 0.31,0.04 0.1,0 0.21,0 0.23,0.01 0.07,0.02 0.11,0.115 0.19,0.43 0.09,0.357 0.11,0.55 0.1,0.73 -0.03,0.32 -0.23,0.74 -0.5,1.04 -0.08,0.1 -0.12,0.12 -0.3,0.19 -0.14,0.05 -0.2,0.13 -0.31,0.42 -0.2,0.51 -0.3,0.6 -0.47,0.47 -0.06,-0.05 -0.08,-0.05 -0.11,-0.037 -0.07,0.03 -0.07,0.07 -0.01,0.126 0.06,0.06 0.06,0.08 0,0.17 -0.09,0.13 -0.1,0.29 -0.06,1.1 0.01,0.18 0.01,0.22 -0.03,0.37 -0.04,0.15 -0.05,0.19 -0.04,0.32 0.01,0.18 0.01,0.2 -0.11,0.28 -0.05,0.03 -0.09,0.07 -0.1,0.09 -0.02,0.102 -0.07,0.49 -0.07,0.54 0,0.08 -0.03,0.14 -0.08,0.17 -0.06,0.04 -0.07,0.055 -0.13,0.25 -0.03,0.13 -0.05,0.16 -0.13,0.245 -0.11,0.123 -0.14,0.18 -0.15,0.35 -0.02,0.21 -0.04,0.24 -0.19,0.26 -0.14,0.02 -0.21,0.1 -0.23,0.25 -0.02,0.11 -0.05,0.12 -0.25,0.13 -0.1,0 -0.29,-0.01 -0.43,-0.02 -0.33,-0.04 -0.35,-0.03 -0.5,0.11 -0.07,0.06 -0.15,0.12 -0.19,0.14 -0.05,0.02 -0.1,0.06 -0.13,0.08 -0.03,0.04 -0.06,0.05 -0.12,0.06 -0.31,0.04 -0.38,0.07 -0.62,0.31 -0.24,0.24 -0.37,0.33 -0.46,0.35 -0.07,0.01 -0.08,0.03 -0.1,0.15 0,0.042 -0.03,0.12 -0.05,0.17 -0.04,0.08 -0.04,0.1 -0.03,0.27 0,0.11 0.02,0.28 0.03,0.38 0.02,0.21 0,0.44 -0.04,0.52 -0.02,0.04 -0.05,0.06 -0.13,0.09 -0.156,0.06 -0.24,0.17 -0.42,0.55 -0.23,0.48 -0.32,0.61 -0.53,0.77 -0.095,0.07 -0.16,0.1 -0.16,0.06 0,-0.01 0.06,-0.09 0.13,-0.18 0.15,-0.2 0.21,-0.32 0.2,-0.4 -0.01,-0.05 -0.01,-0.06 -0.06,-0.06 -0.07,-0.01 -0.2,0.06 -0.23,0.12 -0.01,0.03 -0.02,0.09 -0.02,0.136 0,0.1 -0.04,0.19 -0.11,0.25 -0.07,0.07 -0.102,0.14 -0.13,0.27 -0.014,0.07 -0.05,0.17 -0.07,0.22 -0.022,0.06 -0.06,0.15 -0.08,0.21 -0.05,0.15 -0.11,0.23 -0.22,0.33 -0.12,0.09 -0.19,0.17 -0.31,0.34 -0.13,0.17 -0.21,0.26 -0.33,0.318 -0.09,0.045 -0.11,0.048 -0.38,0.05 -0.16,0 -0.32,0.01 -0.35,0.015 -0.05,0.01 -0.1,0 -0.26,-0.07 -0.16,-0.07 -0.21,-0.08 -0.34,-0.09 -0.11,0 -0.16,-0.02 -0.19,-0.04 -0.1,-0.07 -0.11,-0.07 -0.16,-0.05 -0.06,0.03 -0.08,0.07 -0.08,0.12 0,0.09 0.1,0.16 0.308,0.2 0.16,0.03 0.25,0.09 0.27,0.15 0.01,0.04 0.01,0.06 -0.04,0.15 -0.093,0.18 -0.06,0.29 0.1,0.34 0.12,0.04 0.19,0.1 0.19,0.18 0,0.07 -0.05,0.15 -0.214,0.36 -0.06,0.08 -0.14,0.2 -0.16,0.26 -0.08,0.17 -0.21,0.26 -0.51,0.364 -0.29,0.095 -0.8,0.18 -1.13,0.18 -0.17,0 -0.21,0 -0.25,-0.03 -0.14,-0.09 -0.22,0.08 -0.11,0.27 0.03,0.05 0.05,0.1 0.05,0.11 0,0.01 -0.03,0.054 -0.07,0.094 -0.09,0.09 -0.11,0.14 -0.07,0.29 0.01,0.068 0.03,0.13 0.03,0.14 0,0.05 -0.12,0.158 -0.21,0.19 -0.21,0.08 -0.34,0.06 -0.66,-0.073 -0.2,-0.09 -0.26,-0.09 -0.29,-0.04 -0.04,0.05 -0.04,0.2 0,0.31 0.01,0.05 0.03,0.15 0.03,0.23 0.01,0.11 0.017,0.14 0.044,0.16 0.01,0.01 0.07,0.04 0.11,0.07 0.09,0.06 0.12,0.06 0.21,-0.02 0.07,-0.06 0.1,-0.06 0.17,-0.03 0.12,0.07 0.1,0.22 -0.05,0.31 -0.08,0.05 -0.12,0.05 -0.19,-0.03 -0.05,-0.054 -0.07,-0.07 -0.12,-0.07 -0.13,0 -0.16,0.1 -0.05,0.16 0.04,0.02 0.07,0.047 0.07,0.058 0,0.03 -0.06,0.07 -0.16,0.1 -0.09,0.02 -0.1,0.03 -0.13,0.1 -0.03,0.06 -0.04,0.13 -0.05,0.29 -0.01,0.227 -0.02,0.25 -0.1,0.33 -0.03,0.03 -0.05,0.06 -0.05,0.09 0,0.07 -0.03,0.13 -0.07,0.14 l -0.14,0.027 c -0.24,0.04 -0.45,0.19 -0.54,0.4 -0.04,0.09 -0.05,0.117 -0.04,0.19 0.01,0.11 0.06,0.2 0.14,0.29 0.11,0.11 0.19,0.15 0.36,0.17 0.18,0.02 0.23,0.04 0.25,0.08 0.01,0.02 -0.01,0.1 -0.03,0.19 -0.02,0.09 -0.04,0.18 -0.04,0.21 0.01,0.1 0.01,0.1 -0.27,0.3 -0.23,0.167 -0.38,0.307 -0.44,0.4 -0.02,0.04 -0.05,0.127 -0.06,0.22 -0.03,0.2 -0.11,0.31 -0.23,0.31 -0.02,0 -0.06,0.01 -0.07,0.02 -0.06,0.03 -0.24,0.23 -0.25,0.27 -0.01,0.07 0.01,0.39 0.03,0.54 0.02,0.117 0.04,0.14 0.14,0.277 0.06,0.08 0.11,0.153 0.11,0.16 0,0.01 -0.01,0.03 -0.02,0.04 -0.02,0.02 -0.05,0.02 -0.15,-0.01 -0.16,-0.05 -0.23,-0.05 -0.26,0 -0.03,0.05 -0.03,0.11 0.03,0.15 0.03,0.02 0.08,0.03 0.2,0.04 0.15,0.01 0.16,0.01 0.22,0.06 0.09,0.09 0.09,0.12 0,0.2 -0.11,0.1 -0.1,0.17 0.01,0.15 0.05,-0.01 0.09,0.02 0.12,0.1 0.04,0.1 0.57,0.54 0.76,0.63 0.04,0.02 0.14,0.04 0.23,0.05 0.18,0.02 0.24,0.04 0.23,0.08 -0.01,0.05 -0.11,0.09 -0.3,0.12 -0.135,0.02 -0.2,0.04 -0.245,0.07 -0.07,0.05 -0.09,0.05 -0.18,0.02 -0.06,-0.02 -0.06,-0.018 -0.1,0.04 -0.05,0.07 -0.11,0.07 -0.3,0.01 -0.125,-0.04 -0.23,-0.05 -0.23,-0.03 0,0.01 0.03,0.05 0.06,0.09 0.11,0.16 0.12,0.24 0.04,0.24 -0.03,0 -0.08,-0.04 -0.2,-0.17 z m -9.39,-26.473 c -0.196,-0.105 -0.24,-0.367 -0.08,-0.495 0.057,-0.046 0.067,-0.045 0.128,0.023 0.087,0.093 0.137,0.342 0.09,0.436 -0.036,0.06 -0.064,0.07 -0.138,0.03 z m 12.406,-4.788 c -0.016,-0.016 -0.022,-0.04 -0.016,-0.055 0.026,-0.063 0.027,-0.09 0.01,-0.13 -0.02,-0.04 -0.02,-0.046 0.01,-0.068 0.04,-0.03 0.133,-0.056 0.202,-0.057 0.1,0 0.194,0.138 0.154,0.228 -0.013,0.03 -0.047,0.05 -0.127,0.075 -0.132,0.042 -0.194,0.043 -0.23,0.007 z"
       id="path4138" />
    <path
       style="fill:none;stroke:#ff0000;stroke-width:0.38500923;stroke-linecap:round;stroke-linejoin:bevel;stroke-miterlimit:4;stroke-dasharray:none"
       inkscape:connector-curvature="0"
       d="m -1047.9013,-354.05005 c 0,1.03669 -0.7966,1.87708 -1.7795,1.87708 -0.9828,0 -1.7794,-0.84015 -1.7794,-1.87667 0,-1.03652 0.7966,-1.87668 1.7794,-1.87668 0.9829,0 1.7795,0.84071 1.7795,1.87723 z"
       id="path4037" />
    <path
       style="fill:none;stroke:#ff0000;stroke-width:0.38500923;stroke-linecap:round;stroke-linejoin:bevel;stroke-miterlimit:4;stroke-dasharray:none"
       inkscape:connector-curvature="0"
       d="m -1048.6549,-354.10423 c 0,0.59843 -0.4615,1.08354 -1.0309,1.08354 -0.5694,0 -1.0311,-0.48497 -1.0311,-1.0833 0,-0.59834 0.4617,-1.08331 1.0311,-1.08331 0.5694,0 1.0309,0.48532 1.0309,1.08362 z"
       id="path4039" />
  </g>
</svg>
