<?xml version="1.0" encoding="UTF-8" standalone="no"?>
<!-- Created with Inkscape (http://www.inkscape.org/) -->

<svg
   xmlns:dc="http://purl.org/dc/elements/1.1/"
   xmlns:cc="http://creativecommons.org/ns#"
   xmlns:rdf="http://www.w3.org/1999/02/22-rdf-syntax-ns#"
   xmlns:svg="http://www.w3.org/2000/svg"
   xmlns="http://www.w3.org/2000/svg"
   xmlns:sodipodi="http://sodipodi.sourceforge.net/DTD/sodipodi-0.dtd"
   xmlns:inkscape="http://www.inkscape.org/namespaces/inkscape"
   width="24.164431"
   height="33.817089"
   id="svg2"
   version="1.1"
   inkscape:version="0.48.4 r9939"
   sodipodi:docname="EQTR.svg">
  <defs
     id="defs4" />
  <sodipodi:namedview
     id="base"
     pagecolor="#ffffff"
     bordercolor="#666666"
     borderopacity="1.0"
     inkscape:pageopacity="0.0"
     inkscape:pageshadow="2"
     inkscape:zoom="18.008646"
     inkscape:cx="1.9204294"
     inkscape:cy="28.014322"
     inkscape:document-units="px"
     inkscape:current-layer="layer1"
     showgrid="false"
     fit-margin-top="0"
     fit-margin-left="0"
     fit-margin-right="0"
     fit-margin-bottom="0"
     inkscape:window-width="1366"
     inkscape:window-height="750"
     inkscape:window-x="0"
     inkscape:window-y="18"
     inkscape:window-maximized="1" />
  <metadata
     id="metadata7">
    <rdf:RDF>
      <cc:Work
         rdf:about="">
        <dc:format>image/svg+xml</dc:format>
        <dc:type
           rdf:resource="http://purl.org/dc/dcmitype/StillImage" />
      </cc:Work>
    </rdf:RDF>
  </metadata>
  <g
     inkscape:label="Layer 1"
     inkscape:groupmode="layer"
     id="layer1"
     transform="translate(-16.402995,223.06709)">
    <path
       style="fill:#ffffff;fill-opacity:1;stroke:#000000;stroke-width:0.2;stroke-miterlimit:4;stroke-opacity:1;stroke-dasharray:none"
       d="m 26.033715,-189.51952 c -0.166767,-0.17604 -0.203564,-0.19549 -0.256469,-0.13552 -0.02192,0.0249 -0.02644,0.0478 -0.01823,0.0927 0.01039,0.0568 0.0087,0.0597 -0.03502,0.0593 -0.06814,-4.6e-4 -0.172802,-0.055 -0.222758,-0.11591 -0.02421,-0.0295 -0.05917,-0.10585 -0.07769,-0.16965 -0.01852,-0.0638 -0.04278,-0.11936 -0.0539,-0.12345 -0.05898,-0.0217 -0.110304,0.0758 -0.110502,0.20995 -1.47e-4,0.0834 -0.01409,0.11515 -0.05072,0.11515 -0.03518,0 -0.06903,-0.0593 -0.0963,-0.16855 -0.04762,-0.19088 -0.09296,-0.22992 -0.247768,-0.21332 -0.05101,0.005 -0.10413,0.0144 -0.118033,0.0199 -0.0337,0.0133 -0.07881,-0.0352 -0.07881,-0.0847 0,-0.0519 0.07231,-0.10951 0.137779,-0.10984 0.02815,-1.5e-4 0.06169,-0.007 0.07453,-0.0154 0.0199,-0.0129 0.01929,-0.0215 -0.0041,-0.0582 -0.03207,-0.0502 -0.03595,-0.12985 -0.0077,-0.15879 0.04168,-0.0428 0.09943,-0.0213 0.195298,0.0725 0.133522,0.13064 0.182615,0.11811 0.121835,-0.0311 -0.05067,-0.12439 -0.0202,-0.23015 0.06632,-0.23015 0.05,0 0.06763,0.0348 0.08978,0.17698 0.02195,0.14092 0.03981,0.17698 0.08767,0.17698 0.07989,0 0.09979,-0.0782 0.04385,-0.17236 -0.06254,-0.10521 -0.02939,-0.17419 0.103089,-0.21452 0.117741,-0.0359 0.146058,-0.086 0.06891,-0.12206 -0.03302,-0.0154 -0.05945,-0.0137 -0.12879,0.009 -0.131731,0.0426 -0.170728,0.0373 -0.234406,-0.032 -0.08788,-0.0956 -0.06978,-0.16495 0.05721,-0.21922 0.08107,-0.0347 0.18322,-0.13919 0.18322,-0.18753 0,-0.0317 -0.0088,-0.0387 -0.04912,-0.0387 -0.07478,0 -0.251255,0.0791 -0.329224,0.14755 -0.09439,0.0829 -0.115326,0.1405 -0.103521,0.28494 0.0072,0.0876 0.0032,0.12954 -0.01563,0.16674 -0.0634,0.12507 -0.169166,0.16562 -0.31644,0.12134 -0.101677,-0.0306 -0.167276,-0.0124 -0.182694,0.0506 -0.0081,0.0332 -0.0018,0.0509 0.0265,0.0744 0.02044,0.017 0.04653,0.0309 0.05798,0.0309 0.01145,0 0.03024,0.0116 0.04176,0.0259 0.01753,0.0217 0.01333,0.0341 -0.02571,0.0759 -0.02566,0.0275 -0.05742,0.05 -0.07057,0.05 -0.01315,0 -0.06168,-0.033 -0.10784,-0.0732 -0.118412,-0.10333 -0.140439,-0.11217 -0.27924,-0.11217 -0.121126,0 -0.124693,-10e-4 -0.183505,-0.0632 -0.07272,-0.0766 -0.126124,-0.17914 -0.119223,-0.22884 0.0078,-0.056 0.07601,-0.0545 0.251405,0.005 0.0856,0.0293 0.178757,0.0505 0.208528,0.0475 0.04914,-0.005 0.05482,-0.0114 0.06543,-0.0757 0.01578,-0.0956 0.0518,-0.16218 0.102863,-0.19021 0.03801,-0.0209 0.05034,-0.0195 0.114116,0.0132 0.08689,0.0445 0.113977,0.0451 0.202184,0.004 0.08298,-0.0386 0.128077,-0.10226 0.113813,-0.16055 -0.0196,-0.0801 -0.05914,-0.0814 -0.209017,-0.007 -0.111601,0.0555 -0.161001,0.0701 -0.260905,0.0771 -0.09195,0.007 -0.138881,0.0191 -0.184858,0.0493 -0.03389,0.0223 -0.06162,0.0478 -0.06162,0.0567 0,0.0287 -0.09633,0.0688 -0.138854,0.0579 -0.06345,-0.0163 -0.08472,-0.0522 -0.05257,-0.0886 0.0147,-0.0167 0.03152,-0.0549 0.03738,-0.085 0.01252,-0.0642 0.08959,-0.14924 0.149192,-0.16459 0.02621,-0.007 0.05898,-4.3e-4 0.08753,0.0169 0.0251,0.0152 0.06512,0.0276 0.08894,0.0276 0.0455,0 0.163921,-0.0548 0.181523,-0.084 0.0057,-0.009 0.04993,-0.0171 0.09836,-0.0171 0.10897,0 0.140044,-0.0115 0.140044,-0.052 0,-0.0732 -0.197051,-0.12718 -0.409495,-0.11224 -0.146597,0.0103 -0.17573,0.023 -0.286729,0.12486 -0.09076,0.0833 -0.142594,0.10264 -0.201372,0.0752 -0.04876,-0.0228 -0.09458,-0.12586 -0.08087,-0.18191 0.02017,-0.0824 0.06457,-0.10673 0.194977,-0.10673 0.308694,0 0.432621,-0.13335 0.24334,-0.26184 -0.09704,-0.0659 -0.150515,-0.0534 -0.182874,0.0427 -0.03418,0.1015 -0.08051,0.11002 -0.130034,0.0239 l -0.03574,-0.0621 -0.104888,0.011 c -0.06247,0.007 -0.108882,0.005 -0.114761,-0.005 -0.01561,-0.0259 0.0737,-0.11677 0.163618,-0.16646 0.09737,-0.0538 0.114771,-0.10407 0.05088,-0.14702 -0.03856,-0.0259 -0.04729,-0.0259 -0.122779,-2.2e-4 -0.07393,0.0252 -0.08678,0.0253 -0.142253,0.001 -0.0805,-0.0345 -0.09118,-0.0334 -0.162215,0.016 -0.03329,0.0232 -0.0708,0.0421 -0.08334,0.0421 -0.0405,0 -0.0444,-0.0628 -0.0084,-0.13525 0.03203,-0.0644 0.03272,-0.0728 0.009,-0.10993 -0.03471,-0.0543 -0.03467,-0.0544 0.0399,-0.075 0.05105,-0.0141 0.06793,-0.0283 0.07625,-0.0639 0.0059,-0.0251 0.03553,-0.0695 0.06589,-0.0986 0.03036,-0.0291 0.0552,-0.0686 0.0552,-0.0879 0,-0.0707 0.06931,-0.33349 0.108024,-0.40958 0.04805,-0.0944 0.05053,-0.15093 0.0084,-0.19009 -0.04523,-0.042 -0.101291,-0.0269 -0.144416,0.0389 -0.03074,0.0469 -0.03668,0.0763 -0.03343,0.16564 0.0046,0.12682 -0.02238,0.16147 -0.119284,0.1531 -0.04957,-0.004 -0.06008,-0.0131 -0.0761,-0.064 -0.01612,-0.0512 -0.02557,-0.059 -0.07116,-0.059 -0.03307,0 -0.06122,-0.0121 -0.07589,-0.0327 -0.04244,-0.0595 -0.02764,-0.10346 0.06294,-0.18685 0.04745,-0.0437 0.112597,-0.11834 0.144778,-0.1659 0.04293,-0.0635 0.07563,-0.0923 0.122806,-0.10836 0.08303,-0.0283 0.12267,-0.066 0.12267,-0.11669 0,-0.12253 -0.08574,-0.14126 -0.167651,-0.0366 -0.05688,0.0727 -0.152393,0.13307 -0.210389,0.13307 -0.02157,0 -0.04466,-0.0197 -0.06227,-0.0531 -0.01539,-0.0292 -0.04937,-0.0788 -0.0755,-0.11028 -0.04095,-0.0493 -0.045,-0.0629 -0.02935,-0.0981 0.02444,-0.055 0.141423,-0.13977 0.211558,-0.15327 0.03521,-0.007 0.08773,-9.2e-4 0.137862,0.0159 0.09342,0.0309 0.118656,0.0251 0.190633,-0.0442 0.04413,-0.0425 0.06096,-0.0487 0.106574,-0.0393 0.0298,0.006 0.08238,0.0343 0.116852,0.0628 0.07263,0.0599 0.110318,0.0541 0.110318,-0.017 0,-0.0977 -0.07402,-0.13232 -0.22267,-0.10413 -0.199671,0.0379 -0.24598,0.0143 -0.23351,-0.11882 0.0094,-0.10029 0.04806,-0.16228 0.120607,-0.19337 0.05044,-0.0216 0.05623,-0.0309 0.05623,-0.0901 0,-0.0519 -0.0097,-0.0738 -0.04519,-0.10252 -0.04498,-0.0363 -0.09489,-0.0382 -0.195972,-0.007 -0.02572,0.008 -0.04418,3e-4 -0.06573,-0.0269 -0.06323,-0.0799 -0.08875,-0.10025 -0.126009,-0.10025 -0.04386,0 -0.09292,0.0477 -0.09292,0.0904 0,0.0403 -0.04688,0.0542 -0.07735,0.0229 -0.05433,-0.0557 0.02156,-0.17823 0.171258,-0.27646 0.04776,-0.0313 0.08684,-0.0608 0.08684,-0.0655 0,-0.005 -0.01163,-0.0267 -0.02584,-0.049 -0.01421,-0.0223 -0.02346,-0.0618 -0.02054,-0.0879 0.0052,-0.0465 0.03743,-0.0704 0.177686,-0.13172 0.03504,-0.0153 0.0472,-0.0315 0.08249,-0.10957 0.0074,-0.0165 0.04045,-0.027 0.09466,-0.0303 0.139354,-0.008 0.148749,-0.0581 0.03814,-0.20166 -0.09419,-0.12223 -0.104961,-0.14831 -0.07426,-0.1798 0.03799,-0.039 0.09633,-0.0323 0.154225,0.0177 0.06567,0.0567 0.09926,0.12414 0.09926,0.19935 0,0.0501 -0.01732,0.0791 -0.106807,0.17914 -0.05874,0.0657 -0.106807,0.13092 -0.106807,0.14501 0,0.0446 0.172583,0.19061 0.225558,0.19078 0.01109,0 0.03209,-0.0186 0.04667,-0.0414 0.02497,-0.0391 0.02407,-0.047 -0.01536,-0.13532 -0.02303,-0.0516 -0.03808,-0.10395 -0.03344,-0.11634 0.01099,-0.0294 0.07329,-0.0579 0.156445,-0.0715 0.03663,-0.006 0.07055,-0.0215 0.07537,-0.0344 0.0048,-0.0129 -0.0069,-0.0621 -0.02605,-0.10943 -0.04284,-0.10574 -0.04406,-0.15715 -0.0044,-0.18586 0.02563,-0.0186 0.02983,-0.0419 0.0267,-0.14844 -0.0021,-0.0695 -0.0092,-0.1582 -0.01592,-0.19704 -0.0099,-0.0571 -0.0048,-0.0862 0.0267,-0.1517 0.0311,-0.0648 0.03891,-0.10815 0.03891,-0.21592 0,-0.12707 0.0037,-0.14102 0.06392,-0.24207 l 0.06392,-0.10723 -0.02009,-0.11531 c -0.02371,-0.13608 -0.01702,-0.1658 0.04851,-0.21549 0.06154,-0.0467 0.06435,-0.1058 0.0072,-0.1519 -0.02305,-0.0186 -0.04984,-0.0365 -0.05954,-0.0398 -0.0097,-0.003 -0.02237,-0.036 -0.02815,-0.0727 -0.0084,-0.053 -0.01834,-0.0679 -0.04862,-0.0723 -0.04528,-0.007 -0.09728,0.0369 -0.104312,0.0872 -0.0027,0.0198 -0.02441,0.0455 -0.04811,0.0571 -0.07842,0.0384 -0.08333,0.057 -0.09613,0.36252 -0.01583,0.37805 -0.02624,0.4043 -0.168919,0.42609 -0.111538,0.017 -0.160287,-0.0179 -0.159879,-0.11451 4.33e-4,-0.10243 0.04335,-0.39367 0.07281,-0.49408 0.02792,-0.0952 0.06055,-0.13345 0.128611,-0.15087 0.07481,-0.0191 0.08489,-0.0615 0.04598,-0.19287 -0.04058,-0.13702 -0.04344,-0.25559 -0.0086,-0.3564 0.01401,-0.0406 0.03229,-0.12851 0.04061,-0.19542 0.01013,-0.0814 0.0337,-0.15949 0.07127,-0.23601 0.123628,-0.25182 0.137724,-0.39301 0.05603,-0.5612 -0.05172,-0.10648 -0.05298,-0.11431 -0.04871,-0.30314 0.0036,-0.15927 -0.0016,-0.2116 -0.02907,-0.2934 -0.06105,-0.1817 -0.03972,-0.26204 0.07626,-0.28731 0.06096,-0.0133 0.0879,-0.0506 0.128335,-0.17779 0.01621,-0.051 0.08645,-0.22923 0.1561,-0.3961 0.150063,-0.35955 0.186271,-0.46817 0.228672,-0.68595 0.0175,-0.0899 0.05829,-0.22359 0.09065,-0.29709 0.049,-0.11133 0.05883,-0.15287 0.05883,-0.24862 0,-0.0973 0.0068,-0.125 0.04415,-0.18031 0.03986,-0.059 0.04556,-0.0869 0.05875,-0.28745 0.008,-0.12215 0.0094,-0.34346 0.003,-0.49179 -0.01969,-0.45723 -0.02322,-0.42599 0.06377,-0.56545 0.05085,-0.0815 0.07681,-0.14157 0.07681,-0.17763 0,-0.0329 -0.03583,-0.12616 -0.09037,-0.23529 -0.04971,-0.0994 -0.09038,-0.19226 -0.09038,-0.20627 0,-0.014 0.0337,-0.0624 0.07488,-0.10757 0.100664,-0.11039 0.137925,-0.1994 0.138373,-0.33054 2.19e-4,-0.0655 0.01365,-0.14253 0.03526,-0.20227 0.0401,-0.11084 0.05366,-0.16425 0.153006,-0.60216 0.09644,-0.42513 0.107863,-0.51382 0.107863,-0.83782 0,-0.24014 0.0041,-0.2829 0.03189,-0.33617 l 0.03189,-0.061 -0.04011,-0.0558 c -0.04882,-0.0679 -0.05012,-0.11522 -0.0067,-0.24463 0.01837,-0.0547 0.06088,-0.20954 0.09448,-0.34396 l 0.06109,-0.2444 0,-0.44667 c 0,-0.37264 -0.005,-0.46832 -0.02988,-0.57729 -0.02183,-0.0954 -0.02847,-0.18018 -0.02466,-0.31465 0.0029,-0.10121 0.0015,-0.18745 -0.003,-0.19165 -0.0045,-0.004 -0.06736,-0.0439 -0.139661,-0.0881 -0.169702,-0.10389 -0.281442,-0.1976 -0.37228,-0.31224 -0.127212,-0.16052 -0.378773,-0.32478 -1.027643,-0.671 -0.388995,-0.20756 -0.486087,-0.27165 -0.738376,-0.48742 -0.225001,-0.19244 -0.276511,-0.26972 -0.271002,-0.40664 0.0017,-0.0427 0.0044,-0.10584 0.0059,-0.14026 0.0037,-0.0825 -0.07594,-0.23988 -0.236995,-0.46837 -0.252153,-0.35774 -0.556392,-0.97155 -0.752436,-1.51805 -0.08636,-0.24074 -0.127201,-0.32258 -0.218208,-0.43725 -0.04043,-0.0509 -0.119655,-0.16848 -0.176047,-0.26118 -0.154099,-0.25332 -0.195383,-0.29757 -0.39971,-0.42841 -0.218621,-0.13999 -0.299373,-0.21707 -0.282966,-0.27009 0.007,-0.0224 0.02982,-0.0399 0.06055,-0.0462 0.02716,-0.006 0.05301,-0.0198 0.05743,-0.0316 0.0044,-0.0118 -0.03054,-0.11495 -0.07768,-0.22918 -0.108912,-0.26383 -0.113747,-0.33651 -0.03163,-0.47549 0.08104,-0.13717 0.205708,-0.26017 0.286513,-0.28269 0.03665,-0.0102 0.09054,-0.0258 0.119756,-0.0346 0.09013,-0.0272 0.157713,-0.15932 0.119236,-0.23307 -0.01632,-0.0313 -0.02893,-0.0356 -0.07945,-0.0273 -0.05438,0.009 -0.07442,-4.5e-4 -0.212045,-0.10113 -0.09346,-0.0682 -0.151994,-0.12242 -0.151994,-0.14072 0,-0.0163 0.01109,-0.057 0.02465,-0.0903 0.03336,-0.0819 0.03103,-0.13334 -0.01024,-0.22629 -0.05152,-0.11602 -0.03178,-0.17636 0.0883,-0.26982 0.05197,-0.0404 0.09452,-0.0863 0.09457,-0.10184 2.56e-4,-0.0836 0.0418,-0.16765 0.124894,-0.25288 0.08622,-0.0884 0.08863,-0.0935 0.08872,-0.186 1.09e-4,-0.11029 0.02356,-0.20953 0.05606,-0.2372 0.0125,-0.0106 0.06968,-0.027 0.127065,-0.0364 0.111229,-0.0181 0.20896,-0.061 0.229745,-0.10069 0.007,-0.0133 0.01744,-0.0693 0.02326,-0.12433 0.0086,-0.0813 0.01965,-0.10878 0.05895,-0.14644 0.02661,-0.0255 0.0597,-0.0804 0.07353,-0.12206 0.03398,-0.10228 0.08773,-0.1579 0.164839,-0.17053 0.09893,-0.0162 0.195906,-0.0687 0.242394,-0.13123 0.0603,-0.0811 0.207285,-0.3627 0.218001,-0.41766 0.0061,-0.0314 -0.0041,-0.0696 -0.03215,-0.11959 -0.05426,-0.0968 -0.09536,-0.29188 -0.09899,-0.46992 -0.0026,-0.12611 0.0016,-0.14957 0.03403,-0.1919 0.04321,-0.0564 0.04642,-0.10582 0.01233,-0.18954 -0.01356,-0.0333 -0.02465,-0.0978 -0.02465,-0.14327 0,-0.13049 -0.03738,-0.19389 -0.236979,-0.40193 -0.246724,-0.25717 -0.277508,-0.32299 -0.20674,-0.44205 0.04192,-0.0705 0.04153,-0.11527 -0.0015,-0.17138 -0.064,-0.0834 -0.15337,-0.11625 -0.294042,-0.10789 -0.155051,0.009 -0.247905,0.0572 -0.300691,0.15531 -0.02498,0.0464 -0.06458,0.0837 -0.126711,0.11926 -0.11244,0.0643 -0.121017,0.10069 -0.04445,0.18853 0.03087,0.0354 0.05988,0.0758 0.06447,0.0897 0.02449,0.0742 -0.114536,0.20227 -0.219626,0.20227 -0.05081,0 -0.06875,-0.0106 -0.111662,-0.0662 -0.03631,-0.047 -0.07553,-0.0745 -0.135307,-0.0949 -0.0544,-0.0185 -0.117773,-0.0604 -0.179159,-0.11825 -0.153888,-0.14512 -0.327867,-0.21764 -0.581079,-0.24221 -0.08423,-0.008 -0.174755,-0.0263 -0.201173,-0.0403 -0.05484,-0.0291 -0.0873,-0.0905 -0.0873,-0.1653 0,-0.12315 -0.127306,-0.25538 -0.268099,-0.27847 -0.04994,-0.008 -0.07392,-0.0247 -0.107587,-0.0742 -0.05645,-0.083 -0.100284,-0.10428 -0.151891,-0.0739 -0.110157,0.0649 -0.105296,0.0644 -0.201636,0.0192 -0.110152,-0.0517 -0.157951,-0.12101 -0.158041,-0.22906 -4.7e-5,-0.0533 0.01153,-0.0899 0.04102,-0.12951 0.0734,-0.0987 0.04244,-0.24567 -0.06767,-0.32117 -0.08538,-0.0585 -0.614247,-0.61418 -0.614247,-0.64533 0,-0.0412 0.02891,-0.0633 0.101171,-0.0771 0.03308,-0.006 0.08648,-0.0363 0.11879,-0.0667 0.05618,-0.0528 0.05854,-0.0596 0.05493,-0.15788 -0.0052,-0.14076 0.0087,-0.15185 0.228268,-0.18229 0.229556,-0.0318 0.31429,-0.0724 0.361249,-0.1727 0.04823,-0.10308 0.08418,-0.11859 0.276643,-0.11929 0.160173,-4.6e-4 0.165476,-0.002 0.2717,-0.0666 0.142271,-0.0867 0.307516,-0.14468 0.338108,-0.11864 0.01318,0.0112 0.01908,0.0375 0.01434,0.0639 -0.0044,0.0247 -0.01413,0.10976 -0.02158,0.18906 -0.01095,0.11657 -0.02265,0.15829 -0.0611,0.21792 l -0.04756,0.0737 -0.0013,0.31303 c -0.0013,0.31179 -0.0015,0.31376 -0.06019,0.49844 -0.07579,0.2386 -0.08792,0.32274 -0.05735,0.39777 0.03753,0.0922 0.315604,0.46021 0.48222,0.63827 0.200522,0.2143 0.395151,0.32082 0.586213,0.32082 0.125335,0 0.194128,-0.029 0.326013,-0.13731 0.160759,-0.13205 0.32501,-0.21666 0.420623,-0.21666 0.04031,0 0.124351,0.0152 0.186757,0.0337 0.06241,0.0185 0.163377,0.0486 0.22438,0.0667 0.171795,0.0511 0.248675,0.11078 0.362577,0.28133 0.123479,0.18489 0.192638,0.25874 0.242312,0.25874 0.04105,0 0.06887,-0.031 0.238896,-0.26673 0.06562,-0.0909 0.142389,-0.17211 0.218214,-0.23068 0.156589,-0.12095 0.179129,-0.16305 0.177015,-0.33058 -9.15e-4,-0.0731 0.0053,-0.15174 0.01387,-0.17482 0.03873,-0.10448 0.258817,-0.29506 0.340754,-0.29506 0.02118,0 0.06751,0.0152 0.102935,0.0337 0.0841,0.044 0.105831,0.0425 0.128615,-0.009 0.02294,-0.0516 0.06109,-0.0676 0.20002,-0.0837 0.135064,-0.0157 0.197435,-0.0422 0.293913,-0.12504 0.08407,-0.0722 0.154779,-0.10949 0.257457,-0.13577 0.04219,-0.0108 0.113858,-0.0573 0.195376,-0.12685 0.15083,-0.12863 0.215039,-0.14262 0.303626,-0.0662 0.09212,0.0795 0.04702,0.18007 -0.100836,0.2248 -0.148103,0.0448 -0.179714,0.13909 -0.110375,0.32919 0.04061,0.11133 0.03756,0.12455 -0.07184,0.3116 -0.0633,0.10825 -0.08487,0.16273 -0.09008,0.22755 -0.0065,0.0807 -0.003,0.0897 0.064,0.16772 0.119121,0.13868 0.26599,0.18262 0.353191,0.10568 0.06672,-0.0589 0.05907,-0.1484 -0.03307,-0.38738 -0.08741,-0.22669 -0.09194,-0.27534 -0.03243,-0.34789 0.05303,-0.0647 0.09229,-0.0863 0.351325,-0.19366 l 0.205397,-0.0851 0.0082,-0.11767 c 0.0075,-0.10695 0.01196,-0.11898 0.0493,-0.13211 0.06053,-0.0213 0.124195,0.0111 0.170839,0.0869 0.06569,0.10674 0.115525,0.13759 0.222258,0.13759 0.181911,0 0.312573,0.11746 0.313199,0.28154 3.66e-4,0.0963 0.02749,0.15012 0.0913,0.18117 0.07618,0.0371 0.260755,0.0336 0.388138,-0.007 0.172686,-0.0555 0.224558,-0.044 0.48714,0.10808 0.0876,0.0507 0.193498,0.10155 0.235332,0.11292 0.07469,0.0203 0.07946,0.0191 0.264372,-0.0667 0.31761,-0.14725 0.615816,-0.2385 0.780226,-0.23872 0.106611,-1.5e-4 0.238068,0.028 0.278339,0.0596 0.02656,0.0208 0.02734,0.0262 0.0059,0.0409 -0.01356,0.009 -0.04029,0.017 -0.0594,0.0172 -0.05567,4.2e-4 -0.121347,0.0637 -0.121347,0.11686 0,0.0779 0.0451,0.10105 0.28323,0.14537 0.332777,0.0619 0.439767,0.11184 0.439767,0.20517 0,0.0428 -0.04518,0.14225 -0.110963,0.24421 -0.06644,0.10298 -0.05483,0.10923 0.220568,0.11871 0.309626,0.0107 0.418936,0.0429 0.552928,0.16319 0.05114,0.0459 0.144615,0.11131 0.207712,0.14532 0.168309,0.0907 0.197807,0.12377 0.197881,0.2217 1.46e-4,0.13563 0.07101,0.21715 0.215958,0.24828 0.02741,0.006 0.09657,0.0687 0.187113,0.16984 0.079,0.0883 0.159809,0.16467 0.179585,0.16976 0.02175,0.006 0.06727,-0.008 0.115214,-0.034 0.113573,-0.0619 0.159303,-0.0568 0.248851,0.0278 0.06883,0.0651 0.08229,0.0709 0.159841,0.0696 0.04657,-9.2e-4 0.147531,-0.0148 0.22435,-0.0311 0.206713,-0.0438 0.300757,-0.0374 0.497125,0.034 0.0926,0.0336 0.254618,0.0902 0.360043,0.12557 0.105424,0.0354 0.223733,0.087 0.262908,0.11466 0.03917,0.0277 0.160157,0.13808 0.268852,0.24534 0.108693,0.10727 0.223304,0.21278 0.254692,0.23446 0.08424,0.0582 0.121749,0.14553 0.179285,0.41738 0.06711,0.31709 0.108616,0.40241 0.247497,0.50875 0.298782,0.22877 0.300118,0.2322 0.184693,0.47465 -0.08522,0.17901 -0.180284,0.32168 -0.253943,0.38111 -0.02389,0.0193 -0.07751,0.0416 -0.119147,0.0496 -0.109927,0.0211 -0.189534,0.10942 -0.189534,0.21034 0,0.0777 0.112029,0.17855 0.162704,0.14643 0.01015,-0.006 0.03232,-0.063 0.04926,-0.12566 0.03688,-0.13644 0.09204,-0.20211 0.191263,-0.22774 0.202007,-0.0522 0.63526,0.0291 0.753324,0.14136 0.05719,0.0544 0.05424,0.0991 -0.01602,0.24317 -0.05506,0.11288 -0.182236,0.26488 -0.306983,0.36689 -0.05603,0.0458 -0.05684,0.0809 -0.0027,0.11728 0.03919,0.0263 0.04602,0.0264 0.09887,4.6e-4 0.03404,-0.0167 0.07601,-0.0599 0.10484,-0.10797 0.09092,-0.1517 0.0854,-0.14762 0.200175,-0.14762 l 0.104483,0 0.01117,-0.1039 c 0.03697,-0.34379 0.250146,-0.3542 0.934328,-0.0456 0.378937,0.17091 0.598054,0.31279 0.647215,0.41906 0.02268,0.049 0.02273,0.0637 5.03e-4,0.14047 -0.01365,0.0471 -0.04304,0.12589 -0.06532,0.17497 -0.08214,0.18097 -0.04042,0.19301 0.157937,0.0456 0.276903,-0.20583 0.320012,-0.2123 0.606422,-0.0911 0.10392,0.044 0.225917,0.0915 0.271105,0.10552 0.105419,0.0328 0.283073,0.0318 0.41901,-0.002 0.136673,-0.0344 0.391197,-0.0351 0.518256,-0.001 0.128281,0.034 0.286719,0.11046 0.391597,0.18905 0.04633,0.0347 0.188454,0.16552 0.315835,0.29067 0.252479,0.24806 0.408549,0.35787 0.616406,0.43368 0.106428,0.0388 0.144943,0.044 0.310467,0.0422 0.10393,-0.001 0.208182,0.006 0.23167,0.0148 0.06632,0.0264 0.105052,0.11778 0.185028,0.43657 0.08919,0.35549 0.116879,0.55243 0.102522,0.72901 -0.02586,0.31807 -0.228068,0.74244 -0.494351,1.03747 -0.08805,0.0976 -0.127754,0.122 -0.306784,0.18884 -0.145274,0.0542 -0.203616,0.13213 -0.315609,0.42142 -0.196712,0.50813 -0.291318,0.60296 -0.468324,0.46943 -0.06074,-0.0458 -0.07534,-0.0503 -0.110505,-0.0338 -0.06448,0.0301 -0.06725,0.0674 -0.0092,0.12304 0.06392,0.0613 0.06437,0.083 0.0035,0.17155 -0.08859,0.12882 -0.09666,0.28452 -0.05698,1.09844 0.0091,0.18562 0.0062,0.21625 -0.0348,0.37051 -0.03968,0.14942 -0.04342,0.18552 -0.03354,0.32369 0.01334,0.18636 0.0056,0.2056 -0.114816,0.2846 -0.05311,0.0349 -0.09219,0.0736 -0.09672,0.096 -0.02136,0.10531 -0.07498,0.49376 -0.07498,0.54322 0,0.0844 -0.02666,0.14119 -0.08141,0.17342 -0.059,0.0348 -0.06892,0.0544 -0.124363,0.24642 -0.03779,0.1309 -0.05451,0.16226 -0.130307,0.24441 -0.117245,0.12707 -0.142142,0.18362 -0.155959,0.35423 -0.01708,0.21086 -0.0377,0.23936 -0.189554,0.26199 -0.137077,0.0204 -0.208999,0.0956 -0.231882,0.2424 -0.01725,0.11065 -0.0493,0.12807 -0.247875,0.13475 -0.09464,0.003 -0.287987,-0.006 -0.429652,-0.0208 -0.328918,-0.0339 -0.350546,-0.0289 -0.495352,0.11447 -0.06412,0.0635 -0.146036,0.12579 -0.191768,0.14583 -0.04391,0.0192 -0.09921,0.0566 -0.122885,0.0831 -0.03186,0.0356 -0.06389,0.0508 -0.123239,0.0585 -0.311191,0.0401 -0.375467,0.0724 -0.623274,0.31273 -0.247213,0.23978 -0.370297,0.33415 -0.453607,0.34782 -0.07435,0.0122 -0.08794,0.0327 -0.101045,0.15222 -0.0053,0.0479 -0.02933,0.12721 -0.0535,0.17614 -0.04185,0.0847 -0.04354,0.0979 -0.03534,0.27522 0.0047,0.10243 0.01718,0.27223 0.02766,0.37733 0.02104,0.21098 0.0042,0.43645 -0.03907,0.52223 -0.01796,0.0356 -0.05051,0.0582 -0.123107,0.0853 -0.154335,0.0577 -0.23575,0.16364 -0.416108,0.54135 -0.228508,0.47855 -0.321516,0.61277 -0.53247,0.76847 -0.09259,0.0683 -0.154118,0.093 -0.153944,0.0617 0,-0.007 0.05565,-0.088 0.123572,-0.18021 0.148656,-0.20171 0.209324,-0.32172 0.202043,-0.39968 -0.0047,-0.0502 -0.01127,-0.057 -0.05943,-0.0617 -0.07314,-0.007 -0.195193,0.0554 -0.225625,0.11579 -0.01331,0.0264 -0.0242,0.0866 -0.0242,0.13379 0,0.0961 -0.03862,0.18796 -0.106234,0.25271 -0.07051,0.0675 -0.105021,0.13828 -0.132283,0.27122 -0.01408,0.0687 -0.04458,0.16664 -0.06778,0.21772 -0.0232,0.0511 -0.06,0.1457 -0.08178,0.21029 -0.05062,0.15005 -0.105428,0.2303 -0.219149,0.32085 -0.120032,0.0956 -0.188234,0.17203 -0.309605,0.34705 -0.12127,0.17488 -0.207374,0.25744 -0.330008,0.31642 -0.08759,0.0421 -0.107151,0.0446 -0.379902,0.0479 -0.158156,0.002 -0.314977,0.008 -0.348492,0.0144 -0.04983,0.009 -0.09621,-0.004 -0.254366,-0.0693 -0.164701,-0.0684 -0.215554,-0.0818 -0.342383,-0.0903 -0.111141,-0.007 -0.160785,-0.0185 -0.195572,-0.0436 -0.09822,-0.071 -0.111,-0.0751 -0.157354,-0.0505 -0.05965,0.0316 -0.08621,0.0682 -0.08621,0.11857 0,0.0893 0.10571,0.15823 0.308789,0.20126 0.158287,0.0335 0.255929,0.0855 0.277186,0.1475 0.0129,0.0376 0.0064,0.0641 -0.03662,0.14972 -0.0919,0.18279 -0.05761,0.29481 0.105084,0.34333 0.118539,0.0354 0.18769,0.1021 0.18769,0.18116 0,0.0666 -0.04614,0.14459 -0.212233,0.35856 -0.06476,0.0834 -0.139574,0.19817 -0.166244,0.25497 -0.0801,0.17057 -0.209869,0.26321 -0.513103,0.36629 -0.286432,0.0974 -0.797324,0.18111 -1.13024,0.18524 -0.171478,0.002 -0.213484,-0.002 -0.250005,-0.0269 -0.142747,-0.0959 -0.216945,0.0819 -0.11078,0.26548 0.0268,0.0463 0.04886,0.094 0.04901,0.10597 1.46e-4,0.012 -0.03259,0.0545 -0.07276,0.0945 -0.09233,0.092 -0.103034,0.13664 -0.06883,0.28668 0.015,0.0658 0.02717,0.12908 0.02706,0.14064 -4.57e-4,0.047 -0.119721,0.15526 -0.208673,0.1894 -0.203706,0.0782 -0.342273,0.0623 -0.656436,-0.0754 -0.196349,-0.086 -0.254928,-0.0937 -0.292608,-0.0386 -0.03345,0.049 -0.03329,0.20223 3.29e-4,0.30961 0.01425,0.0455 0.03088,0.14642 0.03697,0.22426 0.0092,0.11727 0.0167,0.14464 0.04394,0.1598 0.01807,0.0101 0.07096,0.0438 0.117516,0.0751 0.09536,0.0639 0.117401,0.0624 0.211936,-0.0146 0.06831,-0.0557 0.10305,-0.061 0.169005,-0.0261 0.125161,0.0664 0.101722,0.21814 -0.04817,0.31188 -0.08059,0.0504 -0.116645,0.044 -0.183479,-0.0323 -0.04961,-0.0567 -0.06916,-0.0674 -0.122793,-0.0674 -0.132742,0 -0.163078,0.098 -0.04957,0.16013 0.03386,0.0185 0.0616,0.042 0.06162,0.0522 7.3e-5,0.0337 -0.05637,0.07 -0.153243,0.0984 -0.08935,0.0262 -0.09804,0.0333 -0.129493,0.10629 -0.02505,0.0581 -0.03667,0.13261 -0.04521,0.2899 -0.01234,0.2272 -0.01988,0.25255 -0.09782,0.32864 -0.03264,0.0319 -0.05071,0.066 -0.05071,0.0958 0,0.0741 -0.02845,0.13122 -0.06925,0.13898 -0.02065,0.004 -0.08524,0.0161 -0.143524,0.0271 -0.241801,0.0456 -0.448464,0.1968 -0.545645,0.39929 -0.04433,0.0924 -0.05008,0.11925 -0.04222,0.19741 0.01119,0.11116 0.05437,0.20096 0.140337,0.29183 0.106293,0.11235 0.188376,0.15172 0.360145,0.17271 0.173561,0.0212 0.230954,0.0396 0.245566,0.0786 0.0057,0.0152 -0.0098,0.099 -0.03445,0.18643 -0.02461,0.0874 -0.04344,0.17942 -0.04184,0.20449 0.0063,0.0986 0.0032,0.10197 -0.274734,0.3014 -0.23382,0.16777 -0.387922,0.30778 -0.44098,0.40065 -0.02611,0.0457 -0.0504,0.12799 -0.0649,0.21987 -0.0322,0.20403 -0.111791,0.31198 -0.230031,0.31198 -0.02405,0 -0.05787,0.008 -0.07515,0.0173 -0.0608,0.0334 -0.244162,0.23162 -0.254927,0.27561 -0.01591,0.065 0.002,0.38643 0.02972,0.53421 0.02158,0.11494 0.03476,0.14209 0.133153,0.27437 0.06006,0.0807 0.109203,0.15326 0.109203,0.16113 0,0.008 -0.0113,0.024 -0.02511,0.0357 -0.02052,0.0175 -0.0473,0.0147 -0.146467,-0.0148 -0.1642,-0.0489 -0.231106,-0.0477 -0.26475,0.005 -0.03487,0.0546 -0.0251,0.10829 0.02689,0.14795 0.03228,0.0246 0.08113,0.0347 0.204099,0.0423 0.154419,0.009 0.164402,0.0124 0.222728,0.0665 0.09109,0.0844 0.092,0.11402 0.0062,0.1996 -0.102117,0.10181 -0.09546,0.16933 0.01456,0.14776 0.05494,-0.0108 0.08892,0.017 0.120769,0.0986 0.04012,0.10286 0.56757,0.53763 0.758624,0.62533 0.04171,0.0191 0.139636,0.0393 0.236135,0.0486 0.179621,0.0174 0.231352,0.0357 0.223516,0.0793 -0.0084,0.0466 -0.109671,0.0847 -0.301093,0.11335 -0.131644,0.0197 -0.197118,0.0381 -0.241794,0.0679 -0.06962,0.0465 -0.08987,0.0488 -0.180537,0.021 -0.06296,-0.0194 -0.06607,-0.0184 -0.105796,0.0337 -0.05173,0.0678 -0.110749,0.0701 -0.301455,0.0115 -0.127632,-0.0392 -0.230045,-0.054 -0.230045,-0.0333 0,0.005 0.02449,0.0454 0.05442,0.09 0.105468,0.15727 0.117481,0.23828 0.03533,0.23828 -0.03253,0 -0.08086,-0.0403 -0.202405,-0.16855 z m -9.393123,-26.47268 c -0.195518,-0.1043 -0.238176,-0.36711 -0.08027,-0.49452 0.05783,-0.0467 0.06735,-0.045 0.129119,0.0222 0.08626,0.0938 0.136617,0.34274 0.08836,0.43678 -0.03488,0.068 -0.0629,0.0752 -0.13721,0.0356 z m 12.406209,-4.78789 c -0.01558,-0.016 -0.02216,-0.0389 -0.01574,-0.0548 0.02569,-0.0637 0.0269,-0.0909 0.0058,-0.13126 -0.01985,-0.038 -0.01882,-0.0453 0.0094,-0.0665 0.04113,-0.0309 0.133871,-0.0569 0.202865,-0.0571 0.100822,-1.8e-4 0.193663,0.13753 0.153576,0.22779 -0.01306,0.0294 -0.04668,0.0491 -0.127056,0.0746 -0.13188,0.0418 -0.193228,0.0437 -0.228844,0.007 z"
       id="path4652"
       inkscape:connector-curvature="0" />
    <path
       sodipodi:type="arc"
       style="fill:#000000;fill-opacity:0;stroke:#ff0000;stroke-width:5.36118984;stroke-linecap:round;stroke-linejoin:bevel;stroke-miterlimit:4;stroke-opacity:1;stroke-dasharray:none"
       id="path3051"
       sodipodi:cx="464.47366"
       sodipodi:cy="511.44427"
       sodipodi:rx="32.550716"
       sodipodi:ry="33.176689"
       d="m 497.02438,511.44427 a 32.550716,33.176689 0 1 1 -65.10143,0 32.550716,33.176689 0 1 1 65.10143,0 z"
       transform="matrix(0.04532683,0,0,0.04797361,13.4523,-240.60202)" />
    <path
       sodipodi:type="arc"
       style="fill:#000000;fill-opacity:0;stroke:#ff0000;stroke-width:9.28814983;stroke-linecap:round;stroke-linejoin:bevel;stroke-miterlimit:4;stroke-opacity:1;stroke-dasharray:none"
       id="path3051-5"
       sodipodi:cx="464.47366"
       sodipodi:cy="511.44427"
       sodipodi:rx="32.550716"
       sodipodi:ry="33.176689"
       d="m 497.02438,511.44427 a 32.550716,33.176689 0 1 1 -65.10143,0 32.550716,33.176689 0 1 1 65.10143,0 z"
       transform="matrix(0.02615008,0,0,0.02770439,22.359386,-230.27727)" />
  </g>
</svg>
