<?xml version="1.0" encoding="UTF-8" standalone="no"?>
<!-- Created with Inkscape (http://www.inkscape.org/) -->

<svg
   xmlns:dc="http://purl.org/dc/elements/1.1/"
   xmlns:cc="http://creativecommons.org/ns#"
   xmlns:rdf="http://www.w3.org/1999/02/22-rdf-syntax-ns#"
   xmlns:svg="http://www.w3.org/2000/svg"
   xmlns="http://www.w3.org/2000/svg"
   xmlns:sodipodi="http://sodipodi.sourceforge.net/DTD/sodipodi-0.dtd"
   xmlns:inkscape="http://www.inkscape.org/namespaces/inkscape"
   width="24.085926"
   height="23.97846"
   id="svg2"
   version="1.1"
   inkscape:version="0.48.4 r9939"
   sodipodi:docname="New document 1">
  <defs
     id="defs4" />
  <sodipodi:namedview
     id="base"
     pagecolor="#ffffff"
     bordercolor="#666666"
     borderopacity="1.0"
     inkscape:pageopacity="0.0"
     inkscape:pageshadow="2"
     inkscape:zoom="35.258567"
     inkscape:cx="13.243102"
     inkscape:cy="11.781644"
     inkscape:document-units="px"
     inkscape:current-layer="layer1"
     showgrid="false"
     fit-margin-top="12"
     fit-margin-left="0"
     fit-margin-right="0"
     fit-margin-bottom="10"
     inkscape:window-width="1366"
     inkscape:window-height="750"
     inkscape:window-x="0"
     inkscape:window-y="18"
     inkscape:window-maximized="1" />
  <metadata
     id="metadata7">
    <rdf:RDF>
      <cc:Work
         rdf:about="">
        <dc:format>image/svg+xml</dc:format>
        <dc:type
           rdf:resource="http://purl.org/dc/dcmitype/StillImage" />
        <dc:title></dc:title>
      </cc:Work>
    </rdf:RDF>
  </metadata>
  <g
     inkscape:label="Layer 1"
     inkscape:groupmode="layer"
     id="layer1"
     transform="translate(-456,-717.77291)">
    <path
       style="fill:#000000;stroke:#000000;stroke-opacity:1;stroke-width:0.05;stroke-miterlimit:4;stroke-dasharray:none"
       d="m 456.37991,730.26634 c 0.20895,0.0618 0.43985,0.14417 0.51311,0.18307 0.0875,0.0465 0.19922,0.0454 0.32564,-0.003 0.10584,-0.0407 0.30476,-0.0962 0.44204,-0.12352 0.13728,-0.0273 0.51176,-0.16221 0.83219,-0.2998 l 0.58257,-0.25018 9.4435,0.0334 c 10.43905,0.0369 9.75578,0.005 10.94886,0.51964 0.57189,0.24692 0.63477,0.29302 0.6151,0.45093 -0.0178,0.14324 -0.12941,0.2238 -0.60082,0.43388 -1.11981,0.49901 -0.47069,0.46893 -10.9285,0.50651 l -9.48121,0.0341 -0.62755,-0.25977 c -0.34515,-0.14287 -0.68638,-0.26161 -0.75828,-0.26386 -0.0719,-0.002 -0.24471,-0.0451 -0.38401,-0.0953 -0.21444,-0.0772 -0.3032,-0.0726 -0.57891,0.0299 -0.1791,0.0666 -0.41519,0.14264 -0.52464,0.16899 l -0.199,0.0479 0,-0.61258 0,-0.61257 0.37991,0.11235 z m 1.66686,0.45877 c 0.26124,0 0.3287,0.0313 0.4286,0.199 0.0652,0.10945 0.23506,0.31122 0.37743,0.44837 l 0.25885,0.24939 0,-0.84159 0,-0.84159 -0.17128,0.0311 c -0.0942,0.0171 -0.28959,0.0801 -0.43418,0.13993 -0.1446,0.0599 -0.37689,0.15606 -0.51618,0.21373 -0.17305,0.0717 -0.25328,0.15187 -0.25328,0.25328 0,0.12655 0.0456,0.14842 0.31004,0.14842 z m 0.63803,-0.45508 0.2968,-0.30474 -0.27594,0.34372 c -0.15176,0.18906 -0.28532,0.34374 -0.29679,0.34374 -0.0681,0 0.0135,-0.11326 0.27593,-0.38272 z m -0.35053,1.08291 c 0.30816,0.129 0.55899,0.21148 0.55741,0.18327 -0.002,-0.0282 -0.14526,-0.20595 -0.3193,-0.39501 -0.23878,-0.25939 -0.36828,-0.34373 -0.52779,-0.34373 -0.52536,0 -0.38241,0.2741 0.28968,0.55547 z m 6.31322,0.3129 5.46347,0 0,-0.90455 0,-0.90455 -5.46347,0 -5.46348,0 0,0.90455 0,0.90455 5.46348,0 z m 7.38112,0 1.77292,0 0,-0.90455 0,-0.90455 -1.77292,0 -1.77292,0 0,0.90455 0,0.90455 1.77292,0 z m 2.74983,0 0.90455,0 0,-0.90455 0,-0.90455 -0.90455,0 -0.90454,0 0,0.90455 0,0.90455 0.90454,0 z m 1.07954,0 c 0.31096,0 0.33156,-0.0567 0.33156,-0.91229 0,-0.45344 -0.0244,-0.82489 -0.0543,-0.82543 -0.0299,-5.8e-4 -0.12754,-0.0207 -0.21709,-0.0446 -0.16255,-0.0435 -0.16281,-0.0421 -0.16281,0.86935 0,0.73991 0.0194,0.913 0.10262,0.913 z m 2.29986,-0.94073 c 1.11088,0 1.86746,-0.0267 1.82719,-0.0644 -0.14078,-0.13188 -1.16914,-0.5412 -1.58839,-0.63224 -0.2388,-0.0519 -0.81681,-0.0954 -1.28446,-0.0968 l -0.85028,-0.003 0,0.398 0,0.39801 1.89594,0 z m -1.00949,0.86729 c 0.5134,-6.5e-4 1.07176,-0.0448 1.32675,-0.1049 0.43205,-0.1019 1.54972,-0.57049 1.54972,-0.64973 0,-0.0222 -0.84665,-0.0403 -1.88146,-0.0403 l -1.88146,0 0,0.398 0,0.398 0.88645,-9.5e-4 z"
       id="path3047"
       inkscape:connector-curvature="0" />
    <path
       style="fill:#ffffff;fill-opacity:1;stroke:#000000;stroke-width:0.05000000000000000;stroke-linecap:round;stroke-linejoin:bevel;stroke-miterlimit:4;stroke-opacity:1;stroke-dasharray:none"
       d="m 3.2188103,12.995247 0,-0.872388 5.4248484,0 5.4248483,0 0,0.872388 0,0.872388 -5.4248483,0 -5.4248484,0 0,-0.872388 z"
       id="path3817"
       inkscape:connector-curvature="0"
       transform="translate(456,717.77291)" />
    <path
       style="fill:#ffffff;fill-opacity:1;stroke:#000000;stroke-width:0.05;stroke-linecap:round;stroke-linejoin:bevel;stroke-miterlimit:4;stroke-opacity:1;stroke-dasharray:none"
       d="M 2.8723421,13.561797 C 2.772546,13.459768 2.6286179,13.29265 2.5525018,13.190423 2.4763857,13.088197 2.3922626,12.990243 2.3655615,12.972748 2.3336499,12.951838 2.232714,12.934064 2.0710047,12.920878 1.9356995,12.909846 1.8137144,12.89163 1.7999266,12.880399 c -0.045169,-0.03679 -0.028612,-0.127615 0.034517,-0.189335 0.073356,-0.07172 0.9116093,-0.427821 1.0070773,-0.427821 0.012459,0 -0.072862,0.09795 -0.1896034,0.21766 -0.2771081,0.284162 -0.3475209,0.399831 -0.263113,0.432221 0.036638,0.01406 0.085738,-0.03779 0.4048325,-0.427529 0.1136056,-0.138756 0.2241582,-0.258795 0.2456725,-0.266754 0.038359,-0.01419 0.039117,4.82e-4 0.039117,0.756997 0,0.424307 -0.00554,0.771467 -0.012318,0.771467 -0.00678,0 -0.09397,-0.08348 -0.1937657,-0.185508 z"
       id="path3819"
       inkscape:connector-curvature="0"
       transform="translate(456,717.77291)" />
    <path
       style="fill:#ffffff;fill-opacity:1;stroke:#000000;stroke-width:0.05;stroke-linecap:round;stroke-linejoin:bevel;stroke-miterlimit:4;stroke-opacity:1;stroke-dasharray:none"
       d="m 14.292493,12.999458 0,-0.865038 1.730076,0 1.730075,0 0,0.865038 0,0.865038 -1.730075,0 -1.730076,0 0,-0.865038 z"
       id="path3823"
       inkscape:connector-curvature="0"
       transform="translate(456,717.77291)" />
    <path
       style="fill:#ffffff;fill-opacity:1;stroke:#000000;stroke-width:0.05;stroke-linecap:round;stroke-linejoin:bevel;stroke-miterlimit:4;stroke-opacity:1;stroke-dasharray:none"
       d="m 17.922816,12.999458 0,-0.865038 0.865038,0 0.865038,0 0,0.865038 0,0.865038 -0.865038,0 -0.865038,0 0,-0.865038 z"
       id="path3825"
       inkscape:connector-curvature="0"
       transform="translate(456,717.77291)" />
    <path
       style="fill:#ffffff;fill-opacity:1;stroke:#000000;stroke-width:0.05;stroke-linecap:round;stroke-linejoin:bevel;stroke-miterlimit:4;stroke-opacity:1;stroke-dasharray:none"
       d="m 19.836353,13.817147 c -0.03005,-0.06815 -0.05332,-1.329661 -0.02823,-1.530474 l 0.01946,-0.155767 0.08992,0.01806 c 0.164942,0.03312 0.183435,0.04379 0.201629,0.116277 0.0099,0.03963 0.01815,0.363714 0.01823,0.72018 1.14e-4,0.510715 -0.0088,0.669595 -0.04218,0.749418 -0.02328,0.05571 -0.05893,0.101472 -0.07923,0.101685 -0.02029,2.13e-4 -0.06386,0.0076 -0.0968,0.01647 -0.04124,0.01107 -0.06704,-9.9e-5 -0.0828,-0.03584 z"
       id="path3827"
       inkscape:connector-curvature="0"
       transform="translate(456,717.77291)" />
    <path
       style="fill:#ffffff;fill-opacity:1;stroke:#000000;stroke-width:0.05;stroke-linecap:round;stroke-linejoin:bevel;stroke-miterlimit:4;stroke-opacity:1;stroke-dasharray:none"
       d="m 20.305216,12.541118 0,-0.359074 0.744499,0.0189 c 0.793173,0.02014 1.151261,0.05065 1.425186,0.121424 0.245248,0.06337 0.826074,0.277469 1.128733,0.416068 l 0.260316,0.119209 -0.127287,0.01917 c -0.07001,0.01054 -0.870722,0.02012 -1.779367,0.02127 l -1.65208,0.0021 0,-0.359073 z"
       id="path3829"
       inkscape:connector-curvature="0"
       transform="translate(456,717.77291)" />
    <path
       style="fill:#ffffff;fill-opacity:1;stroke:#000000;stroke-width:0.05;stroke-linecap:round;stroke-linejoin:bevel;stroke-miterlimit:4;stroke-opacity:1;stroke-dasharray:none"
       d="m 20.305216,13.424886 0,-0.354523 1.722985,0.0028 c 0.947642,0.0016 1.75389,0.01146 1.791662,0.02202 0.0588,0.01644 0.02811,0.03803 -0.213454,0.150144 -0.361617,0.167841 -0.965493,0.387029 -1.202413,0.43644 -0.289801,0.06044 -0.863815,0.09761 -1.507299,0.09761 l -0.591481,0 0,-0.354524 z"
       id="path3831"
       inkscape:connector-curvature="0"
       transform="translate(456,717.77291)" />
  </g>
</svg>
