<svg xmlns="http://www.w3.org/2000/svg" width="24.086" height="23.978"><g stroke="#000" stroke-width=".05"><path d="M.38 12.493c.21.062.44.145.513.183.088.047.2.046.326-.003.1-.04.3-.096.44-.123.13-.027.51-.162.83-.3l.58-.25 9.44.033c10.44.037 9.75.005 10.95.52.57.247.63.293.61.45-.02.144-.13.225-.6.435-1.12.5-.47.47-10.93.506l-9.48.034-.63-.26c-.35-.142-.69-.26-.76-.263-.07-.002-.25-.045-.39-.095-.217-.078-.3-.073-.58.03-.18.066-.417.142-.52.168l-.2.048V12.38l.38.114zm1.667.46c.26 0 .328.03.428.198.066.11.235.32.378.45l.26.25v-1.68l-.173.03c-.094.02-.29.08-.434.14l-.516.22c-.173.08-.253.16-.253.26 0 .13.045.15.31.15zm.638-.456l.297-.305-.276.344c-.152.19-.286.344-.297.344-.07 0 .01-.113.27-.383zm-.35 1.083c.307.13.558.212.557.183-.002-.028-.146-.206-.32-.395-.238-.26-.368-.343-.527-.343-.526 0-.383.274.29.555zm6.312.313h5.464v-1.81H3.19v1.81h5.46zm7.382 0h1.77v-1.81h-3.55v1.81h1.77zm2.74 0h.9v-1.81h-1.8v1.81h.9zm1.08 0c.31 0 .33-.057.33-.912 0-.45-.03-.82-.06-.82s-.13-.02-.22-.04c-.16-.04-.17-.04-.17.87 0 .74.02.92.104.92zm2.3-.94c1.11 0 1.86-.028 1.82-.065-.14-.132-1.17-.54-1.59-.632-.24-.052-.82-.096-1.29-.097l-.85-.01v.79h1.892zm-1.01.866c.51 0 1.07-.05 1.32-.11.43-.1 1.55-.57 1.55-.65 0-.02-.85-.04-1.88-.04h-1.88v.79h.88z"/><path fill="#fff" d="M3.22 12.995v-.872h10.85v1.745H3.217v-.873zm-.348.567c-.1-.102-.243-.27-.32-.372-.076-.102-.16-.2-.186-.217-.032-.02-.133-.04-.295-.052-.13-.01-.25-.02-.27-.04-.04-.03-.03-.12.04-.19.08-.07.91-.42 1.01-.42.01 0-.07.1-.19.22-.27.29-.35.4-.26.44.04.02.09-.04.41-.42.12-.14.23-.26.25-.265.04-.014.04 0 .04.757 0 .42-.003.77-.01.77s-.094-.086-.194-.19zM14.292 13v-.866h3.46v1.73h-3.46V13zm3.63 0v-.866h1.73v1.73h-1.73V13zm1.914.817c-.03-.068-.053-1.33-.028-1.53l.02-.156.09.02c.164.04.183.05.2.12.01.04.02.37.02.72 0 .51-.01.67-.043.75-.023.06-.06.1-.08.1-.02 0-.063.01-.096.02-.05.01-.07 0-.09-.03zm.47-1.277v-.358l.744.02c.793.02 1.15.05 1.425.12.245.064.826.278 1.13.416l.26.12-.128.02c-.07.01-.87.02-1.78.02l-1.652.002v-.36zm0 .885v-.355l1.722.003c.948.002 1.754.012 1.792.022.06.017.028.038-.214.15-.36.168-.965.387-1.202.437-.29.06-.864.097-1.507.097h-.592v-.36z" stroke-linecap="round" stroke-linejoin="bevel"/></g></svg>