<?xml version="1.0" encoding="UTF-8" standalone="no"?>
<!-- Created with Inkscape (http://www.inkscape.org/) -->

<svg
   xmlns:dc="http://purl.org/dc/elements/1.1/"
   xmlns:cc="http://creativecommons.org/ns#"
   xmlns:rdf="http://www.w3.org/1999/02/22-rdf-syntax-ns#"
   xmlns:svg="http://www.w3.org/2000/svg"
   xmlns="http://www.w3.org/2000/svg"
   xmlns:sodipodi="http://sodipodi.sourceforge.net/DTD/sodipodi-0.dtd"
   xmlns:inkscape="http://www.inkscape.org/namespaces/inkscape"
   width="24.16271"
   height="25.97187"
   id="svg2"
   version="1.1"
   inkscape:version="0.48.4 r9939"
   sodipodi:docname="F91.svg">
  <defs
     id="defs4" />
  <sodipodi:namedview
     id="base"
     pagecolor="#ffffff"
     bordercolor="#666666"
     borderopacity="1.0"
     inkscape:pageopacity="0.0"
     inkscape:pageshadow="2"
     inkscape:zoom="94.247388"
     inkscape:cx="18.138638"
     inkscape:cy="14.56152"
     inkscape:document-units="px"
     inkscape:current-layer="layer1"
     showgrid="false"
     fit-margin-top="10"
     fit-margin-left="0"
     fit-margin-right="0"
     fit-margin-bottom="14"
     inkscape:window-width="1366"
     inkscape:window-height="750"
     inkscape:window-x="0"
     inkscape:window-y="18"
     inkscape:window-maximized="1" />
  <metadata
     id="metadata7">
    <rdf:RDF>
      <cc:Work
         rdf:about="">
        <dc:format>image/svg+xml</dc:format>
        <dc:type
           rdf:resource="http://purl.org/dc/dcmitype/StillImage" />
      </cc:Work>
    </rdf:RDF>
  </metadata>
  <g
     inkscape:label="Layer 1"
     inkscape:groupmode="layer"
     id="layer1"
     transform="translate(-232.71436,-799.38911)">
    <path
       style="fill:#ffffff;fill-opacity:1;stroke:#000000;stroke-width:0.05;stroke-miterlimit:4;stroke-opacity:1;stroke-dasharray:none"
       d="m 232.79939,810.5569 c 0.0136,0 0.0225,0.0976 0.0225,0.24778 l 0,0.24777 0.0618,-0.0144 c 0.034,-0.008 0.12002,-0.0373 0.19113,-0.0653 0.12011,-0.0473 0.1293,-0.0481 0.1293,-0.0108 0,0.0466 0.10374,0.0895 0.21626,0.0895 0.0547,0 0.0714,0.008 0.0626,0.0314 -0.007,0.0173 0.0108,0.0527 0.0387,0.0787 0.0635,0.0592 -0.0445,0.0591 1.79617,0.002 1.08336,-0.0335 1.53869,-0.0554 1.65273,-0.0796 0.13738,-0.0291 1.09803,-0.0333 7.55339,-0.0331 l 7.39599,2.8e-4 0.22142,0.12368 0.22141,0.12367 1.40788,0 c 1.16072,0 1.44944,-0.006 1.64458,-0.0351 0.50729,-0.0753 0.86303,-0.23796 1.20582,-0.55125 0.15178,-0.13872 0.1935,-0.21106 0.1935,-0.33554 0,-0.12412 -0.0417,-0.19681 -0.19143,-0.33366 -0.29101,-0.26595 -0.61176,-0.42811 -1.03559,-0.52352 -0.21651,-0.0487 -0.26889,-0.0505 -1.71328,-0.0588 l -1.48995,-0.009 -0.22793,0.12498 -0.22794,0.12499 -7.42287,0 c -5.06849,0 -7.44778,-0.007 -7.50142,-0.0233 -0.0432,-0.0128 -0.82548,-0.049 -1.73839,-0.0803 -1.5558,-0.0534 -1.66343,-0.0546 -1.71727,-0.0193 -0.0316,0.0207 -0.0625,0.0568 -0.0686,0.0803 -0.007,0.027 -0.0311,0.0427 -0.0655,0.0427 -0.0826,0 -0.21027,0.0607 -0.21027,0.10004 0,0.043 0.0139,0.045 -0.14616,-0.0209 -0.0742,-0.0306 -0.15769,-0.0558 -0.18551,-0.0561 -0.0493,-4.7e-4 -0.0506,0.006 -0.0506,0.23557 0,0.14241 -0.009,0.2361 -0.0225,0.2361 -0.0131,0 -0.0225,0.075 -0.0225,0.17989 0,0.10494 0.009,0.17989 0.0225,0.17989 z m 0.4433,0.23008 c 0.005,0.0338 0.005,0.0945 2.3e-4,0.13492 -0.005,0.0404 -0.009,0.0128 -0.009,-0.0614 -2.2e-4,-0.0742 0.004,-0.10727 0.009,-0.0735 z m 0,-0.26983 c 0.005,0.0338 0.005,0.0945 2.3e-4,0.13491 -0.005,0.0404 -0.009,0.0128 -0.009,-0.0614 -2.2e-4,-0.0742 0.004,-0.10727 0.009,-0.0735 z m -4.7e-4,-0.17949 c 0.006,0.0216 0.006,0.0571 0,0.0787 -0.006,0.0216 -0.0103,0.004 -0.0103,-0.0394 0,-0.0433 0.005,-0.061 0.0103,-0.0393 z m 4.7e-4,-0.24775 c 0.005,0.0338 0.005,0.0945 2.3e-4,0.13492 -0.005,0.0404 -0.009,0.0128 -0.009,-0.0614 -2.2e-4,-0.0742 0.004,-0.10727 0.009,-0.0735 z m 0,-0.24694 c 0.005,0.034 0.005,0.0897 0,0.12367 -0.005,0.034 -0.009,0.006 -0.009,-0.0618 0,-0.068 0.004,-0.0958 0.009,-0.0618 z m 0.0795,-0.0913 c 0.0367,-0.007 0.0394,0.0344 0.0394,0.61994 0,0.34513 -0.006,0.63356 -0.0135,0.64096 -0.007,0.007 -0.0278,0.008 -0.0453,10e-4 -0.0267,-0.0102 -0.0309,-0.11404 -0.0259,-0.63339 0.005,-0.57094 0.009,-0.62176 0.0453,-0.62871 z m 0.4095,-0.004 c 0.43984,0 0.68274,0.0318 0.73908,0.0968 0.0365,0.0421 0.0372,0.0502 0.007,0.0726 -0.0189,0.0138 -0.25226,0.10399 -0.51854,0.20034 l -0.48413,0.1752 0.005,0.0902 0.005,0.0903 0.50594,0.18431 c 0.2808,0.10229 0.50494,0.19605 0.50369,0.21068 -0.005,0.0577 -0.0105,0.0671 -0.0483,0.0824 -0.0876,0.0353 -0.50621,0.0775 -0.77576,0.0782 l -0.2867,9.5e-4 0,-0.64085 0,-0.64086 0.34761,0 z m -0.0834,1.33808 c 0.80357,-0.089 0.88258,-0.10845 0.88258,-0.21726 0,-0.0228 0.004,-0.0415 0.009,-0.0415 0.005,0 0.0937,0.0317 0.19675,0.0704 0.17644,0.0662 0.26518,0.11797 0.24205,0.1411 -0.0156,0.0156 -1.42111,0.12471 -1.44181,0.11192 -0.0465,-0.0287 -0.007,-0.0515 0.11111,-0.0646 z m 1.56473,-0.49598 c 0.89758,0.10574 1.67671,0.19226 1.73138,0.19226 0.0609,0 0.11024,0.0131 0.1274,0.0337 0.0241,0.0291 0.0149,0.0337 -0.0673,0.0337 -0.0732,0 -0.11976,0.0179 -0.20056,0.0773 l -0.10525,0.0773 -0.83703,0.005 c -0.71252,0.004 -0.8428,-4.6e-4 -0.8759,-0.0289 -0.0214,-0.0184 -0.36269,-0.15355 -0.75844,-0.30039 -0.39575,-0.14685 -0.70307,-0.2703 -0.68291,-0.27435 0.0202,-0.004 0.77103,0.0792 1.66862,0.1849 z m -1.59387,-0.3041 c -0.007,-0.0112 9.5e-4,-0.0151 0.0177,-0.009 0.0371,0.0142 1.29148,-0.44821 1.34359,-0.49536 0.032,-0.0289 0.15941,-0.0339 0.86935,-0.0339 l 0.83188,0 0.1107,0.0787 c 0.0784,0.0558 0.1349,0.0787 0.19376,0.0787 0.0457,0 0.0896,0.0106 0.0976,0.0236 0.0268,0.0434 0.078,-0.0258 0.078,-0.10549 l 0,-0.0764 0.0858,0.0438 c 0.0472,0.0241 0.0985,0.059 0.11388,0.0776 0.0447,0.0539 -0.0485,0.0881 -0.26705,0.0981 -0.10519,0.005 -0.91916,0.0942 -1.80883,0.19863 -0.88968,0.10448 -1.65364,0.18916 -1.69771,0.18819 l -0.0801,-0.002 0.062,-0.0226 c 0.0341,-0.0124 0.0563,-0.0318 0.0494,-0.043 z m 0.63639,-0.6298 c 0.38023,0.0288 0.69891,0.0568 0.70819,0.0622 0.0347,0.0201 0.0149,0.054 -0.045,0.0771 -0.29558,0.11408 -0.40625,0.14786 -0.39587,0.12082 0.0207,-0.0541 -0.0364,-0.12142 -0.12169,-0.14351 -0.0462,-0.0119 -0.24079,-0.0381 -0.43248,-0.0581 -0.434,-0.0452 -0.46418,-0.0512 -0.43036,-0.085 0.0195,-0.0195 0.19609,-0.013 0.71718,0.0265 z m 0.9731,-0.0293 c 1.8183,0.0657 1.72966,0.0609 1.81881,0.0979 0.0547,0.0227 0.0693,0.0423 0.0693,0.0934 0,0.0623 -0.004,0.0647 -0.10682,0.0641 -0.0851,-4.8e-4 -0.12278,-0.0141 -0.18551,-0.0672 -0.0527,-0.0446 -0.0701,-0.0722 -0.0527,-0.0837 0.0143,-0.009 -0.37529,-0.0182 -0.86572,-0.0195 -0.64311,-0.002 -0.97319,-0.0119 -1.18402,-0.0367 -0.16077,-0.0188 -0.46709,-0.0471 -0.68069,-0.0627 -0.21362,-0.0156 -0.38532,-0.0315 -0.38157,-0.0353 0.004,-0.004 0.70976,0.0186 1.5689,0.0496 z m 0.19043,1.42673 c 0.74062,-0.0303 1.25476,-0.0293 1.33084,0.002 0.0511,0.0214 -0.2126,0.0363 -1.36456,0.077 -0.78533,0.0277 -1.48858,0.05 -1.56279,0.0494 -0.24053,-0.002 1.06378,-0.10719 1.59651,-0.12896 z m -0.27681,-0.84689 c 0.77061,-0.0914 1.55116,-0.17612 1.73454,-0.18835 0.36844,-0.0246 0.49833,-0.0506 0.51881,-0.104 0.0179,-0.0465 9.5e-4,-0.071 -0.0845,-0.12314 -0.0697,-0.0425 -0.0103,-0.0431 4.66831,-0.0431 l 4.73895,-9e-5 0,0.64085 0,0.64086 -4.74589,0 c -3.15821,0 -4.74125,-0.008 -4.732,-0.0225 0.008,-0.0124 0.0267,-0.0225 0.0424,-0.0225 0.0157,0 0.0524,-0.0255 0.0817,-0.0567 0.0481,-0.0512 0.0499,-0.06 0.0183,-0.0916 -0.0456,-0.0456 -0.17912,-0.0756 -0.33357,-0.0751 -0.13228,4.8e-4 -3.33056,-0.36617 -3.31653,-0.3802 0.005,-0.005 0.63886,-0.0831 1.40947,-0.17446 z m 1.68663,0.73498 c 0.0714,-0.0525 0.11822,-0.0694 0.19255,-0.0694 0.0972,0 0.0981,4.7e-4 0.0911,0.0731 -0.006,0.0644 -0.0187,0.0767 -0.10489,0.10404 -0.0808,0.0256 -0.11307,0.0259 -0.18551,0.002 -0.0482,-0.0159 -0.0877,-0.0315 -0.0877,-0.0346 0,-0.003 0.0425,-0.0369 0.0944,-0.0751 z m 0.36097,-0.14747 c 0.19884,0.033 0.23025,0.10007 0.0787,0.16819 l -0.0956,0.0429 -0.007,-0.0761 c -0.004,-0.0418 -0.0215,-0.0882 -0.0393,-0.10302 -0.0515,-0.0427 -0.0391,-0.049 0.0631,-0.0321 z m 10.65279,-1.04623 1.10182,0 0,0.64085 0,0.64085 -1.10182,0 -1.10182,0 0,-0.64085 0,-0.64085 1.10182,0 z m 2.59749,0 1.47319,0 -0.006,0.63522 -0.006,0.63524 -1.43911,0.006 c -0.79151,0.003 -1.45176,9.5e-4 -1.46722,-0.005 -0.0216,-0.008 -0.0281,-0.15753 -0.0281,-0.64106 l 0,-0.63032 1.47319,0 z m 1.71984,0.65209 0.22486,0 0,0.42724 c 0,0.25968 -0.009,0.42723 -0.0217,0.42723 -0.0119,0 -0.0904,-0.0369 -0.17427,-0.0819 -0.28201,-0.15144 -0.25374,-0.10038 -0.25374,-0.45826 l 0,-0.31429 0.22486,0 z m -0.0141,-0.78548 c 0.11593,-0.0627 0.21733,-0.11396 0.22535,-0.11396 0.008,0 0.0118,0.19478 0.008,0.43285 l -0.006,0.43286 -0.21924,0.006 -0.21924,0.006 0,-0.32533 0,-0.32532 0.21078,-0.11397 z m 2.45626,0.78548 2.19483,0 -0.0151,0.0601 c -0.0197,0.0785 -0.0795,0.15266 -0.21909,0.27185 -0.3503,0.29902 -0.73369,0.45854 -1.2542,0.52187 -0.11142,0.0135 -0.75342,0.0232 -1.54593,0.0232 l -1.35537,0 0,-0.43848 0,-0.43848 2.19483,0 z m -0.85806,-0.92193 c 1.05858,0 1.39029,0.007 1.59394,0.0337 0.56116,0.0736 0.92993,0.23804 1.28158,0.57161 0.11125,0.10554 0.1725,0.19759 0.1725,0.25928 0,0.0312 -0.22736,0.0349 -2.1924,0.0349 l -2.19239,0 0,-0.44972 0,-0.44973 1.33677,0 z"
       id="path3109"
       inkscape:connector-curvature="0" />
    <path
       style="fill:#ffffff;fill-opacity:1;stroke:#000000;stroke-width:0.05;stroke-linecap:round;stroke-linejoin:bevel;stroke-miterlimit:4;stroke-opacity:1;stroke-dasharray:none"
       d="m 0.13319837,11.400271 c -0.002817,-0.171668 -0.007111,-0.226009 -0.0194954,-0.246692 -0.0226204,-0.03778 -0.02289263,-0.306603 -3.3801e-4,-0.33378 0.0119191,-0.01436 0.0172346,-0.06857 0.022788,-0.232406 0.003984,-0.117522 0.007731,-0.215401 0.008328,-0.21751 0.002906,-0.01026 0.092669,0.01553 0.20093409,0.05774 0.066149,0.02579 0.12583238,0.04689 0.13262967,0.04689 0.0148683,0 0.0195923,0.0949 0.0147886,0.297091 -4.8531e-4,0.02042 -9.443e-5,0.0634 8.6963e-4,0.09549 0.002036,0.06781 0.001925,0.161175 -2.8966e-4,0.244039 -8.5785e-4,0.0321 -0.00102,0.07507 -3.6076e-4,0.09549 0.001405,0.04353 7.7446e-4,0.209464 -0.001029,0.270565 -0.00111,0.03762 -0.004287,0.04257 -0.0279624,0.04357 -0.0146905,6.23e-4 -0.0889319,0.0233 -0.16498089,0.0504 -0.076049,0.0271 -0.14367075,0.04927 -0.15027062,0.04927 -0.008424,0 -0.013076,-0.0656 -0.015612,-0.220165 z"
       id="path3035"
       inkscape:connector-curvature="0"
       transform="translate(232.71436,799.38911)" />
    <path
       style="fill:#ffffff;fill-opacity:1;stroke:#000000;stroke-width:0.05;stroke-linecap:round;stroke-linejoin:bevel;stroke-miterlimit:4;stroke-opacity:1;stroke-dasharray:none"
       d="m 0.697306,10.999729 0,-0.610097 0.28477591,0 c 0.30107059,0 0.57122549,0.0193 0.66645049,0.04761 0.052811,0.0157 0.1100779,0.05134 0.099201,0.06174 -0.014086,0.01346 -0.5634708,0.220501 -0.92104798,0.347101 l -0.098744,0.03496 0.007281,0.112396 c 0.004005,0.06182 0.007855,0.113011 0.008556,0.113764 7.0115e-4,7.52e-4 0.12302886,0.04551 0.27183938,0.09946 0.3177723,0.115207 0.6906591,0.261158 0.7176497,0.280894 0.027853,0.02037 0.00376,0.04399 -0.05849,0.05734 -0.1590534,0.03411 -0.5428701,0.06494 -0.80854874,0.06494 l -0.1689219,0 0,-0.610096 z"
       id="path3037"
       inkscape:connector-curvature="0"
       transform="translate(232.71436,799.38911)" />
    <path
       style="fill:#ffffff;fill-opacity:1;stroke:#000000;stroke-width:0.05;stroke-linecap:round;stroke-linejoin:bevel;stroke-miterlimit:4;stroke-opacity:1;stroke-dasharray:none"
       d="m 1.8372936,10.470487 c -0.00904,-0.03604 -0.066437,-0.08799 -0.1168438,-0.105776 -0.04617,-0.01629 -0.1962535,-0.0391 -0.460794,-0.07004 -0.090453,-0.01058 -0.1429748,-0.01973 -0.1167141,-0.02034 0.087555,-0.002 0.9762267,0.06576 1.044504,0.07968 l 0.031213,0.0064 -0.025908,0.01339 c -0.031077,0.01607 -0.3258912,0.12196 -0.3395456,0.12196 -0.00527,0 -0.012426,-0.01136 -0.015912,-0.02525 z"
       id="path3039"
       inkscape:connector-curvature="0"
       transform="translate(232.71436,799.38911)" />
    <path
       style="fill:#ffffff;fill-opacity:1;stroke:#000000;stroke-width:0.05;stroke-linecap:round;stroke-linejoin:bevel;stroke-miterlimit:4;stroke-opacity:1;stroke-dasharray:none"
       d="m 0.9360394,10.922345 c 0.005836,-0.0055 0.0340029,-0.01559 0.0625938,-0.02252 0.1496484,-0.03629 1.0275794,-0.362788 1.2530926,-0.466025 l 0.084883,-0.03886 0.809351,-0.0034 0.8093511,-0.0034 0.066005,0.04701 c 0.093165,0.06635 0.1654364,0.100586 0.2316635,0.109734 0.048813,0.0067 0.014557,0.01229 -0.2346262,0.03797 -0.1604819,0.01654 -0.8337101,0.09188 -1.4960626,0.167428 -0.6623526,0.07555 -1.2806721,0.144802 -1.3740434,0.153903 -0.093371,0.0091 -0.18170262,0.01912 -0.19629189,0.02228 -0.0167215,0.0036 -0.0226042,0.0021 -0.0159156,-0.0042 z"
       id="path3041"
       inkscape:connector-curvature="0"
       transform="translate(232.71436,799.38911)" />
    <path
       style="fill:#ffffff;fill-opacity:1;stroke:#000000;stroke-width:0.05;stroke-linecap:round;stroke-linejoin:bevel;stroke-miterlimit:4;stroke-opacity:1;stroke-dasharray:none"
       d="m 2.3525243,11.578443 c -0.026261,-0.004 -0.097881,-0.02903 -0.1591556,-0.05555 -0.061275,-0.02653 -0.3464387,-0.138105 -0.6336973,-0.24795 -0.2872586,-0.109845 -0.5204927,-0.201514 -0.518298,-0.203709 0.00479,-0.0048 -0.0899557,-0.01525 1.512748,0.167005 0.7148739,0.08129 1.3845211,0.156024 1.4881049,0.166066 0.1035838,0.01004 0.1883341,0.02219 0.1883341,0.02701 0,0.0048 -0.00735,0.0087 -0.016338,0.0087 -0.025866,0 -0.099632,0.04058 -0.1759462,0.09679 l -0.070265,0.05175 -0.7838697,-0.0014 c -0.4311285,-7.8e-4 -0.8053559,-0.0047 -0.8316166,-0.0087 z"
       id="path3043"
       inkscape:connector-curvature="0"
       transform="translate(232.71436,799.38911)" />
    <path
       style="fill:#ffffff;fill-opacity:1;stroke:#000000;stroke-width:0.05;stroke-linecap:round;stroke-linejoin:bevel;stroke-miterlimit:4;stroke-opacity:1;stroke-dasharray:none"
       d="m 1.3074025,11.68382 c 0.2609488,-0.03344 0.3346709,-0.0461 0.4180949,-0.07183 0.065597,-0.02023 0.1177289,-0.06618 0.1177289,-0.10378 0,-0.01414 0.0041,-0.02571 0.00911,-0.02571 0.018382,0 0.2314777,0.08277 0.29225,0.113514 l 0.062628,0.03168 -0.078544,0.0073 c -0.3537588,0.03299 -0.9736331,0.08131 -1.022867,0.07973 -0.017507,-5.63e-4 0.073212,-0.01448 0.2015971,-0.03093 l 0,0 z"
       id="path3045"
       inkscape:connector-curvature="0"
       transform="translate(232.71436,799.38911)" />
    <path
       style="fill:#ffffff;fill-opacity:1;stroke:#000000;stroke-width:0.05;stroke-linecap:round;stroke-linejoin:bevel;stroke-miterlimit:4;stroke-opacity:1;stroke-dasharray:none"
       d="m 5.2650718,11.59917 c -0.3384709,-0.0031 -0.617789,-0.0069 -0.6207068,-0.0085 -0.00292,-0.0015 0.00197,-0.0086 0.01086,-0.0157 0.03118,-0.02493 0.063413,-0.07437 0.063413,-0.09725 0,-0.06709 -0.1240918,-0.117955 -0.3252233,-0.133307 -0.3746171,-0.02859 -2.9792515,-0.320362 -3.0966222,-0.34688 -0.039115,-0.0088 -0.07189,-0.0042 0.6207069,-0.08779 0.999415,-0.120618 2.0036437,-0.230874 2.3661133,-0.259779 0.1985753,-0.01584 0.3151522,-0.03614 0.3788182,-0.06599 0.05596,-0.02624 0.070203,-0.105074 0.027735,-0.153525 -0.012547,-0.01431 -0.012802,-0.01916 -0.0014,-0.02653 0.00767,-0.005 2.0992905,-0.01041 4.6480348,-0.01212 l 4.6340803,-0.0031 0,0.610556 0,0.610556 -4.0452045,-0.0025 c -2.2248628,-0.0014 -4.3221357,-0.005 -4.6606067,-0.0082 z"
       id="path3047"
       inkscape:connector-curvature="0"
       transform="translate(232.71436,799.38911)" />
    <path
       style="fill:#ffffff;fill-opacity:1;stroke:#000000;stroke-width:0.05;stroke-linecap:round;stroke-linejoin:bevel;stroke-miterlimit:4;stroke-opacity:1;stroke-dasharray:none"
       d="m 4.2134368,10.452641 c -0.04494,-0.01335 -0.1262534,-0.08657 -0.1185191,-0.106729 0.00893,-0.02328 0.1726231,-0.0074 0.2311286,0.0225 0.039087,0.01994 0.043366,0.02589 0.040428,0.05625 -0.00323,0.0334 -0.00422,0.03398 -0.061642,0.03587 -0.032096,0.0011 -0.073225,-0.0025 -0.091396,-0.0079 z"
       id="path3049"
       inkscape:connector-curvature="0"
       transform="translate(232.71436,799.38911)" />
    <path
       style="fill:#ffffff;fill-opacity:1;stroke:#000000;stroke-width:0.05;stroke-linecap:round;stroke-linejoin:bevel;stroke-miterlimit:4;stroke-opacity:1;stroke-dasharray:none"
       d="m 4.1309477,11.634978 -0.051866,-0.01604 0.057109,-0.04079 c 0.065928,-0.04709 0.1139348,-0.06382 0.183136,-0.06382 0.045708,0 0.049168,0.0019 0.049168,0.02722 0,0.04462 -0.018171,0.06559 -0.071519,0.08255 -0.081512,0.02591 -0.1111161,0.02785 -0.1660286,0.01087 z"
       id="path3051"
       inkscape:connector-curvature="0"
       transform="translate(232.71436,799.38911)" />
    <path
       style="fill:#ffffff;fill-opacity:1;stroke:#000000;stroke-width:0.05;stroke-linecap:round;stroke-linejoin:bevel;stroke-miterlimit:4;stroke-opacity:1;stroke-dasharray:none"
       d="m 4.459353,10.51961 c 0.00453,-0.01021 0.010326,-0.03918 0.01287,-0.06437 0.00532,-0.05266 0.00574,-0.05264 0.093912,0.0038 0.032867,0.02102 0.055559,0.04216 0.050426,0.04696 -0.010524,0.0098 -0.1102572,0.03222 -0.1436194,0.03222 -0.016861,0 -0.019956,-0.0042 -0.013589,-0.01857 z"
       id="path3053"
       inkscape:connector-curvature="0"
       transform="translate(232.71436,799.38911)" />
    <path
       style="fill:#ffffff;fill-opacity:1;stroke:#000000;stroke-width:0.05;stroke-linecap:round;stroke-linejoin:bevel;stroke-miterlimit:4;stroke-opacity:1;stroke-dasharray:none"
       d="m 4.4771658,11.516985 c -0.00643,-0.02772 -0.01479,-0.05841 -0.018581,-0.06821 -0.0063,-0.01628 -0.00206,-0.01667 0.049655,-0.0046 0.069231,0.01621 0.1069049,0.0356 0.101564,0.05227 -0.00357,0.01115 -0.099247,0.07002 -0.1148141,0.07065 -0.00337,1.36e-4 -0.011395,-0.02243 -0.017824,-0.05015 z"
       id="path3055"
       inkscape:connector-curvature="0"
       transform="translate(232.71436,799.38911)" />
    <path
       style="fill:#ffffff;fill-opacity:1;stroke:#000000;stroke-width:0.05;stroke-linecap:round;stroke-linejoin:bevel;stroke-miterlimit:4;stroke-opacity:1;stroke-dasharray:none"
       d="m 14.055766,10.999729 0,-0.610097 1.071648,0 1.071648,0 0,0.610097 0,0.610096 -1.071648,0 -1.071648,0 0,-0.610096 z"
       id="path3057"
       inkscape:connector-curvature="0"
       transform="translate(232.71436,799.38911)" />
    <path
       style="fill:#ffffff;fill-opacity:1;stroke:#000000;stroke-width:0.05;stroke-linecap:round;stroke-linejoin:bevel;stroke-miterlimit:4;stroke-opacity:1;stroke-dasharray:none"
       d="m 16.473815,11.602467 -0.176188,-0.0038 -0.0068,-0.08093 c -0.0038,-0.04451 -0.0068,-0.316555 -0.0068,-0.604542 l 0,-0.523613 1.442928,0 1.442928,0 -0.0067,0.602139 c -0.0037,0.331176 -0.0072,0.602765 -0.0079,0.60353 -0.0031,0.0037 -2.52795,0.01043 -2.681415,0.0072 l 0,0 z"
       id="path3059"
       inkscape:connector-curvature="0"
       transform="translate(232.71436,799.38911)" />
    <path
       style="fill:#ffffff;fill-opacity:1;stroke:#000000;stroke-width:0.05;stroke-linecap:round;stroke-linejoin:bevel;stroke-miterlimit:4;stroke-opacity:1;stroke-dasharray:none"
       d="m 19.254836,10.658844 c 10e-6,-0.225883 0.0032,-0.301082 0.01328,-0.309292 0.0073,-0.006 0.09324,-0.05232 0.190987,-0.103009 l 0.177724,-0.09216 0,0.253883 c 0,0.139635 -0.0031,0.318888 -0.0069,0.398339 l -0.0069,0.144458 -0.184072,0.0031 -0.184072,0.0031 1.3e-5,-0.298443 z"
       id="path3061"
       inkscape:connector-curvature="0"
       transform="translate(232.71436,799.38911)" />
    <path
       style="fill:#ffffff;fill-opacity:1;stroke:#000000;stroke-width:0.05;stroke-linecap:round;stroke-linejoin:bevel;stroke-miterlimit:4;stroke-opacity:1;stroke-dasharray:none"
       d="m 19.476632,11.746595 c -0.07935,-0.04079 -0.160522,-0.08772 -0.180377,-0.104291 l -0.0361,-0.03012 -0.0031,-0.287657 -0.0031,-0.287658 0.191474,0 0.191474,0 -0.0011,0.368711 c -5.81e-4,0.20279 -0.0042,0.379168 -0.008,0.391949 -0.0066,0.02239 -0.01218,0.02052 -0.151176,-0.05093 z"
       id="path3063"
       inkscape:connector-curvature="0"
       transform="translate(232.71436,799.38911)" />
    <path
       style="fill:#ffffff;fill-opacity:1;stroke:#000000;stroke-width:0.05;stroke-linecap:round;stroke-linejoin:bevel;stroke-miterlimit:4;stroke-opacity:1;stroke-dasharray:none"
       d="m 19.721706,11.445365 0,-0.4085 2.160361,0 2.160362,0 -0.0071,0.02918 c -0.01875,0.07706 -0.139047,0.204513 -0.321479,0.340616 -0.29188,0.217757 -0.602689,0.344548 -1.005322,0.410108 -0.175321,0.02855 -0.556232,0.03631 -1.801111,0.03671 l -1.185709,3.82e-4 0,-0.408499 z"
       id="path3065"
       inkscape:connector-curvature="0"
       transform="translate(232.71436,799.38911)" />
    <path
       style="fill:#ffffff;fill-opacity:1;stroke:#000000;stroke-width:0.05;stroke-linecap:round;stroke-linejoin:bevel;stroke-miterlimit:4;stroke-opacity:1;stroke-dasharray:none"
       d="m 19.721706,10.536659 0,-0.425933 1.21754,0.0073 c 0.669648,0.004 1.309889,0.01187 1.42276,0.01742 0.683191,0.03366 1.155498,0.218931 1.540187,0.604178 0.08687,0.087 0.151151,0.181438 0.134694,0.197896 -0.012,0.012 -1.387872,0.02338 -2.93318,0.02426 l -1.382001,7.89e-4 0,-0.425934 z"
       id="path3067"
       inkscape:connector-curvature="0"
       transform="translate(232.71436,799.38911)" />
  </g>
</svg>
