<svg xmlns="http://www.w3.org/2000/svg" width="24.163" height="25.972"><g fill="#fff" stroke="#000" stroke-width=".05"><path d="M.085 11.168c.014 0 .023.097.023.248v.247l.06-.014c.035-.01.12-.04.192-.07.12-.05.13-.05.13-.01s.103.09.216.09c.055 0 .07.01.063.03-.01.01.01.05.03.08.06.06-.05.06 1.79 0 1.08-.04 1.54-.06 1.65-.08.14-.03 1.1-.03 7.55-.03h7.4l.22.12.22.12h1.41c1.16 0 1.45-.01 1.64-.04.51-.08.86-.24 1.2-.55.15-.14.19-.22.19-.34 0-.13-.04-.2-.19-.34-.29-.27-.61-.43-1.04-.53-.217-.05-.27-.05-1.71-.06l-1.49-.01-.23.12-.23.12h-7.42c-5.064 0-7.444-.01-7.5-.025-.04-.018-.82-.05-1.74-.08-1.55-.05-1.66-.054-1.71-.016-.03.02-.064.052-.07.08-.008.023-.033.04-.067.04-.08 0-.21.06-.21.1 0 .042.015.044-.145-.02-.076-.03-.16-.058-.187-.058-.05 0-.05.005-.05.234 0 .144-.01.237-.024.237s-.02.07-.02.18.01.18.02.18zm.443.23c.005.034.005.094 0 .135-.004.04-.008.013-.008-.062 0-.07.004-.1.01-.07zm0-.27c.005.034.005.095 0 .135-.004.04-.008.013-.008-.06 0-.076.004-.11.01-.075zm0-.18c.006.022.006.058 0 .08-.006.02-.01.003-.01-.04 0-.043.005-.06.01-.04zm0-.247c.005.04.005.1 0 .14-.004.04-.008.02-.008-.06 0-.07.004-.1.01-.07zm0-.24c.005.04.005.09 0 .13s-.01.01-.01-.06.005-.09.01-.06zm.08-.09c.037-.01.04.04.04.62 0 .35-.007.63-.014.64-.007.01-.028.01-.046 0-.026-.01-.03-.11-.025-.63.005-.57.01-.62.045-.63zm.41 0c.44 0 .682.03.738.1.037.04.038.05.007.08-.018.02-.252.11-.518.2l-.484.18.01.09.01.09.51.19c.28.1.51.2.51.21 0 .06-.01.07-.05.08-.09.04-.5.08-.77.08h-.3v-1.28h.35zM.934 11.7c.803-.09.883-.11.883-.218 0-.024.004-.043.01-.043.004 0 .092.03.195.07.177.06.265.11.242.14-.015.01-1.42.12-1.442.11-.046-.03-.007-.05.112-.07zm1.566-.5c.896.106 1.675.193 1.73.193.06 0 .11.013.127.034.025.03.015.033-.067.033-.073 0-.12.018-.2.078l-.106.077-.837.005c-.712.004-.843 0-.876-.03-.02-.017-.36-.153-.75-.3-.39-.146-.7-.27-.68-.274.02-.004.77.08 1.67.185zm-1.595-.303c-.007-.012 0-.016.017-.01.038.015 1.292-.448 1.344-.495.032-.03.16-.034.87-.034h.83l.112.08c.078.055.135.078.194.078.045 0 .09.01.097.023.02.04.07-.03.07-.11v-.08l.08.04c.04.02.1.06.11.08.04.05-.05.08-.27.09-.11 0-.92.09-1.81.2-.89.1-1.66.19-1.7.18H.79l.062-.03c.034-.02.057-.04.05-.05zm.636-.63c.38.03.7.057.71.062.04.02.02.05-.04.07-.29.11-.4.15-.39.12.02-.06-.03-.12-.12-.15-.04-.01-.24-.04-.43-.06-.43-.05-.46-.05-.43-.09.02-.02.2-.02.72.02zm.98-.03c1.82.066 1.73.06 1.82.098.06.023.07.043.07.094 0 .06 0 .06-.1.06-.08 0-.12-.02-.18-.07-.05-.05-.07-.08-.05-.09.02-.01-.37-.02-.86-.02-.64 0-.97-.01-1.18-.04-.16-.02-.46-.05-.68-.07-.21-.02-.38-.03-.38-.04.01-.01.71.01 1.57.05zm.19 1.427c.74-.03 1.26-.03 1.33.002.05.022-.21.036-1.36.077-.78.028-1.49.05-1.56.05-.24-.002 1.07-.108 1.6-.13zm-.27-.847c.77-.09 1.55-.176 1.74-.188.37-.03.5-.06.52-.11.02-.05 0-.07-.08-.13-.07-.05-.01-.05 4.67-.05h4.74v1.28H9.26c-3.157 0-4.74-.01-4.73-.02.007-.02.026-.03.042-.03.013 0 .05-.03.08-.06.047-.05.05-.06.02-.09-.048-.05-.18-.08-.336-.08-.132 0-3.33-.37-3.317-.38 0-.01.64-.09 1.41-.18zm1.69.735c.07-.052.12-.07.19-.07.1 0 .1 0 .09.074 0 .064-.02.077-.1.104-.08.026-.11.026-.18.002-.05-.016-.09-.03-.09-.035 0-.003.05-.036.1-.075zm.36-.147c.2.033.23.1.08.168l-.09.043v-.076c0-.042-.02-.088-.04-.103-.05-.043-.04-.05.07-.032zm10.65-1.045h1.1v1.28h-2.21v-1.28h1.11zm2.6 0h1.47v1.268l-1.44.005c-.79.003-1.45 0-1.46-.005-.02-.008-.02-.157-.02-.64v-.63h1.48zm1.72.65h.23v.427c0 .26-.01.427-.02.427s-.09-.037-.17-.082c-.28-.15-.25-.1-.25-.458v-.314h.23zm-.01-.786c.12-.063.22-.114.23-.114.01 0 .01.196.01.434v.433l-.22.006-.22.006v-.66l.21-.12zm2.46.786h2.19l-.01.06c-.02.08-.08.153-.22.273-.35.3-.73.458-1.25.52-.11.015-.75.025-1.54.025H19.7v-.877h2.196zm-.86-.92c1.06 0 1.39.006 1.59.032.56.074.93.238 1.28.572.12.106.18.198.18.26 0 .03-.23.034-2.19.034h-2.2v-.9h1.34z"/><path d="M.133 11.4c-.003-.17-.007-.226-.02-.246-.022-.038-.022-.307 0-.334.012-.015.018-.07.023-.233l.008-.217c.003-.01.093.015.2.058.068.025.127.047.134.047.015 0 .02.094.015.297v.095c.003.068.003.16 0 .244v.37c-.002.04-.005.05-.03.05-.014 0-.088.03-.164.05l-.15.05c-.01 0-.02-.06-.02-.22zm.564-.4v-.61h.285c.3 0 .57.02.667.047.05.016.11.052.09.062-.02.01-.57.22-.92.34l-.1.03v.11l.01.11.27.1c.32.11.69.26.72.28.03.02 0 .04-.06.06-.16.03-.54.06-.81.06H.7V11zm1.14-.53c-.01-.036-.066-.088-.117-.105-.046-.017-.196-.04-.46-.07-.09-.01-.143-.02-.117-.02.087-.003.976.065 1.044.08l.032.005-.03.014c-.03.016-.33.122-.34.122-.01 0-.01-.012-.02-.025z" stroke-linecap="round" stroke-linejoin="bevel"/><path d="M.936 10.922c.006-.005.034-.015.063-.022.14-.036 1.02-.363 1.25-.466l.08-.04.81-.002.81-.004.06.047c.09.067.16.1.23.11.05.007.01.012-.24.038-.16.016-.84.092-1.5.167-.66.076-1.28.145-1.38.154l-.2.022c-.02.004-.03.003-.02-.004zm1.417.656c-.027-.004-.098-.03-.16-.055-.06-.027-.346-.138-.633-.248-.288-.11-.52-.202-.52-.204l1.514.17c.715.08 1.385.16 1.488.17.104.01.19.02.19.03 0 .01-.01.01-.018.01-.026 0-.1.04-.176.1l-.07.05h-.784c-.43 0-.805 0-.83-.01zm-1.046.106c.26-.034.335-.046.418-.072.066-.02.118-.066.118-.104 0-.014.004-.025.01-.025.018 0 .23.082.292.113l.062.032-.078.007c-.36.033-.98.08-1.03.08-.02 0 .07-.015.2-.03z" stroke-linecap="round" stroke-linejoin="bevel"/><path d="M5.265 11.6c-.338-.004-.618-.008-.62-.01-.004 0 0-.008.01-.015.03-.025.064-.074.064-.097 0-.067-.13-.118-.33-.134-.38-.028-2.98-.32-3.1-.346-.04-.01-.07-.005.62-.088 1-.12 2-.23 2.36-.26.2-.016.31-.036.38-.066.05-.026.07-.105.03-.154-.02-.014-.02-.02 0-.026 0-.005 2.09-.01 4.64-.012l4.63-.003v1.22l-4.04-.01c-2.23 0-4.32-.01-4.66-.01z" stroke-linecap="round" stroke-linejoin="bevel"/><path d="M4.213 10.453c-.045-.014-.126-.087-.118-.107.01-.023.173-.007.23.022.04.02.044.026.04.057-.002.033-.003.034-.06.036-.032.01-.073 0-.092 0zm-.083 1.182l-.05-.016.056-.05c.066-.05.114-.07.183-.07.04 0 .04 0 .04.03 0 .04-.02.06-.07.08-.09.02-.11.03-.17.01zm.33-1.115c.004-.01.01-.04.012-.065.006-.052.006-.052.094.004.033.02.056.04.05.04-.01.01-.11.03-.143.03-.017 0-.02-.01-.014-.02zm.017.997c-.006-.028-.015-.058-.018-.068-.01-.02-.01-.02.04-.01.07.01.1.03.1.05-.01.01-.1.07-.12.07-.01 0-.01-.02-.02-.05zm9.58-.517v-.61H16.2v1.22h-2.143V11zm2.417.602l-.176-.003-.007-.09v-1.13h2.89v.6l-.01.6s-2.53.01-2.68 0zm2.78-.942c0-.227.004-.302.014-.31.007-.006.093-.053.19-.103l.18-.093v.254c0 .14-.004.32-.008.4l-.007.143-.184.01-.19.01v-.3zm.223 1.087c-.08-.04-.16-.088-.18-.105l-.037-.03-.003-.287-.003-.288h.383v.37c-.002.2-.005.378-.01.39-.006.023-.01.02-.15-.05zm.245-.302v-.408h4.32l-.007.03c-.018.076-.14.204-.32.34-.293.217-.604.344-1.006.41-.18.028-.56.036-1.81.036h-1.18v-.408zm0-.908v-.426l1.217.01c.67.01 1.31.01 1.42.02.68.04 1.15.22 1.54.61.08.09.15.18.13.2-.01.01-1.39.02-2.94.03h-1.38v-.42z" stroke-linecap="round" stroke-linejoin="bevel"/></g></svg>