<svg xmlns="http://www.w3.org/2000/svg" width="24.206" height="24.335"><g stroke="#000" stroke-width=".05"><path d="M.11 12.19c.058 0 .404.127.455.168.028.022.04-.007.048-.11l.01-.137.48.01c.36 0 .527.02.662.06.17.05.787.06 9.396.06h9.22l.1-.08.1-.08h.72c.44 0 .74.01.78.04.03.02.39.13.81.24.41.11.82.24.9.28.18.1.35.3.38.46.05.24-.09.49-.35.64-.07.05-.48.18-.9.29-.42.12-.79.23-.82.25-.03.02-.352.04-.78.04h-.72l-.096-.08-.095-.08h-9.22c-8.49 0-9.23.005-9.36.05-.106.04-.26.05-.65.056l-.514.008-.01-.12c-.01-.1-.02-.12-.065-.1-.16.07-.39.14-.44.14-.04 0-.04-.05-.04-.26v-.26l.086.027c.05.01.174.057.275.097l.186.077v-.28c0-.16-.007-.286-.01-.286-.01 0-.09.033-.188.08-.094.04-.21.08-.26.09l-.087.02v-.56l.17.05c.09.027.21.07.258.094.05.025.094.045.103.045.01 0 .02-.13.02-.287v-.29l-.17.075c-.09.05-.21.09-.27.1l-.1.02v-.26c0-.2.01-.26.048-.26zm.897.41c.597.017 1.06-.077 1.035-.21-.015-.076-.27-.192-.506-.23-.237-.037-.843-.044-.877-.01-.02.012-.02.117-.02.232l.01.21.35.01zm-.112 1.096h.257v-1.058H.64v1.058h.255zm.177.497c.522 0 .673-.026.866-.15l.155-.097-.078-.06c-.043-.03-.144-.075-.223-.095-.164-.04-1.024-.08-1.103-.05-.05.02-.06.06-.05.24l.01.22h.41zm.408-.484c.22.01.34.04.464.1.093.04.168.09.168.11 0 .01-.03.06-.07.09l-.07.06H15.79v-1.82H1.972l.078.08.078.08-.078.06c-.114.08-.304.13-.602.15l-.264.01v1.04l.296.02zm15.622.37h1.282v-1.83h-2.562v1.82h1.28zm2.276 0c.615 0 .956-.01.944-.03-.01-.02.017-.04.062-.06l.082-.02v-1.62h-.084c-.06 0-.078-.02-.065-.05.016-.04-.1-.05-.942-.05h-.96v1.82h.963zm1.795-1.77c.784.01.894-.01.894-.13 0-.06-.045-.06-.762-.06-.644 0-.772.01-.834.05-.15.11-.07.12.71.13zm-.718 1.84c.048.05.118.06.832.06.744 0 .78-.01.78-.07 0-.04-.023-.07-.05-.08-.07-.03-1.615-.03-1.615 0 0 .01.023.04.053.08zm.78-.17h.736v-1.63H20.5v1.63h.736zm.832.07c.064.05.064.05.064-.89 0-.94 0-.95-.06-.89-.06.05-.06.09-.06.89s.01.84.07.89zm.12.09c.013 0 .323-.08.69-.18l.663-.19v-1.22l-.616-.17-.69-.19-.07-.02v.98c0 .54.01.98.023.98zm1.403-.39c.045 0 .232-.11.314-.19.113-.11.213-.3.213-.41 0-.11-.1-.3-.197-.39-.083-.08-.286-.2-.324-.21-.013 0-.024.26-.024.59 0 .32.008.59.018.59z"/><path fill="#fff" d="M.687 12.487c-.023-.142-.015-.26.022-.298.03-.04.07-.04.39-.03.38.01.59.05.76.14.16.08.16.12-.03.18-.17.05-.4.07-.78.07H.7l-.013-.08zm-.013.687v-.492h.44v.982h-.44v-.49zm.013.902c-.018-.133-.016-.255.006-.29.014-.023.082-.025.395-.015.208.01.45.03.538.04.168.03.373.1.386.13.01.04-.266.17-.386.19-.055.01-.286.03-.513.03l-.413.02-.013-.09z" stroke-linecap="round" stroke-linejoin="bevel"/><path fill="#fff" d="M2.12 13.977l.04-.068-.066-.06c-.037-.03-.11-.07-.166-.1-.112-.05-.423-.1-.597-.1h-.11v-.98l.18-.02c.38-.03.6-.09.75-.21l.05-.04-.07-.07-.06-.08h13.7v1.76H2.08l.04-.07zm13.733-.814v-.882h2.486v1.77h-2.49v-.88zm2.607.002v-.884h.325c.18 0 .59.01.91.02.546.02.587.02.596.05.01.03.03.04.08.04h.06v1.56l-.08.05c-.08.05-.09.05-.98.06l-.89.01v-.88zm2.065-.002v-.782h1.403v1.57h-1.402v-.78zm.127-.895c-.2-.014-.232-.03-.138-.073.047-.02.13-.024.726-.028.37-.003.7 0 .734.004.077.02.08.05.007.08-.04.02-.12.03-.65.03h-.67zm-.035 1.896c-.105-.013-.137-.023-.147-.05-.018-.046 1.504-.046 1.55 0 .052.053.01.056-.663.058-.357.002-.69-.002-.74-.008zm1.445-.178c-.017-.036-.02-.168-.02-.822 0-.686.002-.785.022-.82.022-.04.023-.03.032.196.01.293.01 1.054-.003 1.304-.01.175-.01.182-.03.142zm.15.098c-.003-.01-.01-.434-.016-.94l-.01-.922.12.033c.065.018.362.1.66.18l.543.147-.01.588-.01.587-.17.048-.58.154c-.23.05-.44.11-.47.12-.06.01-.07.01-.08 0zm1.396-.867c0-.27.004-.516.01-.545l.008-.05.05.03c.105.06.224.153.27.21.07.087.13.227.132.298.002.11-.088.282-.202.387-.065.06-.224.163-.252.163-.01 0-.016-.14-.016-.493z" stroke-linecap="round" stroke-linejoin="bevel"/></g></svg>