<?xml version="1.0" encoding="UTF-8" standalone="no"?>
<!-- Created with Inkscape (http://www.inkscape.org/) -->

<svg
   xmlns:dc="http://purl.org/dc/elements/1.1/"
   xmlns:cc="http://creativecommons.org/ns#"
   xmlns:rdf="http://www.w3.org/1999/02/22-rdf-syntax-ns#"
   xmlns:svg="http://www.w3.org/2000/svg"
   xmlns="http://www.w3.org/2000/svg"
   xmlns:sodipodi="http://sodipodi.sourceforge.net/DTD/sodipodi-0.dtd"
   xmlns:inkscape="http://www.inkscape.org/namespaces/inkscape"
   width="24.206427"
   height="24.334999"
   id="svg2"
   version="1.1"
   inkscape:version="0.48.4 r9939"
   sodipodi:docname="New document 1">
  <defs
     id="defs4" />
  <sodipodi:namedview
     id="base"
     pagecolor="#ffffff"
     bordercolor="#666666"
     borderopacity="1.0"
     inkscape:pageopacity="0.0"
     inkscape:pageshadow="2"
     inkscape:zoom="70.53031"
     inkscape:cx="19.524886"
     inkscape:cy="13.10381"
     inkscape:document-units="px"
     inkscape:current-layer="layer1"
     showgrid="false"
     fit-margin-top="12"
     fit-margin-left="0"
     fit-margin-right="0"
     fit-margin-bottom="10"
     inkscape:window-width="1366"
     inkscape:window-height="750"
     inkscape:window-x="0"
     inkscape:window-y="18"
     inkscape:window-maximized="1" />
  <metadata
     id="metadata7">
    <rdf:RDF>
      <cc:Work
         rdf:about="">
        <dc:format>image/svg+xml</dc:format>
        <dc:type
           rdf:resource="http://purl.org/dc/dcmitype/StillImage" />
        <dc:title></dc:title>
      </cc:Work>
    </rdf:RDF>
  </metadata>
  <g
     inkscape:label="Layer 1"
     inkscape:groupmode="layer"
     id="layer1"
     transform="translate(-229.36593,-690.15617)">
    <path
       style="fill:#000000;stroke:#000000;stroke-width:0.05;stroke-miterlimit:4;stroke-opacity:1;stroke-dasharray:none"
       d="m 229.47534,702.34715 c 0.059,0 0.40472,0.12648 0.45567,0.16672 0.028,0.0221 0.0408,-0.007 0.0481,-0.10836 l 0.01,-0.13843 0.48044,8.9e-4 c 0.35911,8.9e-4 0.52619,0.015 0.66155,0.0561 0.16918,0.0513 0.7868,0.0548 9.39612,0.0548 l 9.21504,0 0.0952,-0.0801 0.0952,-0.0801 0.71865,0 c 0.43921,0 0.74027,0.0129 0.77426,0.0332 0.0306,0.0183 0.39162,0.12531 0.80229,0.23785 0.41066,0.11255 0.81424,0.23973 0.89684,0.28262 0.17736,0.0921 0.34712,0.29874 0.37721,0.45911 0.0438,0.23325 -0.0963,0.48713 -0.35054,0.63527 -0.073,0.0426 -0.47867,0.17199 -0.90146,0.28765 -0.4228,0.11565 -0.79374,0.22469 -0.82434,0.2423 -0.0326,0.0188 -0.35558,0.032 -0.7801,0.032 l -0.72449,0 -0.0952,-0.0801 -0.0952,-0.0801 -9.21811,0 c -8.49089,0 -9.22916,0.004 -9.35826,0.0529 -0.10731,0.0405 -0.26023,0.0536 -0.65262,0.0561 l -0.51248,0.004 -0.0101,-0.12274 c -0.008,-0.1007 -0.0198,-0.11873 -0.0641,-0.10043 -0.16133,0.0667 -0.39491,0.14309 -0.43752,0.14309 -0.0398,0 -0.0489,-0.0483 -0.0489,-0.25971 l 0,-0.25971 0.0881,0.0218 c 0.0484,0.012 0.17096,0.0551 0.27225,0.0958 l 0.18417,0.0741 0,-0.28455 c 0,-0.1565 -0.005,-0.28455 -0.0122,-0.28455 -0.006,0 -0.0896,0.0344 -0.18418,0.0765 -0.0946,0.0421 -0.21165,0.0856 -0.2601,0.0967 l -0.0881,0.0201 0,-0.27113 0,-0.27114 0.16816,0.0498 c 0.0925,0.0274 0.20708,0.0699 0.25464,0.0944 0.0475,0.0245 0.0944,0.0446 0.1041,0.0446 0.01,0 0.0176,-0.12892 0.0176,-0.28649 l 0,-0.28651 -0.16815,0.0754 c -0.0925,0.0415 -0.21501,0.0851 -0.27226,0.0969 l -0.10409,0.0214 0,-0.25879 c 0,-0.20573 0.01,-0.25878 0.0468,-0.25878 z m 0.89804,0.41 c 0.59685,0.0163 1.06031,-0.0777 1.03488,-0.20981 -0.015,-0.0776 -0.26939,-0.19364 -0.50639,-0.23097 -0.23732,-0.0374 -0.8427,-0.0447 -0.87679,-0.0106 -0.0125,0.0125 -0.0185,0.11697 -0.0134,0.23222 l 0.009,0.20955 0.35234,0.01 z m -0.11211,1.09541 0.25624,0 0,-0.5285 0,-0.52849 -0.25624,0 -0.25624,0 0,0.52849 0,0.5285 0.25624,0 z m 0.17617,0.49646 c 0.52245,0 0.67312,-0.0258 0.86682,-0.14869 l 0.15447,-0.098 -0.0782,-0.059 c -0.043,-0.0325 -0.1431,-0.0757 -0.22237,-0.096 -0.16411,-0.042 -1.02379,-0.0824 -1.10347,-0.0518 -0.0429,0.0165 -0.0508,0.0598 -0.0431,0.23681 l 0.01,0.21664 0.41639,0 z m 0.40838,-0.484 c 0.21968,0.016 0.33975,0.0427 0.46444,0.10303 0.0925,0.0448 0.16814,0.0942 0.16814,0.10982 0,0.0157 -0.0315,0.0578 -0.07,0.0937 l -0.0701,0.0653 6.90848,0 6.90846,0 0,-0.91285 0,-0.91285 -6.90801,0 -6.90801,0 0.0773,0.0822 0.0773,0.0823 -0.0778,0.0587 c -0.11455,0.0864 -0.3044,0.13484 -0.602,0.1536 l -0.26425,0.0166 0,0.51939 0,0.51938 0.29628,0.0216 z m 15.62255,0.3719 1.28119,0 0,-0.91286 0,-0.91285 -1.28119,0 -1.28119,0 0,0.91285 0,0.91286 1.28119,0 z m 2.276,0 c 0.61433,0 0.95584,-0.0113 0.94358,-0.0311 -0.0106,-0.0171 0.0174,-0.0403 0.0621,-0.0515 l 0.0814,-0.0205 0,-0.81328 0,-0.81329 -0.0835,0 c -0.0611,0 -0.0785,-0.0129 -0.0651,-0.0481 0.0161,-0.042 -0.10138,-0.0481 -0.94146,-0.0481 l -0.95989,0 0,0.91285 0,0.91285 0.96278,0 z m 1.79444,-1.76882 c 0.78458,0.009 0.89418,-0.006 0.89418,-0.12636 0,-0.0552 -0.0448,-0.0587 -0.76159,-0.0587 -0.64495,0 -0.77275,0.008 -0.83445,0.051 -0.15597,0.10924 -0.0744,0.12481 0.70186,0.13396 z m -0.71836,1.83836 c 0.0486,0.0537 0.11803,0.0586 0.83278,0.0586 0.74372,0 0.77976,-0.003 0.77976,-0.0606 0,-0.0334 -0.0228,-0.0693 -0.0506,-0.0801 -0.0695,-0.0267 -1.61489,-0.0247 -1.61489,0.002 0,0.0118 0.0239,0.0479 0.0531,0.0801 z m 0.77976,-0.16563 0.73669,0 0,-0.81677 0,-0.81675 -0.73669,0 -0.73668,0 0,0.81675 0,0.81677 0.73668,0 z m 0.83278,0.0726 c 0.0638,0.0546 0.0641,0.0518 0.0641,-0.8894 0,-0.94119 -1.9e-4,-0.94408 -0.0641,-0.88941 -0.061,0.0522 -0.0641,0.0945 -0.0641,0.88941 0,0.79492 0.003,0.83715 0.0641,0.8894 z m 0.12011,0.0879 c 0.0133,1.9e-4 0.32311,-0.0814 0.68865,-0.18161 l 0.66461,-0.1821 0,-0.61194 0,-0.61196 -0.61656,-0.16864 c -0.33912,-0.0927 -0.64902,-0.17693 -0.68865,-0.18707 l -0.0721,-0.0184 0,0.98064 c 0,0.53935 0.0108,0.98086 0.024,0.98112 z m 1.4029,-0.38483 c 0.045,0 0.2317,-0.11183 0.31363,-0.18783 0.1129,-0.10472 0.21327,-0.29519 0.21327,-0.40472 0,-0.10418 -0.0988,-0.2992 -0.19707,-0.38901 -0.0829,-0.0756 -0.2856,-0.20323 -0.32341,-0.20343 -0.0132,-6e-5 -0.024,0.26653 -0.024,0.59244 0,0.32591 0.008,0.59255 0.0176,0.59255 z"
       id="path3047"
       inkscape:connector-curvature="0" />
    <path
       style="fill:#ffffff;fill-opacity:1;stroke:#000000;stroke-width:0.05;stroke-linecap:round;stroke-linejoin:bevel;stroke-miterlimit:4;stroke-opacity:1;stroke-dasharray:none"
       d="m 0.68692975,12.486763 c -0.0234034,-0.14159 -0.0147148,-0.260969 0.0216397,-0.297323 0.0310556,-0.03106 0.07069,-0.03328 0.39601005,-0.02222 0.3844027,0.01306 0.5900431,0.05008 0.7657746,0.137845 0.1663349,0.08307 0.1609405,0.12553 -0.023302,0.183407 -0.1655471,0.052 -0.3938107,0.07349 -0.780822,0.07349 l -0.36687177,0 -0.0124284,-0.07519 z"
       id="path3817"
       inkscape:connector-curvature="0"
       transform="translate(229.36593,690.15617)" />
    <path
       style="fill:#ffffff;fill-opacity:1;stroke:#000000;stroke-width:0.05;stroke-linecap:round;stroke-linejoin:bevel;stroke-miterlimit:4;stroke-opacity:1;stroke-dasharray:none"
       d="m 0.67405996,13.173514 0,-0.491253 0.22056261,0 0.22056263,0 0,0.491253 0,0.491254 -0.22056263,0 -0.22056261,0 0,-0.491254 z"
       id="path3819"
       inkscape:connector-curvature="0"
       transform="translate(229.36593,690.15617)" />
    <path
       style="fill:#ffffff;fill-opacity:1;stroke:#000000;stroke-width:0.05;stroke-linecap:round;stroke-linejoin:bevel;stroke-miterlimit:4;stroke-opacity:1;stroke-dasharray:none"
       d="m 0.68720279,14.075876 c -0.0182027,-0.132803 -0.0159195,-0.255368 0.005384,-0.289022 0.0148631,-0.02348 0.0822321,-0.02614 0.39570301,-0.0156 0.2077847,0.007 0.4499745,0.02271 0.5381995,0.03494 0.1670929,0.02316 0.3728039,0.09324 0.3851426,0.131205 0.010153,0.03124 -0.2655607,0.165248 -0.3852555,0.187251 -0.055203,0.01015 -0.2861428,0.0249 -0.5131998,0.03278 l -0.41283104,0.01433 -0.0131428,-0.09589 z"
       id="path3821"
       inkscape:connector-curvature="0"
       transform="translate(229.36593,690.15617)" />
    <path
       style="fill:#ffffff;fill-opacity:1;stroke:#000000;stroke-width:0.05;stroke-linecap:round;stroke-linejoin:bevel;stroke-miterlimit:4;stroke-opacity:1;stroke-dasharray:none"
       d="m 2.1193694,13.977306 0.040377,-0.06843 -0.066139,-0.05045 C 2.0572305,13.83068 1.9826753,13.788778 1.9279288,13.765311 1.8160287,13.717345 1.5051338,13.665065 1.330735,13.664886 l -0.1152941,-1.18e-4 0,-0.489454 0,-0.489453 0.1754475,-0.01389 c 0.379745,-0.03006 0.5938844,-0.09001 0.7469052,-0.2091 l 0.050128,-0.03901 -0.0691,-0.07131 -0.0691,-0.07131 6.8513998,0 6.8513996,0 0,0.882251 0,0.88225 -6.8367643,0 -6.8367647,0 0.040377,-0.06843 z"
       id="path3823"
       inkscape:connector-curvature="0"
       transform="translate(229.36593,690.15617)" />
    <path
       style="fill:#ffffff;fill-opacity:1;stroke:#000000;stroke-width:0.05;stroke-linecap:round;stroke-linejoin:bevel;stroke-miterlimit:4;stroke-opacity:1;stroke-dasharray:none"
       d="m 15.852778,13.163489 0,-0.882251 1.243171,0 1.243171,0 0,0.882251 0,0.88225 -1.243171,0 -1.243171,0 0,-0.88225 z"
       id="path3825"
       inkscape:connector-curvature="0"
       transform="translate(229.36593,690.15617)" />
    <path
       style="fill:#ffffff;fill-opacity:1;stroke:#000000;stroke-width:0.05;stroke-linecap:round;stroke-linejoin:bevel;stroke-miterlimit:4;stroke-opacity:1;stroke-dasharray:none"
       d="m 18.459427,13.164948 0,-0.88371 0.325831,3.7e-5 c 0.179207,2.1e-5 0.589078,0.006 0.910824,0.01322 0.545081,0.01229 0.585652,0.0157 0.594645,0.05009 0.0067,0.02581 0.0283,0.03691 0.07168,0.03691 l 0.06203,0 0,0.779899 0,0.7799 -0.08522,0.046 c -0.08457,0.04565 -0.09206,0.04606 -0.982507,0.05368 l -0.897288,0.0077 0,-0.883709 z"
       id="path3827"
       inkscape:connector-curvature="0"
       transform="translate(229.36593,690.15617)" />
    <path
       style="fill:#ffffff;fill-opacity:1;stroke:#000000;stroke-width:0.05;stroke-linecap:round;stroke-linejoin:bevel;stroke-miterlimit:4;stroke-opacity:1;stroke-dasharray:none"
       d="m 20.524695,13.163489 0,-0.781995 0.70179,0 0.70179,0 0,0.781995 0,0.781995 -0.70179,0 -0.70179,0 0,-0.781995 z"
       id="path3829"
       inkscape:connector-curvature="0"
       transform="translate(229.36593,690.15617)" />
    <path
       style="fill:#ffffff;fill-opacity:1;stroke:#000000;stroke-width:0.05;stroke-linecap:round;stroke-linejoin:bevel;stroke-miterlimit:4;stroke-opacity:1;stroke-dasharray:none"
       d="m 20.652061,12.268439 c -0.200449,-0.01395 -0.232017,-0.03065 -0.138238,-0.07314 0.04714,-0.02136 0.129501,-0.0246 0.726638,-0.02862 0.370408,-0.0025 0.700585,-5.05e-4 0.733727,0.0044 0.07636,0.01133 0.07931,0.04257 0.0071,0.07523 -0.04713,0.02131 -0.121637,0.02421 -0.655747,0.02555 -0.331417,8.27e-4 -0.634479,-7.17e-4 -0.673469,-0.0034 z"
       id="path3831"
       inkscape:connector-curvature="0"
       transform="translate(229.36593,690.15617)" />
    <path
       style="fill:#ffffff;fill-opacity:1;stroke:#000000;stroke-width:0.05;stroke-linecap:round;stroke-linejoin:bevel;stroke-miterlimit:4;stroke-opacity:1;stroke-dasharray:none"
       d="m 20.616615,14.163716 c -0.104933,-0.01242 -0.136561,-0.02311 -0.146731,-0.04961 -0.01763,-0.04595 1.503769,-0.04598 1.549776,-3.6e-5 0.05259,0.05253 0.01095,0.0562 -0.662927,0.05842 -0.356377,0.0012 -0.68943,-0.0028 -0.740118,-0.0088 z"
       id="path3833"
       inkscape:connector-curvature="0"
       transform="translate(229.36593,690.15617)" />
    <path
       style="fill:#ffffff;fill-opacity:1;stroke:#000000;stroke-width:0.05;stroke-linecap:round;stroke-linejoin:bevel;stroke-miterlimit:4;stroke-opacity:1;stroke-dasharray:none"
       d="m 22.062378,13.986033 c -0.01732,-0.03567 -0.02067,-0.16846 -0.02075,-0.822341 -8.1e-5,-0.686063 0.0026,-0.784691 0.02243,-0.820433 0.02153,-0.03883 0.02293,-0.03013 0.0319,0.197216 0.01152,0.29214 0.0095,1.053809 -0.0034,1.303775 -0.009,0.174642 -0.01062,0.182085 -0.03019,0.141783 l 0,0 z"
       id="path3835"
       inkscape:connector-curvature="0"
       transform="translate(229.36593,690.15617)" />
    <path
       style="fill:#ffffff;fill-opacity:1;stroke:#000000;stroke-width:0.05;stroke-linecap:round;stroke-linejoin:bevel;stroke-miterlimit:4;stroke-opacity:1;stroke-dasharray:none"
       d="m 22.213225,14.084209 c -0.0043,-0.01109 -0.01216,-0.434563 -0.01757,-0.941056 l -0.0098,-0.920897 0.11926,0.03275 c 0.06559,0.01801 0.363374,0.09904 0.661734,0.180053 l 0.542472,0.1473 -0.0037,0.58733 -0.0037,0.58733 -0.17014,0.04757 c -0.09358,0.02616 -0.351976,0.09577 -0.574221,0.154679 -0.222245,0.05891 -0.433894,0.115658 -0.47033,0.126105 -0.05659,0.01622 -0.06738,0.01605 -0.07398,-0.0012 l 0,1e-6 z"
       id="path3837"
       inkscape:connector-curvature="0"
       transform="translate(229.36593,690.15617)" />
    <path
       style="fill:#ffffff;fill-opacity:1;stroke:#000000;stroke-width:0.05;stroke-linecap:round;stroke-linejoin:bevel;stroke-miterlimit:4;stroke-opacity:1;stroke-dasharray:none"
       d="m 23.608393,13.21686 c 8.6e-5,-0.270983 0.004,-0.515976 0.0087,-0.544429 l 0.0086,-0.05173 0.05155,0.02991 c 0.103934,0.06031 0.222874,0.154041 0.26834,0.211474 0.06918,0.08738 0.131426,0.227083 0.132614,0.297614 0.0018,0.10957 -0.08863,0.282798 -0.202327,0.387385 -0.06465,0.05947 -0.22424,0.162476 -0.251728,0.162476 -0.0114,0 -0.01582,-0.138611 -0.01571,-0.492696 z"
       id="path3839"
       inkscape:connector-curvature="0"
       transform="translate(229.36593,690.15617)" />
  </g>
</svg>
