<svg xmlns="http://www.w3.org/2000/svg" width="24.0763" height="24.6511"><g fill="#fff" stroke="#000" stroke-width=".05"><path d="M522.039 107.3603c.0137 0 .0226.0976.0226.2478v.248l.0618-.014c.034-.008.12-.037.191-.065.1202-.047.1294-.048.1294-.01 0 .047.1037.09.2162.09.0547 0 .0714.008.0626.032-.007.017.0108.053.0387.079.0635.059-.0445.059 1.7962.002 1.0834-.033 1.5387-.055 1.6527-.08.1374-.029 1.098-.033 7.5534-.033h7.396l.2214.124.2215.124h1.4078c1.1608 0 1.4495-.006 1.6446-.035.507-.075.863-.238 1.205-.551.152-.139.193-.211.193-.335 0-.124-.042-.197-.192-.334-.291-.266-.612-.428-1.036-.524-.217-.048-.269-.05-1.713-.058l-1.49-.009-.228.125-.228.125h-7.423c-5.069 0-7.448-.007-7.502-.023-.043-.013-.826-.049-1.739-.08-1.556-.053-1.664-.054-1.717-.019-.032.021-.063.057-.069.081-.007.027-.031.043-.065.043-.083 0-.21.061-.21.1 0 .043.014.045-.146-.021-.074-.031-.158-.056-.186-.056-.049-.001-.05.006-.05.236 0 .142-.009.236-.023.236-.013 0-.023.075-.023.18s.009.18.022.18zm.4434.23c.005.034.005.0946.0002.135-.005.0404-.009.0128-.009-.0614-.0002-.075.004-.108.009-.074zm0-.2698c.005.0338.005.0945.0002.135-.005.0404-.009.0128-.009-.0614-.0002-.074.004-.107.009-.073zm-.0005-.1794c.006.022.006.058 0 .079s-.011.004-.011-.039.005-.061.01-.039zm0-.247c.005.034.005.095 0 .135-.005.041-.009.013-.009-.061s.004-.107.009-.073zm0-.247c.005.034.005.09 0 .124s-.009.006-.009-.061c0-.068.004-.096.009-.062zm.079-.091c.036-.007.039.035.039.62 0 .345-.006.634-.014.641-.007.007-.028.008-.046.001-.027-.01-.031-.114-.026-.633.005-.571.009-.622.045-.628zm.409-.004c.44 0 .682.032.739.097.036.042.037.05.007.073-.019.014-.252.104-.519.201l-.484.176.005.09.005.091.506.185c.28.103.505.196.503.211-.005.058-.011.067-.049.083-.088.036-.506.078-.776.078l-.287.001v-1.281h.347zm-.084 1.338c.803-.089.882-.108.882-.217 0-.023.004-.041.009-.041.005 0 .093.032.197.071.176.067.265.118.242.141-.016.016-1.421.125-1.442.112-.047-.028-.007-.051.111-.064zm1.564-.496c.897.106 1.676.192 1.731.192.061 0 .11.013.127.034.024.029.015.034-.068.034-.073 0-.12.018-.201.078l-.105.078-.837.005c-.713.004-.843 0-.876-.029-.022-.018-.363-.153-.759-.3-.396-.146-.703-.27-.683-.274.02-.004.771.079 1.669.185zm-1.594-.304c-.007-.011.001-.015.018-.009.037.014 1.291-.448 1.343-.495.032-.029.159-.034.869-.034h.832l.11.079c.078.056.135.079.193.079.045 0 .089.011.097.024.026.044.078-.025.078-.105v-.076l.085.044c.047.024.098.059.114.078.044.054-.049.088-.267.098-.106.005-.919.095-1.809.199-.89.105-1.654.189-1.698.188l-.08-.002.062-.022c.034-.012.056-.032.049-.043zm.636-.63c.38.029.699.057.708.063.034.02.015.054-.045.077-.296.114-.407.148-.396.121.021-.054-.037-.121-.122-.143-.047-.012-.241-.038-.433-.058-.434-.045-.464-.051-.431-.085.019-.019.196-.013.717.027zm.973-.029c1.818.066 1.729.061 1.819.098.054.023.069.042.069.094 0 .063-.004.065-.107.064-.085 0-.123-.014-.186-.067-.053-.044-.07-.072-.053-.084.014-.009-.376-.018-.866-.019-.643-.002-.974-.012-1.184-.036-.161-.019-.467-.047-.681-.062-.214-.015-.386-.031-.382-.035.004-.004.71.019 1.569.05zm.19 1.427c.74-.03 1.255-.029 1.331.002.051.022-.213.037-1.365.077-.786.028-1.489.05-1.563.05-.241-.002 1.063-.107 1.596-.129zm-.277-.847c.77-.091 1.551-.176 1.734-.188.368-.024.498-.05.519-.104.018-.046.001-.071-.085-.123-.07-.042-.01-.043 4.668-.043h4.739v1.282h-4.746c-3.159 0-4.742-.008-4.732-.022.008-.012.026-.022.042-.022s.052-.025.081-.056c.048-.051.05-.06.018-.091-.046-.045-.179-.075-.334-.075-.133.001-3.331-.366-3.317-.38.005-.005.639-.083 1.4093-.174zm1.686.735c.071-.052.118-.069.192-.069.097 0 .098.001.091.073-.006.065-.019.077-.105.104-.081.026-.113.026-.186.002-.049-.016-.088-.031-.088-.034 0-.003.042-.037.094-.075zm.361-.147c.199.033.23.1.078.168l-.096.043-.007-.076c-.004-.042-.022-.088-.04-.103-.052-.042-.039-.049.063-.032zm10.652-1.046h1.101v1.282h-2.203v-1.281h1.101zm2.597 0h1.473l-.006.636-.006.635-1.439.006c-.792.003-1.452.001-1.468-.005-.022-.008-.028-.157-.028-.641v-.63h1.473zm1.72.653h.224v.427c0 .26-.009.427-.022.427-.012 0-.09-.037-.174-.082-.282-.151-.254-.1-.254-.458v-.314h.225zm-.014-.786c.116-.062.217-.114.225-.114.008 0 .011.195.008.433l-.006.433-.22.006-.22.006v-.65l.21-.114zm2.456.786h2.195l-.015.06c-.02.079-.08.153-.219.272-.351.299-.734.459-1.255.522-.112.014-.754.024-1.546.024h-1.356v-.877h2.195zm-.858-.922c1.058 0 1.39.007 1.594.034.561.074.93.238 1.281.572.111.105.172.197.172.259 0 .031-.228.035-2.193.035h-2.192v-.899h1.337zM.016 11.653c.009-.001.0248-.001.034 0 .009.001.017-.1086.017-.2447 0-.1922.007-.2475.03-.2475.027 0 .2074.0584.311.1006.0256.0103.04.003.045-.0238.004-.0215.043-.051.0866-.0654.064-.0216.08-.039.085-.0963.006-.065-.001-.073-.085-.098-.06-.018-.09-.04-.09-.066 0-.035-.0198-.032-.186.025l-.1855.064-.006-.247c-.003-.14-.015-.247-.028-.247-.012 0-.022-.079-.022-.18 0-.105.009-.18.023-.18s.023-.098.023-.248v-.248l.062.014c.034.008.12.037.191.065.122.048.129.048.129.009 0-.029.027-.05.09-.069.078-.023.09-.036.09-.091 0-.054-.014-.07-.09-.1-.049-.02-.09-.05-.09-.068 0-.042-.02-.04-.138.011-.054.023-.131.049-.171.058l-.073.015v-.25c0-.161-.008-.245-.023-.236-.014.009-.022-.056-.022-.178 0-.114.009-.193.023-.193s.022-.094.022-.236c0-.21.004-.236.04-.236.036 0 .202.055.304.099.028.012.04.007.04-.019 0-.05.071-.082.179-.082.074 0 .092-.008.092-.042 0-.044.054-.1.118-.123.069-.024 3.305.095 3.392.125.062.021 1.402.03 5.885.04 5.41.012 5.816.015 5.963.052.462.114.875.459.802.669-.049.14-.23.302-.477.427-.294.149-.574.179-1.657.179-.834 0-.861.001-.861.043 0 .123-.2.114 2.66.114h2.633l.228-.125.228-.125 1.496.008c1.453.008 1.503.01 1.72.058.424.096.748.259 1.032.52.154.141.196.213.196.338s-.0415.197-.1955.338c-.246.225-.53.384-.846.473-.36.101-.531.111-2.0037.111h-1.3915l-.231-.124-.231-.124-2.641.006-2.6412.006-.007.072-.007.072 1.008.01c1.117.0102 1.185.018 1.48.159.239.115.424.261.483.383.044.0913.047.113.023.186-.05.151-.306.3513-.6.47-.316.127-.111.123-6.238.123-4.8803 0-5.649.005-5.78.033-.108.024-.5463.046-1.5453.079-2.006.0653-1.888.0644-1.944.0137-.0262-.023-.048-.061-.048-.084 0-.032-.017-.041-.078-.041-.095 0-.192-.042-.192-.0828 0-.039.008-.04-.166.026-.225.085-.216.092-.216-.178 0-.187-.007-.237-.034-.247-.026-.01-.034-.053-.034-.1828 0-.0936.008-.171.017-.172zM.488 8.41c.005-.034.005-.0897 0-.1237s-.009-.006-.009.062.004.0958.009.0618zm0 .27c.005-.034.005-.0896 0-.1237-.005-.034-.009-.006-.009.062s.004.0958.009.0618zm-.001.1917c.006-.0152.007-.0456.001-.0675-.006-.022-.0106-.009-.011.0277-.0006.037.004.055.0103.039zm.001.236c.005-.034.005-.0898 0-.124-.005-.034-.009-.006-.009.062s.004.096.009.062zm0 .27c.005-.034.005-.0898 0-.124-.005-.034-.009-.006-.009.062s.004.096.009.062zm0 .5403c.005-.0338.005-.0946 0-.135-.005-.0405-.009-.0128-.009.0615s.004.1074.009.0735zm0 .27c.005-.0338.005-.0946 0-.135-.005-.0405-.009-.0128-.009.0615s.004.1074.009.0735zm-.0004.1796c.006-.0217.006-.057 0-.0787-.006-.022-.011-.004-.011.039s.004.061.01.039zm0 .248c.005-.034.005-.0947 0-.135-.005-.0406-.009-.013-.009.0614 0 .0743.004.1074.009.0735zm0 .27c.005-.0338.005-.0946 0-.135-.005-.0406-.009-.013-.009.0614 0 .0743.004.1074.009.0735zm0 .517c.005-.034.005-.0896 0-.1237-.005-.034-.009-.006-.009.061 0 .068.004.096.009.062zm0 .27c.005-.034.005-.0896 0-.1237-.005-.034-.009-.006-.009.061 0 .068.004.096.009.062zm-.001.1918c.006-.0152.007-.0456.001-.0675-.006-.022-.011-.009-.011.027-.001.037.004.055.01.04zm.001.2358c.005-.034.005-.0897 0-.1238-.005-.034-.009-.006-.009.062s.004.0958.009.0618zm0 .27c.005-.034.005-.0897 0-.1237s-.009-.006-.009.062.004.0958.009.0618zm.038-2.9195c.005 0 .025.006.045.0136.032.0122.035-.0523.035-.63 0-.5214-.006-.6437-.03-.6437-.0165 0-.037.007-.045.015-.016.016-.0215 1.245-.006 1.245zm.042 1.5033c.0362.007.039-.0346.039-.624 0-.6184-.001-.6318-.0456-.6318-.045 0-.046.0114-.04.624.005.574.009.6248.045.6318zm0 1.5076c.0362.007.039-.0352.039-.6354 0-.5208-.006-.643-.03-.643-.0167 0-.037.007-.0455.0154-.008.008-.012.2943-.009.6353.005.569.009.62.046.627zm.388-2.9884c.193 0 .326.009.326.0215 0 .0118-.0787.0245-.1746.028-.132.005-.016.02.466.0607.852.0718 1.166.087 1.8227.088.503.001.702-.0147.607-.0477-.0188-.006-.4643-.024-.99-.039-.526-.015-1.1287-.0345-1.339-.0434l-.382-.0163.4313-.003c.2373-.002.4474-.01.467-.017.051-.0193.0437-.0652-.015-.094-.028-.013-.038-.025-.0226-.0255.0154-.001.0483.0187.073.0435.0403.0402.0783.0454.3657.0492l.321.005-.352.0127c-.194.007-.36.02-.369.029-.009.009.013.017.049.017.036 0 .467.01.956.022.656.016.925.031 1.02.056.103.027.296.033.961.033.776 0 .832-.002.834-.04.002-.038.003-.038.013 0 .006.024.032.039.068.039.049 0 .055-.008.044-.051-.007-.028-.013-.063-.014-.079 0-.044-.067-.033-.07.011-.002.037-.003.037-.013 0-.01-.037-.068-.039-.835-.039-.656 0-.85.007-.949.033-.075.02-.207.031-.337.029l-.214-.004.191-.013c.336-.022.141-.056-.405-.07l-.506-.013.487-.005.4864-.005.103-.079c.08-.061.1245-.079.1974-.079.081 0 .09-.005.066-.034-.019-.022-.069-.034-.148-.034-.111 0-.509-.044-1.438-.158-.991-.12-1.952-.226-1.963-.215-.007.007.002.0174.019.024.139.0503 1.1474.424 1.1964.4435.034.0136.058.029.053.034-.005.005-.0613-.0118-.125-.037-.136-.0537-.162-.0565-.147-.0158.024.0622-.066.131-.183.14l-.112.008.112-.021c.125-.023.189-.08.142-.128-.0154-.016-.246-.107-.512-.204l-.483-.175-.005-.092-.005-.092.489-.175c.269-.096.5025-.1876.519-.2034.026-.024.0237-.036-.013-.073-.059-.059-.352-.0955-.766-.0955H.63V9.47h.326zm.427-.0168c.0496.0003.067.005.039.0102-.028.005-.0683.005-.09-.0004-.0213-.006.002-.01.051-.01zm-.41 1.5176c.4813-.0193.6928-.0507.7433-.1104.022-.026.032-.056.022-.0663-.016-.0155-.987-.379-1.013-.379-.004 0-.005-.0417-.001-.0926l.007-.0925.495-.179c.272-.0983.503-.1866.512-.196.035-.0344-.013-.0924-.094-.113-.149-.0385-.483-.0693-.752-.0693L.63 9.675v1.312l.343-.0137zm-.0113 1.4904c.4182-.002.7196-.0416.7627-.1004.0248-.034.0254-.0477.002-.0698-.0156-.015-.231-.1003-.4784-.1892-.2475-.089-.4667-.1705-.487-.1813-.024-.0126-.0372-.048-.0372-.0992 0-.0512.0132-.0865.037-.099.0205-.0105.2397-.0926.4872-.1822.2475-.0896.4617-.1723.476-.1837.0162-.013.029-.0116.034.004.006.0165.04.013.107-.0106.0544-.0192.1028-.031.1075-.0262.005.005-.257.1074-.583.228-.325.1207-.595.2232-.6.228-.03.0275.065.021.561-.0377.303-.035.587-.064.63-.063.099.002-.008.019-.607.09-.241.029-.423.055-.405.059.157.031 3.137.367 3.248.367.178 0 .376.036.415.075.043.043.011.101-.082.15-.08.043-.016.044 5.437.045l5.519.001v-1.283l-5.518.001c-5.452.001-5.517.001-5.437.044.094.05.125.107.081.151-.037.038-.251.074-.432.075-.074 0-.478.041-.898.09-.42.05-.784.089-.81.087-.124-.008 1.483-.2 1.67-.2.087 0 .144-.011.16-.031.021-.025.007-.033-.074-.042-.064-.007-.135-.037-.196-.081-.092-.067-.106-.07-.3333-.074l-.24-.006.2478-.015c.333-.02.421-.051.1916-.069l-.169-.012.1917-.003c.105-.002.252.011.326.029.104.025.316.033.938.0335.742.0005.805-.002.826-.0386.022-.037.023-.037.024 0 .001.08.064.04.079-.05l.015-.09 3.829.002c2.105.001 3.818.006 3.805.012-.013.005-.02.045-.015.088.007.059.02.079.051.079s.043-.016.043-.062c0-.073.019-.105.073-.125.036-.013.039-.065.039-.656V9.68H9.21c-4.684.001-4.763.002-4.684.044.0443.0233.0936.0583.11.078.0684.083-.085.1464-.359.149-.208.002-3.3095.37-3.2627.3872.054.02 2.977.354 3.282.3747.241.017.284.026.326.068l.048.049-.0584.049c-.032.027-.078.061-.101.076-.034.021.131.027.767.028.445.001.799.009.785.018-.014.009-.031.031-.038.05-.01.026-.013.025-.015-.007-.001-.039-.048-.04-.885-.031-.523.006-.938.02-1.018.035-.076.014-.451.029-.855.034l-.721.008.608-.021c.738-.025.912-.039.861-.068-.052-.029-1.693-.01-1.929.023-.105.0144-.414.046-.686.0693-.303.026-.399.039-.248.033.48-.019 1.393-.028 1.215-.0125-.099.009-.175.02-.169.024.006.005.229.015.495.022l.484.014-.456.005c-.25.002-.455.014-.455.025 0 .011-.017.027-.037.0347-.031.012-.033.009-.008-.02.016-.019.021-.042.012-.051-.028-.028-.302-.0397-.654-.028-.335.011-.346.0243-.045.0574.139.015.236.0585.236.105 0 .0145-.014.007-.031-.0156-.043-.0587-.346-.098-.763-.1l-.332-.001v1.2822l.332-.001zm1.1107-1.1886c.0398-.0138.0762-.0213.081-.0164.005.005-.0237.02-.0635.034-.04.014-.077.0213-.081.0164-.005-.005.023-.02.063-.034zm.167.3694c.0942-.009.176-.0113.182-.005.006.006-.0667.0178-.161.0267-.0942.009-.176.011-.182.005-.006-.006.0666-.018.161-.027zM.686 9.6532c.0237 0 .034-.0237.034-.0787 0-.055-.0103-.0788-.034-.0788-.0235 0-.0337.0238-.0337.0788 0 .055.0102.0788.0338.0788zm0 1.5076c.0237 0 .034-.0238.034-.0788 0-.055-.0103-.0788-.034-.0788-.0235 0-.0337.0238-.0337.0788 0 .055.0102.0788.0338.0788zm.4704-3.007c.2153.0223.4302.0493.4775.06.095.0214.151.0794.135.14-.006.0217-.009.0394-.007.0393.002 0 .104-.038.227-.084.227-.086.282-.13.189-.149C2.07 8.137.83 8.052.798 8.064c-.085.0326-.007.0523.3575.09zm-.296 1.4637c.0527.007.2545.031.4486.054.3695.044.4684.0783.4684.1622 0 .0245.004.0445.009.0445.009 0 .272-.096.3795-.1385.034-.0134.061-.0384.061-.0555 0-.0186-.025-.0315-.062-.032-.034-.0006-.351-.0246-.703-.0532-.353-.0286-.654-.0474-.67-.0415-.057.021-.026.0483.067.06zm1.6177.4977c.9-.1056 1.675-.192 1.725-.192.052 0 .102-.014.118-.0337.024-.029.015-.0338-.067-.0338-.073 0-.12-.018-.202-.0788l-.107-.079h-.839c-.679 0-.845.006-.874.031-.019.017-.359.151-.755.298s-.699.27-.675.273c.025.004.781-.08 1.68-.186zm-.959.527c.371.1383.691.266.711.2837.03.027.176.032.868.032h.832l.111-.079c.085-.061.133-.079.207-.079.056 0 .096-.011.096-.026 0-.018.01-.017.033.003.019.015.034.063.034.105v.077l.096-.053c.187-.103.106-.17-.208-.173-.08-.001-.879-.088-1.776-.193-.897-.105-1.661-.191-1.699-.19-.085.002-.144-.023.696.29zm-.466.441c.599-.0347 1.161-.091 1.17-.1172.007-.0226-.064-.055-.414-.1893-.038-.0145-.047-.0116-.037.012.021.0552-.035.1225-.121.1453-.046.0122-.231.038-.41.0574-.426.046-.472.0542-.472.0836 0 .0174.084.0198.287.008zm-.257 1.5084c.039.0147 1.407-.0933 1.427-.1125.026-.025-.026-.054-.238-.135-.116-.044-.213-.08-.217-.08-.004 0-.002.018.003.04.03.114-.08.146-.717.209-.262.026-.337.049-.256.081zM2.469 8.619c.8442-.099 1.594-.1803 1.6664-.1803.0775 0 .1494-.013.1748-.0316.0398-.029.0344-.033-.0688-.048-.0737-.011-.1427-.04-.201-.086l-.0893-.07-.841-.006c-.713-.005-.846-.001-.867.026-.014.018-.349.153-.745.299-.575.213-.704.268-.641.273.044.004.77-.075 1.614-.174zm-.9788 3.51c.386.142.722.278.746.301.042.042.0764.043.878.029l.834-.0148.0982-.0707c.0616-.044.1358-.075.1978-.082.081-.009.0946-.0167.0738-.042-.0162-.0193-.0728-.0306-.154-.0306-.1005 0-2.8498-.312-3.2805-.372-.0526-.007-.0956-.005-.0956.005s.316.135.702.277zM.984 8.027c.022-.006.009-.0107-.0277-.0112-.037-.0004-.055.004-.0397.0105.0152.006.0456.007.0675.001zm1.5747.9968c.8442.0992 1.6006.1802 1.681.1802.08 0 .1962.0108.258.024.184.0395.2027.1093.0522.1966l-.084.0485 5.518.001 5.518.001V8.191l-5.496.0003c-3.023 0-5.519.006-5.547.014-.039.0104-.051.03-.051.085 0 .0395-.013.085-.028.1017-.023.0246-.009.0274.082.0156.116-.015.179-.0494.157-.086-.007-.012-.045-.041-.084-.065-.039-.0234-.057-.043-.041-.043.047 0 .161.089.161.1264 0 .0617-.153.1-.48.1203-.176.011-.927.0916-1.669.1793-1.453.1714-1.571.1866-1.519.197.019.004.724.088 1.569.187zm-.003 3.5565c.7414-.0254 1.3834-.0465 1.4267-.047.063-.0004.071-.005.0405-.023-.025-.014-.358-.019-.912-.0135-.682.007-1.003.0205-1.469.0624-.328.0294-.56.0566-.516.0603.044.003.687-.014 1.428-.0393zm-.666-4.4642c.5272.054 2.2056.069 2.1555.018-.0116-.011-2.6-.101-2.804-.097-.1404.003-.1356.005.075.023.1237.011.382.037.5737.056zm2.3684.216l.107.012v-.075c0-.065-.01-.077-.082-.101-.101-.033-.157-.033-.242 0l-.065.026.088.064c.056.041.127.068.195.076zm-.121 1.186c.03.001.093-.01.141-.025.08-.023.087-.033.087-.104V9.31l-.101.0113c-.057.006-.142.0386-.195.0732l-.093.0618.055.03c.03.0167.079.0306.108.031zm-.06.247c.072.053.119.07.193.07.098 0 .098 0 .091-.073-.006-.064-.018-.077-.105-.104-.081-.025-.113-.026-.185-.002-.048.016-.088.032-.088.035 0 .003.043.037.095.075zm.011 1.508c.078.052.131.07.204.07.098 0 .099 0 .092-.073-.006-.066-.018-.077-.123-.112s-.125-.035-.197-.005c-.044.019-.08.038-.08.043 0 .005.048.041.105.079zm.066 1.239c.039.001.102-.01.141-.024.062-.021.071-.035.071-.103v-.079l-.107.015c-.058.009-.145.042-.192.074l-.085.059.052.029c.029.016.084.029.122.03zm-.075-1.508c.055.018.099.017.175-.005.09-.026.102-.037.108-.101.007-.072.007-.072-.097-.072-.077 0-.124.015-.181.059-.042.033-.077.067-.077.077 0 .01.033.029.074.043zM4.41 9.38c0 .0393.005.0714.012.0714s.0522-.0203.1013-.0454c.1453-.074.1107-.1313-.099-.164-.0823-.0128-.085-.0114-.0505.0266.02.022.0363.0723.0363.1115zm.077.5217c.1594-.033.1696-.0862.03-.1555l-.096-.048-.007.0772c-.004.0425-.0216.0895-.04.1046-.0523.0436-.022.0494.1127.0214zm.0242 1.4976c.115-.0216.1388-.0667.063-.12-.0347-.0244-.0857-.0514-.1135-.06-.046-.0143-.0506-.008-.0506.063 0 .0435-.012.087-.028.0967-.04.0255.037.0376.129.0202zm-.101.9705c0 .088.007.089.1236.0226.102-.0576.1083-.0824.0312-.1222-.073-.0377-.2194-.039-.182-.001.0148.0148.027.0604.027.1012zM6.1708 9.616c.0263.0356.2736.0377 3.797.0323l3.769-.006.007-.073.007-.0732H9.9462c-3.655 0-3.804.002-3.804.041 0 .023.0126.058.028.079zm3.776 1.5453h3.804l-.007-.073-.007-.0732-3.769-.006c-3.5233-.005-3.7706-.004-3.797.033-.0154.021-.028.057-.028.079 0 .039.149.041 3.804.041zm3.9243-1.5115c.004-.004.002-.0402-.004-.0805-.008-.0517-.023-.073-.052-.073-.03 0-.043.0198-.048.073-.006.062.001.0742.046.0805.029.004.056.004.06 0zm1.227 1.3315h1.103v-1.305h-2.205v1.305h1.103zm.591-1.5202c.452-.048.725-.144.982-.347.132-.104.182-.189.182-.305 0-.07-.018-.1-.13-.209-.236-.231-.544-.352-1.011-.398l-.163-.016v1.29l.141-.015zm0 2.995c.445-.046.702-.133.95-.322.258-.195.281-.377.073-.56-.113-.099-.336-.229-.481-.28-.108-.038-.517-.107-.642-.108-.036 0-.039.045-.039.643v.644l.141-.014zm2.008-1.486h1.463V9.687l-1.44-.006c-.792-.003-1.453-.001-1.468.005-.022.008-.027.1503-.022.647l.006.6363h1.463zm1.725-.663h.229l-.014-.419c-.008-.23-.018-.423-.024-.429-.006-.006-.057.016-.113.048l-.204.116-.101.057v.628h.229zm-.02.786l.209.113.015-.196c.008-.108.016-.3.017-.426l.002-.231h-.45v.628l.208.113zm2.459-.786c1.517 0 2.194-.007 2.194-.023 0-.05-.068-.149-.172-.249-.302-.29-.592-.438-1.065-.542-.202-.045-.291-.047-1.682-.056l-1.468-.009v.88h2.194zm-.725.916c1.24-.008 1.496-.015 1.647-.046.463-.094.779-.251 1.089-.542.114-.106.184-.205.184-.258 0-.016-.677-.023-2.194-.023h-2.194v.88l1.469-.009z"/><path d="M7.0257 9.4073c-2.2755-.0145-2.3327-.0175-2.3605-.1237-.0156-.0598-.0738-.1088-.1293-.1088-.21 0-2.989-.326-3.017-.3537-.016-.016.018-.029.075-.029.332 0 3.008-.341 3.067-.39.039-.032.058-.081.041-.108-.018-.028 2.24-.048 5.36-.048h5.391v1.203l-3.05-.013c-1.677-.007-4.099-.02-5.382-.028zm2.238 1.5312c-4.017-.0123-4.575-.024-4.5477-.095.0492-.1283-.124-.1627-1.663-.3305-.7904-.086-1.4057-.1732-1.3675-.1936.0382-.0203.6725-.1027 1.4096-.183 1.623-.177 1.587-.1697 1.587-.3063 0-.107.052-.108 4.622-.108h4.622v.599c0 .329-.018.606-.041.616-.022.01-2.101.011-4.62.003zM4.6813 12.318c0-.046-.0345-.097-.0767-.113-.0422-.0163-.7867-.1093-1.6545-.2068-1.401-.1575-1.542-.182-1.263-.219.457-.0604.408-.1657-.054-.1167-.203.0215-.356.0254-.339.0087.017-.0167.256-.1176.531-.2242.425-.164.569-.1937.941-.1937.257 0 .44-.0228.44-.0547 0-.03.049-.0547.109-.0547s.11.024.11.054.105.055.233.055c.213.001.43.073.368.123-.023.018-.704.101-1.635.2-.183.019-.306.06-.322.108-.019.059.014.069.146.042.094-.019.667-.085 1.274-.148.607-.062 1.125-.126 1.15-.142.025-.016.046-.064.046-.107 0-.068.734-.079 5.388-.079h5.387v1.15h-5.39c-4.801 0-5.387-.009-5.387-.084zm9.353-1.9946v-.6016h2.133v1.2033h-2.133v-.601zm2.2425 0v-.6016h2.844v1.2033h-2.844v-.601zm3.4458-.4414v-.3865l1.5725.0188c1.483.0177 1.591.026 1.883.1427.171.0682.415.2174.544.3315l.234.2076-.757.037c-.416.02-1.369.037-2.116.037h-1.359v-.387zm0 .9088v-.4127l.67.001c.3685 0 1.317.017 2.1076.036l1.4377.036-.153.161c-.177.186-.552.389-.864.468-.12.03-.889.071-1.709.09l-1.491.036v-.412zm-.3692.2068c-.099-.069-.123-.138-.123-.3527v-.267h.397l-.034.205c-.0184.113-.034.273-.0343.355 0 .171-.032.18-.205.059zm-.123-1.001c0-.247.015-.28.164-.357.1543-.0796.164-.0786.164.0185 0 .057.0158.218.035.357l.0347.254h-.397v-.272zm-19.141-.777c-.0203-.4076-.003-.9665.0307-1 .007-.0067.083.0117.17.0408.15.0506.157.0557.159.1122.002.0817.002.817 0 .9003-.001.066-.004.068-.152.12-.083.029-.16.053-.173.053-.015 0-.026-.076-.033-.227zm.0192 1.5444c-.0066-.1022-.0212-.2216-.0323-.2653-.0114-.0446-.015-.138-.008-.2127.0067-.0733.0168-.2362.0222-.362.0085-.195.0144-.2272.0396-.2175.017.0062.094.031.173.0548l.143.0434.002.0725c.002.0974.002.808 0 .8992l-.002.0725-.162.05-.162.05-.012-.186zm.0025 1.6674c-.007-.007-.013-.0968-.013-.1993 0-.134-.008-.197-.028-.224-.036-.048-.041-.31-.005-.322.017-.005.026-.074.031-.229.004-.121.014-.228.023-.238.01-.009.083.007.173.039.148.053.156.059.158.114.002.081.002.817 0 .9-.001.067-.003.069-.152.121-.166.059-.166.059-.184.041z" stroke-linecap="round" stroke-linejoin="bevel"/><path d="M.659 11.8255v-.5995l.2948.0002c.4002.0002.7498.0437.7492.0932 0 .0072-.2068.09-.4593.1844-.2525.0943-.4787.1837-.5026.1987-.035.022-.043.0447-.043.121 0 .0517.011.103.024.114.014.011.214.09.444.1756.231.086.449.171.484.189l.064.033-.062.026c-.094.039-.37.065-.697.065H.659v-.599zm0-1.4887v-.619h.249c.397 0 .7842.0507.785.103.0003.017-.2647.1224-.718.2853l-.2738.099-.008.068c-.0193.166-.0196.166.2816.275.446.162.6956.263.7032.286.015.046-.2654.085-.8018.113l-.2175.012v-.619zm0-1.499v-.6143l.401.0113c.3934.011.5733.0323.6132.0722.034.034.007.046-.6142.2698-.2.072-.3666.1342-.3703.138-.0037.004-.001.058.006.1204.012.1075.016.1147.0802.1393.037.0143.22.0822.406.151.186.069.382.144.435.1667.088.0378.093.0434.058.063-.093.0523-.269.076-.634.0862l-.382.0105v-.615z" stroke-linecap="round" stroke-linejoin="bevel"/><path d="M1.5968 8.523c.2978-.116.572-.2273.609-.2476.0633-.0346.1225-.0374.8864-.0427l.8187-.0056.1.067c.055.037.13.075.166.084.054.014.018.022-.204.042-.149.014-.797.085-1.44.158s-1.24.139-1.325.145l-.155.012.541-.21zm1.5228 1.0062c-.1766-.0056-.1982-.01-.1982-.0415 0-.0322-.0264-.036-.3078-.045-.2735-.0088-.3154-.0146-.3768-.0526-.0432-.026-.0836-.038-.108-.03-.026.008-.043.003-.0505-.017-.012-.031-.078-.058-.6894-.283-.211-.077-.38-.142-.378-.145.008-.007.46.043 1.677.185.633.074 1.232.141 1.331.148.176.013.179.014.117.04-.035.015-.095.051-.133.079l-.069.053-.479.007c-.455.007-.479.009-.479.044s.019.037.324.038c.178.001.341.009.363.018.038.017-.128.019-.547.005zm-2.045.692c.0746-.031 1.007-.3913 1.1313-.437.124-.046.13-.0464.924-.0468l.798-.0004.1.0677c.055.0372.113.0677.128.0677s.023.0042.018.0095c-.006.005-.475.061-1.043.125s-1.264.142-1.546.174c-.55.063-.571.064-.513.04zm1.025.611c-.1064-.0457-.387-.1557-.6234-.2446-.2365-.0888-.427-.1644-.4235-.168.0036-.0035.5103.0508 1.126.1206.616.07 1.3145.148 1.5526.1737.238.025.4375.051.443.057.0058.005-.002.01-.0173.01s-.074.03-.1306.067l-.1028.067-.8153-.001-.8154-.001-.194-.083zm-.1354.7975c-.033-.0104-.1503-.013-.2707-.006-.117.007-.2084.008-.203.0026.0052-.0055.1183-.0534.2513-.1064.457-.183.698-.236 1.06-.236.2322-.001.412-.028.4338-.068.024-.043.1278-.037.166.009.0256.03.0724.043.2256.059.188.02.3497.052.3352.066-.0105.01-.3864.057-1.0797.135-.5817.065-.796.103-.822.145-.0137.022-.019.022-.0965-.003zm.1934.7288c-.0745-.0363-.3593-.151-.633-.2548-.2735-.104-.4942-.192-.4904-.196.004-.0038.4148.041.9133.0994.4984.059 1.2123.14 1.5863.18.605.065.6727.076.613.096-.037.013-.1018.047-.144.077l-.077.054-.8165.007-.8164.007-.136-.066zm-.3616-4.057c-.0107-.0725-.0964-.114-.2887-.14-.2578-.0353-.0844-.0354.3022-.0004.1702.016.3174.029.327.029.0362.001-.0076.024-.169.087-.1605.063-.1656.064-.1714.025zm-.1606 1.1662c.0924-.0223.1437-.057.156-.1056l.0112-.045.1582.049c.2943.091.266.118-.1223.117-.1496 0-.2363-.006-.203-.014zm.165.319c-.022-.058-.2043-.1267-.3374-.127-.031 0-.0508-.0056-.044-.0124.0068-.0068.1784-.0012.3814.0124s.362.0312.3535.039c-.009.0078-.088.0407-.177.073l-.161.0587-.016-.0437zm-.2452 1.197c.1535-.0257.2446-.078.2446-.1402 0-.0182.0116-.0235.034-.0153.0185.007.094.036.1674.0644l.1337.052-.067.0138c-.086.0178-.508.055-.597.0527-.042-.001-.009-.011.084-.027zm.2348.3c-.0075-.0236-.0484-.0578-.0936-.0784l-.0803-.0364.203-.001c.223 0 .349.014.349.04 0 .009-.015.017-.034.017-.019 0-.067.016-.107.037-.04.02-.106.043-.147.049-.065.011-.076.007-.088-.03zm-.283 1.207c.206-.0346.2928-.0744.2928-.134v-.045l.121.0484c.2018.081.218.089.198.096-.0272.01-.6793.067-.731.064-.0233-.001.0303-.014.119-.029zm3.0194-1.374l-.2127-.0204-.145-.014.145-.0126c.0798-.007.4866-.0138.904-.0152.6324-.002.759.002.759.024 0 .0147-.027.032-.0604.0388-.0604.012-1.2623.0116-1.39-.0006zm1.9-.0017c-.2186-.0057-.2832-.0218-.2063-.0513.017-.0065 1.71-.0117 3.762-.0117 3.718 0 3.731 0 3.731.0387 0 .0385-.011.0386-3.524.0344-1.938-.002-3.631-.006-3.761-.01zm.0354-1.5125c-.1606-.0065-.2622-.0185-.2665-.0315-.01-.03 1.7374-.0467 4.901-.0467 2.5243 0 2.6156.0012 2.6156.0355 0 .034-.076.036-1.929.0483-2.107.014-4.91.012-5.322-.005zm-2.103.0015c-.1612-.0162-.169-.034-.022-.0512.1518-.0177 1.636-.0195 1.6536-.002.007.007.002.0236-.011.0367-.018.018-.2053.0244-.7626.026-.4063.0014-.7924-.003-.858-.0095zm11.2288-.776v-.5993h.0465c.026 0 .148.0172.271.0383.368.063.608.1767.813.3857.111.113.122.1834.049.3028-.084.136-.381.3178-.627.384-.137.037-.423.0873-.498.0878l-.053.0003V8.828zm0 2.9947v-.6022l.1306.0125c.3728.0358.6476.132.8927.3124.274.2018.261.376-.044.5857-.217.15-.431.227-.761.274-.247.036-.219.11-.219-.582z" stroke-linecap="round" stroke-linejoin="bevel"/></g></svg>