<?xml version="1.0" encoding="UTF-8" standalone="no"?>
<!-- Created with Inkscape (http://www.inkscape.org/) -->

<svg
   xmlns:dc="http://purl.org/dc/elements/1.1/"
   xmlns:cc="http://creativecommons.org/ns#"
   xmlns:rdf="http://www.w3.org/1999/02/22-rdf-syntax-ns#"
   xmlns:svg="http://www.w3.org/2000/svg"
   xmlns="http://www.w3.org/2000/svg"
   xmlns:sodipodi="http://sodipodi.sourceforge.net/DTD/sodipodi-0.dtd"
   xmlns:inkscape="http://www.inkscape.org/namespaces/inkscape"
   width="24.07634"
   height="24.651058"
   id="svg2"
   version="1.1"
   inkscape:version="0.48.4 r9939"
   sodipodi:docname="FNH.svg">
  <defs
     id="defs4" />
  <sodipodi:namedview
     id="base"
     pagecolor="#ffffff"
     bordercolor="#666666"
     borderopacity="1.0"
     inkscape:pageopacity="0.0"
     inkscape:pageshadow="2"
     inkscape:zoom="51.712246"
     inkscape:cx="15.877713"
     inkscape:cy="13.73057"
     inkscape:document-units="px"
     inkscape:current-layer="layer1"
     showgrid="false"
     fit-margin-top="8"
     fit-margin-left="0"
     fit-margin-right="0"
     fit-margin-bottom="12"
     inkscape:window-width="1366"
     inkscape:window-height="750"
     inkscape:window-x="0"
     inkscape:window-y="18"
     inkscape:window-maximized="1" />
  <metadata
     id="metadata7">
    <rdf:RDF>
      <cc:Work
         rdf:about="">
        <dc:format>image/svg+xml</dc:format>
        <dc:type
           rdf:resource="http://purl.org/dc/dcmitype/StillImage" />
        <dc:title></dc:title>
      </cc:Work>
    </rdf:RDF>
  </metadata>
  <g
     inkscape:label="Layer 1"
     inkscape:groupmode="layer"
     id="layer1"
     transform="translate(289.23967,-703.19661)">
    <path
       style="fill:#ffffff;fill-opacity:1;stroke:#000000;stroke-width:0.05;stroke-miterlimit:4;stroke-opacity:1;stroke-dasharray:none"
       d="m 232.79939,810.5569 c 0.0136,0 0.0225,0.0976 0.0225,0.24778 l 0,0.24777 0.0618,-0.0144 c 0.034,-0.008 0.12002,-0.0373 0.19113,-0.0653 0.12011,-0.0473 0.1293,-0.0481 0.1293,-0.0108 0,0.0466 0.10374,0.0895 0.21626,0.0895 0.0547,0 0.0714,0.008 0.0626,0.0314 -0.007,0.0173 0.0108,0.0527 0.0387,0.0787 0.0635,0.0592 -0.0445,0.0591 1.79617,0.002 1.08336,-0.0335 1.53869,-0.0554 1.65273,-0.0796 0.13738,-0.0291 1.09803,-0.0333 7.55339,-0.0331 l 7.39599,2.8e-4 0.22142,0.12368 0.22141,0.12367 1.40788,0 c 1.16072,0 1.44944,-0.006 1.64458,-0.0351 0.50729,-0.0753 0.86303,-0.23796 1.20582,-0.55125 0.15178,-0.13872 0.1935,-0.21106 0.1935,-0.33554 0,-0.12412 -0.0417,-0.19681 -0.19143,-0.33366 -0.29101,-0.26595 -0.61176,-0.42811 -1.03559,-0.52352 -0.21651,-0.0487 -0.26889,-0.0505 -1.71328,-0.0588 l -1.48995,-0.009 -0.22793,0.12498 -0.22794,0.12499 -7.42287,0 c -5.06849,0 -7.44778,-0.007 -7.50142,-0.0233 -0.0432,-0.0128 -0.82548,-0.049 -1.73839,-0.0803 -1.5558,-0.0534 -1.66343,-0.0546 -1.71727,-0.0193 -0.0316,0.0207 -0.0625,0.0568 -0.0686,0.0803 -0.007,0.027 -0.0311,0.0427 -0.0655,0.0427 -0.0826,0 -0.21027,0.0607 -0.21027,0.10004 0,0.043 0.0139,0.045 -0.14616,-0.0209 -0.0742,-0.0306 -0.15769,-0.0558 -0.18551,-0.0561 -0.0493,-4.7e-4 -0.0506,0.006 -0.0506,0.23557 0,0.14241 -0.009,0.2361 -0.0225,0.2361 -0.0131,0 -0.0225,0.075 -0.0225,0.17989 0,0.10494 0.009,0.17989 0.0225,0.17989 z m 0.4433,0.23008 c 0.005,0.0338 0.005,0.0945 2.3e-4,0.13492 -0.005,0.0404 -0.009,0.0128 -0.009,-0.0614 -2.2e-4,-0.0742 0.004,-0.10727 0.009,-0.0735 z m 0,-0.26983 c 0.005,0.0338 0.005,0.0945 2.3e-4,0.13491 -0.005,0.0404 -0.009,0.0128 -0.009,-0.0614 -2.2e-4,-0.0742 0.004,-0.10727 0.009,-0.0735 z m -4.7e-4,-0.17949 c 0.006,0.0216 0.006,0.0571 0,0.0787 -0.006,0.0216 -0.0103,0.004 -0.0103,-0.0394 0,-0.0433 0.005,-0.061 0.0103,-0.0393 z m 4.7e-4,-0.24775 c 0.005,0.0338 0.005,0.0945 2.3e-4,0.13492 -0.005,0.0404 -0.009,0.0128 -0.009,-0.0614 -2.2e-4,-0.0742 0.004,-0.10727 0.009,-0.0735 z m 0,-0.24694 c 0.005,0.034 0.005,0.0897 0,0.12367 -0.005,0.034 -0.009,0.006 -0.009,-0.0618 0,-0.068 0.004,-0.0958 0.009,-0.0618 z m 0.0795,-0.0913 c 0.0367,-0.007 0.0394,0.0344 0.0394,0.61994 0,0.34513 -0.006,0.63356 -0.0135,0.64096 -0.007,0.007 -0.0278,0.008 -0.0453,10e-4 -0.0267,-0.0102 -0.0309,-0.11404 -0.0259,-0.63339 0.005,-0.57094 0.009,-0.62176 0.0453,-0.62871 z m 0.4095,-0.004 c 0.43984,0 0.68274,0.0318 0.73908,0.0968 0.0365,0.0421 0.0372,0.0502 0.007,0.0726 -0.0189,0.0138 -0.25226,0.10399 -0.51854,0.20034 l -0.48413,0.1752 0.005,0.0902 0.005,0.0903 0.50594,0.18431 c 0.2808,0.10229 0.50494,0.19605 0.50369,0.21068 -0.005,0.0577 -0.0105,0.0671 -0.0483,0.0824 -0.0876,0.0353 -0.50621,0.0775 -0.77576,0.0782 l -0.2867,9.5e-4 0,-0.64085 0,-0.64086 0.34761,0 z m -0.0834,1.33808 c 0.80357,-0.089 0.88258,-0.10845 0.88258,-0.21726 0,-0.0228 0.004,-0.0415 0.009,-0.0415 0.005,0 0.0937,0.0317 0.19675,0.0704 0.17644,0.0662 0.26518,0.11797 0.24205,0.1411 -0.0156,0.0156 -1.42111,0.12471 -1.44181,0.11192 -0.0465,-0.0287 -0.007,-0.0515 0.11111,-0.0646 z m 1.56473,-0.49598 c 0.89758,0.10574 1.67671,0.19226 1.73138,0.19226 0.0609,0 0.11024,0.0131 0.1274,0.0337 0.0241,0.0291 0.0149,0.0337 -0.0673,0.0337 -0.0732,0 -0.11976,0.0179 -0.20056,0.0773 l -0.10525,0.0773 -0.83703,0.005 c -0.71252,0.004 -0.8428,-4.6e-4 -0.8759,-0.0289 -0.0214,-0.0184 -0.36269,-0.15355 -0.75844,-0.30039 -0.39575,-0.14685 -0.70307,-0.2703 -0.68291,-0.27435 0.0202,-0.004 0.77103,0.0792 1.66862,0.1849 z m -1.59387,-0.3041 c -0.007,-0.0112 9.5e-4,-0.0151 0.0177,-0.009 0.0371,0.0142 1.29148,-0.44821 1.34359,-0.49536 0.032,-0.0289 0.15941,-0.0339 0.86935,-0.0339 l 0.83188,0 0.1107,0.0787 c 0.0784,0.0558 0.1349,0.0787 0.19376,0.0787 0.0457,0 0.0896,0.0106 0.0976,0.0236 0.0268,0.0434 0.078,-0.0258 0.078,-0.10549 l 0,-0.0764 0.0858,0.0438 c 0.0472,0.0241 0.0985,0.059 0.11388,0.0776 0.0447,0.0539 -0.0485,0.0881 -0.26705,0.0981 -0.10519,0.005 -0.91916,0.0942 -1.80883,0.19863 -0.88968,0.10448 -1.65364,0.18916 -1.69771,0.18819 l -0.0801,-0.002 0.062,-0.0226 c 0.0341,-0.0124 0.0563,-0.0318 0.0494,-0.043 z m 0.63639,-0.6298 c 0.38023,0.0288 0.69891,0.0568 0.70819,0.0622 0.0347,0.0201 0.0149,0.054 -0.045,0.0771 -0.29558,0.11408 -0.40625,0.14786 -0.39587,0.12082 0.0207,-0.0541 -0.0364,-0.12142 -0.12169,-0.14351 -0.0462,-0.0119 -0.24079,-0.0381 -0.43248,-0.0581 -0.434,-0.0452 -0.46418,-0.0512 -0.43036,-0.085 0.0195,-0.0195 0.19609,-0.013 0.71718,0.0265 z m 0.9731,-0.0293 c 1.8183,0.0657 1.72966,0.0609 1.81881,0.0979 0.0547,0.0227 0.0693,0.0423 0.0693,0.0934 0,0.0623 -0.004,0.0647 -0.10682,0.0641 -0.0851,-4.8e-4 -0.12278,-0.0141 -0.18551,-0.0672 -0.0527,-0.0446 -0.0701,-0.0722 -0.0527,-0.0837 0.0143,-0.009 -0.37529,-0.0182 -0.86572,-0.0195 -0.64311,-0.002 -0.97319,-0.0119 -1.18402,-0.0367 -0.16077,-0.0188 -0.46709,-0.0471 -0.68069,-0.0627 -0.21362,-0.0156 -0.38532,-0.0315 -0.38157,-0.0353 0.004,-0.004 0.70976,0.0186 1.5689,0.0496 z m 0.19043,1.42673 c 0.74062,-0.0303 1.25476,-0.0293 1.33084,0.002 0.0511,0.0214 -0.2126,0.0363 -1.36456,0.077 -0.78533,0.0277 -1.48858,0.05 -1.56279,0.0494 -0.24053,-0.002 1.06378,-0.10719 1.59651,-0.12896 z m -0.27681,-0.84689 c 0.77061,-0.0914 1.55116,-0.17612 1.73454,-0.18835 0.36844,-0.0246 0.49833,-0.0506 0.51881,-0.104 0.0179,-0.0465 9.5e-4,-0.071 -0.0845,-0.12314 -0.0697,-0.0425 -0.0103,-0.0431 4.66831,-0.0431 l 4.73895,-9e-5 0,0.64085 0,0.64086 -4.74589,0 c -3.15821,0 -4.74125,-0.008 -4.732,-0.0225 0.008,-0.0124 0.0267,-0.0225 0.0424,-0.0225 0.0157,0 0.0524,-0.0255 0.0817,-0.0567 0.0481,-0.0512 0.0499,-0.06 0.0183,-0.0916 -0.0456,-0.0456 -0.17912,-0.0756 -0.33357,-0.0751 -0.13228,4.8e-4 -3.33056,-0.36617 -3.31653,-0.3802 0.005,-0.005 0.63886,-0.0831 1.40947,-0.17446 z m 1.68663,0.73498 c 0.0714,-0.0525 0.11822,-0.0694 0.19255,-0.0694 0.0972,0 0.0981,4.7e-4 0.0911,0.0731 -0.006,0.0644 -0.0187,0.0767 -0.10489,0.10404 -0.0808,0.0256 -0.11307,0.0259 -0.18551,0.002 -0.0482,-0.0159 -0.0877,-0.0315 -0.0877,-0.0346 0,-0.003 0.0425,-0.0369 0.0944,-0.0751 z m 0.36097,-0.14747 c 0.19884,0.033 0.23025,0.10007 0.0787,0.16819 l -0.0956,0.0429 -0.007,-0.0761 c -0.004,-0.0418 -0.0215,-0.0882 -0.0393,-0.10302 -0.0515,-0.0427 -0.0391,-0.049 0.0631,-0.0321 z m 10.65279,-1.04623 1.10182,0 0,0.64085 0,0.64085 -1.10182,0 -1.10182,0 0,-0.64085 0,-0.64085 1.10182,0 z m 2.59749,0 1.47319,0 -0.006,0.63522 -0.006,0.63524 -1.43911,0.006 c -0.79151,0.003 -1.45176,9.5e-4 -1.46722,-0.005 -0.0216,-0.008 -0.0281,-0.15753 -0.0281,-0.64106 l 0,-0.63032 1.47319,0 z m 1.71984,0.65209 0.22486,0 0,0.42724 c 0,0.25968 -0.009,0.42723 -0.0217,0.42723 -0.0119,0 -0.0904,-0.0369 -0.17427,-0.0819 -0.28201,-0.15144 -0.25374,-0.10038 -0.25374,-0.45826 l 0,-0.31429 0.22486,0 z m -0.0141,-0.78548 c 0.11593,-0.0627 0.21733,-0.11396 0.22535,-0.11396 0.008,0 0.0118,0.19478 0.008,0.43285 l -0.006,0.43286 -0.21924,0.006 -0.21924,0.006 0,-0.32533 0,-0.32532 0.21078,-0.11397 z m 2.45626,0.78548 2.19483,0 -0.0151,0.0601 c -0.0197,0.0785 -0.0795,0.15266 -0.21909,0.27185 -0.3503,0.29902 -0.73369,0.45854 -1.2542,0.52187 -0.11142,0.0135 -0.75342,0.0232 -1.54593,0.0232 l -1.35537,0 0,-0.43848 0,-0.43848 2.19483,0 z m -0.85806,-0.92193 c 1.05858,0 1.39029,0.007 1.59394,0.0337 0.56116,0.0736 0.92993,0.23804 1.28158,0.57161 0.11125,0.10554 0.1725,0.19759 0.1725,0.25928 0,0.0312 -0.22736,0.0349 -2.1924,0.0349 l -2.19239,0 0,-0.44972 0,-0.44973 1.33677,0 z"
       id="path3109"
       inkscape:connector-curvature="0" />
    <path
       inkscape:connector-curvature="0"
       id="path3974"
       d="m -289.22305,714.84975 c 0.009,-10e-4 0.0245,-10e-4 0.0338,0 0.009,10e-4 0.0169,-0.10872 0.0169,-0.24485 0,-0.19219 0.007,-0.24751 0.0302,-0.24751 0.0267,0 0.20714,0.0584 0.31095,0.1006 0.0254,0.0103 0.0399,0.003 0.045,-0.0238 0.004,-0.0215 0.0431,-0.0509 0.0864,-0.0654 0.0646,-0.0216 0.08,-0.0389 0.0857,-0.0963 0.006,-0.0643 -4.3e-4,-0.0722 -0.0844,-0.0973 -0.061,-0.0183 -0.0913,-0.0403 -0.0913,-0.0662 0,-0.0347 -0.0196,-0.0321 -0.18564,0.0255 l -0.18563,0.0643 -0.006,-0.24692 c -0.003,-0.13965 -0.0158,-0.24692 -0.0281,-0.24692 -0.0122,0 -0.0218,-0.0791 -0.0218,-0.18 0,-0.10501 0.009,-0.18001 0.0225,-0.18001 0.0136,0 0.0225,-0.0977 0.0225,-0.24794 l 0,-0.24794 0.0619,0.0143 c 0.034,0.008 0.1201,0.0373 0.19126,0.0653 0.12229,0.0481 0.12938,0.0487 0.12938,0.009 0,-0.0289 0.0273,-0.0497 0.09,-0.0684 0.0777,-0.0233 0.09,-0.0358 0.09,-0.0911 0,-0.0538 -0.0145,-0.0699 -0.09,-0.10013 -0.0495,-0.0198 -0.09,-0.0501 -0.09,-0.0673 0,-0.0413 -0.0202,-0.0396 -0.13777,0.0114 -0.0542,0.0235 -0.1314,0.0496 -0.17162,0.058 l -0.0731,0.0153 0,-0.25062 c 0,-0.16135 -0.008,-0.24568 -0.0225,-0.23672 -0.0143,0.009 -0.0225,-0.056 -0.0225,-0.17868 0,-0.11339 0.009,-0.19259 0.0225,-0.19259 0.0136,0 0.0225,-0.0937 0.0225,-0.23626 0,-0.21029 0.004,-0.23618 0.0394,-0.23552 0.0354,5e-4 0.20117,0.055 0.30376,0.0995 0.0281,0.0122 0.0394,0.007 0.0394,-0.0183 0,-0.0495 0.0708,-0.082 0.17853,-0.082 0.0739,0 0.0915,-0.008 0.0915,-0.0415 0,-0.0442 0.0536,-0.10025 0.11744,-0.12286 0.0688,-0.0244 3.30509,0.0949 3.39213,0.125 0.0613,0.0212 1.4017,0.0304 5.88458,0.0402 5.41021,0.0118 5.81597,0.0154 5.96276,0.0518 0.46201,0.11459 0.87484,0.45893 0.80171,0.66872 -0.0489,0.14011 -0.23018,0.30242 -0.47719,0.42711 -0.29467,0.14875 -0.57457,0.17898 -1.6577,0.17906 -0.83341,7e-5 -0.86066,10e-4 -0.86066,0.0432 0,0.12293 -0.19977,0.11435 2.66015,0.11435 l 2.63285,0 0.2278,-0.12492 0.22781,-0.12491 1.49651,0.008 c 1.45345,0.008 1.50293,0.01 1.71998,0.0587 0.42425,0.0958 0.74768,0.25868 1.03207,0.51969 0.15411,0.14144 0.19576,0.21341 0.19576,0.33822 0,0.12485 -0.0417,0.19684 -0.19576,0.33806 -0.24575,0.22525 -0.53007,0.38418 -0.84614,0.47299 -0.36008,0.10117 -0.5309,0.11064 -2.00363,0.11108 l -1.39172,4.1e-4 -0.23089,-0.12385 -0.2309,-0.12385 -2.64132,0.006 -2.64132,0.006 -0.007,0.0713 -0.007,0.0713 1.00821,0.01 c 1.11697,0.0108 1.18507,0.0181 1.48008,0.1594 0.23927,0.11461 0.42409,0.26116 0.48312,0.38309 0.0442,0.0913 0.0468,0.11294 0.0227,0.18611 -0.0499,0.15117 -0.30559,0.35138 -0.60013,0.46989 -0.3157,0.12702 -0.11057,0.12298 -6.23749,0.12298 -4.88063,0 -5.6492,0.005 -5.77986,0.0332 -0.10791,0.0238 -0.54675,0.0462 -1.54576,0.0788 -2.00588,0.0655 -1.88754,0.0646 -1.9438,0.0139 -0.0261,-0.0236 -0.0476,-0.0615 -0.0476,-0.0844 0,-0.0323 -0.0172,-0.0415 -0.0777,-0.0415 -0.0951,0 -0.19232,-0.0417 -0.19232,-0.0824 0,-0.0385 0.008,-0.0398 -0.16659,0.0261 -0.22525,0.0848 -0.21592,0.0924 -0.21592,-0.1776 0,-0.18711 -0.007,-0.23644 -0.0338,-0.2468 -0.0259,-0.01 -0.0338,-0.0525 -0.0338,-0.18242 0,-0.0932 0.008,-0.17066 0.0169,-0.17213 z m 0.47177,-3.2431 c 0.005,-0.034 0.005,-0.0897 0,-0.12376 -0.005,-0.034 -0.009,-0.006 -0.009,0.0619 0,0.0681 0.004,0.0959 0.009,0.0619 z m 0,0.27001 c 0.005,-0.034 0.005,-0.0897 0,-0.12376 -0.005,-0.034 -0.009,-0.006 -0.009,0.0619 0,0.0681 0.004,0.0959 0.009,0.0619 z m -10e-4,0.19169 c 0.006,-0.0152 0.007,-0.0456 10e-4,-0.0675 -0.006,-0.0219 -0.0107,-0.009 -0.0112,0.0277 -4.5e-4,0.0371 0.004,0.055 0.0104,0.0398 z m 10e-4,0.23583 c 0.005,-0.034 0.005,-0.0897 0,-0.12376 -0.005,-0.034 -0.009,-0.006 -0.009,0.0619 0,0.0681 0.004,0.0959 0.009,0.0619 z m 0,0.27001 c 0.005,-0.034 0.005,-0.0897 0,-0.12376 -0.005,-0.034 -0.009,-0.006 -0.009,0.0619 0,0.0681 0.004,0.0959 0.009,0.0619 z m 0,0.54043 c 0.005,-0.0338 0.005,-0.0946 2.2e-4,-0.13501 -0.005,-0.0405 -0.009,-0.0128 -0.009,0.0615 -2.2e-4,0.0743 0.004,0.10735 0.009,0.0735 z m 0,0.27001 c 0.005,-0.0338 0.005,-0.0946 2.2e-4,-0.13501 -0.005,-0.0405 -0.009,-0.0128 -0.009,0.0615 -2.2e-4,0.0743 0.004,0.10734 0.009,0.0735 z m -5e-4,0.1796 c 0.006,-0.0217 0.006,-0.0571 0,-0.0787 -0.006,-0.0216 -0.0103,-0.004 -0.0103,0.0394 0,0.0433 0.004,0.061 0.0103,0.0394 z m 5e-4,0.24791 c 0.005,-0.0338 0.005,-0.0946 2.2e-4,-0.135 -0.005,-0.0405 -0.009,-0.0128 -0.009,0.0615 -2.2e-4,0.0743 0.004,0.10734 0.009,0.0735 z m 0,0.27002 c 0.005,-0.0338 0.005,-0.0946 2.2e-4,-0.13501 -0.005,-0.0405 -0.009,-0.0128 -0.009,0.0615 -2.2e-4,0.0743 0.004,0.10734 0.009,0.0735 z m 0,0.51712 c 0.005,-0.034 0.005,-0.0897 0,-0.12376 -0.005,-0.034 -0.009,-0.006 -0.009,0.0619 0,0.0681 0.004,0.0959 0.009,0.0619 z m 0,0.27001 c 0.005,-0.034 0.005,-0.0897 0,-0.12376 -0.005,-0.034 -0.009,-0.006 -0.009,0.0619 0,0.0681 0.004,0.0959 0.009,0.0619 z m -10e-4,0.19169 c 0.006,-0.0152 0.007,-0.0456 10e-4,-0.0675 -0.006,-0.0219 -0.0107,-0.009 -0.0112,0.0277 -4.5e-4,0.0371 0.004,0.055 0.0104,0.0398 z m 10e-4,0.23583 c 0.005,-0.034 0.005,-0.0897 0,-0.12376 -0.005,-0.034 -0.009,-0.006 -0.009,0.0619 0,0.0681 0.004,0.0959 0.009,0.0619 z m 0,0.27001 c 0.005,-0.034 0.005,-0.0897 0,-0.12375 -0.005,-0.034 -0.009,-0.006 -0.009,0.0619 0,0.0681 0.004,0.0959 0.009,0.0619 z m 0.0383,-2.9195 c 0.005,0 0.0254,0.006 0.045,0.0136 0.032,0.0122 0.0356,-0.0523 0.0356,-0.63003 0,-0.52141 -0.006,-0.64369 -0.03,-0.64369 -0.0165,0 -0.0368,0.007 -0.045,0.015 -0.016,0.016 -0.0215,1.24505 -0.006,1.24505 z m 0.0412,1.50329 c 0.0368,0.007 0.0394,-0.0346 0.0394,-0.62411 0,-0.61832 -10e-4,-0.63167 -0.0454,-0.63167 -0.0445,0 -0.0453,0.0114 -0.0394,0.6241 0.005,0.57374 0.009,0.62472 0.0453,0.63168 z m 0,1.50756 c 0.0368,0.007 0.0394,-0.0352 0.0394,-0.63535 0,-0.52077 -0.006,-0.64293 -0.03,-0.64293 -0.0165,0 -0.0369,0.007 -0.0453,0.0153 -0.008,0.008 -0.0127,0.29435 -0.009,0.63535 0.005,0.56984 0.009,0.62062 0.0453,0.62758 z m 0.38815,-2.98835 c 0.19295,0 0.32626,0.009 0.32626,0.0215 0,0.0118 -0.0785,0.0245 -0.17438,0.0281 -0.13133,0.005 -0.016,0.0199 0.46689,0.0606 0.85181,0.0718 1.16605,0.087 1.82258,0.0881 0.50351,10e-4 0.70236,-0.0148 0.60753,-0.0478 -0.0186,-0.006 -0.46409,-0.024 -0.99005,-0.039 -0.52595,-0.015 -1.12842,-0.0345 -1.33881,-0.0434 l -0.38251,-0.0162 0.4313,-0.003 c 0.23722,-0.002 0.44732,-0.01 0.4669,-0.0171 0.0512,-0.0196 0.0438,-0.0655 -0.015,-0.0939 -0.0278,-0.0134 -0.038,-0.0251 -0.0225,-0.0259 0.0155,-10e-4 0.0484,0.0187 0.0731,0.0435 0.0403,0.0403 0.0783,0.0455 0.36564,0.0493 l 0.32064,0.005 -0.35258,0.0126 c -0.19392,0.007 -0.36015,0.0202 -0.36939,0.0295 -0.009,0.009 0.0127,0.017 0.0488,0.0171 0.0361,1.1e-4 0.46627,0.0103 0.95595,0.0227 0.65535,0.0165 0.92436,0.0313 1.01927,0.056 0.10307,0.0268 0.29575,0.0336 0.96038,0.0336 0.77585,0 0.83161,-0.002 0.83405,-0.0394 0.002,-0.0375 0.003,-0.0375 0.0129,0 0.006,0.0245 0.0319,0.0394 0.0675,0.0394 0.0484,0 0.0551,-0.008 0.0437,-0.0506 -0.007,-0.0278 -0.0137,-0.0633 -0.0139,-0.0788 -4.8e-4,-0.0438 -0.0675,-0.0331 -0.0704,0.0112 -0.002,0.0375 -0.003,0.0375 -0.0129,0 -0.01,-0.0366 -0.0684,-0.0394 -0.83555,-0.0391 -0.65612,2e-4 -0.85062,0.007 -0.94901,0.0335 -0.0752,0.0202 -0.20754,0.0317 -0.33752,0.0293 l -0.21375,-0.004 0.19125,-0.0127 c 0.33591,-0.0223 0.14072,-0.0558 -0.40502,-0.0695 l -0.50627,-0.0127 0.48616,-0.005 0.48616,-0.005 0.10315,-0.0788 c 0.0799,-0.061 0.12434,-0.0788 0.19724,-0.0788 0.0811,0 0.0902,-0.005 0.0661,-0.0338 -0.0185,-0.0223 -0.0688,-0.0338 -0.14808,-0.0338 -0.11053,0 -0.50875,-0.0436 -1.43824,-0.15736 -0.99121,-0.12134 -1.9519,-0.2271 -1.96291,-0.21608 -0.007,0.007 0.002,0.0174 0.019,0.0237 0.13905,0.0502 1.14746,0.42392 1.1965,0.44342 0.0344,0.0137 0.0585,0.029 0.0535,0.0339 -0.005,0.005 -0.0614,-0.0116 -0.12531,-0.0368 -0.13632,-0.0537 -0.16229,-0.0565 -0.14666,-0.0158 0.0241,0.0627 -0.0656,0.13153 -0.18259,0.14007 l -0.11161,0.008 0.11197,-0.0205 c 0.12494,-0.0229 0.18883,-0.0805 0.14138,-0.12758 -0.0156,-0.0155 -0.24604,-0.10729 -0.51211,-0.20405 l -0.48377,-0.17595 -0.005,-0.0918 -0.005,-0.0918 0.48897,-0.17469 c 0.26893,-0.0961 0.50271,-0.18761 0.51951,-0.2034 0.0256,-0.024 0.0234,-0.0359 -0.0135,-0.0728 -0.0591,-0.0591 -0.35261,-0.0958 -0.76672,-0.0958 l -0.31912,0 0,0.64128 0,0.64127 0.32627,0 z m 0.42752,-0.0168 c 0.0495,2.5e-4 0.0671,0.005 0.0391,0.0102 -0.028,0.005 -0.0685,0.005 -0.09,-4.5e-4 -0.0215,-0.006 0.002,-0.01 0.0509,-0.01 z m -0.41065,1.51758 c 0.48139,-0.0193 0.69289,-0.0507 0.74343,-0.11038 0.0221,-0.0261 0.0318,-0.056 0.0214,-0.0663 -0.0155,-0.0155 -0.98645,-0.37898 -1.01244,-0.37898 -0.004,0 -0.005,-0.0417 -0.001,-0.0926 l 0.007,-0.0925 0.49502,-0.17894 c 0.27226,-0.0984 0.50295,-0.1867 0.51263,-0.1962 0.035,-0.0343 -0.0127,-0.0923 -0.0931,-0.113 -0.14861,-0.0384 -0.4827,-0.0692 -0.75147,-0.0692 l -0.26438,-6e-5 0,0.65601 0,0.65601 0.34314,-0.0138 z m -0.0112,1.49039 c 0.41819,-0.002 0.71963,-0.0416 0.76267,-0.10042 0.0248,-0.034 0.0254,-0.0477 0.002,-0.0698 -0.0156,-0.0151 -0.23085,-0.10023 -0.47837,-0.18916 -0.24751,-0.0889 -0.46672,-0.17051 -0.48714,-0.18128 -0.0238,-0.0126 -0.0371,-0.0481 -0.0371,-0.0992 0,-0.0512 0.0132,-0.0865 0.0371,-0.0989 0.0204,-0.0106 0.23963,-0.0927 0.48714,-0.18231 0.24752,-0.0896 0.46169,-0.17231 0.47597,-0.18371 0.0162,-0.013 0.029,-0.0116 0.0341,0.004 0.006,0.0165 0.04,0.0131 0.10695,-0.0106 0.0544,-0.0192 0.10274,-0.031 0.1075,-0.0262 0.005,0.005 -0.25754,0.10737 -0.5829,0.22803 -0.32537,0.12066 -0.59579,0.22319 -0.60095,0.22785 -0.0306,0.0276 0.0647,0.0212 0.56091,-0.0376 0.30306,-0.0359 0.58646,-0.0643 0.62977,-0.0631 0.0984,0.002 -0.008,0.0184 -0.60752,0.0892 -0.24133,0.0285 -0.42359,0.0548 -0.40502,0.0583 0.15722,0.0303 3.13683,0.36671 3.24756,0.36671 0.17732,0 0.37567,0.0359 0.4149,0.0752 0.0428,0.0428 0.0112,0.10051 -0.0819,0.14972 -0.0807,0.0426 -0.0159,0.0432 5.43672,0.0441 l 5.51836,10e-4 0,-0.64128 0,-0.64128 -5.51836,10e-4 c -5.45262,10e-4 -5.51739,10e-4 -5.43672,0.0441 0.0938,0.0496 0.12467,0.10697 0.081,0.1506 -0.0372,0.0372 -0.25153,0.0739 -0.43269,0.0742 -0.0743,1.1e-4 -0.47862,0.0407 -0.8986,0.0901 -0.41997,0.0494 -0.78449,0.0887 -0.81003,0.0871 -0.12432,-0.008 1.48272,-0.19971 1.66986,-0.19971 0.0864,0 0.14365,-0.011 0.16006,-0.0308 0.0208,-0.0251 0.007,-0.0329 -0.0747,-0.0421 -0.0638,-0.007 -0.13506,-0.0369 -0.19599,-0.0817 -0.0918,-0.0675 -0.1056,-0.0706 -0.3332,-0.0746 l -0.23745,-0.004 0.24751,-0.0146 c 0.33288,-0.0197 0.42058,-0.0512 0.19125,-0.0686 l -0.16876,-0.0128 0.19127,-0.003 c 0.10519,-0.002 0.25201,0.011 0.32626,0.0289 0.10455,0.0252 0.31624,0.0328 0.9383,0.0334 0.7418,5e-4 0.80504,-0.002 0.82622,-0.0386 0.0218,-0.0375 0.023,-0.0375 0.0236,0 10e-4,0.0796 0.0642,0.0396 0.0794,-0.0506 l 0.0152,-0.09 3.82881,0.002 c 2.10585,10e-4 3.8182,0.006 3.80525,0.0116 -0.0129,0.005 -0.0194,0.0451 -0.0144,0.0882 0.007,0.0587 0.0199,0.0784 0.0517,0.0784 0.0313,0 0.0426,-0.0163 0.0429,-0.0619 4.1e-4,-0.073 0.019,-0.10485 0.0728,-0.12469 0.0362,-0.0134 0.0394,-0.0656 0.0394,-0.65651 l 0,-0.64198 -4.76458,9.9e-4 c -4.68406,0.001 -4.76322,0.002 -4.68422,0.0435 0.0442,0.0234 0.0935,0.0584 0.10964,0.0778 0.0687,0.0828 -0.085,0.14664 -0.35876,0.14897 -0.20827,0.002 -3.30944,0.37009 -3.26263,0.38749 0.0544,0.0202 2.97691,0.35389 3.28192,0.3747 0.24116,0.0165 0.28444,0.0255 0.32626,0.0679 l 0.0482,0.0489 -0.0586,0.0493 c -0.0323,0.0271 -0.0778,0.0614 -0.10126,0.0761 -0.0335,0.021 0.13136,0.0272 0.76743,0.0285 0.44551,9.9e-4 0.79889,0.009 0.78528,0.0182 -0.0136,0.009 -0.0305,0.0317 -0.0376,0.0503 -0.01,0.0264 -0.0132,0.025 -0.0146,-0.007 -10e-4,-0.0383 -0.0477,-0.0399 -0.88494,-0.0309 -0.523,0.006 -0.93822,0.0199 -1.01817,0.0351 -0.0758,0.0144 -0.45077,0.0293 -0.85504,0.0341 l -0.72003,0.008 0.60752,-0.0206 c 0.73763,-0.025 0.91186,-0.0387 0.86051,-0.0674 -0.0523,-0.0292 -1.69311,-0.01 -1.9293,0.0231 -0.10519,0.0146 -0.41402,0.0458 -0.68628,0.0695 -0.3024,0.0263 -0.39871,0.0392 -0.24751,0.0333 0.48049,-0.0188 1.39268,-0.0281 1.21505,-0.0123 -0.099,0.009 -0.17494,0.0197 -0.16875,0.0242 0.006,0.005 0.22894,0.0144 0.49502,0.0221 l 0.48377,0.0139 -0.45565,0.005 c -0.2506,0.002 -0.45564,0.0136 -0.45564,0.0247 0,0.011 -0.0166,0.0265 -0.0369,0.0343 -0.0311,0.0119 -0.0324,0.009 -0.008,-0.0206 0.0159,-0.0191 0.0216,-0.0421 0.0126,-0.0511 -0.0278,-0.0278 -0.3021,-0.0394 -0.65395,-0.0277 -0.33527,0.0112 -0.34566,0.0244 -0.045,0.0575 0.13876,0.0152 0.23626,0.0585 0.23626,0.10488 0,0.0144 -0.0138,0.007 -0.0307,-0.0157 -0.0428,-0.0585 -0.34528,-0.0983 -0.76245,-0.10012 l -0.33189,-10e-4 0,0.64128 0,0.64127 0.33189,-10e-4 z m 1.11067,-1.18856 c 0.0398,-0.0138 0.0762,-0.0213 0.0811,-0.0164 0.005,0.005 -0.0238,0.0201 -0.0636,0.034 -0.0398,0.0139 -0.0762,0.0213 -0.081,0.0164 -0.005,-0.005 0.0238,-0.0201 0.0635,-0.034 z m 0.16692,0.36942 c 0.0943,-0.009 0.17621,-0.0113 0.18203,-0.005 0.006,0.006 -0.0666,0.0178 -0.16085,0.0267 -0.0943,0.009 -0.17621,0.0113 -0.18203,0.005 -0.006,-0.006 0.0666,-0.0178 0.16085,-0.0267 z m -1.55323,-1.99199 c 0.0236,0 0.0338,-0.0238 0.0338,-0.0788 0,-0.055 -0.0102,-0.0788 -0.0338,-0.0788 -0.0236,0 -0.0338,0.0238 -0.0338,0.0788 0,0.055 0.0102,0.0788 0.0338,0.0788 z m 0,1.50756 c 0.0236,0 0.0338,-0.0238 0.0338,-0.0788 0,-0.055 -0.0102,-0.0788 -0.0338,-0.0788 -0.0236,0 -0.0338,0.0238 -0.0338,0.0788 0,0.055 0.0102,0.0788 0.0338,0.0788 z m 0.47032,-3.00697 c 0.21535,0.0223 0.43025,0.0493 0.47754,0.06 0.095,0.0214 0.15109,0.0794 0.13537,0.14 -0.006,0.0217 -0.009,0.0394 -0.007,0.0393 0.002,-4e-5 0.10399,-0.0382 0.22679,-0.0848 0.22719,-0.0862 0.28269,-0.13002 0.18897,-0.1492 -0.10817,-0.0221 -1.34731,-0.1078 -1.37969,-0.0954 -0.0849,0.0326 -0.007,0.0523 0.35772,0.0901 z m -0.29593,1.46365 c 0.0526,0.007 0.25443,0.0309 0.44852,0.054 0.36954,0.0441 0.46839,0.0783 0.46839,0.16223 0,0.0245 0.004,0.0445 0.009,0.0445 0.009,0 0.27195,-0.096 0.37958,-0.13851 0.034,-0.0134 0.0619,-0.0384 0.0619,-0.0555 0,-0.0186 -0.0248,-0.0315 -0.0619,-0.0321 -0.034,-5e-4 -0.35046,-0.0245 -0.70316,-0.0531 -0.3527,-0.0286 -0.65394,-0.0474 -0.66941,-0.0415 -0.0564,0.0211 -0.0259,0.0483 0.0675,0.06 z m 1.61769,0.49772 c 0.89901,-0.10557 1.6749,-0.19195 1.7242,-0.19195 0.0522,0 0.10131,-0.0141 0.11763,-0.0338 0.0241,-0.0291 0.0149,-0.0338 -0.0674,-0.0338 -0.0736,0 -0.1199,-0.018 -0.20265,-0.0788 l -0.10728,-0.0788 -0.839,0 c -0.67894,0 -0.84578,0.006 -0.87453,0.0309 -0.0195,0.017 -0.35953,0.15115 -0.75555,0.29813 -0.39602,0.14699 -0.69978,0.2701 -0.67503,0.27357 0.0247,0.004 0.78056,-0.0801 1.67957,-0.18563 z m -0.9598,0.52712 c 0.37112,0.13816 0.69087,0.26577 0.71055,0.28359 0.0298,0.027 0.17545,0.0324 0.86822,0.0324 l 0.83242,0 0.11077,-0.0788 c 0.0848,-0.0603 0.1332,-0.0788 0.20647,-0.0788 0.0558,0 0.0957,-0.0105 0.0957,-0.0253 0,-0.0174 0.0104,-0.0166 0.0338,0.003 0.0186,0.0154 0.0338,0.063 0.0338,0.1057 l 0,0.0777 0.0954,-0.0526 c 0.18664,-0.10296 0.10575,-0.17021 -0.20789,-0.17283 -0.0804,-5e-4 -0.87971,-0.0877 -1.77616,-0.19334 -0.89645,-0.10566 -1.66092,-0.19147 -1.69882,-0.19069 -0.0857,0.002 -0.14379,-0.0224 0.69585,0.29013 z m -0.46664,0.44074 c 0.59899,-0.0346 1.16082,-0.0909 1.16945,-0.11705 0.007,-0.0226 -0.0638,-0.0551 -0.41459,-0.18933 -0.0379,-0.0145 -0.0468,-0.0116 -0.0377,0.0121 0.0211,0.0551 -0.0351,0.12244 -0.12133,0.14521 -0.0462,0.0122 -0.23081,0.0381 -0.41026,0.0574 -0.42623,0.0461 -0.47251,0.0542 -0.47251,0.0836 0,0.0174 0.0838,0.0198 0.28688,0.008 z m -0.25619,1.50849 c 0.0382,0.0147 1.40696,-0.0933 1.42615,-0.11247 0.0255,-0.0255 -0.026,-0.0548 -0.2381,-0.13567 -0.11553,-0.0441 -0.2133,-0.0801 -0.21727,-0.0801 -0.004,0 -0.002,0.0177 0.003,0.0394 0.0296,0.11387 -0.0807,0.14592 -0.71759,0.20849 -0.26257,0.0258 -0.33728,0.0492 -0.25619,0.0803 z m 1.673,-3.97247 c 0.84422,-0.0995 1.5941,-0.1809 1.6664,-0.1809 0.0774,0 0.14925,-0.013 0.17467,-0.0316 0.0398,-0.0291 0.0344,-0.0329 -0.0688,-0.0481 -0.0736,-0.0108 -0.14258,-0.0405 -0.20111,-0.0865 l -0.0891,-0.0701 -0.84166,-0.006 c -0.71272,-0.005 -0.84558,-0.001 -0.86723,0.0261 -0.014,0.0179 -0.34956,0.15241 -0.74557,0.29893 -0.57526,0.21284 -0.70417,0.26771 -0.64127,0.27291 0.0433,0.004 0.76945,-0.0749 1.61366,-0.17438 z m -0.97882,3.50984 c 0.3863,0.142 0.72206,0.27752 0.74612,0.30115 0.042,0.0413 0.0765,0.0424 0.87776,0.0283 l 0.83401,-0.0147 0.0985,-0.0707 c 0.0615,-0.0442 0.13573,-0.0749 0.19774,-0.0819 0.0808,-0.009 0.0945,-0.0169 0.0737,-0.042 -0.0162,-0.0195 -0.0728,-0.0308 -0.15405,-0.0308 -0.10048,0 -2.84974,-0.31168 -3.28051,-0.37191 -0.0526,-0.007 -0.0956,-0.005 -0.0956,0.005 0,0.0103 0.31607,0.13502 0.70237,0.27701 z m -0.50591,-4.10266 c 0.0219,-0.006 0.009,-0.0107 -0.0277,-0.0112 -0.0371,-4.6e-4 -0.055,0.004 -0.0398,0.0104 0.0152,0.006 0.0456,0.007 0.0675,10e-4 z m 1.57474,0.99685 c 0.84421,0.0991 1.60059,0.18011 1.68084,0.18011 0.0802,0 0.19636,0.0108 0.25804,0.024 0.18422,0.0395 0.20278,0.1093 0.0523,0.19654 l -0.0835,0.0484 5.51836,5e-4 5.51836,5e-4 0,-0.64127 0,-0.64128 -5.49586,3.1e-4 c -3.02272,1.5e-4 -5.51864,0.006 -5.54649,0.0139 -0.0391,0.0105 -0.0506,0.0299 -0.0506,0.0852 0,0.0394 -0.0126,0.0851 -0.0281,0.10155 -0.0233,0.0247 -0.009,0.0275 0.0821,0.0157 0.11624,-0.015 0.17955,-0.0496 0.15707,-0.086 -0.007,-0.012 -0.0453,-0.0412 -0.0841,-0.0649 -0.0389,-0.0237 -0.0571,-0.0431 -0.0404,-0.0432 0.0472,-1.4e-4 0.16098,0.0892 0.16098,0.12635 0,0.0617 -0.15286,0.10004 -0.47977,0.12031 -0.17545,0.0109 -0.92654,0.0915 -1.66907,0.17915 -1.45312,0.17153 -1.57037,0.18675 -1.51882,0.19713 0.0186,0.004 0.72447,0.0879 1.56869,0.18691 z m -0.003,3.55636 c 0.74138,-0.0254 1.38339,-0.0465 1.42671,-0.0469 0.063,-5e-4 0.0711,-0.005 0.0405,-0.023 -0.0243,-0.0141 -0.35808,-0.0191 -0.91129,-0.0136 -0.68226,0.007 -1.00327,0.0205 -1.46927,0.0624 -0.32795,0.0295 -0.55989,0.0567 -0.51542,0.0604 0.0445,0.003 0.68744,-0.014 1.42881,-0.0394 z m -0.66588,-4.4642 c 0.5271,0.0541 2.20542,0.0682 2.15535,0.0181 -0.0117,-0.0117 -2.60011,-0.10139 -2.80417,-0.0972 -0.14036,0.003 -0.13555,0.005 0.075,0.0232 0.12376,0.011 0.38195,0.0362 0.57378,0.0558 z m 2.36822,0.21588 0.10689,0.0115 0,-0.0743 c 0,-0.0654 -0.01,-0.0774 -0.082,-0.1013 -0.10089,-0.0333 -0.15759,-0.0334 -0.24208,-4.3e-4 l -0.0653,0.0255 0.0878,0.0637 c 0.0558,0.0405 0.12675,0.0679 0.19467,0.0752 z m -0.12074,1.18628 c 0.0295,4.4e-4 0.0928,-0.0109 0.14064,-0.0253 0.0793,-0.0237 0.087,-0.033 0.087,-0.10418 l 0,-0.0781 -0.10167,0.0114 c -0.0571,0.006 -0.14264,0.0386 -0.19503,0.0732 l -0.0934,0.0618 0.0544,0.0301 c 0.0299,0.0166 0.0785,0.0305 0.10804,0.0309 z m -0.0605,0.24636 c 0.0715,0.0526 0.11831,0.0694 0.19269,0.0694 0.0973,0 0.0982,-5e-4 0.0912,-0.0731 -0.006,-0.0645 -0.0186,-0.0768 -0.10496,-0.10411 -0.0809,-0.0256 -0.11314,-0.0259 -0.18563,-0.002 -0.0483,0.0159 -0.0877,0.0315 -0.0877,0.0347 0,0.003 0.0425,0.037 0.0944,0.0752 z m 0.0107,1.5074 c 0.0775,0.0513 0.13112,0.0696 0.20394,0.0696 0.0979,0 0.0988,-5e-4 0.0918,-0.0731 -0.006,-0.0662 -0.0181,-0.0768 -0.12389,-0.1119 -0.10523,-0.0349 -0.12478,-0.0355 -0.19688,-0.005 -0.044,0.0184 -0.08,0.0374 -0.08,0.0423 0,0.005 0.0473,0.0402 0.10511,0.0784 z m 0.0659,1.23887 c 0.0384,4.4e-4 0.10165,-0.0103 0.14063,-0.0239 0.0614,-0.0214 0.0709,-0.0353 0.0709,-0.10381 l 0,-0.0791 -0.10688,0.0154 c -0.0588,0.009 -0.1455,0.0419 -0.1927,0.0741 l -0.0858,0.0587 0.0521,0.0289 c 0.0286,0.0159 0.0835,0.0293 0.12185,0.0297 z m -0.0749,-1.50845 c 0.055,0.0182 0.0991,0.017 0.17437,-0.005 0.0897,-0.0258 0.10154,-0.037 0.10781,-0.10131 0.007,-0.072 0.007,-0.0723 -0.0971,-0.0723 -0.0777,0 -0.12381,0.015 -0.18144,0.0589 -0.0425,0.0324 -0.0772,0.0671 -0.0772,0.077 0,0.01 0.0331,0.029 0.0736,0.0424 z m 0.33138,-1.62224 c 0,0.0393 0.005,0.0714 0.0121,0.0714 0.007,0 0.0522,-0.0204 0.10125,-0.0455 0.14515,-0.074 0.11055,-0.13129 -0.0991,-0.16399 -0.0824,-0.0128 -0.0851,-0.0114 -0.0506,0.0266 0.02,0.0221 0.0363,0.0723 0.0363,0.11152 z m 0.077,0.52175 c 0.15945,-0.0331 0.16967,-0.0863 0.0299,-0.15566 l -0.0956,-0.0475 -0.007,0.0772 c -0.004,0.0425 -0.0217,0.0895 -0.0399,0.1046 -0.0525,0.0436 -0.0222,0.0494 0.11252,0.0214 z m 0.0243,1.49743 c 0.11511,-0.0216 0.13869,-0.0667 0.0628,-0.1201 -0.0346,-0.0243 -0.0856,-0.0513 -0.11344,-0.06 -0.0459,-0.0142 -0.0506,-0.008 -0.0506,0.0632 0,0.0434 -0.0126,0.0869 -0.0281,0.0966 -0.0406,0.0255 0.0368,0.0376 0.12936,0.0202 z m -0.10124,0.97055 c 0,0.0878 0.007,0.089 0.12376,0.0225 0.1019,-0.0577 0.10823,-0.0825 0.0312,-0.12234 -0.0729,-0.0377 -0.21942,-0.0389 -0.18199,-10e-4 0.0148,0.0148 0.027,0.0604 0.027,0.10126 z m 1.76071,-2.75376 c 0.0263,0.0357 0.2736,0.0378 3.79703,0.0324 l 3.76892,-0.006 0.007,-0.0731 0.007,-0.0731 -3.80408,0 c -3.65511,0 -3.80409,0.002 -3.80409,0.0407 0,0.0224 0.0126,0.0579 0.0281,0.0789 z m 3.77596,1.54546 3.80409,0 -0.007,-0.0731 -0.007,-0.0731 -3.76891,-0.006 c -3.52343,-0.005 -3.77074,-0.004 -3.79704,0.0324 -0.0155,0.021 -0.0281,0.0565 -0.0281,0.0789 0,0.0391 0.14898,0.0407 3.80409,0.0407 z m 3.92438,-1.51149 c 0.004,-0.004 0.002,-0.0402 -0.004,-0.0805 -0.008,-0.0517 -0.0232,-0.0731 -0.0522,-0.0731 -0.0298,0 -0.043,0.0199 -0.0481,0.0731 -0.006,0.0621 10e-4,0.0742 0.0456,0.0805 0.029,0.004 0.0556,0.004 0.0592,0 z m 1.22692,1.33148 1.10255,0 0,-0.65252 0,-0.65253 -1.10255,0 -1.10255,0 0,0.65253 0,0.65252 1.10255,0 z m 0.59065,-1.52021 c 0.45194,-0.0479 0.72522,-0.14461 0.98217,-0.34772 0.13144,-0.10389 0.18225,-0.18882 0.18225,-0.30463 0,-0.0705 -0.0186,-0.10042 -0.13018,-0.2096 -0.23677,-0.23168 -0.5439,-0.35248 -1.01174,-0.39793 l -0.16313,-0.0158 0,0.6453 0,0.6453 0.14063,-0.0149 z m 0,2.99494 c 0.44455,-0.0466 0.70149,-0.13375 0.95013,-0.32217 0.25719,-0.19488 0.28088,-0.37763 0.0727,-0.56045 -0.11331,-0.0995 -0.33675,-0.22964 -0.48161,-0.28056 -0.10873,-0.0382 -0.51681,-0.10719 -0.64245,-0.1086 -0.0366,-4e-4 -0.0394,0.0451 -0.0394,0.64305 l 0,0.64349 0.14063,-0.0147 z m 2.00821,-1.48597 1.46256,0 0,-0.64128 0,-0.64128 -1.44006,-0.006 c -0.79203,-0.003 -1.45288,-10e-4 -1.46854,0.005 -0.0222,0.008 -0.0272,0.15027 -0.0225,0.64711 l 0.006,0.63623 1.46257,0 z m 1.72486,-0.66378 0.22854,0 -0.0139,-0.41918 c -0.008,-0.23055 -0.0186,-0.42383 -0.0243,-0.4295 -0.006,-0.006 -0.0567,0.0159 -0.11335,0.0479 -0.0567,0.032 -0.14859,0.084 -0.20428,0.11544 l -0.10125,0.0572 0,0.31406 0,0.31407 0.22854,0 z m -0.0204,0.78591 0.20813,0.11274 0.0145,-0.19619 c 0.008,-0.10791 0.0156,-0.29998 0.0169,-0.42683 l 0.002,-0.23064 -0.22501,0 -0.22501,0 0,0.3141 0,0.31409 0.20814,0.11273 z m 2.45823,-0.78591 c 1.51675,0 2.19385,-0.007 2.19385,-0.0236 0,-0.0505 -0.0686,-0.1496 -0.17262,-0.24939 -0.30261,-0.29034 -0.59231,-0.4379 -1.06494,-0.54241 -0.20253,-0.0448 -0.29089,-0.0477 -1.68195,-0.0559 l -1.46818,-0.009 0,0.43997 0,0.43997 2.19384,0 z m -0.72566,0.91578 c 1.2393,-0.008 1.49604,-0.0151 1.64682,-0.0459 0.46329,-0.0947 0.77835,-0.25167 1.08922,-0.54282 0.11331,-0.10612 0.18347,-0.20495 0.18347,-0.25843 0,-0.0163 -0.6771,-0.0236 -2.19385,-0.0236 l -2.19384,0 0,0.44011 0,0.44009 1.46818,-0.009 z"
       style="fill:#ffffff;stroke:#000000;stroke-opacity:1;stroke-width:0.05;stroke-miterlimit:4;stroke-dasharray:none" />
    <path
       style="fill:#ffffff;fill-opacity:1;stroke:#000000;stroke-width:0.05;stroke-linecap:round;stroke-linejoin:bevel;stroke-miterlimit:4;stroke-opacity:1;stroke-dasharray:none"
       d="M 7.0256967,9.4073175 C 4.7502201,9.3928183 4.693001,9.3898205 4.6652367,9.2836496 4.649587,9.2238049 4.5914057,9.17484 4.535945,9.1748386 4.3266435,9.1748335 1.5475648,8.8488712 1.5197593,8.8210657 1.5037581,8.8050644 1.5378411,8.7919206 1.5954993,8.791857 1.9282144,8.7914902 4.6032945,8.451094 4.6630233,8.4015235 4.7024609,8.3687932 4.72124,8.3201897 4.7047546,8.2935157 4.6874032,8.2654405 6.94486,8.2450176 10.065516,8.2450176 l 5.390734,0 0,0.6016505 0,0.6016505 -3.049274,-0.013071 c -1.677101,-0.00719 -4.0986764,-0.019758 -5.3812793,-0.02793 z"
       id="path4008"
       inkscape:connector-curvature="0"
       transform="translate(-289.23967,703.19661)" />
    <path
       style="fill:#ffffff;fill-opacity:1;stroke:#000000;stroke-width:0.05;stroke-linecap:round;stroke-linejoin:bevel;stroke-miterlimit:4;stroke-opacity:1;stroke-dasharray:none"
       d="M 9.2638212,10.938459 C 5.246948,10.92619 4.6887236,10.914534 4.7159812,10.843502 4.7652115,10.71521 4.5919579,10.680783 3.0528957,10.51304 2.2625969,10.426905 1.6472725,10.339777 1.6855083,10.319422 1.723744,10.299068 2.3580457,10.216705 3.0950675,10.136393 4.7180924,9.9595343 4.681237,9.9666501 4.681237,9.830145 c 0,-0.1071468 0.05128,-0.1083489 4.6217697,-0.1083489 l 4.6217693,0 0,0.5984229 c 0,0.329132 -0.01846,0.606028 -0.04102,0.615324 -0.02256,0.0093 -2.101532,0.01061 -4.6199338,0.0029 l 0,0 z"
       id="path4010"
       inkscape:connector-curvature="0"
       transform="translate(-289.23967,703.19661)" />
    <path
       style="fill:#ffffff;fill-opacity:1;stroke:#000000;stroke-width:0.05;stroke-linecap:round;stroke-linejoin:bevel;stroke-miterlimit:4;stroke-opacity:1;stroke-dasharray:none"
       d="m 4.681237,12.318116 c 0,-0.04607 -0.034516,-0.097 -0.076702,-0.113193 C 4.562349,12.188733 3.8178067,12.095715 2.9499962,11.998213 1.5483734,11.840735 1.4072825,11.816286 1.686658,11.779297 c 0.457249,-0.06054 0.4079506,-0.165803 -0.054696,-0.116788 -0.203057,0.02151 -0.355864,0.02541 -0.339571,0.0087 0.016293,-0.01675 0.2553415,-0.117633 0.5312191,-0.224177 0.4250487,-0.164154 0.5686855,-0.193716 0.9412216,-0.193716 0.2566203,0 0.4396259,-0.02277 0.4396259,-0.0547 0,-0.03008 0.049226,-0.0547 0.109391,-0.0547 0.060165,0 0.109391,0.02461 0.109391,0.0547 0,0.03008 0.1046052,0.05507 0.2324559,0.05553 0.2128772,7.67e-4 0.4295963,0.07347 0.3676106,0.123327 -0.022564,0.01815 -0.7038581,0.101483 -1.634975,0.199987 -0.1835259,0.01942 -0.3061622,0.06059 -0.3218244,0.10804 -0.019553,0.05925 0.013483,0.06891 0.145348,0.04254 0.093859,-0.01877 0.6673308,-0.08511 1.2743812,-0.147412 0.6070504,-0.06231 1.1242643,-0.125973 1.1493641,-0.141486 0.0251,-0.01551 0.045636,-0.06367 0.045636,-0.10702 0,-0.06809 0.7331427,-0.07881 5.387507,-0.07881 l 5.387506,0 0,0.574303 0,0.574303 -5.387506,0 c -4.8015042,0 -5.387507,-0.0091 -5.387507,-0.08376 z"
       id="path4012"
       inkscape:connector-curvature="0"
       transform="translate(-289.23967,703.19661)" />
    <path
       style="fill:#ffffff;fill-opacity:1;stroke:#000000;stroke-width:0.05;stroke-linecap:round;stroke-linejoin:bevel;stroke-miterlimit:4;stroke-opacity:1;stroke-dasharray:none"
       d="m 14.034167,10.323447 0,-0.6016509 1.066563,0 1.066562,0 0,0.6016509 0,0.60165 -1.066562,0 -1.066563,0 0,-0.60165 z"
       id="path4014"
       inkscape:connector-curvature="0"
       transform="translate(-289.23967,703.19661)" />
    <path
       style="fill:#ffffff;fill-opacity:1;stroke:#000000;stroke-width:0.05;stroke-linecap:round;stroke-linejoin:bevel;stroke-miterlimit:4;stroke-opacity:1;stroke-dasharray:none"
       d="m 16.276683,10.323447 0,-0.6016509 1.422083,0 1.422083,0 0,0.6016509 0,0.60165 -1.422083,0 -1.422083,0 0,-0.60165 z"
       id="path4016"
       inkscape:connector-curvature="0"
       transform="translate(-289.23967,703.19661)" />
    <path
       style="fill:#ffffff;fill-opacity:1;stroke:#000000;stroke-width:0.05;stroke-linecap:round;stroke-linejoin:bevel;stroke-miterlimit:4;stroke-opacity:1;stroke-dasharray:none"
       d="m 19.722499,9.8821275 0,-0.3866235 1.572496,0.018785 c 1.482543,0.017711 1.590228,0.025876 1.882489,0.1427378 0.170496,0.068174 0.41524,0.2173502 0.543874,0.3315029 l 0.23388,0.2075503 -0.75763,0.03634 c -0.416696,0.01998 -1.369063,0.03633 -2.116369,0.03633 l -1.35874,0 0,-0.3866239 z"
       id="path4018"
       inkscape:connector-curvature="0"
       transform="translate(-289.23967,703.19661)" />
    <path
       style="fill:#ffffff;fill-opacity:1;stroke:#000000;stroke-width:0.05;stroke-linecap:round;stroke-linejoin:bevel;stroke-miterlimit:4;stroke-opacity:1;stroke-dasharray:none"
       d="m 19.722499,10.790848 0,-0.412706 0.67002,1.12e-4 c 0.368511,6.2e-5 1.316912,0.01634 2.107557,0.03617 l 1.437538,0.03606 -0.152193,0.160365 c -0.176272,0.185735 -0.551363,0.388636 -0.864151,0.467451 -0.119826,0.03019 -0.88857,0.07073 -1.708318,0.09008 l -1.490453,0.03518 0,-0.412706 z"
       id="path4020"
       inkscape:connector-curvature="0"
       transform="translate(-289.23967,703.19661)" />
    <path
       style="fill:#ffffff;fill-opacity:1;stroke:#000000;stroke-width:0.05;stroke-linecap:round;stroke-linejoin:bevel;stroke-miterlimit:4;stroke-opacity:1;stroke-dasharray:none"
       d="M 19.353305,10.9976 C 19.254235,10.92849 19.23024,10.859737 19.23024,10.644948 l 0,-0.266806 0.19859,0 0.198591,0 -0.0339,0.205108 c -0.01865,0.11281 -0.03417,0.272794 -0.0345,0.355521 -6.84e-4,0.170929 -0.03212,0.179919 -0.20571,0.05883 z"
       id="path4022"
       inkscape:connector-curvature="0"
       transform="translate(-289.23967,703.19661)" />
    <path
       style="fill:#ffffff;fill-opacity:1;stroke:#000000;stroke-width:0.05;stroke-linecap:round;stroke-linejoin:bevel;stroke-miterlimit:4;stroke-opacity:1;stroke-dasharray:none"
       d="m 19.23024,9.9966781 c 0,-0.2469834 0.01513,-0.2798976 0.164086,-0.3569253 0.154312,-0.079798 0.164087,-0.078707 0.164087,0.018309 0,0.056739 0.01565,0.2173553 0.03478,0.3569252 l 0.03478,0.253764 -0.198869,0 -0.198868,0 0,-0.2720732 z"
       id="path4024"
       inkscape:connector-curvature="0"
       transform="translate(-289.23967,703.19661)" />
    <path
       style="fill:#ffffff;fill-opacity:1;stroke:#000000;stroke-width:0.05;stroke-linecap:round;stroke-linejoin:bevel;stroke-miterlimit:4;stroke-opacity:1;stroke-dasharray:none"
       d="M 0.08917616,9.2197301 C 0.0689888,8.8120359 0.08620195,8.2531328 0.11997873,8.2195849 c 0.006723,-0.00668 0.0828658,0.011704 0.16920557,0.040848 0.1498587,0.050585 0.15704586,0.055673 0.15840175,0.1121361 0.001962,0.081711 0.002016,0.8171705 6.615e-5,0.9003396 -0.001563,0.066673 -0.003833,0.068475 -0.15217115,0.1208611 -0.0828213,0.029248 -0.16058987,0.053179 -0.17281905,0.053179 -0.0148547,0 -0.02596927,-0.075418 -0.03348584,-0.2272189 z"
       id="path4026"
       inkscape:connector-curvature="0"
       transform="translate(-289.23967,703.19661)" />
    <path
       style="fill:#ffffff;fill-opacity:1;stroke:#000000;stroke-width:0.05;stroke-linecap:round;stroke-linejoin:bevel;stroke-miterlimit:4;stroke-opacity:1;stroke-dasharray:none"
       d="M 0.10853092,10.763946 C 0.10188627,10.661791 0.08732029,10.542423 0.07616206,10.498685 0.06479801,10.454141 0.06128288,10.360577 0.06817049,10.28597 0.07493339,10.21271 0.08495401,10.049799 0.09043861,9.9239362 0.09893571,9.7289411 0.10478806,9.6967742 0.13000718,9.7064517 c 0.0162781,0.00625 0.0939916,0.030907 0.17269655,0.054802 l 0.14309997,0.043444 0.001591,0.072517 c 0.002136,0.097351 0.002036,0.8079153 -1.2762e-4,0.8992063 l -0.001718,0.07252 -0.16246908,0.05037 -0.16246909,0.05037 -0.0120812,-0.185738 8.5e-7,0 z"
       id="path4028"
       inkscape:connector-curvature="0"
       transform="translate(-289.23967,703.19661)" />
    <path
       style="fill:#ffffff;fill-opacity:1;stroke:#000000;stroke-width:0.05;stroke-linecap:round;stroke-linejoin:bevel;stroke-miterlimit:4;stroke-opacity:1;stroke-dasharray:none"
       d="m 0.11097753,12.431413 c -0.007091,-0.0071 -0.01289185,-0.0968 -0.01289185,-0.199351 0,-0.134009 -0.0079863,-0.197017 -0.02839166,-0.223996 -0.03671272,-0.04854 -0.04114233,-0.310883 -0.0054494,-0.322745 0.01693777,-0.0056 0.02608251,-0.07412 0.030555,-0.22883 0.0035105,-0.121439 0.01380782,-0.228484 0.02288288,-0.237879 0.00947,-0.0098 0.0829669,0.0065 0.17249168,0.03834 0.14754586,0.05242 0.15606848,0.05858 0.15741192,0.11377 0.001962,0.08061 0.002016,0.816365 6.615e-5,0.899539 -0.001563,0.06667 -0.003833,0.06847 -0.15217115,0.120861 -0.16602612,0.05863 -0.16613463,0.05866 -0.18450352,0.04029 l 0,0 z"
       id="path4030"
       inkscape:connector-curvature="0"
       transform="translate(-289.23967,703.19661)" />
    <path
       style="fill:#ffffff;fill-opacity:1;stroke:#000000;stroke-width:0.05;stroke-linecap:round;stroke-linejoin:bevel;stroke-miterlimit:4;stroke-opacity:1;stroke-dasharray:none"
       d="m 0.65888128,11.825496 0,-0.599471 0.29490113,1.46e-4 c 0.40022399,2e-4 0.74977289,0.04369 0.74918439,0.09321 -8.51e-5,0.0072 -0.2067575,0.09016 -0.4592722,0.184458 -0.25251478,0.0943 -0.47869726,0.183696 -0.50262776,0.198658 -0.0354104,0.02214 -0.04351,0.04468 -0.04351,0.121079 0,0.05163 0.0108849,0.102909 0.0241886,0.11395 0.0133037,0.01104 0.21314843,0.09004 0.44409936,0.175565 0.2309509,0.08552 0.4484936,0.170369 0.4834281,0.188555 l 0.063517,0.03307 -0.061953,0.02548 c -0.094545,0.03889 -0.3702208,0.06444 -0.69705508,0.06462 l -0.29490113,1.59e-4 0,-0.599471 z"
       id="path4032"
       inkscape:connector-curvature="0"
       transform="translate(-289.23967,703.19661)" />
    <path
       style="fill:#ffffff;fill-opacity:1;stroke:#000000;stroke-width:0.05;stroke-linecap:round;stroke-linejoin:bevel;stroke-miterlimit:4;stroke-opacity:1;stroke-dasharray:none"
       d="m 0.65888128,10.33683 0,-0.6191521 0.24934219,0 c 0.39710783,0 0.78413783,0.050865 0.78497163,0.1031649 2.722e-4,0.017074 -0.2647387,0.122354 -0.71802335,0.2852482 l -0.27377503,0.09838 -0.007942,0.06803 c -0.0193518,0.165762 -0.0196207,0.1655 0.28152415,0.274383 0.44616963,0.161318 0.69563453,0.262537 0.70323283,0.285331 0.015095,0.04528 -0.2654606,0.08464 -0.80178009,0.112472 l -0.21755001,0.01129 0,-0.619152 z"
       id="path4034"
       inkscape:connector-curvature="0"
       transform="translate(-289.23967,703.19661)" />
    <path
       style="fill:#ffffff;fill-opacity:1;stroke:#000000;stroke-width:0.05;stroke-linecap:round;stroke-linejoin:bevel;stroke-miterlimit:4;stroke-opacity:1;stroke-dasharray:none"
       d="m 0.65888128,8.8376915 0,-0.6141941 0.40125892,0.011329 c 0.3932217,0.011102 0.5731289,0.032282 0.6130162,0.072169 0.034033,0.034033 0.00702,0.045901 -0.6141162,0.2697845 -0.20002583,0.072098 -0.36668423,0.1342182 -0.37035201,0.1380448 -0.003668,0.00383 -9.9729e-4,0.057991 0.005934,0.120366 0.0119492,0.1075241 0.016115,0.114753 0.0802853,0.139317 0.0372252,0.01425 0.21996724,0.082231 0.40609331,0.1510693 0.1861261,0.068838 0.3819098,0.1438207 0.4350749,0.1666273 0.088009,0.037754 0.093204,0.043402 0.058025,0.06309 -0.093204,0.05216 -0.2689681,0.076049 -0.633299,0.086078 l -0.38192108,0.010513 0,-0.6141941 z"
       id="path4036"
       inkscape:connector-curvature="0"
       transform="translate(-289.23967,703.19661)" />
    <path
       style="fill:#ffffff;fill-opacity:1;stroke:#000000;stroke-width:0.05;stroke-linecap:round;stroke-linejoin:bevel;stroke-miterlimit:4;stroke-opacity:1;stroke-dasharray:none"
       d="m 1.5967636,8.5229489 c 0.2978018,-0.1158143 0.5719148,-0.2272304 0.60914,-0.2475913 0.063156,-0.034544 0.122429,-0.037396 0.886338,-0.04265 l 0.8186556,-0.00563 0.1008023,0.066909 c 0.055441,0.0368 0.1304569,0.074593 0.1667015,0.083985 0.054322,0.014076 0.01849,0.021363 -0.20396,0.041478 C 3.8260183,8.4328703 3.1781105,8.5037093 2.5346459,8.5768695 1.8911813,8.6500297 1.2950942,8.7152053 1.210008,8.7217042 L 1.0553057,8.7335204 1.5967636,8.5229489 z"
       id="path4038"
       inkscape:connector-curvature="0"
       transform="translate(-289.23967,703.19661)" />
    <path
       style="fill:#ffffff;fill-opacity:1;stroke:#000000;stroke-width:0.05;stroke-linecap:round;stroke-linejoin:bevel;stroke-miterlimit:4;stroke-opacity:1;stroke-dasharray:none"
       d="M 3.1196137,9.5292142 C 2.942993,9.5236298 2.9214014,9.5191066 2.9214014,9.487691 c 0,-0.032228 -0.026432,-0.0361 -0.307763,-0.045076 C 2.3400669,9.433885 2.2982062,9.428055 2.2368447,9.390132 2.1936177,9.363416 2.1532117,9.352103 2.1287502,9.359867 2.1029112,9.368067 2.0858382,9.362237 2.0783172,9.342639 2.0663133,9.3113551 2.0002211,9.2841725 1.3888531,9.0590724 1.1787804,8.9817255 1.0090914,8.9163531 1.0117664,8.9138004 c 0.00797,-0.0076 0.4605823,0.042234 1.6775817,0.1847112 0.6328288,0.074087 1.2319132,0.1405939 1.3312988,0.1477938 0.1766705,0.012799 0.1792774,0.013689 0.1168827,0.039924 -0.0351,0.014758 -0.09466,0.050431 -0.1323565,0.079273 l -0.068538,0.05244 -0.47861,0.00679 c -0.4548335,0.00645 -0.47861,0.00862 -0.47861,0.04351 0,0.034551 0.019122,0.036799 0.3239078,0.038078 0.1781493,7.476e-4 0.3413118,0.00884 0.3625833,0.017979 0.038749,0.016651 -0.1277233,0.018149 -0.5462922,0.00491 z"
       id="path4040"
       inkscape:connector-curvature="0"
       transform="translate(-289.23967,703.19661)" />
    <path
       style="fill:#ffffff;fill-opacity:1;stroke:#000000;stroke-width:0.05;stroke-linecap:round;stroke-linejoin:bevel;stroke-miterlimit:4;stroke-opacity:1;stroke-dasharray:none"
       d="m 1.0746435,10.221207 c 0.074549,-0.03111 1.0068369,-0.3913552 1.1312601,-0.4371313 0.12493,-0.045963 0.1305585,-0.046247 0.9241418,-0.046652 l 0.7984463,-4.079e-4 0.1005023,0.067682 c 0.055276,0.037225 0.1129464,0.067682 0.1281557,0.067682 0.015209,0 0.023383,0.00427 0.018164,0.00949 -0.00522,0.00522 -0.4744019,0.061572 -1.0426285,0.1252282 -0.5682266,0.06366 -1.2637183,0.142055 -1.5455372,0.174219 -0.5502136,0.0628 -0.5713371,0.06444 -0.5125043,0.03989 z"
       id="path4042"
       inkscape:connector-curvature="0"
       transform="translate(-289.23967,703.19661)" />
    <path
       style="fill:#ffffff;fill-opacity:1;stroke:#000000;stroke-width:0.05;stroke-linecap:round;stroke-linejoin:bevel;stroke-miterlimit:4;stroke-opacity:1;stroke-dasharray:none"
       d="M 2.0995458,10.832198 C 1.993188,10.786507 1.7126747,10.676458 1.4761829,10.587646 1.2396911,10.498833 1.0491177,10.423249 1.0526864,10.41968 c 0.00357,-0.0036 0.510334,0.05068 1.1261451,0.12056 0.6158112,0.06988 1.3144173,0.148031 1.552458,0.173676 0.2380407,0.02565 0.4374615,0.05129 0.4431575,0.05698 0.0057,0.0057 -0.00217,0.01036 -0.01748,0.01036 -0.01531,0 -0.074083,0.03046 -0.1306064,0.06768 l -0.1027702,0.06768 -0.8153332,-6.73e-4 -0.8153334,-6.73e-4 -0.1933778,-0.08308 0,0 z"
       id="path4044"
       inkscape:connector-curvature="0"
       transform="translate(-289.23967,703.19661)" />
    <path
       style="fill:#ffffff;fill-opacity:1;stroke:#000000;stroke-width:0.05;stroke-linecap:round;stroke-linejoin:bevel;stroke-miterlimit:4;stroke-opacity:1;stroke-dasharray:none"
       d="m 1.9641814,11.629712 c -0.032842,-0.01043 -0.1503096,-0.01297 -0.2707289,-0.0059 -0.1169936,0.0069 -0.2083646,0.008 -0.2030467,0.0025 0.00532,-0.0055 0.1184439,-0.05345 0.2513911,-0.106437 0.4569729,-0.182139 0.6978588,-0.235757 1.0601427,-0.235974 0.2320729,-1.39e-4 0.4117319,-0.02797 0.4336761,-0.06718 0.023845,-0.04261 0.1277601,-0.03691 0.1661306,0.0091 0.025448,0.03052 0.072207,0.04278 0.2254841,0.05911 0.1879926,0.02003 0.3496856,0.05226 0.3351349,0.06681 -0.010453,0.01045 -0.3864081,0.05764 -1.0796394,0.135499 -0.5817005,0.06534 -0.7961059,0.103182 -0.8220127,0.1451 -0.013672,0.02212 -0.018937,0.02198 -0.096532,-0.0027 z"
       id="path4046"
       inkscape:connector-curvature="0"
       transform="translate(-289.23967,703.19661)" />
    <path
       style="fill:#ffffff;fill-opacity:1;stroke:#000000;stroke-width:0.05;stroke-linecap:round;stroke-linejoin:bevel;stroke-miterlimit:4;stroke-opacity:1;stroke-dasharray:none"
       d="M 2.1575592,12.358531 C 2.0831087,12.322237 1.7983278,12.207551 1.5247126,12.103675 1.2510974,11.999798 1.0303813,11.911657 1.0342324,11.907806 c 0.00385,-0.0039 0.414811,0.04085 0.9132444,0.09934 0.4984333,0.05849 1.2122974,0.13906 1.5863645,0.179049 0.6049221,0.06467 0.6726969,0.07526 0.6129687,0.09579 -0.036934,0.0127 -0.1017873,0.04709 -0.1441175,0.07642 l -0.076964,0.05334 -0.8164021,0.0064 -0.8164024,0.0064 -0.1353644,-0.06599 z"
       id="path4048"
       inkscape:connector-curvature="0"
       transform="translate(-289.23967,703.19661)" />
    <path
       style="fill:#ffffff;fill-opacity:1;stroke:#000000;stroke-width:0.05;stroke-linecap:round;stroke-linejoin:bevel;stroke-miterlimit:4;stroke-opacity:1;stroke-dasharray:none"
       d="m 1.7960921,8.3013803 c -0.010811,-0.072354 -0.096522,-0.1139266 -0.2888378,-0.140096 -0.2577799,-0.035077 -0.084359,-0.035162 0.3022248,-1.48e-4 0.1701725,0.015413 0.3173813,0.028211 0.3271308,0.02844 0.036111,8.486e-4 -0.00771,0.023308 -0.1690449,0.086647 -0.1605712,0.063038 -0.1657003,0.06379 -0.1714729,0.025157 l 0,0 z"
       id="path4050"
       inkscape:connector-curvature="0"
       transform="translate(-289.23967,703.19661)" />
    <path
       style="fill:#ffffff;fill-opacity:1;stroke:#000000;stroke-width:0.05;stroke-linecap:round;stroke-linejoin:bevel;stroke-miterlimit:4;stroke-opacity:1;stroke-dasharray:none"
       d="M 1.6354391,9.4676653 C 1.7278255,9.4453697 1.7791489,9.410611 1.7913268,9.3620905 l 0.011311,-0.045067 0.1581229,0.048607 C 2.2550768,9.4561029 2.2266656,9.4832083 1.8384858,9.482286 1.6888848,9.4819305 1.6021944,9.4756883 1.6354391,9.4676653 z"
       id="path4052"
       inkscape:connector-curvature="0"
       transform="translate(-289.23967,703.19661)" />
    <path
       style="fill:#ffffff;fill-opacity:1;stroke:#000000;stroke-width:0.05;stroke-linecap:round;stroke-linejoin:bevel;stroke-miterlimit:4;stroke-opacity:1;stroke-dasharray:none"
       d="M 1.800325,9.7867139 C 1.7782119,9.7285521 1.5961239,9.660027 1.4630106,9.6597724 c -0.031021,-5.93e-5 -0.050836,-0.00567 -0.044034,-0.012476 0.0068,-0.0068 0.1784494,-0.00122 0.3814373,0.012409 0.2029879,0.013628 0.362035,0.031179 0.353438,0.039004 -0.0086,0.00782 -0.087923,0.04065 -0.1762797,0.072945 L 1.8169239,9.8303724 1.800325,9.7867139 z"
       id="path4054"
       inkscape:connector-curvature="0"
       transform="translate(-289.23967,703.19661)" />
    <path
       style="fill:#ffffff;fill-opacity:1;stroke:#000000;stroke-width:0.05;stroke-linecap:round;stroke-linejoin:bevel;stroke-miterlimit:4;stroke-opacity:1;stroke-dasharray:none"
       d="m 1.5552269,10.983837 c 0.1535106,-0.02579 0.2445833,-0.07804 0.2445833,-0.140339 0,-0.01824 0.011562,-0.02345 0.033841,-0.01525 0.018613,0.0069 0.094018,0.03583 0.1675675,0.06439 l 0.1337265,0.05193 -0.066792,0.01388 c -0.085267,0.01772 -0.5081037,0.05502 -0.597085,0.05267 -0.04155,-0.0011 -0.00906,-0.01163 0.084159,-0.02729 z"
       id="path4056"
       inkscape:connector-curvature="0"
       transform="translate(-289.23967,703.19661)" />
    <path
       style="fill:#ffffff;fill-opacity:1;stroke:#000000;stroke-width:0.05;stroke-linecap:round;stroke-linejoin:bevel;stroke-miterlimit:4;stroke-opacity:1;stroke-dasharray:none"
       d="m 1.7900214,11.28366 c -0.00748,-0.02357 -0.048379,-0.0578 -0.093603,-0.07833 l -0.080317,-0.03647 0.2030467,-2.12e-4 c 0.2220946,-2.32e-4 0.34808,0.01445 0.34808,0.04057 0,0.0092 -0.015564,0.01681 -0.034587,0.01681 -0.019023,0 -0.067392,0.01672 -0.1074868,0.03717 -0.040095,0.02044 -0.106413,0.04283 -0.1473733,0.04975 -0.065089,0.011 -0.076148,0.0073 -0.08776,-0.02928 z"
       id="path4058"
       inkscape:connector-curvature="0"
       transform="translate(-289.23967,703.19661)" />
    <path
       style="fill:#ffffff;fill-opacity:1;stroke:#000000;stroke-width:0.05;stroke-linecap:round;stroke-linejoin:bevel;stroke-miterlimit:4;stroke-opacity:1;stroke-dasharray:none"
       d="m 1.5069161,12.490636 c 0.2061257,-0.03456 0.2928941,-0.07429 0.2928941,-0.134118 l 0,-0.0447 0.1208612,0.0483 c 0.2019346,0.0807 0.2182674,0.08856 0.1982122,0.0954 -0.027296,0.0093 -0.6793577,0.06656 -0.7309356,0.06418 -0.023416,-0.0011 0.030119,-0.01416 0.1189681,-0.02905 z"
       id="path4060"
       inkscape:connector-curvature="0"
       transform="translate(-289.23967,703.19661)" />
    <path
       style="fill:#ffffff;fill-opacity:1;stroke:#000000;stroke-width:0.05;stroke-linecap:round;stroke-linejoin:bevel;stroke-miterlimit:4;stroke-opacity:1;stroke-dasharray:none"
       d="m 4.5264371,11.116686 c -0.037225,-0.0036 -0.1329472,-0.01275 -0.2127156,-0.02043 l -0.1450333,-0.01397 0.1450333,-0.01262 c 0.079768,-0.0069 0.4865869,-0.01376 0.9040412,-0.01515 0.6323403,-0.0021 0.7590078,0.0019 0.7590078,0.02406 0,0.01462 -0.027194,0.03203 -0.06043,0.03868 -0.060489,0.0121 -1.2623599,0.01161 -1.3899029,-5.64e-4 z"
       id="path4062"
       inkscape:connector-curvature="0"
       transform="translate(-289.23967,703.19661)" />
    <path
       style="fill:#ffffff;fill-opacity:1;stroke:#000000;stroke-width:0.05;stroke-linecap:round;stroke-linejoin:bevel;stroke-miterlimit:4;stroke-opacity:1;stroke-dasharray:none"
       d="M 6.4263739,11.11489 C 6.207827,11.10929 6.1431567,11.09324 6.2200744,11.06372 c 0.016824,-0.0065 1.7093626,-0.01174 3.7611981,-0.01174 3.7177175,0 3.7306095,1.33e-4 3.7306095,0.03867 0,0.03855 -0.0115,0.03866 -3.52431,0.03449 -1.9383707,-0.0023 -3.6309098,-0.0069 -3.7611981,-0.01026 z"
       id="path4064"
       inkscape:connector-curvature="0"
       transform="translate(-289.23967,703.19661)" />
    <path
       style="fill:#ffffff;fill-opacity:1;stroke:#000000;stroke-width:0.05;stroke-linecap:round;stroke-linejoin:bevel;stroke-miterlimit:4;stroke-opacity:1;stroke-dasharray:none"
       d="M 6.4617806,9.6025111 C 6.3012322,9.595997 6.199635,9.5839762 6.1953331,9.5709855 6.185396,9.5409774 7.9327229,9.5243396 11.096448,9.524318 c 2.524153,-1.72e-5 2.615434,0.00122 2.615434,0.035467 0,0.034098 -0.07538,0.035987 -1.928943,0.048334 C 9.6766272,9.62215 6.8729697,9.619195 6.4617806,9.602509 z"
       id="path4066"
       inkscape:connector-curvature="0"
       transform="translate(-289.23967,703.19661)" />
    <path
       style="fill:#ffffff;fill-opacity:1;stroke:#000000;stroke-width:0.05;stroke-linecap:round;stroke-linejoin:bevel;stroke-miterlimit:4;stroke-opacity:1;stroke-dasharray:none"
       d="m 4.3588216,9.6039596 c -0.1612403,-0.016192 -0.1689471,-0.034019 -0.022114,-0.051153 0.1519311,-0.01773 1.6361626,-0.019515 1.6536884,-0.00199 0.00704,0.00704 0.00208,0.023536 -0.011025,0.036653 -0.017976,0.017993 -0.2052521,0.024417 -0.7625531,0.026158 -0.4062987,0.00127 -0.7923968,-0.00308 -0.8579959,-0.00967 l 0,0 z"
       id="path4068"
       inkscape:connector-curvature="0"
       transform="translate(-289.23967,703.19661)" />
    <path
       style="fill:#ffffff;fill-opacity:1;stroke:#000000;stroke-width:0.05;stroke-linecap:round;stroke-linejoin:bevel;stroke-miterlimit:4;stroke-opacity:1;stroke-dasharray:none"
       d="m 15.587647,8.8281401 0,-0.5994712 0.04642,0 c 0.02553,0 0.14745,0.017272 0.270928,0.038381 0.368038,0.062919 0.607741,0.1766486 0.812915,0.3856951 0.110881,0.1129748 0.122115,0.183336 0.04833,0.3027229 -0.08406,0.1360142 -0.381055,0.3178192 -0.627469,0.3841052 -0.137481,0.036983 -0.422735,0.087223 -0.497947,0.0877 l -0.05318,3.376e-4 0,-0.5994711 z"
       id="path4070"
       inkscape:connector-curvature="0"
       transform="translate(-289.23967,703.19661)" />
    <path
       style="fill:#ffffff;fill-opacity:1;stroke:#000000;stroke-width:0.05;stroke-linecap:round;stroke-linejoin:bevel;stroke-miterlimit:4;stroke-opacity:1;stroke-dasharray:none"
       d="m 15.587647,11.822719 0,-0.602248 0.13053,0.01254 c 0.372872,0.03582 0.647641,0.131979 0.892736,0.312408 0.274101,0.201781 0.261098,0.376007 -0.04371,0.585675 -0.216892,0.149192 -0.430564,0.226078 -0.760877,0.273786 -0.246496,0.0356 -0.21868,0.109651 -0.21868,-0.582162 z"
       id="path4072"
       inkscape:connector-curvature="0"
       transform="translate(-289.23967,703.19661)" />
  </g>
</svg>
