<?xml version="1.0" encoding="UTF-8" standalone="no"?>
<svg
   xmlns:dc="http://purl.org/dc/elements/1.1/"
   xmlns:cc="http://creativecommons.org/ns#"
   xmlns:rdf="http://www.w3.org/1999/02/22-rdf-syntax-ns#"
   xmlns:svg="http://www.w3.org/2000/svg"
   xmlns="http://www.w3.org/2000/svg"
   xmlns:sodipodi="http://sodipodi.sourceforge.net/DTD/sodipodi-0.dtd"
   xmlns:inkscape="http://www.inkscape.org/namespaces/inkscape"
   version="1.1"
   width="347.53125"
   height="269.5625"
   viewBox="0 0 347.53125 269.5625"
   id="svg6081"
   inkscape:version="0.48.4 r9939"
   sodipodi:docname="K39A.svg">
  <metadata
     id="metadata9137">
    <rdf:RDF>
      <cc:Work
         rdf:about="">
        <dc:format>image/svg+xml</dc:format>
        <dc:type
           rdf:resource="http://purl.org/dc/dcmitype/StillImage" />
        <dc:title />
      </cc:Work>
    </rdf:RDF>
  </metadata>
  <defs
     id="defs9135" />
  <sodipodi:namedview
     pagecolor="#ffffff"
     bordercolor="#666666"
     borderopacity="1"
     objecttolerance="10"
     gridtolerance="10"
     guidetolerance="10"
     inkscape:pageopacity="0"
     inkscape:pageshadow="2"
     inkscape:window-width="1366"
     inkscape:window-height="750"
     id="namedview9133"
     showgrid="false"
     fit-margin-top="0"
     fit-margin-left="0"
     fit-margin-right="0"
     fit-margin-bottom="0"
     inkscape:zoom="0.1996884"
     inkscape:cx="624.46782"
     inkscape:cy="-65.530839"
     inkscape:window-x="0"
     inkscape:window-y="18"
     inkscape:window-maximized="1"
     inkscape:current-layer="svg6081" />
  <desc
     id="desc6083">world98</desc>
  <g
     id="United States:Florida State"
     transform="translate(-4557.0937,-2399.4688)">
    <path
       d="m 4784.7595,2561.3513 2.4192,-1.3804 0.2031,-0.1268 0.5824,-2.115 -0.7222,-0.5067 -1.1139,0.1014 3.1281,-3.9639 0.5824,-0.7345 2.964,-3.318 0.3548,-0.3165 0.8996,-0.3927 1.5446,-1.4185 0.3041,-0.4179 0.5573,-1.2919 0.063,-0.3038 -0.013,-0.228 -0.8739,-2.5201 -0.6839,-1.6844 -0.1517,-0.1772 -0.7981,-0.4307 -11.1336,-4.6225 -0.2533,0.2153 -1.1905,4.3692 0.088,0.2786 0.5949,0.38 3.0398,1.5324 1.546,0.4812 0.3291,1.7096 0.088,0.4686 -0.013,0.5445 -1.2788,4.1413 -0.3924,1.0133 -0.4696,0.3798 -3.5589,1.5451 -0.1266,0.051 -0.3549,-0.152 -0.6456,-0.8737 -4.1294,-6.155 -0.405,-0.8359 -0.4306,-1.0257 -0.076,-0.304 -0.051,-0.8105 0.1141,-0.5572 0.1768,-0.5446 0.6081,-1.2157 0.4056,-0.5699 0.1767,-0.1647 -0.5441,1.4185 -0.2024,0.8231 0.05,0.4686 0.1899,0.089 0.1899,-0.1899 0.9637,-2.153 0.5441,-1.507 1.0763,-4.5846 1.1021,-7.3072 1.5328,-3.4196 2.3301,-5.8508 0.089,-0.2786 0.9748,-4.5339 0.5962,-7.1553 -0.3172,-2.4824 -0.1141,-0.1393 -0.7348,-0.6332 -0.7598,-0.8232 -0.2532,-0.3292 -0.2025,-0.4179 0.076,-0.2153 0.2156,-0.19 1.5196,-0.6711 0.304,-0.3927 0.2916,-0.57 0.051,-0.2405 0.038,-0.5699 -0.063,-0.5192 -0.1649,-0.4052 -0.1398,-0.1901 -0.2282,-0.1645 -0.4933,-0.2026 -4.5984,-5.028 -0.8488,-2.8747 -1.5196,-3.8499 -1.3303,-0.4052 -4.6101,-0.8612 -1.203,-0.1646 -0.2915,0.013 -0.7348,0.2407 -0.1642,0.1012 -3.9269,-2.0895 -1.3045,-2.2797 -5.5731,-6.7626 -5.9147,-3.7615 -1.0131,-0.4053 -0.9254,-0.304 -0.1516,-0.1772 -0.077,-0.152 -0.3541,-2.1782 -0.9372,-4.2171 -1.7735,-0.5573 -3.0649,-1.8364 -0.2282,-0.1645 -1.6977,-1.5326 -0.1008,-0.2026 -0.038,-0.2026 0.038,-0.532 -0.051,-0.7091 -0.1141,-0.456 -0.1517,-0.3419 -1.8487,-2.6342 -0.1524,-0.1772 -0.3047,-0.304 -1.5196,-1.1903 -3.1156,-2.115 -1.6845,-0.9498 -0.7347,-0.1393 -0.1266,0.1393 -1.4062,-0.5066 -2.6341,-1.3046 -0.6464,-0.4179 -1.8744,-1.2917 -3.0781,-2.039 -0.5448,-0.2153 -0.6714,-0.063 -7.8399,-0.2027 -0.1774,0.013 -2.3433,0.3547 -0.494,0.1266 -2.7107,1.1017 -5.6107,2.7989 -0.3549,0.4941 -0.076,0.2405 -0.025,0.2914 0.9372,1.241 0.3805,0.152 0.6074,0.051 0.6965,-0.025 0.8481,-0.1013 1.951,0.5319 0.279,0.1014 0.1517,0.1772 0.063,0.2407 -0.013,0.2532 -0.2024,0.8611 -0.1649,0.4812 -0.1392,0.1647 -0.3799,0.266 -0.9622,0.2153 -0.2665,-0.1013 0.077,-0.2153 0.4299,-0.1647 0.1775,-0.1647 -0.013,-0.088 -0.089,-0.1141 -0.1893,-0.1518 -0.2407,-0.1268 -0.6213,-0.1518 -0.9247,-0.1393 -1.6462,-0.1774 -0.3173,-0.013 -2.8749,0.2913 -1.5954,0.6965 -1.0895,0.57 -3.5213,1.8743 -3.2298,2.0515 -1.1271,0.7978 -0.4314,0.1901 -3.3306,1.279 -1.6212,0.6207 -0.8996,-0.4432 1.052,-1.5198 0.1134,-0.2407 0.089,-0.2787 0.012,-0.2532 -0.1141,-0.1774 -0.2658,-0.1012 -0.304,0.025 -0.2408,0.1012 -1.6976,0.9625 -2.8624,2.1025 -3.7488,0.6205 -6.7893,0.9371 -3.9388,0.4812 -2.1158,0.57 -0.5698,-0.013 -0.2658,-0.1013 -0.4307,-0.304 -0.4432,-0.5066 -0.2032,-0.3165 -0.2783,-0.6712 -0.494,-1.5199 -0.494,-1.5323 -0.076,-0.7726 -0.012,-0.5318 0.076,-1.5197 0.2025,-0.6966 0.1141,-0.2407 0.1774,-0.1645 0.2025,-0.076 0.2282,0.1393 0.038,0.1899 -0.013,0.2786 -0.2532,0.9879 -0.1524,0.8611 -0.012,0.2532 0.1517,1.0005 0.4049,2.0265 0.1899,0.5573 0.5198,0.9624 0.5956,0.9371 0.1516,0.1774 0.2282,0.1266 0.2408,0.063 1.4312,-0.4433 0.3924,-0.228 0.1016,-0.1139 0.051,-1.8996 -0.1016,-2.6724 -0.051,-0.5064 -0.1767,-0.4434 -2.2675,-3.2166 -0.3417,-0.3419 -1.4952,-1.2411 -0.5823,-0.4306 -6.1179,-4.3567 -2.8749,-1.4944 -0.3799,-0.3039 -0.5323,-1.0536 -0.1141,-0.1064 -0.076,-0.1064 -0.015,-0.1519 0.06,-0.1064 0.2206,-0.1444 0.2205,0.01 1.0259,0.3117 0.1597,0.053 1.6949,0.8357 0.3493,0.2584 0.3343,0.3419 0.01,0.1596 0.957,0.2078 0.1899,0.1518 1.7227,1.3679 0.4307,0.2786 0.5065,0.2278 0.4182,0.1141 0.2414,0.012 0.4683,-0.076 0.1774,-0.063 0.2407,-0.1012 1.3296,-0.6712 0.2025,-0.1268 0.088,-0.2786 -0.025,-0.2532 -0.519,-0.1645 -0.8739,-0.2153 -0.8989,0.1645 -9.2746,-4.1488 -0.1364,-0.076 -1.8598,-1.8353 0.1291,-0.3267 1.0586,-2.3642 -3.7996,-2.3303 -3.9269,0.2786 -0.2658,0.063 -0.1134,0.2405 -0.2407,0.9752 -0.063,0.5951 0.1391,0.4562 0.1141,0.2153 0.2658,0.3166 0.1392,0.076 0.3165,0.013 0.2157,-0.1266 0.3423,-0.342 0.3417,-0.2659 0.4814,-0.038 0.9748,0.063 0.5831,0.051 0.1266,0.076 0.9323,1.839 0.7292,1.4969 0.046,0.1216 -0.03,0.1671 -0.1318,1.5426 -2.4825,-1.6844 -2.2933,-1.4943 -1.9119,-0.9752 -1.3804,-0.6965 -1.2538,-0.57 -4.5983,-1.7858 -2.5076,-0.8991 -3.5971,-1.1778 -3.7237,-1.2032 -0.8363,-0.2278 -2.1785,-0.532 -0.988,-0.1772 -0.2915,-0.7345 8.1189,0.076 2.4832,0.722 0.1517,-0.051 0.1266,-0.1394 -0.013,-0.3167 -0.8231,-1.6209 -0.2282,-0.4052 -3.2931,-1.9376 -2.6982,-1.0006 -0.304,-0.076 -7.9666,0.025 -2.305,1.0764 -0.3932,0.228 -4.281,2.3555 -0.6332,0.076 -0.6081,-0.038 -2.1026,-0.1013 -2.0142,-0.089 -3.268,0.114 -6.6745,0.7979 -2.0143,0.2659 -4.2302,0.6079 -0.7856,0.1266 -0.798,0.1901 -1.2656,0.4179 -2.9264,0.4431 0.4818,-0.4229 0.03,-0.19 0.4561,-0.4028 2.1611,-0.7572 0.5315,-0.1266 0.7222,-0.1647 0.8482,-0.1266 2.7483,-0.1772 0.5322,-0.1268 0.469,-0.2026 0.6456,-0.3547 1.951,-1.317 -0.7856,-0.9498 -2.6856,-2.2416 -4.0779,-0.3041 -2.7615,0.3167 0.1524,0.1773 0.2532,0.6584 0.038,0.2536 -0.012,0.5698 -0.1267,0.5193 -0.1391,0.2405 -0.9497,1.5957 -3.9395,3.6726 -1.6413,0.2581 -0.2073,1.0971 -1.2545,0.3038 -5.4214,1.1018 -2.5688,0.5084 -0.7368,0.1 -0.1392,-0.076 0.088,-0.1267 0.8989,-0.8738 0.1649,-0.1012 0.5198,-0.076 0.9539,-0.013 0.5148,-0.038 0.3424,-0.1139 1.3811,-1.1651 0.3541,-0.4052 3.3188,-3.9386 0.05,-0.4939 -0.2658,-0.4433 -0.3166,-0.2912 -0.3416,-0.1647 -2.7288,-0.9678 -0.9191,-1.6665 -0.1141,-0.4813 -0.012,-0.3798 0.1266,-0.5826 0.1649,-0.3926 0.5573,-0.7598 0.5058,-0.8866 0.2916,-0.6964 0.3924,-1.1526 0.051,-0.3038 0.012,-0.5699 -0.1259,-0.418 -0.3806,-0.5193 -0.5699,-0.4179 -1.1772,-0.6331 -0.4822,-0.2407 -0.9622,-0.4306 -0.6714,-0.3671 -0.4439,-0.266 -1.0256,-0.7092 -0.3666,-0.4181 -4.1169,-4.8504 -0.1899,-0.4306 0.013,-0.2912 0.9873,-5.7749 1.7728,-0.026 102.57,0.026 13.692,-0.026 0.581,-0.079 -0.2136,0.2946 0.037,0.228 0.1016,0.2659 1.8369,2.8116 0.1078,0.1405 1.8306,5.1276 0.063,0.6079 0.2525,1.4185 0.1399,0.4306 0.1391,0.2155 0.2658,0.2278 1.7353,1.1526 17.6189,0.8864 1.8368,0.063 9.8409,0.5192 22.8372,1.2538 15.668,0.8991 15.6805,0.9498 5.459,0.3419 15.6673,1.0133 5.0923,0.3419 5.459,0.3673 4.7333,0.3595 1.3714,3.6298 0.1015,0.3672 -0.025,0.2786 -0.063,0.304 -0.2408,0.6078 -0.1266,0.5446 -0.038,0.5066 0.1266,0.4052 0.6721,1.6717 0.2533,0.418 0.1774,0.152 0.4682,0.2659 0.4558,0.051 3.7487,0.051 1.761,-0.4558 0.051,-0.076 0.051,-0.2533 1.2914,-6.9529 0.279,-1.6082 -0.038,-0.9625 -0.089,-0.2407 -0.1892,-0.3165 -0.9122,-1.0638 -0.2024,-0.418 -0.1649,-0.4431 -0.076,-0.3294 -0.051,-0.6079 0.3041,-3.3559 0.1649,-0.4179 1.0506,-1.8366 0.1266,-0.1393 2.166,-1.3677 0.2915,-0.1012 0.2915,-0.025 1.7227,-0.089 0.494,0.1393 4.231,1.5957 0.2783,0.1139 0.4181,0.3167 0.9498,0.5192 2.2668,0.9501 7.3849,1.7475 0.329,0.025 2.2112,-0.3734 1.5759,0.9813 1.7102,2.3936 -0.4049,3.0267 -0.4064,2.9507 1.7986,1.7731 0.1016,0.2153 0.9247,3.5333 0.038,0.2026 -0.1134,1.1272 0.025,3.0394 0.1266,0.7472 0.1517,0.6332 1.1403,3.2295 1.4312,5.281 1.1654,4.5845 0.773,3.1914 1.4563,4.8883 0.3298,0.9119 2.8624,7.1555 1.1904,2.7987 6.6237,14.3742 2.1792,4.1032 6.2187,9.7263 5.8013,8.7764 0.5956,0.8992 0.3166,0.4558 0.2783,0.3673 1.6086,1.6717 0.2408,0.3292 2.2167,3.4193 0.8098,1.3044 0.3173,0.6713 0.4564,1.0131 0.8739,2.4444 0.1642,0.6711 -0.026,0.2533 -0.1267,0.2026 -0.1767,0.152 -0.1649,0.1014 -0.709,0.2786 -0.3423,0.2278 -1.5202,1.2665 -0.038,2.8747 0.1016,5.1546 0.215,1.431 0.1774,0.9625 0.2783,1.431 0.3548,1.4184 0.5323,1.4437 1.0005,1.887 0.2282,0.3926 1.7227,2.7609 0.9873,1.507 0.494,0.798 0.5323,1.0004 0.2915,0.6965 0.063,0.2407 -0.025,0.3798 -0.063,0.1393 -2.7873,-4.1157 -2.2793,-3.7995 -0.3298,-0.5953 -1.203,-2.6975 -0.1524,-0.4179 -0.2783,-0.8231 -0.2915,-1.0764 -0.5573,-2.2923 -0.076,-0.5951 -0.025,-4.724 0.1642,-3.2674 0.1016,-0.2786 0.3799,-0.5951 0.2025,-0.5446 0.519,-1.735 0.2915,-1.1651 0.089,-0.6588 0.025,-1.1778 -0.038,-0.4558 -0.1141,-0.6078 -0.7341,-2.2544 -0.089,-0.1012 -2.166,-0.2026 -0.3291,0.025 -0.1391,0.1393 -0.1266,0.7093 -0.1649,0.2026 -0.2276,0.089 -0.2282,0.013 -3.0272,-0.5446 -0.2665,-0.051 -0.4683,-0.2151 -0.2031,-0.1647 -0.5441,-0.6078 -0.1775,-0.3547 -0.2149,-0.6205 0.2657,-1.6211 0.1009,-0.2659 0.2032,-0.1139 0.076,-0.025 0.2025,0.038 0.1642,-0.038 0.6471,-0.5825 0.1774,-0.1647 0.1266,-0.228 0.012,-0.2278 -0.1391,-0.4687 -0.1399,-0.1899 -0.3298,-0.2787 -2.6084,-1.6337 -1.4187,-0.8613 0.05,0.874 0.9122,5.4584 2.9257,10.3086 0.1517,0.4434 1.6726,3.5712 6.4845,13.8168 4.0918,8.2192 0.7849,1.3931 0.4181,0.5699 0.1775,0.152 0.6714,0.9371 0.4306,0.8231 1.608,3.3563 0.5322,1.2284 0.6213,1.659 0.5824,1.6463 0.1266,0.3798 0.1141,0.4688 -0.038,0.2532 0.063,0.7852 0.1391,0.7091 0.1392,0.4433 1.4827,4.2301 0.2407,0.6078 4.3054,10.4734 2.8506,2.4442 0.1391,0.1647 2.0143,3.8626 0.9365,2.6976 0.2024,0.6206 1.3053,5.2175 0.5698,2.3683 0.1649,0.709 0.1016,0.4687 0.215,6.6362 -0.013,0.7978 -0.1273,2.6975 -0.1009,0.5951 -0.1016,0.1014 -0.1392,0.1012 -0.3291,1.4564 -0.2024,1.0261 -0.7605,4.9644 -1.2412,8.3458 -1.8877,13.4494 -2.4435,7.3201 -0.1392,0.1647 -2.8763,2.6088 -2.4692,3.3434 -0.1267,0.3671 -0.076,0.494 0.051,2.2543 0.063,0.2026 -0.9887,1.1397 -0.2908,0.4812 -0.077,0.1522 -0.038,0.1899 -1.5321,7.9912 -1.8375,2.786 -0.43,0.7981 -0.038,0.9877 0.2282,0.5066 0.3166,0.2913 0.7848,0.6968 -0.051,0.088 -0.076,-0.013 -0.4557,-0.089 -0.2908,-0.089 -0.2283,-0.1393 -0.1899,-0.3673 -0.9247,-1.7982 -0.1906,-0.1014 -0.215,-0.076 -2.0393,0.8738 -0.051,0.1774 0.1524,0.1266 0.1266,0.025 1.0437,0.068 -0.7045,0.2285 -0.7236,0.5331 -0.7236,-0.8378 -0.2094,-0.3998 0.4762,-0.1713 0.3806,-0.1333 0.017,-0.3765 -0.2025,-0.076 -1.4179,-0.1393 -1.0771,0.1139 -0.4689,0.076 -0.2408,0.1139 -3.3306,2.3683 -1.3679,1.0637 -6.6376,0.064 -9.9801,1.5703 -1.8876,0.5572 -0.6965,-0.4939 -1.9384,-1.4943 -0.076,-0.1141 -1.3171,-3.0521 -0.05,-0.2405 -0.026,-0.722 1.0005,-2.7228 0.7726,-0.2255 0.1444,-0.2812 0.091,-0.1139 0.1214,-0.076 0.1298,0.046 0.9038,1.1397 0.75,0.7396 0.051,0.2027 4.0021,3.0522 0.9128,0.4559 0.2025,0.038 0.2533,-0.038 1.8618,-0.7218 0.3291,-0.2659 0.3041,-0.3927 0.1774,-0.5192 -0.026,-0.3929 -0.3417,-0.4812 -1.4444,-1.6969 -1.2029,-0.9752 -0.19,-0.1012 -0.3166,-0.025 -0.6213,0.013 -1.4562,-0.2026 -0.4558,-0.1901 -2.0546,-1.1447 -0.6227,-0.3344 -0.1294,-0.076 -0.6383,-0.4179 -0.1065,-0.091 -0.091,-0.2355 -0.7396,-0.879 -0.1141,-0.6331 -1.1905,-2.5456 -6.9034,-14.0829 -0.3673,-0.7344 -0.2275,-0.4053 -0.1392,-0.1774 -0.1774,-0.1645 -1.2914,-0.9245 -0.4439,-0.266 -0.9372,-0.4685 -7.1309,-3.2293 -2.7232,-0.4939 -2.5709,0.7344 -2.8213,-2.0517 -2.0052,-5.8129 -0.8356,-0.5066 -0.1392,-0.1772 -0.4181,-1.6844 -0.2665,-1.2157 -1.1014,-8.4093 -1.5954,-4.9389 0.05,0.228 -0.012,0.2278 -0.19,0.228 -0.1517,0.089 -0.368,0.076 -3.5443,-1.8744 -0.068,-0.091 0.2049,-0.9879 0.046,-0.084 0.091,-0.046 0.046,-0.01 0.1137,0.053 0.069,0.091 0.061,0.2203 0.061,0.068 0.1291,0.01 0.152,-0.03 1.3679,-0.6306 -0.1848,-0.9701 6.1812,-7.1806 0.3799,-0.6713 0.05,-0.2154 -0.3166,-0.025 -0.2275,0.089 -4.5225,2.1655 -0.2024,0.1266 -0.8607,1.1272 -0.1141,0.1772 -0.077,0.1393 -0.126,0.304 -0.026,0.2786 0.063,0.5066 -0.1266,0.6206 -1.1647,2.1654 -0.1907,0.1268 -2.9713,0.504 -0.2358,0.015 -0.319,-0.099 -1.6413,-0.6738 -0.1016,-0.2153 -0.1016,-0.5318 -0.5191,-5.5849 0.013,-1.0891 1.3811,-6.3829 1.4687,-5.3317 -3.787,0.5572 -4.1795,0.6587 1.2663,2.9126 0.6081,2.5202 -0.063,1.431 -0.089,0.1774 -0.1899,0.1646 -0.2533,0.051 -5.674,-2.2543 -0.2532,-0.1139 -0.4057,-0.2913 -0.6074,-0.6585 -2.7357,-3.6347 -0.254,-0.3671 -0.6206,-0.9373 -0.1016,-0.2153 -1.228,-2.6089 -1.4444,-3.1408 -3.888,-8.6372 0.1517,-0.2278 0.051,-0.2786 -0.012,-0.2659 -0.3549,-1.0258 -1.0137,-2.8622 -0.3924,-0.7979 -0.5191,-0.4432 -3.1031,-2.3682 z"
       id="path8010"
       inkscape:connector-curvature="0"
       style="fill:#ffffff;stroke:#000000" />
    <path
       d="m 4603.471,2427.5649 -5.8653,0.076 -7.2826,1.1778 -3.7488,0.6205 -3.3821,0.5826 -1.0263,0.266 -3.9262,0.5699 -1.571,0.2278 -1.7095,0.2153 -0.2665,0.025 -0.1774,0.013 -0.5949,-0.1647 -0.6206,-0.2532 -0.3416,-0.2026 -0.051,-0.1014 0.063,-0.1772 0.1649,-0.076 6.4845,-0.3547 5.6239,-1.1271 5.9781,-0.8105 5.1806,-0.6711 0.6332,-0.076 1.3052,-0.1014 1.5064,-0.063 3.2054,-0.1139 1.9377,0.013 0.2908,0.038 2.4192,0.4179 0.1774,0.063 0.051,0.063 -0.025,0.1266 -0.1399,0.2026 -0.3541,-0.038 -1.0638,-0.228 z"
       id="path8012"
       inkscape:connector-curvature="0"
       style="fill:#ffffff;stroke:#000000" />
    <path
       d="m 4696.8952,2454.2233 -0.063,0.3419 -0.1392,0.2028 -0.1398,0.1391 -0.5316,0.3294 -0.6839,0.2913 -0.7341,0.2152 -0.7103,0.152 -0.9748,0.1393 -0.279,-0.038 -0.038,-0.038 0.088,-0.2659 0.2282,-0.1013 0.5316,-0.051 0.8363,-0.2026 0.4307,-0.19 0.9622,-0.4306 1.1995,-0.7218 z"
       id="path8014"
       inkscape:connector-curvature="0"
       style="fill:#ffffff;stroke:#000000" />
    <path
       d="m 4674.337,2463.3037 0.7097,0.2787 0.4808,0.1393 1.9001,-0.2407 1.1397,-0.2279 7.0801,-3.3307 5.3073,-3.1156 0.3298,-0.051 0.1775,0.051 0.012,0.1014 -0.051,0.089 -3.5596,2.7103 -9.1952,3.9132 -1.4952,0.456 -0.2658,0.051 -1.5571,0.2026 -0.3931,-0.025 -1.5579,-1.0764 -0.2532,-0.2153 -0.051,-0.076 0.051,-0.152 0.1899,0.025 0.041,0.055 z"
       id="path8016"
       inkscape:connector-curvature="0"
       style="fill:#ffffff;stroke:#000000" />
    <path
       d="m 4673.5007,2460.8976 -0.8099,1.4437 -0.1398,0.1393 -0.1899,0.076 -0.2909,0.025 -0.494,-0.1012 -0.7222,-0.228 -0.1649,-0.1139 -1.418,-1.1526 -0.8738,-0.8484 2.9124,-0.1774 0.7348,-0.025 0.5197,0.1012 0.8607,0.2153 0.2783,0.1647 -0.1392,0.3293 z"
       id="path8018"
       inkscape:connector-curvature="0"
       style="fill:#ffffff;stroke:#000000" />
    <path
       d="m 4874.917,2523.8645 -0.063,0.2787 0.025,0.2026 0.1015,0.4685 0.1642,0.38 0.3424,0.7347 -0.3041,-0.089 -2.7615,-6.1549 -0.7598,-4.5212 0.1649,-2.1277 0.1524,-0.4813 0.1517,-0.3292 1.571,-1.4691 2.3427,-1.0258 0.1008,-0.013 0.5205,0.1258 0.24,0.2035 0.1524,0.1647 0.3667,0.5445 0.1523,0.5699 0.025,0.2027 -0.025,0.4431 -0.2282,0.6586 -0.519,0.9752 -0.3048,0.5445 -0.2908,0.6207 -0.279,0.6206 -0.3674,1.1905 -0.6707,3.242 -0.013,0.2278 0.3924,2.3809 z"
       id="path8020"
       inkscape:connector-curvature="0"
       style="fill:#ffffff;stroke:#000000" />
    <path
       d="m 4886.9496,2547.1416 0.19,0.4306 0.4049,0.8107 0.9254,1.5957 1.9627,5.5469 1.6469,5.6611 0.5065,1.2157 1.9885,3.5714 3.2047,7.4972 0.1009,0.4686 0.012,0.2659 -0.949,-0.9877 -0.1266,-0.1899 -0.8113,-1.5957 -3.762,-7.7128 -4.6101,-13.0315 -2.6725,-6.8388 -0.013,-0.1014 0.2658,-0.076 0.2031,0.012 0.19,0.152 0.1009,0.2786 z"
       id="path8022"
       inkscape:connector-curvature="0"
       style="fill:#ffffff;stroke:#000000" />
    <path
       d="m 4784.3921,2563.4788 0.2658,0.3292 2.6474,3.5207 0.2157,0.38 -0.089,0.2151 -0.3799,-0.1012 -0.3541,-0.304 -3.3689,-3.8626 -0.1399,-0.1899 -0.037,-0.1393 0.037,-0.1772 0.1649,-0.1014 0.3417,0.051 0.3548,0.1647 z"
       id="path8024"
       inkscape:connector-curvature="0"
       style="fill:#ffffff;stroke:#000000" />
    <path
       d="m 4801.9095,2591.8089 0.2908,0.6585 0.3806,1.0638 0.088,0.76 -0.2407,0.7851 -0.1141,0.2407 -0.1141,0.1772 -0.1642,0.1014 -0.2282,-0.076 -0.038,-0.2913 -0.4432,-3.7107 0.063,-0.2407 0.19,0.025 0.2024,0.2659 0.076,0.1774 z"
       id="path8026"
       inkscape:connector-curvature="0"
       style="fill:#ffffff;stroke:#000000" />
    <path
       d="m 4809.7501,2605.157 -0.3166,-1.0131 -0.2157,-0.6839 -1.2413,-3.6599 -0.304,-0.5699 -0.6332,-0.6839 -0.1141,-0.152 -0.5315,-0.8231 -0.051,-0.114 -0.3166,-1.1777 0.2282,-0.051 0.924,0.1518 0.9629,0.2661 0.6081,1.2917 0.076,0.1772 0.088,0.2153 1.2796,4.5212 0.5948,2.6849 -0.012,0.2154 -0.1774,0.1645 -0.1141,0.076 -0.3166,-0.025 -0.24,-0.1647 -0.2032,-0.5574 z"
       id="path8028"
       inkscape:connector-curvature="0"
       style="fill:#ffffff;stroke:#000000" />
    <path
       d="m 4804.0754,2600.066 0.038,0.1647 -0.051,0.088 -0.1775,-0.063 -0.8356,-1.051 -0.063,-0.1647 -0.4947,-2.0136 -0.025,-0.5824 0.1266,-0.1393 0.1774,0.063 0.1266,0.1772 0.1399,0.2407 z"
       id="path8030"
       inkscape:connector-curvature="0"
       style="fill:#ffffff;stroke:#000000" />
    <path
       d="m 4806.178,2606.0184 0.1266,0.2532 2.1534,1.3677 1.9885,0.051 0.3924,-0.025 0.2533,-0.1772 -0.025,-0.266 0.1009,-0.114 0.254,-0.051 0.5573,0.19 0.6081,0.3419 0.24,0.1647 0.077,0.1139 -0.038,0.089 -2.1534,1.1651 -0.2533,0.051 -0.304,-0.076 -1.7728,-0.6331 -0.6589,-0.3419 -1.5704,-0.8866 -0.2282,-0.1393 -0.1134,-0.3039 -0.4307,-1.2918 -0.5454,-1.9631 -0.025,-0.2659 0.19,-0.063 0.1523,0.025 0.3041,0.1901 0.076,0.1012 0.063,0.114 0.2408,1.0384 z"
       id="path8032"
       inkscape:connector-curvature="0"
       style="fill:#ffffff;stroke:#000000" />
    <path
       d="m 4829.1801,2633.082 0.3541,0.152 -0.4683,1.4058 -0.1774,0.3798 -0.2658,0.2153 -0.2532,0.051 -1.1404,-1.5576 -0.051,-0.1141 -0.037,-0.2659 0.088,-0.1139 0.1705,-0.01 z"
       id="path8034"
       inkscape:connector-curvature="0"
       style="fill:#ffffff;stroke:#000000" />
    <path
       d="m 4898.1967,2642.8463 -0.063,0.3038 -0.1134,0.076 -0.2282,0.025 -0.1392,-0.025 -0.089,-0.051 -0.5315,-0.4306 -0.076,-0.1139 0.1016,-1.1778 0.8607,-0.8612 0.2658,-0.2406 0.1016,-0.038 0.2149,0.1268 -0.063,0.4813 z"
       id="path8036"
       inkscape:connector-curvature="0"
       style="fill:#ffffff;stroke:#000000" />
    <path
       d="m 4896.817,2652.256 -0.1649,0.4179 -1.052,2.1908 -0.2658,0.4053 -0.1774,0.1899 -0.1392,0.1014 -0.24,-0.013 -0.038,-0.1393 1.7478,-3.8372 0.1649,-0.2534 0.1649,-0.1012 0.1899,0.1012 0.076,0.1141 -0.025,0.2278 -0.077,0.2154 -0.088,0.076 z"
       id="path8038"
       inkscape:connector-curvature="0"
       style="fill:#ffffff;stroke:#000000" />
    <path
       d="m 4879.2231,2675.3683 0.2533,-0.2026 5.1674,-5.585 2.0651,-2.7102 1.0363,-1.4118 1.307,-1.6909 0.7849,-1.7606 0.4689,-1.5322 1.9001,-2.191 0.2658,-0.2406 0.2408,-0.1393 0.4306,-0.114 0.215,0.013 0.3166,0.1521 0.1517,0.228 -0.05,0.2532 -0.089,0.1139 -0.1516,0.1268 -0.3291,0.1012 -4.4077,7.4975 0.025,0.3038 -0.215,0.4052 -0.1517,0.2026 -9.0825,8.8652 -0.2783,0.1774 -0.2157,0.051 -0.4432,-0.025 -0.3166,-0.1266 -0.1023,-0.1385 z"
       id="path8040"
       inkscape:connector-curvature="0"
       style="fill:#ffffff;stroke:#000000" />
    <path
       d="m 4877.197,2677.0273 -0.069,0.1889 -0.2735,0.3938 -0.583,0.4304 -0.3416,0.1647 -0.8106,0.3292 -0.016,-0.023 0.4839,-0.6985 0.5956,-0.6333 0.558,-0.3419 0.2275,-0.025 0.07,0.08 z"
       id="path8042"
       inkscape:connector-curvature="0"
       style="fill:#ffffff;stroke:#000000" />
    <path
       d="m 4873.929,2679.3829 -0.012,0.2153 -0.3548,0.2278 -2.0011,1.1653 -0.1523,-0.063 0.027,-0.041 0.062,-0.3894 0.1517,-0.2027 1.7352,-1.1144 0.4057,0.038 0.028,0.033 z"
       id="path8044"
       inkscape:connector-curvature="0"
       style="fill:#ffffff;stroke:#000000" />
    <path
       d="m 4869.5972,2681.9411 -0.1524,0.3419 -0.215,0.2405 -0.2908,0.1774 -0.279,0.038 -1.8243,0.2407 -0.3072,-0.1188 -0.01,-0.01 0.1141,-0.2407 0.1392,-0.1393 1.0638,-0.5699 0.862,-0.3545 0.8708,0.2715 z"
       id="path8046"
       inkscape:connector-curvature="0"
       style="fill:#ffffff;stroke:#000000" />
    <path
       d="m 4859.0459,2686.0318 0.2658,-0.2786 2.774,-1.1907 0.8488,-0.3546 0.279,-0.013 0.095,0.074 0.019,0.015 -0.1524,0.2026 -0.1008,0.076 -0.1267,0.063 -1.7102,0.8488 -2.6355,1.1025 z"
       id="path8048"
       inkscape:connector-curvature="0"
       style="fill:#ffffff;stroke:#000000" />
    <path
       d="m 4843.581,2689.7042 -0.4056,-0.2405 -0.3033,-0.2532 -2.7365,-3.85 0.1649,-0.1519 0.5698,0.1013 0.19,0.063 0.1391,0.063 0.4432,0.304 1.0646,1.013 0.6589,0.6333 1.0579,2.1449 0.082,0.1852 0.063,0.494 -0.1015,0.1774 -0.5824,0.2405 -0.279,0.013 -0.088,-0.051 -0.025,-0.1647 0.1551,-0.7086 z"
       id="path8050"
       inkscape:connector-curvature="0"
       style="fill:#ffffff;stroke:#000000" />
    <path
       d="m 4856.8932,2686.3737 0.5239,0.2972 -0.5872,0.1713 -1.9635,0.3041 -1.3296,0.2016 z"
       id="path8052"
       inkscape:connector-curvature="0"
       style="fill:#ffffff;stroke:#000000" />
    <path
       d="m 4836.6776,2687.868 0.2784,-0.051 0.5072,0.2026 0.063,0.038 0.4689,0.38 0.1517,0.2787 0.1524,0.4179 0.038,0.2026 0.026,0.1393 -0.051,0.2786 -0.063,0.3166 -0.1141,0.2026 -0.076,0.051 -1.7102,-1.1272 -0.1266,-0.3419 -0.051,-0.4306 0.038,-0.3166 0.065,-0.01 z"
       id="path8054"
       inkscape:connector-curvature="0"
       style="fill:#ffffff;stroke:#000000" />
    <path
       d="m 4836.4244,2691.0213 -0.2025,0.1268 -3.2297,1.2917 -1.5579,0.3292 -0.5072,-0.038 -0.017,-0.031 3.1595,-4.1103 0.025,-0.2914 0.076,-0.2153 0.2032,-0.1266 0.2275,0.051 0.089,0.076 1.1265,1.0512 0.3799,0.3546 0.4056,0.5698 0.076,0.4306 -0.038,0.1266 -0.1743,0.3284 z"
       id="path8056"
       inkscape:connector-curvature="0"
       style="fill:#ffffff;stroke:#000000" />
    <path
       d="m 4830.2961,2692.9216 0.056,0.086 -1.571,0.9139 -1.5704,0.2001 -0.207,-0.1904 0.1493,-0.9236 0.2574,-0.8284 0.086,-0.028 1.8563,0.028 0.6575,0.2 0.2634,0.5258 z"
       id="path8058"
       inkscape:connector-curvature="0"
       style="fill:#ffffff;stroke:#000000" />
    <path
       d="m 4809.1802,2692.3892 0.3416,0.1899 0.1399,0.1772 0.088,0.2407 -0.077,0.3166 -0.6707,1.1398 -0.215,0.025 -0.2157,-0.063 -0.7855,-1.9882 0.051,-0.089 0.1266,-0.076 0.1392,-0.038 0.8739,0.1266 z"
       id="path8060"
       inkscape:connector-curvature="0"
       style="fill:#ffffff;stroke:#000000" />
    <path
       d="m 4824.5309,2694.504 -1.2663,0.2914 -0.3165,-0.025 -0.1141,-0.076 -0.1089,-0.1513 0.071,-0.1526 0.2908,-0.4687 2.3684,-0.5697 0.2157,-0.025 0.2915,0.025 0.3542,0.1518 0.1141,0.089 0.1391,0.1899 -0.058,0.094 z"
       id="path8062"
       inkscape:connector-curvature="0"
       style="fill:#ffffff;stroke:#000000" />
  </g>
  <path
     sodipodi:type="star"
     style="fill:#ff0000"
     id="path21687"
     sodipodi:sides="5"
     sodipodi:cx="321.793"
     sodipodi:cy="111.10047"
     sodipodi:r1="12.927564"
     sodipodi:r2="6.4637821"
     sodipodi:arg1="0.90675016"
     sodipodi:arg2="1.5350687"
     inkscape:flatsided="false"
     inkscape:rounded="0"
     inkscape:randomized="0"
     d="m 329.76036,121.28099 -7.73647,-3.72086 -7.45109,4.26371 1.14805,-8.50764 -6.35754,-5.76884 8.44601,-1.53715 3.52191,-7.829052 4.07187,7.557632 8.5342,0.93022 -5.92945,6.20802 z"
     inkscape:transform-center-x="0.14269571"
     inkscape:transform-center-y="-1.0979731" />
</svg>
