<svg xmlns="http://www.w3.org/2000/svg" width="349.53" height="298.16"><desc>world98</desc><g fill="#fff" stroke="#000" stroke-width="3"><path d="M228.67 163.2l2.4-1.4.22-.1.5-2.13-.7-.5-1.1.1 3.1-3.97.6-.73 3-3.32.3-.32.9-.4 1.5-1.4.3-.42.5-1.3v-.5l-.9-2.5-.7-1.7-.2-.2-.8-.4-11.1-4.6-.3.2-1.2 4.4.1.3.6.4 3 1.5 1.5.5.3 1.7.1.5-.1.6-1.3 4.2-.4 1-.4.4-3.6 1.5-.1.1-.4-.1-.7-.8-4.1-6.1-.4-.8-.5-1-.1-.3-.1-.8.1-.5.2-.5.6-1.2.4-.6.2-.1-.6 1.4-.2.9v.5l.2.1.2-.2 1-2.1.5-1.5 1-4.6 1.1-7.3 1.5-3.4 2.3-5.9.1-.3 1-4.5.6-7.2-.4-2.5-.1-.1-.7-.6-.8-.8-.2-.4-.2-.4.1-.2.2-.2 1.5-.6.3-.4.3-.6v-.2l.1-.6-.1-.5-.2-.4-.2-.2-.2-.1-.5-.2-4.6-5-.9-2.9-1.6-3.8-1.3-.4-4.6-.9-1.2-.2h-.3l-.7.3-.2.1-4-2.1-1.3-2.3-5.6-6.8-5.9-3.7-1-.4-.9-.3-.2-.2-.1-.2-.4-2.2-.9-4.2-1.8-.6-3.1-1.9-.2-.1-1.7-1.5-.1-.2V59l.03-.5-.07-.7-.1-.5-.1-.3-1.8-2.6-.2-.2-.3-.3-1.6-1.2-3.1-2.1-1.7-.9-.7-.1-.1.1-1.4-.5-2.67-1.3-.7-.4L169 46l-3.1-2.04-.5-.26h-.7l-7.86-.2-.2.04-2.35.36-.5.1-2.7 1.1-5.6 2.8-.4.5-.1.3v.3l.9 1.2.4.16.6.03h.7l.8-.1 2 .5.3.1.1.2.1.2v.2l-.2.9-.2.5-.2.2-.4.2-1 .2-.3-.1.1-.3.4-.2.1-.2v-.1l-.1-.1-.2-.1-.2-.2-.7-.2-.9-.2-1.7-.2h-.3l-2.9.2-1.6.7-1.1.6-3.6 1.9-3.3 2-1.1.8-.5.2-3.3 1.3-1.6.6-.9-.5 1-1.5.2-.2.1-.3V57l-.2-.2-.3-.1h-.3l-.3.1-1.7.93-2.9 2.1-3.8.6-6.8.94-3.9.5-2.1.56h-.6l-.2-.1-.4-.3-.4-.5-.2-.3-.3-.7-.5-1.5-.5-1.5-.07-.8v-.56l.1-1.52.2-.7.14-.2.2-.2.2-.07.2.15.05.2v.3l-.3 1-.1.83v.3l.1 1 .4 2 .2.54.5 1 .6.9.2.17.3.1.22.08 1.42-.43.4-.24.1-.1v-1.9l-.1-2.64v-.5l-.2-.46-2.3-3.2-.3-.37L102 51l-.6-.4-6.1-4.3-2.9-1.5-.4-.3-.5-1.1-.1-.1-.1-.1V43l.03-.1.2-.18h.2l1 .3.14.1 2 .88.35.3.33.3v.2l.9.2.2.1 1.7 1.4.47.2.5.2.4.1h.25l.4-.1.2-.1.2-.1 1.4-.6.2-.2.1-.3v-.26l-.5-.2-.8-.2-.9.12-9-4.17-.2-.1-1.9-1.9.2-.3 1.1-2.3-3.8-2.3-3.9.3-.2.1-.1.3-.3 1v.6l.2.5.1.2.3.3.1.1h.3l.2-.1.4-.3.3-.2.5-.1h1.5l.9 1.9.8 1.5v.3l-.2 1.5-2.43-1.7-2.3-1.5-1.9-1-1.4-.7-1.3-.6-4.6-1.8-2.5-.9-3.67-1-3.8-1.2-.82-.2-2.1-.5-1-.2-.3-.7 8.1.1 2.5.7.17-.1.2-.2-.06-.3-.8-1.7-.2-.4-3.3-2-2.7-1-.3-.1h-7.9l-2.3 1-.4.2-4.3 2.4-.6.1-.6-.06-2.1-.1-2.07-.1-3.3.2-6.7.8-2 .3-4.3.6-.8.2-.8.2-1.3.4-3 .42.5-.4V31l.4-.4 2.2-.8.5-.2.8-.2.8-.1 2.7-.2.6-.2.5-.2.6-.4L33 27l-.8-.97-2.66-2.24-4.08-.3-2.77.3.1.2.2.6v.7l-.2.5-.2.2-1 1.6-3.9 3.7-1.7.2-.2 1-1.3.3-5.4 1.1-2.6.5-.7.1-.2-.1.1-.2.9-.9.1-.1.5-.1h1.5L9 33l1.4-1.2.4-.4 3.3-4 .05-.5-.26-.5-.3-.3-.3-.1-2.7-.8-1-1.7-.1-.5.1-.57.1-.4.6-.75.5-.9.3-.7.4-1.15v-.3l.1-.56-.1-.43-.4-.5-.6-.4-1.2-.63-.5-.2-1-.4-.7-.4-.5-.2-1-.7-.4-.4-4-4.7-.2-.4V8l1-5.7 2-.1 102.5.05 13.7-.02.6-.02-.2.3.1.2.1.2 1.9 2.8.1.1 1.8 5.1v.6l.2 1.4.2.5.2.2.3.2 1.7 1.2 17.6.9 1.8.1 9.9.5 22.8 1.3 15.6.9 15.7.9 5.4.4 15.7 1 5.1.3 5.4.4 4.72.4 1.3 3.6.1.4v.2l-.05.3-.3.6-.2.6v.5l.2.4.7 1.7.2.4.2.2.4.3.43.1h3.8l1.8-.5.04-.1.1-.3 1.3-7 .3-1.6v-1l-.1-.2-.2-.3-.98-1.1-.2-.4-.2-.4-.1-.2-.1-.6.3-3.3.2-.4 1.04-1.8.17-.1 2.2-1.4.3-.1.3-.1 1.7-.1.5.2 4.3 1.6.3.1.4.3.92.5 2.24.9 7.4 1.8h.33l2.2-.4 1.6 1 1.7 2.4-.4 3.1-.4 3 1.8 1.8.1.2.9 3.5v.2l-.2 1.1.1 3 .1.7.2.6 1.1 3.2 1.5 5.3 1.2 4.6.8 3.2 1.5 4.9.3.9 2.8 7.1 1.2 2.8 6.6 14.4 2.2 4.1 6.2 9.8 5.8 8.8.6.9.3.5.3.4 1.6 1.7.27.4 2.2 3.4.8 1.3.4.68.4 1 .9 2.43.1.6-.1.28-.1.2-.2.2-.1.1-.7.3-.4.2-1.5 1.2-.1 2.9.1 5.1.2 1.4.2 1 .3 1.4.3 1.4.5 1.5 1 1.9.3.4 1.7 2.7 1 1.5.5.8.5 1 .3.7.1.26v.33l-.1.2-2.8-4.1-2.3-3.8-.4-.6-1.2-2.7-.2-.4-.2-.8-.3-1.1-.5-2.3-.1-.6V124l.2-3.3.1-.2.3-.6.2-.57.52-1.7.3-1.15.1-.6.1-1.2v-.5l-.1-.6-.78-2.24-.1-.1-2.1-.2h-.3l-.15.1-.1.7-.2.2-.2.1h-.3l-3-.53-.3-.1-.45-.2-.2-.2-.52-.6-.2-.3-.2-.6.2-1.6.1-.3.2-.1h.1l.2.1h.1l.6-.5.2-.2.2-.2v-.4l-.1-.4-.16-.2-.4-.2-2.6-1.6-1.4-.8.1.8.9 5.5 2.9 10.4.14.5 1.7 3.6 6.94 13 4.1 8.26.77 1.4.45.6.17.15.7.9.4.8 1.6 3.33.5 1.24.6 1.66.6 1.66.1.34.1.5v.25l.1.8.1.7.1.5 1.5 4.23.2.6 4.3 10.5 2.8 2.43.1.12 2 3.86.9 2.7.2.6 1.3 5.26.6 2.3.2.7.1.5.2 6.6v.8l-.1 2.7-.1.6-.1.1-.2.1-.4 1.4-.2 1-.8 5-1.3 8.3-1.9 13.4-2.4 7.3-.2.1-2.9 2.6-2.5 3.3-.2.3-.1.5v2.4l-1 1.1-.3.5-.1.1-.1.2-1.5 7.9-1.9 2.8-.4.8v1l.2.5.3.3.8.7-.1.1h.03l-.4-.1-.3-.1-.2-.1-.2-.4-.9-1.8-.2-.1-.2-.1-2.1.9-.08.2.1.1h.1l1 .1-.7.2-.7.5-.7-.8-.2-.4.4-.2.4-.2v-.4l-.2-.1-1.4-.1-1.1.1-.5.1-.24.1-3.3 2.3-1.3 1-6.6.1-10 1.56-1.9.5-.7-.5-1.9-1.5-.1-.1-1.4-3-.1-.2v-.7l1-2.7.8-.24.1-.3.1-.1.1-.1h.1l.9 1.2.8.73.1.2 4 3.1.9.43h.2l.28-.1 1.84-.7.3-.3.3-.4.2-.5v-.4l-.3-.5-1.4-1.7-1.2-.97-.2-.1-.3-.03-.6.1-1.5-.2-.4-.2-2-1.2-.6-.3-.1-.1-.7-.4-.1-.1-.1-.2-.7-.9-.1-.6-1.2-2.5-6.9-14.1-.4-.7-.2-.4-.2-.2-.1-.15-1.3-.9-.4-.3-.9-.5-7.13-3.3-2.75-.5-2.6.7-2.8-2-2-5.8-.84-.5-.15-.2-.4-1.7-.3-1.2-1.1-8.4-1.6-5 .1.2v.2l-.2.2-.17.1-.4.1-3.5-1.9-.1-.1.2-1 .05-.1.1-.1h.05l.1.1v.1l.06.2h.3l1.3-.6-.2-1 6.2-7.1.4-.7.05-.2h-.3l-.2.1-4.5 2.2-.2.1-.9 1.1-.1.1-.1.16-.1.3v.3l.1.5-.15.6-1.14 2.1-.2.1-2.95.5h-.22l-.3-.1-1.6-.7-.1-.2-.1-.54-.5-5.6v-1l1.4-6.4 1.5-5.3-3.8.6-4.2.63 1.3 2.9.6 2.5-.1 1.4-.1.16-.2.2-.2.1-5.7-2.22-.3-.1-.4-.3-.6-.6-2.8-3.8-.3-.3-.6-.93-.1-.2-1.2-2.6-1.4-3.18-3.9-8.6.2-.3v-.6l-.4-1-1-2.9-.4-.8-.5-.5-3.1-2.4z"/><path d="M47.38 29.4l-5.87.08-7.2 1.18-3.7.62-3.4.6-1 .25-3.9.57-1.6.23-1.7.2-.2.04h-.1l-.6-.15-.6-.26-.3-.2v-.1l.1-.18.2-.07 6.5-.3 5.6-1.1 6-.8 5.2-.7h.7l1.3-.1h1.5l3.3-.1H49l.3.1 2.4.5.18.1.07.1v.1l-.14.2h-.3l-1-.2zm93.42 26.67l-.06.34-.14.2-.14.2-.53.4-.7.3-.72.2-.7.2-.9.2h-.2V58l.1-.26.2-.1.6-.05.9-.2.4-.2 1-.5 1.2-.7zm-22.56 9.08l.7.28.5.14 1.9-.25 1.13-.22 7.08-3.33 5.3-3.12.34-.05.1.05v.1l-.1.1-3.6 2.7-9.2 3.9-1.5.47-.3.05-1.6.2-.4-.02-1.6-1.08-.3-.2-.1-.1v-.14l.2.02v.06zm-.84-2.4l-.8 1.43-.14.14-.2.08-.28.03-.5-.1-.72-.23-.16-.12-1.42-1.15-.88-.85 2.92-.18.73-.02.52.1.86.22.28.16-.1.33zm201.42 62.95l-.06.3.03.2.1.46.1.38.3.73-.3-.1-2.8-6.14-.8-4.52.1-2.1.2-.5.1-.3 1.5-1.4 2.3-1h.1l.5.2.2.2.2.2.3.6.1.6v.7l-.2.7-.5 1-.3.6-.3.6-.3.7-.4 1.2-.7 3.2v.3l.4 2.4zm12.04 23.3l.2.42.4.8.92 1.6 1.96 5.55 1.65 5.66.5 1.22 1.9 3.57 3.2 7.5.1.46v.27l-1-1-.2-.18-.8-1.6-3.8-7.7-4.6-13.04-2.7-6.84v-.1l.2-.1h.2l.2.1.1.3zM228.3 165.32l.26.33 2.65 3.52.3.38-.1.22-.3-.1-.3-.3-3.3-3.87-.1-.2v-.13l.1-.18.2-.1h.3l.4.1zm17.52 28.33l.3.66.37 1.1v.8l-.3.8-.1.3-.1.2-.2.1h-.3v-.3l-.5-3.7v-.2l.2.1.2.3.1.2zm7.84 13.35l-.32-1-.22-.7-1.24-3.66-.3-.57-.63-.68-.12-.2-.53-.9-.05-.1-.32-1.2.23-.1.92.1.97.2.6 1.2.08.2.1.2 1.27 4.5.6 2.6-.02.2-.18.1-.1.1-.33-.1-.24-.2-.2-.6zm-5.68-5.1l.04.17-.05.1-.18-.07-.9-1.05-.1-.17-.5-2-.1-.6.1-.13.2.06.1.2.1.3zm2.1 5.96l.13.26 2.2 1.36 2 .05.4-.02.3-.1v-.2l.1-.1h.3l.6.2.6.4.3.2.1.1v.1l-2.1 1.2-.2.1-.3-.1-1.7-.6-.7-.3-1.5-.9-.2-.2-.1-.3-.4-1.3-.5-1.9v-.3h.2l.1.1.3.2.1.1.1.1.2 1.1zm23.02 27.07l.34.15-.47 1.4-.18.38-.3.22-.3.05-1.2-1.56-.1-.1-.1-.28.1-.2h.1zm69 9.77l-.06.3-.1.07-.24.02-.14-.1-.1-.1-.52-.5-.08-.2.1-1.2.87-.9.26-.3.1-.1.2.1-.1.5zm-1.38 9.4l-.16.42-1.05 2.2-.2.4-.2.18-.1.1h-.2v-.15l1.8-3.83.2-.26.2-.1.2.1.1.12v.44l-.1.08zm-17.6 23.1l.26-.2 5.17-5.58 2.07-2.7 1.03-1.42 1.3-1.7.8-1.75.46-1.53 1.9-2.2.3-.23.3-.2.5-.1h.2l.4.1.2.2v.2l-.1.1-.1.1-.3.1-4.4 7.5.1.3-.2.4-.2.2-9 8.9-.3.1h-.6l-.3-.2-.1-.2zm-2.02 1.67l-.07.2-.27.38-.58.43-.34.17-.8.33-.03-.02.5-.7.6-.64.6-.34.2-.02.1.08zm-3.26 2.36l-.02.2-.35.24-2 1.16-.15-.06.02-.04.06-.4.16-.2 1.73-1.1.4.03v.04zm-4.34 2.55l-.15.35-.2.24-.3.17-.28.04-1.83.24-.3-.12h-.02l.12-.25.14-.14 1.06-.5.86-.3.87.3zm-10.55 4.1l.27-.28 2.77-1.2.8-.35h.3l.1.06v.1l-.2.2-.1.1-.2.1-1.7.9-2.7 1.1zm-15.45 3.67l-.42-.24-.3-.2-2.74-3.8.17-.1.6.1.2.1.2.1.5.3 1.1 1 .7.7 1.1 2.2.1.2.1.5-.1.2-.6.3h-.3v-.1l.2-.7zm13.3-3.33l.52.3-.58.17-1.97.3-1.33.2zm-20.22 1.48l.28-.04.5.2.07.04.47.38.15.28.16.42.1.2.1.14v.58l-.1.22v.05l-1.7-1.13-.1-.34v-.75h.1zm-.25 3.16l-.2.13-3.23 1.2-1.56.3-.5-.1-.02-.1 3.16-4.1.02-.3.08-.2.2-.2h.23l.1.1 1.2 1 .4.3.4.6.1.4v.1l-.2.3zm-6.13 1.9l.06.1-1.57.9-1.6.2-.2-.2.1-.9.2-.84.1-.03h1.8l.6.2.3.5zm-21.1-.53l.33.2.14.17.1.24-.1.32-.66 1.14-.2.02-.2-.06-.8-2 .1-.08.2-.07h.2l.9.1zm15.34 2.12l-1.27.3-.32-.04h-.1l-.12-.1.07-.1.3-.4 2.36-.5h.22l.3.1.34.2.12.1.14.2-.06.1z"/></g><path fill="none" stroke="red" stroke-width="6.32" d="M497.02 511.44a32.55 33.18 0 1 1-65.1 0 32.55 33.18 0 1 1 65.1 0z" transform="matrix(.63285 0 0 .63334 27.893 -211.93)" stroke-linecap="round" stroke-linejoin="bevel"/><path fill="none" stroke="red" stroke-width="10.95" d="M497.02 511.44a32.55 33.18 0 1 1-65.1 0 32.55 33.18 0 1 1 65.1 0z" transform="matrix(.3651 0 0 .36575 152.253 -75.624)" stroke-linecap="round" stroke-linejoin="bevel"/></svg>