<svg xmlns="http://www.w3.org/2000/svg" width="468.94" height="432.53"><desc>world98</desc><path fill="#fff" stroke="#000" d="M2170.2 1095.8l.25-.2.6-.12 1.22.14.64.1.3.2.3.42-.1.7-.1-.2-.3-.28-.5-.17-2.5-.2z"/><g fill="#fff" stroke="#000" stroke-width="4"><path d="M176.5 338.83l.14-.2.2-.47.3-.76-.02-.56-.2-6.6-.2-.47-1.12-1.32.38-5.27.24-.73.54-2.78v-.6l-.07-.25-.7-1.35-.4-.33-2.7-1.28-1.1-.44-.7-.08-.3.05-.2.1-.2.5-.2.1-.3-.1-4.1-2.1-.9-.6-.2-.2-.3-.4-.4-1v-.9l.1-.5.4-1 .8-2.2-3.6-4.3-2.3-.7-.6-.3-.5-.3-.6-.5-1.8-1.7-.4-.3-5.3-5.5-4.6-2-.2-.7-1-2.4-.1-.3-.2-.2-1-1-.2-.2-2-1.5-2.8-2.5-.3-.4-.1-.2-.1-.6-.1-.8v-.3l-.7-1.8-.4-.7-.3-.4-.2-.2-8.4-8.2-.7-.5-3.6-1.8-.5-.3-1.3-.3-.5-.3-2.9-3-.2-.2-.1-.2v-.3l.2-.7-.1-.3-.4-2-.1-.3-.4-1.7-.6-1.5-.1-.2-1.1-2.2-1.2-2.9.1-.6.1-.2.2-.4 1.3-1.5.2-.1h.4l.2.1.6.5.3.3.4.4h.5l.3-.1.4-.3.5-.5.3-.4.3-.6.23-.4.1-.3 1.1-4.05.5-2.4-1.5-3-.3-.4-2.1-2.6-.3-.3-.8-.67-.7-.3-.6-.2h-.4l-.7.1-2.6.5-1.6.6-.5.1h-.3l-.6-.1-.7-.2-.7-.3-2.7-1.2-.5-.25-1-.7-.4-.3-8.8-7.98-.2-.4-.27-.5-.2-.4-.14-.5-.1-.6v-.3l.1-.6.3-1 .4-1.2.1-.6v-.3l-.2-1.7-.1-.2-1.9-4.6-.4-.6-.3-.4-.2-.2-.2-.2-.3-.1H90l-.7-.1-.2-.2-.1-.2-.1-.5-.3-1.7-.17-1.1.4-7.4.1-1.2.1-.54.2-.2 1.2-.6.3-.1h.3l2.5-.3.3.1.2.1.6.8.3.7.2 2.2-.2 1.9-.1.3-.5 1.3-.07.26.4 1.5.1.2 12.8 6.9.3.1.7.1h1.2l.6-.17.5-.6-1-.4-2.3-1.34-.13-.2-1.9-3.8-.2-.7-.1-.5-.1-.8-.2-.77-.2-.4-.8-1.3-.8-.9-3.1-2.4-2.6-2.7-3-5.3-.1-.25-.07-.3 1.9-1.24 5.17-3.1.5-.3.6-.1 2.4.87 1.65.5 5.1-1.4 1.2.05 3.4.5 2.66.5.9.26.3.1 6.06.8h.37l.6-.1 1-.9v-.9l.3-.9.2-.1.2-.1 1.8-1.1.3-.1h.8l3.7 2.5 2.7 1.8.5.2h.4l.2-.2-.1-.3-.2-.2-.3-.3-.2-.2-1.6-1.3-3.6-2.5-.2-.2-.9-.2h-.74l-2.8.6-.25.1-.3.3-.1.3-.5.5.1.1v.12l-.1.1-.1.1-.7.3-.3.1-.7.44-.3.1h-.4l-3.8-1.6-3.93.7-3.3-1.4-1.83-2.3-1.4 1.8-2.7 2.2-7-2.2-1-.6-.7-.4-.53-.2-2.5-.9-1.2.4-3.9 1.3-.3.1v8.5l1.6 1.2 1 .7v.3l-.1.3-1.4 1.9-.5.3-1.3.2-.7-.1-.3-.1-6.6-3.5-5.3-3.7-.4-.4-.2-.14-.4-.2-1.1-.5-3.6-1.5-1-.8-.5.9-.9 2.5-2.3-.25 1.8-2.4 1.4-4.76-1.7-3.6.9.7.8.7 1.2 1.1 2.7 3.5 1.7 1.2v-.3l-.4-.6-.9-1.2L69 173l-2.1-1.3-1.7.2-.2-.28.2-2.1-2.84-4.5-.2-.2-.5-.2-.8-.3-1.5-.7-3-1.4-1.3-.86L53.1 160l-.3-.3-1.6-2.2-4.1-4.8-.37-.3-3.88-2.7-3.8-2.95-3.6-3.1-.2-.2-.5-1.1-.03-.3.1-.25.2-.16.5-.24 1.1-1 .3-.4.3-.5-.03-.6-.7-3.8-.3-.6-1-2-.2-.46-1.8-3.5-1.8-4-.1-.6v-.9l.1-.6.8-4.4.3-.7.3-.7 1.1-1.3.1-.24-1.5-6.8-.3-.7-2-3.4-2.2-3.6-3-3.7-5.9-6.4-.2-.2-.8-.7-.4-.3-.4-.3-1.9-1H15l-.5-.2-1.6-1L8.6 84l-1.1-.7-.34-.4-.1-.2-.1-.3V82l.3-1 .15-.5.1-.6-.2-.5-1.3-3-.2-.4-.8-.9-.1-.24.1-.3L6 71l.1-.23.9-2.1 2.5-5 .1-.2.5-.6.5-.6.33-.3.8-.7h1.4l2.5-3 2-8.2.2-1.4-.1-.5-.1-.2-.5-.6-.2-.2-.45-4.6 1.4-4 .2-.5 1-4L20 32l.25-1.36-.2-1.4-.2-.74-.6-2-2.5-7.6-2.9-3.3-1.6-3 .7-1 .2-.4.2-.7.63-3.6-.4-2.1-.1-.25H24l54.7.05H204V141l8.25 5.67 13.88 9.6 22.9 16.06 6.08 4.3 23 16.43 7.5 5.4 14.6 10.6 6.7 4.9 7.8 5.72 7 5.2 7 5.2 7.4 5.5 7.3 5.5 6.6 4.94 6.9 5.23 7.3 5.5L377.4 267l7.9 6.1 7.5 5.84 5 3.9 8.86 6.97 13.8 11 5.98 4.8 6 4.8 15.37 12.4 1.6 1.4v4.7l.1.3.3.4 2.8 2.7 2.9 2.7 1.7 2.7 1.7 3.1 1.8 3.6.1.3.3.9.1.3v.2l1.6 2.4 2.6 2 .7.5 1.6 1 1.4.8 1 .4.3.1.2.2.2.2.5.5.8.9.7.9.3.7v.3l-.1.2-4.5 3.5-.6.4-3.8 2-1.6.8-.8.3-.5.2-.6.4-.7.7-.1.3-.4 2.4v.3l-.1.2-1.2.9-.6.5-.6.4-1.3.9-.2.2-.4.2-.3.5v.3l.6 3.4.7 3.9.5 2.8-1.9 7.3-.1.2-4.6 5.9-.3.4-.2.1-.5.1-3.3.8v3.7l1 1.8.9 1.5.7 1.4v.6l-.2 1.6-.1.6-.1.2-.7 1-.1.3-.2.5v.3l.1.5.1.3.8 1.2.7.8.1.1 2.5.6h.4l.9-.1.8-.2 1.1.1.3.1.6.2.4.3.2.2 1.9 2.1.3 4.5v.3l-.02.3-.2.5-3.04 5-.1.2-.2.2-.2.2-.6.1-1.7-.1-.9-.2-1.2-.4-.62-.2H447l-.5.2-.8 1h-.5l-6.5.5-7 .5-8.1.6-9.2.7-9.2.7-13.8 1-15.24 1.2-11.8.9-.6.1-9.04.7-9.14.8-8.24.7-1.25.1-.5-1.4-1-1.8-1.2-2.4-.9-.7-.5-.4v-.6h.5l1.2 1 1 2.5.4.2.9.2.3-.1.1-.5v-.3l-.1-.5-.7-1.2-.5-.5-.2-.1-2-1.7-.5-.24-.2-.1h-.3l-.4.2-.2.2-.2.4-.2.4-.2.5v.6l-.1.8-.6.2-.7-1.4.1-.9.4-2.8-1-2.66.9-.9.4-.56.1-.2v-.3l-.1-.8-.8-3.6-.2-.8-2.2-5.5-.5-.9-.5-.8-3.2-4.6-3.3-3.9-.7-.7-6.3-4.6-1.9-1.26-4.7-3.2-3.8-2.5-.5-.2-.3-.1-.8-.1-.8-.3-1.2-.7-.9-.6-.9-.6-.8-.6-.4-.3-1-1-.6-.5-.6-.5-1.7-1.4-.8-.6-.7-.4-.86-.24-3.8-.8-.3.05-1.4.5-.5.2-.2.1-.1.3.1.4v.9l-.1.2-.1.2-.2.12-.6.1-.7-.1-.6-.2-3.4-1-.4-.3-.3-.3-.3-.4-.1-.2-.2-.45.1-.26.1-.2.8-.8.6-.8.1-.6-.2-.5-1.4-3.03-.2-.4-.4-.6-1-1.3-.8-.9-1.7-2-.8-.6-.4-.3-.5-.2h-.7l-4.3.3-1.9.1-2.5.3-1 .1-.3.1-.2.1-.2.2-2.2-.1-4.54-1.1-1.2-.3-.9-.2-6.7-2.1-1.9-1-.2-.1-1.7-1-.2-.2-.2-.2-1.4-2.4-.1-.2-2.55-2.6-4.7-3.4-1.4-.7-4.3-1.9-1.6-.3-1.1-.1-1.1-.1-7.9-.1-9.2-1.8-.7-.1-5.2-.4h-.7l-4.9.3-5.07.32-3.2.5-1 .1-.1-.2-1.3-2-.2-.7-.24-.4-.2-.13-.2-.2-2.2-1.3-.46-.3-.3-.1-.33-.1-.4.07-.6.2-.6.1-.3-.1-.5-.5-.3-.7v-.3l.2-2.3z"/><path d="M113.46 182.6l.2.16-.14.2-.28.1-.28-.1-.27-.13-.7-.4.1-.2.2-.12.3.1zm8.44 1.15l.27.1.15.2-.16.16-.22.2-.27.1h-.32l-.2-.1-.1-.2.05-.3h.4zm95.94 183.45l4.77-.4 1.3-.5.3-.1.4.05 1.6.9.2.15-.6 1.1-.1.14-.2.12-2.4.72-5.5 1.18-.3.05-2.5.2-2.9-.3-1.4-.7-.1-.2-2-3.2v-.5l.1-.3h2.3zm-28.1-.4l.25.1.4.26.2.17.3.35-.2.18-.3.1-2.9.27-2.7-.38-.3-.05-.5-.23.1-.25.3-.36.2-.18.4-.24.6-.1 1.7-.18 1.6.38zm15.66 2.7l.17.2.07 1.12-.05.28-3.1 1.8-.3.08-3.1.58-.7-.12-1.1-.4-.9-.5-.4-.3-.9-1.14-1.6-2.13 1.9-.44 2.2-.47 3.8-.45.7.6 1.6 1.6zm69.58 25.16l1.9.67 2.45 1.35 2.4 2.38.2.46v.24l-.02.32-.2.48-.2.18-.2.05-6.1-.8-.3-.1-.2-.2-6.1-6.7-.1-.2v-.3l.2-.2h2.6l.3.1.4.3zm-47.46 7.56l.25.1 1.38.76.25.14.18.14.52.5.36.35.13.2-.1.3-.3.1-.9.2-.6.1h-.4l-1.1-.1-.9-.2-.5-.2-.5-.3-.6-.5-.7-.9-.2-.2-.4-.6 1.8.1 1.2.1.3.1zm43.78 13.38l.26.38.7.7 1.03 1 3.1 2.38 2 1.4v1l-1.5.64-.3.1-.3.02-2.9-1.66-.4-.28-.3-.36-1.8-2.76-1.7-2.6-1.1-2.1-.1-.24v-.3l.1-.22 1.5.16.3.05.9 2.3z"/></g><path fill="none" stroke="red" stroke-width="6.85" d="M497.02 511.44a32.55 33.18 0 1 1-65.1 0 32.55 33.18 0 1 1 65.1 0z" transform="matrix(.8761 0 0 .87634 -225.247 -107.045)" stroke-linecap="round" stroke-linejoin="bevel"/><path fill="none" stroke="red" stroke-width="11.86" d="M497.02 511.44a32.55 33.18 0 1 1-65.1 0 32.55 33.18 0 1 1 65.1 0z" transform="matrix(.50545 0 0 .50608 -53.084 81.56)" stroke-linecap="round" stroke-linejoin="bevel"/></svg>