<?xml version="1.0" encoding="UTF-8" standalone="no"?>
<svg
   xmlns:dc="http://purl.org/dc/elements/1.1/"
   xmlns:cc="http://creativecommons.org/ns#"
   xmlns:rdf="http://www.w3.org/1999/02/22-rdf-syntax-ns#"
   xmlns:svg="http://www.w3.org/2000/svg"
   xmlns="http://www.w3.org/2000/svg"
   xmlns:sodipodi="http://sodipodi.sourceforge.net/DTD/sodipodi-0.dtd"
   xmlns:inkscape="http://www.inkscape.org/namespaces/inkscape"
   version="1.1"
   width="468.9375"
   height="432.53125"
   viewBox="0 0 468.9375 432.53125"
   id="svg6081"
   inkscape:version="0.48.4 r9939"
   sodipodi:docname="LC4E.svg">
  <metadata
     id="metadata9137">
    <rdf:RDF>
      <cc:Work
         rdf:about="">
        <dc:format>image/svg+xml</dc:format>
        <dc:type
           rdf:resource="http://purl.org/dc/dcmitype/StillImage" />
        <dc:title />
      </cc:Work>
    </rdf:RDF>
  </metadata>
  <defs
     id="defs9135" />
  <sodipodi:namedview
     pagecolor="#ffffff"
     bordercolor="#666666"
     borderopacity="1"
     objecttolerance="10"
     gridtolerance="10"
     guidetolerance="10"
     inkscape:pageopacity="0"
     inkscape:pageshadow="2"
     inkscape:window-width="1366"
     inkscape:window-height="750"
     id="namedview9133"
     showgrid="false"
     fit-margin-top="0"
     fit-margin-left="0"
     fit-margin-right="0"
     fit-margin-bottom="0"
     inkscape:zoom="0.99559984"
     inkscape:cx="-26.878324"
     inkscape:cy="198.44116"
     inkscape:window-x="0"
     inkscape:window-y="18"
     inkscape:window-maximized="1"
     inkscape:current-layer="svg6081" />
  <desc
     id="desc6083">world98</desc>
  <g
     id="Jamaica:Kingston Parish"
     transform="translate(-2881.4375,-1898.1875)">
    <path
       d="m 5051.6412,2993.997 0.2512,-0.2079 0.5855,-0.118 1.2329,0.1386 0.6387,0.089 0.2936,0.1979 0.2515,0.4345 -0.1329,0.6881 -0.1266,-0.1899 -0.3799,-0.2786 -0.4814,-0.1774 -2.4718,-0.1656 z"
       id="path6748"
       inkscape:connector-curvature="0"
       style="fill:#ffffff;stroke:#000000" />
  </g>
  <g
     id="United States:California State"
     transform="translate(-2877.4198,-1894.1698)"
     style="stroke:#000000;stroke-width:4;stroke-miterlimit:4;stroke-opacity:1;stroke-dasharray:none">
    <path
       d="m 3053.9304,2233.0028 0.1269,-0.2028 0.2147,-0.4686 0.279,-0.7596 -0.012,-0.5573 -0.2035,-6.5984 -0.2025,-0.4811 -1.1139,-1.3173 0.3795,-5.2683 0.2408,-0.7343 0.5444,-2.7736 -0.012,-0.5952 -0.063,-0.2532 -0.6081,-1.3552 -0.3674,-0.3294 -2.6599,-1.279 -1.0513,-0.4431 -0.6589,-0.076 -0.3034,0.051 -0.1649,0.1774 -0.152,0.5193 -0.1892,0.1138 -0.3427,-0.038 -4.0153,-2.0769 -0.8985,-0.519 -0.1782,-0.1902 -0.2529,-0.3927 -0.406,-0.9121 -0.025,-0.2786 0.025,-0.6202 0.1145,-0.5576 0.3548,-0.975 0.8231,-2.1781 -3.5971,-4.2676 -2.3183,-0.6588 -0.5691,-0.2404 -0.4564,-0.2407 -0.5581,-0.4814 -1.7595,-1.6717 -0.3298,-0.3544 -5.2559,-5.484 -4.5225,-1.9754 -0.2657,-0.6967 -0.9755,-2.3809 -0.1009,-0.2282 -0.152,-0.215 -0.9508,-1.0261 -0.1899,-0.1645 -2.0261,-1.5197 -2.7605,-2.4439 -0.2918,-0.3802 -0.1009,-0.2153 -0.089,-0.5319 -0.1266,-0.785 0.012,-0.3041 -0.7215,-1.8616 -0.317,-0.6584 -0.2532,-0.4053 -0.19,-0.2031 -8.3979,-8.1175 -0.6457,-0.4556 -3.6353,-1.7733 -0.5323,-0.2278 -1.2405,-0.2915 -0.4558,-0.2532 -2.8756,-2.9382 -0.1517,-0.1899 -0.1144,-0.2154 0.051,-0.2786 0.2275,-0.7343 -0.025,-0.3168 -0.3799,-2.0265 -0.063,-0.2786 -0.4825,-1.6839 -0.5312,-1.4189 -0.1145,-0.2149 -1.0377,-2.2039 -1.14,-2.8241 0.064,-0.5823 0.088,-0.2407 0.2536,-0.4309 1.3167,-1.4561 0.2025,-0.152 0.3924,0.012 0.2665,0.1012 0.6081,0.4815 0.3037,0.3419 0.4188,0.3544 0.2651,0.063 0.3169,-0.05 0.2784,-0.089 0.4814,-0.2278 0.5316,-0.5448 0.2926,-0.3927 0.3795,-0.6202 0.215,-0.456 0.088,-0.2407 1.077,-4.0401 0.4933,-2.4314 -1.4813,-3.0519 -0.2532,-0.4181 -2.0901,-2.6596 -0.3041,-0.3419 -0.7598,-0.6456 -0.7347,-0.3548 -0.582,-0.1774 -0.3555,-0.038 -0.7083,0.051 -2.5086,0.4939 -1.6347,0.5823 -0.557,0.1395 -0.3538,0.012 -0.6717,-0.1012 -0.6207,-0.1774 -0.773,-0.2911 -2.8373,-1.254 -0.5065,-0.2532 -1.0256,-0.7092 -0.3924,-0.3166 -8.7903,-7.9529 -0.215,-0.4056 -0.2289,-0.5064 -0.1774,-0.4307 -0.1392,-0.5068 -0.063,-0.5822 0.013,-0.2915 0.1012,-0.5444 0.3545,-1.0261 0.431,-1.2286 0.1016,-0.5569 0.013,-0.304 -0.215,-1.6463 -0.076,-0.2532 -1.9766,-4.5716 -0.3413,-0.6209 -0.3044,-0.3798 -0.1896,-0.1903 -0.1899,-0.1266 -0.3177,-0.076 -0.7211,0.05 -0.6328,-0.1392 -0.1903,-0.1648 -0.1141,-0.215 -0.1016,-0.5318 -0.2529,-1.6463 -0.1649,-1.0891 0.4056,-7.3964 0.1263,-1.2154 0.1016,-0.545 0.1642,-0.1899 1.1654,-0.5948 0.2915,-0.089 0.3169,-0.051 2.558,-0.2536 0.3173,0.064 0.1903,0.1645 0.5695,0.785 0.304,0.6842 0.2404,2.1782 -0.2275,1.887 -0.051,0.2407 -0.4053,1.2665 -0.089,0.2532 0.4306,1.5197 0.1016,0.2278 12.7663,6.8896 0.2794,0.1013 0.7096,0.1137 1.1526,0.051 0.5952,-0.1391 0.4937,-0.5444 -1.0889,-0.3673 -2.2553,-1.3301 -0.1514,-0.1521 -1.8747,-3.7611 -0.215,-0.76 -0.089,-0.5569 -0.05,-0.8108 -0.2163,-0.7472 -0.215,-0.4306 -0.7473,-1.2661 -0.7973,-0.9121 -3.1032,-2.3684 -2.6091,-2.7228 -4.1426,-5.7623 -0.1141,-0.2278 -0.063,-0.2407 1.9127,-1.2665 5.1177,-3.1152 0.5319,-0.2279 0.5945,-0.1144 2.3948,0.8767 1.6229,0.555 5.1021,-1.406 1.2037,0.025 3.3689,0.519 2.6599,0.5064 0.9121,0.2661 0.3159,0.05 6.0428,0.8616 0.3548,0.013 0.6457,-0.1012 1.0106,-0.8816 -0.038,-0.1444 0.01,-0.7066 0.3267,-0.8889 0.1214,-0.1064 0.152,-0.053 1.7634,-1.0944 0.3166,-0.063 0.4049,0.013 0.3166,0.076 3.7245,2.495 2.6724,1.8108 0.4683,0.2661 0.3548,0.038 0.1266,-0.2153 -0.063,-0.2532 -0.1513,-0.1899 -0.3427,-0.3165 -0.1899,-0.1646 -1.6212,-1.2539 -3.6479,-2.4571 -0.2407,-0.1392 -0.9508,-0.1774 -0.7594,0.013 -2.7483,0.5444 -0.2407,0.114 -0.3799,0.3295 -0.088,0.2786 -0.4588,0.5369 0.068,0.1292 -0.031,0.1671 -0.099,0.1063 -0.1291,0.091 -0.7371,0.3342 -0.3121,0.1214 -0.6714,0.4383 -0.3162,0.05 -0.3671,-0.013 -3.7651,-1.6613 -3.9485,0.6863 -3.3063,-1.4185 -1.8622,-2.3205 -1.4308,1.7932 -2.7236,2.1611 -7.0426,-2.2164 -0.9368,-0.5823 -0.6707,-0.3801 -0.5452,-0.2282 -2.4571,-0.8863 -1.1654,0.3673 -3.8504,1.2286 -0.2779,0.089 0.037,8.1557 0.063,0.2786 1.6344,1.2157 1.0638,0.7343 0.025,0.2786 -0.05,0.279 -1.4198,1.9249 -0.4553,0.2657 -1.3547,0.1266 -0.6721,-0.114 -0.2783,-0.1267 -6.5862,-3.5329 -5.2697,-3.7361 -0.3162,-0.3423 -0.2275,-0.1645 -0.4311,-0.2533 -1.0648,-0.5064 -3.6344,-1.5576 -1.0137,-0.8562 -0.43,0.8941 -0.8756,2.458 -2.2588,-0.247 1.8549,-2.4135 1.3428,-4.7618 -1.7154,-3.5162 0.8822,0.7058 0.8117,0.7058 1.2353,1.0584 2.7507,3.5408 1.6848,1.1778 -0.025,-0.2783 -0.3806,-0.6334 -0.8492,-1.1649 -5.8389,-7.1936 -2.0709,-1.3409 -1.6939,0.2117 -0.247,-0.2823 0.1764,-2.1171 -2.8266,-4.488 -0.2285,-0.152 -0.4805,-0.2278 -0.7987,-0.3165 -1.5446,-0.7093 -2.989,-1.4056 -1.3428,-0.8237 -1.9378,-1.3294 -0.3558,-0.3548 -1.6459,-2.1274 -4.1287,-4.8252 -0.3555,-0.3419 -3.8629,-2.6595 -3.825,-2.9507 -3.6218,-3.0777 -0.1906,-0.1899 -0.5066,-1.1145 -0.076,-0.2532 0.076,-0.2783 0.1642,-0.152 0.494,-0.2407 1.0263,-1.0515 0.2915,-0.3927 0.2157,-0.4682 -0.026,-0.5826 -0.709,-3.7615 -0.3041,-0.6835 -0.9379,-2.0011 -0.2407,-0.4307 -1.7735,-3.4954 -1.8361,-4.0144 -0.1141,-0.5321 0.013,-0.9242 0.088,-0.583 0.8106,-4.3688 0.2533,-0.7729 0.3799,-0.6456 1.1278,-1.2919 0.088,-0.2532 -1.482,-6.8009 -0.3166,-0.6835 -2.0268,-3.3946 -2.1527,-3.5329 -2.9006,-3.6728 -5.9022,-6.3828 -0.1649,-0.1774 -0.7734,-0.6585 -0.4046,-0.3169 -0.4557,-0.2783 -1.8751,-1.0765 -0.2407,-0.1141 -0.4182,-0.013 -0.5315,-0.2153 -1.5958,-1.0008 -4.3325,-2.9124 -1.1021,-0.7475 -0.3288,-0.3419 -0.1649,-0.1899 -0.076,-0.2533 0.051,-0.5826 0.3291,-0.9875 0.1391,-0.5322 0.038,-0.5951 -0.1524,-0.494 -1.2155,-3.1406 -0.2407,-0.4306 -0.8231,-0.9625 -0.076,-0.2153 0.039,-0.2786 1.0252,-3.5333 0.089,-0.2536 0.8864,-2.1277 2.5329,-5.0402 0.1267,-0.2278 0.4303,-0.608 0.4561,-0.5952 0.343,-0.3673 0.7848,-0.6713 1.3686,0.038 2.5702,-3.0269 2.0142,-8.2065 0.19,-1.4564 -0.076,-0.5322 -0.076,-0.2407 -0.4558,-0.5948 -0.2031,-0.1649 -0.4432,-4.5591 1.3428,-3.9639 0.1642,-0.494 1.2667,-4.0523 0.7093,-2.2926 0.2665,-1.3677 -0.19,-1.393 -0.2407,-0.7468 -0.646,-2.0015 -2.5079,-7.6493 -2.8624,-3.2422 -1.5585,-3.0011 0.7222,-1.0512 0.2157,-0.456 0.215,-0.7471 0.6839,-3.5334 -0.4049,-2.1527 -0.077,-0.2421 10.7288,-0.024 54.7047,0.026 27.3715,-0.026 38.7459,0.026 44.686,-0.01 13.0713,-0.016 1.5192,0.026 -0.012,136.4202 8.2702,5.6739 13.8698,9.5742 22.9126,16.0582 6.0678,4.3062 23.0143,16.4506 7.4979,5.4204 14.5402,10.5874 6.6884,4.9014 7.7766,5.724 7.0043,5.1925 6.9917,5.205 7.3334,5.4837 7.3087,5.4965 6.5607,4.9515 6.9027,5.2432 7.2458,5.5216 13.3371,10.2455 7.8907,6.1039 7.5115,5.8388 4.9894,3.9128 8.8804,6.9654 13.7919,10.9165 5.9919,4.7748 5.9655,4.7744 15.3639,12.3858 1.5711,1.3454 -0.063,4.6321 0.05,0.2533 0.2539,0.4055 2.7483,2.7097 2.8749,2.6595 1.6966,2.7233 1.6984,3.0519 1.8104,3.5716 0.089,0.2274 0.3416,0.8742 0.038,0.2532 -0.038,0.2786 1.5453,2.4317 2.5709,1.9883 0.6206,0.4306 1.5964,0.9625 1.3801,0.7854 1.0137,0.4682 0.2912,0.089 0.2154,0.1391 0.2024,0.152 0.5065,0.5197 0.7852,0.8862 0.6467,0.8992 0.2397,0.7092 0.013,0.2533 -0.152,0.2028 -4.471,3.5204 -0.5956,0.4181 -3.8754,2.0516 -1.5961,0.8233 -0.7719,0.2661 -0.4818,0.177 -0.6214,0.4178 -0.709,0.6842 -0.1141,0.2407 -0.4299,2.3931 -0.089,0.279 -0.1395,0.2024 -1.1901,0.9246 -0.5952,0.4431 -0.6214,0.4181 -1.2541,0.8233 -0.2532,0.1263 -0.3799,0.2786 -0.2533,0.456 -0.038,0.279 0.6074,3.4317 0.7226,3.9132 0.4686,2.7865 -1.9384,7.307 -0.1009,0.2153 -4.5722,5.9018 -0.3552,0.3419 -0.2408,0.1012 -0.5698,0.076 -3.2426,0.7722 -0.024,3.6599 1.0127,1.7479 0.9247,1.5576 0.7222,1.406 -0.038,0.5951 -0.1391,1.6084 -0.1524,0.5573 -0.1012,0.2403 -0.6961,1.0262 -0.1141,0.2407 -0.1775,0.5568 -0.038,0.3041 0.077,0.5067 0.088,0.2279 0.7859,1.1652 0.6585,0.7218 0.1646,0.1645 2.4567,0.5447 0.3674,0.025 0.8864,-0.1015 0.8495,-0.1774 1.0764,0.076 0.3291,0.063 0.5823,0.1774 0.3796,0.2787 0.1652,0.1774 1.8619,2.1402 0.3291,4.5087 0.013,0.2532 -0.05,0.3162 -0.2157,0.5068 -3.0398,5.0784 -0.1391,0.2024 -0.215,0.1649 -0.2032,0.1141 -0.5698,0.1012 -1.7478,-0.063 -0.9121,-0.2153 -1.1529,-0.3548 -0.6582,-0.152 -0.3674,-0.038 -1.3546,0.013 -0.5073,0.1646 -0.8199,0.9438 -0.4881,0.034 -6.4543,0.4496 -7.0471,0.4953 -8.0528,0.5721 -9.1956,0.6713 -9.1831,0.6838 -13.7807,1.0383 -15.2686,1.1933 -11.7946,0.9219 -0.6245,0.05 -9.0311,0.7227 -9.1702,0.7471 -8.2587,0.7093 -1.235,0.061 -0.4996,-1.3903 -0.9775,-1.7957 -1.2221,-2.3888 -0.9167,-0.7776 -0.4999,-0.3889 0.055,-0.6388 0.5281,-0.056 1.1664,1.0555 0.9925,2.4698 0.4808,0.2278 0.9379,0.1266 0.3037,-0.063 0.089,-0.4939 -0.038,-0.2786 -0.1385,-0.4939 -0.7222,-1.2536 -0.4314,-0.5448 -0.1642,-0.1516 -2.0518,-1.6971 -0.4439,-0.2532 -0.2407,-0.089 -0.3034,-0.013 -0.4181,0.2407 -0.2025,0.1649 -0.2661,0.3923 -0.2154,0.4307 -0.1642,0.4939 -0.025,0.2661 -0.013,0.3162 -0.076,0.7859 -0.5556,0.1944 -0.639,-1.3332 0.1176,-0.964 0.3826,-2.8133 -1.028,-2.6942 0.8478,-0.85 0.4432,-0.5447 0.1013,-0.2153 0.064,-0.2657 -0.076,-0.8741 -0.8106,-3.6092 -0.1899,-0.7471 -2.1792,-5.4712 -0.4432,-0.8737 -0.494,-0.7855 -3.1532,-4.6728 -3.2551,-3.7994 -0.6464,-0.6713 -6.2442,-4.5842 -1.8493,-1.2665 -4.6481,-3.1409 -3.8257,-2.4568 -0.5068,-0.2153 -0.2902,-0.076 -0.7483,-0.076 -0.8481,-0.2403 -1.1529,-0.6331 -0.8614,-0.5572 -0.8488,-0.5826 -0.7848,-0.608 -0.3799,-0.3291 -1.0137,-1.0386 -0.5194,-0.4686 -0.5695,-0.4685 -1.7234,-1.3806 -0.7849,-0.608 -0.7211,-0.3544 -0.8502,-0.2661 -3.8369,-0.8234 -0.3043,0.051 -1.33,0.4814 -0.5065,0.1899 -0.2025,0.1392 -0.026,0.3165 0.081,0.4052 0.02,0.1016 0.051,0.8108 -0.1015,0.2407 -0.1642,0.1771 -0.2032,0.1394 -0.5698,0.1263 -0.6833,-0.1009 -0.5837,-0.1648 -3.3182,-1.0258 -0.4306,-0.2786 -0.028,-0.026 -0.3263,-0.3036 -0.279,-0.3548 -0.1266,-0.2025 -0.19,-0.4431 0.063,-0.279 0.1266,-0.2149 0.8356,-0.8484 0.5573,-0.8108 0.089,-0.5823 -0.1137,-0.5068 -1.4437,-3.0523 -0.2279,-0.4177 -0.4056,-0.6077 -1.0009,-1.3044 -0.7601,-0.912 -1.7228,-1.9757 -0.7469,-0.6334 -0.4306,-0.2658 -0.5573,-0.2153 -0.6836,-0.013 -4.2432,0.2911 -1.9502,0.152 -2.4957,0.2912 -0.9247,0.1395 -0.3041,0.076 -0.2024,0.1141 -0.2025,0.1774 -2.192,-0.089 -4.5465,-1.1399 -1.1532,-0.3036 -0.8986,-0.2411 -6.7514,-2.1148 -1.9502,-0.95 -0.2154,-0.1266 -1.7102,-1.0508 -0.215,-0.1395 -0.1774,-0.1899 -1.4569,-2.4439 -0.1016,-0.1903 -2.5312,-2.6428 -4.7257,-3.373 -1.3932,-0.7214 -4.3322,-1.8616 -1.6208,-0.2915 -1.0266,-0.1395 -1.139,-0.05 -7.9293,-0.076 -9.0307,-1.8363 -0.6464,-0.1137 -5.1292,-0.4431 -0.685,0.012 -4.8634,0.2278 -5.0158,0.3545 -3.1532,0.4434 -1.0395,0.1138 -0.1896,-0.1899 -1.292,-2.0137 -0.2279,-0.6963 -0.2407,-0.4181 -0.2157,-0.1646 -0.1896,-0.1266 -2.1402,-1.1019 -0.494,-0.2404 -0.2536,-0.076 -0.3426,-0.038 -0.3538,0.013 -0.5452,0.2028 -0.6074,0.1012 -0.304,-0.076 -0.5065,-0.5196 -0.3041,-0.6581 -0.063,-0.2536 0.2021,-2.2922 z"
       id="path6876"
       inkscape:connector-curvature="0"
       style="fill:#ffffff;stroke:#000000;stroke-width:4;stroke-miterlimit:4;stroke-opacity:1;stroke-dasharray:none" />
    <path
       d="m 2990.8785,2076.7754 0.1907,0.152 -0.127,0.2153 -0.2787,0.089 -0.279,-0.1016 -0.2793,-0.1266 -0.6203,-0.4178 0.1649,-0.1774 0.2529,-0.1266 0.3169,0.076 z"
       id="path6878"
       inkscape:connector-curvature="0"
       style="fill:#ffffff;stroke:#000000;stroke-width:4;stroke-miterlimit:4;stroke-opacity:1;stroke-dasharray:none" />
    <path
       d="m 2999.3147,2077.9149 0.2783,0.1012 0.1517,0.1903 -0.1642,0.1773 -0.2157,0.1521 -0.2787,0.1137 -0.3162,-0.038 -0.2031,-0.152 -0.1016,-0.2279 0.051,-0.2789 0.3927,-0.05 z"
       id="path6880"
       inkscape:connector-curvature="0"
       style="fill:#ffffff;stroke:#000000;stroke-width:4;stroke-miterlimit:4;stroke-opacity:1;stroke-dasharray:none" />
    <path
       d="m 3095.2596,2261.3581 4.7751,-0.3924 1.2545,-0.5068 0.2657,-0.076 0.3417,0.038 1.6086,0.8863 0.1763,0.1648 -0.6453,1.0891 -0.1642,0.152 -0.2282,0.1138 -2.4442,0.7221 -5.4722,1.1781 -0.3034,0.05 -2.559,0.1395 -2.9254,-0.3169 -1.4826,-0.6963 -0.1389,-0.1903 -2.0643,-3.2672 -0.038,-0.5573 0.063,-0.2786 0.304,-0.051 1.9377,0.025 z"
       id="path6882"
       inkscape:connector-curvature="0"
       style="fill:#ffffff;stroke:#000000;stroke-width:4;stroke-miterlimit:4;stroke-opacity:1;stroke-dasharray:none" />
    <path
       d="m 3067.1541,2260.9657 0.2533,0.1012 0.4811,0.2658 0.1771,0.1645 0.2915,0.3548 -0.1649,0.1774 -0.2661,0.089 -2.9125,0.2786 -2.6728,-0.3798 -0.3291,-0.051 -0.4815,-0.2282 0.1267,-0.2532 0.2915,-0.3545 0.2275,-0.1774 0.431,-0.2403 0.6203,-0.1016 1.6845,-0.177 1.6461,0.3798 z"
       id="path6884"
       inkscape:connector-curvature="0"
       style="fill:#ffffff;stroke:#000000;stroke-width:4;stroke-miterlimit:4;stroke-opacity:1;stroke-dasharray:none" />
    <path
       d="m 3082.8089,2263.6757 0.1774,0.1899 0.075,1.1274 -0.05,0.2786 -3.0401,1.7983 -0.2651,0.076 -3.1035,0.5826 -0.6456,-0.1137 -1.0771,-0.3931 -0.8735,-0.5064 -0.3556,-0.3165 -0.9107,-1.127 -1.5453,-2.1277 1.8866,-0.4435 2.2668,-0.4682 3.7877,-0.4564 0.7598,0.5576 1.6086,1.5614 z"
       id="path6886"
       inkscape:connector-curvature="0"
       style="fill:#ffffff;stroke:#000000;stroke-width:4;stroke-miterlimit:4;stroke-opacity:1;stroke-dasharray:none" />
    <path
       d="m 3152.3967,2288.8274 1.9117,0.671 2.4445,1.3548 2.3938,2.3813 0.1903,0.4557 0.013,0.2407 -0.025,0.3165 -0.1902,0.4814 -0.2025,0.1774 -0.2658,0.051 -6.1429,-0.798 -0.2916,-0.076 -0.2156,-0.1395 -6.1304,-6.6739 -0.127,-0.19 -0.063,-0.2532 0.1645,-0.1774 0.3413,-0.013 1.6222,0.051 0.3412,0.025 0.2912,0.076 0.254,0.114 0.4306,0.3294 z"
       id="path6888"
       inkscape:connector-curvature="0"
       style="fill:#ffffff;stroke:#000000;stroke-width:4;stroke-miterlimit:4;stroke-opacity:1;stroke-dasharray:none" />
    <path
       d="m 3104.9367,2296.3877 0.2529,0.114 1.3804,0.7472 0.254,0.1391 0.1774,0.1395 0.519,0.4939 0.3549,0.3545 0.1391,0.1903 -0.088,0.2532 -0.2408,0.1141 -0.8356,0.2024 -0.5709,0.1012 -0.3802,-0.025 -1.0381,-0.1137 -0.9246,-0.1899 -0.5194,-0.2153 -0.43,-0.2786 -0.5326,-0.4815 -0.7215,-0.9499 -0.1392,-0.1899 -0.3301,-0.671 1.8364,0.063 1.1655,0.051 0.368,0.076 z"
       id="path6890"
       inkscape:connector-curvature="0"
       style="fill:#ffffff;stroke:#000000;stroke-width:4;stroke-miterlimit:4;stroke-opacity:1;stroke-dasharray:none" />
    <path
       d="m 3148.7106,2309.7613 0.2658,0.3927 0.6968,0.6964 1.0384,0.9882 3.1414,2.3931 2.0139,1.4059 -0.013,1.0004 -1.4309,0.6331 -0.279,0.1012 -0.2908,0.013 -2.9389,-1.6592 -0.4175,-0.2786 -0.3166,-0.3545 -1.8243,-2.7608 -1.6719,-2.5962 -1.0638,-2.1149 -0.089,-0.2281 0.025,-0.304 0.127,-0.2154 1.5714,0.152 0.3287,0.051 0.9365,2.2418 z"
       id="path6892"
       inkscape:connector-curvature="0"
       style="fill:#ffffff;stroke:#000000;stroke-width:4;stroke-miterlimit:4;stroke-opacity:1;stroke-dasharray:none" />
  </g>
  <path
     sodipodi:type="arc"
     style="fill:#000000;fill-opacity:0;stroke:#ff0000;stroke-width:6.84754848;stroke-linecap:round;stroke-linejoin:bevel;stroke-miterlimit:4;stroke-opacity:1;stroke-dasharray:none"
     id="path3051"
     sodipodi:cx="464.47366"
     sodipodi:cy="511.44427"
     sodipodi:rx="32.550716"
     sodipodi:ry="33.176689"
     d="m 497.02438,511.44427 a 32.550716,33.176689 0 1 1 -65.10143,0 32.550716,33.176689 0 1 1 65.10143,0 z"
     transform="matrix(0.87610934,0,0,0.87634274,-225.24681,-107.04483)" />
  <path
     sodipodi:type="arc"
     style="fill:#000000;fill-opacity:0;stroke:#ff0000;stroke-width:11.86323071;stroke-linecap:round;stroke-linejoin:bevel;stroke-miterlimit:4;stroke-opacity:1;stroke-dasharray:none"
     id="path3051-5"
     sodipodi:cx="464.47366"
     sodipodi:cy="511.44427"
     sodipodi:rx="32.550716"
     sodipodi:ry="33.176689"
     d="m 497.02438,511.44427 a 32.550716,33.176689 0 1 1 -65.10143,0 32.550716,33.176689 0 1 1 65.10143,0 z"
     transform="matrix(0.50544772,0,0,0.50608132,-53.08424,81.559185)" />
</svg>
