<?xml version="1.0" encoding="UTF-8" standalone="no"?>
<svg
   xmlns:dc="http://purl.org/dc/elements/1.1/"
   xmlns:cc="http://creativecommons.org/ns#"
   xmlns:rdf="http://www.w3.org/1999/02/22-rdf-syntax-ns#"
   xmlns:svg="http://www.w3.org/2000/svg"
   xmlns="http://www.w3.org/2000/svg"
   xmlns:sodipodi="http://sodipodi.sourceforge.net/DTD/sodipodi-0.dtd"
   xmlns:inkscape="http://www.inkscape.org/namespaces/inkscape"
   width="26.85"
   height="26.843765"
   id="svg3198"
   version="1.1"
   inkscape:version="0.48.4 r9939"
   sodipodi:docname="MAHI.svg">
  <metadata
     id="metadata3211">
    <rdf:RDF>
      <cc:Work
         rdf:about="">
        <dc:format>image/svg+xml</dc:format>
        <dc:type
           rdf:resource="http://purl.org/dc/dcmitype/StillImage" />
        <dc:title>New Zealand</dc:title>
      </cc:Work>
    </rdf:RDF>
  </metadata>
  <defs
     id="defs3209" />
  <sodipodi:namedview
     pagecolor="#ffffff"
     bordercolor="#666666"
     borderopacity="1"
     objecttolerance="10"
     gridtolerance="10"
     guidetolerance="10"
     inkscape:pageopacity="0"
     inkscape:pageshadow="2"
     inkscape:window-width="1366"
     inkscape:window-height="750"
     id="namedview3207"
     showgrid="false"
     fit-margin-top="0"
     fit-margin-left="1.3"
     fit-margin-right="1.3"
     fit-margin-bottom="0"
     inkscape:zoom="29.527259"
     inkscape:cx="10.4875"
     inkscape:cy="9.851609"
     inkscape:window-x="0"
     inkscape:window-y="18"
     inkscape:window-maximized="1"
     inkscape:current-layer="g3202" />
  <!-- Created with SVG-edit - http://svg-edit.googlecode.com/ -->
  <title
     id="title3200">New Zealand</title>
  <g
     id="g3202"
     transform="translate(-28.45,-23.8125)">
    <title
       id="title3204">Layer 1</title>
    <path
       d="m 39.845923,23.875588 0,0.04388 0.203219,0 -0.203219,-0.04388 m 1.422565,0.482727 0.162578,0.307189 0.08131,0 c 0.04483,-0.217288 -0.04963,-0.291194 -0.243874,-0.307189 m -0.406453,0.219421 c 0.299676,0.22793 1.051686,0.912024 0.650322,1.272646 0.105034,0.24457 0.322474,0.58015 0.569024,0.658266 l 0.447091,-0.438847 -0.447091,0.658269 c 0.395641,0.300913 0.693032,0.742474 0.982222,1.153541 0.03484,0.0495 0.265047,0.459163 0.328661,0.239874 0.04299,-0.148156 -0.329752,-0.668401 -0.376052,-0.866802 0.256467,0.249436 0.250051,0.679329 0.650315,0.746032 l -0.203225,-0.351076 0.08129,-0.08777 0.203226,0.08777 -0.04066,-0.175536 0.121932,0.131651 0.162584,0 0,0.08777 c -0.138596,0.01154 -0.199193,0.0298 -0.243867,0.175536 l 0.203218,0.04388 0,0.04388 -0.203218,0.263306 0.162577,0.394957 c -0.149401,-0.188701 -0.246629,-0.333559 -0.487735,-0.351072 0.05543,0.220035 0.224563,0.382888 0.340604,0.570499 0.203872,0.329474 0.3289,1.153363 0.797448,1.097104 l -0.162578,0.17554 c 0.08535,0.323035 0.117666,0.728354 0.487734,0.65827 -0.0966,0.07514 -0.296577,0.105753 -0.364491,0.201954 -0.111294,0.157629 0.03406,0.257864 0.161274,0.236887 l 0.04066,0.263307 -0.325158,0.04388 c -0.03175,0.419798 -0.09876,1.171759 -0.447297,1.417815 -0.319302,0.225481 -1.265394,0.173212 -1.251533,0.776229 0.01047,0.455913 0.559274,0.460563 0.845127,0.569705 0.210339,0.08035 0.329871,0.29433 0.528712,0.398818 0.218463,0.114845 0.47839,0.08439 0.69079,0.204415 0.614674,0.347211 0.621057,1.039749 0.239446,1.591949 -0.225053,0.325663 -0.522571,0.546006 -0.752665,0.854027 -0.198547,0.265722 0.252045,0.286525 0.391288,0.286967 0.05271,0.326671 0.250497,0.06358 0.441123,0.126165 0.145022,0.0476 0.152542,0.267383 0.168548,0.400441 0.953406,-0.0092 1.556578,-0.987833 2.056588,-1.698936 0.259521,-0.369109 0.609107,-0.662782 0.869076,-1.029351 0.13526,-0.190764 0.134485,-0.403076 0.237116,-0.605034 0.08592,-0.169036 0.239433,-0.275284 0.332674,-0.440726 l -0.406446,-0.04388 c -0.06097,-0.933203 0.852857,-1.143715 1.544499,-0.96546 l 0.04065,0.351075 0.325158,-0.394953 C 50.04807,33.116219 50.16903,32.875512 50.16972,32.60857 l 0.650322,-0.351079 c -0.09331,-0.577522 0.117101,-1.154466 0.44709,-1.579836 l 0,-0.04388 c -0.461194,-0.359632 -1.105942,-0.436956 -1.569292,-0.01807 -0.188676,0.170533 -0.246544,0.403167 -0.503593,0.500066 -0.6369,0.240087 -1.28449,-0.290566 -1.869656,-0.483699 -0.284834,-0.094 -0.472001,0.0165 -0.690965,-0.261594 l 0.406449,0.175541 c -0.09433,-0.21837 -0.294996,-0.351034 -0.384136,-0.570498 -0.133475,-0.328872 -9.85e-4,-0.830686 -0.306829,-1.053225 l -0.162576,0.131656 0,-0.04388 0.243865,-0.131655 c -0.09763,-0.167069 -0.233494,-0.173473 -0.406447,-0.175536 -0.04429,-0.326546 -0.252321,-0.388772 -0.528381,-0.394958 0.02776,0.18457 0.169535,0.236445 0.2203,0.399519 0.04454,0.143284 -0.0612,0.281128 -0.0078,0.426821 0.0514,0.140125 0.217688,0.264976 0.165086,0.436254 -0.03186,0.103648 -0.154811,0.144248 -0.231225,0.06943 -0.107455,-0.105281 -0.04618,-0.295695 -0.175866,-0.396501 -0.107135,-0.08329 -0.257115,-0.04757 -0.377029,-0.09817 -0.378563,-0.159783 -0.886413,-0.644573 -0.447091,-1.056779 -0.08629,-0.240481 -0.280001,-0.615301 -0.528385,-0.658263 -0.0019,-0.22561 -0.01004,-0.374815 -0.243866,-0.394957 l 0,-0.04388 0.243866,-0.04388 -0.08128,-0.175534 0.203218,-0.04388 C 44.130052,26.306225 43.812703,25.899021 43.42259,26.069817 l -0.162582,-0.175537 0,-0.04388 0.162582,0 c -0.104777,-0.350337 -0.719689,-0.45259 -1.016123,-0.526633 l 0,0.131655 -0.243872,0 0.162583,-0.131655 c -0.104083,-0.366359 -0.305324,0.01208 -0.40645,0.175541 -0.04617,-0.2798 -0.879668,-1.39679 -1.056764,-0.921574 m 3.292232,2.369756 0,0.175536 0.203221,0 -0.203221,-0.175536 m 1.747723,1.184874 c 0.0229,-0.155393 -0.03951,-0.751955 -0.313812,-0.606655 -0.328049,0.17374 0.175179,0.548775 0.313812,0.606655 m -0.894182,-0.394956 c 0.07743,0.147755 0.142872,0.150696 0.284509,0.08777 l -0.284467,-0.08776 m -0.162581,0.526611 -0.08129,-0.17554 c -0.172572,0.107071 -0.09405,0.219819 0.08129,0.17554 m 1.381922,0.219421 c 0.06585,0.129069 0.109174,0.153551 0.243867,0.131651 l -0.0813,-0.175535 -0.162579,0.04388 m -1.300633,0.351077 0.284508,0.263301 0.121936,-0.307187 -0.406444,0.04388 m 2.519978,1.579831 -0.04066,0.04388 0,0.08777 0.04066,0.04388 0.08129,0 0.04065,-0.04388 0,-0.08777 -0.04065,-0.04388 -0.08129,0 m 0.894187,0.526613 0.203222,0.04388 -0.203222,-0.04388 m -7.722515,5.046697 0.04066,0.175535 c -0.268209,-0.04199 -0.811794,0.319523 -0.881257,0.614556 -0.05706,0.24242 0.07223,0.51257 -0.0024,0.744144 -0.079,0.244965 -0.379213,0.565101 -0.579556,0.697365 -0.168107,0.110995 -0.371291,0.07263 -0.514966,0.232421 -0.225212,0.250532 -0.21709,0.613106 -0.339835,0.915065 -0.17339,0.426567 -0.475427,0.795318 -0.8116,1.084919 -0.241502,0.20805 -0.587682,0.243076 -0.853536,0.418914 -0.406162,0.268662 -0.77001,0.708254 -1.180276,0.939911 -0.251274,0.141887 -0.555258,0.168351 -0.811319,0.313201 -0.244357,0.13829 -0.46566,0.382104 -0.733185,0.468208 -0.208304,0.06706 -0.444784,-0.03651 -0.646535,0.04875 -0.198235,0.08374 -0.324309,0.345192 -0.530585,0.456267 l 0.04063,0.131648 c -0.35357,0.02564 -0.508137,0.334804 -0.772411,0.542729 -0.181114,0.142485 -0.405881,0.204366 -0.446931,0.466611 -0.478385,0.03754 -1.01659,0.770612 -0.284516,0.877689 l 0,0.04388 -0.284515,0 0.08129,0.175534 -0.650316,-0.21942 -0.203226,0.570494 0.528378,-0.08777 0,0.04388 c -0.161294,0.06579 -0.459187,0.246503 -0.121933,0.307185 l 0,0.04388 -0.812893,0.08777 0.04064,0.438843 0.284514,-0.08777 -0.08129,0.21942 0.243873,0 c -0.282156,0.458853 0.604073,0.288452 0.853541,0.343262 0.265946,0.05842 0.408885,-0.203975 0.650481,-0.160387 0.247768,0.04471 0.247165,0.329303 0.449446,0.403422 0.15364,0.05629 0.327034,-0.05899 0.484609,-0.05557 0.163645,0.0035 0.327434,0.09308 0.488344,0.12753 l 0,0.08777 -0.243867,0.08777 0,0.08777 c 0.368937,0.13135 0.686011,0.05388 1.056765,0 0.07243,0.358457 0.524366,0.205599 0.772255,0.158652 0.675067,-0.127881 1.190928,-0.417834 1.69493,-0.926402 0.102106,-0.102996 0.139934,-0.252025 0.258377,-0.341293 0.258379,-0.194889 0.738353,0.01058 0.769889,-0.426911 l -0.284514,0.08777 c 0.224767,-0.555264 0.525179,-1.213174 0.975474,-1.579839 0.0096,-0.403023 0.01683,-0.91753 0.238513,-1.258328 0.144736,-0.222579 0.43335,-0.305833 0.655677,-0.396364 0.411654,-0.16764 0.775503,-0.433714 1.219345,-0.495642 0.02947,-0.526252 0.685682,0.07321 0.934825,0.08777 l 0,-0.263307 0.04065,0 0.08128,0.263307 0.04065,0 c 0.507781,-0.451788 -0.145382,-0.586599 -0.487734,-0.658264 0.0094,-0.146086 -0.03926,-0.295427 -0.0047,-0.438841 0.128079,-0.532355 0.647346,-0.40452 0.956134,-0.729483 0.208618,-0.219467 0.285893,-0.571421 0.479441,-0.808175 0.434004,-0.530959 0.984862,-0.917928 1.333026,-1.534245 l -0.243874,-0.131658 -0.157616,-0.480789 0.604709,-0.572423 -0.04065,-0.04388 -1.016117,0.351073 0,-0.175538 -0.447098,-0.263305 c -0.18814,0.08422 -0.612348,0.498702 -0.80687,0.425414 -0.221194,-0.08339 -0.115758,-0.707634 -0.127954,-0.908141 -0.148601,-0.04248 -0.310726,0.05411 -0.446442,-0.0083 -0.160309,-0.0739 -0.260899,-0.31636 -0.07364,-0.427475 0.117871,-0.0699 0.309023,-0.0059 0.438795,-0.003 l 0,-0.08777 -0.812892,0 m 2.11353,0.789919 c 0.238834,-0.02659 0.389785,-0.137143 0.447091,-0.394961 -0.286579,0.0067 -0.387953,0.09168 -0.447091,0.394961 m -0.162584,0.13165 0,0.08777 c 0.166692,0.06811 0.297814,0.07891 0.406452,-0.08777 l -0.203189,-0.08777 -0.203232,0.08777 m 0.325164,0.263306 c 0.262729,0.393339 0.709008,-0.02253 0.934826,-0.219423 -0.27759,-0.200022 -0.703838,0.04218 -0.934826,0.219423 m -12.274733,7.635869 -0.04065,0.219421 0.243867,0.08777 -0.04066,-0.307189 -0.162577,0 m -0.690958,1.184873 0.487734,0 c -0.0256,-0.354887 -0.461838,-0.350635 -0.487734,0 z"
       id="path2703"
       style="fill:#ffffff;fill-opacity:1;stroke:#000000;stroke-width:0.15000002;stroke-miterlimit:4;stroke-opacity:1;stroke-dasharray:none"
       inkscape:connector-curvature="0" />
    <path
       style="fill:none;stroke:#ff0000;stroke-width:0.30000001;stroke-linecap:round;stroke-linejoin:bevel;stroke-miterlimit:4;stroke-dasharray:none"
       inkscape:connector-curvature="0"
       d="m 51.35578,33.780146 c 0,0.807786 -0.620829,1.462632 -1.386571,1.462632 -0.765819,0 -1.386648,-0.654665 -1.386648,-1.462314 0,-0.807648 0.620754,-1.462319 1.386571,-1.462319 0.765819,0 1.386648,0.655103 1.386648,1.462751 z"
       id="path4037" />
    <path
       style="fill:none;stroke:#ff0000;stroke-width:0.30000001;stroke-linecap:round;stroke-linejoin:bevel;stroke-miterlimit:4;stroke-dasharray:none"
       inkscape:connector-curvature="0"
       d="m 50.768532,33.737932 c 0,0.466282 -0.359689,0.84429 -0.803368,0.84429 -0.443696,0 -0.803373,-0.377902 -0.803373,-0.844112 0,-0.466219 0.359677,-0.84412 0.803373,-0.84412 0.44371,0 0.803368,0.378163 0.803368,0.844373 z"
       id="path4039" />
  </g>
</svg>
