<?xml version="1.0" encoding="UTF-8" standalone="no"?>
<!-- Created with Inkscape (http://www.inkscape.org/) -->

<svg
   xmlns:dc="http://purl.org/dc/elements/1.1/"
   xmlns:cc="http://creativecommons.org/ns#"
   xmlns:rdf="http://www.w3.org/1999/02/22-rdf-syntax-ns#"
   xmlns:svg="http://www.w3.org/2000/svg"
   xmlns="http://www.w3.org/2000/svg"
   xmlns:sodipodi="http://sodipodi.sourceforge.net/DTD/sodipodi-0.dtd"
   xmlns:inkscape="http://www.inkscape.org/namespaces/inkscape"
   id="svg3004"
   version="1.1"
   inkscape:version="0.48.4 r9939"
   width="25"
   height="25"
   sodipodi:docname="NSH.svg">
  <metadata
     id="metadata3010">
    <rdf:RDF>
      <cc:Work
         rdf:about="">
        <dc:format>image/svg+xml</dc:format>
        <dc:type
           rdf:resource="http://purl.org/dc/dcmitype/StillImage" />
        <dc:title></dc:title>
      </cc:Work>
    </rdf:RDF>
  </metadata>
  <defs
     id="defs3008" />
  <sodipodi:namedview
     pagecolor="#ffffff"
     bordercolor="#666666"
     borderopacity="1"
     objecttolerance="10"
     gridtolerance="10"
     guidetolerance="10"
     inkscape:pageopacity="0"
     inkscape:pageshadow="2"
     inkscape:window-width="1366"
     inkscape:window-height="750"
     id="namedview3006"
     showgrid="false"
     fit-margin-top="10.55"
     fit-margin-left="1"
     fit-margin-right="1"
     fit-margin-bottom="10.55"
     inkscape:zoom="256"
     inkscape:cx="22.913615"
     inkscape:cy="11.554029"
     inkscape:window-x="0"
     inkscape:window-y="18"
     inkscape:window-maximized="1"
     inkscape:current-layer="svg3004" />
  <path
     style="fill:#000000;fill-opacity:0;stroke:#000000;stroke-width:0.15000001;stroke-miterlimit:4;stroke-opacity:1;stroke-dasharray:none"
     d="m 1.3386384,12.078304 c 0.1383523,0.0087 0.3815931,0.03624 0.5405354,0.06112 0.1589418,0.02488 0.2955593,0.04523 0.3035943,0.04523 0.00804,0 0.014608,-0.233986 0.014608,-0.519969 l 0,-0.519967 0.3680614,-0.237838 c 0.2024347,-0.130807 0.4327326,-0.25751 0.5117741,-0.281557 0.1366768,-0.04158 0.275638,-0.04375 2.838643,-0.04424 l 2.694931,-5.11e-4 1.3817148,0.139486 1.3817146,0.139485 4.460924,0 4.460926,0 0.396776,-0.138939 0.396776,-0.138938 1.431231,-5.47e-4 1.431231,-5.46e-4 0,1.894673 0,1.894672 -1.423091,0 -1.423089,0 -0.41529,-0.139484 -0.415293,-0.139485 -4.45055,0 -4.450551,0 -1.3817146,0.139485 -1.3817148,0.139484 -2.694931,-5.11e-4 c -2.591868,-4.91e-4 -2.7006009,-0.0022 -2.8431834,-0.0456 -0.083324,-0.02534 -0.3074616,-0.148872 -0.5117733,-0.282059 l -0.363521,-0.236972 0,-0.519471 c 0,-0.285708 -0.00657,-0.519469 -0.014608,-0.519469 -0.00804,0 -0.1446526,0.02036 -0.3035943,0.04523 -0.1589423,0.02487 -0.4021831,0.05238 -0.5405354,0.06112 l -0.2515495,0.01588 0,-0.41284 0,-0.412839 0.2515495,0.01588 z m -0.017348,0.142078 c 0.071562,0.008 0.1925656,0.02827 0.2688979,0.045 0.132738,0.02909 0.1270679,0.02988 -0.1301119,0.01799 l -0.2688978,-0.01243 0,0.270702 0,0.270702 0.097717,0 c 0.1284266,0 0.4596373,-0.04008 0.7089763,-0.08579 l 0.1995048,-0.03657 0,-0.205346 c 0,-0.172005 -0.00986,-0.208784 -0.060719,-0.226514 -0.095158,-0.03317 -0.4900395,-0.09291 -0.7286261,-0.110224 -0.1846156,-0.0134 -0.2168531,-0.01026 -0.2168531,0.02108 0,0.02446 0.043686,0.04171 0.1301118,0.0514 z m 0.9931544,-0.942374 c 0.00713,0 0.081301,-0.02551 0.1648084,-0.05668 0.2096133,-0.07826 0.7240465,-0.174405 1.0240007,-0.191394 0.1373406,-0.0078 0.2666481,-0.02116 0.2873502,-0.02973 0.025021,-0.01036 4.834e-4,-0.07162 -0.0732,-0.182731 l -0.1108405,-0.167146 -0.1928198,10e-4 c -0.106051,5.77e-4 -0.2357589,0.01365 -0.2882398,0.02906 -0.1343821,0.03944 -0.8240373,0.50422 -0.8240373,0.555334 0,0.02323 0.00584,0.04224 0.012978,0.04224 z m 0.013044,0.975945 c 0.014312,-2.45e-4 0.3539043,-0.02109 0.7546488,-0.04632 0.6476638,-0.04078 1.0108127,-0.04589 3.2681811,-0.04605 l 2.5395552,-1.85e-4 0.9994877,0.06923 c 0.5497174,0.03808 1.1426694,0.07993 1.3176684,0.09299 0.199949,0.01493 1.950835,0.02375 4.711874,0.02375 3.879727,0 4.42189,-0.0043 4.634743,-0.03674 l 0.241051,-0.03674 0,-0.602572 0,-0.602573 -8.544012,9.4e-5 c -9.3693817,9e-5 -8.8697522,-0.0072 -9.4622194,0.137704 -0.1531579,0.03745 -0.3253883,0.09048 -0.3827342,0.117838 l -0.1042655,0.04975 0,0.44012 c 0,0.242066 0.01171,0.439917 0.026022,0.43967 z m 1.9616128,-0.917827 0.1461993,-0.18598 0.4489856,0 0.4489854,0 0.1526097,0.194377 c 0.091685,0.116779 0.1400042,0.202825 0.121034,0.215535 -0.043658,0.02925 -1.4405452,0.01512 -1.4537335,-0.0147 -0.00565,-0.01279 0.05551,-0.106939 0.13592,-0.209228 z m 1.191129,0.167779 c 0.00632,-0.0042 -0.038837,-0.07241 -0.1003575,-0.151484 L 5.2680163,11.20864 4.885091,11.208455 4.5021651,11.208269 4.3953,11.353566 l -0.1068656,0.145297 0.5901485,0.0063 c 0.3245819,0.0035 0.5953229,0.0029 0.6016469,-0.0013 z m -3.1700895,1.124744 c 0.041642,0.01097 1.2475159,0.07818 1.2594386,0.0702 0.019685,-0.01319 0.020825,-0.433229 0.00122,-0.446381 -0.014992,-0.01005 -1.149452,0.04723 -1.2259553,0.0619 -0.029003,0.0056 -0.04337,0.05862 -0.04337,0.160156 0,0.08351 0.0039,0.152867 0.00867,0.154124 z m 0.1734819,1.078767 c 0.255176,0.05144 0.8726276,0.120023 1.3444891,0.149353 0.2695079,0.01676 3.0875846,0.02483 8.6827979,0.02488 l 8.283788,6.7e-5 0,-0.602573 0,-0.602572 -0.241051,-0.03674 c -0.212844,-0.03244 -0.753868,-0.03673 -4.623309,-0.0367 l -4.382256,4.7e-5 -1.332568,0.09295 -1.3325688,0.09295 -2.5534389,-2.98e-4 C 4.0459379,12.788514 3.7008934,12.78368 3.0647893,12.7423 2.6735863,12.7169 2.3418011,12.69612 2.3274888,12.69611 c -0.014312,-10e-6 -0.026022,0.219265 -0.026022,0.487279 l 0,0.487298 0.1821565,0.03672 z m 2.4027322,-0.337132 c 0.4667675,0 0.7459747,0.0085 0.7459747,0.02291 0,0.0126 -0.066146,0.112268 -0.1469897,0.221488 l -0.1469892,0.198583 -0.4515253,-0.0064 -0.4515249,-0.0064 -0.1462696,-0.18598 C 4.2085822,13.51214 4.1422252,13.415372 4.1415708,13.39939 4.1406522,13.37702 4.3120714,13.37033 4.8863549,13.37033 z m -0.486456,0.238287 0.1019022,0.133674 0.3867724,0 0.3867726,0 0.1032272,-0.139545 c 0.056775,-0.07675 0.09546,-0.144749 0.085968,-0.151109 -0.028227,-0.01891 -1.1922523,-0.01311 -1.1788504,0.0059 0.00677,0.0096 0.058162,0.07759 0.1142086,0.15111 z m -1.7427937,0.402172 c 0.1956015,0.124702 0.4058813,0.240841 0.4672884,0.258086 0.061406,0.01724 0.195916,0.03136 0.298909,0.03136 l 0.1872601,0 0.1123689,-0.17268 c 0.061802,-0.09497 0.1020229,-0.183896 0.089378,-0.197603 -0.012644,-0.01371 -0.088426,-0.02498 -0.1684026,-0.02505 -0.1852487,-1.59e-4 -0.8898082,-0.07998 -1.1169142,-0.126539 -0.3185703,-0.06531 -0.3083956,-0.04713 0.1301119,0.232429 z m 3.3395375,-1.291389 2.3073169,0 0,-0.244099 0,-0.244099 -2.3073169,0 -2.3073167,0 0,0.244099 0,0.244099 2.3073167,0 z m -2.1502555,-1.865614 0.094885,0.145297 0.6402412,0 c 0.3521326,0 0.6350368,-0.0084 0.6286755,-0.0187 -0.00636,-0.01028 -0.056845,-0.08874 -0.112186,-0.174356 l -0.1006205,-0.155657 -0.6403921,0 c -0.4984904,0 -0.6365249,0.0064 -0.6229398,0.02906 0.0096,0.01599 0.06015,0.09444 0.1123368,0.174355 z m 0.5143544,3.446445 0.6367188,0 0.1096541,-0.16634 c 0.060309,-0.09149 0.1055713,-0.168657 0.1005812,-0.171489 -0.00499,-0.0028 -0.2882105,-0.01008 -0.6293797,-0.01611 l -0.6203075,-0.01098 -0.1147314,0.165021 c -0.063102,0.09076 -0.1157493,0.172867 -0.1169931,0.182457 -0.00125,0.0096 0.2842618,0.01744 0.6344573,0.01744 z m 0.8735054,-3.446445 0.094885,0.145297 1.6117431,0 c 0.8864587,0 1.6065387,-0.0084 1.6001777,-0.0187 -0.00633,-0.01028 -0.056841,-0.08874 -0.1121867,-0.174357 l -0.1006202,-0.155656 -1.6118939,0 c -1.2756919,0 -1.6082537,0.0061 -1.5944417,0.02906 0.0096,0.01599 0.06015,0.09444 0.1123369,0.174356 z m 1.4858169,3.446445 1.6081818,0 0.1006202,-0.155657 c 0.055344,-0.08561 0.1058257,-0.164071 0.1121867,-0.174356 0.00633,-0.01028 -0.7135286,-0.0187 -1.5997548,-0.0187 l -1.6113197,0 -0.106215,0.156921 c -0.058418,0.08631 -0.1074898,0.164766 -0.1090479,0.174356 -0.00156,0.0096 0.7208488,0.01744 1.6053487,0.01744 z m 1.9742307,-1.580878 c 0.1574355,-2.4e-5 0.8873635,-0.04185 1.6220621,-0.09294 l 1.335815,-0.0929 4.319713,5.52e-4 c 4.156135,5.24e-4 4.330881,0.0023 4.614635,0.04585 0.264683,0.04066 0.432755,0.04536 1.639407,0.0459 l 1.34449,5.98e-4 0,-0.151109 0,-0.151109 -1.34449,5.99e-4 c -1.206652,5.38e-4 -1.374724,0.0052 -1.639407,0.0459 -0.283767,0.04359 -0.458299,0.04532 -4.614635,0.04578 l -4.319713,4.8e-4 -1.335815,-0.09261 c -0.7346986,-0.05094 -1.4646266,-0.09274 -1.6220621,-0.09288 l -0.2862456,-2.65e-4 0,0.244099 0,0.244098 0.2862456,-4.6e-5 z m -0.1291842,-1.865567 0.094884,0.145297 6.1211193,0 c 6.828407,0 6.244953,-0.0152 6.416756,0.16715 0.112896,0.119828 0.231952,0.352197 0.289557,0.565147 0.05794,0.214204 0.06402,0.226316 0.105044,0.209329 0.02209,-0.0092 0.03495,-0.249208 0.03495,-0.652404 l 0,-0.637934 -0.243409,0 c -0.228226,0 -0.269314,0.0087 -0.6587,0.139484 l -0.415291,0.139486 -4.438962,0 -4.438965,0 -1.381717,-0.139486 C 8.5963004,10.64302 8.4237722,10.631095 8.4527731,10.679384 c 0.0096,0.01599 0.060154,0.09444 0.1123373,0.174356 z m -0.0094,3.446445 c 0.06213,0 0.7347279,-0.06277 1.4946713,-0.139486 l 1.381714,-0.139485 4.438964,0 4.438964,0 0.415291,0.139485 c 0.389651,0.130874 0.430352,0.139486 0.659248,0.139486 l 0.243957,0 -0.0092,-0.645119 c -0.0054,-0.376545 -0.02262,-0.645118 -0.04141,-0.645118 -0.01769,0 -0.05809,0.08893 -0.08977,0.197604 -0.111933,0.384119 -0.254181,0.603622 -0.447837,0.691065 l -0.11706,0.05286 -6.129765,0 -6.1297668,0 -0.1071494,0.15692 c -0.058929,0.08631 -0.1086446,0.164768 -0.1104716,0.174357 -0.0018,0.0096 0.047505,0.01744 0.1096329,0.01744 z m 12.6407673,-2.045781 0.297682,0 -0.02315,-0.156922 c -0.03344,-0.226647 -0.136885,-0.554886 -0.222682,-0.706604 -0.0862,-0.152435 -0.267353,-0.330135 -0.316006,-0.309988 -0.02012,0.0084 -0.03352,0.245778 -0.03352,0.593697 l 0,0.579817 0.297681,0 z M 20.9516,13.858482 c 0.07222,0 0.242051,-0.185569 0.327763,-0.358143 0.0809,-0.162878 0.156562,-0.419238 0.191057,-0.647312 l 0.02373,-0.156921 -0.297684,0 -0.297681,0 0,0.581188 c 0,0.504851 0.0069,0.581188 0.05281,0.581188 z m 0.628106,-1.676727 c 0.02033,0.06808 0.03123,0.07265 0.173482,0.07265 l 0.151797,0 0,-0.803656 0,-0.803656 -0.07806,0.0074 -0.07807,0.0074 -0.0092,0.641405 -0.0092,0.641406 -0.0862,0.05427 c -0.09281,0.05842 -0.09759,0.07194 -0.06451,0.182735 z m 0.06406,0.769449 0.08773,0.05522 0,0.646878 0,0.646878 0.08674,0 0.08674,0 0,-0.80204 0,-0.80204 -0.150351,0 c -0.0827,0 -0.15768,0.0049 -0.166636,0.01091 -0.0089,0.006 -0.01981,0.05097 -0.02413,0.09994 -0.0061,0.0693 0.01161,0.101264 0.0799,0.14425 z m 1.198023,-0.6968 0.832716,0 0,0.220851 0,0.220851 -0.832716,0 -0.832717,0 0,0.802039 0,0.80204 0.919459,0 0.919456,0 0,-1.82493 0,-1.82493 -0.896326,0 c -0.492981,0 -0.906735,0.007 -0.919458,0.0155 -0.01271,0.0085 -0.02313,0.369441 -0.02313,0.802039 l 0,0.786541 0.832717,0 z m -0.636104,-1.518838 c 0.01272,-0.0085 0.34841,-0.0155 0.745974,-0.0155 l 0.722844,0 0,0.70905 0,0.70905 -0.745974,0 -0.745975,0 0,-0.693552 c 0,-0.381453 0.0104,-0.700525 0.02313,-0.709049 z m 0.722844,0.542442 0.641884,0 0,-0.244099 0,-0.2441 -0.618754,0 c -0.340315,0 -0.629164,0.007 -0.641885,0.0155 -0.01272,0.0085 -0.02313,0.118369 -0.02313,0.244099 l 0,0.228601 0.641886,0 z m 0,0.790416 0.641884,0 0,-0.360337 0,-0.360337 -0.618754,0 c -0.340315,0 -0.629164,0.007 -0.641885,0.0155 -0.01272,0.0085 -0.02313,0.170676 -0.02313,0.360337 l 0,0.344838 0.641886,0 z m -0.72335,0.759758 c 0.013,-0.0087 0.348917,-0.01584 0.746481,-0.01584 l 0.722844,0 0,0.709512 0,0.709511 -0.737301,-0.0062 -0.737301,-0.0062 -0.0092,-0.6874 c -0.0051,-0.37807 0.0015,-0.694527 0.01445,-0.703237 z m 0.723351,0.774577 0.641884,0 0,-0.360336 0,-0.360337 -0.641884,0 -0.641886,0 0,0.360337 0,0.360336 0.641886,0 z m 0,0.55794 0.641884,0 0,-0.244098 0,-0.244099 -0.641884,0 -0.641886,0 0,0.244099 0,0.244098 0.641886,0 z"
     id="path3818"
     inkscape:connector-curvature="0" />
  <path
     style="fill:#ffffff;fill-opacity:1;stroke:#ff0000;stroke-width:0.15000001;stroke-linecap:round;stroke-linejoin:bevel;stroke-miterlimit:4;stroke-opacity:0;stroke-dasharray:none"
     d="m 1.2735809,12.54303 0,-0.193114 0.037109,0.0047 c 0.02041,0.0026 0.116211,0.0069 0.2128906,0.0096 l 0.1757813,0.0049 0.061682,-0.04505 0.061682,-0.04505 0.069745,0.0099 c 0.03836,0.0054 0.1018653,0.01752 0.1411238,0.02686 0.06262,0.01491 0.072042,0.01937 0.076779,0.03638 0.00631,0.02267 0.00892,0.273298 0.00284,0.273298 -0.00226,0 -0.061716,0.0104 -0.1321148,0.02312 -0.2051601,0.03706 -0.4479477,0.06843 -0.6391588,0.08259 l -0.068359,0.0051 0,-0.193114 z"
     id="path4051"
     inkscape:connector-curvature="0" />
  <path
     style="fill:#ffffff;fill-opacity:1;stroke:#ff0000;stroke-width:0.15000001;stroke-linecap:round;stroke-linejoin:bevel;stroke-miterlimit:4;stroke-opacity:0;stroke-dasharray:none"
     d="m 2.6095184,11.090336 c 0,-0.0061 0.2288557,-0.157475 0.3398438,-0.224861 0.1971883,-0.119722 0.2180242,-0.125687 0.4729659,-0.135414 l 0.1370283,-0.0052 0.068254,0.103709 c 0.03754,0.05704 0.067283,0.104562 0.066097,0.105605 -0.00119,10e-4 -0.056649,0.006 -0.1232511,0.0111 -0.2780133,0.02114 -0.5782319,0.06518 -0.828125,0.121482 -0.1272385,0.02867 -0.1328125,0.02966 -0.1328125,0.0236 z"
     id="path4053"
     inkscape:connector-curvature="0" />
  <path
     style="fill:#ffffff;fill-opacity:1;stroke:#ff0000;stroke-width:0.15000001;stroke-linecap:round;stroke-linejoin:bevel;stroke-miterlimit:4;stroke-opacity:0;stroke-dasharray:none"
     d="m 10.382956,12.187157 c -0.105274,-0.0078 -0.4698083,-0.03374 -0.8100773,-0.05756 l -0.618671,-0.0433 -2.334454,-7e-6 c -1.3711951,-5e-6 -2.4762946,0.0033 -2.678204,0.008 -0.3556102,0.0083 -0.7376338,0.02607 -1.2499827,0.0581 -0.1632717,0.01021 -0.2986233,0.0168 -0.3007813,0.01464 -0.00216,-0.0022 -0.00507,-0.170544 -0.00648,-0.374199 l -0.00255,-0.370283 0.041617,-0.0184 c 0.1233558,-0.05455 0.5154595,-0.161095 0.6939604,-0.188565 0.1692838,-0.02605 0.4454768,-0.04101 0.8973403,-0.04859 l 0.3074964,-0.0052 -0.088022,0.116519 c -0.1145258,0.151603 -0.1378217,0.188666 -0.160505,0.255357 -0.010345,0.03042 -0.01881,0.05782 -0.01881,0.06089 0,0.0031 0.027298,0.01295 0.060662,0.02196 0.08921,0.02407 0.3516887,0.03397 0.9315259,0.03514 0.3770025,7.59e-4 0.5027007,-0.0014 0.5515523,-0.0096 0.063255,-0.01053 0.063275,-0.01055 0.079288,-0.04351 0.033178,-0.06829 -0.00502,-0.147027 -0.1759232,-0.362618 -0.031788,-0.0401 -0.05545,-0.07526 -0.052581,-0.07813 0.00287,-0.0029 1.1791413,-0.0061 2.6139396,-0.0072 l 2.6087236,-0.002 0,0.527423 0,0.527424 -0.04883,-10e-4 c -0.02685,-5.7e-4 -0.134961,-0.0075 -0.240234,-0.0153 z"
     id="path4055"
     inkscape:connector-curvature="0" />
  <path
     style="fill:#ffffff;fill-opacity:1;stroke:#ff0000;stroke-width:0.15000001;stroke-linecap:round;stroke-linejoin:bevel;stroke-miterlimit:4;stroke-opacity:0;stroke-dasharray:none"
     d="M 3.1915497,12.605201 C 2.8368325,12.585752 2.457111,12.562379 2.4200653,12.557714 l -0.037109,-0.0047 0,-0.08102 c 0,-0.04456 0.00264,-0.08105 0.00586,-0.08109 0.00322,-3.7e-5 0.044531,-0.0034 0.091797,-0.0074 0.1867607,-0.01589 0.8056766,-0.04716 0.934485,-0.04721 l 0.082922,-3.1e-5 0.00497,0.03625 c 0.00631,0.04607 0.00626,0.124636 -1.233e-4,0.192269 l -0.00498,0.05273 -0.059417,-10e-4 c -0.032679,-5.7e-4 -0.1437922,-0.0057 -0.2469172,-0.01132 z"
     id="path4057"
     inkscape:connector-curvature="0" />
  <path
     style="fill:#ffffff;fill-opacity:1;stroke:#ff0000;stroke-width:0.15000001;stroke-linecap:round;stroke-linejoin:bevel;stroke-miterlimit:4;stroke-opacity:0;stroke-dasharray:none"
     d="m 7.143372,13.797295 c -0.9202477,-0.0022 -1.675395,-0.0062 -1.6781053,-0.0089 -0.00271,-0.0027 0.028037,-0.05017 0.068328,-0.105468 0.1306318,-0.179288 0.200924,-0.29328 0.200924,-0.325834 0,-0.01842 -0.091131,-0.04628 -0.171875,-0.05255 -0.04082,-0.0032 -0.2728515,-0.0081 -0.515625,-0.01102 -0.4542279,-0.0054 -0.8417062,0.0029 -0.9075904,0.0195 -0.023833,0.006 -0.045722,0.01908 -0.065053,0.03888 l -0.029134,0.02984 0.02772,0.05735 c 0.015246,0.03154 0.072775,0.116569 0.1278415,0.188942 0.055067,0.07237 0.104741,0.137985 0.1103873,0.145803 0.00988,0.01367 0.00199,0.01408 -0.2070312,0.0106 -0.4215153,-0.007 -1.1352505,-0.07399 -1.5337036,-0.143917 -0.075195,-0.0132 -0.1484597,-0.02603 -0.1628098,-0.02853 l -0.026091,-0.0045 0.00265,-0.408374 c 0.00146,-0.224605 0.00514,-0.410861 0.00819,-0.413901 0.00304,-0.003 0.1840975,0.0054 0.4023438,0.01881 0.5520686,0.03386 0.6582026,0.03933 0.9475926,0.04882 0.153835,0.005 1.2176696,0.0098 2.6992188,0.01204 l 2.4453125,0.0037 0.84375,-0.05883 c 0.4640628,-0.03236 0.8657228,-0.061 0.8925778,-0.06364 l 0.04883,-0.0048 0,0.531871 0,0.531872 -0.9277339,-0.0019 c -0.5102539,-0.001 -1.6806643,-0.0037 -2.6009121,-0.0059 z"
     id="path4059"
     inkscape:connector-curvature="0" />
  <path
     style="fill:#ffffff;fill-opacity:1;stroke:#ff0000;stroke-width:0.15000001;stroke-linecap:round;stroke-linejoin:bevel;stroke-miterlimit:4;stroke-opacity:0;stroke-dasharray:none"
     d="M 3.2541843,14.210747 C 3.1691334,14.2009 3.1364131,14.190236 3.039555,14.140798 2.9156128,14.077536 2.5878917,13.878549 2.5955439,13.871202 c 0.00124,-0.0012 0.030381,0.0028 0.064756,0.0088 0.182255,0.03209 0.7362583,0.0923 0.9351445,0.101642 l 0.1148321,0.0054 -0.012426,0.02422 c -0.00683,0.01332 -0.038545,0.06553 -0.070469,0.116022 l -0.058044,0.0918 -0.1303,-0.001 c -0.071665,-5.65e-4 -0.1548489,-0.0039 -0.184853,-0.0073 z"
     id="path4061"
     inkscape:connector-curvature="0" />
  <path
     style="fill:#ffffff;fill-opacity:1;stroke:#ff0000;stroke-width:0.15000001;stroke-linecap:round;stroke-linejoin:bevel;stroke-miterlimit:4;stroke-opacity:0;stroke-dasharray:none"
     d="m 3.8809004,14.21257 c -0.011852,-0.0047 -0.00554,-0.01742 0.045257,-0.09125 0.032467,-0.04719 0.063751,-0.09054 0.069521,-0.09634 0.00879,-0.0088 0.094555,-0.009 0.5289621,-8.52e-4 0.2851597,0.0053 0.5244201,0.01184 0.5316897,0.01446 0.01109,0.004 0.00418,0.0189 -0.042969,0.09259 l -0.056186,0.08783 -0.53125,-4.95e-4 c -0.2921875,-2.72e-4 -0.5374485,-0.0029 -0.5450243,-0.0059 z"
     id="path4063"
     inkscape:connector-curvature="0" />
  <path
     style="fill:#ffffff;fill-opacity:1;stroke:#ff0000;stroke-width:0.15000001;stroke-linecap:round;stroke-linejoin:bevel;stroke-miterlimit:4;stroke-opacity:0;stroke-dasharray:none"
     d="m 4.4906937,13.59607 -0.052349,-0.06836 0.247718,-0.0053 c 0.1362449,-0.0029 0.337991,-0.0029 0.4483247,0 l 0.2006066,0.0053 -0.051075,0.06836 -0.051075,0.06836 -0.3448998,0 -0.3448999,0 -0.052349,-0.06836 z"
     id="path4065"
     inkscape:connector-curvature="0" />
  <path
     style="fill:#ffffff;fill-opacity:1;stroke:#ff0000;stroke-width:0.15000001;stroke-linecap:round;stroke-linejoin:bevel;stroke-miterlimit:4;stroke-opacity:0;stroke-dasharray:none"
     d="m 3.7657684,12.476929 0,-0.164062 2.2304688,0 2.2304687,0 0,0.164062 0,0.164063 -2.2304687,0 -2.2304688,0 0,-0.164063 z"
     id="path4067"
     inkscape:connector-curvature="0" />
  <path
     style="fill:#ffffff;fill-opacity:1;stroke:#ff0000;stroke-width:0.15000001;stroke-linecap:round;stroke-linejoin:bevel;stroke-miterlimit:4;stroke-opacity:0;stroke-dasharray:none"
     d="m 10.382956,12.187229 c -0.105274,-0.0078 -0.4708985,-0.03374 -0.8125001,-0.05758 l -0.6210937,-0.04335 -2.3047747,6e-6 c -2.7618534,6e-6 -2.9097755,0.0024 -3.8866316,0.06228 -0.1998046,0.01225 -0.365039,0.02054 -0.3671875,0.01842 -0.00215,-0.0021 -0.00506,-0.170567 -0.00646,-0.374325 l -0.00256,-0.370469 0.037711,-0.01646 c 0.13195,-0.05759 0.5126902,-0.161543 0.6939614,-0.189476 0.1736864,-0.02676 0.4453161,-0.0416 0.9019866,-0.04926 l 0.3082366,-0.0052 -0.015268,0.01987 c -0.1763888,0.229611 -0.2110062,0.281674 -0.2352655,0.353827 -0.010998,0.03271 -0.018446,0.06102 -0.016553,0.06291 0.00189,0.0019 0.03051,0.01036 0.063592,0.01883 0.077462,0.01981 0.2892003,0.02945 0.7901463,0.03598 0.3466654,0.0045 0.6619942,-0.003 0.725366,-0.01719 0.029336,-0.0066 0.051911,-0.04445 0.051948,-0.08713 4.69e-5,-0.05521 -0.04084,-0.125281 -0.1712939,-0.293536 -0.039498,-0.05094 -0.06955,-0.09489 -0.066783,-0.09766 0.00277,-0.0028 1.1789581,-0.0059 2.6137564,-0.0071 l 2.6087237,-0.002 0,0.527423 0,0.527424 -0.04883,-10e-4 c -0.02685,-5.59e-4 -0.134961,-0.0074 -0.240234,-0.01525 z"
     id="path4069"
     inkscape:connector-curvature="0" />
  <path
     style="fill:#ffffff;fill-opacity:1;stroke:#ff0000;stroke-width:0.15000001;stroke-linecap:round;stroke-linejoin:bevel;stroke-miterlimit:4;stroke-opacity:0;stroke-dasharray:none"
     d="m 7.127747,13.797296 c -0.911654,-0.0022 -1.6598686,-0.0063 -1.6626991,-0.0091 -0.00283,-0.0028 0.019059,-0.03799 0.048644,-0.07813 0.1342344,-0.182116 0.2207962,-0.321334 0.2208201,-0.355146 3.3e-6,-0.0048 -0.028998,-0.01839 -0.064447,-0.03018 L 5.605612,13.30329 5.1602995,13.29519 c -0.4662524,-0.0084 -0.9606817,2.88e-4 -1.0224733,0.01804 -0.016657,0.0048 -0.044098,0.02159 -0.060979,0.03736 l -0.030694,0.02866 0.012853,0.03125 c 0.019405,0.04718 0.052724,0.0975 0.1517856,0.229241 0.049573,0.06593 0.094802,0.126339 0.1005094,0.134251 0.010027,0.0139 0.00305,0.01426 -0.2070313,0.01059 -0.4240963,-0.0074 -1.1362587,-0.0743 -1.5338144,-0.14407 -0.075195,-0.0132 -0.1484597,-0.02603 -0.1628098,-0.02853 l -0.026091,-0.0045 0.00265,-0.408374 c 0.00146,-0.224605 0.00514,-0.410856 0.00817,-0.41389 0.00304,-0.003 0.1858491,0.0055 0.40625,0.01888 0.588296,0.03582 0.6643965,0.03973 0.9476039,0.04864 0.1499781,0.0047 1.2789712,0.0098 2.6992187,0.01204 l 2.4414063,0.0039 0.84375,-0.0589 c 0.4640624,-0.0324 0.8657224,-0.06106 0.8925774,-0.06369 l 0.04883,-0.0048 0,0.531871 0,0.531872 -0.9433585,-0.0019 c -0.5188477,-0.001 -1.6892581,-0.0037 -2.6009121,-0.0059 z"
     id="path4071"
     inkscape:connector-curvature="0" />
  <path
     style="fill:#ffffff;fill-opacity:1;stroke:#ff0000;stroke-width:0.15000001;stroke-linecap:round;stroke-linejoin:bevel;stroke-miterlimit:4;stroke-opacity:0;stroke-dasharray:none"
     d="m 4.6628913,11.422428 -0.2161585,-0.0041 0.047895,-0.06445 0.047895,-0.06445 0.3443302,0 0.3443302,0 0.030964,0.04083 c 0.01703,0.02246 0.040937,0.0541 0.053125,0.07031 l 0.02216,0.02948 -0.2291915,-0.0018 c -0.1260553,-9.72e-4 -0.3264628,-0.0036 -0.4453499,-0.0059 l 0,0 z"
     id="path4073"
     inkscape:connector-curvature="0" />
  <path
     style="fill:#ffffff;fill-opacity:1;stroke:#ff0000;stroke-width:0.15000001;stroke-linecap:round;stroke-linejoin:bevel;stroke-miterlimit:4;stroke-opacity:0;stroke-dasharray:none"
     d="m 3.9267714,10.830445 -0.059181,-0.0918 0.09948,-0.005 c 0.054714,-0.0027 0.2986688,-0.0054 0.5421221,-0.0059 l 0.4426422,-8.91e-4 0.059165,0.0918 0.059165,0.0918 -0.1932137,0.0048 c -0.1062675,0.0026 -0.3502152,0.0053 -0.542106,0.0059 l -0.3488922,0.0011 -0.059181,-0.0918 z"
     id="path4075"
     inkscape:connector-curvature="0" />
  <path
     style="fill:#ffffff;fill-opacity:1;stroke:#ff0000;stroke-width:0.15000001;stroke-linecap:round;stroke-linejoin:bevel;stroke-miterlimit:4;stroke-opacity:0;stroke-dasharray:none"
     d="m 5.3180891,10.835643 -0.058255,-0.08918 0.043983,-0.0057 c 0.024191,-0.0031 0.7038409,-0.008 1.5103341,-0.01082 l 1.4663512,-0.0051 0.058101,0.08895 0.0581,0.08895 -0.043983,0.005 c -0.024191,0.0027 -0.7037713,0.0077 -1.5101793,0.01106 l -1.4661965,0.0061 -0.058255,-0.08918 z"
     id="path4077"
     inkscape:connector-curvature="0" />
  <path
     style="fill:#ffffff;fill-opacity:1;stroke:#ff0000;stroke-width:0.15000001;stroke-linecap:round;stroke-linejoin:bevel;stroke-miterlimit:4;stroke-opacity:0;stroke-dasharray:none"
     d="m 5.3927216,14.21327 c -0.074121,-0.0013 -0.1347657,-0.0043 -0.1347657,-0.0067 0,-0.0024 0.025488,-0.04267 0.056641,-0.08944 l 0.056641,-0.08503 1.3046875,8.1e-4 c 0.7175781,4.46e-4 1.3986808,0.003 1.5135616,0.0056 l 0.2088742,0.0048 -0.05597,0.08789 -0.05597,0.08789 -1.3794671,-0.0018 c -0.7587069,-9.66e-4 -1.4401115,-0.0028 -1.5142326,-0.0041 z"
     id="path4079"
     inkscape:connector-curvature="0" />
  <path
     style="fill:#ffffff;fill-opacity:1;stroke:#ff0000;stroke-width:0.15000001;stroke-linecap:round;stroke-linejoin:bevel;stroke-miterlimit:4;stroke-opacity:0;stroke-dasharray:none"
     d="m 8.6624828,10.844895 c -0.026684,-0.04318 -0.043176,-0.08384 -0.036649,-0.09037 0.010605,-0.0106 1.6796032,0.137348 1.7609392,0.156103 0.01823,0.0042 -0.351361,0.0088 -0.8213139,0.01021 l -0.8544599,0.0026 -0.048517,-0.0785 z"
     id="path4081"
     inkscape:connector-curvature="0" />
  <path
     style="fill:#ffffff;fill-opacity:1;stroke:#ff0000;stroke-width:0.15000001;stroke-linecap:round;stroke-linejoin:bevel;stroke-miterlimit:4;stroke-opacity:0;stroke-dasharray:none"
     d="m 8.4864244,12.470193 0,-0.154679 0.1270583,4.24e-4 c 0.271406,9.06e-4 2.2105993,0.120491 2.4362033,0.150235 0.09633,0.0127 6.7e-5,0.02415 -0.464038,0.05521 -1.1648078,0.07796 -1.6065193,0.102545 -1.8506314,0.103011 l -0.2485922,4.75e-4 0,-0.15468 z"
     id="path4083"
     inkscape:connector-curvature="0" />
  <path
     style="fill:#ffffff;fill-opacity:1;stroke:#ff0000;stroke-width:0.15000001;stroke-linecap:round;stroke-linejoin:bevel;stroke-miterlimit:4;stroke-opacity:0;stroke-dasharray:none"
     d="m 8.633821,14.148735 c 0.022236,-0.03787 0.051546,-0.07816 0.065134,-0.08954 0.014617,-0.01224 0.3439667,-0.01831 0.8065437,-0.01487 l 0.7818383,0.0058 -0.7954955,0.07294 c -0.4375224,0.04012 -0.8186599,0.0778 -0.8469723,0.08373 l -0.051477,0.01078 0.040429,-0.06885 z"
     id="path4085"
     inkscape:connector-curvature="0" />
  <path
     style="fill:#ffffff;fill-opacity:1;stroke:#ff0000;stroke-width:0.15000001;stroke-linecap:round;stroke-linejoin:bevel;stroke-miterlimit:4;stroke-opacity:0;stroke-dasharray:none"
     d="m 5.4812206,13.782861 c 0,-0.0072 0.060546,-0.103674 0.1345467,-0.214307 0.1211318,-0.181094 0.1308579,-0.203846 0.09755,-0.228202 -0.060416,-0.04418 -0.3191751,-0.05733 -0.9620198,-0.0489 -0.6151977,0.0081 -0.7063876,0.02023 -0.7063876,0.09422 0,0.01652 0.05469,0.106272 0.121534,0.199439 0.066844,0.09317 0.121534,0.175217 0.121534,0.182335 0,0.0071 -0.1665568,0.0072 -0.3701262,2.58e-4 C 3.5242772,13.754221 3.02198,13.706249 2.634657,13.645159 l -0.23598,-0.03722 -0.00605,-0.39599 c -0.00333,-0.217794 0.00164,-0.402685 0.011048,-0.410868 0.0094,-0.0082 0.2209442,-7.23e-4 0.4700888,0.01658 0.3393125,0.02356 1.1544655,0.03421 3.2482718,0.04242 l 2.7952815,0.01096 0.8286408,-0.05695 c 0.4557531,-0.03132 1.0474021,-0.07241 1.3147771,-0.09132 0.422884,-0.0299 1.068342,-0.03312 4.960795,-0.02473 2.461063,0.0053 4.519408,0.01835 4.574097,0.029 l 0.09944,0.01936 0.0059,0.524806 0.0059,0.524806 -7.612846,0 c -4.1870661,0 -7.6128469,-0.0059 -7.6128469,-0.01316 z"
     id="path4087"
     inkscape:connector-curvature="0" />
  <path
     style="fill:#ffffff;fill-opacity:1;stroke:#ff0000;stroke-width:0.15000001;stroke-linecap:round;stroke-linejoin:bevel;stroke-miterlimit:4;stroke-opacity:0;stroke-dasharray:none"
     d="m 13.093667,12.247063 c -1.166726,-0.0081 -2.171039,-0.02108 -2.231806,-0.02875 -0.06077,-0.0077 -0.552979,-0.0448 -1.0938055,-0.08251 l -0.9833204,-0.06856 -2.5853592,0.01423 c -1.4219475,0.0078 -2.7544019,0.02358 -2.9610096,0.03501 -0.2066078,0.01143 -0.4825452,0.02736 -0.6131942,0.0354 l -0.2375437,0.01463 0,-0.374792 0,-0.374792 0.2264952,-0.07047 c 0.1245723,-0.03876 0.2975027,-0.08508 0.3842898,-0.102931 0.1599467,-0.03291 0.7942197,-0.07587 1.1314778,-0.07665 l 0.1844181,-4.24e-4 -0.080031,0.104961 c -0.090505,0.118699 -0.1978268,0.313791 -0.1815645,0.330054 0.046376,0.04637 1.5328726,0.07532 1.6025211,0.0312 0.058961,-0.03735 0.032012,-0.137488 -0.080584,-0.29945 L 5.4636837,11.17361 6.4925475,11.158989 c 0.5658752,-0.008 3.9954215,-0.01462 7.6212145,-0.01462 l 6.592351,0 0,0.527439 0,0.527439 -0.08286,0.01407 c -0.04558,0.0077 -0.202188,0.01886 -0.348029,0.02471 -0.465542,0.01867 -4.985702,0.02437 -7.181553,0.009 z"
     id="path4089"
     inkscape:connector-curvature="0" />
  <path
     style="fill:#ffffff;fill-opacity:1;stroke:#ff0000;stroke-width:0.15000001;stroke-linecap:round;stroke-linejoin:bevel;stroke-miterlimit:4;stroke-opacity:0;stroke-dasharray:none"
     d="m 21.518202,11.570274 c -0.03214,-0.09068 -0.114479,-0.255867 -0.164882,-0.330801 -0.07811,-0.116119 -0.161124,-0.211651 -0.201303,-0.23165 -0.07137,-0.03552 -0.177425,-0.05107 -0.43534,-0.06383 -0.08773,-0.0043 -0.160536,-0.0089 -0.161785,-0.01016 -0.0036,-0.0036 0.445551,-0.150644 0.532236,-0.174265 0.07291,-0.01987 0.09103,-0.02151 0.271484,-0.02463 l 0.19336,-0.0033 -0.0011,0.287809 c -6.02e-4,0.158295 -0.0032,0.360993 -0.0059,0.450441 l -0.0048,0.162631 -0.02205,-0.06221 0,0 z"
     id="path4091"
     inkscape:connector-curvature="0" />
  <path
     style="fill:#ffffff;fill-opacity:1;stroke:#ff0000;stroke-width:0.15000001;stroke-linecap:round;stroke-linejoin:bevel;stroke-miterlimit:4;stroke-opacity:0;stroke-dasharray:none"
     d="m 20.977417,11.742763 c 0.0033,-0.239551 0.0082,-0.459812 0.01095,-0.489469 l 0.005,-0.05392 0.04866,0.05208 c 0.102788,0.110001 0.160007,0.207086 0.220332,0.373839 0.06242,0.172536 0.107958,0.346553 0.13706,0.523726 l 0.0048,0.0293 -0.216387,0 -0.216386,0 0.0059,-0.435547 0,0 z"
     id="path4093"
     inkscape:connector-curvature="0" />
  <path
     style="fill:#ffffff;fill-opacity:1;stroke:#ff0000;stroke-width:0.15000001;stroke-linecap:round;stroke-linejoin:bevel;stroke-miterlimit:4;stroke-opacity:0;stroke-dasharray:none"
     d="m 21.03244,12.536941 c -0.155513,-0.0045 -0.250966,-0.01144 -0.363281,-0.02656 -0.08379,-0.01128 -0.183015,-0.02254 -0.220501,-0.02502 -0.07017,-0.0046 -0.08789,-0.01799 -0.02388,-0.01799 0.01977,0 0.101303,-0.0088 0.181179,-0.01955 0.264978,-0.03566 0.293913,-0.03639 1.615933,-0.04051 l 1.267579,-0.004 0,0.07107 0,0.07107 -1.123047,-0.0013 c -0.617676,-6.91e-4 -1.217969,-0.004 -1.333985,-0.0073 z"
     id="path4095"
     inkscape:connector-curvature="0" />
  <path
     style="fill:#ffffff;fill-opacity:1;stroke:#ff0000;stroke-width:0.15000001;stroke-linecap:round;stroke-linejoin:bevel;stroke-miterlimit:4;stroke-opacity:0;stroke-dasharray:none"
     d="m 20.987417,13.732758 c -0.0025,-0.01061 -0.0071,-0.231108 -0.01018,-0.489995 l -0.0056,-0.470703 0.215743,0 0.215743,0 -0.0037,0.02148 c -0.04891,0.286317 -0.102972,0.477255 -0.183504,0.648092 -0.045,0.09547 -0.09829,0.174396 -0.170529,0.252595 -0.05051,0.05467 -0.05367,0.05677 -0.05802,0.03853 l 0,0 z"
     id="path4097"
     inkscape:connector-curvature="0" />
  <path
     style="fill:#ffffff;fill-opacity:1;stroke:#ff0000;stroke-width:0.15000001;stroke-linecap:round;stroke-linejoin:bevel;stroke-miterlimit:4;stroke-opacity:0;stroke-dasharray:none"
     d="m 21.278534,14.217298 c -0.130198,-0.0066 -0.185952,-0.02016 -0.46875,-0.114394 l -0.214844,-0.07159 0.173818,-7.21e-4 0.173817,-7.21e-4 0.06837,-0.03086 c 0.116974,-0.0528 0.156502,-0.07787 0.225047,-0.142759 0.103066,-0.09756 0.195591,-0.249971 0.265722,-0.437708 0.01244,-0.0333 0.02491,-0.06055 0.02771,-0.06055 0.0044,0 0.0099,0.235018 0.01687,0.728515 l 0.002,0.138672 -0.08213,-0.0013 c -0.04517,-7.09e-4 -0.129588,-0.0037 -0.187596,-0.0066 z"
     id="path4099"
     inkscape:connector-curvature="0" />
  <path
     style="fill:#ffffff;fill-opacity:1;stroke:#ff0000;stroke-width:0.15000001;stroke-linecap:round;stroke-linejoin:bevel;stroke-miterlimit:4;stroke-opacity:0;stroke-dasharray:none"
     d="m 21.809784,13.593388 0,-0.631797 -0.0704,-0.04463 c -0.09002,-0.05706 -0.09366,-0.06101 -0.09366,-0.101345 l 0,-0.03345 0.05977,-0.0051 c 0.03287,-0.0028 0.0733,-0.0051 0.08984,-0.0051 l 0.03007,0 0,0.726563 c 0,0.479166 -0.0027,0.726562 -0.0078,0.726562 -0.0051,0 -0.0078,-0.215807 -0.0078,-0.631797 z"
     id="path4101"
     inkscape:connector-curvature="0" />
  <path
     style="fill:#ffffff;fill-opacity:1;stroke:#ff0000;stroke-width:0.15000001;stroke-linecap:round;stroke-linejoin:bevel;stroke-miterlimit:4;stroke-opacity:0;stroke-dasharray:none"
     d="m 21.681226,12.17151 c -0.01575,-0.0034 -0.02482,-0.01116 -0.02852,-0.02447 -0.01322,-0.04752 -0.01082,-0.0509 0.07504,-0.105635 l 0.08203,-0.05229 0.0011,-0.14173 c 6.17e-4,-0.07795 0.0034,-0.27884 0.0063,-0.446418 0.0049,-0.288034 0.0053,-0.275117 0.0067,0.236328 l 0.0015,0.541016 -0.06055,-9.24e-4 c -0.0333,-5.09e-4 -0.07094,-0.0032 -0.08364,-0.0059 l 0,0 z"
     id="path4103"
     inkscape:connector-curvature="0" />
  <path
     style="fill:#ffffff;fill-opacity:1;stroke:#ff0000;stroke-width:0.15000001;stroke-linecap:round;stroke-linejoin:bevel;stroke-miterlimit:4;stroke-opacity:0;stroke-dasharray:none"
     d="m 22.366885,11.044167 c 0.0031,-0.09925 0.008,-0.159511 0.01331,-0.162795 0.0091,-0.0056 0.590176,-0.01556 0.911337,-0.01556 l 0.197937,0 0,0.167969 0,0.167969 -0.563733,0 -0.563732,0 0.0049,-0.157581 z"
     id="path4105"
     inkscape:connector-curvature="0" />
  <path
     style="fill:#ffffff;fill-opacity:1;stroke:#ff0000;stroke-width:0.15000001;stroke-linecap:round;stroke-linejoin:bevel;stroke-miterlimit:4;stroke-opacity:0;stroke-dasharray:none"
     d="m 22.366963,11.716223 c 0.0028,-0.151024 0.0071,-0.276707 0.0097,-0.279297 0.0026,-0.0026 0.254024,-0.0059 0.558746,-0.0073 l 0.554041,-0.0026 0,0.281884 0,0.281883 -0.563764,0 -0.563763,0 0.005,-0.274587 z"
     id="path4107"
     inkscape:connector-curvature="0" />
  <path
     style="fill:#ffffff;fill-opacity:1;stroke:#ff0000;stroke-width:0.15000001;stroke-linecap:round;stroke-linejoin:bevel;stroke-miterlimit:4;stroke-opacity:0;stroke-dasharray:none"
     d="m 22.364472,13.24081 0,-0.28125 0.5625,0 0.5625,0 0,0.28125 0,0.28125 -0.5625,0 -0.5625,0 0,-0.28125 z"
     id="path4109"
     inkscape:connector-curvature="0" />
  <path
     style="fill:#ffffff;fill-opacity:1;stroke:#ff0000;stroke-width:0.15000001;stroke-linecap:round;stroke-linejoin:bevel;stroke-miterlimit:4;stroke-opacity:0;stroke-dasharray:none"
     d="m 22.364472,13.916591 0,-0.167968 0.5625,0 0.5625,0 0,0.167968 0,0.167969 -0.5625,0 -0.5625,0 0,-0.167969 z"
     id="path4111"
     inkscape:connector-curvature="0" />
  <path
     style="fill:#ffffff;fill-opacity:1;stroke:#ff0000;stroke-width:0.15000001;stroke-linecap:round;stroke-linejoin:bevel;stroke-miterlimit:4;stroke-opacity:0;stroke-dasharray:none"
     d="m 22.08549,13.497924 0,-0.724609 0.02539,0 c 0.02882,0 0.02796,-0.0016 0.01925,0.03516 -0.0099,0.04153 -0.01349,0.115754 -0.01606,0.328125 -0.0023,0.190923 0.0042,0.972892 0.0088,1.049805 l 0.0021,0.03613 -0.01977,0 -0.01977,0 0,-0.72461 z"
     id="path4113"
     inkscape:connector-curvature="0" />
  <path
     style="fill:#ffffff;fill-opacity:1;stroke:#ff0000;stroke-width:0.15000001;stroke-linecap:round;stroke-linejoin:bevel;stroke-miterlimit:4;stroke-opacity:0;stroke-dasharray:none"
     d="m 22.08663,11.600463 c 0.0019,-0.512275 0.0057,-0.762257 0.01282,-0.83789 0.0023,-0.02408 0.0024,-0.02441 0.01415,-0.02441 l 0.01186,0 -0.0024,0.02051 c -0.01128,0.09634 -0.01788,0.460076 -0.01796,0.990235 l -6.5e-5,0.426758 -0.01027,0 -0.01027,0 0.0021,-0.575196 z"
     id="path4115"
     inkscape:connector-curvature="0" />
  <path
     style="fill:#ffffff;fill-opacity:1;stroke:#ff0000;stroke-width:0.15000001;stroke-linecap:round;stroke-linejoin:bevel;stroke-miterlimit:4;stroke-opacity:0;stroke-dasharray:none"
     d="m 23.749552,12.28894 0,-1.5625 0.01172,0 0.01172,0 0,1.5625 0,1.5625 -0.01172,0 -0.01172,0 0,-1.5625 z"
     id="path4117"
     inkscape:connector-curvature="0" />
  <path
     style="fill:#ffffff;fill-opacity:1;stroke:#ff0000;stroke-width:0.15000001;stroke-linecap:round;stroke-linejoin:bevel;stroke-miterlimit:4;stroke-opacity:0;stroke-dasharray:none"
     d="m 23.749552,12.853393 0,-1.369141 0.01172,0 0.01172,0 0,1.369141 0,1.369141 -0.01172,0 -0.01172,0 0,-1.369141 z"
     id="path4119"
     inkscape:connector-curvature="0" />
</svg>
