<?xml version="1.0" encoding="UTF-8" standalone="no"?>
<!-- Created with Inkscape (http://www.inkscape.org/) -->

<svg
   xmlns:dc="http://purl.org/dc/elements/1.1/"
   xmlns:cc="http://creativecommons.org/ns#"
   xmlns:rdf="http://www.w3.org/1999/02/22-rdf-syntax-ns#"
   xmlns:svg="http://www.w3.org/2000/svg"
   xmlns="http://www.w3.org/2000/svg"
   xmlns:sodipodi="http://sodipodi.sourceforge.net/DTD/sodipodi-0.dtd"
   xmlns:inkscape="http://www.inkscape.org/namespaces/inkscape"
   id="svg3039"
   version="1.1"
   inkscape:version="0.48.4 r9939"
   width="24.995369"
   height="24.989086"
   sodipodi:docname="NSHC.svg">
  <metadata
     id="metadata3045">
    <rdf:RDF>
      <cc:Work
         rdf:about="">
        <dc:format>image/svg+xml</dc:format>
        <dc:type
           rdf:resource="http://purl.org/dc/dcmitype/StillImage" />
        <dc:title></dc:title>
      </cc:Work>
    </rdf:RDF>
  </metadata>
  <defs
     id="defs3043" />
  <sodipodi:namedview
     pagecolor="#ffffff"
     bordercolor="#666666"
     borderopacity="1"
     objecttolerance="10"
     gridtolerance="10"
     guidetolerance="10"
     inkscape:pageopacity="0"
     inkscape:pageshadow="2"
     inkscape:window-width="1366"
     inkscape:window-height="750"
     id="namedview3041"
     showgrid="false"
     fit-margin-top="1.05"
     fit-margin-left="0.95"
     fit-margin-right="0.95"
     fit-margin-bottom="1.05"
     inkscape:zoom="24.334164"
     inkscape:cx="10.193544"
     inkscape:cy="11.484426"
     inkscape:window-x="0"
     inkscape:window-y="18"
     inkscape:window-maximized="1"
     inkscape:current-layer="svg3039" />
  <path
     style="fill:#ffffff;fill-opacity:1;stroke:#000000;stroke-width:0.2;stroke-miterlimit:4;stroke-opacity:1;stroke-dasharray:none"
     d="M 6.5291901,16.166352 C 5.6321182,15.286249 4.4239428,14.082674 4.3502801,13.995737 4.3027444,13.939636 4.1110332,13.736555 3.9242556,13.544446 3.4686134,13.075798 2.5849194,12.068672 2.2815994,11.672347 2.1465173,11.495845 1.9254514,11.156381 1.7903416,10.917981 1.5327269,10.463423 1.5072107,10.326453 1.6506738,10.168254 1.7635868,10.043742 1.7555045,9.9923842 1.5849284,9.7504859 1.1853149,9.1837835 1.0400524,8.7042396 1.1345256,8.263604 1.1766024,8.0673514 1.2195252,7.9908749 1.3943701,7.8006325 1.5237207,7.6598895 1.6735631,7.5399098 1.7862154,7.4868782 1.8865373,7.4396526 1.9805971,7.37069 1.9952371,7.3336315 c 0.01464,-0.037059 0.042844,-0.052483 0.062677,-0.034279 0.019832,0.018204 0.020361,0.050199 0.00117,0.071101 -0.019186,0.020903 -0.02004,0.037366 -0.0019,0.036592 0.018141,-7.527e-4 0.053504,-0.052887 0.078584,-0.1158034 0.029676,-0.074445 0.063037,-0.111055 0.095534,-0.1048367 0.027464,0.00527 0.053267,-0.00786 0.05734,-0.029145 C 2.2927242,7.1359754 2.7058275,6.8350716 3.2066649,6.4885832 3.7075042,6.1420949 4.1457127,5.8306856 4.1804633,5.796562 4.2152133,5.762439 4.2656593,5.737741 4.2925643,5.741677 4.3194701,5.7456112 4.4974142,5.5848458 4.6879964,5.3844158 4.9735162,5.0841427 5.1319191,4.9562258 5.5879124,4.6576953 5.8922845,4.4584287 6.5643059,4.0130286 7.0812944,3.667917 8.5089018,2.7149294 9.379943,2.2385134 10.359331,1.8749934 10.851758,1.6922198 11.12392,1.6366791 11.197256,1.7039969 c 0.02528,0.023206 0.05999,0.026916 0.07713,0.00824 0.01714,-0.018671 0.06281,-0.037516 0.101497,-0.041878 0.03868,-0.00436 0.295558,-0.065319 0.57083,-0.1354624 0.275273,-0.070143 0.736512,-0.1599286 1.024976,-0.1995228 0.604702,-0.083001 1.905703,-0.1541968 2.158293,-0.1181106 0.0945,0.0135 0.205727,0.01105 0.247179,-0.00544 0.158044,-0.062892 1.242227,0.085155 2.095905,0.2862 1.237242,0.2913763 3.230752,1.1918425 3.807772,1.7199659 0.620634,0.5680398 1.685579,2.4941362 2.104002,3.8053676 0.310363,0.9726003 0.414797,1.5898863 0.472033,2.7901004 0.06149,1.289502 0.04112,1.885061 -0.08956,2.618683 -0.05054,0.283716 -0.08503,0.531148 -0.07665,0.549845 0.0084,0.0187 -0.0016,0.05243 -0.02236,0.07496 -0.02068,0.02253 -0.0357,0.174607 -0.03336,0.337949 0.0028,0.201397 -0.05508,0.49417 -0.180063,0.909615 -0.319624,1.062448 -0.728038,1.947173 -1.693572,3.668693 -0.689221,1.228859 -0.821613,1.441603 -1.105383,1.77626 -0.133789,0.157783 -0.242069,0.30147 -0.24062,0.319307 0.0015,0.01784 -0.164501,0.31115 -0.368779,0.651812 -0.204278,0.340662 -0.405775,0.695881 -0.44777,0.789375 -0.04199,0.0935 -0.108334,0.221665 -0.14742,0.284819 -0.03909,0.06316 -0.197182,0.338814 -0.351327,0.612573 -0.154145,0.273759 -0.301419,0.516697 -0.327277,0.539859 -0.02586,0.02317 -0.107046,0.146497 -0.180417,0.274072 -0.145517,0.253023 -0.331681,0.422566 -0.552907,0.503548 -0.112227,0.04108 -0.139965,0.0364 -0.131823,-0.02227 0.0076,-0.05511 -7.54e-4,-0.05265 -0.03243,0.0095 -0.04771,0.09352 -0.306155,0.114647 -0.61519,0.05028 -0.154621,-0.03222 -0.681617,-0.278144 -1.0172,-0.474701 -0.09758,-0.05715 -0.119465,-0.04967 -0.240637,0.08234 -0.164575,0.179287 -0.215777,0.173492 -0.77732,-0.08799 C 14.286285,22.844964 12.556582,21.542494 10.142589,19.455061 9.2024387,18.642094 7.1311694,16.75694 6.5291938,16.166351 z M 12.542004,21.1893 c 1.257621,0.98155 2.186479,1.621955 2.71534,1.872103 0.380184,0.179825 0.54778,0.217675 0.543721,0.122795 -6.46e-4,-0.01505 -0.441261,-0.340477 -0.979147,-0.723163 C 13.56282,21.565233 12.98948,21.100138 10.81622,19.211602 7.9449748,16.716525 6.682991,15.538595 4.9287058,13.716227 2.9416835,11.652089 2.7182831,11.411955 2.2650801,10.853091 1.8207259,10.305138 1.7927942,10.275973 1.7534403,10.318844 c -0.049409,0.05382 0.016692,0.178245 0.429149,0.807756 0.5433634,0.829309 1.463133,1.851969 3.5643383,3.963067 0.1373844,0.138031 1.5218507,1.410328 3.0765932,2.827327 2.4924032,2.271589 2.9322852,2.658689 3.7184842,3.272304 z M 9.6184557,17.480706 c 1.8319873,1.601295 3.1909423,2.76409 4.7207823,4.039358 l 1.275161,1.062966 0.942173,0.422926 0.942173,0.422925 0.356862,-0.114657 c 0.264145,-0.08487 0.372885,-0.14168 0.418536,-0.218666 0.03392,-0.05721 0.338158,-0.565954 0.676082,-1.130553 0.337924,-0.5646 0.704822,-1.18663 0.815329,-1.38229 0.110508,-0.19566 0.843117,-1.494829 1.628019,-2.887042 l 1.427097,-2.531295 0.341196,-1.208904 0.341195,-1.208904 0.07378,-1.698667 c 0.04058,-0.934267 0.08139,-1.7069646 0.09071,-1.7171043 0.0093,-0.01014 0.0064,-0.083006 -0.0065,-0.1619231 -0.01825,-0.1119604 -0.0079,-0.1411818 0.04706,-0.132998 0.05654,0.00841 0.05986,0.00264 0.01681,-0.029145 C 23.621998,8.9306872 23.605165,8.8906324 23.562472,8.6201415 23.513235,8.3082092 23.129077,6.8330134 23.022623,6.5470914 22.859003,6.1076335 22.354267,5.0426801 22.058361,4.5125798 21.820408,4.0862988 21.660965,3.854237 21.423484,3.5885465 L 21.106361,3.2337536 20.404326,2.8680096 C 20.018208,2.6668506 19.294202,2.3289423 18.795424,2.1171025 17.964957,1.7643883 17.821914,1.7191547 17.097537,1.5801895 c -0.43506,-0.083462 -0.99158,-0.1639272 -1.236711,-0.1788107 -0.24513,-0.014883 -0.472831,-0.051972 -0.506001,-0.082419 -0.03317,-0.030447 -0.08629,-0.048036 -0.118069,-0.039086 -0.03579,0.010081 -0.03533,0.020562 0.0012,0.027549 0.03242,0.0062 0.04787,0.022971 0.03435,0.037261 -0.01353,0.014285 -0.103501,0.012599 -0.199944,-0.00376 -0.09644,-0.016358 -0.394221,-0.0061 -0.661729,0.022789 -0.267508,0.028891 -0.818444,0.085327 -1.224304,0.1254128 -0.569541,0.056253 -0.832905,0.1089631 -1.154153,0.2309957 -0.228927,0.086961 -0.596435,0.189085 -0.816685,0.2269419 -0.222745,0.038283 -0.728712,0.1938521 -1.140077,0.3505348 L 9.3358024,2.5793044 6.9403441,4.2051399 C 5.6228429,5.0993494 4.0122198,6.1928065 3.3611824,6.6350442 2.710145,7.0772818 2.1392906,7.4509579 2.0926169,7.4654363 2.045943,7.4799148 1.9704823,7.5323651 1.9249262,7.5819935 1.87937,7.6316223 1.7822091,7.7088501 1.7090136,7.7536117 1.599292,7.8207099 1.556104,7.8863575 1.4629879,8.1275798 1.346134,8.4302954 1.3450643,8.4794629 1.4455921,8.9269624 c 0.067246,0.2993474 -0.039476,0.1593678 1.3865765,1.8186736 0.5854618,0.681223 1.1597156,1.299519 1.8866285,2.031324 0.5747428,0.578609 1.4379145,1.447825 1.9181592,1.931588 1.1519595,1.160401 1.3781668,1.370725 2.9814994,2.772158 z M 7.0585475,8.2011085 6.3602317,7.4906724 6.2665365,7.1298709 C 6.174892,6.7769635 6.1758577,6.7619657 6.3106745,6.4444328 L 6.4485075,6.1197964 6.8627888,5.7588755 C 7.1930606,5.4711439 7.679928,5.1409331 9.2636848,4.130503 11.576444,2.6549724 11.628507,2.6304784 12.308472,2.6980113 c 0.687803,0.068312 0.7953,0.1219126 1.567165,0.7814249 0.575397,0.4916428 0.68406,0.599345 0.785449,0.7785049 0.21775,0.3847742 0.174196,0.7855173 -0.130036,1.1964675 C 14.338173,5.7149449 10.680529,9.0236831 10.282821,9.297395 10.03337,9.4690729 9.9973812,9.4785799 9.5066953,9.5024131 9.1362732,9.5204023 8.8795766,9.4991335 8.5902431,9.4264284 8.1275705,9.3101842 8.2264663,9.3892995 7.0585475,8.2011085 z m 1.8752122,0.8686007 c 0.4004787,0.090425 0.4081438,0.089842 0.8303377,-0.063083 L 10.190225,8.8522783 12.267166,7.0075229 14.344107,5.1627674 14.397386,4.8992426 C 14.446116,4.6582214 14.438445,4.6151627 14.307559,4.395007 14.18016,4.1807153 14.10087,4.1015636 13.585135,3.6738451 l -0.57932,-0.4804509 -0.399524,-0.095203 c -0.388539,-0.092586 -0.746705,-0.075604 -1.030707,0.048867 -0.05459,0.023928 -0.59911,0.3679399 -1.210035,0.7644714 C 9.7546258,4.3080612 8.7700711,4.9438185 8.1776504,5.3243239 7.156082,5.9804657 7.0909585,6.0290448 6.9151219,6.2661068 6.6784157,6.5852344 6.5732463,6.8890978 6.6388983,7.0641923 6.692205,7.2063612 7.13187,7.6626698 8.0321544,8.5101959 l 0.4973959,0.4682468 0.4042094,0.091266 z m 5.0007423,5.1529528 c -0.191811,-0.431469 -0.192574,-0.436269 -0.144588,-0.909023 l 0.04824,-0.475263 2.067278,-2.264395 2.067278,-2.2643954 0.383888,-0.074129 c 0.327073,-0.063157 0.421997,-0.06012 0.641388,0.020521 0.251002,0.09226 0.282159,0.1172846 1.234708,0.9916557 l 0.977207,0.8970067 0.07685,0.298628 c 0.0867,0.336845 0.113841,0.779697 0.06722,1.096576 -0.05192,0.352969 -0.38001,0.953406 -1.524741,2.790457 -1.361514,2.184944 -1.425779,2.275103 -1.756565,2.464335 -0.34139,0.195297 -0.494062,0.238291 -0.844666,0.237868 -0.417679,-5.04e-4 -0.547712,-0.09022 -1.94765,-1.343685 l -1.153031,-1.032396 -0.19283,-0.43376 z m 3.313795,2.408692 c 0.299927,0.02946 0.367999,0.01777 0.559096,-0.09601 0.462182,-0.275194 0.461479,-0.274192 1.84196,-2.627678 1.271967,-2.168486 1.292497,-2.206968 1.356186,-2.541931 0.05759,-0.302905 0.05084,-0.380101 -0.06175,-0.705672 L 20.817378,10.294499 19.925207,9.4755503 19.033036,8.6566016 18.762895,8.6157845 c -0.148578,-0.022451 -0.35276,-0.017543 -0.453738,0.010903 l -0.183597,0.05172 -1.844354,2.0470615 c -1.813801,2.013152 -1.846186,2.051479 -1.954874,2.313652 -0.08857,0.213647 -0.10399,0.339615 -0.07764,0.634321 0.05486,0.613558 0.04614,0.602437 1.451756,1.851975 l 1.206344,1.072396 0.341505,0.03354 z m -2.652669,5.441548 c -9.1e-4,-0.02076 -0.02792,-0.0477 -0.06007,-0.05988 -0.03553,-0.01345 -0.0349,0.0014 0.0016,0.03774 0.03303,0.03293 0.05935,0.0429 0.05846,0.02214 z M 2.4590337,10.808851 c -0.014099,-0.0296 -0.050745,-0.06323 -0.081434,-0.07475 -0.030689,-0.01152 -0.019154,0.0127 0.025636,0.05381 0.044788,0.04111 0.069898,0.05053 0.055798,0.02095 z m -0.1651108,-0.2112 c -0.013863,-0.02917 -0.057339,-0.07008 -0.096612,-0.09091 -0.039274,-0.02084 -0.027932,0.003 0.025205,0.05303 0.053136,0.05001 0.08527,0.06704 0.071407,0.03788 z M 2.0441015,10.31142 c -8.872e-4,-0.02075 -0.027921,-0.0477 -0.060074,-0.05988 -0.03553,-0.01345 -0.034896,0.0014 0.00161,0.03774 0.033041,0.03293 0.059346,0.0429 0.058457,0.02214 z M 15.939156,23.062598 c -0.0141,-0.0296 -0.05074,-0.06323 -0.08143,-0.07475 -0.03069,-0.01152 -0.01915,0.0127 0.02564,0.05381 0.04479,0.04111 0.0699,0.05054 0.0558,0.02095 z M 1.8785603,10.099446 c -8.871e-4,-0.02076 -0.027921,-0.0477 -0.060074,-0.05988 -0.03553,-0.01345 -0.034896,0.0014 0.00161,0.03774 0.033041,0.03294 0.059346,0.0429 0.058457,0.02214 z M 4.8828731,5.3197019 c 0.013455,-0.035529 -0.00135,-0.034897 -0.037745,0.00161 -0.032934,0.03304 -0.042896,0.059345 -0.022136,0.058457 0.02076,-8.871e-4 0.047706,-0.027921 0.059881,-0.060071 z M 20.734039,19.566086 c 0.01152,-0.03069 -0.0127,-0.01915 -0.05381,0.02563 -0.04111,0.04479 -0.05054,0.0699 -0.02095,0.0558 0.02959,-0.0141 0.06323,-0.05074 0.07475,-0.08144 z m 0.23787,-0.404003 c 0.188245,-0.314527 0.252552,-0.488766 0.08076,-0.218819 -0.198978,0.312668 -0.317328,0.526414 -0.290846,0.52528 0.01505,-6.44e-4 0.109591,-0.138551 0.210086,-0.306461 z m 0.414795,-0.716466 c 0.101948,-0.173609 0.173301,-0.315138 0.158564,-0.314508 -0.01473,6.45e-4 -0.109988,0.143182 -0.211667,0.316781 -0.101679,0.173598 -0.173033,0.315127 -0.158564,0.314508 0.01447,-6.45e-4 0.109719,-0.143171 0.211667,-0.316781 z m 0.469059,-0.833711 c 0.13577,-0.243905 0.235472,-0.442976 0.22156,-0.44238 -0.01392,5.91e-4 -0.136707,0.200654 -0.272878,0.444575 -0.136172,0.243921 -0.235874,0.442991 -0.221562,0.44238 0.01432,-5.91e-4 0.137109,-0.200672 0.27288,-0.444575 z M 7.0432318,3.8816273 c 0.013457,-0.035529 -0.00135,-0.034897 -0.037742,0.00161 -0.032935,0.033039 -0.042898,0.059345 -0.022134,0.058457 0.020758,-8.871e-4 0.047704,-0.027921 0.059881,-0.060071 z M 22.157878,17.03555 c 0.01345,-0.03553 -0.0014,-0.0349 -0.03775,0.0016 -0.03293,0.03303 -0.0429,0.05935 -0.02214,0.05845 0.02075,-9.09e-4 0.0477,-0.02792 0.05988,-0.06007 z m 0.08703,-0.160193 c 0.01345,-0.03553 -0.0014,-0.0349 -0.03775,0.0016 -0.03293,0.03303 -0.0429,0.05935 -0.02214,0.05845 0.02075,-9.09e-4 0.0477,-0.02792 0.05988,-0.06007 z m 0.08703,-0.160193 c 0.01345,-0.03553 -0.0014,-0.0349 -0.03775,0.0016 -0.03293,0.03303 -0.0429,0.05934 -0.02214,0.05845 0.02076,-9.09e-4 0.0477,-0.02792 0.05988,-0.06007 z m 0.175247,-0.323046 c 0.01152,-0.03069 -0.0127,-0.01915 -0.05381,0.02564 -0.04111,0.04479 -0.05054,0.0699 -0.02095,0.0558 0.0296,-0.01411 0.06323,-0.05074 0.07475,-0.08144 z M 10.270955,2.0841235 c 0.01644,-0.017915 -0.0046,-0.023629 -0.04653,-0.012698 -0.04203,0.010931 -0.08988,0.034533 -0.106327,0.052449 -0.01645,0.017915 0.0045,0.023629 0.04653,0.012698 0.04203,-0.010931 0.08988,-0.034533 0.106327,-0.052449 z m 0.273869,-0.1001914 c 0.03799,-0.041386 0.006,-0.036718 -0.133032,0.019401 -0.107052,0.043217 -0.107328,0.044878 -0.0048,0.029104 0.05978,-0.0092 0.121825,-0.031028 0.137868,-0.048506 z M 23.524951,13.803535 c 0.01333,-0.05194 0.01727,-0.119173 0.0087,-0.149398 -0.0085,-0.03022 -0.02558,0.0066 -0.03793,0.08188 -0.02614,0.159357 -0.0063,0.205441 0.02917,0.06751 z M 10.949811,1.8369782 c 0.127619,-0.04791 0.224705,-0.093836 0.215748,-0.1020586 -0.0089,-0.00822 -0.120702,0.024249 -0.248322,0.072158 -0.127618,0.047909 -0.224704,0.093836 -0.215747,0.1020586 0.0089,0.00822 0.120703,-0.024249 0.248321,-0.072158 z M 23.558815,13.568538 c 0.0062,-0.0067 0.0041,-0.05596 -0.0046,-0.109329 -0.01447,-0.08794 -0.01668,-0.08785 -0.02358,0.001 -0.0073,0.09332 0.0036,0.135128 0.02827,0.108319 z"
     id="path3049"
     inkscape:connector-curvature="0" />
  <path
     style="fill:#ffffff;fill-opacity:1;stroke:#000000;stroke-width:0.30000001;stroke-linecap:round;stroke-linejoin:bevel;stroke-miterlimit:4;stroke-opacity:0;stroke-dasharray:none"
     d="m 16.583636,22.832644 -0.871303,-0.398937 -0.689252,-0.57493 C 12.83423,20.032975 10.687793,18.191394 8.8045506,16.52346 7.8251675,15.656047 4.8376062,12.683583 3.7235721,11.468156 3.0676833,10.752573 1.8471078,9.3296884 1.7174286,9.1294974 1.6769326,9.066982 1.6189597,8.8973325 1.5885999,8.7524982 1.5405769,8.5234002 1.5417828,8.4607081 1.5978747,8.2702927 1.6835444,7.9794698 1.8461312,7.8330946 2.7080175,7.2708431 3.0889519,7.0223402 4.7578737,5.8984656 6.4167324,4.7733433 L 9.4328393,2.7276667 9.9738449,2.5249248 C 10.271398,2.4134167 10.680186,2.2766147 10.882262,2.2209204 11.084338,2.165226 11.490075,2.0510293 11.783901,1.96715 c 0.757792,-0.2163292 0.931366,-0.2497215 1.808157,-0.3478545 1.066968,-0.119418 1.613188,-0.1281591 2.33315,-0.037337 1.196464,0.1509318 1.760746,0.2738186 2.353729,0.5125842 0.998407,0.4020098 2.502888,1.1278371 2.724795,1.3145599 0.182417,0.153494 0.57788,0.6484588 0.754082,0.9438155 0.186036,0.3118423 0.677778,1.2955892 0.914468,1.8294239 0.196745,0.4437423 0.428399,1.2205181 0.660754,2.2156158 0.164969,0.7065092 0.174244,0.8943788 0.103604,2.0985862 -0.02188,0.372932 -0.05273,1.019489 -0.06857,1.436792 l -0.02879,0.758733 -0.338979,1.199598 -0.338979,1.199597 -1.549448,2.746988 c -0.852197,1.510844 -1.875694,3.297253 -2.274437,3.969799 l -0.724989,1.22281 -0.224957,0.08481 c -0.123727,0.04664 -0.271667,0.09181 -0.328756,0.100361 -0.06811,0.0102 -0.403399,-0.121625 -0.975103,-0.383387 z m 1.389166,-5.79169 c 0.144613,-0.0716 0.333433,-0.188738 0.4196,-0.260312 0.311144,-0.258448 2.484576,-3.721082 2.962216,-4.719296 l 0.168676,-0.352515 0,-0.513681 c 0,-0.364288 -0.02255,-0.605684 -0.07755,-0.830029 L 21.368193,10.048773 20.788232,9.5182168 C 19.164505,8.032808 19.116696,8.0014529 18.543944,8.0463322 17.874932,8.098754 18.106063,7.8974403 15.756877,10.473845 l -2.096375,2.29914 -0.02902,0.425779 c -0.03884,0.569782 -0.01567,0.727388 0.17141,1.166139 l 0.159018,0.372936 0.924626,0.829853 c 0.89792,0.805884 1.452433,1.277154 1.705421,1.449406 0.211463,0.143978 0.357582,0.176395 0.743882,0.165034 0.324604,-0.0095 0.408777,-0.0282 0.636964,-0.141178 l 0,0 z M 10.181216,9.562644 C 10.439846,9.4289542 11.506434,8.5035351 13.324944,6.8350065 14.855042,5.4311034 14.946633,5.3129418 14.946291,4.7433156 14.946127,4.4900418 14.926722,4.3980297 14.837354,4.2270878 14.662376,3.8923894 13.594674,2.9492742 13.140552,2.7282798 12.838885,2.5814763 12.393075,2.5088945 11.939328,2.5327102 11.636419,2.5486088 11.559584,2.5708262 11.219476,2.74086 10.657756,3.0216864 7.7027544,4.897462 7.0580349,5.3824588 6.5010933,5.8014238 6.3016042,6.0132979 6.1712796,6.3242677 6.029308,6.6630281 6.021212,6.8619838 6.1320323,7.2887406 L 6.2114359,7.5945164 7.0867748,8.472127 C 7.5682111,8.954813 8.0208898,9.3865488 8.0927275,9.4315398 8.3442348,9.589055 8.8529595,9.6740023 9.4620624,9.660192 9.9263578,9.6496649 10.043647,9.6337555 10.181216,9.562644 z"
     id="path3868"
     inkscape:connector-curvature="0" />
  <path
     style="fill:#ffffff;fill-opacity:1;stroke:#000000;stroke-width:0.30000001;stroke-linecap:round;stroke-linejoin:bevel;stroke-miterlimit:4;stroke-opacity:0;stroke-dasharray:none"
     d="M 8.9864267,8.8979279 C 8.748021,8.8499357 8.6149934,8.7983659 8.5138401,8.7147246 8.2429552,8.4907354 6.8900777,7.1325502 6.8346084,7.0289049 6.7863692,6.9387691 6.788114,6.8999164 6.8472166,6.748156 6.973832,6.4230398 7.1795519,6.198414 7.6225624,5.901555 8.0742585,5.5988759 9.5906244,4.6176472 10.797633,3.8469912 c 0.406836,-0.2597579 0.813671,-0.5060551 0.904079,-0.5473269 0.202702,-0.092535 0.53181,-0.097834 0.926016,-0.014911 0.283132,0.059559 0.313745,0.078372 0.79818,0.4905249 0.758311,0.6451628 0.863341,0.790526 0.796755,1.1027239 -0.04026,0.1887543 -0.07892,0.2259728 -2.089625,2.0116218 C 10.38447,8.4424773 10.052396,8.7203804 9.8657089,8.7870895 9.3638563,8.9664168 9.3409777,8.9693008 8.9864267,8.8979279 l 0,0 z"
     id="path3870"
     inkscape:connector-curvature="0" />
  <path
     style="fill:#ffffff;fill-opacity:1;stroke:#000000;stroke-width:0.30000001;stroke-linecap:round;stroke-linejoin:bevel;stroke-miterlimit:4;stroke-opacity:0;stroke-dasharray:none"
     d="m 16.057728,15.608972 c -1.614485,-1.440636 -1.623842,-1.452362 -1.62233,-2.033042 0.0014,-0.550369 -0.09403,-0.414161 1.682173,-2.400052 2.062281,-2.3057349 2.095797,-2.3409277 2.266868,-2.3802876 0.09318,-0.021439 0.246234,-0.021439 0.369105,0 0.19834,0.034607 0.256972,0.079678 1.063376,0.8174219 l 0.853461,0.7807957 0.107457,0.349303 c 0.168727,0.548473 0.158614,0.576945 -0.788242,2.219102 -1.556104,2.698795 -1.828486,3.122586 -2.145204,3.337673 -0.210394,0.142882 -0.245176,0.152839 -0.533283,0.152667 l -0.308208,-1.64e-4 -0.945173,-0.843397 0,-2e-5 z"
     id="path3872"
     inkscape:connector-curvature="0" />
</svg>
