<svg xmlns="http://www.w3.org/2000/svg" width="24.156" height="18.063"><g stroke="#000" stroke-width=".005"><path d="M1.06 16.48C.498 15.646.036 14.82.036 14.645c0-.4 7.81-5.614 8.413-5.614.34 0 .38-.05.19-.24-.14-.13-.25-.39-.25-.56 0-.17-.23-.65-.51-1.07-.28-.41-.51-.88-.51-1.04 0-.33 3.02-2.38 3.51-2.38.42 0 1.25 1.34 1.09 1.77-.11.29-.08.29.21.05.35-.29.39-.26 1.37 1.05l.37.5-.32-.55c-.18-.3-.33-.65-.33-.77 0-.22 8.15-5.71 8.48-5.7.2.01 2.33 3.14 2.33 3.44 0 .24-8.1 5.53-8.46 5.53-.16 0-.48-.25-.73-.56l-.45-.56.36.61c.2.34.76 1.21 1.24 1.94.486.73.886 1.46.89 1.63.003.17.184.54.404.82.67.86.52 1.14-1.27 2.34-.92.62-1.77 1.128-1.89 1.128-.11 0-.43-.367-.71-.815-.277-.45-.597-.82-.71-.82-.114 0-.654-.69-1.2-1.53-.547-.84-1.016-1.523-1.043-1.523-.026 0-.01.21.033.46.07.4-.46.81-4.08 3.16C4.21 16.79 2.28 18 2.21 18c-.07 0-.587-.683-1.152-1.52zm8.663-4.724c-.17-.258-.307-.554-.307-.658 0-.105-.273-.482-.606-.84l-.607-.648-3.778 2.486c-2.078 1.367-3.778 2.537-3.778 2.6 0 .065.375.692.833 1.395l.833 1.28 3.86-2.57c3.814-2.54 3.854-2.58 3.55-3.04zm7.442 1.98c0-.072-.142-.332-.315-.58l-.314-.448-1.42.944c-.78.52-1.418 1-1.418 1.072 0 .07.142.33.315.577l.314.45 1.42-.94c.78-.52 1.418-1 1.418-1.07zm-2.05-3.702c-.667-.992-1.213-1.9-1.213-2.016 0-.116-.083-.21-.184-.21-.102 0-.426-.413-.72-.916l-.536-.914-1.223.762c-.68.418-1.46.944-1.74 1.17l-.51.406.53.78c.29.427.48.907.42 1.067-.06.16-.01.268.12.24.13-.026.81.8 1.53 1.834l1.3 1.883 1.71-1.142 1.71-1.14-1.22-1.804zm-4.68 1.366c0-.043-.16-.203-.356-.357-.33-.254-.34-.246-.08.077.26.34.43.448.43.28zm9.322-5.56l3.713-2.43-.834-1.27c-.458-.697-.913-1.268-1.01-1.268-.098 0-1.878 1.113-3.957 2.472-3.76 2.46-3.78 2.475-3.47 2.95.17.262.31.56.31.662 0 .304 1.1 1.45 1.32 1.377.11-.038 1.87-1.16 3.91-2.496zm-9.322.272c.505-.338.956-.646 1.003-.684.136-.11-.44-1.088-.64-1.088-.138 0-2.313 1.373-2.786 1.76-.043.034.074.296.262.582.383.585.47.562 2.16-.57z"/><path fill="#fff" d="M2.017 16.877C1.5 16.084.913 15.152.787 14.92l-.124-.223.113-.087c.4-.312 1.878-1.317 3.79-2.58 2.676-1.766 3.587-2.36 3.62-2.364.043-.004.627.615.895.945.2.25.34.48.34.58 0 .03.07.18.16.34.29.53.27.49.23.6-.08.2-.42.49-1.31 1.1-.48.33-6.14 4.11-6.16 4.11 0 0-.14-.2-.3-.45z" stroke-linecap="round" stroke-linejoin="bevel"/><path fill="#fff" d="M2.123 16.995c-.27-.404-.982-1.524-1.235-1.946l-.203-.34.072-.06c.4-.33 5.15-3.51 7.016-4.7l.42-.27.235.24c.54.55.882.99.96 1.23.02.06.12.28.225.49.13.26.184.4.17.44-.044.14-.425.48-1.02.9-.314.22-3.333 2.25-5.11 3.43l-1.327.88-.203-.31zM12.38 13.33c-1.422-2.078-2.044-2.868-2.32-2.942l-.118-.032.02-.16c.015-.115.006-.212-.03-.33-.087-.307-.19-.485-.852-1.468l-.053-.08.364-.288c.42-.33 1.24-.88 2.32-1.558l.75-.465.22.375c.58.986.84 1.34 1.05 1.44.11.053.13.083.18.215.1.296.65 1.18 1.74 2.796.37.546.66 1 .65 1.012-.02.02-3.29 2.2-3.34 2.228-.012.01-.26-.325-.55-.742zM8.593 7.01c-.147-.063-.613-.8-.56-.888.07-.114 2.108-1.43 2.598-1.68.13-.064.17-.073.23-.047.16.072.59.79.57.95-.01.078-.4.358-1.49 1.072-.84.55-1.13.678-1.33.593zm6.96 1.16c-.235-.176-.65-.606-.834-.865-.09-.12-.17-.273-.2-.4-.04-.115-.15-.348-.24-.52-.1-.17-.18-.335-.18-.364 0-.25.4-.56 2.55-1.97 2.37-1.56 4.29-2.78 4.83-3.07l.15-.08.15.16c.24.26.48.6 1.08 1.5l.57.86-.14.1c-.69.46-5.48 3.58-6.5 4.23-.73.47-.96.6-1.02.6-.03 0-.13-.064-.24-.143zm-1.493 7.15c-.14-.207-.273-.426-.298-.486l-.045-.108.128-.118c.212-.196.665-.52 1.7-1.214l.983-.66.16.23c.227.33.302.45.39.622l.078.154-.2.166c-.11.09-.374.29-.586.44-.51.365-1.994 1.353-2.03 1.353-.016 0-.142-.18-.28-.38zm-3.814-3.97c-.144-.13-.31-.334-.29-.355.02-.02.426.33.448.387.034.09-.04.074-.158-.032z" stroke-linecap="round" stroke-linejoin="bevel"/></g></svg>