<?xml version="1.0" encoding="UTF-8" standalone="no"?>
<!-- Created with Inkscape (http://www.inkscape.org/) -->

<svg
   xmlns:dc="http://purl.org/dc/elements/1.1/"
   xmlns:cc="http://creativecommons.org/ns#"
   xmlns:rdf="http://www.w3.org/1999/02/22-rdf-syntax-ns#"
   xmlns:svg="http://www.w3.org/2000/svg"
   xmlns="http://www.w3.org/2000/svg"
   xmlns:sodipodi="http://sodipodi.sourceforge.net/DTD/sodipodi-0.dtd"
   xmlns:inkscape="http://www.inkscape.org/namespaces/inkscape"
   width="24.15625"
   height="18.062517"
   id="svg2"
   version="1.1"
   inkscape:version="0.48.4 r9939"
   sodipodi:docname="SATL.svg">
  <defs
     id="defs4" />
  <sodipodi:namedview
     id="base"
     pagecolor="#ffffff"
     bordercolor="#666666"
     borderopacity="1.0"
     inkscape:pageopacity="0.0"
     inkscape:pageshadow="2"
     inkscape:zoom="33.716231"
     inkscape:cx="12.078125"
     inkscape:cy="9.0312586"
     inkscape:document-units="px"
     inkscape:current-layer="layer1"
     showgrid="false"
     fit-margin-top="0"
     fit-margin-left="0"
     fit-margin-right="0"
     fit-margin-bottom="0"
     inkscape:window-width="1366"
     inkscape:window-height="750"
     inkscape:window-x="0"
     inkscape:window-y="18"
     inkscape:window-maximized="1" />
  <metadata
     id="metadata7">
    <rdf:RDF>
      <cc:Work
         rdf:about="">
        <dc:format>image/svg+xml</dc:format>
        <dc:type
           rdf:resource="http://purl.org/dc/dcmitype/StillImage" />
        <dc:title />
      </cc:Work>
    </rdf:RDF>
  </metadata>
  <g
     inkscape:label="Layer 1"
     inkscape:groupmode="layer"
     id="layer1"
     transform="translate(-560.96875,-702.46873)">
    <path
       style="fill:#000000;stroke:#000000;stroke-width:0.005;stroke-miterlimit:4;stroke-opacity:1;stroke-dasharray:none"
       d="m 562.03005,718.95021 c -0.5642,-0.83602 -1.02581,-1.66278 -1.02581,-1.83725 0,-0.40162 7.81076,-5.61424 8.41256,-5.61424 0.34037,0 0.38324,-0.0544 0.19292,-0.24468 -0.13459,-0.13458 -0.2447,-0.38854 -0.2447,-0.56437 0,-0.17582 -0.22942,-0.65725 -0.50981,-1.06984 -0.2804,-0.41259 -0.5098,-0.88109 -0.5098,-1.04112 0,-0.33467 3.01914,-2.38136 3.51283,-2.38136 0.42719,0 1.25435,1.34036 1.09055,1.76716 -0.10903,0.28412 -0.0805,0.29134 0.20747,0.0524 0.35576,-0.29522 0.39259,-0.26717 1.3733,1.04608 l 0.3724,0.49868 -0.32141,-0.55354 c -0.17678,-0.30446 -0.32142,-0.65004 -0.32142,-0.76796 0,-0.22615 8.15382,-5.71629 8.47798,-5.7084 0.20516,0.005 2.32985,3.13895 2.32985,3.43656 0,0.23792 -8.09231,5.53038 -8.4561,5.53038 -0.15317,0 -0.47936,-0.25233 -0.72486,-0.56073 l -0.44636,-0.56071 0.36142,0.61168 c 0.19879,0.33644 0.75905,1.20713 1.24503,1.93487 0.48599,0.72773 0.88566,1.46177 0.88815,1.63118 0.003,0.16941 0.18398,0.53741 0.40331,0.81777 0.67188,0.85885 0.5175,1.14286 -1.27269,2.34127 -0.92429,0.61875 -1.7744,1.125 -1.88911,1.125 -0.11472,0 -0.43544,-0.36702 -0.7127,-0.81559 -0.27727,-0.44858 -0.59717,-0.81677 -0.71089,-0.81823 -0.11372,-0.002 -0.65377,-0.68961 -1.2001,-1.52924 -0.54634,-0.83963 -1.01538,-1.5266 -1.04232,-1.5266 -0.0269,0 -0.0123,0.20645 0.0323,0.45877 0.0708,0.39949 -0.45593,0.80786 -4.0761,3.16043 -2.28653,1.48591 -4.2142,2.70165 -4.2837,2.70165 -0.0695,0 -0.58797,-0.68401 -1.15218,-1.52003 z m 8.66197,-4.72515 c -0.16906,-0.25802 -0.3074,-0.5544 -0.3074,-0.65862 0,-0.10424 -0.27286,-0.48158 -0.60635,-0.83854 l -0.60635,-0.64903 -3.77796,2.48566 c -2.07788,1.36711 -3.77795,2.53768 -3.77795,2.60126 0,0.0635 0.37469,0.69064 0.83264,1.39345 l 0.83266,1.27786 3.85907,-2.57146 c 3.81573,-2.5426 3.85561,-2.57673 3.55164,-3.04058 z m 7.44161,1.97877 c 0,-0.0708 -0.14155,-0.33068 -0.31454,-0.57765 l -0.31455,-0.44903 -1.41879,0.94332 c -0.78033,0.51884 -1.41878,1.0012 -1.41878,1.07194 0,0.0708 0.14154,0.33068 0.31454,0.57765 l 0.31455,0.44903 1.41879,-0.94332 c 0.78033,-0.51884 1.41878,-1.0012 1.41878,-1.07194 z m -2.0498,-3.70137 c -0.66712,-0.99203 -1.21294,-1.89897 -1.21294,-2.01542 0,-0.11644 -0.083,-0.21171 -0.18455,-0.21171 -0.1015,0 -0.42563,-0.41136 -0.72031,-0.91412 l -0.53577,-0.91412 -1.22291,0.76119 c -0.67259,0.41866 -1.45218,0.9447 -1.73241,1.169 l -0.5095,0.40779 0.53207,0.77823 c 0.29264,0.42802 0.48202,0.90862 0.42085,1.06801 -0.0612,0.15939 -0.006,0.26796 0.12329,0.24127 0.12899,-0.0267 0.81753,0.7984 1.53009,1.83353 l 1.29556,1.88206 1.71475,-1.141 1.71473,-1.141 -1.21295,-1.80371 z m -4.6796,1.36605 c 0,-0.0423 -0.16059,-0.20291 -0.35687,-0.35683 -0.32343,-0.25361 -0.33065,-0.24641 -0.077,0.077 0.26639,0.33964 0.43385,0.44766 0.43385,0.27984 z m 9.3219,-5.56078 3.71305,-2.42692 -0.83405,-1.26901 c -0.45874,-0.69796 -0.91359,-1.26902 -1.01081,-1.26902 -0.0972,0 -1.87775,1.11258 -3.95677,2.47239 -3.75986,2.45921 -3.77835,2.47492 -3.46746,2.94934 0.17192,0.26233 0.31256,0.56043 0.31256,0.66242 0,0.30424 1.10482,1.45128 1.326,1.37667 0.11244,-0.0379 1.8753,-1.16106 3.91748,-2.49587 z m -9.3219,0.27319 c 0.5047,-0.33801 0.95602,-0.64571 1.00292,-0.68378 0.1354,-0.10991 -0.4406,-1.08809 -0.64073,-1.08809 -0.13747,0 -2.3126,1.37287 -2.7859,1.75834 -0.0432,0.0352 0.0746,0.29782 0.26187,0.58358 0.38344,0.58514 0.47167,0.56187 2.16184,-0.57005 z"
       id="path4652"
       inkscape:connector-curvature="0" />
    <path
       style="fill:#ffffff;fill-opacity:1;stroke:#000000;stroke-width:0.00500000000000000;stroke-linecap:round;stroke-linejoin:bevel;stroke-miterlimit:4;stroke-opacity:1;stroke-dasharray:none"
       d="M 2.0165641,16.877394 C 1.4989832,16.083563 0.91330732,15.152044 0.78641174,14.920833 L 0.66339384,14.696688 0.77553142,14.60965 C 1.1765087,14.298423 2.6541551,13.293018 4.5654229,12.030971 7.2419922,10.263581 8.1526118,9.6689936 8.1874475,9.6659762 c 0.041342,-0.00358 0.6260226,0.6150358 0.8931669,0.9450078 0.1958448,0.241905 0.3336624,0.47707 0.3346741,0.571071 3.144e-4,0.02909 0.069138,0.179684 0.1529436,0.334653 0.2862046,0.529237 0.2701013,0.486123 0.2232212,0.597641 -0.082647,0.1966 -0.4254408,0.483804 -1.3110021,1.098401 -0.4834123,0.335498 -6.1437249,4.117503 -6.1616023,4.116949 -0.00414,-1.19e-4 -0.1401715,-0.203666 -0.3022848,-0.452305 z"
       id="path3035"
       inkscape:connector-curvature="0"
       transform="translate(560.96875,702.46873)" />
    <path
       style="fill:#ffffff;fill-opacity:1;stroke:#000000;stroke-width:0.005;stroke-linecap:round;stroke-linejoin:bevel;stroke-miterlimit:4;stroke-opacity:1;stroke-dasharray:none"
       d="M 2.123101,16.995297 C 1.8523472,16.591257 1.1414951,15.470594 0.88842024,15.048814 L 0.68535425,14.71038 0.75685231,14.652072 C 1.1568914,14.325829 5.907209,11.143688 7.7726429,9.9523362 L 8.1918881,9.684587 8.428088,9.9258985 c 0.5405026,0.5521995 0.881455,0.9891165 0.9595358,1.2296075 0.019481,0.06 0.120889,0.280251 0.2253496,0.489437 0.1308735,0.262078 0.1839666,0.399124 0.170754,0.440753 -0.045104,0.142112 -0.4260138,0.4791 -1.0215128,0.903727 -0.3134514,0.22351 -3.3320782,2.249089 -5.1088017,3.428142 l -1.3272401,0.880772 -0.2030718,-0.30304 0,0 z"
       id="path3037"
       inkscape:connector-curvature="0"
       transform="translate(560.96875,702.46873)" />
    <path
       style="fill:#ffffff;fill-opacity:1;stroke:#000000;stroke-width:0.005;stroke-linecap:round;stroke-linejoin:bevel;stroke-miterlimit:4;stroke-opacity:1;stroke-dasharray:none"
       d="M 12.38065,13.33062 C 10.958309,11.251763 10.335561,10.46191 10.060449,10.38783 L 9.9422508,10.356 9.9623738,10.194941 C 9.9765716,10.081308 9.9680444,9.9841714 9.9334134,9.8650448 9.8445751,9.5594516 9.7409181,9.3812808 9.0800028,8.3981576 L 9.0270496,8.3193888 9.3914255,8.0302228 C 9.8062136,7.70105 10.627553,7.1490862 11.710045,6.4720435 l 0.743246,-0.464862 0.219245,0.3746042 c 0.577306,0.9863926 0.833333,1.3393826 1.045405,1.4413231 0.108062,0.051944 0.132435,0.081717 0.175272,0.214096 0.09562,0.2954986 0.644205,1.1801158 1.733739,2.7957352 0.367933,0.54559 0.658904,1.001108 0.646603,1.012261 -0.02346,0.02127 -3.292763,2.19891 -3.344208,2.227531 -0.01631,0.0091 -0.263226,-0.324874 -0.548697,-0.742112 z"
       id="path3039"
       inkscape:connector-curvature="0"
       transform="translate(560.96875,702.46873)" />
    <path
       style="fill:#ffffff;fill-opacity:1;stroke:#000000;stroke-width:0.005;stroke-linecap:round;stroke-linejoin:bevel;stroke-miterlimit:4;stroke-opacity:1;stroke-dasharray:none"
       d="M 8.5933418,7.0097721 C 8.445979,6.9468279 7.9800411,6.2085488 8.0332965,6.1223798 c 0.07055,-0.114153 2.1076475,-1.4312121 2.5979205,-1.6796521 0.127542,-0.06463 0.16954,-0.073542 0.225794,-0.047911 0.158205,0.072083 0.58707,0.7895412 0.568158,0.9504837 -0.0092,0.077871 -0.400711,0.358084 -1.4975814,1.0717173 C 9.0837882,6.9660009 8.793153,7.0951191 8.5933418,7.0097721 z"
       id="path3041"
       inkscape:connector-curvature="0"
       transform="translate(560.96875,702.46873)" />
    <path
       style="fill:#ffffff;fill-opacity:1;stroke:#000000;stroke-width:0.005;stroke-linecap:round;stroke-linejoin:bevel;stroke-miterlimit:4;stroke-opacity:1;stroke-dasharray:none"
       d="M 15.554196,8.1693802 C 15.317562,7.9935753 14.902622,7.5644081 14.718556,7.305087 14.63438,7.1864963 14.557926,7.0323993 14.519901,6.9046864 14.485903,6.790498 14.377938,6.556931 14.27998,6.3856485 14.182022,6.214366 14.101653,6.0502062 14.101382,6.0208491 14.09906,5.7692036 14.501406,5.4570352 16.65159,4.0422196 19.023184,2.4817166 20.942465,1.2601714 21.4802,0.96900402 l 0.157269,-0.0851567 0.148144,0.15930858 c 0.244334,0.2627475 0.486577,0.5973203 1.08582,1.4996753 l 0.569908,0.8581825 -0.139767,0.09411 c -0.683378,0.4601432 -5.476441,3.5741915 -6.501688,4.2241399 -0.730775,0.46327 -0.954306,0.5944241 -1.012026,0.593792 -0.02248,-2.462e-4 -0.127632,-0.0649 -0.233664,-0.1436756 z"
       id="path3043"
       inkscape:connector-curvature="0"
       transform="translate(560.96875,702.46873)" />
    <path
       style="fill:#ffffff;fill-opacity:1;stroke:#000000;stroke-width:0.005;stroke-linecap:round;stroke-linejoin:bevel;stroke-miterlimit:4;stroke-opacity:1;stroke-dasharray:none"
       d="m 14.059167,15.320514 c -0.138501,-0.207986 -0.272143,-0.42686 -0.296982,-0.486386 l -0.04516,-0.108231 0.127961,-0.11795 c 0.212306,-0.195697 0.665324,-0.519318 1.699427,-1.214016 l 0.983803,-0.660907 0.158768,0.229718 c 0.227978,0.329855 0.303443,0.450095 0.391279,0.62343 l 0.07778,0.153483 -0.20032,0.16607 c -0.110176,0.09134 -0.373826,0.289909 -0.58589,0.441269 -0.50967,0.363775 -1.993351,1.351676 -2.030018,1.351676 -0.01585,0 -0.142142,-0.17017 -0.280642,-0.378156 z"
       id="path3045"
       inkscape:connector-curvature="0"
       transform="translate(560.96875,702.46873)" />
    <path
       style="fill:#ffffff;fill-opacity:1;stroke:#000000;stroke-width:0.005;stroke-linecap:round;stroke-linejoin:bevel;stroke-miterlimit:4;stroke-opacity:1;stroke-dasharray:none"
       d="M 10.245533,11.350373 C 10.10179,11.220509 9.9353647,11.015836 9.9564048,10.994796 c 0.019959,-0.01996 0.4259732,0.331573 0.4473732,0.387342 0.0342,0.08913 -0.04118,0.074 -0.158245,-0.03177 l 0,0 z"
       id="path3047"
       inkscape:connector-curvature="0"
       transform="translate(560.96875,702.46873)" />
  </g>
</svg>
