<?xml version="1.0" encoding="UTF-8" standalone="no"?>
<!-- Created with Inkscape (http://www.inkscape.org/) -->

<svg
   xmlns:dc="http://purl.org/dc/elements/1.1/"
   xmlns:cc="http://creativecommons.org/ns#"
   xmlns:rdf="http://www.w3.org/1999/02/22-rdf-syntax-ns#"
   xmlns:svg="http://www.w3.org/2000/svg"
   xmlns="http://www.w3.org/2000/svg"
   xmlns:sodipodi="http://sodipodi.sourceforge.net/DTD/sodipodi-0.dtd"
   xmlns:inkscape="http://www.inkscape.org/namespaces/inkscape"
   width="24.777901"
   height="24.745089"
   id="svg3518"
   sodipodi:version="0.32"
   inkscape:version="0.91 r13725"
   version="1.0"
   sodipodi:docname="VSTC.svg"
   inkscape:output_extension="org.inkscape.output.svg.inkscape">
  <defs
     id="defs3520">
    <inkscape:perspective
       sodipodi:type="inkscape:persp3d"
       inkscape:vp_x="0 : 526.18109 : 1"
       inkscape:vp_y="0 : 1000 : 0"
       inkscape:vp_z="744.09448 : 526.18109 : 1"
       inkscape:persp3d-origin="372.04724 : 350.78739 : 1"
       id="perspective3526" />
    <inkscape:perspective
       id="perspective3572"
       inkscape:persp3d-origin="372.04724 : 350.78739 : 1"
       inkscape:vp_z="744.09448 : 526.18109 : 1"
       inkscape:vp_y="0 : 1000 : 0"
       inkscape:vp_x="0 : 526.18109 : 1"
       sodipodi:type="inkscape:persp3d" />
    <inkscape:perspective
       id="perspective3622"
       inkscape:persp3d-origin="372.04724 : 350.78739 : 1"
       inkscape:vp_z="744.09448 : 526.18109 : 1"
       inkscape:vp_y="0 : 1000 : 0"
       inkscape:vp_x="0 : 526.18109 : 1"
       sodipodi:type="inkscape:persp3d" />
  </defs>
  <sodipodi:namedview
     id="base"
     pagecolor="#ffffff"
     bordercolor="#666666"
     borderopacity="1.0"
     gridtolerance="10000"
     guidetolerance="10"
     objecttolerance="10"
     inkscape:pageopacity="0.0"
     inkscape:pageshadow="2"
     inkscape:zoom="28.412415"
     inkscape:cx="10.541675"
     inkscape:cy="13.56022"
     inkscape:document-units="px"
     inkscape:current-layer="layer1"
     showgrid="false"
     inkscape:window-width="1858"
     inkscape:window-height="1058"
     inkscape:window-x="54"
     inkscape:window-y="-8"
     fit-margin-top="5.6"
     fit-margin-left="0"
     fit-margin-right="0"
     fit-margin-bottom="5.6"
     inkscape:window-maximized="1" />
  <metadata
     id="metadata3523">
    <rdf:RDF>
      <cc:Work
         rdf:about="">
        <dc:format>image/svg+xml</dc:format>
        <dc:type
           rdf:resource="http://purl.org/dc/dcmitype/StillImage" />
        <dc:title></dc:title>
      </cc:Work>
    </rdf:RDF>
  </metadata>
  <g
     inkscape:label="Layer 1"
     inkscape:groupmode="layer"
     id="layer1"
     transform="translate(-88.583712,-140.28967)">
    <path
       style="fill:#ffffff;fill-opacity:1;stroke:#000000;stroke-width:0.2;stroke-miterlimit:4;stroke-dasharray:none;stroke-opacity:1"
       d="m 109.79786,159.32344 c 0.0725,-0.053 0.0727,-0.0647 0.005,-0.26903 -0.039,-0.11749 -0.10413,-0.25459 -0.14469,-0.30468 -0.0642,-0.0793 -0.0666,-0.10491 -0.0183,-0.19801 0.0305,-0.0588 0.0744,-0.10927 0.0976,-0.11213 0.0231,-0.003 0.0773,-0.008 0.12028,-0.0104 0.0945,-0.006 0.14116,-0.15472 0.0829,-0.26364 -0.03,-0.056 -0.0275,-0.0967 0.008,-0.14001 0.0514,-0.062 0.05,-0.068 -0.0871,-0.35778 -0.0407,-0.0861 -0.0419,-0.12651 -0.005,-0.17093 0.0373,-0.045 0.0341,-0.07 -0.0145,-0.11029 -0.0345,-0.0286 -0.0628,-0.0965 -0.0628,-0.15081 0,-0.0543 -0.0142,-0.0987 -0.0315,-0.0987 -0.0362,0 -0.15557,0.17414 -0.14532,0.212 0.004,0.0139 -0.0395,0.05 -0.0961,0.0803 -0.0566,0.0303 -0.11379,0.0984 -0.12707,0.15126 -0.0132,0.0529 -0.0395,0.0962 -0.0582,0.0962 -0.0187,0 -0.061,0.0269 -0.0939,0.0598 -0.0872,0.0872 -0.21699,0.0356 -0.3005,-0.11947 -0.0519,-0.0964 -0.10408,-0.13674 -0.18102,-0.14006 -0.0594,-0.003 -0.17899,-0.0116 -0.26565,-0.02 -0.0867,-0.008 -0.16645,-0.001 -0.17732,0.0166 -0.0291,0.0471 -0.17937,0.009 -0.29885,-0.0757 -0.14792,-0.10486 -0.18574,-0.12647 -0.27961,-0.15979 -0.0789,-0.028 -0.0781,-0.0308 0.0141,-0.0552 l 0.0971,-0.0257 -0.10751,-0.116 c -0.0591,-0.0638 -0.10751,-0.13373 -0.10751,-0.15539 0,-0.0216 -0.0195,-0.0394 -0.0433,-0.0394 -0.0238,0 -0.0939,-0.0476 -0.15568,-0.10583 -0.10516,-0.099 -0.13231,-0.10443 -0.42373,-0.0842 -0.44651,0.031 -0.49812,0.0399 -0.49869,0.0863 -2.9e-4,0.0229 -0.0657,0.0837 -0.14531,0.13531 -0.16461,0.10663 -0.18146,0.1747 -0.0618,0.24945 0.0928,0.058 0.1129,0.25377 0.0341,0.33262 -0.027,0.027 -0.0508,0.17495 -0.053,0.33005 -0.004,0.2475 -0.0179,0.29578 -0.11986,0.40429 l -0.11579,0.12322 -0.18344,-0.066 c -0.15047,-0.0541 -0.19647,-0.0564 -0.25593,-0.0129 -0.0592,0.0433 -0.0932,0.0423 -0.1852,-0.005 -0.10132,-0.0524 -0.12763,-0.0495 -0.26051,0.0289 -0.0813,0.048 -0.15861,0.13021 -0.1718,0.18277 -0.0169,0.0674 -0.0641,0.10308 -0.16008,0.12109 -0.0749,0.0141 -0.16919,0.0621 -0.20962,0.10677 -0.0404,0.0447 -0.0927,0.0694 -0.11616,0.0549 -0.0235,-0.0145 -0.15014,-0.0225 -0.28153,-0.0177 -0.19868,0.007 -0.2531,-0.007 -0.32322,-0.0819 -0.0549,-0.0589 -0.11429,-0.0827 -0.17013,-0.0681 -0.0577,0.0151 -0.0997,-0.004 -0.12825,-0.0568 -0.0531,-0.0992 -0.34686,-0.10891 -0.52257,-0.0173 -0.0654,0.0341 -0.15345,0.0621 -0.19567,0.0623 -0.087,2.9e-4 -0.31764,-0.22803 -0.31764,-0.31443 0,-0.0617 -0.20536,-0.1835 -0.30945,-0.1835 -0.1028,0 -0.37177,-0.15925 -0.40325,-0.23876 -0.0234,-0.059 -0.0293,-0.0543 -0.0316,0.0252 -0.002,0.0538 -0.0496,0.1533 -0.10671,0.22114 -0.10797,0.12832 -0.13624,0.31701 -0.0591,0.39419 0.0319,0.0319 0.014,0.0755 -0.063,0.15243 -0.0874,0.0874 -0.13301,0.10291 -0.24192,0.0823 -0.0738,-0.014 -0.15676,-0.0431 -0.1843,-0.0647 -0.0275,-0.0216 -0.0671,-0.0287 -0.0879,-0.0159 -0.0429,0.0265 -0.14745,-0.0824 -0.18759,-0.1953 -0.0199,-0.056 -0.0614,-0.072 -0.16199,-0.0623 -0.0744,0.007 -0.1539,-0.009 -0.17673,-0.0368 -0.0318,-0.0382 -0.0948,-0.0296 -0.26985,0.037 -0.12559,0.0478 -0.281476,0.0848 -0.346425,0.0823 -0.08463,-0.003 -0.111836,0.0118 -0.09603,0.053 0.02468,0.0643 -0.04032,0.0973 -0.259736,0.13203 -0.08188,0.013 -0.161764,0.0314 -0.177506,0.0411 -0.01574,0.01 -0.07179,-0.0283 -0.124546,-0.0844 -0.05771,-0.0613 -0.153288,-0.10718 -0.239916,-0.11507 -0.122403,-0.0111 -0.149759,-0.0333 -0.182447,-0.14802 -0.02118,-0.0742 -0.06377,-0.13492 -0.09472,-0.13492 -0.03489,0 -0.05627,-0.0475 -0.05627,-0.12522 0,-0.1023 -0.02666,-0.13794 -0.145717,-0.19471 -0.103868,-0.0495 -0.158529,-0.0567 -0.190323,-0.0249 -0.07031,0.0703 -0.201251,0.0132 -0.268663,-0.11713 -0.06505,-0.1258 -0.184087,-0.16265 -0.184087,-0.057 0,0.0342 -0.02803,0.0623 -0.06227,0.0623 -0.0488,0 -0.06227,-0.0568 -0.06227,-0.26232 0,-0.14427 -0.0293,-0.36096 -0.0651,-0.48152 -0.0358,-0.12057 -0.05644,-0.22786 -0.04586,-0.23844 0.01056,-0.0106 -0.02554,-0.0675 -0.0802,-0.12651 -0.123114,-0.13284 -0.123957,-0.16064 -0.006,-0.19847 0.08119,-0.026 0.07198,-0.0341 -0.07045,-0.0619 -0.118036,-0.023 -0.179639,-0.0162 -0.220309,0.0245 -0.05675,0.0567 -0.214648,0.0546 -0.356216,-0.005 -0.05945,-0.025 -0.06404,-0.0395 -0.02097,-0.0661 0.04332,-0.0268 0.03737,-0.0475 -0.02768,-0.0967 -0.04555,-0.0344 -0.105595,-0.0632 -0.133423,-0.0639 -0.02783,-5e-4 -0.03981,-0.0293 -0.02671,-0.0636 0.01747,-0.0456 -0.0052,-0.0623 -0.08433,-0.0623 -0.103401,0 -0.144676,-0.0743 -0.07822,-0.14072 0.0165,-0.0165 0.03412,-0.0944 0.03915,-0.17298 0.0075,-0.11704 -0.0055,-0.14297 -0.07153,-0.14297 -0.04438,0 -0.117025,-0.0364 -0.161454,-0.0808 -0.06463,-0.0646 -0.105823,-0.0736 -0.206085,-0.0448 -0.136764,0.0392 -0.508747,-0.027 -0.937838,-0.16683 -0.137003,-0.0447 -0.275646,-0.0812 -0.3081,-0.0812 -0.03245,0 -0.09199,-0.0299 -0.132311,-0.0663 -0.04032,-0.0365 -0.09093,-0.0555 -0.112475,-0.0422 -0.06388,0.0395 -0.08709,0.24881 -0.03504,0.31605 0.04159,0.0537 0.03854,0.0547 -0.02214,0.007 -0.110591,-0.0866 -0.26377,-0.0467 -0.251866,0.0656 0.01118,0.10541 -0.10087,0.12948 -0.192658,0.0414 -0.04417,-0.0424 -0.04989,-0.0215 -0.03123,0.11416 0.04996,0.36315 0.04952,0.37073 -0.02269,0.38538 -0.03884,0.008 -0.111042,-0.0321 -0.160447,-0.089 -0.04941,-0.0568 -0.112713,-0.0945 -0.140685,-0.0838 -0.06611,0.0253 -0.135492,-0.0611 -0.153592,-0.19142 -0.0088,-0.0634 -0.04626,-0.10945 -0.09695,-0.11913 -0.04543,-0.009 -0.108082,-0.0521 -0.139232,-0.0966 -0.03181,-0.0454 -0.08349,-0.0705 -0.117902,-0.0573 -0.03369,0.0129 -0.106485,0.0121 -0.161754,-0.002 -0.07672,-0.0192 -0.10049,-0.053 -0.10049,-0.14282 0,-0.14377 -0.06282,-0.19185 -0.120506,-0.0922 -0.03241,0.056 -0.03929,0.0261 -0.0288,-0.12515 0.01119,-0.16136 -10e-4,-0.2066 -0.06508,-0.24088 -0.04337,-0.0232 -0.07605,-0.0646 -0.07262,-0.0919 0.01533,-0.12215 -0.0086,-0.15804 -0.09701,-0.14574 -0.06977,0.01 -0.09671,-0.0103 -0.106466,-0.0788 -0.01161,-0.0817 -0.03113,-0.0893 -0.176441,-0.069 -0.09592,0.0134 -0.163384,0.006 -0.163384,-0.0184 0,-0.0227 -0.0794,-0.0373 -0.17644,-0.0323 -0.144193,0.007 -0.178782,0.0249 -0.189247,0.0963 -0.007,0.0481 -0.04044,0.0981 -0.07422,0.11101 -0.06783,0.026 -0.120762,-0.0681 -0.08732,-0.15524 0.04031,-0.10504 -0.03042,-0.14718 -0.207239,-0.12346 -0.134333,0.018 -0.177598,0.0438 -0.195942,0.11692 -0.02418,0.0963 -0.190511,0.17543 -0.190511,0.0906 0,-0.0258 -0.02965,-0.005 -0.06588,0.0472 -0.05023,0.0717 -0.05461,0.10763 -0.01845,0.15119 0.03673,0.0442 0.03052,0.0666 -0.02753,0.0993 -0.07043,0.0396 -0.0691,0.0476 0.02201,0.13282 0.06618,0.0619 0.08943,0.11875 0.07322,0.17914 -0.01306,0.0486 -0.024,0.11184 -0.02431,0.14038 -3.12e-4,0.0285 -0.02859,0.0519 -0.06284,0.0519 -0.07502,0 -0.08331,0.14816 -0.0108,0.19298 0.115682,0.0715 -0.160979,0.0807 -0.326967,0.0108 -0.150262,-0.0632 -0.185614,-0.065 -0.283118,-0.0144 -0.06128,0.0318 -0.124128,0.056 -0.139664,0.0538 -0.132703,-0.0186 -0.174317,0.0131 -0.165696,0.12629 0.005,0.0662 -0.01454,0.149 -0.04353,0.18393 -0.04372,0.0527 -0.03903,0.0708 0.02754,0.10646 0.04414,0.0236 0.09205,0.0311 0.106469,0.0167 0.01442,-0.0144 0.02622,-0.005 0.02622,0.0222 0,0.0287 -0.06643,0.0484 -0.162763,0.0484 -0.176412,0 -0.165725,-0.0175 -0.234835,0.38402 -0.02025,0.11766 -0.04662,0.15569 -0.107937,0.15569 -0.172913,0 -0.241743,-0.0765 -0.241743,-0.26886 0,-0.10061 -0.0199,-0.19521 -0.04422,-0.21024 -0.02431,-0.015 -0.04102,-0.0768 -0.03712,-0.13737 0.01853,-0.2874 -0.0017,-0.35882 -0.120505,-0.42642 -0.09753,-0.0555 -0.122258,-0.10257 -0.140959,-0.26849 -0.01247,-0.11067 -0.04359,-0.20819 -0.06915,-0.21671 -0.06239,-0.0208 -0.169271,-0.23275 -0.169271,-0.33569 0,-0.0455 -0.03535,-0.1075 -0.07857,-0.13777 -0.06717,-0.047 -0.0822,-0.12896 -0.103601,-0.56475 l -0.02504,-0.50972 0.100248,0.10817 c 0.08837,0.0953 0.110489,0.10177 0.186633,0.0542 0.06941,-0.0434 0.102701,-0.0438 0.169413,-0.002 0.07455,0.0466 0.08303,0.0414 0.08303,-0.0498 0,-0.0559 0.01868,-0.11324 0.04151,-0.12735 0.02283,-0.0141 0.04166,-0.0106 0.04184,0.008 3.24e-4,0.0336 0.194458,0.13737 0.257045,0.13737 0.06269,0 0.03326,-0.12041 -0.03941,-0.1612 -0.0642,-0.0361 -0.06504,-0.0437 -0.0072,-0.066 0.08166,-0.0315 0.287389,0.0433 0.287389,0.10445 0,0.0606 0.176615,0.005 0.220019,-0.0695 0.01826,-0.0313 0.06029,-0.0568 0.09341,-0.0568 0.03311,0 0.06021,-0.0165 0.06021,-0.0367 0,-0.0202 0.03736,-0.0465 0.08303,-0.0584 0.102521,-0.0268 0.113151,-0.2406 0.02077,-0.41773 -0.03396,-0.0651 -0.05096,-0.16137 -0.03778,-0.2139 0.0201,-0.0801 0.0041,-0.0999 -0.09906,-0.12252 -0.10606,-0.0233 -0.121681,-0.0441 -0.113268,-0.15106 0.0054,-0.0682 0.04982,-0.16138 0.09879,-0.207 0.106293,-0.099 0.10814,-0.11698 0.02433,-0.23664 -0.06111,-0.0872 -0.05886,-0.0946 0.04036,-0.13232 0.06227,-0.0237 0.116529,-0.0857 0.133225,-0.15217 0.02368,-0.0943 0.0034,-0.13492 -0.127238,-0.25464 l -0.155406,-0.14243 0.115407,-0.12045 c 0.13652,-0.1425 0.165977,-0.14816 0.194932,-0.0374 0.01592,0.0609 0.05663,0.083 0.152596,0.083 0.08509,0 0.120949,-0.0161 0.102491,-0.046 -0.03982,-0.0644 0.06319,-0.37155 0.161874,-0.48267 0.04528,-0.051 0.116737,-0.10362 0.158793,-0.11696 0.07966,-0.0253 0.107727,-0.20203 0.03885,-0.2446 -0.02069,-0.0128 -0.0284,-0.0585 -0.01714,-0.10156 0.01126,-0.0431 1.67e-4,-0.0909 -0.02465,-0.10619 -0.0674,-0.0416 -0.05446,-0.14754 0.01803,-0.14754 0.03474,0 0.08444,-0.0467 0.110452,-0.1038 0.02601,-0.0571 0.07231,-0.10378 0.102899,-0.10378 0.03059,0 0.05561,-0.018 0.05561,-0.0401 0,-0.022 0.0402,-0.0616 0.08933,-0.0879 0.07608,-0.0407 0.08551,-0.0379 0.06358,0.0193 -0.03434,0.0895 0.03606,0.0857 0.104216,-0.006 0.02983,-0.04 0.143869,-0.11488 0.253405,-0.16648 0.21644,-0.10196 0.319241,-0.0831 0.403326,0.074 0.07447,0.13915 0.126982,0.0944 0.09846,-0.084 -0.01845,-0.11538 -0.01152,-0.16607 0.02272,-0.16607 0.0271,0 0.03649,-0.0207 0.02087,-0.046 -0.01853,-0.03 -0.0014,-0.0374 0.04945,-0.0215 0.16505,0.0519 0.532947,0.10894 0.703284,0.10894 0.178085,0 0.333457,-0.0924 0.285609,-0.16979 -0.04428,-0.0716 0.0264,-0.1985 0.118429,-0.21259 0.05029,-0.008 0.08678,-0.0369 0.08107,-0.0649 -0.0057,-0.028 0.02698,-0.0509 0.07265,-0.0509 0.05128,0 0.08315,-0.0278 0.08335,-0.0727 3.13e-4,-0.07 0.167343,-0.17645 0.276847,-0.17645 0.02917,0 0.08591,-0.0514 0.126077,-0.11416 0.100712,-0.15742 0.180847,-0.21498 0.302515,-0.21727 0.145407,-0.003 0.192903,-0.0434 0.225306,-0.19281 0.02372,-0.10943 0.05163,-0.13366 0.177496,-0.15408 0.109764,-0.0178 0.179187,-0.003 0.261975,0.056 0.06195,0.0441 0.121875,0.071 0.133169,0.0597 0.01127,-0.0113 0.04535,0.009 0.07567,0.0459 0.03611,0.0435 0.04047,0.0761 0.01265,0.0944 -0.05578,0.0367 -0.100166,0.21479 -0.05354,0.21479 0.01991,0 0.05859,0.0419 0.08599,0.0931 0.06123,0.11442 0.05038,0.98139 -0.0132,1.05805 -0.02392,0.0288 -0.113385,0.0734 -0.198773,0.099 -0.127883,0.0383 -0.173103,0.0348 -0.256446,-0.0198 -0.15178,-0.0994 -0.286452,-0.51988 -0.285111,-0.89008 4.27e-4,-0.1185 -0.07041,-0.082 -0.133111,0.0686 -0.05948,0.14286 -0.06224,0.15391 -0.06838,0.27341 -0.0034,0.0661 -0.0375,0.11079 -0.0986,0.12932 -0.16072,0.0488 -0.280229,0.18907 -0.280229,0.32908 0,0.0714 -0.02242,0.15218 -0.04982,0.17958 -0.03279,0.0328 -0.03445,0.0498 -0.0048,0.0498 0.02474,0 0.05475,0.0374 0.06669,0.083 0.02424,0.0927 0.131087,0.11091 0.182719,0.0311 0.01847,-0.0285 0.03359,-0.0982 0.03359,-0.15478 0,-0.0642 0.02687,-0.10819 0.07149,-0.11699 0.05708,-0.0113 0.07043,0.0142 0.06622,0.12621 -0.0106,0.28207 0.184648,0.42195 0.265446,0.19017 0.04347,-0.12469 0.04514,-0.12528 0.275366,-0.0965 0.140009,0.0175 0.251642,0.0561 0.282217,0.0975 0.02828,0.0384 0.03346,0.0747 0.01173,0.0825 -0.06517,0.0234 0.0025,0.0899 0.09161,0.0899 0.09994,0 0.187489,-0.0797 0.208487,-0.18976 0.0086,-0.0448 0.05585,-0.0859 0.107443,-0.0933 0.05068,-0.007 0.128015,-0.0588 0.171844,-0.11447 0.05037,-0.0641 0.104117,-0.0919 0.146133,-0.0758 0.07784,0.0299 0.08093,0.0561 0.02422,0.20524 -0.03194,0.084 -0.05517,0.10025 -0.09557,0.0667 -0.09357,-0.0777 -0.225895,-0.01 -0.245811,0.12573 -0.02382,0.16237 0.06844,0.25822 0.213697,0.22199 0.259427,-0.0647 0.596294,-0.0354 0.699573,0.0608 0.05173,0.0482 0.09925,0.0655 0.114065,0.0415 0.01396,-0.0226 0.06455,-0.0411 0.112414,-0.0411 0.08411,0 0.08453,0.003 0.01259,0.0823 -0.06237,0.0689 -0.0656,0.0929 -0.01991,0.14797 0.03326,0.0401 0.08991,0.0568 0.145209,0.043 0.05734,-0.0144 0.115416,0.005 0.158006,0.0517 0.04189,0.0463 0.115984,0.071 0.196168,0.0655 0.115883,-0.008 0.126379,0.001 0.104467,0.0881 -0.02067,0.0823 -0.0099,0.0955 0.07088,0.0869 0.137161,-0.0146 0.195529,-0.0606 0.195529,-0.15401 0,-0.14881 0.115273,-0.1355 0.2685,0.031 0.145296,0.15788 0.215485,0.29139 0.174657,0.33222 -0.01158,0.0116 0.01528,0.0575 0.05978,0.10196 0.04448,0.0445 0.09197,0.13632 0.105518,0.20411 0.01356,0.0678 0.04804,0.12325 0.07666,0.12325 0.08548,0 0.154029,-0.11434 0.124439,-0.20757 -0.01528,-0.0481 -0.0052,-0.11397 0.0224,-0.1473 0.03529,-0.0426 0.03631,-0.0603 0.0036,-0.0603 -0.07329,0 -0.05458,-0.12206 0.03641,-0.23777 0.04565,-0.0581 0.08303,-0.14974 0.08303,-0.20374 0,-0.0697 0.02351,-0.0982 0.08093,-0.0982 0.04453,0 0.169929,-0.0841 0.278703,-0.18682 0.108773,-0.10275 0.201911,-0.18682 0.206974,-0.18682 0.0051,0 0.05713,0.0182 0.1157,0.0405 0.143812,0.0547 0.138465,0.19448 -0.01442,0.37624 -0.08771,0.10429 -0.115146,0.1732 -0.09996,0.2511 0.01295,0.0666 -0.0041,0.13251 -0.04519,0.17348 -0.03636,0.0364 -0.06611,0.0826 -0.06611,0.10278 0,0.0202 -0.03773,0.11482 -0.08388,0.21031 -0.05294,0.10958 -0.07429,0.21184 -0.05787,0.27726 0.01879,0.0749 0.0069,0.11099 -0.04306,0.13014 -0.03798,0.0146 -0.05901,0.0527 -0.04672,0.0847 0.01376,0.0359 -0.01716,0.0733 -0.08065,0.0974 -0.05665,0.0215 -0.102994,0.0569 -0.102994,0.0787 0,0.0217 -0.06042,0.0696 -0.134266,0.10648 -0.124927,0.0623 -0.137917,0.062 -0.186819,-0.005 -0.0289,-0.0396 -0.05255,-0.0567 -0.05255,-0.0381 0,0.0186 -0.02803,0.0105 -0.06227,-0.0179 -0.03773,-0.0313 -0.06227,-0.0346 -0.06227,-0.008 0,0.10577 0.06176,0.18188 0.191603,0.23613 0.126252,0.0528 0.158397,0.0504 0.327006,-0.0242 0.243994,-0.10793 0.413405,-0.26802 0.423861,-0.40054 0.01102,-0.1396 0.05579,-0.17914 0.169238,-0.14947 0.106143,0.0278 0.168584,0.20379 0.0975,0.27487 -0.05791,0.0579 -0.06189,0.23775 -0.0053,0.23775 0.02285,0 0.08072,0.0392 0.128644,0.0871 l 0.08713,0.0871 -0.03087,-0.0974 c -0.01701,-0.0535 -0.06062,-0.11909 -0.09696,-0.14565 -0.06006,-0.0439 -0.05952,-0.0555 0.006,-0.12798 0.03966,-0.0438 0.0721,-0.12009 0.0721,-0.16949 0,-0.1087 -0.155873,-0.29779 -0.246197,-0.29867 -0.03585,-3.5e-4 -0.08924,-0.0159 -0.118671,-0.0346 -0.06692,-0.0425 -0.003,-0.23179 0.123383,-0.36701 0.06109,-0.0652 0.08045,-0.13073 0.06861,-0.23219 -0.01645,-0.14076 0.03925,-0.23741 0.136723,-0.23741 0.02773,0 0.08921,-0.0327 0.136678,-0.0727 0.08407,-0.0708 0.08463,-0.0705 0.02179,0.0104 -0.0355,0.0457 -0.06956,0.14352 -0.07573,0.21744 -0.0091,0.10967 0.0084,0.14338 0.09564,0.18311 0.05878,0.0268 0.106864,0.0644 0.106864,0.0835 0,0.0191 0.02742,0.0348 0.06097,0.0348 0.07825,0 0.03534,-0.12473 -0.06862,-0.19956 -0.09121,-0.0656 -0.09937,-0.17409 -0.0131,-0.17409 0.03423,0 0.06227,0.0187 0.06227,0.0415 0,0.0229 0.03021,0.0415 0.06711,0.0415 0.04586,0 0.06048,-0.0254 0.04616,-0.0801 -0.01534,-0.0586 -5.08e-4,-0.0786 0.05455,-0.0744 0.04154,0.003 0.06635,0.0205 0.05517,0.0386 -0.01117,0.0181 0.0084,0.0329 0.04362,0.0329 0.03514,0 0.0757,0.0469 0.09011,0.10415 0.0158,0.0631 0.0652,0.11396 0.12533,0.12905 0.12089,0.0304 0.12836,0.0816 0.0161,0.11095 -0.0567,0.0148 -0.083,0.0566 -0.083,0.13184 0,0.0695 0.0169,0.0997 0.0456,0.0819 0.0271,-0.0168 0.0235,0.0118 -0.009,0.0702 -0.03,0.0541 -0.0486,0.1171 -0.0413,0.13993 0.0157,0.0496 0.0384,0.15382 0.0428,0.1972 0.005,0.0457 0.12773,0.0381 0.12773,-0.008 0,-0.0215 -0.018,-0.0502 -0.0399,-0.0637 -0.0255,-0.0158 -0.0255,-0.0625 0,-0.1297 0.0219,-0.0578 0.0399,-0.16108 0.0399,-0.2296 0,-0.0685 0.0204,-0.16271 0.0453,-0.20933 0.0328,-0.0613 0.0328,-0.0973 0,-0.13012 -0.0249,-0.0249 -0.0453,-0.0723 -0.0453,-0.10513 0,-0.0329 -0.0278,-0.0805 -0.0618,-0.10587 -0.0444,-0.0331 -0.0547,-0.089 -0.0366,-0.19835 l 0.0251,-0.15226 0.28571,0.007 c 0.20144,0.005 0.2857,0.0227 0.28573,0.0603 2e-5,0.0392 0.0206,0.0423 0.0776,0.0118 0.0588,-0.0314 0.0754,-0.0817 0.0683,-0.2069 -0.006,-0.11123 0.01,-0.17276 0.0496,-0.18797 0.0324,-0.0124 0.0486,-0.0393 0.0359,-0.0598 -0.0329,-0.0532 0.23464,-0.17091 0.38858,-0.17091 0.0772,0 0.13967,-0.0253 0.15386,-0.0623 0.0266,-0.0692 0.13956,-0.086 0.13956,-0.0208 0,0.0229 0.0336,0.0415 0.0748,0.0415 0.0928,0 0.29813,-0.0928 0.29855,-0.13492 1.8e-4,-0.0171 0.0438,-0.0311 0.0969,-0.0311 0.0828,0 0.0941,-0.0171 0.0791,-0.11923 -0.0222,-0.15139 0.17788,-0.36425 0.2703,-0.28753 0.0457,0.0379 0.0461,0.053 0.002,0.0813 -0.0431,0.0279 -0.0414,0.043 0.008,0.0757 0.0342,0.0225 0.0856,0.0412 0.11417,0.0415 0.0285,3.5e-4 0.0519,0.038 0.0519,0.0837 0,0.0971 0.0748,0.11124 0.10953,0.0208 0.037,-0.0964 0.2205,-0.0737 0.37856,0.0468 0.10988,0.0838 0.13003,0.11768 0.0869,0.14609 -0.0456,0.0301 -0.0425,0.0474 0.0166,0.0927 0.10435,0.08 0.0912,0.13634 -0.0723,0.30877 -0.0797,0.0841 -0.14513,0.17228 -0.14531,0.19596 -2.1e-4,0.0237 -0.0844,0.13204 -0.18718,0.24081 -0.10276,0.10878 -0.18622,0.22018 -0.1855,0.24756 5e-4,0.0279 0.0255,0.0179 0.0565,-0.0229 0.0303,-0.04 0.0939,-0.0726 0.14118,-0.0726 0.0506,0 0.0973,-0.0354 0.11335,-0.086 0.0161,-0.0507 0.0508,-0.077 0.0846,-0.064 0.0315,0.0121 0.0846,-0.005 0.11781,-0.0385 0.0786,-0.0786 0.21705,-0.0776 0.24752,0.002 0.0131,0.0342 0.0443,0.0623 0.0692,0.0623 0.0249,0 0.035,-0.0166 0.0224,-0.037 -0.0335,-0.0543 0.16375,-0.17061 0.2893,-0.17061 0.0595,0 0.13624,0.028 0.17049,0.0623 0.0802,0.0802 0.27608,0.0796 0.43274,-0.002 0.10504,-0.0543 0.11668,-0.0758 0.0791,-0.14616 -0.061,-0.11403 -0.0167,-0.16529 0.11932,-0.13808 0.0764,0.0153 0.13307,0.001 0.16912,-0.0423 0.0489,-0.0589 0.0663,-0.0568 0.17675,0.0219 0.0708,0.0504 0.11318,0.11156 0.10042,0.14481 -0.0126,0.0329 0.004,0.0576 0.0389,0.0576 0.0698,0 0.0816,0.0654 0.0188,0.1042 -0.0607,0.0375 -0.002,0.1133 0.0672,0.0867 0.0378,-0.0145 0.0581,0.007 0.0581,0.0605 0,0.0513 0.0434,0.10056 0.11416,0.12953 0.1618,0.0663 0.28337,0.0616 0.26531,-0.0103 -0.008,-0.0327 -0.0213,-0.12046 -0.0291,-0.19517 -0.0119,-0.11407 -0.004,-0.12991 0.052,-0.0988 0.0954,0.0534 0.22037,0.009 0.22037,-0.0781 0,-0.0954 0.0779,-0.1222 0.19833,-0.0682 0.11942,0.0536 0.23606,-0.0323 0.13345,-0.0982 -0.0515,-0.0331 -0.0466,-0.044 0.0287,-0.0647 0.0811,-0.0222 0.0855,-0.0365 0.0423,-0.13492 -0.0266,-0.0605 -0.0654,-0.12218 -0.0863,-0.137 -0.0209,-0.0148 -0.023,-0.0615 -0.005,-0.10378 0.0184,-0.0423 0.0314,-0.0878 0.029,-0.10125 -0.003,-0.0134 0.074,-0.0644 0.16985,-0.11324 0.14496,-0.0739 0.17645,-0.0786 0.18762,-0.0275 0.0163,0.0746 0.0887,0.0818 0.0945,0.009 0.002,-0.0285 0.0171,-0.005 0.033,0.0519 0.0447,0.16092 0.10679,0.12267 0.12102,-0.0746 0.0106,-0.14627 0.0316,-0.18554 0.11687,-0.21795 0.15267,-0.058 0.1902,-0.049 0.16216,0.0394 -0.0232,0.073 -0.0118,0.076 0.14947,0.0398 0.096,-0.0216 0.20232,-0.0285 0.23629,-0.0155 0.0681,0.0262 0.25644,-0.12886 0.25644,-0.21103 0,-0.0285 0.0483,-0.10932 0.10748,-0.17958 0.0894,-0.1062 0.1376,-0.12773 0.28617,-0.12773 0.12053,0 0.18646,0.0203 0.20258,0.0623 0.0515,0.13407 0.37407,0.0315 0.35616,-0.11323 -0.0141,-0.11352 0.0601,-0.24783 0.1572,-0.28475 0.056,-0.0213 0.12334,-0.0956 0.14958,-0.16511 0.0339,-0.0899 0.0688,-0.12087 0.12075,-0.10729 0.0402,0.0105 0.0845,5.1e-4 0.0985,-0.0221 0.014,-0.0227 0.0601,-0.0322 0.10231,-0.0211 0.0422,0.0111 0.0985,-0.006 0.12494,-0.0379 0.0687,-0.0828 -0.0243,-0.18253 -0.17026,-0.18253 -0.16359,0 -0.18082,-0.0993 -0.0429,-0.24697 0.0651,-0.0697 0.10978,-0.12668 0.0993,-0.12668 -0.0105,0 0.0147,-0.0599 0.056,-0.13319 0.11378,-0.20208 0.27439,-0.32985 0.65622,-0.52203 0.0685,-0.0345 0.15606,-0.0898 0.19458,-0.12295 0.0385,-0.0332 0.0879,-0.0492 0.10981,-0.0357 0.0219,0.0135 0.0512,-0.005 0.0652,-0.0417 0.0155,-0.0403 0.0516,-0.0563 0.092,-0.0408 0.0493,0.0189 0.0597,0.008 0.0402,-0.0431 -0.0232,-0.0605 0.003,-0.0659 0.22371,-0.0459 0.19784,0.0179 0.25004,0.0105 0.25004,-0.0357 0,-0.0345 -0.0423,-0.0583 -0.10379,-0.0583 -0.1205,0 -0.12846,-0.0228 -0.0392,-0.1121 0.0355,-0.0356 0.0552,-0.0893 0.0436,-0.11946 -0.0121,-0.0315 0.0178,-0.0668 0.0703,-0.0831 0.0502,-0.0156 0.14267,-0.0645 0.20546,-0.10874 0.12005,-0.0846 0.1156,-0.088 0.13078,0.10168 0.002,0.0285 0.0229,0.0659 0.0457,0.083 0.0261,0.0195 0.0188,0.0457 -0.0196,0.0704 -0.0336,0.0216 -0.0511,0.0492 -0.039,0.0613 0.022,0.022 0.17633,0.0566 0.27896,0.0624 0.0306,0.002 0.0412,0.0243 0.0243,0.0516 -0.0202,0.0326 -0.007,0.0399 0.0391,0.022 0.0451,-0.0173 0.0691,-0.005 0.0691,0.0345 0,0.0335 -0.0187,0.061 -0.0415,0.061 -0.0229,0 -0.0376,0.014 -0.0329,0.0311 0.005,0.0171 -0.0469,0.0891 -0.11468,0.15988 -0.0996,0.10407 -0.13689,0.12017 -0.1943,0.0839 -0.0558,-0.0352 -0.0843,-0.0272 -0.13309,0.0373 -0.0341,0.0451 -0.0627,0.12415 -0.0634,0.17552 -0.001,0.071 -0.0256,0.0934 -0.10266,0.0934 -0.0557,0 -0.11288,-0.0187 -0.127,-0.0415 -0.0382,-0.0618 -0.0915,-0.0503 -0.12082,0.026 -0.0321,0.0836 0.0934,0.18643 0.19152,0.15693 0.051,-0.0153 0.0947,0.0258 0.15683,0.14758 0.0943,0.18478 0.0706,0.29343 -0.0816,0.37491 -0.0511,0.0274 -0.0711,0.0677 -0.0546,0.11056 0.0238,0.0621 0.0298,0.0621 0.0757,-5.1e-4 0.0274,-0.0374 0.0898,-0.0681 0.13862,-0.0681 0.0489,0 0.0888,-0.02 0.0888,-0.0443 0,-0.0517 0.17302,-0.007 0.21277,0.0543 0.0163,0.0254 0.0362,0.0238 0.0535,-0.004 0.0353,-0.0571 0.32631,-0.0488 0.3649,0.0104 0.0343,0.0526 -0.12245,0.23292 -0.20252,0.23292 -0.0684,0 -0.0727,0.0702 -0.006,0.0926 0.0308,0.0103 0.0536,0.1309 0.0605,0.31931 0.006,0.16657 0.0311,0.36348 0.0556,0.43758 0.0245,0.0741 0.0517,0.1725 0.0606,0.21867 0.009,0.0462 0.0349,0.15165 0.0577,0.23442 0.0394,0.14262 0.0364,0.15048 -0.0578,0.15048 -0.1237,0 -0.22385,0.17745 -0.23308,0.413 -0.006,0.1433 -0.0154,0.1598 -0.0688,0.11577 -0.0541,-0.0446 -0.0591,-0.0283 -0.0387,0.12509 0.0171,0.12845 0.009,0.17645 -0.03,0.17645 -0.0892,0 -0.10825,0.17609 -0.0306,0.2836 0.0392,0.0543 0.11795,0.18528 0.17503,0.29117 0.1034,0.19179 0.24909,0.28233 0.24909,0.15479 0,-0.036 0.0302,-0.0653 0.0671,-0.0653 0.0458,0 0.0605,0.0254 0.0463,0.0797 -0.0155,0.0594 0.007,0.0876 0.0886,0.11059 0.0602,0.017 0.12536,0.0272 0.14485,0.0226 0.0195,-0.005 0.0709,0.003 0.11417,0.0168 0.0932,0.0296 0.10627,0.14394 0.0164,0.14394 -0.0343,0 -0.0623,0.0348 -0.0623,0.0774 0,0.11148 0.15804,0.29621 0.25341,0.29621 0.0974,0 0.15022,0.11116 0.0842,0.17716 -0.0259,0.0258 -0.047,0.1154 -0.047,0.19897 0,0.11189 0.0263,0.17165 0.0996,0.22673 0.0947,0.0711 0.0968,0.0826 0.0434,0.23414 -0.0447,0.12684 -0.0455,0.15937 -0.004,0.15937 0.069,0 0.23428,0.38108 0.23428,0.54009 0,0.16325 -0.10702,0.165 -0.25875,0.004 -0.0622,-0.066 -0.19266,-0.16134 -0.28981,-0.21198 -0.34614,-0.18041 -0.98751,-0.77259 -0.98751,-0.91177 0,-0.11065 -0.0867,-0.29241 -0.13952,-0.29241 -0.0262,0 -0.0235,-0.0196 0.007,-0.0498 0.0737,-0.0737 0.0642,-0.50929 -0.0124,-0.57292 -0.0342,-0.0284 -0.0623,-0.0856 -0.0623,-0.12717 0,-0.0415 -0.0196,-0.0876 -0.0435,-0.1024 -0.0303,-0.0187 -0.0303,-0.0429 2.1e-4,-0.0796 0.0312,-0.0376 0.0232,-0.10822 -0.0281,-0.24643 -0.0598,-0.16124 -0.0629,-0.20804 -0.0186,-0.27899 0.0604,-0.0968 0.0352,-0.14543 -0.17291,-0.33352 -0.075,-0.0678 -0.12113,-0.15079 -0.12113,-0.21795 0,-0.12521 -0.0599,-0.1406 -0.13939,-0.0359 -0.077,0.10139 -0.0709,0.16582 0.0252,0.26904 0.047,0.0505 0.083,0.14651 0.083,0.22141 0,0.0727 0.0114,0.18932 0.0253,0.25902 0.0204,0.10206 0.0121,0.12479 -0.0425,0.11678 -0.0373,-0.005 -0.0965,-0.0508 -0.13149,-0.10079 -0.0735,-0.10497 -0.14194,-0.11873 -0.14194,-0.0285 0,0.0343 -0.0298,0.0623 -0.0662,0.0623 -0.0364,0 -0.0759,0.0374 -0.0879,0.083 -0.0119,0.0457 -0.0367,0.083 -0.0551,0.083 -0.0589,0 -0.0917,0.24901 -0.0409,0.3102 0.0263,0.0317 0.0586,0.16642 0.0717,0.29929 0.0131,0.13286 0.0506,0.29463 0.0833,0.35947 0.0572,0.11328 0.0627,0.11506 0.13957,0.0454 0.0469,-0.0425 0.08,-0.0525 0.08,-0.0242 0,0.0265 -0.0467,0.0888 -0.10379,0.13846 -0.0571,0.0496 -0.10378,0.11616 -0.10378,0.14783 0,0.0378 -0.0273,0.049 -0.0795,0.0324 -0.0437,-0.0139 -0.0905,-0.008 -0.10383,0.0141 -0.0134,0.0216 -0.0616,0.0296 -0.10728,0.0176 -0.0577,-0.0151 -0.083,-0.001 -0.083,0.0454 0,0.0369 -0.014,0.0649 -0.0311,0.0622 -0.12342,-0.0195 -0.18091,0.0169 -0.20324,0.12853 -0.0254,0.12717 -0.0823,0.19233 -0.23708,0.27159 -0.0489,0.025 -0.0863,0.0778 -0.083,0.11724 0.004,0.0496 -0.009,0.0595 -0.0417,0.0321 -0.0324,-0.0269 -0.0971,0.006 -0.20173,0.10153 -0.2329,0.21344 -0.29497,0.3278 -0.26492,0.48802 0.0143,0.0759 0.0118,0.15216 -0.005,0.16936 -0.0172,0.0172 -0.0346,0.12427 -0.0388,0.23794 -0.004,0.11366 -0.0274,0.23073 -0.0519,0.26014 -0.0244,0.0294 -0.0426,0.17536 -0.0403,0.32433 0.002,0.14897 -0.0166,0.30951 -0.0419,0.35675 -0.0253,0.0472 -0.046,0.13273 -0.046,0.18997 0,0.0572 -0.0187,0.11561 -0.0415,0.12973 -0.0229,0.0141 -0.0415,0.0619 -0.0415,0.10624 0,0.0615 0.0289,0.0806 0.1221,0.0806 0.0671,0 0.13355,-0.0185 0.14756,-0.0412 0.0141,-0.0228 0.0703,0.01 0.1257,0.0727 0.0803,0.0913 0.10048,0.0994 0.10151,0.0412 0.002,-0.0883 0.0843,-0.0985 0.0843,-0.0104 0,0.0343 0.028,0.0623 0.0623,0.0623 0.0342,0 0.0623,-0.028 0.0623,-0.0623 0,-0.0343 0.028,-0.0623 0.0623,-0.0623 0.0709,0 0.0845,-0.10593 0.0187,-0.14655 -0.0807,-0.0499 0.051,-0.15287 0.16572,-0.12969 0.25162,0.0508 0.38002,0.0915 0.37875,0.11986 -5.1e-4,0.0168 0.0653,0.0971 0.14684,0.17865 0.0932,0.0932 0.13904,0.1721 0.12349,0.21261 -0.0328,0.0854 0.0536,0.36629 0.14167,0.46088 0.0386,0.0414 0.12014,0.17481 0.18121,0.29641 0.11071,0.22041 0.111,0.22344 0.0924,0.97409 -0.0197,0.79552 -0.0309,0.93293 -0.0828,1.01693 -0.0177,0.0287 -0.0213,0.0958 -0.008,0.14907 0.0314,0.12522 -0.1165,0.46113 -0.25978,0.58994 -0.0913,0.0821 -0.13891,0.0945 -0.28517,0.0747 l -0.17557,-0.0238 -0.0269,0.16847 c -0.0214,0.13382 -0.0445,0.16848 -0.1126,0.16848 -0.0816,0 -0.0821,-0.003 -0.01,-0.0554 z m 1.99873,-2.06508 c -0.0626,-0.0703 -0.10366,-0.15435 -0.0912,-0.18682 0.0124,-0.0325 0.006,-0.059 -0.0145,-0.059 -0.0423,0 -0.1678,-0.235 -0.1678,-0.31436 0,-0.0289 -0.0632,-0.0916 -0.14042,-0.13929 -0.0772,-0.0477 -0.16486,-0.14733 -0.19474,-0.22134 -0.0299,-0.074 -0.11777,-0.21863 -0.19531,-0.32138 -0.0775,-0.10275 -0.16643,-0.24754 -0.19754,-0.32175 -0.0377,-0.09 -0.0849,-0.13492 -0.1417,-0.13492 -0.0852,0 -0.25121,-0.13383 -0.25121,-0.20249 0,-0.0201 -0.028,-0.0597 -0.0623,-0.0881 -0.0343,-0.0284 -0.0623,-0.0806 -0.0623,-0.11598 0,-0.0353 -0.0319,-0.0996 -0.071,-0.14275 -0.0552,-0.061 -0.0593,-0.0857 -0.0183,-0.111 0.074,-0.0458 0.0141,-0.25874 -0.0797,-0.28327 -0.0431,-0.0113 -0.0649,-0.0439 -0.052,-0.0776 0.0346,-0.0902 0.0944,-0.069 0.13952,0.0496 0.0226,0.0593 0.0781,0.11752 0.12352,0.12939 0.0454,0.0119 0.0825,0.048 0.0825,0.0803 0,0.0323 0.0327,0.0704 0.0726,0.0846 0.12722,0.0453 0.18017,0.10379 0.13904,0.15344 -0.0493,0.0596 0.0606,0.19504 0.21384,0.26347 0.0628,0.028 0.11417,0.0701 0.11417,0.0934 0,0.0233 0.0205,0.0424 0.0455,0.0424 0.025,0 0.16048,0.10085 0.30099,0.22411 0.14051,0.12325 0.32086,0.2525 0.40078,0.28722 l 0.1453,0.0631 -0.1985,0.004 c -0.24162,0.004 -0.26695,0.0506 -0.17506,0.32127 0.0923,0.27199 0.22034,0.47063 0.3043,0.47223 0.0381,5.1e-4 0.10564,0.0288 0.15011,0.0625 0.0445,0.0336 0.11141,0.0515 0.14875,0.0396 0.09,-0.0285 0.19662,0.18341 0.11701,0.23261 -0.0286,0.0177 -0.0689,0.0217 -0.0896,0.009 -0.0207,-0.0127 -0.0122,-0.0393 0.0188,-0.0589 0.0414,-0.0263 0.0426,-0.0358 0.005,-0.0363 -0.0896,-0.001 -0.21186,0.14977 -0.17217,0.21243 0.10263,0.16201 10e-4,0.15593 -0.14591,-0.009 z m -0.1872,-0.13861 c -0.002,-0.0438 0.008,-0.0683 0.0218,-0.0545 0.0138,0.0138 0.0153,0.0496 0.003,0.0796 -0.0133,0.0331 -0.0231,0.0233 -0.0251,-0.0251 z m 1.15915,-0.17753 c 0,-0.11807 0.0205,-0.17777 0.067,-0.19563 0.0571,-0.0219 0.0628,-0.003 0.0383,0.13048 -0.042,0.22875 -0.10528,0.26788 -0.10528,0.0651 z m 0.15338,-0.28836 c -0.0584,-0.0584 -0.0312,-0.42034 0.0334,-0.44516 0.0342,-0.0132 0.0623,-0.0525 0.0623,-0.0875 0,-0.035 0.0187,-0.0636 0.0415,-0.0636 0.0566,0 0.0523,0.0471 -0.0204,0.22094 -0.034,0.0814 -0.0512,0.17598 -0.038,0.21012 0.0278,0.0726 -0.0365,0.20745 -0.0788,0.16515 z m 0.22318,-0.83248 c -0.002,-0.0729 0.0157,-0.14402 0.0386,-0.15813 0.0498,-0.0308 0.0498,0.0917 0,0.20758 -0.0301,0.07 -0.0361,0.0622 -0.0386,-0.0495 z m 0.12818,-0.63556 c 0,-0.0571 0.009,-0.0804 0.0209,-0.0519 0.0115,0.0285 0.0115,0.0752 0,0.10378 -0.0115,0.0285 -0.0209,0.005 -0.0209,-0.0519 z m -4.13734,-0.20758 c -0.0141,-0.0229 -0.006,-0.0415 0.0183,-0.0415 0.0242,0 0.044,0.0187 0.044,0.0415 0,0.0229 -0.008,0.0415 -0.0183,0.0415 -0.0101,0 -0.0299,-0.0187 -0.044,-0.0415 z m 3.98419,-0.54179 c -0.0381,-0.0617 -0.008,-0.0835 0.0588,-0.0423 0.0357,0.022 0.04,0.0435 0.012,0.0607 -0.0237,0.0146 -0.0556,0.006 -0.0709,-0.0183 z m -0.061,-0.28852 c 0,-0.0229 0.0187,-0.0415 0.0415,-0.0415 0.0229,0 0.0415,0.0187 0.0415,0.0415 0,0.0229 -0.0187,0.0415 -0.0415,0.0415 -0.0228,0 -0.0415,-0.0187 -0.0415,-0.0415 z m -0.045,-0.22833 c -0.004,-0.0229 -0.004,-0.0563 -10e-4,-0.0743 0.003,-0.018 -0.0126,-0.0666 -0.0346,-0.1078 -0.0272,-0.0508 -0.0247,-0.0904 0.008,-0.12287 0.0597,-0.0597 0.12862,-0.0631 0.0924,-0.005 -0.0147,0.0238 -0.008,0.0659 0.0149,0.0935 0.0284,0.0342 0.0233,0.0832 -0.0157,0.15387 -0.0315,0.057 -0.0602,0.085 -0.0638,0.0622 z m -2.69506,-1.65817 c 0,-0.01 0.0187,-0.0299 0.0415,-0.044 0.0228,-0.0141 0.0415,-0.006 0.0415,0.0183 0,0.0242 -0.0187,0.044 -0.0415,0.044 -0.0229,0 -0.0415,-0.008 -0.0415,-0.0183 z m -12.786753,-1.8914 c 0,-0.0685 0.01869,-0.12455 0.04149,-0.12455 0.02285,0 0.04149,0.0561 0.04149,0.12455 0,0.0685 -0.01869,0.12455 -0.04149,0.12455 -0.02285,0 -0.04149,-0.0561 -0.04149,-0.12455 z m 5.752993,-0.16104 c -0.0129,-0.0208 0.005,-0.0486 0.0386,-0.0616 0.0341,-0.0131 0.062,-0.007 0.062,0.014 0,0.0563 -0.0738,0.0912 -0.10069,0.0477 z m -4.086429,-0.16723 c -0.04179,-0.026 -0.04372,-0.0428 -0.0076,-0.0651 0.05697,-0.0352 0.09973,-0.004 0.07865,0.0573 -0.0086,0.0251 -0.03793,0.0283 -0.07103,0.008 z m -1.844238,-0.1249 c -0.08985,-0.10694 -0.104904,-0.14997 -0.06802,-0.19443 0.06188,-0.0746 0.013,-0.26574 -0.06793,-0.26574 -0.04911,0 -0.0536,-0.0175 -0.02052,-0.0793 0.02666,-0.0498 0.07136,-0.0717 0.120266,-0.0589 0.04733,0.0124 0.123149,-0.0216 0.193425,-0.0868 0.132864,-0.12313 0.18071,-0.13075 0.292734,-0.0466 0.07745,0.0582 0.07353,0.0669 -0.100816,0.22338 -0.164176,0.14735 -0.183889,0.18575 -0.207579,0.40427 l -0.0262,0.24145 -0.115395,-0.13734 z m -1.040116,-0.0312 c -0.04819,-0.0482 -0.03027,-0.0926 0.05597,-0.13872 0.06667,-0.0357 0.08896,-0.0309 0.10984,0.0235 0.03463,0.0903 -0.09832,0.18271 -0.165811,0.11522 z m 9.676733,-0.5224 c -0.048,-0.13051 0.0677,-0.19473 0.23515,-0.13049 0.0941,0.0361 0.0813,0.0789 -0.0401,0.1342 -0.13459,0.0613 -0.1714,0.0606 -0.19507,-0.004 z m -8.08532,-0.1972 c -0.03011,-0.0563 -0.03062,-0.083 -0.0015,-0.083 0.02361,0 0.03829,-0.0234 0.0326,-0.0519 -0.0058,-0.029 0.02168,-0.0465 0.06227,-0.0397 0.03997,0.007 0.07265,-0.005 0.07265,-0.0261 0,-0.0211 0.05605,-0.0615 0.124546,-0.0899 0.0685,-0.0284 0.124546,-0.0639 0.124546,-0.079 0,-0.0151 0.04819,-0.0314 0.107138,-0.0363 0.05893,-0.005 0.137343,-0.0258 0.174256,-0.0464 0.04007,-0.0224 0.107062,-0.0223 0.166197,1.1e-4 0.05449,0.0207 0.11701,0.0266 0.138927,0.0131 0.02194,-0.0136 0.06741,-0.002 0.101086,0.0262 0.04057,0.0337 0.138744,0.0428 0.291149,0.0271 0.180182,-0.0186 0.235005,-0.0105 0.253444,0.0376 0.01295,0.0337 0.01163,0.0732 -0.003,0.0878 -0.04002,0.04 -0.433007,0.0832 -0.48196,0.053 -0.02356,-0.0146 -0.140603,-0.0101 -0.260122,0.01 -0.119518,0.02 -0.270415,0.0417 -0.335334,0.0481 -0.06491,0.006 -0.130299,0.0287 -0.1453,0.0495 -0.01503,0.0208 -0.07398,0.0428 -0.131066,0.0489 -0.05708,0.006 -0.124531,0.0388 -0.149881,0.0726 -0.06121,0.0816 -0.08766,0.0776 -0.140725,-0.0215 z m 7.92945,0.0647 c 0,-0.01 0.0187,-0.0299 0.0415,-0.044 0.0229,-0.0141 0.0415,-0.006 0.0415,0.0183 0,0.0242 -0.0187,0.044 -0.0415,0.044 -0.0228,0 -0.0415,-0.008 -0.0415,-0.0183 z m -16.053474,-0.0733 c -0.0229,-0.0295 -0.05329,-0.0864 -0.06753,-0.12632 -0.01519,-0.0426 -0.06833,-0.0727 -0.12854,-0.0727 -0.05645,0 -0.114651,-0.0194 -0.129329,-0.0432 -0.01731,-0.028 0.01102,-0.0337 0.08058,-0.0162 0.08858,0.0222 0.107267,0.0124 0.107267,-0.0562 0,-0.14984 0.203882,-0.14842 0.206941,0.002 3.5e-4,0.0171 0.02979,0.0311 0.06542,0.0311 0.04945,0 0.06173,0.0368 0.05189,0.15534 -0.01356,0.16348 -0.108293,0.22776 -0.186698,0.12667 z m 15.690954,-0.0506 c -0.10139,-0.0469 -0.1874,-0.23949 -0.15023,-0.33636 0.0279,-0.0727 0.0739,-0.0767 0.18691,-0.0162 0.0987,0.0528 0.15505,0.0168 0.0844,-0.0539 -0.0791,-0.0791 -0.0591,-0.0943 0.13469,-0.10302 0.18558,-0.008 0.30712,0.0645 0.25322,0.15171 -0.0421,0.0682 -0.17918,0.0507 -0.22981,-0.0293 -0.0311,-0.0491 -0.0408,-0.0525 -0.0299,-0.0104 0.009,0.0342 0.0573,0.083 0.10774,0.10838 l 0.0917,0.0461 -0.1157,0.0773 c -0.0636,0.0425 -0.13201,0.0724 -0.15194,0.0664 -0.0199,-0.006 -0.0258,0.0163 -0.013,0.0496 0.0304,0.0793 -0.0516,0.10358 -0.16799,0.0497 z m -3.33547,-0.25627 c 0.0474,-0.0884 0.0861,-0.18435 0.0861,-0.21323 0,-0.0289 0.0187,-0.0525 0.0415,-0.0525 0.0228,0 0.0415,0.0187 0.0415,0.0415 0,0.0229 0.02,0.0415 0.0445,0.0415 0.0723,0 0.17291,0.12213 0.14994,0.18199 -0.0117,0.0304 -0.0742,0.0668 -0.13896,0.081 -0.0648,0.0141 -0.16117,0.038 -0.21426,0.0531 l -0.0965,0.0274 0.0861,-0.16073 z m -0.33939,-0.16493 c -0.14194,-0.077 -0.15255,-0.23528 -0.0219,-0.32679 0.11782,-0.0825 0.17252,-0.0824 0.14077,3.6e-4 -0.0189,0.0492 -0.006,0.0589 0.0543,0.0398 0.0949,-0.0301 0.14706,0.0379 0.10432,0.13588 -0.017,0.0388 -0.0268,0.10336 -0.0218,0.14332 0.0111,0.0899 -0.0978,0.093 -0.2557,0.007 z m 4.27216,-0.13252 c -0.0238,-0.0394 0.0585,-0.11136 0.13886,-0.12131 0.0342,-0.004 0.10881,-0.0216 0.1657,-0.0386 0.10031,-0.03 0.1015,-0.028 0.0395,0.0655 -0.0624,0.0939 -0.30414,0.16031 -0.34401,0.0944 z m -4.52471,-0.16203 c -0.0504,-0.0504 -0.0287,-0.0947 0.0346,-0.0704 0.0342,0.0131 0.0623,0.0406 0.0623,0.061 0,0.0435 -0.0572,0.049 -0.0969,0.009 z m 0.0819,-0.15906 c -0.0328,-0.0855 0.0402,-0.22841 0.11677,-0.22841 0.0315,0 0.0657,-0.0234 0.0759,-0.0519 0.0247,-0.0693 0.0592,-0.0332 0.0892,0.0935 0.0309,0.13047 -0.01,0.19351 -0.14751,0.22804 -0.0793,0.0199 -0.11512,0.009 -0.13436,-0.0412 z m 7.3217,-0.20321 c 0,-0.009 0.028,-0.0271 0.0623,-0.0402 0.0342,-0.0132 0.0623,-0.006 0.0623,0.0163 0,0.0221 -0.028,0.0402 -0.0623,0.0402 -0.0343,0 -0.0623,-0.007 -0.0623,-0.0163 z m -9.28094,-0.56852 c -0.01534,-0.0248 -0.01163,-0.0614 0.0083,-0.0813 0.0491,-0.0491 0.157157,0.0223 0.121372,0.0803 -0.03626,0.0587 -0.09374,0.0591 -0.12965,0.001 z m 0.230567,0.004 c 0,-0.0229 0.03844,-0.0415 0.08549,-0.0415 0.04703,0 0.07394,0.0187 0.05982,0.0415 -0.0141,0.0229 -0.05258,0.0415 -0.08548,0.0415 -0.03291,0 -0.05983,-0.0187 -0.05983,-0.0415 z m -0.352584,-0.29013 c -0.01452,-0.0235 0.002,-0.0305 0.03905,-0.0163 0.07192,0.0276 0.08508,0.0574 0.02534,0.0574 -0.02148,0 -0.05048,-0.0185 -0.06443,-0.041 z m -0.498479,-0.16654 c -0.127948,-0.0326 -0.104178,-0.0467 0.09064,-0.054 0.06127,-0.002 0.118873,0.0183 0.128009,0.0457 0.01818,0.0546 -0.02961,0.0564 -0.218649,0.008 z m -0.07611,-0.15222 c -0.01523,-0.0152 -0.02768,-0.0415 -0.02768,-0.0584 0,-0.0399 0.16051,0.002 0.189917,0.0496 0.0261,0.0422 -0.120839,0.0502 -0.162236,0.009 z M 109.16387,146.695 c -0.0692,-0.15183 -0.0607,-0.21815 0.0343,-0.26902 0.0917,-0.0491 0.0948,-0.0429 0.0838,0.16606 -0.0101,0.19267 -0.0582,0.23459 -0.11817,0.10296 z"
       id="path3628"
       inkscape:connector-curvature="0" />
    <path
       inkscape:connector-curvature="0"
       style="fill:none;stroke:#ff0000;stroke-width:0.24534719;stroke-linecap:round;stroke-linejoin:bevel;stroke-miterlimit:4;stroke-dasharray:none"
       d="m 109.06314,156.89633 c 0,0.60729 -0.46847,1.0996 -1.04642,1.0996 -0.57788,0 -1.0465,-0.49183 -1.0465,-1.09894 0,-0.60712 0.46849,-1.09894 1.04642,-1.09894 0.57803,0 1.0465,0.49279 1.0465,1.0999 z"
       id="path4736" />
    <path
       inkscape:connector-curvature="0"
       style="fill:none;stroke:#ff0000;stroke-width:0.24534719;stroke-linecap:round;stroke-linejoin:bevel;stroke-miterlimit:4;stroke-dasharray:none"
       d="m 108.61997,156.8646 c 0,0.35064 -0.27144,0.6348 -0.60631,0.6348 -0.33477,0 -0.60615,-0.28416 -0.60615,-0.63467 0,-0.35046 0.27138,-0.63461 0.60615,-0.63461 0.33487,0 0.60631,0.28434 0.60631,0.63402 z"
       id="path4738" />
  </g>
</svg>
