<?xml version="1.0" encoding="UTF-8" standalone="no"?>
<svg
   xmlns:dc="http://purl.org/dc/elements/1.1/"
   xmlns:cc="http://creativecommons.org/ns#"
   xmlns:rdf="http://www.w3.org/1999/02/22-rdf-syntax-ns#"
   xmlns:svg="http://www.w3.org/2000/svg"
   xmlns="http://www.w3.org/2000/svg"
   xmlns:sodipodi="http://sodipodi.sourceforge.net/DTD/sodipodi-0.dtd"
   xmlns:inkscape="http://www.inkscape.org/namespaces/inkscape"
   version="1.1"
   width="24.658628"
   height="24.793497"
   id="svg5780"
   inkscape:version="0.91 r13725"
   sodipodi:docname="XSLC.svg">
  <metadata
     id="metadata5788">
    <rdf:RDF>
      <cc:Work
         rdf:about="">
        <dc:format>image/svg+xml</dc:format>
        <dc:type
           rdf:resource="http://purl.org/dc/dcmitype/StillImage" />
        <dc:title></dc:title>
      </cc:Work>
    </rdf:RDF>
  </metadata>
  <defs
     id="defs5786" />
  <sodipodi:namedview
     pagecolor="#ffffff"
     bordercolor="#666666"
     borderopacity="1"
     objecttolerance="10"
     gridtolerance="10"
     guidetolerance="10"
     inkscape:pageopacity="0"
     inkscape:pageshadow="2"
     inkscape:window-width="1858"
     inkscape:window-height="1058"
     id="namedview5784"
     showgrid="false"
     fit-margin-top="2"
     fit-margin-left="0"
     fit-margin-right="0"
     fit-margin-bottom="2"
     inkscape:zoom="27.25781"
     inkscape:cx="19.419287"
     inkscape:cy="10.847934"
     inkscape:window-x="54"
     inkscape:window-y="-8"
     inkscape:window-maximized="1"
     inkscape:current-layer="svg5780" />
  <path
     d="m 19.675902,2.1385159 -0.179438,0.07992 -0.278953,0.068167 -0.286788,0.1598489 -0.144962,0.043876 -0.133208,0.2413405 -0.0666,0.05328 -0.0094,0.1261564 0.07365,-0.01019 0.145747,0.012538 0.02194,0.094807 0.04623,0.074437 -0.0094,0.1943257 -0.141044,0.1684691 -0.102647,0.3714145 -0.04545,0.1958934 -0.06974,0.2076478 0.07836,0.1230208 -0.06661,0.1363428 -0.148095,0.035258 -0.161417,0.1896248 -0.126155,0.091683 -0.209998,-0.010967 -0.218618,-0.08619 -0.172386,0.5453689 0.02429,0.08619 -0.05171,0.072088 -0.02272,0.2288037 -0.0956,0.08384 0.07522,0.159849 0.112053,0.081492 0.08228,-0.091683 0.304811,-0.06347 0.163768,0.076009 0.101864,-0.1888416 0.258579,-0.04701 0.152798,0.093245 0.110483,0.014101 0.07052,0.1057829 0.228804,0.1363417 0.124588,0.2413414 -0.08149,0.095593 -0.14261,0.033695 -0.183356,-0.045448 -0.07443,0.039178 -0.114401,-0.02037 -0.220185,0.1747364 -0.105,-0.021157 -0.03761,0.1089165 -0.179438,0.023505 -0.13164,0.1324248 -0.06895,0.1661174 8.24e-4,0.1073492 -0.202947,0.2139162 -0.381599,0.05328 -0.07131,0.1347753 -0.284438,0.2773856 -0.393355,-0.017236 -0.09011,-0.074437 -0.231154,-0.00708 -0.150447,0.4105926 0.263282,0.3165644 -0.08698,0.06974 -0.07443,0.082279 -0.188057,0.1042155 -0.271902,0.3651453 -0.365145,0.1919763 -0.492085,0.042314 -0.158283,0.040751 -0.201378,-0.027427 -0.07757,0.066605 -0.22175,0.058773 -0.346423,0.1786568 -0.356481,0.2272377 -0.115185,-0.036044 -0.07992,-0.110484 -0.161416,0.0431 -0.443504,-0.1183207 -0.336937,-0.083841 -0.140259,-0.168469 -0.7013,-0.1136187 -0.380034,0.065043 L 10.615477,9.1373838 10.260518,9.1083854 9.9086926,9.0214097 9.7135781,8.7612885 9.5788029,8.3099488 9.4980948,8.2574548 9.4996768,8.1508888 9.312353,8.1023059 8.9816839,7.8664497 8.7850069,7.6807428 8.0978113,7.5812284 7.9168063,7.4840625 7.7796803,7.4566364 7.7138595,7.3821995 7.7318826,7.2035443 7.8862465,6.9911953 7.852551,6.8266442 7.9183709,6.7443657 7.9301226,6.612725 7.7875118,6.3400405 7.7491162,6.1128043 7.62061,5.9223954 7.550089,5.9380689 7.4153139,5.7962418 7.3432247,5.818961 7.2390092,5.8181632 7.1872906,5.7476374 7.1042319,5.5650641 6.9263608,5.4451771 6.9287093,5.3762236 6.8464337,5.2351807 6.8879661,5.1717105 6.8816967,5.0682791 6.7657274,5.0964914 6.6458407,5.0447738 6.5024462,5.0690653 6.4844232,5.1842512 6.4272252,5.3190256 6.2407578,5.400518 6.0628863,5.3707433 5.9202756,5.6990613 5.9398661,5.9576406 5.9014714,6.092416 5.7384878,6.1229768 5.5841237,6.1981998 5.5230049,6.1268977 5.414088,6.0689106 5.268343,6.0602632 4.9329729,5.8706384 4.8828246,5.9960107 4.6132759,6.4559674 4.4808519,6.7310025 4.5882016,6.8367853 4.5153292,6.9817461 4.426002,6.9206243 4.2818243,6.9229827 4.1815266,6.7944768 l -0.2734675,0.048583 -0.3659295,0 -0.090111,0.075223 0.2005952,0.1198871 -0.050933,0.081492 -0.064254,0.2546614 0.068171,0.3330202 -0.028208,0.1026481 0.014889,0.1128344 -0.141827,0.039965 -0.00706,0.1018648 -0.1433941,0.056415 -0.0094,0.1222377 L 3.2357538,8.4948371 3.126837,8.4595791 3.033591,8.5167801 2.8102723,8.5543866 2.455313,8.6586021 2.257852,8.8294216 1.9922203,8.8012094 1.7594985,8.7126614 1.5730075,8.9187419 1.4397999,9.0198227 1.3293159,8.9790817 1.1984589,8.9908347 1.1428249,8.80121 1.000998,8.85449 0.83252939,8.792582 0.82391139,8.853704 0.59824164,8.927354 0.4579817,8.903849 l -0.0995138,0.08619 -0.028993,0.1958941 -0.12145401,0.022719 -0.0470146,0.1049987 0.0470146,0.1567153 -0.073656,0.037607 0.0336935,0.2288036 0.12850643,-0.065033 0.25466188,0.1629847 -0.0619026,0.1598487 0.0195902,0.1136189 -0.0203719,0.264065 0.002359,0.12929 -0.2852213,0.0032 -0.004701,0.08149 0.14887938,0.09873 0.17708782,0.0431 0.0438803,0.13556 0.12850642,0.05172 0.0352608,0.217834 -0.0470146,0.139476 0.073656,0.16455 0.11361855,0.02272 0.15906553,0.181007 0.3573103,0.167684 0.022723,-8.25e-4 7.983e-4,0.0016 0.019591,-0.0024 0.041529,-8.24e-4 0.018021,0.03448 -0.029776,0.05093 -0.014104,0.04466 0.028208,0.105783 0.00314,0.03997 -0.0047,0.05484 0.017239,0.03997 0.00627,0.06503 -0.00627,0.03605 0.025858,0.0572 0.050149,0.02195 0.083842,0.03683 0.036827,0.04545 0.017239,0.03526 0.047799,0.02821 0.018806,0.03369 -0.010969,0.05956 -0.030559,0.02743 -0.099514,0.01567 -0.010969,0.05249 0.00314,0.05172 0.00627,0.05564 -0.00784,0.04231 -0.025073,0.09246 0.017239,0.06974 -0.00156,0.0094 0.00627,0.0071 0.00156,0.007 0.012538,0.01254 0,-0.0016 0.1230213,0.147313 -7.982e-4,0.0063 -0.042312,-0.01881 -0.01332,0.03683 -0.019591,0.02429 -0.00706,0.02272 0.012538,0.02116 0.020371,0.0086 0.014104,0.04859 -0.01332,0.03212 -0.016455,0.01019 0.011754,0.02429 7.982e-4,0.02273 -0.016455,0.0376 0.00627,0.02195 -0.021941,0.02743 -0.00548,0.03526 0.029776,-0.0047 0.025858,-0.01333 -0.00156,0.01333 -0.2303708,0.04545 -0.040747,-0.130858 -0.1285065,-0.02429 -0.023507,0.152797 0.07444,0.195893 -0.00627,0.01881 -0.0094,-0.0235 -0.050933,-0.06347 -0.025073,-0.0666 -0.032126,0.0094 0.00236,0.0431 0.020371,-0.0055 0.030558,0.05172 0.034477,0.0572 0.0094,0.04859 0.00391,-0.0047 -0.010187,0.02821 0.00706,0.100298 -0.029776,0.09638 -0.00156,0.06347 0.047013,0.04623 -0.010187,0.0032 0.022722,0.04701 0.00156,0.04467 0.01332,0.02821 0.07444,0.03056 0.032911,0 0.021156,0.0016 0.094812,0.09324 0.1614163,0.04231 0.081491,0.126154 -0.021156,-0.02429 -0.0047,0.03605 -0.00236,0.02429 0.025858,0.01019 0.022722,0.029 0.020371,-0.01333 0.010969,0.01724 0.1763044,0.165334 0.1277224,0.141828 0.054067,0.111268 0.2609306,-0.175522 0.029776,0.09246 0.1151857,0.08149 0.2319382,0.1622 0.1026481,0.146528 0.1880578,0.148879 0.046232,0.202946 0.1214541,0.114402 0.103432,-0.133992 0.091678,0.05249 -0.027425,0.228805 0.3126463,0.200594 0.1371256,-0.01333 -0.01332,0.0815 0.025857,0.116752 0.1410434,0.03056 0.1645509,0.108917 0.043097,0.127723 0.072873,-0.07522 0.078358,0.08698 0.067388,0.03056 0.1183197,-0.07288 0.2546618,0.210782 0.1433944,-0.02273 0.077575,0.05564 0.470145,-0.105783 0.1112675,0.0619 0.00314,0.09012 -0.071305,0.156715 0.027425,0.09011 0.044664,-0.0055 0.1488791,-0.158281 0.1786551,-0.149663 0.2530945,-0.115969 0.1457444,0.04937 0.1543647,0.154363 0.2891393,0.03761 0.184923,0.130073 -0.043882,0.09481 0.024295,0.07052 0.048583,0.05015 0.1136182,0.0055 0.038396,0.04075 -0.00551,0.04859 -0.046233,0.05877 0.00158,0.05328 0.028995,0.02272 0.015672,0.05721 -0.00469,0.02116 0.096379,0.0032 0.097163,-0.01802 0.075224,-0.02429 0.06817,0.05172 0.085409,0.0032 0.086976,0.01881 0.085409,-0.01096 0.04231,0.0078 0.024289,-0.007 0.1057827,-0.01958 0.058769,-0.01489 0.019588,-0.08384 0.07679,-0.07209 0.06817,-0.04075 0.072089,-0.07757 0.1002973,-0.01881 0.1716033,-0.03526 0.075223,-0.04701 0.062684,-0.01567 0.052498,-0.03135 0.052498,-0.01958 0.031345,-0.08776 0.2867883,-0.08854 0.015672,0.03526 0.040746,0.02664 0.069738,-8.23e-4 0.043881,-0.01802 0.032124,0.05328 0.036046,0.0055 0.010966,-0.01176 0.088544,0.07131 0.09873,0.08149 0.070521,0.02743 0.034481,0.03918 0.00311,0.03369 0.1716021,-0.111267 0.014102,-0.04701 -0.015673,-0.06269 0.015673,-0.04937 -0.015673,-8.24e-4 0.086976,-0.09951 0.09168,-0.03212 0.0666,0.08071 0.09872,0.0431 0.05249,0.181006 0.107349,0.23664 0.05015,-0.06269 0.113618,0.0713 -0.02037,0.193543 0.02116,0.08462 -0.01176,0.384735 -0.07522,0.157498 0.02587,0.123022 -0.08071,0.03526 -0.08462,0.117537 -0.07757,0.0032 -0.04075,0.115185 -0.155931,0.06189 -0.043104,0.144961 0.015674,0.06033 -0.082279,0.02743 -0.038393,0.06347 0.01646,0.125371 0.04154,0.04623 0.019583,0.107349 -0.067397,0.110485 0.014892,0.06269 0.1324239,-0.04545 0.07365,-0.07522 0.231938,-0.01568 0.06033,0.0376 0.128506,-0.01333 -0.09011,0.126939 0.0666,0.09951 0.04231,0.273468 0.08932,0.07836 0.199028,0.0024 0.02116,0.07131 -0.09324,0.139477 0.01958,0.108133 -0.07836,0.103433 -0.02507,0.104215 0.09012,0.03918 0.05015,-0.01019 0.260932,0.0619 -0.01567,0.127723 0.07366,0.07757 0.07287,0.147312 0.06426,-0.06503 0.117537,0.04937 0.124587,-0.102648 0.133992,-0.04701 0.116753,0.300108 0.119887,-0.02194 0.113618,0.02743 0.0235,-0.259362 -0.117536,-0.317349 0.07679,-0.145744 0.06581,0.02978 0.175521,-0.0086 0.09638,-0.07288 0.07443,-0.109699 0.164551,0.08149 0.05877,0.07443 0.05093,0.004 0.173169,-0.184923 0.08306,0.117535 0.06503,-0.114401 0.159065,0.157498 0.04389,-0.104999 0.07992,-0.07914 0.06739,0.06269 0.08384,-0.04074 0.177089,-0.06817 0.0055,-0.105783 0.240558,-0.1622 0.129289,0.124588 0.188058,0.101081 0.119887,-0.03918 0.08071,0.07757 0.09951,-0.04153 0.144178,0.05328 0.0032,0.07757 -0.09168,0.07288 -0.0086,0.08462 0.04075,0.03997 0.04545,0.176304 0.15123,0.03839 0.08071,0.09403 0.186491,0.07601 0.169252,-0.04701 0.0909,0.05955 0.08384,-0.03291 0.01333,0.01176 0.05093,0 0.02507,-0.05641 0.06974,-0.01958 0,-0.119886 0.06974,-0.0188 0.01881,0.07601 0.06347,0.08228 0.03761,-0.03839 0.06974,0.03839 0.06974,0.01881 0.02587,0.101082 0.04389,-0.03135 0.152013,-0.03212 -0.02508,-0.107351 0.03135,-0.0063 0.07601,0.09482 0.145744,0.01254 -0.03135,0.0572 -0.06974,0.10735 -0.02586,0.202945 0.06974,0.01881 0.01254,0.145745 0.108132,0.0572 -0.03212,0.02507 0.01958,0.06347 0.189625,-0.0063 0.08854,-0.08854 0.0063,-0.03839 -0.08854,-0.08854 -0.01881,-0.08854 -0.06974,-0.02508 -0.02508,-0.08228 0.05641,-0.0572 0.08932,-0.06347 0.06269,-0.0063 0.08932,-0.120671 0.10108,-0.0063 0.04389,-0.05641 0.139476,-0.007 0.04466,-0.03761 0.08228,0 0.08228,-0.0572 0,-0.05641 0.076,-0.02587 0.0572,-0.03135 0.08228,0 0.101082,0 0.01881,-0.0572 0.09482,0.02508 0.108133,-0.07601 0.101081,0 -0.01019,-0.148096 0.02429,-0.05328 0.08462,0.109701 0.08854,-0.114402 -0.03212,-0.07992 0.07052,0.06739 0.0376,-0.007 0.02429,-0.04623 -0.0063,-0.04545 -0.03526,-0.09246 -0.0094,-0.08776 -0.02116,-0.03369 0.01881,-0.05093 0.05093,0.05093 0.05564,-0.0055 0.02429,0.06033 0.05956,0.05485 0.06974,-0.004 -0.02587,0.09011 0.06347,-0.0063 0.04231,0.01096 0.07051,0.01333 -0.0141,-0.04545 0.05093,-0.03212 -0.07992,-0.06739 0.08462,-0.03369 0.07288,0.03369 0.007,-0.09482 0.08855,-0.04388 0.01254,0.09482 0.08228,-0.0063 0.03839,-0.06347 0.08854,-0.08228 0.07601,-0.0063 0.03135,0.01881 0.0063,0.0572 0.06974,0 0.01958,-0.107349 0.02507,-0.03212 0.101081,0.0572 0.09482,-0.06974 0.0572,-0.01254 0.076,-0.0572 0.120669,-0.01881 0.01254,-0.133208 0.101082,-0.04389 -0.03761,-0.06347 -0.05093,-0.01958 0.145744,-0.01254 0.09481,-0.04388 -0.05093,-0.04467 0.04467,-0.06347 0.08854,0.0063 0.01881,-0.08854 0.06974,0.01254 -0.02508,-0.113618 0.09481,0.02507 0,-0.107349 0.06974,0 0.05093,-0.08228 0.05015,-0.05093 -0.03135,-0.06347 -0.0572,-0.05015 0.10108,-0.01881 0.04466,-0.06347 0.076,-0.03839 0.107351,0 0.03212,-0.04388 0.02508,-0.0572 -0.05093,-0.03135 -0.01881,-0.05093 0.133208,-0.0063 0.02507,-0.04467 -0.0376,-0.06974 0.05015,-0.04388 0.05093,-0.04466 0.0572,-0.01881 -0.0572,-0.06974 0.01254,-0.06974 0.04466,-0.05015 0.06974,0.04388 0.05641,0.01254 0.01333,-0.04389 -0.0572,-0.08228 0.0572,-0.08932 -0.03212,-0.05642 0.01254,-0.0572 -0.0376,-0.06347 0.03135,-0.101082 0.04467,-0.0572 -0.02587,-0.04388 -0.09481,-0.08228 0.01958,-0.06974 0.08228,0.01254 0.02508,0.03135 0.01881,-0.10108 0.08228,-0.0572 0.03839,-0.03135 0.0063,-0.08854 0.05015,-0.05093 -0.04388,-0.03135 0.06347,0 0.06974,-0.0956 -0.007,-0.09482 0.007,-0.0572 0.04388,-0.126155 0.03839,-0.08855 0.04388,-0.03212 0.01254,-0.152014 0.07601,-0.03135 0.01958,0.126938 0.06895,-0.0956 0.08305,-0.05642 -0.05093,-0.108133 -0.04467,-0.076 0.06974,-0.06347 0,-0.08855 0.06974,-0.09481 -0.02508,-0.07601 0.04389,-0.03761 -0.02508,-0.0956 -0.01254,-0.152013 -0.04466,0.108133 -0.06974,0.0063 0.08932,-0.120671 0.107349,-0.08228 0.08855,-0.04389 -0.01254,-0.06347 -0.139477,-0.0572 -0.0572,0.01881 -0.03761,0.08933 -0.06347,0.02507 -0.08228,-0.0572 -0.113617,-0.08854 -0.0956,0.01254 -0.119887,0.108134 -0.06347,0.02507 -0.114402,-0.01881 -0.101081,-0.02587 -0.01881,-0.03135 0.08228,-0.04467 0.133208,-0.01254 0.076,-0.02508 0.0063,-0.07601 0.158282,-0.126939 0.113618,-0.08228 0.08228,-0.101081 0.01958,-0.101082 -0.08932,-0.07601 -0.132424,-0.05093 -0.101864,-0.0572 -0.05015,-0.05641 -0.101863,-0.01958 -0.119888,-0.01881 -0.01254,-0.06974 -0.09481,-0.01881 -0.101865,0.05093 -0.0376,0.01254 0.04388,-0.06974 0.08228,-0.03839 0.12067,0.01254 0.04388,0.06347 0.06974,0.02587 0.120669,0 0.08855,0.01254 0.08854,0.05015 0.114402,0.01958 0.05641,-0.01254 0.01958,-0.03839 -0.06974,-0.09481 -0.133207,-0.120671 -0.119887,-0.03135 -0.04466,-0.126939 -0.114402,-0.04389 -0.126155,-0.03212 -0.04467,-0.03135 0.01958,-0.08228 -0.03212,-0.08228 -0.152012,-0.22175 -0.09481,-0.158283 -0.12067,-0.22802 -0.06269,-0.06347 -0.165334,-0.05093 -0.144961,-0.04388 -0.0572,-0.06347 -0.139475,-0.02507 -0.01254,-0.114402 0.06347,-0.06269 0.01254,-0.108134 0.03761,-0.0572 0.05093,-0.126156 0.08228,-0.02587 0.01881,-0.06269 0.03839,-0.101865 0.06347,-0.05641 -0.06974,-0.07601 0.03761,-0.03839 0.06347,0.03212 0.08228,0.01254 0.06974,-0.06974 -0.0063,-0.152013 0.0376,-0.06974 0.0572,-0.01254 0.114402,-0.09481 0.08228,-0.0572 0.10735,-0.08228 0.06347,-0.08228 0.06974,0.01254 0.03135,-0.03135 0.06974,0.06269 0.08228,-0.06269 -0.03135,-0.08306 0.02507,-0.06269 -0.0063,-0.114402 -0.08228,-0.03135 -0.06974,0.03761 -0.08228,-0.03761 -0.12694,0.05015 -0.101081,0.05093 -0.05721,-0.02507 -0.04388,-0.05093 -0.0572,0.01254 -0.107349,-0.06974 -0.08228,-0.03761 -0.101866,0.03761 -0.10735,0.08228 -0.01881,0.101865 -0.114402,0.101081 -0.01881,0.10735 -0.08228,0.08933 -0.177089,-0.01958 -0.133207,-0.05015 -0.01881,-0.240558 -0.08228,-0.08932 -0.120671,-0.03135 -0.07601,-0.0572 -0.06974,0.02587 -0.08228,0.05015 -0.07601,-0.06347 -0.101081,-0.08228 -0.06974,-0.132424 -0.01254,-0.164551 0.04389,-0.108133 0.101864,-0.06974 0.05641,-0.01254 0.08932,0.04467 0.06269,-0.03212 0.03839,-0.04389 0.08855,0 0.0376,-0.02586 0.03212,0.01333 0.01881,-0.126939 0.03135,-0.114402 0.06974,-0.113618 0.06347,-0.03761 0,-0.0572 0.133207,-0.082279 0.152015,-0.1144032 0.076,-0.050145 0.0063,-0.1269387 0.09482,-0.133208 0.03839,-0.037607 0.01254,-0.082279 0.08228,-0.050932 0.126155,-0.00629 0.08932,-0.050932 0.07601,0.019585 0.126156,0.1261555 0.06974,0.050932 -0.04389,0.1010808 -0.04466,0.1010808 -0.03135,0.095593 -0.101864,0.076009 -0.04389,0.050145 -0.0063,0.1269389 -0.0572,0.03135 0.08854,0.05093 0.05093,0.04467 0.08855,-0.02586 -0.03839,0.108133 -0.01254,0.06269 -0.06974,0.03839 -0.02507,0.05093 -0.0572,0.0063 -0.02507,0.09481 0.0376,0.04389 0.101863,-0.08228 0.08855,-0.101081 0.101081,-0.06974 0.0572,-0.06347 0.04389,-0.101081 0.190409,-0.1708213 0.132424,-0.1089179 0.06347,-0.00629 0.02821,-0.061908 0.115968,-0.021157 0.05172,-0.051718 0.136341,-0.012538 0.08698,-0.052494 0.03369,-0.1629837 0.232721,-0.292273 0.271902,-0.230371 0.178654,-0.301676 0.01333,-0.1966773 0.141043,-0.098731 0.170035,0.1191038 0.365147,-0.048583 0.01019,-0.097165 -0.133208,-0.1480954 0.02272,-0.082279 0.191193,-0.048583 0.180222,-0.1191039 0.02743,-0.1637669 0.135558,-0.036045 0.01254,-0.3306686 0.117537,-0.018808 0.08305,0.1277229 0.118321,0.021157 -0.05015,-0.057201 0.04545,-0.076785 0.121455,-0.087762 0.05955,-0.3016771 -0.06426,-0.068954 -0.04075,-0.2844372 -0.238208,-0.41216 0.12929,-0.061908 0.128507,-0.2648486 0.09872,0.037617 0.385519,-0.031347 -0.01958,-0.2374236 0.07131,-0.08619 0.01958,-0.3142128 0.04623,-0.106567 -0.04545,-0.1473113 0.01254,-0.1002976 -0.01488,-0.2577971 -0.02195,-0.09011 0.03526,-0.085413 0.0666,-0.054852 0.03369,-0.1473122 -0.11597,-0.1285061 -0.0016,-0.1645501 -0.119888,-0.051718 -0.193542,0.1426101 -0.100298,0.1379092 -0.09794,0.018022 -0.105783,0.080707 -0.08149,0.1974616 -0.249178,0.1127733 -0.173953,0.014102 -0.116753,0.061122 -0.210758,-0.1697911 0.03135,-0.1285059 -0.141827,-0.14494 -0.03291,-0.1559313 -0.131641,0.045448 -0.358878,-0.2147004 -0.113619,0.054852 -0.209997,-0.095594 -0.133992,0.08619 -0.170818,0.00943 -0.153635,-0.1517725 -0.02507,-0.1661174 -0.0909,-0.037607 -0.03221,-0.1802551 -0.228017,-0.235072 -0.0094,-0.1089166 -0.2309,-0.288204 -0.0431,-0.1535808 L 20.7785,2.5764314 20.659395,2.4831864 20.602985,2.3836724 20.271533,2.2183381 20.131273,2.2810221 19.676015,2.138412 Z m 2.230838,15.7334011 -0.03135,0.04859 0.01333,0.05407 -0.107349,0.03997 -0.076,0.06269 -0.03605,0.08071 -0.01333,0.09873 -0.05799,0.06269 -0.04075,0.148096 -0.04466,0.129289 -0.0666,0.156715 -0.03605,0.130073 -0.01333,0.138693 0.0086,0.130074 0.03605,0.05799 0.05328,0.08071 0.04937,0.143394 0.06269,0.08462 0.07601,0.03135 0.07209,0.01802 0.05799,0.07601 0.03605,0.09403 0,0.05407 0.02194,0.01333 0.05878,-0.01802 0.01333,-0.120672 -0.02664,-0.112051 0.03135,-0.147312 0.08932,-0.143393 0.04937,-0.170036 0.02664,-0.161417 0.01802,-0.461526 0.01802,-0.138693 0.02195,-0.03605 0,-0.09403 -0.03135,-0.03526 -0.02665,-0.07209 0.04467,-0.0713 0.01802,-0.04074 -0.03135,-0.03526 -0.08932,-0.02273 -0.04075,0 -0.04467,-0.05328 -0.06269,0 z m -5.050924,3.617766 -0.12067,0.05328 -0.107349,0.03135 -0.165335,0.02272 -0.02273,0.03997 -0.08071,0.01802 -0.130073,-0.02195 -0.03135,0.004 -0.04467,0.02273 0,0.04466 -0.03526,0.01802 -0.09874,-0.0048 -0.05407,0.03605 0,0.05328 0.06269,0.0047 -0.03526,0.05799 -0.06739,0.01802 -0.192759,0.134776 -0.03135,0.0666 0.01802,0.06269 -0.02272,0.05878 0.02272,0.120671 0.03135,0.076 0.01802,0.10735 0.133991,0.05878 0.107351,0.04858 0.152797,-0.0086 0.05328,0.04937 0.112052,-0.01802 0,-0.08933 0.08932,-0.02272 0.0807,-0.0048 0.0048,-0.04859 0.08932,-0.112052 0.05407,0 0.05799,-0.02743 0.01802,-0.115969 0.02272,-0.156715 0.0666,-0.143396 0.06739,-0.09403 0.06269,-0.05407 -0.01333,-0.08462 -0.03604,-0.09874 0,-0.08932 -0.03605,-0.01332 z"
     style="fill:#ffffff;fill-opacity:1;stroke:#000000;stroke-width:0.24566613;stroke-miterlimit:4;stroke-dasharray:none;stroke-opacity:1"
     id="path5782"
     inkscape:connector-curvature="0" />
  <path
     inkscape:connector-curvature="0"
     style="fill:none;stroke:#ff0000;stroke-width:0.31530011;stroke-linecap:round;stroke-linejoin:bevel;stroke-miterlimit:4;stroke-dasharray:none"
     d="m 13.793777,17.237546 c 0,0.780452 -0.602065,1.413145 -1.344796,1.413145 -0.742637,0 -1.344881,-0.632073 -1.344881,-1.412284 0,-0.78021 0.602065,-1.412269 1.344797,-1.412269 0.742815,0 1.34488,0.6333 1.34488,1.413499 z"
     id="path4736" />
  <path
     inkscape:connector-curvature="0"
     style="fill:none;stroke:#ff0000;stroke-width:0.31530011;stroke-linecap:round;stroke-linejoin:bevel;stroke-miterlimit:4;stroke-dasharray:none"
     d="m 13.224239,17.196799 c 0,0.450607 -0.348847,0.815777 -0.779201,0.815777 -0.430205,0 -0.778949,-0.36517 -0.778949,-0.81564 0,-0.450354 0.348744,-0.815524 0.778949,-0.815524 0.430354,0 0.779201,0.365411 0.779201,0.814778 z"
     id="path4738" />
</svg>
